<svg width="667" height="667" viewBox="0 0 667 667" fill="none" xmlns="http://www.w3.org/2000/svg">
<g clip-path="url(#clip0_8_17212)">
<mask id="mask0_8_17212" style="mask-type:alpha" maskUnits="userSpaceOnUse" x="0" y="0" width="667" height="667">
<path d="M0 6.00815e-05H666.667V666.667H0V6.00815e-05Z" fill="white"/>
</mask>
<g mask="url(#mask0_8_17212)">
<path d="M584.742 573.501C591.476 569.173 597.577 564.039 602.714 557.82C640.893 511.607 640.494 446.403 637.87 390.215C634.77 323.891 623.037 257.54 589.117 199.039C556.425 142.651 507.164 94.7533 445.5 69.1373C428.488 62.0693 410.72 56.7507 392.572 53.2707C359.05 46.844 324.258 48.1893 291.564 58.0053C279.086 61.752 266.917 66.444 255.052 71.7374C173.933 107.929 162.665 182.507 131.12 257.085C108.792 309.873 56.2716 344.372 33.997 397.239C9.05165 456.444 49.029 521.139 100.04 552.911C111.714 560.181 124.214 566.177 137.174 570.947C258.394 615.553 395.121 629.237 521.302 596.768C542.536 591.305 566.066 585.505 584.742 573.501Z" fill="#02BFE1"/>
<mask id="mask1_8_17212" style="mask-type:alpha" maskUnits="userSpaceOnUse" x="26" y="49" width="613" height="566">
<path d="M26.3726 49.3333H638.894V614.628H26.3726V49.3333Z" fill="white"/>
</mask>
<g mask="url(#mask1_8_17212)">
<g opacity="0.699997">
<path d="M584.742 573.501C591.476 569.173 597.577 564.039 602.714 557.82C640.893 511.607 640.494 446.403 637.87 390.215C634.77 323.891 623.037 257.54 589.117 199.039C556.425 142.651 507.164 94.7533 445.5 69.1373C428.488 62.0693 410.72 56.7507 392.572 53.2707C359.05 46.844 324.258 48.1893 291.564 58.0053C279.086 61.752 266.917 66.444 255.052 71.7374C173.933 107.929 162.665 182.507 131.12 257.085C108.792 309.873 56.2716 344.372 33.997 397.239C9.05165 456.444 49.029 521.139 100.04 552.911C111.714 560.181 124.214 566.177 137.174 570.947C258.394 615.553 395.121 629.237 521.302 596.768C542.536 591.305 566.066 585.505 584.742 573.501Z" fill="white"/>
</g>
</g>
<mask id="mask2_8_17212" style="mask-type:alpha" maskUnits="userSpaceOnUse" x="0" y="0" width="667" height="667">
<path d="M0 6.00815e-05H666.667V666.667H0V6.00815e-05Z" fill="white"/>
</mask>
<g mask="url(#mask2_8_17212)">
<mask id="mask3_8_17212" style="mask-type:alpha" maskUnits="userSpaceOnUse" x="48" y="524" width="67" height="67">
<path d="M48.2646 524.425H114.165V590.326H48.2646V524.425Z" fill="white"/>
</mask>
<g mask="url(#mask3_8_17212)">
<g opacity="0.300003">
<path d="M70.3112 566.964C66.4005 562.516 65.4712 555.929 68.4712 550.428C72.3085 543.388 81.1258 540.794 88.1645 544.632C95.2018 548.47 97.7965 557.286 93.9578 564.325C90.4952 570.676 82.9778 573.409 76.3712 571.061M97.2245 540.912L100.708 531.214L92.6485 526.82L86.3832 535C84.5618 534.58 82.7205 534.38 80.8912 534.406L76.5005 525.093L67.6938 527.684L69.0472 537.892C67.4938 538.86 66.0538 540.025 64.7512 541.366L55.0538 537.881L50.6578 545.941L58.8392 552.208C58.4178 554.029 58.2178 555.87 58.2458 557.701L48.9312 562.092L51.5232 570.897L61.7298 569.544C62.6992 571.098 63.8645 572.538 65.2045 573.84L61.7205 583.538L69.7805 587.933L76.0458 579.752C77.8672 580.173 79.7085 580.373 81.5392 580.345L85.9298 589.658L94.7365 587.068L93.3818 576.86C94.9365 575.892 96.3752 574.726 97.6778 573.385L107.376 576.87L111.771 568.81L103.59 562.546C104.011 560.724 104.211 558.881 104.183 557.052L113.498 552.661L110.907 543.854L100.699 545.209C100.46 544.826 100.211 544.452 99.9498 544.084" stroke="black" stroke-width="1.33333" stroke-miterlimit="10" stroke-linecap="round" stroke-linejoin="round"/>
</g>
</g>
<mask id="mask4_8_17212" style="mask-type:alpha" maskUnits="userSpaceOnUse" x="56" y="477" width="46" height="46">
<path d="M56.6133 477.576H101.155V522.117H56.6133V477.576Z" fill="white"/>
</mask>
<g mask="url(#mask4_8_17212)">
<g opacity="0.300003">
<path d="M81.7113 509.139C79.3046 509.871 76.6166 509.674 74.234 508.375C69.5233 505.806 67.7873 499.906 70.3553 495.197C72.9246 490.486 78.8233 488.75 83.534 491.318C88.2446 493.887 89.9806 499.786 87.4113 504.497C87.134 505.007 86.8166 505.483 86.4646 505.922M65.838 517.354L71.2326 520.295L75.4246 514.821C76.6433 515.102 77.8766 515.235 79.1006 515.218L82.0393 521.45L87.9326 519.717L87.026 512.886C88.066 512.237 89.03 511.457 89.902 510.559L96.3913 512.891L99.3326 507.499L93.858 503.306C94.1393 502.086 94.274 500.854 94.2553 499.629L100.489 496.691L98.754 490.798L91.9233 491.703C91.2753 490.665 90.4953 489.701 89.598 488.829L91.93 482.338L86.5353 479.397L82.3433 484.873C81.1246 484.59 79.8913 484.457 78.6673 484.475L75.7286 478.242L69.8353 479.977L70.7406 486.807C69.702 487.455 68.738 488.235 67.866 489.133L61.3766 486.801L58.4353 492.194L63.91 496.387C63.6273 497.606 63.494 498.838 63.5126 500.063L57.2793 503.001L59.014 508.894L65.8446 507.99C66.4926 509.029 67.2726 509.993 68.17 510.865L65.838 517.354Z" stroke="black" stroke-width="1.33333" stroke-miterlimit="10" stroke-linecap="round" stroke-linejoin="round"/>
</g>
</g>
<mask id="mask5_8_17212" style="mask-type:alpha" maskUnits="userSpaceOnUse" x="379" y="150" width="67" height="67">
<path d="M379.298 150.105H445.198V216.005H379.298V150.105Z" fill="white"/>
</mask>
<g mask="url(#mask5_8_17212)">
<g opacity="0.300003">
<path d="M401.345 192.643C397.434 188.195 396.505 181.607 399.505 176.105C403.342 169.067 412.16 166.473 419.198 170.311C426.236 174.149 428.83 182.965 424.992 190.004C421.529 196.355 414.012 199.087 407.405 196.741M428.26 166.591L431.742 156.893L423.682 152.499L417.418 160.68C415.596 160.257 413.754 160.059 411.925 160.087L407.534 150.772L398.726 153.363L400.081 163.571C398.528 164.539 397.088 165.704 395.785 167.045L386.088 163.561L381.693 171.62L389.873 177.887C389.452 179.707 389.253 181.549 389.28 183.379L379.965 187.769L382.557 196.576L392.764 195.223C393.732 196.776 394.898 198.216 396.238 199.519L392.756 209.216L400.816 213.612L407.08 205.431C408.901 205.852 410.742 206.052 412.573 206.024L416.964 215.337L425.769 212.747L424.417 202.539C425.97 201.571 427.41 200.405 428.712 199.064L438.41 202.549L442.805 194.489L434.624 188.224C435.045 186.403 435.245 184.56 435.217 182.731L444.533 178.34L441.94 169.533L431.733 170.887C431.494 170.505 431.245 170.131 430.984 169.763" stroke="black" stroke-width="1.33333" stroke-miterlimit="10" stroke-linecap="round" stroke-linejoin="round"/>
</g>
</g>
<mask id="mask6_8_17212" style="mask-type:alpha" maskUnits="userSpaceOnUse" x="387" y="103" width="46" height="45">
<path d="M387.648 103.255H432.189V147.796H387.648V103.255Z" fill="white"/>
</mask>
<g mask="url(#mask6_8_17212)">
<g opacity="0.300003">
<path d="M412.745 134.818C410.338 135.55 407.651 135.353 405.269 134.053C400.557 131.485 398.822 125.585 401.389 120.874C403.958 116.165 409.858 114.429 414.569 116.997C419.278 119.566 421.014 125.465 418.446 130.176C418.167 130.686 417.85 131.162 417.498 131.601M396.873 143.033L402.267 145.974L406.459 140.5C407.678 140.781 408.91 140.914 410.135 140.897L413.073 147.129L418.967 145.396L418.061 138.565C419.101 137.917 420.063 137.136 420.937 136.238L427.426 138.57L430.367 133.177L424.891 128.985C425.174 127.765 425.307 126.533 425.289 125.309L431.522 122.37L429.787 116.477L422.957 117.382C422.31 116.344 421.529 115.38 420.631 114.508L422.963 108.017L417.57 105.077L413.378 110.552C412.159 110.269 410.926 110.136 409.701 110.154L406.763 103.921L400.87 105.656L401.775 112.486C400.735 113.134 399.773 113.914 398.899 114.812L392.41 112.48L389.47 117.874L394.943 122.066C394.662 123.285 394.529 124.517 394.547 125.742L388.314 128.68L390.049 134.574L396.879 133.668C397.527 134.708 398.307 135.672 399.205 136.542L396.873 143.033Z" stroke="black" stroke-width="1.33333" stroke-miterlimit="10" stroke-linecap="round" stroke-linejoin="round"/>
</g>
</g>
<mask id="mask7_8_17212" style="mask-type:alpha" maskUnits="userSpaceOnUse" x="35" y="57" width="479" height="508">
<path d="M35.6479 57.2707H513.502V564.721H35.6479V57.2707Z" fill="white"/>
</mask>
<g mask="url(#mask7_8_17212)">
<g opacity="0.300003">
<path d="M512.836 153.743C512.836 150.931 510.556 148.65 507.744 148.65C504.931 148.65 502.649 150.931 502.649 153.743C502.649 156.557 504.931 158.837 507.744 158.837C510.556 158.837 512.836 156.557 512.836 153.743Z" stroke="black" stroke-width="1.33333" stroke-miterlimit="10" stroke-linecap="round" stroke-linejoin="round"/>
<path d="M65.9093 240.328C65.9093 237.516 63.6293 235.234 60.816 235.234C58.0027 235.234 55.7227 237.516 55.7227 240.328C55.7227 243.141 58.0027 245.421 60.816 245.421C63.6293 245.421 65.9093 243.141 65.9093 240.328Z" stroke="black" stroke-width="1.33333" stroke-miterlimit="10" stroke-linecap="round" stroke-linejoin="round"/>
<path d="M449.172 503.9C449.172 501.088 446.892 498.808 444.078 498.808C441.265 498.808 438.985 501.088 438.985 503.9C438.985 506.712 441.265 508.993 444.078 508.993C446.892 508.993 449.172 506.712 449.172 503.9Z" stroke="black" stroke-width="1.33333" stroke-miterlimit="10" stroke-linecap="round" stroke-linejoin="round"/>
<path d="M74.8229 461.882C74.8229 459.068 72.5429 456.788 69.7296 456.788C66.9162 456.788 64.6362 459.068 64.6362 461.882C64.6362 464.694 66.9162 466.974 69.7296 466.974C72.5429 466.974 74.8229 464.694 74.8229 461.882Z" stroke="black" stroke-width="1.33333" stroke-miterlimit="10" stroke-linecap="round" stroke-linejoin="round"/>
<path d="M415.101 242.565L404.296 253.37" stroke="black" stroke-width="1.33333" stroke-miterlimit="10" stroke-linecap="round" stroke-linejoin="round"/>
<path d="M415.101 253.37L404.296 242.564" stroke="black" stroke-width="1.33333" stroke-miterlimit="10" stroke-linecap="round" stroke-linejoin="round"/>
<path d="M376.285 553.25L387.089 564.054" stroke="black" stroke-width="1.33333" stroke-miterlimit="10" stroke-linecap="round" stroke-linejoin="round"/>
<path d="M387.088 553.25L376.284 564.054" stroke="black" stroke-width="1.33333" stroke-miterlimit="10" stroke-linecap="round" stroke-linejoin="round"/>
<path d="M36.3149 310.05L47.1189 320.854" stroke="black" stroke-width="1.33333" stroke-miterlimit="10" stroke-linecap="round" stroke-linejoin="round"/>
<path d="M47.1189 310.05L36.3149 320.854" stroke="black" stroke-width="1.33333" stroke-miterlimit="10" stroke-linecap="round" stroke-linejoin="round"/>
<path d="M434.856 57.9375L445.66 68.7415" stroke="black" stroke-width="1.33333" stroke-miterlimit="10" stroke-linecap="round" stroke-linejoin="round"/>
<path d="M445.66 57.9375L434.856 68.7415" stroke="black" stroke-width="1.33333" stroke-miterlimit="10" stroke-linecap="round" stroke-linejoin="round"/>
<path d="M172.557 66.8503L183.362 77.6556" stroke="black" stroke-width="1.33333" stroke-miterlimit="10" stroke-linecap="round" stroke-linejoin="round"/>
<path d="M183.362 66.8503L172.557 77.6556" stroke="black" stroke-width="1.33333" stroke-miterlimit="10" stroke-linecap="round" stroke-linejoin="round"/>
</g>
</g>
</g>
<path d="M41.5781 604.096H625.842" stroke="#1A2E35" stroke-width="1.33333" stroke-miterlimit="10" stroke-linecap="round" stroke-linejoin="round"/>
<mask id="mask8_8_17212" style="mask-type:alpha" maskUnits="userSpaceOnUse" x="0" y="0" width="667" height="667">
<path d="M0 6.00815e-05H666.667V666.667H0V6.00815e-05Z" fill="white"/>
</mask>
<g mask="url(#mask8_8_17212)">
<path d="M94.2598 139.821V569.401C94.2598 584.496 106.497 596.734 121.593 596.734H316.668C331.762 596.734 344.001 584.496 344.001 569.401V139.821C344.001 124.725 331.762 112.488 316.668 112.488H121.593C106.497 112.488 94.2598 124.725 94.2598 139.821Z" fill="white"/>
<path d="M344.001 138.591C344.001 132.341 341.8 126.609 338.136 122.116C325.646 128.167 307.788 141.016 284.654 167.927C234.928 225.772 219.706 365.816 160.846 426.705C135.648 452.773 112.5 468.792 94.2598 478.593V570.632C94.2598 585.047 105.946 596.735 120.362 596.735H303.452C304.65 595.249 305.829 593.716 306.98 592.123C320.72 573.097 333.354 557.14 344.001 544.4V138.591Z" fill="#D7D7D7"/>
<path d="M94.2598 138.591V250.275C114.585 241.205 139.177 223.972 156.788 191.268C174.629 158.132 197.593 131.145 216.03 112.488H120.362C105.946 112.488 94.2598 124.175 94.2598 138.591Z" fill="#D7D7D7"/>
<path d="M113.557 122.967C113.557 125.928 110.232 126.995 110.218 129.254V129.408H113.445V130.404H109.138V129.562C109.138 126.391 112.464 125.774 112.464 123.01C112.464 121.999 112.126 121.466 111.312 121.466C110.513 121.466 110.162 122.04 110.162 122.911V123.78H109.138V122.982C109.138 121.479 109.825 120.483 111.34 120.483C112.869 120.483 113.557 121.466 113.557 122.967Z" fill="#1A2E35"/>
<path d="M118.932 122.953V123.205C118.932 124.216 118.526 124.932 117.74 125.226C118.567 125.536 118.932 126.278 118.932 127.26V128.018C118.932 129.52 118.231 130.502 116.715 130.502C115.214 130.502 114.514 129.52 114.514 128.018V127.345H115.538V128.089C115.538 128.973 115.902 129.506 116.687 129.506C117.488 129.506 117.839 128.986 117.839 127.99V127.232C117.839 126.264 117.431 125.801 116.603 125.773H116.014V124.79H116.659C117.388 124.762 117.839 124.3 117.839 123.445V122.994C117.839 121.984 117.488 121.465 116.687 121.465C115.902 121.465 115.538 122.013 115.538 122.897V123.401H114.514V122.953C114.514 121.452 115.214 120.482 116.715 120.482C118.231 120.482 118.932 121.452 118.932 122.953Z" fill="#1A2E35"/>
<path d="M121.053 130.404H120V129.043H121.053V130.404ZM121.053 125.057H120V123.696H121.053V125.057Z" fill="#1A2E35"/>
<path d="M123.27 124.581C123.578 124.047 124.07 123.767 124.73 123.767C125.993 123.767 126.553 124.693 126.553 126.097V128.019C126.553 129.521 125.838 130.502 124.337 130.502C122.836 130.502 122.134 129.521 122.134 128.019V127.359H123.158V128.089C123.158 128.973 123.522 129.506 124.309 129.506C125.096 129.506 125.46 128.973 125.46 128.089V126.181C125.46 125.297 125.096 124.762 124.309 124.762C123.706 124.762 123.298 125.099 123.201 125.815V126.039H122.177L122.444 120.581H126.316V121.563H123.425L123.27 124.581Z" fill="#1A2E35"/>
<path d="M128.632 126.615V128.089C128.632 128.973 128.996 129.506 129.798 129.506C130.583 129.506 130.962 128.973 130.962 128.089V126.615C130.962 125.731 130.583 125.198 129.798 125.198C128.996 125.198 128.632 125.731 128.632 126.615ZM132.014 122.939V123.121H130.99V122.869C130.99 121.985 130.626 121.466 129.826 121.466C128.996 121.466 128.632 121.999 128.632 123.051V125.254C128.899 124.581 129.432 124.202 130.218 124.202C131.48 124.202 132.043 125.114 132.043 126.531V128.019C132.043 129.521 131.298 130.502 129.798 130.502C128.282 130.502 127.538 129.521 127.538 128.019V123.009C127.538 121.451 128.24 120.483 129.798 120.483C131.312 120.483 132.014 121.438 132.014 122.939" fill="#1A2E35"/>
<path d="M285.345 130.304H282.572V123.371H285.345V130.304Z" fill="#1A2E35"/>
<path d="M289.043 130.304H286.27V121.981H289.043V130.304Z" fill="#1A2E35"/>
<path d="M292.741 130.304H289.968V120.996H292.741V130.304Z" fill="#1A2E35"/>
<path d="M296.439 130.304H293.666V119.28H296.439V130.304Z" fill="#1A2E35"/>
<path d="M315.044 129.189H329.835V120.869H315.044V129.189ZM330.759 130.113H314.119V119.944H330.759V130.113Z" fill="#1A2E35"/>
<path d="M325.212 128.184H316.431V121.876H325.212V128.184Z" fill="#1A2E35"/>
<path d="M332.274 126.227H330.181V123.831H332.274V126.227Z" fill="#1A2E35"/>
<path d="M308.018 127.902C307.91 127.902 307.799 127.874 307.7 127.815C304.314 125.802 302.075 127.67 301.982 127.748C301.723 127.974 301.331 127.944 301.106 127.687C300.882 127.428 300.907 127.04 301.163 126.814C301.284 126.708 304.146 124.256 308.336 126.746C308.63 126.92 308.728 127.303 308.551 127.598C308.435 127.794 308.23 127.902 308.018 127.902Z" fill="#1A2E35"/>
<path d="M309.27 125.813C309.162 125.813 309.051 125.785 308.953 125.726C304.055 122.813 300.765 125.631 300.731 125.658C300.474 125.886 300.082 125.859 299.854 125.602C299.629 125.345 299.653 124.951 299.91 124.726C299.951 124.689 303.919 121.289 309.589 124.657C309.883 124.833 309.981 125.214 309.803 125.509C309.687 125.705 309.481 125.813 309.27 125.813Z" fill="#1A2E35"/>
<path d="M310.407 123.394C310.299 123.394 310.189 123.366 310.089 123.306C303.889 119.618 299.765 123.09 299.593 123.241C299.334 123.466 298.941 123.438 298.717 123.181C298.49 122.922 298.517 122.533 298.773 122.306C298.822 122.262 303.721 118.073 310.725 122.238C311.019 122.413 311.118 122.795 310.941 123.09C310.825 123.286 310.618 123.394 310.407 123.394Z" fill="#1A2E35"/>
<path d="M306.147 128.943C306.147 129.805 305.449 130.502 304.588 130.502C303.727 130.502 303.029 129.805 303.029 128.943C303.029 128.082 303.727 127.385 304.588 127.385C305.449 127.385 306.147 128.082 306.147 128.943Z" fill="#1A2E35"/>
<path d="M278.749 112.488L270.626 124.576C268.189 128.204 264.106 130.378 259.735 130.378H178.526C174.155 130.378 170.073 128.204 167.635 124.576L159.511 112.488H121.785C106.583 112.488 94.2593 124.812 94.2593 140.013V569.209C94.2593 584.41 106.583 596.734 121.785 596.734H316.475C331.677 596.734 344.001 584.41 344.001 569.209V140.013C344.001 124.812 331.677 112.488 316.475 112.488H278.749ZM350.714 129.71V144.584H355.339V186.853H350.714V196.46H355.339V238.728H350.714V248.334H355.339V290.604H350.714V579.512C350.714 594.713 338.39 607.037 323.189 607.037H115.071C99.87 607.037 87.546 594.713 87.546 579.512V220.668H84.2446V178.4H87.546V129.71C87.546 114.509 99.87 102.185 115.071 102.185H323.189C338.39 102.185 350.714 114.509 350.714 129.71" fill="#1A2E35"/>
</g>
<mask id="mask9_8_17212" style="mask-type:alpha" maskUnits="userSpaceOnUse" x="0" y="0" width="667" height="667">
<path d="M0 6.00815e-05H666.667V666.667H0V6.00815e-05Z" fill="white"/>
</mask>
<g mask="url(#mask9_8_17212)">
<path d="M322.398 247.967H324.307C328.175 247.967 331.311 251.103 331.311 254.97V388.763C331.311 410.51 348.941 428.139 370.686 428.139C392.433 428.139 410.062 410.51 410.062 388.763V339.645" stroke="#1A2E35" stroke-width="1.33333" stroke-miterlimit="10" stroke-linecap="round" stroke-linejoin="round"/>
<path d="M316.566 247.967H322.398" stroke="#1A2E35" stroke-width="4" stroke-miterlimit="10" stroke-linecap="round" stroke-linejoin="round"/>
<path d="M177.41 330.006C179.67 330.006 181.503 331.84 181.503 334.1V388.9C181.503 450.824 231.703 501.025 293.629 501.025H293.63C352.487 501.025 400.201 453.312 400.201 394.454V339.948" stroke="#1A2E35" stroke-width="1.33333" stroke-miterlimit="10" stroke-linecap="round" stroke-linejoin="round"/>
<path d="M170.978 330.006H177.41" stroke="#1A2E35" stroke-width="4" stroke-miterlimit="10" stroke-linecap="round" stroke-linejoin="round"/>
<path d="M325.82 416.012C329.73 416.012 332.901 419.182 332.901 423.093V487.137C332.901 511.453 352.614 531.166 376.93 531.166C401.249 531.166 420.961 511.453 420.961 487.137V341.498" stroke="#1A2E35" stroke-width="1.33333" stroke-miterlimit="10" stroke-linecap="round" stroke-linejoin="round"/>
<path d="M317.506 416.012H325.819" stroke="#1A2E35" stroke-width="4" stroke-miterlimit="10" stroke-linecap="round" stroke-linejoin="round"/>
</g>
<mask id="mask10_8_17212" style="mask-type:alpha" maskUnits="userSpaceOnUse" x="0" y="0" width="667" height="667">
<path d="M0 6.00815e-05H666.667V666.667H0V6.00815e-05Z" fill="white"/>
</mask>
<g mask="url(#mask10_8_17212)">
<path d="M310.241 276.564H266.352C262.572 276.564 259.505 273.499 259.505 269.717V225.829C259.505 222.047 262.572 218.981 266.352 218.981H310.241C314.022 218.981 317.088 222.047 317.088 225.829V269.717C317.088 273.499 314.022 276.564 310.241 276.564Z" fill="#02BFE1"/>
<path d="M310.241 276.564H266.352C262.572 276.564 259.505 273.499 259.505 269.717V225.829C259.505 222.047 262.572 218.981 266.352 218.981H310.241C314.022 218.981 317.088 222.047 317.088 225.829V269.717C317.088 273.499 314.022 276.564 310.241 276.564Z" stroke="#1A2E35" stroke-width="1.33333" stroke-miterlimit="10" stroke-linecap="round" stroke-linejoin="round"/>
<path d="M288.355 254.957C282.449 254.957 277.661 250.169 277.661 244.264C277.661 238.358 282.449 233.57 288.355 233.57C294.26 233.57 299.048 238.358 299.048 244.264C299.048 250.169 294.26 254.957 288.355 254.957ZM306.865 246.502V242.141L302.464 241.404C302.096 239.581 301.379 237.888 300.393 236.385L303.011 232.717L299.925 229.632L296.265 232.244C294.773 231.261 293.093 230.542 291.284 230.169L290.536 225.694H286.173L285.425 230.169C283.633 230.54 281.968 231.248 280.488 232.217L276.749 229.55L273.664 232.634L276.327 236.366C275.361 237.834 274.655 239.486 274.277 241.262L269.727 242.025V246.386L274.249 247.144C274.611 248.924 275.309 250.578 276.263 252.054L273.583 255.81L276.667 258.896L280.381 256.245C281.853 257.228 283.517 257.941 285.303 258.328L286.057 262.833H290.419L291.164 258.38C292.976 258.021 294.66 257.318 296.159 256.349L299.844 258.977L302.928 255.893L300.328 252.249C301.328 250.754 302.053 249.062 302.437 247.244L306.865 246.502Z" fill="white"/>
<path d="M288.355 254.957C282.449 254.957 277.661 250.169 277.661 244.264C277.661 238.358 282.449 233.57 288.355 233.57C294.26 233.57 299.048 238.358 299.048 244.264C299.048 250.169 294.26 254.957 288.355 254.957ZM306.865 246.502V242.141L302.464 241.404C302.096 239.581 301.379 237.888 300.393 236.385L303.011 232.717L299.925 229.632L296.265 232.244C294.773 231.261 293.093 230.542 291.284 230.169L290.536 225.694H286.173L285.425 230.169C283.633 230.54 281.968 231.248 280.488 232.217L276.749 229.55L273.664 232.634L276.327 236.366C275.361 237.834 274.655 239.486 274.277 241.262L269.727 242.025V246.386L274.249 247.144C274.611 248.924 275.309 250.578 276.263 252.054L273.583 255.81L276.667 258.896L280.381 256.245C281.853 257.228 283.517 257.941 285.303 258.328L286.057 262.833H290.419L291.164 258.38C292.976 258.021 294.66 257.318 296.159 256.349L299.844 258.977L302.928 255.893L300.328 252.249C301.328 250.754 302.053 249.062 302.437 247.244L306.865 246.502Z" stroke="#1A2E35" stroke-width="1.33333" stroke-miterlimit="10" stroke-linecap="round" stroke-linejoin="round"/>
<path d="M305.58 270.264H269.617V267.316H305.58V270.264Z" fill="white" stroke="#1A2E35" stroke-width="1.33333" stroke-miterlimit="10" stroke-linecap="round" stroke-linejoin="round"/>
<path d="M287.599 270.264H269.617V267.316H287.599V270.264Z" fill="#1A2E35" stroke="#1A2E35" stroke-width="1.33333" stroke-miterlimit="10" stroke-linecap="round" stroke-linejoin="round"/>
<path d="M236.621 276.374H193.577C189.629 276.374 186.428 273.172 186.428 269.224V226.18C186.428 222.232 189.629 219.031 193.577 219.031H236.621C240.569 219.031 243.77 222.232 243.77 226.18V269.224C243.77 273.172 240.569 276.374 236.621 276.374Z" fill="white"/>
<path d="M236.621 276.374H193.577C189.629 276.374 186.428 273.172 186.428 269.224V226.18C186.428 222.232 189.629 219.031 193.577 219.031H236.621C240.569 219.031 243.77 222.232 243.77 226.18V269.224C243.77 273.172 240.569 276.374 236.621 276.374Z" stroke="#1A2E35" stroke-width="1.33333" stroke-miterlimit="10" stroke-linecap="round" stroke-linejoin="round"/>
<path d="M234.861 247.703C234.861 236.788 226.014 227.941 215.099 227.941C204.186 227.941 195.338 236.788 195.338 247.703C195.338 258.617 204.186 267.464 215.099 267.464C226.014 267.464 234.861 258.617 234.861 247.703Z" fill="#1A2E35"/>
<path d="M234.861 247.703C234.861 236.788 226.014 227.941 215.099 227.941C204.186 227.941 195.338 236.788 195.338 247.703C195.338 258.617 204.186 267.464 215.099 267.464C226.014 267.464 234.861 258.617 234.861 247.703Z" stroke="#1A2E35" stroke-width="1.33333" stroke-miterlimit="10" stroke-linecap="round" stroke-linejoin="round"/>
<path d="M208.87 255.794L215.099 247.703V233.223" stroke="white" stroke-width="1.33333" stroke-miterlimit="10" stroke-linecap="round" stroke-linejoin="round"/>
<path d="M163.424 276.374H120.381C116.432 276.374 113.23 273.172 113.23 269.224V226.18C113.23 222.232 116.432 219.031 120.381 219.031H163.424C167.372 219.031 170.573 222.232 170.573 226.18V269.224C170.573 273.172 167.372 276.374 163.424 276.374Z" fill="white"/>
<path d="M163.424 276.374H120.381C116.432 276.374 113.23 273.172 113.23 269.224V226.18C113.23 222.232 116.432 219.031 120.381 219.031H163.424C167.372 219.031 170.573 222.232 170.573 226.18V269.224C170.573 273.172 167.372 276.374 163.424 276.374Z" stroke="#1A2E35" stroke-width="1.33333" stroke-miterlimit="10" stroke-linecap="round" stroke-linejoin="round"/>
<path d="M135.673 255.794L141.903 247.703V233.223" stroke="white" stroke-width="1.33333" stroke-miterlimit="10" stroke-linecap="round" stroke-linejoin="round"/>
<path d="M157.957 246.407L131.916 231.372V261.442L157.957 246.407Z" fill="#1A2E35"/>
<path d="M157.957 246.407L131.916 231.372V261.442L157.957 246.407Z" stroke="#1A2E35" stroke-width="1.33333" stroke-miterlimit="10" stroke-linecap="round" stroke-linejoin="round"/>
<path d="M310.241 360.859H266.352C262.572 360.859 259.505 357.794 259.505 354.013V310.125C259.505 306.342 262.572 303.277 266.352 303.277H310.241C314.022 303.277 317.088 306.342 317.088 310.125V354.013C317.088 357.794 314.022 360.859 310.241 360.859Z" fill="white"/>
<path d="M310.241 360.859H266.352C262.572 360.859 259.505 357.794 259.505 354.013V310.125C259.505 306.342 262.572 303.277 266.352 303.277H310.241C314.022 303.277 317.088 306.342 317.088 310.125V354.013C317.088 357.794 314.022 360.859 310.241 360.859Z" stroke="#1A2E35" stroke-width="1.33333" stroke-miterlimit="10" stroke-linecap="round" stroke-linejoin="round"/>
<path d="M287.46 314.982C277.222 314.982 268.92 321.622 268.92 329.814C268.92 335.109 272.4 339.744 277.619 342.369L274.483 350.208L284.394 344.426C285.394 344.56 286.414 344.648 287.46 344.648C297.7 344.648 306 338.006 306 329.814C306 321.622 297.7 314.982 287.46 314.982Z" fill="#1A2E35"/>
<path d="M287.46 314.982C277.222 314.982 268.92 321.622 268.92 329.814C268.92 335.109 272.4 339.744 277.619 342.369L274.483 350.208L284.394 344.426C285.394 344.56 286.414 344.648 287.46 344.648C297.7 344.648 306 338.006 306 329.814C306 321.622 297.7 314.982 287.46 314.982Z" stroke="#1A2E35" stroke-width="1.33333" stroke-miterlimit="10" stroke-linecap="round" stroke-linejoin="round"/>
<path d="M310.241 445.155H266.352C262.572 445.155 259.505 442.09 259.505 438.308V394.42C259.505 390.638 262.572 387.572 266.352 387.572H310.241C314.022 387.572 317.088 390.638 317.088 394.42V438.308C317.088 442.09 314.022 445.155 310.241 445.155Z" fill="#02BFE1"/>
<path d="M310.241 445.155H266.352C262.572 445.155 259.505 442.09 259.505 438.308V394.42C259.505 390.638 262.572 387.572 266.352 387.572H310.241C314.022 387.572 317.088 390.638 317.088 394.42V438.308C317.088 442.09 314.022 445.155 310.241 445.155Z" stroke="#1A2E35" stroke-width="1.33333" stroke-miterlimit="10" stroke-linecap="round" stroke-linejoin="round"/>
<path d="M288.355 423.548C282.449 423.548 277.661 418.76 277.661 412.855C277.661 406.949 282.449 402.161 288.355 402.161C294.26 402.161 299.048 406.949 299.048 412.855C299.048 418.76 294.26 423.548 288.355 423.548ZM306.865 415.095V410.732L302.464 409.996C302.096 408.173 301.379 406.479 300.393 404.976L303.011 401.308L299.925 398.224L296.265 400.835C294.773 399.852 293.093 399.133 291.284 398.76L290.536 394.287H286.173L285.425 398.76C283.633 399.131 281.968 399.84 280.488 400.808L276.749 398.141L273.664 401.225L276.327 404.957C275.361 406.425 274.655 408.077 274.277 409.853L269.727 410.616V414.977L274.249 415.735C274.611 417.516 275.309 419.171 276.263 420.645L273.583 424.403L276.667 427.487L280.381 424.837C281.853 425.819 283.517 426.532 285.303 426.919L286.057 431.424H290.419L291.164 426.971C292.976 426.613 294.66 425.909 296.159 424.94L299.844 427.569L302.928 424.484L300.328 420.841C301.328 419.347 302.053 417.655 302.437 415.836L306.865 415.095Z" fill="white"/>
<path d="M288.355 423.548C282.449 423.548 277.661 418.76 277.661 412.855C277.661 406.949 282.449 402.161 288.355 402.161C294.26 402.161 299.048 406.949 299.048 412.855C299.048 418.76 294.26 423.548 288.355 423.548ZM306.865 415.095V410.732L302.464 409.996C302.096 408.173 301.379 406.479 300.393 404.976L303.011 401.308L299.925 398.224L296.265 400.835C294.773 399.852 293.093 399.133 291.284 398.76L290.536 394.287H286.173L285.425 398.76C283.633 399.131 281.968 399.84 280.488 400.808L276.749 398.141L273.664 401.225L276.327 404.957C275.361 406.425 274.655 408.077 274.277 409.853L269.727 410.616V414.977L274.249 415.735C274.611 417.516 275.309 419.171 276.263 420.645L273.583 424.403L276.667 427.487L280.381 424.837C281.853 425.819 283.517 426.532 285.303 426.919L286.057 431.424H290.419L291.164 426.971C292.976 426.613 294.66 425.909 296.159 424.94L299.844 427.569L302.928 424.484L300.328 420.841C301.328 419.347 302.053 417.655 302.437 415.836L306.865 415.095Z" stroke="#1A2E35" stroke-width="1.33333" stroke-miterlimit="10" stroke-linecap="round" stroke-linejoin="round"/>
<path d="M305.58 438.856H269.617V435.909H305.58V438.856Z" fill="white" stroke="#1A2E35" stroke-width="1.33333" stroke-miterlimit="10" stroke-linecap="round" stroke-linejoin="round"/>
<path d="M275.567 438.856H269.617V435.909H275.567V438.856Z" fill="#1A2E35" stroke="#1A2E35" stroke-width="1.33333" stroke-miterlimit="10" stroke-linecap="round" stroke-linejoin="round"/>
<path d="M163.424 360.669H120.381C116.432 360.669 113.23 357.469 113.23 353.52V310.476C113.23 306.528 116.432 303.328 120.381 303.328H163.424C167.372 303.328 170.573 306.528 170.573 310.476V353.52C170.573 357.469 167.372 360.669 163.424 360.669Z" fill="#02BFE1"/>
<path d="M163.424 360.669H120.381C116.432 360.669 113.23 357.469 113.23 353.52V310.476C113.23 306.528 116.432 303.328 120.381 303.328H163.424C167.372 303.328 170.573 306.528 170.573 310.476V353.52C170.573 357.469 167.372 360.669 163.424 360.669Z" stroke="#1A2E35" stroke-width="1.33333" stroke-miterlimit="10" stroke-linecap="round" stroke-linejoin="round"/>
<path d="M142.377 339.253C136.472 339.253 131.684 334.466 131.684 328.559C131.684 322.654 136.472 317.866 142.377 317.866C148.282 317.866 153.07 322.654 153.07 328.559C153.07 334.466 148.282 339.253 142.377 339.253ZM160.888 330.799V326.437L156.486 325.699C156.118 323.877 155.401 322.183 154.416 320.681L157.033 317.013L153.948 313.927L150.288 316.539C148.796 315.557 147.116 314.838 145.306 314.465L144.558 309.99H140.196L139.448 314.465C137.656 314.835 135.99 315.545 134.51 316.513L130.772 313.846L127.686 316.93L130.349 320.662C129.382 322.13 128.677 323.782 128.3 325.558L123.749 326.321V330.682L128.272 331.439C128.633 333.219 129.332 334.875 130.285 336.35L127.605 340.107L130.689 343.191L134.404 340.542C135.876 341.523 137.54 342.237 139.325 342.623L140.08 347.129H144.441L145.186 342.675C146.998 342.318 148.682 341.614 150.181 340.645L153.866 343.274L156.95 340.189L154.35 336.546C155.35 335.051 156.076 333.359 156.46 331.539L160.888 330.799Z" fill="white"/>
<path d="M142.377 339.253C136.472 339.253 131.684 334.466 131.684 328.559C131.684 322.654 136.472 317.866 142.377 317.866C148.282 317.866 153.07 322.654 153.07 328.559C153.07 334.466 148.282 339.253 142.377 339.253ZM160.888 330.799V326.437L156.486 325.699C156.118 323.877 155.401 322.183 154.416 320.681L157.033 317.013L153.948 313.927L150.288 316.539C148.796 315.557 147.116 314.838 145.306 314.465L144.558 309.99H140.196L139.448 314.465C137.656 314.835 135.99 315.545 134.51 316.513L130.772 313.846L127.686 316.93L130.349 320.662C129.382 322.13 128.677 323.782 128.3 325.558L123.749 326.321V330.682L128.272 331.439C128.633 333.219 129.332 334.875 130.285 336.35L127.605 340.107L130.689 343.191L134.404 340.542C135.876 341.523 137.54 342.237 139.325 342.623L140.08 347.129H144.441L145.186 342.675C146.998 342.318 148.682 341.614 150.181 340.645L153.866 343.274L156.95 340.189L154.35 336.546C155.35 335.051 156.076 333.359 156.46 331.539L160.888 330.799Z" stroke="#1A2E35" stroke-width="1.33333" stroke-miterlimit="10" stroke-linecap="round" stroke-linejoin="round"/>
<path d="M159.601 354.56H123.639V351.612H159.601V354.56Z" fill="white" stroke="#1A2E35" stroke-width="1.33333" stroke-miterlimit="10" stroke-linecap="round" stroke-linejoin="round"/>
<path d="M156.139 354.56H123.639V351.612H156.139V354.56Z" fill="#1A2E35" stroke="#1A2E35" stroke-width="1.33333" stroke-miterlimit="10" stroke-linecap="round" stroke-linejoin="round"/>
<path d="M163.424 444.965H120.381C116.432 444.965 113.23 441.765 113.23 437.815V394.771C113.23 390.825 116.432 387.623 120.381 387.623H163.424C167.372 387.623 170.573 390.825 170.573 394.771V437.815C170.573 441.765 167.372 444.965 163.424 444.965Z" fill="white"/>
<path d="M163.424 444.965H120.381C116.432 444.965 113.23 441.765 113.23 437.815V394.771C113.23 390.825 116.432 387.623 120.381 387.623H163.424C167.372 387.623 170.573 390.825 170.573 394.771V437.815C170.573 441.765 167.372 444.965 163.424 444.965Z" stroke="#1A2E35" stroke-width="1.33333" stroke-miterlimit="10" stroke-linecap="round" stroke-linejoin="round"/>
<path d="M135.673 424.385L141.903 416.295V401.815" stroke="white" stroke-width="1.33333" stroke-miterlimit="10" stroke-linecap="round" stroke-linejoin="round"/>
<path d="M161.226 428.695H122.577V403.895H161.226V428.695Z" fill="#1A2E35" stroke="#1A2E35" stroke-width="1.33333" stroke-miterlimit="10" stroke-linecap="round" stroke-linejoin="round"/>
<path d="M122.578 403.895L141.58 419.997L160.955 404.117" stroke="white" stroke-width="1.33333" stroke-miterlimit="10" stroke-linecap="round" stroke-linejoin="round"/>
<path d="M122.578 428.694L136.427 416.133" stroke="white" stroke-width="1.33333" stroke-miterlimit="10" stroke-linecap="round" stroke-linejoin="round"/>
<path d="M161.227 428.694L146.734 416.133" stroke="white" stroke-width="1.33333" stroke-miterlimit="10" stroke-linecap="round" stroke-linejoin="round"/>
</g>
<path d="M568.006 410.411L583.284 556.795" stroke="#1A2E35" stroke-width="2.66667" stroke-miterlimit="10"/>
<path d="M580.822 528.781L573.896 521.467" stroke="#1A2E35" stroke-width="2.66667" stroke-miterlimit="10"/>
<mask id="mask11_8_17212" style="mask-type:alpha" maskUnits="userSpaceOnUse" x="0" y="0" width="667" height="667">
<path d="M0 6.00815e-05H666.667V666.667H0V6.00815e-05Z" fill="white"/>
</mask>
<g mask="url(#mask11_8_17212)">
<path d="M576 523.659C576 523.659 576.197 520.423 573.244 517.784C571.467 516.196 562.111 512.26 561.223 515.556C560.256 519.139 569.833 526.177 576 523.659Z" fill="#02BFE1"/>
<path d="M576 523.659C576 523.659 576.197 520.423 573.244 517.784C571.467 516.196 562.111 512.26 561.223 515.556C560.256 519.139 569.833 526.177 576 523.659Z" stroke="#1A2E35" stroke-width="1.33333" stroke-miterlimit="10"/>
<path d="M576 523.659L567.093 518.108" stroke="#1A2E35" stroke-width="0.666667" stroke-miterlimit="10"/>
<path d="M582.56 545.43L575.635 538.115" stroke="#1A2E35" stroke-width="2.66667" stroke-miterlimit="10"/>
<path d="M577.738 540.306C577.738 540.306 577.936 537.07 574.982 534.433C573.204 532.843 563.848 528.909 562.96 532.203C561.994 535.787 571.57 542.826 577.738 540.306Z" fill="#02BFE1"/>
<path d="M577.738 540.306C577.738 540.306 577.936 537.07 574.982 534.433C573.204 532.843 563.848 528.909 562.96 532.203C561.994 535.787 571.57 542.826 577.738 540.306Z" stroke="#1A2E35" stroke-width="1.33333" stroke-miterlimit="10"/>
<path d="M577.738 540.306L568.83 534.757" stroke="#1A2E35" stroke-width="0.666667" stroke-miterlimit="10"/>
<path d="M576.582 488.158L569.657 480.843" stroke="#1A2E35" stroke-width="2.66667" stroke-miterlimit="10"/>
<path d="M571.76 483.034C571.76 483.034 571.958 479.798 569.004 477.159C567.227 475.571 557.871 471.635 556.983 474.931C556.016 478.514 565.594 485.554 571.76 483.034Z" fill="#02BFE1"/>
<path d="M571.76 483.034C571.76 483.034 571.958 479.798 569.004 477.159C567.227 475.571 557.871 471.635 556.983 474.931C556.016 478.514 565.594 485.554 571.76 483.034Z" stroke="#1A2E35" stroke-width="1.33333" stroke-miterlimit="10"/>
<path d="M571.761 483.034L562.854 477.485" stroke="#1A2E35" stroke-width="0.666667" stroke-miterlimit="10"/>
<path d="M578.32 504.806L571.395 497.491" stroke="#1A2E35" stroke-width="2.66667" stroke-miterlimit="10"/>
<path d="M573.499 499.682C573.499 499.682 573.696 496.446 570.743 493.808C568.964 492.22 559.608 488.284 558.72 491.58C557.755 495.162 567.331 502.202 573.499 499.682Z" fill="#02BFE1"/>
<path d="M573.499 499.682C573.499 499.682 573.696 496.446 570.743 493.808C568.964 492.22 559.608 488.284 558.72 491.58C557.755 495.162 567.331 502.202 573.499 499.682Z" stroke="#1A2E35" stroke-width="1.33333" stroke-miterlimit="10"/>
<path d="M573.499 499.682L564.591 494.132" stroke="#1A2E35" stroke-width="0.666667" stroke-miterlimit="10"/>
<path d="M573.76 461.113L566.835 453.799" stroke="#1A2E35" stroke-width="2.66667" stroke-miterlimit="10"/>
<path d="M568.939 455.991C568.939 455.991 569.136 452.755 566.183 450.116C564.405 448.528 555.048 444.592 554.16 447.888C553.195 451.471 562.771 458.51 568.939 455.991Z" fill="#02BFE1"/>
<path d="M568.939 455.991C568.939 455.991 569.136 452.755 566.183 450.116C564.405 448.528 555.048 444.592 554.16 447.888C553.195 451.471 562.771 458.51 568.939 455.991Z" stroke="#1A2E35" stroke-width="1.33333" stroke-miterlimit="10"/>
<path d="M568.939 455.991L560.031 450.44" stroke="#1A2E35" stroke-width="0.666667" stroke-miterlimit="10"/>
<path d="M570.924 433.952L564 426.637" stroke="#1A2E35" stroke-width="2.66667" stroke-miterlimit="10"/>
<path d="M566.104 428.828C566.104 428.828 566.302 425.592 563.348 422.955C561.57 421.365 552.214 417.431 551.326 420.725C550.36 424.309 559.936 431.348 566.104 428.828Z" fill="#02BFE1"/>
<path d="M566.104 428.828C566.104 428.828 566.302 425.592 563.348 422.955C561.57 421.365 552.214 417.431 551.326 420.725C550.36 424.309 559.936 431.348 566.104 428.828Z" stroke="#1A2E35" stroke-width="1.33333" stroke-miterlimit="10"/>
<path d="M566.104 428.828L557.196 423.279" stroke="#1A2E35" stroke-width="0.666667" stroke-miterlimit="10"/>
<path d="M579.658 518.931L584.924 510.344" stroke="#1A2E35" stroke-width="2.66667" stroke-miterlimit="10"/>
<path d="M583.318 512.923C583.318 512.923 582.456 509.798 584.802 506.606C586.214 504.685 594.555 498.902 596.104 501.945C597.79 505.251 589.872 514.115 583.318 512.923Z" fill="#02BFE1"/>
<path d="M583.318 512.923C583.318 512.923 582.456 509.798 584.802 506.606C586.214 504.685 594.555 498.902 596.104 501.945C597.79 505.251 589.872 514.115 583.318 512.923Z" stroke="#1A2E35" stroke-width="1.33333" stroke-miterlimit="10"/>
<path d="M583.318 512.923L591.338 505.258" stroke="#1A2E35" stroke-width="0.666667" stroke-miterlimit="10"/>
<path d="M575.086 475.122L580.351 466.536" stroke="#1A2E35" stroke-width="2.66667" stroke-miterlimit="10"/>
<path d="M578.745 469.113C578.745 469.113 577.883 465.988 580.229 462.797C581.641 460.876 589.983 455.092 591.531 458.135C593.217 461.441 585.299 470.305 578.745 469.113Z" fill="#02BFE1"/>
<path d="M578.745 469.113C578.745 469.113 577.883 465.988 580.229 462.797C581.641 460.876 589.983 455.092 591.531 458.135C593.217 461.441 585.299 470.305 578.745 469.113Z" stroke="#1A2E35" stroke-width="1.33333" stroke-miterlimit="10"/>
<path d="M578.745 469.113L586.766 461.448" stroke="#1A2E35" stroke-width="0.666667" stroke-miterlimit="10"/>
<path d="M573.077 455.869L578.342 447.282" stroke="#1A2E35" stroke-width="2.66667" stroke-miterlimit="10"/>
<path d="M576.736 449.861C576.736 449.861 575.874 446.735 578.22 443.543C579.632 441.623 587.973 435.839 589.522 438.882C591.208 442.189 583.29 451.053 576.736 449.861Z" fill="#02BFE1"/>
<path d="M576.736 449.861C576.736 449.861 575.874 446.735 578.22 443.543C579.632 441.623 587.973 435.839 589.522 438.882C591.208 442.189 583.29 451.053 576.736 449.861Z" stroke="#1A2E35" stroke-width="1.33333" stroke-miterlimit="10"/>
<path d="M576.736 449.861L584.757 442.195" stroke="#1A2E35" stroke-width="0.666667" stroke-miterlimit="10"/>
<path d="M570.131 427.645L575.397 419.058" stroke="#1A2E35" stroke-width="2.66667" stroke-miterlimit="10"/>
<path d="M573.79 421.637C573.79 421.637 572.929 418.51 575.274 415.319C576.686 413.398 585.028 407.615 586.577 410.657C588.262 413.963 580.345 422.829 573.79 421.637Z" fill="#02BFE1"/>
<path d="M573.79 421.637C573.79 421.637 572.929 418.51 575.274 415.319C576.686 413.398 585.028 407.615 586.577 410.657C588.262 413.963 580.345 422.829 573.79 421.637Z" stroke="#1A2E35" stroke-width="1.33333" stroke-miterlimit="10"/>
<path d="M573.791 421.637L581.812 413.97" stroke="#1A2E35" stroke-width="0.666667" stroke-miterlimit="10"/>
<path d="M567.879 409.599C567.879 409.599 567.018 406.474 569.363 403.282C570.775 401.36 579.116 395.578 580.666 398.62C582.35 401.926 574.434 410.791 567.879 409.599Z" fill="#02BFE1"/>
<path d="M567.879 409.599C567.879 409.599 567.018 406.474 569.363 403.282C570.775 401.36 579.116 395.578 580.666 398.62C582.35 401.926 574.434 410.791 567.879 409.599Z" stroke="#1A2E35" stroke-width="1.33333" stroke-miterlimit="10"/>
<path d="M567.879 409.599L575.899 401.934" stroke="#1A2E35" stroke-width="0.666667" stroke-miterlimit="10"/>
<path d="M568.344 409.93C568.344 409.93 565.145 410.458 562.216 407.791C560.454 406.186 555.578 397.284 558.765 396.063C562.23 394.735 570.214 403.536 568.344 409.93Z" fill="#02BFE1"/>
<path d="M568.344 409.93C568.344 409.93 565.145 410.458 562.216 407.791C560.454 406.186 555.578 397.284 558.765 396.063C562.23 394.735 570.214 403.536 568.344 409.93Z" stroke="#1A2E35" stroke-width="1.33333" stroke-miterlimit="10"/>
<path d="M568.344 409.93L561.561 401.15" stroke="#1A2E35" stroke-width="0.666667" stroke-miterlimit="10"/>
<path d="M608.301 430.572L593.109 576.965" stroke="#1A2E35" stroke-width="2.66667" stroke-miterlimit="10"/>
<path d="M596.469 549.044L591.197 540.46" stroke="#1A2E35" stroke-width="2.66667" stroke-miterlimit="10"/>
<path d="M592.805 543.038C592.805 543.038 593.666 539.911 591.318 536.722C589.905 534.802 581.559 529.023 580.013 532.066C578.33 535.374 586.251 544.232 592.805 543.038Z" fill="#02BFE1"/>
<path d="M592.805 543.038C592.805 543.038 593.666 539.911 591.318 536.722C589.905 534.802 581.559 529.023 580.013 532.066C578.33 535.374 586.251 544.232 592.805 543.038Z" stroke="#1A2E35" stroke-width="1.33333" stroke-miterlimit="10"/>
<path d="M592.805 543.038L585.231 535.772" stroke="#1A2E35" stroke-width="0.666667" stroke-miterlimit="10"/>
<path d="M600.684 508.417L595.413 499.833" stroke="#1A2E35" stroke-width="2.66667" stroke-miterlimit="10"/>
<path d="M597.021 502.41C597.021 502.41 597.882 499.285 595.533 496.094C594.119 494.174 585.775 488.397 584.227 491.438C582.546 494.746 590.467 503.605 597.021 502.41Z" fill="#02BFE1"/>
<path d="M597.021 502.41C597.021 502.41 597.882 499.285 595.533 496.094C594.119 494.174 585.775 488.397 584.227 491.438C582.546 494.746 590.467 503.605 597.021 502.41Z" stroke="#1A2E35" stroke-width="1.33333" stroke-miterlimit="10"/>
<path d="M597.021 502.41L589.447 495.145" stroke="#1A2E35" stroke-width="0.666667" stroke-miterlimit="10"/>
<path d="M598.957 525.065L593.685 516.482" stroke="#1A2E35" stroke-width="2.66667" stroke-miterlimit="10"/>
<path d="M595.293 519.06C595.293 519.06 596.154 515.933 593.806 512.744C592.392 510.824 584.048 505.045 582.5 508.088C580.818 511.396 588.74 520.255 595.293 519.06Z" fill="#02BFE1"/>
<path d="M595.293 519.06C595.293 519.06 596.154 515.933 593.806 512.744C592.392 510.824 584.048 505.045 582.5 508.088C580.818 511.396 588.74 520.255 595.293 519.06Z" stroke="#1A2E35" stroke-width="1.33333" stroke-miterlimit="10"/>
<path d="M595.293 519.06L587.72 511.795" stroke="#1A2E35" stroke-width="0.666667" stroke-miterlimit="10"/>
<path d="M603.491 481.371L598.219 472.788" stroke="#1A2E35" stroke-width="2.66667" stroke-miterlimit="10"/>
<path d="M599.827 475.365C599.827 475.365 600.688 472.239 598.34 469.05C596.927 467.129 588.581 461.351 587.033 464.393C585.352 467.701 593.273 476.559 599.827 475.365Z" fill="#02BFE1"/>
<path d="M599.827 475.365C599.827 475.365 600.688 472.239 598.34 469.05C596.927 467.129 588.581 461.351 587.033 464.393C585.352 467.701 593.273 476.559 599.827 475.365Z" stroke="#1A2E35" stroke-width="1.33333" stroke-miterlimit="10"/>
<path d="M599.827 475.365L592.253 468.101" stroke="#1A2E35" stroke-width="0.666667" stroke-miterlimit="10"/>
<path d="M606.309 454.208L601.038 445.624" stroke="#1A2E35" stroke-width="2.66667" stroke-miterlimit="10"/>
<path d="M602.646 448.202C602.646 448.202 603.507 445.075 601.158 441.886C599.745 439.966 591.399 434.187 589.853 437.23C588.171 440.538 596.093 449.397 602.646 448.202Z" fill="#02BFE1"/>
<path d="M602.646 448.202C602.646 448.202 603.507 445.075 601.158 441.886C599.745 439.966 591.399 434.187 589.853 437.23C588.171 440.538 596.093 449.397 602.646 448.202Z" stroke="#1A2E35" stroke-width="1.33333" stroke-miterlimit="10"/>
<path d="M602.646 448.202L595.073 440.937" stroke="#1A2E35" stroke-width="0.666667" stroke-miterlimit="10"/>
<path d="M597.357 539.164L604.278 531.845" stroke="#1A2E35" stroke-width="2.66667" stroke-miterlimit="10"/>
<path d="M602.176 534.039C602.176 534.039 601.976 530.803 604.928 528.163C606.705 526.574 616.058 522.632 616.949 525.927C617.917 529.511 608.345 536.555 602.176 534.039Z" fill="#02BFE1"/>
<path d="M602.176 534.039C602.176 534.039 601.976 530.803 604.928 528.163C606.705 526.574 616.058 522.632 616.949 525.927C617.917 529.511 608.345 536.555 602.176 534.039Z" stroke="#1A2E35" stroke-width="1.33333" stroke-miterlimit="10"/>
<path d="M602.176 534.039L611.602 528.188" stroke="#1A2E35" stroke-width="0.666667" stroke-miterlimit="10"/>
<path d="M601.904 495.353L608.825 488.034" stroke="#1A2E35" stroke-width="2.66667" stroke-miterlimit="10"/>
<path d="M606.723 490.227C606.723 490.227 606.523 486.991 609.475 484.351C611.251 482.761 620.605 478.82 621.495 482.115C622.463 485.699 612.891 492.743 606.723 490.227Z" fill="#02BFE1"/>
<path d="M606.723 490.227C606.723 490.227 606.523 486.991 609.475 484.351C611.251 482.761 620.605 478.82 621.495 482.115C622.463 485.699 612.891 492.743 606.723 490.227Z" stroke="#1A2E35" stroke-width="1.33333" stroke-miterlimit="10"/>
<path d="M606.723 490.227L616.148 484.376" stroke="#1A2E35" stroke-width="0.666667" stroke-miterlimit="10"/>
<path d="M603.901 476.099L610.823 468.78" stroke="#1A2E35" stroke-width="2.66667" stroke-miterlimit="10"/>
<path d="M608.72 470.973C608.72 470.973 608.52 467.737 611.472 465.097C613.249 463.507 622.603 459.566 623.493 462.861C624.461 466.445 614.889 473.489 608.72 470.973Z" fill="#02BFE1"/>
<path d="M608.72 470.973C608.72 470.973 608.52 467.737 611.472 465.097C613.249 463.507 622.603 459.566 623.493 462.861C624.461 466.445 614.889 473.489 608.72 470.973Z" stroke="#1A2E35" stroke-width="1.33333" stroke-miterlimit="10"/>
<path d="M608.72 470.973L618.147 465.122" stroke="#1A2E35" stroke-width="0.666667" stroke-miterlimit="10"/>
<path d="M606.831 447.872L613.751 440.554" stroke="#1A2E35" stroke-width="2.66667" stroke-miterlimit="10"/>
<path d="M611.648 442.746C611.648 442.746 611.45 439.51 614.402 436.87C616.178 435.281 625.532 431.339 626.422 434.634C627.39 438.218 617.818 445.262 611.648 442.746Z" fill="#02BFE1"/>
<path d="M611.648 442.746C611.648 442.746 611.45 439.51 614.402 436.87C616.178 435.281 625.532 431.339 626.422 434.634C627.39 438.218 617.818 445.262 611.648 442.746Z" stroke="#1A2E35" stroke-width="1.33333" stroke-miterlimit="10"/>
<path d="M611.648 442.746L621.075 436.895" stroke="#1A2E35" stroke-width="0.666667" stroke-miterlimit="10"/>
<path d="M608.343 429.749C608.343 429.749 608.143 426.513 611.095 423.873C612.871 422.283 622.225 418.342 623.115 421.638C624.083 425.221 614.511 432.265 608.343 429.749Z" fill="#02BFE1"/>
<path d="M608.343 429.749C608.343 429.749 608.143 426.513 611.095 423.873C612.871 422.283 622.225 418.342 623.115 421.638C624.083 425.221 614.511 432.265 608.343 429.749Z" stroke="#1A2E35" stroke-width="1.33333" stroke-miterlimit="10"/>
<path d="M608.342 429.749L617.768 423.899" stroke="#1A2E35" stroke-width="0.666667" stroke-miterlimit="10"/>
<path d="M608.729 430.168C608.729 430.168 605.489 430.029 603.173 426.815C601.78 424.881 598.841 415.165 602.211 414.627C605.876 414.04 611.877 424.299 608.729 430.168Z" fill="#02BFE1"/>
<path d="M608.729 430.168C608.729 430.168 605.489 430.029 603.173 426.815C601.78 424.881 598.841 415.165 602.211 414.627C605.876 414.04 611.877 424.299 608.729 430.168Z" stroke="#1A2E35" stroke-width="1.33333" stroke-miterlimit="10"/>
<path d="M608.729 430.168L603.9 420.181" stroke="#1A2E35" stroke-width="0.666667" stroke-miterlimit="10"/>
<path d="M590.892 370.96V556.084" stroke="#1A2E35" stroke-width="2.66667" stroke-miterlimit="10"/>
<path d="M591.039 528.249L584.91 520.254" stroke="#1A2E35" stroke-width="2.66667" stroke-miterlimit="10"/>
<path d="M586.776 522.652C586.776 522.652 587.308 519.455 584.644 516.523C583.042 514.76 574.144 509.874 572.919 513.059C571.587 516.523 580.38 524.518 586.776 522.652Z" fill="#02BFE1"/>
<path d="M586.776 522.652C586.776 522.652 587.308 519.455 584.644 516.523C583.042 514.76 574.144 509.874 572.919 513.059C571.587 516.523 580.38 524.518 586.776 522.652Z" stroke="#1A2E35" stroke-width="1.33333" stroke-miterlimit="10"/>
<path d="M586.776 522.652L578.493 516.207" stroke="#1A2E35" stroke-width="0.666667" stroke-miterlimit="10"/>
<path d="M591.039 493.458L584.91 485.465" stroke="#1A2E35" stroke-width="2.66667" stroke-miterlimit="10"/>
<path d="M586.776 487.863C586.776 487.863 587.308 484.666 584.644 481.733C583.042 479.97 574.144 475.085 572.919 478.27C571.587 481.733 580.38 489.727 586.776 487.863Z" fill="#02BFE1"/>
<path d="M586.776 487.863C586.776 487.863 587.308 484.666 584.644 481.733C583.042 479.97 574.144 475.085 572.919 478.27C571.587 481.733 580.38 489.727 586.776 487.863Z" stroke="#1A2E35" stroke-width="1.33333" stroke-miterlimit="10"/>
<path d="M586.776 487.863L578.493 481.418" stroke="#1A2E35" stroke-width="0.666667" stroke-miterlimit="10"/>
<path d="M591.039 452.613L584.91 444.62" stroke="#1A2E35" stroke-width="2.66667" stroke-miterlimit="10"/>
<path d="M586.776 447.017C586.776 447.017 587.308 443.821 584.644 440.888C583.042 439.125 574.144 434.24 572.919 437.425C571.587 440.888 580.38 448.882 586.776 447.017Z" fill="#02BFE1"/>
<path d="M586.776 447.017C586.776 447.017 587.308 443.821 584.644 440.888C583.042 439.125 574.144 434.24 572.919 437.425C571.587 440.888 580.38 448.882 586.776 447.017Z" stroke="#1A2E35" stroke-width="1.33333" stroke-miterlimit="10"/>
<path d="M586.776 447.017L578.493 440.573" stroke="#1A2E35" stroke-width="0.666667" stroke-miterlimit="10"/>
<path d="M591.039 425.423L584.91 417.429" stroke="#1A2E35" stroke-width="2.66667" stroke-miterlimit="10"/>
<path d="M586.776 419.827C586.776 419.827 587.308 416.629 584.644 413.697C583.042 411.935 574.144 407.048 572.919 410.235C571.587 413.697 580.38 421.692 586.776 419.827Z" fill="#02BFE1"/>
<path d="M586.776 419.827C586.776 419.827 587.308 416.629 584.644 413.697C583.042 411.935 574.144 407.048 572.919 410.235C571.587 413.697 580.38 421.692 586.776 419.827Z" stroke="#1A2E35" stroke-width="1.33333" stroke-miterlimit="10"/>
<path d="M586.776 419.827L578.493 413.383" stroke="#1A2E35" stroke-width="0.666667" stroke-miterlimit="10"/>
<path d="M591.039 398.113L584.91 390.12" stroke="#1A2E35" stroke-width="2.66667" stroke-miterlimit="10"/>
<path d="M586.776 392.518C586.776 392.518 587.308 389.321 584.644 386.389C583.042 384.625 574.144 379.74 572.919 382.925C571.587 386.389 580.38 394.382 586.776 392.518Z" fill="#02BFE1"/>
<path d="M586.776 392.518C586.776 392.518 587.308 389.321 584.644 386.389C583.042 384.625 574.144 379.74 572.919 382.925C571.587 386.389 580.38 394.382 586.776 392.518Z" stroke="#1A2E35" stroke-width="1.33333" stroke-miterlimit="10"/>
<path d="M586.776 392.518L578.493 386.073" stroke="#1A2E35" stroke-width="0.666667" stroke-miterlimit="10"/>
<path d="M590.905 538.871L597.034 530.878" stroke="#1A2E35" stroke-width="2.66667" stroke-miterlimit="10"/>
<path d="M595.168 533.276C595.168 533.276 594.636 530.079 597.3 527.147C598.904 525.383 607.8 520.497 609.025 523.683C610.357 527.147 601.564 535.14 595.168 533.276Z" fill="#02BFE1"/>
<path d="M595.168 533.276C595.168 533.276 594.636 530.079 597.3 527.147C598.904 525.383 607.8 520.497 609.025 523.683C610.357 527.147 601.564 535.14 595.168 533.276Z" stroke="#1A2E35" stroke-width="1.33333" stroke-miterlimit="10"/>
<path d="M595.168 533.276L603.94 526.484" stroke="#1A2E35" stroke-width="0.666667" stroke-miterlimit="10"/>
<path d="M590.905 483.54L597.034 475.547" stroke="#1A2E35" stroke-width="2.66667" stroke-miterlimit="10"/>
<path d="M595.168 477.945C595.168 477.945 594.636 474.748 597.3 471.816C598.904 470.052 607.8 465.167 609.025 468.352C610.357 471.816 601.564 479.809 595.168 477.945Z" fill="#02BFE1"/>
<path d="M595.168 477.945C595.168 477.945 594.636 474.748 597.3 471.816C598.904 470.052 607.8 465.167 609.025 468.352C610.357 471.816 601.564 479.809 595.168 477.945Z" stroke="#1A2E35" stroke-width="1.33333" stroke-miterlimit="10"/>
<path d="M595.168 477.945L603.94 471.153" stroke="#1A2E35" stroke-width="0.666667" stroke-miterlimit="10"/>
<path d="M590.905 456.232L597.034 448.237" stroke="#1A2E35" stroke-width="2.66667" stroke-miterlimit="10"/>
<path d="M595.168 450.636C595.168 450.636 594.636 447.438 597.3 444.506C598.904 442.744 607.8 437.857 609.025 441.044C610.357 444.506 601.564 452.501 595.168 450.636Z" fill="#02BFE1"/>
<path d="M595.168 450.636C595.168 450.636 594.636 447.438 597.3 444.506C598.904 442.744 607.8 437.857 609.025 441.044C610.357 444.506 601.564 452.501 595.168 450.636Z" stroke="#1A2E35" stroke-width="1.33333" stroke-miterlimit="10"/>
<path d="M595.168 450.635L603.94 443.843" stroke="#1A2E35" stroke-width="0.666667" stroke-miterlimit="10"/>
<path d="M590.905 420.135L597.034 412.142" stroke="#1A2E35" stroke-width="2.66667" stroke-miterlimit="10"/>
<path d="M595.168 414.54C595.168 414.54 594.636 411.343 597.3 408.411C598.904 406.647 607.8 401.762 609.025 404.947C610.357 408.411 601.564 416.404 595.168 414.54Z" fill="#02BFE1"/>
<path d="M595.168 414.54C595.168 414.54 594.636 411.343 597.3 408.411C598.904 406.647 607.8 401.762 609.025 404.947C610.357 408.411 601.564 416.404 595.168 414.54Z" stroke="#1A2E35" stroke-width="1.33333" stroke-miterlimit="10"/>
<path d="M595.168 414.54L603.94 407.748" stroke="#1A2E35" stroke-width="0.666667" stroke-miterlimit="10"/>
<path d="M590.905 391.758L597.034 383.765" stroke="#1A2E35" stroke-width="2.66667" stroke-miterlimit="10"/>
<path d="M595.168 386.161C595.168 386.161 594.636 382.965 597.3 380.033C598.904 378.269 607.8 373.384 609.025 376.569C610.357 380.033 601.564 388.027 595.168 386.161Z" fill="#02BFE1"/>
<path d="M595.168 386.161C595.168 386.161 594.636 382.965 597.3 380.033C598.904 378.269 607.8 373.384 609.025 376.569C610.357 380.033 601.564 388.027 595.168 386.161Z" stroke="#1A2E35" stroke-width="1.33333" stroke-miterlimit="10"/>
<path d="M595.168 386.161L603.94 379.369" stroke="#1A2E35" stroke-width="0.666667" stroke-miterlimit="10"/>
<path d="M590.538 373.575C590.538 373.575 590.006 370.379 592.67 367.446C594.273 365.683 603.17 360.798 604.395 363.983C605.727 367.446 596.933 375.441 590.538 373.575Z" fill="#02BFE1"/>
<path d="M590.538 373.575C590.538 373.575 590.006 370.379 592.67 367.446C594.273 365.683 603.17 360.798 604.395 363.983C605.727 367.446 596.933 375.441 590.538 373.575Z" stroke="#1A2E35" stroke-width="1.33333" stroke-miterlimit="10"/>
<path d="M590.538 373.575L599.31 366.783" stroke="#1A2E35" stroke-width="0.666667" stroke-miterlimit="10"/>
<path d="M590.965 373.953C590.965 373.953 587.729 374.148 585.094 371.19C583.508 369.412 579.582 360.05 582.88 359.166C586.464 358.204 593.492 367.789 590.965 373.953Z" fill="#02BFE1"/>
<path d="M590.965 373.953C590.965 373.953 587.729 374.148 585.094 371.19C583.508 369.412 579.582 360.05 582.88 359.166C586.464 358.204 593.492 367.789 590.965 373.953Z" stroke="#1A2E35" stroke-width="1.33333" stroke-miterlimit="10"/>
<path d="M590.965 373.953L585.131 364.517" stroke="#1A2E35" stroke-width="0.666667" stroke-miterlimit="10"/>
<path d="M598.508 604.096H578.903L576.452 554.583H600.96L598.508 604.096Z" fill="#1A2E35"/>
<path d="M598.508 604.096H578.903L576.452 554.583H600.96L598.508 604.096Z" stroke="#1A2E35" stroke-width="1.33333" stroke-miterlimit="10"/>
</g>
<path d="M551.137 244.379C543.073 237.588 544.632 226.77 544.632 226.77C544.632 226.77 511.665 256.687 509.968 266.45C508.27 276.212 532.886 311.439 536.708 316.958C537.176 317.634 537.794 318.174 538.526 318.591C537.494 321.132 536.774 324.074 536.809 327.776C536.91 338.596 549.14 334.764 554.072 331.475C559.004 328.187 557.772 322.434 557.772 322.434C557.772 322.434 551.606 324.899 551.606 322.022C551.606 319.146 557.36 314.624 557.36 314.624L557.217 314.523C558.42 313.595 559.533 312.57 560.476 311.439C566.841 303.799 556.23 295.311 554.109 290.642C551.986 285.974 555.806 281.73 563.445 275.363C571.086 268.996 559.202 251.17 551.137 244.379Z" fill="#1A2E35"/>
<path d="M551.137 244.379C543.073 237.588 544.632 226.77 544.632 226.77C544.632 226.77 511.665 256.687 509.968 266.45C508.27 276.212 532.886 311.439 536.708 316.958C537.176 317.634 537.794 318.174 538.526 318.591C537.494 321.132 536.774 324.074 536.809 327.776C536.91 338.596 549.14 334.764 554.072 331.475C559.004 328.187 557.772 322.434 557.772 322.434C557.772 322.434 551.606 324.899 551.606 322.022C551.606 319.146 557.36 314.624 557.36 314.624L557.217 314.523C558.42 313.595 559.533 312.57 560.476 311.439C566.841 303.799 556.23 295.311 554.109 290.642C551.986 285.974 555.806 281.73 563.445 275.363C571.086 268.996 559.202 251.17 551.137 244.379Z" stroke="#1A2E35" stroke-width="1.33333" stroke-miterlimit="10" stroke-linecap="round" stroke-linejoin="round"/>
<path d="M430.228 310.094C430.228 310.094 430.545 316.142 429.909 321.235C429.272 326.328 432.773 331.899 434.525 333.172C436.276 334.446 445.031 337.31 445.031 337.31L446.463 329.671L445.189 326.487L446.939 314.868C446.939 314.868 445.665 311.207 444.075 308.662C442.483 306.115 438.185 303.408 437.867 302.931C437.548 302.454 432.297 303.568 431.819 303.568C431.341 303.568 428.955 304.523 428.955 304.523L430.228 310.094Z" fill="white"/>
<path d="M430.228 310.094C430.228 310.094 430.545 316.142 429.909 321.235C429.272 326.328 432.773 331.899 434.525 333.172C436.276 334.446 445.031 337.31 445.031 337.31L446.463 329.671L445.189 326.487L446.939 314.868C446.939 314.868 445.665 311.207 444.075 308.662C442.483 306.115 438.185 303.408 437.867 302.931C437.548 302.454 432.297 303.568 431.819 303.568C431.341 303.568 428.955 304.523 428.955 304.523L430.228 310.094Z" stroke="#1A2E35" stroke-width="1.33333" stroke-miterlimit="10" stroke-linecap="round" stroke-linejoin="round"/>
<path d="M427.519 302.318C427.519 302.318 424.786 302.541 424.451 303.626C424.117 304.712 425.265 310.968 425.945 311.546C426.627 312.125 428.486 311.55 428.49 309.012C428.493 306.472 428.235 303.318 427.519 302.318Z" fill="white"/>
<path d="M427.519 302.318C427.519 302.318 424.786 302.541 424.451 303.626C424.117 304.712 425.265 310.968 425.945 311.546C426.627 312.125 428.486 311.55 428.49 309.012C428.493 306.472 428.235 303.318 427.519 302.318Z" stroke="#1A2E35" stroke-width="1.33333" stroke-miterlimit="10" stroke-linecap="round" stroke-linejoin="round"/>
<path d="M430.622 301.572C430.622 301.572 427.642 301.572 427.184 302.718C426.725 303.864 427.413 310.742 428.1 311.431C428.788 312.118 430.852 311.659 431.081 308.908C431.31 306.156 431.31 302.718 430.622 301.572Z" fill="white"/>
<path d="M430.622 301.572C430.622 301.572 427.642 301.572 427.184 302.718C426.725 303.864 427.413 310.742 428.1 311.431C428.788 312.118 430.852 311.659 431.081 308.908C431.31 306.156 431.31 302.718 430.622 301.572Z" stroke="#1A2E35" stroke-width="1.33333" stroke-miterlimit="10" stroke-linecap="round" stroke-linejoin="round"/>
<path d="M433.8 300.418C433.8 300.418 430.438 300.418 429.922 301.71C429.405 303.002 430.181 310.757 430.956 311.531C431.732 312.307 434.057 311.79 434.317 308.689C434.574 305.587 434.574 301.71 433.8 300.418Z" fill="white"/>
<path d="M433.8 300.418C433.8 300.418 430.438 300.418 429.922 301.71C429.405 303.002 430.181 310.757 430.956 311.531C431.732 312.307 434.057 311.79 434.317 308.689C434.574 305.587 434.574 301.71 433.8 300.418Z" stroke="#1A2E35" stroke-width="1.33333" stroke-miterlimit="10" stroke-linecap="round" stroke-linejoin="round"/>
<path d="M436.848 300.436C436.848 300.436 433.488 300.436 432.972 301.728C432.455 303.02 433.229 310.774 434.005 311.549C434.78 312.325 437.107 311.808 437.365 308.706C437.624 305.605 437.624 301.728 436.848 300.436Z" fill="white"/>
<path d="M436.848 300.436C436.848 300.436 433.488 300.436 432.972 301.728C432.455 303.02 433.229 310.774 434.005 311.549C434.78 312.325 437.107 311.808 437.365 308.706C437.624 305.605 437.624 301.728 436.848 300.436Z" stroke="#1A2E35" stroke-width="1.33333" stroke-miterlimit="10" stroke-linecap="round" stroke-linejoin="round"/>
<path d="M445.378 323.956C445.378 323.956 446.671 317.236 446.929 313.618C447.187 309.999 443.053 305.604 442.018 304.312C440.985 303.02 440.985 298.367 439.175 298.367C437.365 298.367 436.849 300.435 436.849 300.435C436.849 300.435 435.814 303.795 437.625 305.604C439.433 307.414 441.242 310.258 441.242 310.258C441.242 310.258 435.814 320.596 435.814 323.439C435.814 326.283 440.985 329.643 440.985 329.643" fill="white"/>
<path d="M445.378 323.956C445.378 323.956 446.671 317.236 446.929 313.618C447.187 309.999 443.053 305.604 442.018 304.312C440.985 303.02 440.985 298.367 439.175 298.367C437.365 298.367 436.849 300.435 436.849 300.435C436.849 300.435 435.814 303.795 437.625 305.604C439.433 307.414 441.242 310.258 441.242 310.258C441.242 310.258 435.814 320.596 435.814 323.439C435.814 326.283 440.985 329.643 440.985 329.643" stroke="#1A2E35" stroke-width="1.33333" stroke-miterlimit="10" stroke-linecap="round" stroke-linejoin="round"/>
<path d="M446.143 329.034L444.711 341.45L478.773 352.59L478.453 333.969L446.143 329.034Z" fill="#02BFE1"/>
<path d="M446.143 329.034L444.711 341.45L478.773 352.59L478.453 333.969L446.143 329.034Z" stroke="#1A2E35" stroke-width="1.33333" stroke-miterlimit="10" stroke-linecap="round" stroke-linejoin="round"/>
<path d="M502.328 270.462C502.328 270.462 483.355 276.141 482.08 282.084C480.807 288.025 476.862 306.114 476.862 306.114C476.862 306.114 472.192 318.424 472.618 324.79C473.042 331.157 476.862 343.889 474.74 352.378C472.618 360.866 465.403 386.332 463.704 394.822C462.007 403.31 461.158 408.402 461.158 408.402L467.95 409.676L477.287 410.949C477.287 410.949 481.106 385.484 484.078 363.413C487.048 341.342 479.41 326.064 486.624 311.632C493.839 297.202 511.242 282.77 509.967 276.829C508.694 270.886 502.328 270.462 502.328 270.462Z" fill="#02BFE1"/>
<path d="M502.328 270.462C502.328 270.462 483.355 276.141 482.08 282.084C480.807 288.025 476.862 306.114 476.862 306.114C476.862 306.114 472.192 318.424 472.618 324.79C473.042 331.157 476.862 343.889 474.74 352.378C472.618 360.866 465.403 386.332 463.704 394.822C462.007 403.31 461.158 408.402 461.158 408.402L467.95 409.676L477.287 410.949C477.287 410.949 481.106 385.484 484.078 363.413C487.048 341.342 479.41 326.064 486.624 311.632C493.839 297.202 511.242 282.77 509.967 276.829C508.694 270.886 502.328 270.462 502.328 270.462Z" stroke="#1A2E35" stroke-width="1.33333" stroke-miterlimit="10" stroke-linecap="round" stroke-linejoin="round"/>
<path d="M467.949 393.124C467.949 393.124 465.403 424.106 470.495 447.026C475.588 469.945 481.531 485.65 481.531 485.65C481.531 485.65 487.473 523 491.717 536.156C495.961 549.314 497.235 562.046 496.385 572.233C495.536 582.42 488.321 595.577 484.925 598.124C481.531 600.67 474.74 606.612 483.228 608.734C491.717 610.857 502.687 605.98 507.845 605.764C518.032 605.34 519.305 598.548 519.305 592.182C519.305 585.816 513.364 564.169 515.061 553.134C516.757 542.098 517.183 505.597 515.485 495.836C513.788 486.074 512.939 477.16 512.939 477.16L511.665 397.792L469.645 391.85L467.949 393.124Z" fill="#1A2E35"/>
<path d="M467.949 393.124C467.949 393.124 465.403 424.106 470.495 447.026C475.588 469.945 481.531 485.65 481.531 485.65C481.531 485.65 487.473 523 491.717 536.156C495.961 549.314 497.235 562.046 496.385 572.233C495.536 582.42 488.321 595.577 484.925 598.124C481.531 600.67 474.74 606.612 483.228 608.734C491.717 610.857 502.687 605.98 507.845 605.764C518.032 605.34 519.305 598.548 519.305 592.182C519.305 585.816 513.364 564.169 515.061 553.134C516.757 542.098 517.183 505.597 515.485 495.836C513.788 486.074 512.939 477.16 512.939 477.16L511.665 397.792L469.645 391.85L467.949 393.124Z" stroke="#1A2E35" stroke-width="1.33333" stroke-miterlimit="10" stroke-linecap="round" stroke-linejoin="round"/>
<path d="M514.804 559.784C505.004 564.032 499.504 563.256 496.484 561.501C496.688 565.295 496.664 568.911 496.386 572.233C495.537 582.42 488.322 595.577 484.926 598.124C481.53 600.671 474.74 606.612 483.228 608.735C491.718 610.857 502.686 605.979 507.845 605.763C518.032 605.34 519.305 598.548 519.305 592.183C519.305 586.932 515.269 571.296 514.804 559.784Z" fill="white"/>
<path d="M514.804 559.784C505.004 564.032 499.504 563.256 496.484 561.501C496.688 565.295 496.664 568.911 496.386 572.233C495.537 582.42 488.322 595.577 484.926 598.124C481.53 600.671 474.74 606.612 483.228 608.735C491.718 610.857 502.686 605.979 507.845 605.763C518.032 605.34 519.305 598.548 519.305 592.183C519.305 586.932 515.269 571.296 514.804 559.784Z" stroke="#1A2E35" stroke-width="1.33333" stroke-miterlimit="10" stroke-linecap="round" stroke-linejoin="round"/>
<path d="M519.265 591.189C519.259 591.118 519.255 591.051 519.25 590.981C519.223 590.625 519.185 590.245 519.138 589.837C519.129 589.753 519.118 589.663 519.107 589.577C519.061 589.181 519.006 588.767 518.943 588.329C518.937 588.282 518.93 588.238 518.923 588.19C518.857 587.731 518.782 587.243 518.701 586.743C518.677 586.591 518.653 586.439 518.626 586.283C518.551 585.822 518.471 585.346 518.387 584.855C518.343 584.593 518.295 584.325 518.249 584.054C518.238 583.997 518.229 583.939 518.218 583.882C517.623 584.474 517.003 585.106 516.334 585.815C509.543 593.031 500.206 601.095 490.445 601.095C485.793 601.095 484.614 599.746 484.65 598.333C481.182 600.982 474.963 606.667 483.229 608.734C491.718 610.857 502.686 605.979 507.846 605.763C518.031 605.339 519.305 598.549 519.305 592.182C519.305 591.886 519.289 591.547 519.265 591.189Z" fill="#02BFE1"/>
<path d="M519.265 591.189C519.259 591.118 519.255 591.051 519.25 590.981C519.223 590.625 519.185 590.245 519.138 589.837C519.129 589.753 519.118 589.663 519.107 589.577C519.061 589.181 519.006 588.767 518.943 588.329C518.937 588.282 518.93 588.238 518.923 588.19C518.857 587.731 518.782 587.243 518.701 586.743C518.677 586.591 518.653 586.439 518.626 586.283C518.551 585.822 518.471 585.346 518.387 584.855C518.343 584.593 518.295 584.325 518.249 584.054C518.238 583.997 518.229 583.939 518.218 583.882C517.623 584.474 517.003 585.106 516.334 585.815C509.543 593.031 500.206 601.095 490.445 601.095C485.793 601.095 484.614 599.746 484.65 598.333C481.182 600.982 474.963 606.667 483.229 608.734C491.718 610.857 502.686 605.979 507.846 605.763C518.031 605.339 519.305 598.549 519.305 592.182C519.305 591.886 519.289 591.547 519.265 591.189Z" stroke="#1A2E35" stroke-width="1.33333" stroke-miterlimit="10" stroke-linecap="round" stroke-linejoin="round"/>
<path d="M510.817 599.822C502.753 606.187 494.263 607.036 487.049 607.036C481.471 607.036 479.957 604.762 479.554 603.726C478.581 605.746 479.077 607.696 483.229 608.735C491.718 610.856 502.686 605.979 507.845 605.763C517.442 605.363 519.126 599.314 519.289 593.292C517.25 594.819 514.417 596.979 510.817 599.822Z" fill="white"/>
<path d="M510.817 599.822C502.753 606.187 494.263 607.036 487.049 607.036C481.471 607.036 479.957 604.762 479.554 603.726C478.581 605.746 479.077 607.696 483.229 608.735C491.718 610.856 502.686 605.979 507.845 605.763C517.442 605.363 519.126 599.314 519.289 593.292C517.25 594.819 514.417 596.979 510.817 599.822Z" stroke="#1A2E35" stroke-width="1.33333" stroke-miterlimit="10" stroke-linecap="round" stroke-linejoin="round"/>
<path d="M495.112 440.236C495.112 440.236 499.358 494.138 502.752 508.569C506.147 523 513.363 573.082 513.363 579.874C513.363 586.664 508.695 596.426 506.147 600.67C503.602 604.916 496.81 605.764 496.81 609.584C496.81 613.404 510.392 613.404 512.939 613.828C515.486 614.253 532.887 609.584 533.311 607.461C533.736 605.34 533.736 596.426 533.736 596.426C533.736 596.426 534.16 592.182 533.736 589.21C533.311 586.24 528.218 577.326 528.218 577.326C528.218 577.326 532.887 535.732 534.16 528.941C535.434 522.152 535.01 508.145 534.584 501.777C534.16 495.412 530.34 482.678 530.34 482.678L538.83 415.194L537.98 393.548C537.98 393.548 526.096 394.821 512.939 394.821H490.444L491.294 410.949" fill="#1A2E35"/>
<path d="M495.112 440.236C495.112 440.236 499.358 494.138 502.752 508.569C506.147 523 513.363 573.082 513.363 579.874C513.363 586.664 508.695 596.426 506.147 600.67C503.602 604.916 496.81 605.764 496.81 609.584C496.81 613.404 510.392 613.404 512.939 613.828C515.486 614.253 532.887 609.584 533.311 607.461C533.736 605.34 533.736 596.426 533.736 596.426C533.736 596.426 534.16 592.182 533.736 589.21C533.311 586.24 528.218 577.326 528.218 577.326C528.218 577.326 532.887 535.732 534.16 528.941C535.434 522.152 535.01 508.145 534.584 501.777C534.16 495.412 530.34 482.678 530.34 482.678L538.83 415.194L537.98 393.548C537.98 393.548 526.096 394.821 512.939 394.821H490.444L491.294 410.949" stroke="#1A2E35" stroke-width="1.33333" stroke-miterlimit="10" stroke-linecap="round" stroke-linejoin="round"/>
<path d="M533.311 607.461C533.735 605.34 533.735 596.426 533.735 596.426C533.735 596.426 534.161 592.182 533.735 589.21C533.311 586.24 528.218 577.326 528.218 577.326C528.218 577.326 528.914 571.128 529.841 563.133C521.595 566.41 514.549 563.582 511.403 561.864C512.577 570.681 513.363 577.636 513.363 579.874C513.363 586.664 508.694 596.426 506.147 600.67C503.602 604.916 496.81 605.764 496.81 609.584C496.81 613.404 510.393 613.404 512.939 613.828C515.486 614.253 532.887 609.584 533.311 607.461Z" fill="white"/>
<path d="M533.311 607.461C533.735 605.34 533.735 596.426 533.735 596.426C533.735 596.426 534.161 592.182 533.735 589.21C533.311 586.24 528.218 577.326 528.218 577.326C528.218 577.326 528.914 571.128 529.841 563.133C521.595 566.41 514.549 563.582 511.403 561.864C512.577 570.681 513.363 577.636 513.363 579.874C513.363 586.664 508.694 596.426 506.147 600.67C503.602 604.916 496.81 605.764 496.81 609.584C496.81 613.404 510.393 613.404 512.939 613.828C515.486 614.253 532.887 609.584 533.311 607.461Z" stroke="#1A2E35" stroke-width="1.33333" stroke-miterlimit="10" stroke-linecap="round" stroke-linejoin="round"/>
<path d="M533.312 607.461C533.736 605.34 533.736 596.426 533.736 596.426C533.736 596.426 534.161 592.182 533.736 589.21C533.492 587.496 531.692 583.806 530.214 580.989C530.113 581.188 530.02 581.364 529.916 581.572C527.37 586.664 516.465 599.924 511.372 602.894C506.28 605.866 504.874 602.369 504.874 602.369H504.742C501.708 605.23 497.11 606.352 496.81 609.584C496.25 615.638 512.864 615.24 515.281 614.448C517.733 613.646 532.888 609.584 533.312 607.461Z" fill="#02BFE1"/>
<path d="M533.312 607.461C533.736 605.34 533.736 596.426 533.736 596.426C533.736 596.426 534.161 592.182 533.736 589.21C533.492 587.496 531.692 583.806 530.214 580.989C530.113 581.188 530.02 581.364 529.916 581.572C527.37 586.664 516.465 599.924 511.372 602.894C506.28 605.866 504.874 602.369 504.874 602.369H504.742C501.708 605.23 497.11 606.352 496.81 609.584C496.25 615.638 512.864 615.24 515.281 614.448C517.733 613.646 532.888 609.584 533.312 607.461Z" stroke="#1A2E35" stroke-width="1.33333" stroke-miterlimit="10" stroke-linecap="round" stroke-linejoin="round"/>
<path d="M533.312 607.461C533.586 606.092 533.682 601.896 533.717 599.09C521.964 608.302 509.776 610.045 504.576 610.372C499.677 610.677 497.68 608.506 497.333 608.073C497.052 608.528 496.862 609.022 496.81 609.584C496.25 615.638 512.864 615.24 515.281 614.448C517.733 613.646 532.888 609.584 533.312 607.461Z" fill="white"/>
<path d="M533.312 607.461C533.586 606.092 533.682 601.896 533.717 599.09C521.964 608.302 509.776 610.045 504.576 610.372C499.677 610.677 497.68 608.506 497.333 608.073C497.052 608.528 496.862 609.022 496.81 609.584C496.25 615.638 512.864 615.24 515.281 614.448C517.733 613.646 532.888 609.584 533.312 607.461Z" stroke="#1A2E35" stroke-width="1.33333" stroke-miterlimit="10" stroke-linecap="round" stroke-linejoin="round"/>
<path d="M499.781 272.585C499.781 272.585 483.228 304.841 479.409 313.754C475.588 322.667 477.287 337.098 477.287 342.191C477.287 347.285 467.949 393.123 467.949 393.123C467.949 393.123 476.437 402.037 498.932 401.187C521.427 400.338 535.009 394.822 535.009 394.822C535.009 394.822 529.916 352.802 529.916 343.89C529.916 334.977 540.951 296.778 539.677 286.59C538.405 276.405 523.125 277.253 519.305 276.405C515.485 275.555 499.781 272.585 499.781 272.585Z" fill="white"/>
<path d="M499.781 272.585C499.781 272.585 483.228 304.841 479.409 313.754C475.588 322.667 477.287 337.098 477.287 342.191C477.287 347.285 467.949 393.123 467.949 393.123C467.949 393.123 476.437 402.037 498.932 401.187C521.427 400.338 535.009 394.822 535.009 394.822C535.009 394.822 529.916 352.802 529.916 343.89C529.916 334.977 540.951 296.778 539.677 286.59C538.405 276.405 523.125 277.253 519.305 276.405C515.485 275.555 499.781 272.585 499.781 272.585Z" stroke="#1A2E35" stroke-width="1.33333" stroke-miterlimit="10" stroke-linecap="round" stroke-linejoin="round"/>
<path d="M480.787 212.368C480.787 212.368 476.036 228.659 477.733 230.696C479.429 232.732 481.127 237.483 481.127 237.483C481.127 237.483 476.036 247.325 477.393 248.683C478.752 250.04 481.805 251.059 481.805 251.059C481.805 251.059 484.86 265.652 487.575 266.332C490.291 267.009 506.241 262.597 506.241 262.597C506.241 262.597 515.744 254.113 512.011 238.84C508.277 223.568 493.345 212.708 490.629 211.351C487.915 209.992 480.787 212.368 480.787 212.368Z" fill="white"/>
<path d="M480.787 212.368C480.787 212.368 476.036 228.659 477.733 230.696C479.429 232.732 481.127 237.483 481.127 237.483C481.127 237.483 476.036 247.325 477.393 248.683C478.752 250.04 481.805 251.059 481.805 251.059C481.805 251.059 484.86 265.652 487.575 266.332C490.291 267.009 506.241 262.597 506.241 262.597C506.241 262.597 515.744 254.113 512.011 238.84C508.277 223.568 493.345 212.708 490.629 211.351C487.915 209.992 480.787 212.368 480.787 212.368Z" stroke="#1A2E35" stroke-width="1.33333" stroke-miterlimit="10" stroke-linecap="round" stroke-linejoin="round"/>
<path d="M489.272 236.804V240.537C489.272 240.537 493.476 240.797 495.514 239.439" stroke="#1A2E35" stroke-width="1.33333" stroke-miterlimit="10" stroke-linecap="round" stroke-linejoin="round"/>
<path d="M487.853 235.083C487.853 235.083 491.458 232.98 495.214 235.233" stroke="#1A2E35" stroke-width="1.33333" stroke-miterlimit="10" stroke-linecap="round" stroke-linejoin="round"/>
<path d="M484.098 235.083C484.098 235.083 485.599 231.928 491.459 231.928C497.317 231.928 500.622 233.731 501.071 234.783C501.522 235.833 500.921 236.585 500.921 236.585C500.921 236.585 500.921 242.744 499.269 244.396C497.617 246.048 491.609 247.7 488.605 246.349C485.599 244.997 483.947 239.139 483.947 237.787C483.947 236.435 484.098 235.083 484.098 235.083Z" stroke="#1A2E35" stroke-width="1.33333" stroke-miterlimit="10" stroke-linecap="round" stroke-linejoin="round"/>
<path d="M501.072 234.783H503.476" stroke="#1A2E35" stroke-width="1.33333" stroke-miterlimit="10" stroke-linecap="round" stroke-linejoin="round"/>
<path d="M484.098 235.083C484.098 235.083 481.544 232.98 480.492 235.533" stroke="#1A2E35" stroke-width="1.33333" stroke-miterlimit="10" stroke-linecap="round" stroke-linejoin="round"/>
<path d="M479.44 235.083C479.44 235.083 477.338 234.481 474.784 234.481C472.231 234.481 471.479 235.533 471.631 235.984C471.78 236.435 472.531 238.688 472.531 240.34C472.531 241.993 472.682 244.547 474.184 245.297C475.686 246.048 477.488 246.199 477.488 246.199" stroke="#1A2E35" stroke-width="1.33333" stroke-miterlimit="10" stroke-linecap="round" stroke-linejoin="round"/>
<path d="M513.788 275.131C513.788 275.131 502.328 303.992 499.357 320.122C496.385 336.25 497.658 419.862 497.658 419.862C497.658 419.862 507.845 425.38 522.276 424.531C536.706 423.683 551.561 414.346 551.561 414.346C551.561 414.346 548.166 389.728 542.649 372.326C537.132 354.924 535.009 346.86 535.009 346.86C535.009 346.86 546.044 290.411 545.196 284.468C544.346 278.527 513.788 275.131 513.788 275.131Z" fill="#02BFE1"/>
<path d="M513.788 275.131C513.788 275.131 502.328 303.992 499.357 320.122C496.385 336.25 497.658 419.862 497.658 419.862C497.658 419.862 507.845 425.38 522.276 424.531C536.706 423.683 551.561 414.346 551.561 414.346C551.561 414.346 548.166 389.728 542.649 372.326C537.132 354.924 535.009 346.86 535.009 346.86C535.009 346.86 546.044 290.411 545.196 284.468C544.346 278.527 513.788 275.131 513.788 275.131Z" stroke="#1A2E35" stroke-width="1.33333" stroke-miterlimit="10" stroke-linecap="round" stroke-linejoin="round"/>
<path d="M491.987 196.417C491.987 196.417 475.357 201.167 475.357 203.883C475.357 206.598 474.679 210.333 485.878 218.138C497.078 225.945 505.223 233.071 505.903 242.574C506.581 252.077 497.078 277.191 495.042 285.337C493.006 293.482 494.023 305.361 500.471 307.058C506.921 308.754 504.885 307.737 504.205 304.003C503.526 300.27 507.259 284.658 518.459 279.567C529.659 274.477 541.795 266.318 544.253 251.058C546.818 235.13 545.787 212.094 529.321 199.471C512.662 186.702 491.987 196.417 491.987 196.417Z" fill="#1A2E35"/>
<path d="M491.987 196.417C491.987 196.417 475.357 201.167 475.357 203.883C475.357 206.598 474.679 210.333 485.878 218.138C497.078 225.945 505.223 233.071 505.903 242.574C506.581 252.077 497.078 277.191 495.042 285.337C493.006 293.482 494.023 305.361 500.471 307.058C506.921 308.754 504.885 307.737 504.205 304.003C503.526 300.27 507.259 284.658 518.459 279.567C529.659 274.477 541.795 266.318 544.253 251.058C546.818 235.13 545.787 212.094 529.321 199.471C512.662 186.702 491.987 196.417 491.987 196.417Z" stroke="#1A2E35" stroke-width="1.33333" stroke-miterlimit="10" stroke-linecap="round" stroke-linejoin="round"/>
<path d="M522.701 306.539L518.455 345.587L515.909 346.436V348.558L513.363 349.831L512.09 351.528L453.094 346.011C453.094 346.011 439.511 344.314 436.965 344.314C434.418 344.314 424.657 343.04 424.657 343.04C424.657 343.04 425.93 346.86 428.053 347.286C430.174 347.71 441.21 351.528 441.21 351.528C441.21 351.528 448.425 355.348 453.094 355.348C457.762 355.348 464.978 355.774 464.978 355.774C464.978 355.774 495.961 364.262 505.723 365.959C515.486 367.658 523.55 371.478 526.946 370.204C530.339 368.931 534.585 365.535 535.858 360.866C537.131 356.198 542.649 327.336 542.649 327.336C542.649 327.336 549.441 298.051 549.441 290.835C549.441 283.62 539.677 279.8 530.765 284.468" fill="#02BFE1"/>
<path d="M522.701 306.539L518.455 345.587L515.909 346.436V348.558L513.363 349.831L512.09 351.528L453.094 346.011C453.094 346.011 439.511 344.314 436.965 344.314C434.418 344.314 424.657 343.04 424.657 343.04C424.657 343.04 425.93 346.86 428.053 347.286C430.174 347.71 441.21 351.528 441.21 351.528C441.21 351.528 448.425 355.348 453.094 355.348C457.762 355.348 464.978 355.774 464.978 355.774C464.978 355.774 495.961 364.262 505.723 365.959C515.486 367.658 523.55 371.478 526.946 370.204C530.339 368.931 534.585 365.535 535.858 360.866C537.131 356.198 542.649 327.336 542.649 327.336C542.649 327.336 549.441 298.051 549.441 290.835C549.441 283.62 539.677 279.8 530.765 284.468" stroke="#1A2E35" stroke-width="1.33333" stroke-miterlimit="10" stroke-linecap="round" stroke-linejoin="round"/>
<path d="M513.451 367.727L508.928 351.233L453.094 346.012C453.094 346.012 439.512 344.313 436.966 344.313C434.419 344.313 424.656 343.04 424.656 343.04C424.656 343.04 425.93 346.861 428.052 347.285C430.175 347.708 441.21 351.529 441.21 351.529C441.21 351.529 448.424 355.349 453.094 355.349C457.762 355.349 464.979 355.773 464.979 355.773C464.979 355.773 495.962 364.261 505.723 365.96C508.456 366.435 511.048 367.077 513.451 367.727Z" fill="white"/>
<path d="M513.451 367.727L508.928 351.233L453.094 346.012C453.094 346.012 439.512 344.313 436.966 344.313C434.419 344.313 424.656 343.04 424.656 343.04C424.656 343.04 425.93 346.861 428.052 347.285C430.175 347.708 441.21 351.529 441.21 351.529C441.21 351.529 448.424 355.349 453.094 355.349C457.762 355.349 464.979 355.773 464.979 355.773C464.979 355.773 495.962 364.261 505.723 365.96C508.456 366.435 511.048 367.077 513.451 367.727Z" stroke="#1A2E35" stroke-width="1.33333" stroke-miterlimit="10" stroke-linecap="round" stroke-linejoin="round"/>
<path d="M519.681 362.734L521.002 364.686" stroke="#1A2E35" stroke-width="1.33333" stroke-miterlimit="10" stroke-linecap="round" stroke-linejoin="round"/>
<path d="M512.09 351.529L518.063 360.347" stroke="#1A2E35" stroke-width="1.33333" stroke-miterlimit="10" stroke-linecap="round" stroke-linejoin="round"/>
<path d="M515.909 348.557L524.399 354.5" stroke="#1A2E35" stroke-width="1.33333" stroke-miterlimit="10" stroke-linecap="round" stroke-linejoin="round"/>
<path d="M427.246 343.667C427.246 343.667 427.835 345.827 429.995 346.023C432.155 346.219 438.438 349.752 439.026 349.752" stroke="#1A2E35" stroke-width="1.33333" stroke-miterlimit="10" stroke-linecap="round" stroke-linejoin="round"/>
<path d="M434.314 344.255C434.314 344.255 436.278 346.022 438.045 346.415C439.811 346.809 445.506 349.361 445.506 349.361" stroke="#1A2E35" stroke-width="1.33333" stroke-miterlimit="10" stroke-linecap="round" stroke-linejoin="round"/>
<path d="M464.157 347.789C464.157 347.789 455.382 344.821 454.665 345.03C453.947 345.237 451.395 345.237 448.45 344.845C445.506 344.452 443.739 347.789 446.094 348.77C448.45 349.753 450.413 349.361 451.198 349.361C451.983 349.361 454.341 350.146 454.929 350.146" fill="white"/>
<path d="M464.157 347.789C464.157 347.789 455.382 344.821 454.665 345.03C453.947 345.237 451.395 345.237 448.45 344.845C445.506 344.452 443.739 347.789 446.094 348.77C448.45 349.753 450.413 349.361 451.198 349.361C451.983 349.361 454.341 350.146 454.929 350.146" stroke="#1A2E35" stroke-width="1.33333" stroke-miterlimit="10" stroke-linecap="round" stroke-linejoin="round"/>
<path d="M395.235 338.69L477.945 347.995L477.688 345.151L394.717 336.363L395.235 338.69Z" fill="white"/>
<path d="M395.235 338.69L477.945 347.995L477.688 345.151L394.717 336.363L395.235 338.69Z" stroke="#1A2E35" stroke-width="1.33333" stroke-miterlimit="10" stroke-linecap="round" stroke-linejoin="round"/>
<path d="M394.718 336.363L378.434 293.457L424.959 297.334L440.208 341.533L394.718 336.363Z" fill="white"/>
<path d="M394.718 336.363L378.434 293.457L424.959 297.334L440.208 341.533L394.718 336.363Z" stroke="#1A2E35" stroke-width="1.33333" stroke-miterlimit="10" stroke-linecap="round" stroke-linejoin="round"/>
<path d="M440.209 341.533V343.749L477.946 347.995L477.687 345.151L440.17 341.177L440.209 341.533Z" fill="#1A2E35"/>
<path d="M440.209 341.533V343.749L477.946 347.995L477.687 345.151L440.17 341.177L440.209 341.533Z" stroke="#1A2E35" stroke-width="1.33333" stroke-miterlimit="10" stroke-linecap="round" stroke-linejoin="round"/>
</g>
</g>
<defs>
<clipPath id="clip0_8_17212">
<rect width="666.667" height="666.667" fill="white"/>
</clipPath>
</defs>
</svg>
