<?xml version="1.0" encoding="utf-8"?>
<!-- Generator: Adobe Illustrator 17.0.0, SVG Export Plug-In . SVG Version: 6.00 Build 0)  -->
<!DOCTYPE svg PUBLIC "-//W3C//DTD SVG 1.1//EN" "http://www.w3.org/Graphics/SVG/1.1/DTD/svg11.dtd">
<svg version="1.1" id="Layer_1" xmlns="http://www.w3.org/2000/svg" xmlns:xlink="http://www.w3.org/1999/xlink" x="0px" y="0px"
	 width="4000px" height="2000px" viewBox="0 0 4000 2000" enable-background="new 0 0 4000 2000" xml:space="preserve">
<path fill="#396CAA" d="M1989.911,588.237c49.753-28.574,99.534-57.097,149.25-85.735c54.753-31.54,109.439-63.197,164.17-94.774
	c9.275-5.351,18.679-10.499,24.283-20.321c2.996,2.355,1.614,4.943,1.877,7.153c0.242,2.038,0.061,4.126,0.061,6.192
	c0.001,157.833-0.003,315.667,0.019,473.5c0,5.366,0.252,10.732,0.387,16.098c-1.545,2.931-4.449,3.829-7.244,3.685
	c-13.005-0.669-24.261,6.745-36.873,7.706c-4.774-3.545-3.721-8.842-3.83-13.636c-0.236-10.314-0.036-20.636-0.086-30.954
	c-0.102-21.153-5.515-24.059-24.487-13.451c-20.531,11.48-40.957,23.151-61.321,34.919c-41.444,23.95-82.918,47.869-124.666,71.256
	c-19.977,11.191-27.66,27.431-28.416,48.379c-0.728,20.201-0.537,40.451-0.052,60.666c0.462,19.215,8.598,23.714,25.147,14.301
	c56.316-32.032,112.675-63.992,168.635-96.644c5.345-3.118,10.681-6.272,16.673-8.102c4.392-0.739,8.038,0.434,10.69,4.155
	c3.447,6.724,0.938,14.346,3.21,21.248c1.408,10.33,10.355,17.137,12.691,27.043c0.399,7.202-4.363,8.986-10.175,9.763
	c-17.062,2.281-28.191,12.245-35.873,27.131c-9.09,17.613-10.463,37.192-15.096,55.951c-1.739,7.042-0.586,15.022-6.187,20.94
	c-24.049,9.131-45.007,24.039-67.394,36.274c-24.614,13.453-48.286,28.602-73.01,41.835c-19.107,10.227-28.356,26.055-29.232,46.87
	c-0.884,21.014-0.322,42.079-0.162,63.122c0.019,2.479,0.328,4.942,0.929,7.354c2.999,12.032,8.811,14.965,19.781,8.986
	c19.921-10.857,39.428-22.461,59.142-33.693c25.449-14.499,50.839-29.103,76.311-43.558c3.95-2.242,8.447-8.313,13.799-1.492
	c2.87,24.159,2.941,48.429,0.089,72.46c-2.518,21.22-6.092,42.23-2.914,63.631c-4.338,7.464-13.041,7.762-19.574,11.614
	c-34.523,20.354-69.634,39.695-104.138,60.089c-2.49,1.472-4.823,3.286-7.487,4.374c-27.701,11.309-37.184,33.097-36.142,61.453
	c0.561,15.271,0.089,30.579,0.107,45.871c0.005,4.546-0.053,9.105,1.103,13.555c2.947,11.348,8.472,14.222,19.053,8.949
	c16.275-8.111,31.757-17.693,47.568-26.664c43.126-24.466,85.965-49.437,129.058-73.961c4.826-2.747,9.608-7.149,15.962-3.34
	c5.271,6.739,3.644,15.015,4.616,22.56c2.885,22.387,5.443,44.82,8.365,67.207c0.639,4.892,0.661,9.841-0.788,14.655
	c-6,9.375-16.674,12.066-25.329,17.659c-77.237,44.969-154.936,89.152-232.171,134.137c-6.086,3.545-12.337,9.087-20.532,4.574
	c-5.111-6.982-3.706-15.08-3.712-22.796c-0.097-120.648-0.065-241.296-0.066-361.944c-0.001-254.104-0.015-508.209,0.068-762.313
	C1986.004,604.062,1984.299,595.503,1989.911,588.237z"/>
<path fill="#D4ECFF" d="M1372.627,390.308c-0.448-40.676-0.095-81.346-0.209-124.615c6.488,7.575,11.888,12.267,18.361,15.663
	c6.192,3.249,12.189,6.87,18.258,10.352c22.131,12.695,44.224,25.456,66.396,38.079c14.309,8.147,28.787,16,43.088,24.161
	c14.292,8.156,28.435,16.572,42.687,24.799c8.201,4.734,16.693,8.92,24.892,13.701c25.956,15.134,52.316,29.574,78.401,44.492
	c25.718,14.708,51.233,29.77,76.945,44.488c20.364,11.657,40.953,22.917,61.327,34.557c20.005,11.43,39.791,23.243,59.808,34.651
	c15.737,8.97,31.698,17.546,47.52,26.367c6.791,3.786,13.18,8.321,20.619,10.875c0.86,4.496,0.74,9.042,0.74,13.587
	c-0.024,379.232-0.007,758.464-0.013,1137.696c0,1.654,0.002-0.414,0,1.239c-0.038,25.212-1.83,26.441-23.237,14.167
	c-115.389-66.162-231.284-131.436-346.582-197.756c-4.949-2.846-10.57-4.966-13.385-10.546c-0.421-6.652,5.324-6.75,9.195-7.674
	c38.486-9.188,74.373-24.298,107.364-46.202c6.31-1.474,11.175,2.017,16.12,4.91c59.188,34.628,118.741,68.625,178.136,102.894
	c16.584,9.568,23.309,5.77,23.519-13.671c0.233-21.484,0.459-42.981-0.066-64.455c-0.485-19.857-8.235-35.131-26.868-45.296
	c-32.988-17.997-65.146-37.517-97.676-56.355c-5.267-3.05-11.345-5.271-14.699-10.995c-1.412-4.338,0.43-8.112,2.306-11.745
	c15.156-29.347,26.151-60.216,34.014-92.249c0.587-2.394,1.452-4.711,2.855-6.789c0.825-1.106,1.924-1.742,3.287-1.935
	c2.001,0.017,3.867,0.586,5.682,1.361c23.521,12.757,46.123,27.144,69.712,39.797c14.519,7.788,20.977,4.406,21.297-11.836
	c0.463-23.467,0.783-46.967-0.115-70.414c-0.668-17.43-8.009-31.508-24.127-40.415c-18.375-10.155-36.373-20.997-54.469-31.653
	c-5.375-3.165-10.598-6.495-12.437-13.08c-2.388-39.476-0.862-78.961-0.805-118.435c0.006-4.093,0.787-8.269,4.766-10.789
	c5.913-2.101,10.316,1.556,14.854,4.198c16.398,9.545,32.714,19.249,49.421,28.231c16.417,8.827,22.771,4.954,22.95-13.593
	c0.208-21.45,0.122-42.903,0.02-64.354c-0.097-20.347-8.775-35.523-26.886-45.338c-17.407-9.433-34.164-20.017-51.468-29.64
	c-5.476-3.045-10.745-6.27-12.756-12.799c-2.705-35.031-0.586-70.102-1.181-105.144c-0.126-7.396-0.693-14.866,1.151-22.155
	c4.786-9.405,10.817-3.034,15.354-0.38c17.093,10,34.391,19.644,51.459,29.686c16.201,9.532,24.118,5.315,24.372-13.224
	c0.295-21.453,0.208-42.913,0.028-64.369c-0.17-20.216-8.635-35.023-26.827-45.279c-54.613-30.788-108.441-62.956-163.103-93.655
	c-19.471-10.664-37.983-22.855-56.196-35.525c-73.043-52.463-147.727-102.348-226.492-145.964
	C1397.385,404.987,1383.822,399.641,1372.627,390.308z"/>
<path fill="#CDF2F9" d="M1456.981,1595.42c-5.069,2.753-10.234,5.343-15.192,8.283c-34.154,20.256-70.988,32.74-110.117,39.188
	c-30.324,4.997-60.777,5.315-91.351,4.884c-6.819-0.096-11.529-2.431-16.028-7.388c-26.375-29.065-51.617-59.077-75.97-89.844
	c-43.884-55.442-83.942-113.525-119.627-174.567c-44.08-75.404-80.967-154.144-108.643-237.083
	c-16.482-49.393-29.572-99.668-37.865-151.084c-3.015-18.693-6.506-37.427-6.214-56.525c-1.433-3.589-0.796-7.348-0.796-11.027
	c-0.033-185.357-0.033-370.714-0.021-556.07c0.001-14.407,2.725-16.503,15.843-10.426c89.496,41.457,180.615,79.412,268.529,124.238
	c49.163,27.465,98.5,54.679,146.135,84.85c65.208,40.847,126.782,86.965,190.13,130.499c27.249,18.726,53.844,38.405,81.289,56.832
	c10.348,6.948,14.809,15.136,14.791,27.686c-0.254,178.156,1.266,356.329-0.795,534.461c-1.01,87.355-24.588,168.995-81.794,238.149
	c-8.718,10.539-19.798,18.769-27.728,29.938C1475.871,1589.494,1466.624,1592.782,1456.981,1595.42z"/>
<path fill="#D4ECFF" d="M1744.44,45.533c17.634-3.257,32.407,5.377,47.203,13.73c15.065,8.505,30.013,17.219,45.005,25.853
	c14.635,8.429,29.255,16.884,43.895,25.308c7.5,4.316,14.912,8.805,22.565,12.833c16.421,8.641,32.428,17.971,48.233,27.685
	c8.068,4.959,16.606,9.146,24.838,13.845c22.541,12.866,45,25.876,67.556,38.714c14.325,8.154,28.824,16.002,43.139,24.173
	c14.309,8.167,28.437,16.65,42.735,24.837c13.947,7.986,28.045,15.706,42.008,23.666c14.671,8.364,29.25,16.889,43.886,25.315
	c7.5,4.318,14.934,8.765,22.575,12.821c18.208,9.664,36.029,19.989,53.714,30.57c7.424,4.442,15.159,8.36,22.636,12.717
	c11.888,6.928,12.302,11.211,1.805,19.789c-3.491,2.853-7.343,5.337-11.264,7.582c-24.672,14.124-49.473,28.023-74.105,42.216
	c-18.198,10.485-36.132,21.428-54.315,31.937c-18.906,10.927-38.039,21.462-56.948,32.385
	c-18.187,10.506-36.143,21.411-54.333,31.912c-14.275,8.241-28.765,16.108-43.132,24.19c-5.385,3.029-10.81,6.011-16.014,9.332
	c-17.293,11.038-36.286,15.302-56.538,14c-6.949-0.447-13.888-2.037-20.144-5.356c-11.29-5.99-22.539-12.068-33.655-18.374
	c-14.329-8.128-28.495-16.543-42.761-24.783c-15.694-9.065-31.392-18.123-47.142-27.09c-13.966-7.952-28.03-15.731-42.005-23.666
	c-16.478-9.357-32.895-18.82-49.359-28.201c-13.606-7.752-27.264-15.412-40.858-23.184c-15.376-8.79-30.686-17.695-46.063-26.484
	c-13.595-7.77-27.265-15.407-40.859-23.177c-15.376-8.789-30.684-17.697-46.06-26.485c-13.595-7.771-27.265-15.408-40.86-23.179
	c-15.374-8.788-30.674-17.706-46.059-26.473c-8.594-4.897-17.315-9.572-25.948-14.402c-14.026-7.847-28.026-15.74-42.04-23.609
	c-0.719-0.404-1.505-0.701-2.191-1.152c-7.55-4.958-7.964-9.612-0.813-15.605c4.075-3.415,8.623-6.383,13.285-8.961
	c26.686-14.754,53.021-30.1,79.198-45.737c14.147-8.451,28.768-16.105,43.085-24.276c12.163-6.942,24.182-14.138,36.292-21.173
	c13.178-7.654,26.39-15.25,39.585-22.875c12.129-7.009,24.27-13.997,36.378-21.041c7.831-4.556,15.597-9.221,23.419-13.792
	c14.938-8.729,29.784-17.622,44.876-26.075C1712.816,47.988,1727.659,43.389,1744.44,45.533z"/>
<path fill="#B2D3EA" d="M1456.981,1595.42c6.832-5.806,15.875-8.181,22.411-14.445c3.821-6.316,10.241-9.479,16.389-12.553
	c16.468-8.233,30.504-20.753,48.047-27.056c1.964,0.07,3.687,0.635,4.841,2.361c1.073,1.233,1.915,2.867,3.255,3.635
	c13.583,7.786,27.278,15.375,40.879,23.13c15.026,8.568,29.963,17.292,44.982,25.873c13.952,7.972,27.985,15.8,41.935,23.775
	c15.017,8.584,29.95,17.314,44.974,25.885c8.948,5.105,18.047,9.945,26.998,15.046c16.101,9.177,32.108,18.52,48.218,27.682
	c13.966,7.942,28.066,15.65,42.022,23.609c14.668,8.365,29.214,16.943,43.852,25.36c12.496,7.185,25.033,14.299,37.602,21.354
	c0.954,0.536,2.312,0.352,4.185,0.593c0.1-4.777,0.274-9.225,0.274-13.674c0.015-132.226,0.012-264.451,0.012-396.677
	c0-247.923,0-495.846,0.005-743.769c0-4.131,0.035-8.262,0.111-12.392c0.04-2.182,0.986-3.954,2.746-5.275
	c2.616,0.505,5.496,0.339,7.316,2.87c-2.99,7.414-3.573,15.153-3.572,23.075c0.045,375.196,0.028,750.392,0.062,1125.588
	c0.002,20.57,2.81,23.094,23.776,23.134c12.316,0.023,24.254-3.691,36.576-3.436c16.916-7.781,32.384-18.149,48.536-27.288
	c29.81-16.867,59.353-34.205,89.012-51.338c29.302-16.928,58.606-33.852,87.917-50.764c6.762-3.902,13.556-7.749,20.334-11.622
	c10.583,7.268,23.375,11.136,32.31,20.986c5.405,14.318,5.442,29.498,7.123,44.406c0.277,2.456-0.601,4.832-2.872,6.357
	c-29.192,17.031-58.335,34.146-87.591,51.067c-24.622,14.241-49.414,28.19-74.06,42.39c-23.927,13.786-47.75,27.752-71.645,41.593
	c-16.763,9.709-33.587,19.312-50.351,29.019c-14.654,8.485-30.507,12.509-47.319,11.609c-9.834-0.526-19.367-2.866-28.199-7.974
	c-26.764-15.478-53.773-30.532-80.611-45.883c-31.485-18.009-62.844-36.239-94.347-54.217
	c-21.482-12.259-43.166-24.162-64.668-36.385c-20.426-11.61-40.709-23.471-61.099-35.144c-19.32-11.06-38.714-21.989-58.044-33.031
	c-21.116-12.062-42.036-24.478-63.35-36.179C1482.976,1609.594,1470.7,1601.176,1456.981,1595.42z"/>
<path fill="#5793CE" d="M1994.875,1759.114c-6.264,4.432-13.856,5.221-20.948,6.403c-12.611,2.101-25.443,2.488-37.983-1.5
	c-3.638-1.157-5.549-3.391-5.7-7.119c-0.117-2.889-0.102-5.785-0.102-8.678c-0.004-381.12-0.004-762.239-0.003-1143.358
	c0-2.48-0.058-4.964,0.05-7.44c0.238-5.452,0.274-5.451,7.844-6.67c15.432,3.833,30.697,2.856,45.869-1.507
	c1.939-0.558,4.002-0.683,6.009-1.009c0.044,6.196,0.126,12.392,0.126,18.587c0.006,378.399,0.005,756.798,0.01,1135.197
	c0,4.13,0.055,8.259,0.12,12.388C1990.215,1757.473,1992.205,1758.647,1994.875,1759.114z"/>
<linearGradient id="SVGID_1_" gradientUnits="userSpaceOnUse" x1="2203.74" y1="1231.3164" x2="2434.8779" y2="1231.3164">
	<stop  offset="0" style="stop-color:#271887"/>
	<stop  offset="1" style="stop-color:#02BFE1"/>
</linearGradient>
<path fill="url(#SVGID_1_)" d="M2211.441,1134.144c1.387-6.748,2.772-13.496,4.162-20.244c2.552-12.393,4.992-24.812,7.698-37.171
	c2.121-9.687,5.972-18.756,11.434-27.012c8.806-13.311,20.477-22.08,37.198-22.549c4.481-0.126,4.473-0.405,5.862-7.323
	c13.478,5.255,25.993,12.285,37.849,20.537c-0.629,4.588-4.637,6.615-7.354,9.602c-10.589,11.646-10.407,26.451,0.781,37.594
	c12.855,12.802,28.7,16.07,45.777,12.304c15.628-3.447,22.966-13.136,23.847-28.883c0.184-3.295,0.068-6.621,1.395-9.74
	c3.747-4.268,9.018-3.302,13.816-3.982c0.202,4.3,1.632,7.384,6.216,9.061c11.748,4.3,23.691,8.234,34.374,15.004
	c1.208,3.644-0.667,6.493-2.739,9.013c-9.198,11.185-11.148,24.532-11.417,38.282c-0.338,17.278,0.044,34.505,2.034,51.752
	c1.314,11.383,1.063,23.046-2.106,34.342c-9.647,32.171-2.883,64.6-1.009,96.848c1.31,22.543,3.474,45.08,5.83,67.571
	c0.906,8.648-0.229,17.266-2.987,25.58c-10.69,23.964-31.988,31.681-55.443,36.135c-47.136,8.951-98.908-14.027-122.381-54.331
	c-1.388-3.079-2.312-6.324-3.415-9.517c-0.45-1.323-0.732-2.675-0.918-4.055c-1.921-32.261,5.504-63.727,8.177-95.599
	c1.644-19.598,5.121-39.018,6.177-58.672c0.204-3.797,1.965-8.245-1.963-11.443c-15.259,3.139-29.78,1.598-43.353-6.424
	C2201.434,1178.288,2201.852,1156.045,2211.441,1134.144z"/>
<linearGradient id="SVGID_2_" gradientUnits="userSpaceOnUse" x1="217.0591" y1="509.0536" x2="727.4958" y2="509.0536">
	<stop  offset="0" style="stop-color:#271887"/>
	<stop  offset="1" style="stop-color:#02BFE1"/>
</linearGradient>
<path fill="url(#SVGID_2_)" d="M218.73,479.327c2.711-9.37,10.34-13.933,18.031-18.426c25.321-14.792,50.637-29.594,75.974-44.359
	c38.722-22.567,77.513-45.017,116.161-67.71c12.131-7.123,24.758-11.959,38.972-12.833c15.979-0.982,30.423,2.46,44.359,10.654
	c65.82,38.701,131.895,76.969,197.871,115.406c2.865,1.669,5.771,3.313,8.442,5.263c5.156,3.764,8.776,8.869,8.871,15.277
	c0.236,16.024-0.065,32.057-0.27,48.085c-0.012,0.933-1.096,1.853-1.68,2.779c-7.759-9.249-3.221-20.082-4.232-30.213
	c-67.726,42.175-138.105,80.432-206.849,121.48c-5.218,3.116-11.09,5.406-15.128,10.048c-7.849,9.024-17.58,12.83-29.392,12.565
	c-4.791-0.107-11.251-0.544-11.663,6.232c-0.472,7.751,6.327,7.889,11.818,8.302c9.555,0.719,19.105,1.176,23.011,12.349
	c-10.171,11.473-24.282,8.068-35.269,5.512c-27.345-6.359-51.159-20.883-71.773-40.22c-15.627-9.399-31.163-18.953-46.9-28.163
	c-29.629-17.34-59.389-34.456-89.045-51.75c-2.829-1.65-5.305-3.907-7.944-5.883c-3.046-4.188-4.375-8.97-4.115-14.037
	c0.764-14.89-0.907-27.952-15.409-37.307C215.096,497.557,216.759,487.626,218.73,479.327z"/>
<path fill="#FDD762" d="M2245.782,1384.153c19.897,31.801,49.16,49.031,85.743,54.188c17.293,2.438,34.523,0.924,51.276-4.492
	c15.39-4.976,28.302-13.152,36.189-27.863c9.211,13.291,5.953,28.219,5.643,42.753c-1.619,7.742-8.161,10.643-14.038,14.236
	c-13.491,8.25-27.973,14.894-40.379,24.907c-3.006,5.051-4.566,10.371-4.557,16.358c0.056,34.937-0.021,69.874,0.073,104.811
	c0.011,4.093-0.4,8.334,3.37,11.283c5.473,4.682,10.226,1.315,15.59-0.792c9.073-3.564,15.485-13.514,26.927-11.317
	c0.003,11.082,0.368,22.183-1.779,33.152c-0.157,0.801-0.16,1.635-0.201,2.455c-0.962,19.261-1.932,38.522-2.873,57.785
	c-1.001,20.494-1.971,40.99-2.96,61.485c-0.295,6.109-2.705,12.096-1.063,18.318c5.775,17.878,2.129,35.558-1.542,53.114
	c-1.139,5.448-5.947,8.597-11.02,10.782c-14.782,3.314-29.109,2.131-42.885-4.453c-8.12-5.213-11.696-13.15-13.336-22.264
	c-5.085-106.026-12.544-211.94-15.3-313.558c-1.15,19.351,1.275,43.164,2.951,66.914c1.104,15.64,1.219,31.327,1.464,46.892
	c0.396,25.134,4.271,50.079,3.101,75.251c-1.629,35.082,3.415,70.019,2.559,105.092c-0.141,5.756,0.406,11.579-1.567,17.162
	c-3.394,6.207-8.824,5.342-13.965,3.406c-9.322-3.51-18.248-7.807-23.089-17.386c-3.662-9.257-4.565-18.72-1.964-28.422
	c-0.135-13.591-2.769-26.904-4.492-40.318c-0.992-7.724-2.511-15.397-3.137-23.146c-0.565-6.995-1.619-13.849-3.285-20.636
	c1.103-7.902-1.701-15.443-2.534-23.142c-1.05-9.706-1.353-19.666-4.564-29.083c-5.418-10.596-6.826-21.757-4.717-33.416
	c1.031-12.783-2.26-25.189-3.442-37.774c-1.869-19.921-4.541-39.766-6.867-59.644c-0.329-2.81,0.014-5.773-1.928-8.202
	c-2.11-2.132-3.321-4.715-3.624-7.673c-3.356-32.757-7.165-65.48-7.635-98.471
	C2242.442,1389.322,2242.935,1386.186,2245.782,1384.153z"/>
<path fill="#B2D3EA" d="M2337.503,1821.532c1.76,6.256,4.807,11.731,9.74,16.064c3.147,6.484-0.935,12.016-2.686,17.671
	c-5.452,17.61-5.946,34.751,2.927,51.482c5.928,11.179,12.371,12.406,21.044,3.453c11.346-11.711,17.42-25.742,17.517-42.209
	c0.051-8.597-0.667-17.324,3.676-25.306c6.693-3.413,9.344-8.499,10.268-16.349c1.762-14.967,0.652-30.033,2.753-44.919
	c14.571,4.633,28.595,10.417,41.527,18.728c12.256,7.876,23.303,16.886,31.048,29.517c13.194,21.52,11.584,50.796-7.353,70.746
	c-18.792,19.797-41.721,32.054-67.417,39.424c-14.157,4.06-28.665,6.724-43.463,8.426c-12.785,1.471-25.512,2.449-38.172,1.572
	c-34.271-2.374-67.624-8.647-98.209-25.68c-14.01-7.802-25.18-18.724-35.093-30.821c-6.562-8.007-10.063-17.934-9.777-28.714
	c0.022-0.825,0.045-1.655-0.021-2.475c-1.462-18.207,6.143-32.699,18.347-45.43c12.221-12.749,27.074-21.551,43.091-28.342
	c16.313-6.916,33.376-11.573,50.901-14.42c2.33,2.715,1.625,6.088,2.004,9.225c0.719,5.965,1.434,11.93,2.151,17.896
	c-3.849,8.109-11.794,12.374-17.66,18.586c-7.431,7.87-13.716,16.365-18.179,26.182c-2.045,4.498-4.519,9.543-0.976,13.976
	c3.551,4.442,9.071,2.852,13.896,2.18c21.858-3.046,38.528-15.454,53.996-30.047c3.885-3.665,6.792-8.258,11.119-11.494
	C2335.772,1820.059,2336.773,1820.422,2337.503,1821.532z"/>
<path fill="#B2D3EA" d="M385.981,639.517c17.147,9.687,34.339,19.293,51.428,29.082c17.719,10.15,36.118,10.991,55.156,4.514
	c0.662-1.118,1.584-1.961,2.711-2.587c1.655-0.828,3.391-1.485,5.101-2.17c1.055-0.509,2.153-0.948,3.241-1.38
	c1.539-0.713,3.086-1.428,4.589-2.219c0.941-0.566,1.931-1.051,2.919-1.521c0.913-0.573,1.842-1.129,2.733-1.739
	c-0.026-0.037,1.294-0.975,1.271-1.007c0.799-0.744,1.678-1.376,2.598-1.951c0.895-0.613,1.862-1.092,2.863-1.492
	c1.434-0.701,2.869-1.408,4.282-2.161c0.924-0.543,1.897-0.981,2.887-1.379c1.448-0.715,2.872-1.472,4.29-2.262
	c0.963-0.576,1.947-1.09,2.937-1.621c0.966-0.679,1.932-1.326,2.884-2.045c0.475-0.421,0.955-0.785,1.429-1.197
	c1.534-1.316,3.166-2.448,4.923-3.44c4.641-1.938,8.841-5.765,14.466-3.337c8.159,8.594,19.13,13.046,28.982,18.984
	c25.095,15.123,50.781,29.263,76.199,43.853c4.313,2.476,8.688,4.937,12.648,7.918c8.722,6.567,9.807,14.456,3.237,22.837
	c-3.074,3.922-6.8,7.185-11.215,9.735c-28.249,16.315-56.459,32.698-84.622,49.161c-21.477,12.554-42.856,25.274-64.3,37.885
	c-3.813,2.242-7.952,3.992-11.556,6.519c-14.575,10.22-31.006,10.582-47.806,9.644c-4.603-0.257-8.687-1.778-12.566-3.893
	c-9.224-5.029-18.362-10.217-27.473-15.448c-31.168-17.895-62.343-35.778-93.449-53.781c-18.661-10.8-37.249-21.729-55.772-32.764
	c-10.881-6.482-12.342-18.67-3.256-27.708c3.087-3.072,6.812-5.634,10.578-7.87c23.768-14.111,47.717-27.917,71.423-42.131
	C362.012,655.188,375.286,649.366,385.981,639.517z"/>
<linearGradient id="SVGID_3_" gradientUnits="userSpaceOnUse" x1="874.7081" y1="617.4655" x2="1239.9128" y2="617.4655">
	<stop  offset="0" style="stop-color:#271887"/>
	<stop  offset="1" style="stop-color:#02BFE1"/>
</linearGradient>
<path fill="url(#SVGID_3_)" d="M1162.743,481.728c-3.052,0.083-5.545-1.533-8.115-2.795c-7.414-3.643-14.784-7.377-22.151-11.115
	c-22.814-11.574-45.986-22.366-69.518-32.416c-12.132-5.181-23.939-11.116-35.971-16.537c-22.166-9.987-44.393-19.84-66.586-29.769
	c-2.261-1.012-4.446-2.195-6.696-3.234c-22.463-10.369-44.931-20.726-67.402-31.077c-1.123-0.517-2.258-1.043-3.437-1.4
	c-2.512-0.761-4.907,0.945-5.098,3.805c-0.219,3.293-0.226,6.604-0.226,9.908c0.027,184.763,0.066,369.526,0.081,554.288
	c0,3.298-0.267,6.595-0.411,9.895c-2.194-2.858-1.84-6.261-1.919-9.524c-0.209-8.674-0.406-17.351-0.408-26.027
	c-0.023-176.851-0.051-353.702,0.041-530.554c0.008-15.822-3.06-13.337,13.434-22.804c20.771-11.922,41.46-23.997,61.932-36.422
	c4.919-2.985,8.811-2.928,13.801-0.63c23.999,11.052,48.148,21.78,72.223,32.669c42.507,19.225,85.074,38.322,127.467,57.796
	c21.385,9.823,42.48,20.28,63.62,30.626c4.384,2.145,9.05,4.02,12.459,7.799c0.66,7.09-5.59,8.332-9.746,10.845
	c-20.428,12.356-41.25,24.044-62.1,35.683c-1.106,0.5-2.268,0.792-3.474,0.906C1163.946,481.677,1163.344,481.703,1162.743,481.728z
	"/>
<linearGradient id="SVGID_4_" gradientUnits="userSpaceOnUse" x1="2365.7861" y1="1512.3615" x2="2537.7683" y2="1512.3615">
	<stop  offset="0" style="stop-color:#271887"/>
	<stop  offset="1" style="stop-color:#02BFE1"/>
</linearGradient>
<path fill="url(#SVGID_4_)" d="M2411.619,1608.224c-10.932,4.561-20.58,11.443-30.871,17.162c-4.071,2.262-7.569,2.763-11.04-0.728
	c-4.077-4.824-3.906-10.642-3.904-16.446c0.011-32.594,0.039-65.188-0.018-97.781c-0.015-8.446,0.873-16.505,6.877-23.082
	c23.618-16.341,49.126-29.565,73.99-43.868c3.278-1.886,7.057-2.267,10.408,0.449c4.917,8.697,0.894,18.494,3.927,29.783
	c4.689-8.321,6.612-15.523,6.873-23.384c0.202-6.071-0.65-12.255,1.629-18.162c15.454-13.882,35.093-21.055,52.103-32.456
	c4.414-2.959,9.297-2.763,13.999-0.177c1.953,2.916,1.862,6.22,1.868,9.529c0.064,36.669,0.016,73.34,0.307,110.007
	c0.083,10.518-3.726,17.744-13.148,23.082c-34.399,19.488-68.511,39.481-102.7,59.339
	C2418.378,1603.55,2415.047,1605.971,2411.619,1608.224z"/>
<linearGradient id="SVGID_5_" gradientUnits="userSpaceOnUse" x1="1161.5037" y1="499.1397" x2="1382.9155" y2="499.1397">
	<stop  offset="0" style="stop-color:#271887"/>
	<stop  offset="1" style="stop-color:#02BFE1"/>
</linearGradient>
<path fill="url(#SVGID_5_)" d="M1164.077,479.318c9.552-5.614,19.068-11.289,28.664-16.828c12.445-7.183,25.046-14.1,37.366-21.488
	c3.043-1.825,6.803-3.138,8.517-6.79c4.284,0.333,7.655,2.858,11.279,4.746c38.338,19.964,75.704,41.631,112.544,64.221
	c3.141,1.926,6.434,3.606,9.656,5.4c5.927-0.573,9.563,2.002,10.812,7.861c-5.954,7.172-14.316,10.898-22.13,15.418
	c-16.058,9.289-32.181,18.468-47.96,28.235c-3.032,1.877-5.667,5.112-9.96,3.571c-6.265-1.15-11.228-5.168-16.169-8.518
	c-21.774-14.769-45.198-26.746-67.488-40.632c-11.832-7.371-24.479-13.454-36.882-19.879c-7.289-3.775-14.28-7.959-20.822-12.906
	c-0.001,0,0.038,0.005,0.038,0.005C1162.554,481.105,1163.253,480.146,1164.077,479.318z"/>
<linearGradient id="SVGID_6_" gradientUnits="userSpaceOnUse" x1="2242.5891" y1="976.0041" x2="2399.6301" y2="976.0041">
	<stop  offset="0" style="stop-color:#271887"/>
	<stop  offset="1" style="stop-color:#02BFE1"/>
</linearGradient>
<path fill="url(#SVGID_6_)" d="M2393.908,1057.276c-3.076,6.08-7.792,4.63-12.604,2.747c-9.426-5.661-16.489-14.413-26.058-19.899
	c-5.511-9.7-5.321-20.529-5.822-31.137c-0.256-5.411,3.226-9.101,7.709-11.877c4.708-2.917,8.967-6.335,7.979-12.737
	c-0.929-6.02-5.808-7.456-10.782-8.608c-2.865-0.663-5.746-1.635-7.56-3.951c-5.091-6.498-11.187-5.853-17.76-2.971
	c-15.188,4.799-30.765,7.475-46.599,8.669c-6.995,0.528-13.803-0.204-19.767-4.459c-2.823-1.747-5.83-2.937-9.195-3.048
	c-9.171-2.146-10.597-9.599-10.846-17.07c-0.61-18.351,19.216-46.905,42.796-52.34c3.343-1.474,6.631-3.088,10.038-4.394
	c9.152-3.507,18.5-6.023,28.465-5.371c2.002,0.131,4.04-0.3,6.058-0.476c5.738,0.624,11.469,1.043,17.137,2.48
	c21.173,5.367,35.745,18.361,44.329,38.135c5.31,12.232,8.264,25.119,8.202,38.53c-0.036,7.847-0.247,15.71-0.802,23.536
	C2397.307,1014.456,2395.563,1035.863,2393.908,1057.276z"/>
<path fill="#7594BC" d="M1382.319,516.498c-3.406-2.639-6.812-5.279-10.217-7.919c0.175-4.922,0.493-9.843,0.499-14.764
	c0.044-34.503,0.024-69.005,0.025-103.507c4.447-0.357,7.797,2.338,11.401,4.207c28.16,14.602,55.578,30.526,82.807,46.773
	c41.754,24.914,82.258,51.76,122.26,79.37c15.249,10.525,30.396,21.198,45.537,31.879c1.289,0.91,2.178,2.388,3.253,3.602
	c-5.342,3.601-9.416-0.207-13.532-2.556c-49.392-28.199-98.591-56.733-147.835-85.189c-1.432-0.827,0.413,0.105-1.067-0.622
	c-6.093-2.994-11.723-9.164-19.251-5.034c-7.507,4.118-5.995,12.02-6.045,18.886c-0.143,19.785-0.006,39.572-0.08,59.358
	c-0.018,4.908,0.546,9.937-1.922,14.54c-2.745,3.211-6.043,2.362-8.844,0.56c-18.559-11.937-37.193-23.765-55.304-36.383
	C1383.022,519.014,1382.653,517.69,1382.319,516.498z"/>
<linearGradient id="SVGID_7_" gradientUnits="userSpaceOnUse" x1="2416.4075" y1="1182.5934" x2="2479.3472" y2="1182.5934">
	<stop  offset="0" style="stop-color:#271887"/>
	<stop  offset="1" style="stop-color:#02BFE1"/>
</linearGradient>
<path fill="url(#SVGID_7_)" d="M2416.841,1213.847c3.213-15.002,3.582-30.006,0.344-45.078c-0.596-2.775-0.449-5.731-0.468-8.606
	c-0.067-9.876,0.421-19.784-0.218-29.62c-0.572-8.803,1.649-17.138,3.074-25.564c0.943-5.576,3.873-10.804,7.86-15.148
	c2.492-2.715,5.511-4.991,7.063-8.489c8.364,2.155,12.772,8.663,16.795,15.476c7.207,12.205,11.552,25.578,14.588,39.273
	c5.438,24.528,9.293,49.368,12.226,74.308c1.638,13.923,1.4,28.011,0.74,42.043c-0.36,7.654-3.035,14.447-7.636,20.522
	c-13.231,11.94-29.79,14.222-43.464,6.008c-10.463-18.101-9.367-38.236-10.074-58.043
	C2417.584,1218.526,2418.29,1216.077,2416.841,1213.847z"/>
<path fill="#CDF2F9" d="M528.973,655.566c-0.766,0.714-1.672,1.082-2.718,1.103c-1.6,0.412-2.768,1.499-3.967,2.537
	c-0.612,0.655-1.365,0.976-2.262,0.963c-1.976,0.151-3.274,1.369-4.428,2.814l-0.063,0.041c-0.955,0.939-2.021,1.727-3.201,2.361
	c-0.836,0.761-1.819,1.152-2.95,1.172c-1.268,0.739-2.513,1.517-3.729,2.339c-0.91,0.691-1.935,1.005-3.076,0.944
	c-2.059,1.584-4.943,0.99-6.976,2.641c-0.939,0.569-1.952,0.779-3.039,0.631c-5.685,0.465-7.585-6.511-12.981-6.611
	c-4.983-0.093-9.973-0.034-14.947-0.292c-10.607-0.55-16.069-10.365-11.159-20.035c1.081-2.13,3.269-2.924,5.547-2.995
	c4.982-0.156,9.975-0.342,14.953-0.182c8.283,0.268,15.212-1.804,19.867-9.377c2.029-3.301,5.279-5.502,8.722-7.493
	c26.767-15.475,53.408-31.169,80.177-46.642c17.215-9.95,34.616-19.58,51.87-29.464c21.56-12.349,43.185-24.593,64.511-37.336
	c8.358-4.994,15.981-11.219,25.189-17.774c1.752,13.562,0.069,26.137,1.146,38.551c-0.356,1.018-0.713,2.037-1.07,3.056
	c-0.623,1.213-1.441,2.275-2.458,3.185l-0.055,0.072c-1.113,1.096-2.271,2.15-3.189,3.429l0.022-0.021
	c-1.186,0.996-2.344,2.022-3.476,3.08l-0.158,0.106c-0.807,1.074-1.825,1.882-3.054,2.424c-0.653,0.931-1.546,1.365-2.682,1.302
	c-1.555,0.444-2.701,1.557-3.989,2.437c-0.509,0.811-1.24,1.172-2.193,1.081c-1.967,0.146-3.269,1.4-4.533,2.719l-0.113,0.062
	c-0.822,1.03-1.857,1.754-3.107,2.17c-1.003,0.462-2.006,0.924-3.008,1.386c-1.216,0.815-2.444,1.611-3.686,2.386
	c-27.206,16.065-54.438,32.087-81.609,48.211c-16.185,9.604-32.276,19.366-48.41,29.057c-5.194,2.388-10.388,4.776-15.581,7.163
	c-1.784,0.309-3.028,1.499-4.3,2.642l-0.278,0.169c-0.715,1.076-1.687,1.831-2.88,2.313c-1.042,0.426-2.085,0.853-3.127,1.28
	C531.35,653.983,530.165,654.781,528.973,655.566z"/>
<path fill="#FFC2B0" d="M2429.586,1277.619c7.909,5.115,16.266,3.734,24.517,1.356c5.798-1.671,11.41-3.984,17.106-6.011
	c-0.063,13.621,0.917,27.347-0.428,40.841c-2.133,21.398-1.885,42.797-2.344,64.209c-0.043,2.041-0.511,4.076-0.838,6.105
	c-0.327,2.029-1.02,4.043-1.044,6.069c-0.14,11.547,1.698,22.844,4.639,33.982c2.346,2.503,1.51,5.201,0.484,7.91
	c0.011,5.361,0.127,10.723,0.012,16.081c-0.226,10.518-3.068,20.333-8.434,29.375c-0.557,0.939-1.802,1.88-2.844,2.034
	c-2.136,0.316-2.629-1.778-2.876-3.177c-0.572-3.226-0.81-6.525-0.988-9.805c-0.4-7.412-0.682-14.831-1.012-22.246
	c-3.645-4.775-7.665-3.042-11.969-0.953c-3.95,1.917-8.011,2.925-9.728-3.041c-0.948-3.692-1.062-7.458-0.251-11.078
	c7.202-32.147,1.31-63.991-2.006-95.906c-1.533-14.758-3.229-29.5-4.438-44.29
	C2426.813,1285.05,2425.675,1280.774,2429.586,1277.619z"/>
<path fill="#CDF2F9" d="M218.73,479.327c0.088,0.54,0.295,1.09,0.247,1.617c-1.051,11.672,3.063,20.232,14.541,24.486
	c7.208,2.672,9.564,8.028,9.193,15.506c-0.541,10.911-0.444,21.853-0.62,32.783c-3.531-1.522-7.209-2.777-10.565-4.619
	c-10.041-5.512-15.362-13.759-15.108-25.613c0.26-12.169-0.153-24.351-0.248-36.528C216.15,484.138,216.672,481.466,218.73,479.327z
	"/>
<path fill="#CDF2F9" d="M2471.675,1432.08c-0.161-2.636-0.322-5.272-0.483-7.909c12.783-7.376,25.565-14.75,38.347-22.126
	c2.842-1.64,5.726-3.211,8.51-4.945c6.555-4.085,12.349-3.084,17.543,2.434c-5.301-1.42-9.519,1.1-13.836,3.612
	C2505.093,1412.843,2488.374,1422.444,2471.675,1432.08z"/>
<path fill="#173D7A" d="M2285.265,626.554c0,11.985-0.255,23.978,0.059,35.955c0.487,18.547-8.625,31.49-23.791,40.463
	c-26.606,15.741-53.461,31.065-80.301,46.409c-26.129,14.938-52.379,29.665-78.557,44.518
	c-12.909,7.324-25.772,14.731-38.666,22.081c-1.773,1.011-3.506,2.31-5.43,2.801c-8.703,2.219-13.843-0.979-16.951-9.849
	c-1.394-3.977-1.933-7.959-1.921-12.136c0.061-20.664-0.253-41.334,0.128-61.992c0.246-13.365,3.328-26.017,11.852-36.973
	c2.873-3.692,5.97-6.649,10.001-8.951c27.922-15.947,55.796-31.979,83.658-48.03c25.718-14.817,51.383-29.724,77.108-44.527
	c12.149-6.991,24.374-13.851,36.589-20.726c4.311-2.426,8.559-4.854,13.863-4.697c7.447,0.222,11.658,3.681,12.208,11.025
	c0.308,4.112,0.152,8.261,0.158,12.394c0.015,10.746,0.005,21.491,0.005,32.237C2285.275,626.554,2285.27,626.554,2285.265,626.554z
	"/>
<path fill="#173D7A" d="M2285.399,900.593c-6.377,4.384-12.296,9.426-18.562,13.884c-10.277,7.312-15.563,17.618-19.796,28.701
	c-3.878,10.152-1.147,19.174,6.402,26.826c-6.531,5.823-14.674,9.056-22.08,13.438c-26.238,15.526-52.697,30.68-79.158,45.825
	c-20.388,11.669-40.927,23.073-61.352,34.679c-8.238,4.681-16.362,9.564-24.516,14.391c-3.964,2.347-8.028,3.968-12.822,3.839
	c-5.721-0.154-9.417-2.83-11.188-8.038c-1.453-4.271-2.695-8.569-2.659-13.26c0.164-21.48-0.286-42.971,0.239-64.439
	c0.229-9.381,1.81-18.78,6.583-27.315c4.724-8.448,10.593-15.036,19.582-19.753c18.589-9.755,36.445-20.902,54.652-31.39
	c14.284-8.229,28.653-16.309,42.963-24.492c14.666-8.387,29.304-16.823,43.959-25.229c18.588-10.662,37.198-21.286,55.758-31.996
	c3.374-1.947,6.929-2.518,10.712-2.331c6.023,0.298,10.189,3.849,10.907,9.666c0.352,2.855,0.235,5.773,0.246,8.663
	C2285.325,868.372,2285.358,884.483,2285.399,900.593z"/>
<path fill="#173D7A" d="M2244.808,1391.608c1.948,24.603,3.971,49.201,5.812,73.812c0.827,11.059,3.337,21.989,2.567,33.169
	c-8.316,2.652-15.397,7.725-22.887,11.936c-19.397,10.907-38.583,22.187-57.867,33.294c-20,11.521-39.994,23.054-60.034,34.506
	c-15.751,9.001-31.556,17.907-47.368,26.801c-2.514,1.414-5.208,2.507-7.791,3.804c-3.348,1.682-6.207,1.038-9.153-1.219
	c-5.781-4.431-7.165-10.848-8.234-17.391c-0.395-2.418-0.116-4.948-0.117-7.428c-0.005-19.009,0.177-38.02-0.074-57.026
	c-0.134-10.136,2.303-19.692,6.068-28.817c3.894-9.436,11.347-16.141,20.087-21.19c28.196-16.292,56.461-32.464,84.723-48.641
	c16.814-9.624,33.696-19.13,50.489-28.79c2.723-1.567,4.695-0.066,6.905,0.895c4.813,3.355,9.24,6.168,9.415-3.507
	c0.09-4.947-0.052-9.929,0.519-14.855c1.461-12.6,5.84-14.716,16.755-8.178c1.784,1.068,3.576,2.056,5.637,2.471
	c1.058,0.39,2.065,0.884,3.033,1.458l0.125,0.333C2245.269,1381.767,2243.219,1386.861,2244.808,1391.608z"/>
<path fill="#173D7A" d="M2211.441,1134.144c-1.661,16.61-4.292,33.133-3.555,49.939c0.255,5.82,0.955,11.338,3.827,16.456
	c4.003,19.302,6.525,38.568-1.365,57.588c-7.344,4.534-14.564,9.286-22.055,13.564c-31.806,18.167-63.709,36.167-95.541,54.29
	c-8.94,5.089-17.75,10.405-26.642,15.581c-1.779,1.036-3.628,1.961-5.49,2.842c-8.639,4.087-15.005,1.615-18.344-7.464
	c-1.552-4.219-2.65-8.565-2.613-13.248c0.17-21.453-0.516-42.928,0.244-64.355c0.765-21.559,9.652-38.59,29.984-48.806
	c12.847-6.455,24.994-14.304,37.469-21.504c14.257-8.228,28.526-16.435,42.795-24.642c15.338-8.823,30.663-17.668,46.035-26.431
	c3.573-2.037,7.249-3.924,11.004-5.595C2208.871,1131.612,2210.278,1132.921,2211.441,1134.144z"/>
<path fill="#FEC1B0" d="M2329.822,965.533c2.666-1.083,5.318-2.202,8.001-3.238c3.14-1.212,5.975-0.447,7.409,2.502
	c2.615,5.379,6.558,7.714,12.552,8.502c7.264,0.954,10.898,5.118,11.625,10.929c0.777,6.209-2.028,13.37-8.303,15.133
	c-9.483,2.664-9.943,8.806-8.433,16.171c1.652,8.056,0.668,16.589,4.411,24.25c3.953,5.279,7.448,10.889,11.028,16.398
	c10.586,16.293,3.34,34.963-15.385,39.971c-11.178,2.99-22.09,2.141-32.138-4.313c-13.689-8.793-17.38-23.29-9.781-37.645
	c2.361-4.46,7.666-8.167,4.396-14.396c-1.927-0.682-3.805-1.651-5.791-1.995c-9.182-1.589-16.786-6.317-24.025-11.792
	c-2.599-1.965-5.066-4.106-7.594-6.167c-5.325-7.611-11.651-14.699-12.795-24.494c-2.203-9.044,5.283-7.847,9.814-8.592
	C2294.669,983.493,2312.418,975.015,2329.822,965.533z"/>
<path fill="#FEC2B0" d="M2210.348,1258.126c0.286-14.291,0.555-28.582,0.868-42.872c0.107-4.9,0.326-9.798,0.496-14.706
	c3.526,0.852,7.053,1.706,10.575,2.577c8.697,2.148,17.367,4.049,26.304,0.97c1.841-0.635,4.006-0.33,6.022-0.458
	c2.537,20.35-2.883,39.989-6.073,59.698c-5.721,35.351-12.472,70.495-6.886,106.538c0.365,2.351,0.499,4.951-1.046,7.158
	c-1.389,1.794-3.108,2.848-5.117,1.176c-2.183-1.817-4.054-4.005-6.162-5.919c-3.715-3.373-6.593-2.464-7.391,2.746
	c-0.922,6.022-1.312,12.135-1.708,18.224c-0.37,5.691-0.49,11.397-2.057,16.934c-0.4,1.413-2.922,1.929-3.991,0.909
	c-3.395-3.237-4.129-7.869-6.249-11.775c-0.788-3.599-1.622-7.186-2.352-10.794c-1.312-6.484-1.448-12.891-0.777-19.585
	c1.274-12.71,2.763-25.363,4.927-37.945c0.208-1.213,0.353-2.453,0.358-3.682
	C2210.192,1304.256,2210.268,1281.191,2210.348,1258.126z"/>
<path fill="#E79994" d="M2329.822,965.534c-3.559,5.399-9.355,7.859-14.634,10.906c-13.723,7.921-28.617,12.306-44.344,13.779
	c-3.48,0.326-5.233,1.899-5.841,5.133c-3.981-7.099-2.265-14.796-2.356-22.302c21.78,2.931,42.819-0.75,63.568-7.096
	C2327.353,965.606,2328.616,965.664,2329.822,965.534z"/>
<path fill="#FCFDFB" d="M2265.423,1604.208c0.433,0.684,1.183,1.338,1.251,2.057c0.986,10.472,4.265,20.693,3.466,31.359
	c-9.669-4.225-18.807-9.415-27.59-15.242c-1.514-1.005-1.705-2.653-1.876-4.279
	C2248.924,1613.47,2257.173,1608.839,2265.423,1604.208z"/>
<path fill="#3768A4" d="M1446.582,556.703c0.062-27.632,0.188-55.265,0.128-82.897c-0.011-5.208,0.92-9.686,5.03-13.305
	c4.357-3.836,9.492-4.853,14.732-1.912c10.047,5.639,19.957,11.52,29.927,17.295c19.581,11.341,39.168,22.67,58.744,34.02
	c18.152,10.526,36.287,21.082,54.44,31.606c7.474,4.333,14.936,8.693,22.499,12.867c1.731,0.956,3.859,1.194,5.804,1.763
	c18.2,11.488,36.4,22.976,54.599,34.463c29.591,19.548,58.657,39.871,88.088,59.645c12.246,8.228,17.855,17.568,17.202,32.624
	c-1.089,25.13-0.214,50.342-0.36,75.518c-0.033,5.642,1.134,11.69-3.421,16.443c-8.341,2.939-14.187-2.869-20.301-6.428
	c-50.215-29.234-100.791-57.844-150.882-87.273c-1.052-0.479-2.073-1.028-3.088-1.575c-2.066-1.007-4.236-1.764-6.407-2.531
	c-30.538-18.648-58.983-40.366-88.48-60.542c-22.727-15.546-45.156-31.535-67.68-47.38
	C1452.661,565.942,1446.466,563.921,1446.582,556.703z"/>
<path fill="#5793CE" d="M1744.49,1409.365c20.035,11.454,40.093,22.866,60.097,34.374c18.577,10.687,36.853,21.925,55.711,32.087
	c17.194,9.265,24.615,24.173,25.26,42.407c0.859,24.305,0.217,48.663,0.203,72.999c-0.001,1.647,0.106,3.355-0.276,4.928
	c-0.578,2.378-1.227,4.838-2.403,6.954c-3.277,5.892-9.681,8.185-15.787,5.152c-7.741-3.846-15.213-8.246-22.71-12.565
	c-43.215-24.891-86.416-49.808-129.593-74.764c-12.488-7.218-24.825-14.697-37.353-21.844c-3.868-2.207-7.521-5.247-12.417-5.047
	c-0.737-1.017-0.864-2.105-0.388-3.266c26.978-18.02,47.894-41.863,65.928-68.509c3.183-4.703,5.568-10.079,10.482-13.461
	C1742.43,1408.381,1743.518,1408.538,1744.49,1409.365z"/>
<path fill="#7594BC" d="M1620.282,677.806c8.588,1.046,14.603,7.265,21.754,11.11c15.91,8.554,31.421,17.852,47.056,26.914
	c22.032,12.77,43.992,25.666,66.056,38.381c12.102,6.974,24.354,13.688,36.539,20.52c1.182,0.687,2.834,0.859,2.968,2.7
	c-0.192,2.045-0.553,4.089-0.551,6.134c0.033,42.363,0.108,84.726,0.173,127.088c-0.537,0.301-1.074,0.603-1.611,0.91
	c-4.386,0.197-7.942-2.006-11.491-4.102c-34.86-20.586-70.005-40.681-105.099-60.863c-3.213-1.848-6.716-3.34-8.212-7.175
	c-2.884-17.246-0.971-34.611-1.31-51.912c-0.348-17.752-0.626-35.538,0.109-53.266c0.516-12.439-3.29-21.388-14.241-27.847
	c-8.147-4.805-15.526-10.915-23.346-16.31C1624.789,687.128,1619.585,684.482,1620.282,677.806z"/>
<path fill="#7594BC" d="M1798.885,1042.12c-2.086,0.297-4.201,0.764-4.516,3.267c-0.306,2.436-0.301,4.921-0.3,7.385
	c0.022,40.315,0.065,80.63,0.103,120.944c-0.568,0.255-1.136,0.509-1.703,0.771c-14.259-2.577-24.79-12.46-36.997-19.031
	c-25.339-13.64-49.929-28.608-74.841-43.006c-5.177-2.992-11.541-5.041-13.416-11.954c-1.755-42.781-1.774-85.543-0.061-128.282
	c3.145-8.844,8.524-3.888,12.76-1.594c20.347,11.021,39.991,23.282,60.216,34.526c18.418,10.239,36.26,21.48,54.823,31.471
	C1797.031,1037.9,1799.628,1038.826,1798.885,1042.12z"/>
<path fill="#7594BC" d="M1744.49,1409.365l-1.218,0.014l-1.219-0.012c-16.393-5-29.512-16.112-44.418-23.903
	c-11.298-5.906-22.158-12.671-33.269-18.957c-3.97-2.246-7.983-4.477-8.906-9.595c2.731-25.71,7.867-51.069,9.978-76.897
	c1.205-14.742-0.927-29.612,2.288-44.183c5.944-8.571,12.001-2.339,17.027,0.661c26.62,15.89,54.043,30.387,80.456,46.618
	c5.625,3.457,11.925,5.79,16.979,10.202c1.4,1.367,2.373,2.964,2.612,4.944c-4.064,14.68-7.601,29.488-12.453,43.971
	c-6.437,19.216-14.271,37.771-23.491,55.786C1747.01,1401.621,1744.09,1404.872,1744.49,1409.365z"/>
<path fill="#5793CE" d="M1794.654,777.43c-0.99-0.902-1.981-1.803-2.969-2.702c3.543-3.344,2.31-7.718,2.328-11.709
	c0.102-23.139,0.051-46.278,0.049-69.417c-0.001-7.851-0.111-15.703,0.029-23.551c0.065-3.643-1.08-6.279-4.247-8.284
	c-2.422-1.533-4.376-3.785-6.738-5.432c-21.279-14.842-42.599-29.625-63.914-44.414c-7.102-4.927-14.258-9.776-21.319-14.76
	c-2.354-1.662-4.622-3.526-5.388-6.555c10.132,2.782,18.278,9.377,27.19,14.431c31.221,17.704,62.229,35.785,93.318,53.723
	c16.438,9.484,32.881,18.96,49.315,28.453c14.884,8.598,22.467,22.274,23.121,38.682c1.019,25.557,0.295,51.184,0.293,76.781
	c0,1.234-0.041,2.491-0.265,3.7c-2.167,11.725-10.258,16.129-20.849,10.737c-9.18-4.674-17.945-10.16-26.911-15.258
	C1823.356,793.7,1809.002,785.57,1794.654,777.43z"/>
<path fill="#5793CE" d="M1784.8,1298.257c-1.049-0.855-2.098-1.71-3.147-2.566c6.299-36.62,10.143-73.432,8.847-110.666
	c-0.128-3.692,0.318-7.45,2.992-10.451c0,0,0.679-0.859,0.68-0.859c12.101,8.688,25.549,15.119,38.235,22.828
	c9.519,5.784,19.113,11.469,28.895,16.792c16.626,9.047,23.494,23.932,24.306,41.738c0.789,17.307,0.203,34.678,0.209,52.02
	c0.002,7.02,0.072,14.042-0.097,21.057c-0.068,2.854-0.321,5.805-1.134,8.519c-1.917,6.405-8.034,12.493-17.435,8.329
	c-1.503-0.666-3-1.372-4.42-2.198c-24.61-14.31-49.207-28.642-73.807-42.969c-0.852-0.688-1.767-1.278-2.745-1.772
	C1785.73,1298.201,1785.271,1298.266,1784.8,1298.257z"/>
<path fill="#5793CE" d="M1798.885,1042.12c-1.197-2.036-3.274-2.364-5.325-2.741c-2.749-4.776-3.47-9.977-3.473-15.403
	c-0.023-32.817-0.089-65.635,0.063-98.452c0.022-4.886-0.143-9.935,3.442-13.998l0.685-0.874
	c8.801,5.31,17.537,10.731,26.418,15.904c12.801,7.457,25.62,14.891,38.589,22.049c17.99,9.931,26.31,25.42,26.473,45.527
	c0.187,23.061,0.077,46.125-0.008,69.187c-0.012,3.261-0.173,6.644-1.042,9.754c-2.128,7.623-7.281,10.624-15.027,9.07
	c-1.975-0.396-3.955-1.184-5.714-2.178C1842.112,1067.626,1820.061,1055.623,1798.885,1042.12z"/>
<path fill="#7594BC" d="M1665.085,1491.548c0.044,0.832,0.089,1.664,0.134,2.496c-8.294,8.193-18.708,13.231-28.709,18.744
	c-23.489,12.948-48.695,21.516-74.665,27.934c-4.373,1.081-8.784,2.005-13.177,3.004c-1.726-0.263-3.452-0.528-5.178-0.793
	c0.246-5.807,5.244-8.242,8.827-11.087c22.102-17.553,39.493-39.168,55.182-62.346c2.048-3.025,4.046-6.279,8.163-6.974
	C1634.055,1468.926,1650.683,1478.343,1665.085,1491.548z"/>
<path fill="#7594BC" d="M1786.18,1298.061c0.916,0.592,1.833,1.185,2.747,1.774
	C1788.009,1299.242,1787.095,1298.652,1786.18,1298.061z"/>
<linearGradient id="SVGID_8_" gradientUnits="userSpaceOnUse" x1="935.344" y1="1017.9904" x2="1526.3141" y2="1017.9904">
	<stop  offset="0" style="stop-color:#271887"/>
	<stop  offset="1" style="stop-color:#02BFE1"/>
</linearGradient>
<path fill="url(#SVGID_8_)" d="M1526.188,1064.978c-0.001,85.155,0.008,170.31-0.02,255.465c-0.002,6.577-0.137,13.041-1.761,19.626
	c-1.75,7.096-1.712,14.614-2.809,21.954c-4.591,30.72-12.883,60.173-25.618,88.567c-9.008,20.085-19.976,38.945-33.897,55.741
	c-11.542,13.924-24.69,26.601-39.811,36.949c-27.602,18.889-57.765,31.405-90.678,37.508c-14.58,2.704-29.115,5.277-44.022,4.784
	c-3.307-0.109-6.569,0.136-9.775,1.251c-1.914,0.665-4.035,0.722-6.055,1.096c-9.204,1.704-15.757-2.221-21.377-9.245
	c-8.221-10.274-17.025-20.079-25.351-30.271c-11.19-13.697-22.296-27.468-33.191-41.401c-11.4-14.58-22.418-29.443-33.21-44.495
	c-18.728-26.12-37.033-52.501-53.885-79.872c-8.853-14.38-17.72-28.754-26.325-43.282c-5.25-8.865-10.141-17.951-14.969-27.058
	c-9.277-17.5-18.945-34.823-27.454-52.694c-13.463-28.28-26.551-56.754-37.837-86.006c-8.603-22.298-17.114-44.647-24.015-67.529
	c-10.089-33.45-19.977-66.97-26.016-101.478c-1.979-11.308-4.795-22.472-6.673-33.794c-1.476-8.898-1.812-17.981-3.148-26.907
	c-4.86-32.467-2.221-65.12-2.313-97.672c-0.358-127.732-0.147-255.465-0.145-383.197c0-18.346-0.125-18.056,16.209-10.5
	c22.444,10.381,45.125,20.249,67.685,30.381c9.78,4.392,19.571,8.768,29.25,13.376c23.103,11,46.322,21.777,69.149,33.326
	c18.019,9.117,35.34,19.608,53.301,28.848c28.263,14.541,55.162,31.415,82.318,47.808c22.914,13.832,45.142,28.838,67.29,43.889
	c25.195,17.122,49.93,34.918,74.926,52.334c29.052,20.242,58.207,40.337,87.243,60.602c12.489,8.716,24.7,17.832,37.229,26.489
	c4.162,2.876,6.124,6.078,5.856,11.268c-0.404,7.833-0.101,15.703-0.101,23.557
	C1526.189,904.589,1526.189,984.783,1526.188,1064.978z"/>
<linearGradient id="SVGID_9_" gradientUnits="userSpaceOnUse" x1="1302.8668" y1="1048.7357" x2="1674.1239" y2="1048.7357">
	<stop  offset="0" style="stop-color:#271887"/>
	<stop  offset="1" style="stop-color:#02BFE1"/>
</linearGradient>
<path fill="url(#SVGID_9_)" d="M1615.571,1463.893c-2.655,3.644-5.4,7.226-7.949,10.943c-10.989,16.026-22.924,31.309-37.05,44.678
	c-8.66,8.196-18.032,15.64-27.083,23.42c-19.302,12.975-39.767,24.029-59.691,35.979c-1.383,0.829-2.933,1.38-4.406,2.061
	c-1.701-1.234-1.691-2.677-0.318-4.077c4.341-4.423,8.755-8.774,13.106-13.187c18.022-18.277,33.08-38.678,45.918-60.97
	c12.219-21.216,21.326-43.644,29.152-66.664c6.091-17.917,9.984-36.445,13.442-55.028c2.855-15.341,5.82-30.704,5.077-46.454
	c4.593-23.742,2.222-47.74,2.257-71.606c0.235-161.559,0.124-323.117,0.121-484.676c0-18.685,1.174-15.03-12.916-25.03
	c-21.474-15.241-43.073-30.305-64.674-45.365c-29.032-20.241-58.3-40.149-87.132-60.67c-34.883-24.828-69.851-49.518-105.78-72.818
	c-3.107-2.015-6.272-3.957-9.518-5.735c-2.246-1.23-4.124-2.706-5.262-5.029c11.098-9.014,23.83-15.482,36.01-22.769
	c12.909-7.723,26.468-14.349,38.839-23.005c1.248-0.873,3.056-0.947,4.603-1.392c13.081,6.772,24.999,15.405,37.394,23.28
	c8.932,5.675,17,12.737,26.87,16.921c2.076,1.982,3.941,4.263,6.264,5.889c20.585,14.401,41.293,28.624,61.883,43.018
	c31.054,21.708,62.031,43.526,93.076,65.246c2.35,1.644,4.982,2.884,7.483,4.313c1.37,1.577,3.817,1.104,5.169,2.716
	c0,0-0.176-0.073-0.177-0.073c1.388,3.197,4.2,4.972,6.893,6.85c10.788,7.521,21.341,15.418,32.47,22.396
	c7.447,4.67,10.432,10.264,10.304,19.199c-0.479,33.323-0.203,66.657-0.176,99.987c0.004,4.935,0.196,9.869,0.301,14.803
	c3.684,4.472,3.956,9.843,3.972,15.26c0.09,32.233,0.135,64.467-0.044,96.699c-0.029,5.294,0.394,10.878-3.964,15.113
	c-0.093,37.489-0.205,74.978-0.262,112.467c-0.012,7.825,0.182,15.65,0.281,23.475c3.733,4.423,3.954,9.782,3.969,15.164
	c0.095,32.889,0.124,65.778-0.029,98.667c-0.025,5.302,0.221,10.808-4.024,15.041c-0.058,10.26,0.187,20.532-0.248,30.776
	c-0.574,13.492-0.903,27.069-2.755,40.413c-2.411,17.381-4.569,34.862-9.064,51.906c-0.304,1.153-0.063,2.45-0.074,3.68
	c1.465,4.109,0.563,8.118-0.585,12.088c-8.472,29.283-19.563,57.502-34.264,84.254
	C1621.187,1459.311,1619.39,1462.551,1615.571,1463.893z"/>
<path fill="#173D7A" d="M2121.17,374.805c-12.057,7.17-24.048,14.454-36.184,21.488c-33.951,19.68-67.961,39.258-101.951,58.871
	c-2.505,1.445-4.977,2.959-7.558,4.255c-13.484,6.772-26.747,7.171-40.134-0.69c-28.14-16.525-56.44-32.775-84.669-49.147
	c-86.832-50.358-173.664-100.716-260.481-151.1c-2.474-1.436-4.774-3.171-7.155-4.766c0.029-6.791,5.881-8.399,10.247-10.872
	c42.367-24.004,84.4-48.585,126.425-73.177c18.809-11.007,36.663-11.367,55.925-0.155
	c111.629,64.976,223.365,129.77,335.146,194.484C2115.156,366.529,2120.952,368.102,2121.17,374.805z"/>
<path fill="#5793CE" d="M2121.17,374.806c-3.102-3.439-7.208-5.436-11.116-7.71c-34.602-20.132-69.179-40.307-103.825-60.363
	c-34.646-20.057-69.391-39.943-104.04-59.994c-27.862-16.123-55.638-32.394-83.466-48.575c-16.768-9.75-33.53-19.514-50.356-29.163
	c-12.826-7.356-26.161-7.409-39.018-0.74c-13.542,7.025-26.558,15.067-39.789,22.69c-25.032,14.422-50.2,28.616-75.01,43.411
	c-10.578,6.308-22.287,10.838-31.514,19.355c-1.666-1.148-3.681-2.004-4.931-3.499c-3.727-4.46-3.488-9.036,0.176-13.33
	c2.744-3.217,6.34-5.252,9.899-7.322c18.537-10.782,37.089-21.539,55.656-32.269c24.995-14.443,50.007-28.856,75.017-43.273
	c2.859-1.648,5.706-3.323,8.629-4.851c14.231-7.437,28.339-7.525,42.37,0.659c43.462,25.346,86.915,50.707,130.437,75.949
	c43.88,25.449,87.86,50.724,131.754,76.15c28.905,16.743,57.733,33.618,86.598,50.43c1.426,0.83,2.93,1.538,4.304,2.445
	c7.394,4.884,8.219,10.767,2.311,17.424C2124.23,373.384,2122.549,373.961,2121.17,374.806z"/>
<path fill="#FFFEFE" d="M2429.586,1277.619c1.197,10.563,2.39,21.126,3.594,31.688c0.186,1.632,0.563,3.254,0.614,4.888
	c0.473,15.202,2.95,30.181,4.679,45.25c1.026,8.945,1.61,17.956,2.628,26.933c0.823,7.264-0.177,14.662-1.042,22.066
	c-1.376,11.775-4.567,23.439-3.541,35.463c-2.752,6.868-7.147,10.647-14.978,7.961c-0.087-3.632-0.336-7.268-0.231-10.894
	c0.339-11.74-0.654-23.38-2.319-34.985c2.733-13.921,2.094-27.791,0.757-41.874c-2.574-27.123-4.072-54.348-6.062-81.527
	c-0.362-4.94-1.066-9.856-1.399-14.798c-1.226-18.207-1.251-36.325,4.555-53.943c1.643,0.718,2.429,2.018,2.626,3.761
	c0.643,5.67,1.329,11.334,1.958,17.005c1.033,9.322,1.65,18.711,3.2,27.945C2425.489,1267.712,2427.882,1272.608,2429.586,1277.619z
	"/>
<path fill="#FDFCFD" d="M2315.206,1039.798c0.825,0.048,1.649,0.105,2.474,0.144c2.43,0.115,4.061,1.216,3.502,3.806
	c-0.801,3.708-2.83,6.762-5.532,9.485c-3.269,3.293-5.218,7.26-5.779,12.016c-1.194,10.124,2.753,17.854,10.95,23.313
	c11.582,7.715,24.259,8.273,36.579,2.687c14.333-6.499,15.301-21.282,8.991-32.473c-0.992-1.76-2.427-3.419-4.018-4.664
	c-4.778-3.739-5.963-8.656-5.287-14.33c11.211,2.992,17.998,11.277,24.219,20.24c0.475,3.666,1.139,7.318,1.391,10.999
	c0.702,10.301-3.655,18.353-11.593,24.569c-19.832,15.529-53.936,10.633-68.556-9.772c-8.638-12.057-7.409-27.836,3.186-38.239
	C2308.636,1044.727,2312.034,1042.378,2315.206,1039.798z"/>
<path fill="#3E6AA9" d="M2240.608,1377.03c0.008-10.757-2.431-21.23-3.805-31.821c-1.385-10.675-1.728-21.141,0.133-31.907
	c4.903-28.375,9.042-56.883,13.539-85.329c1.285-8.125,2.756-16.221,4.14-24.334c1.208-0.602,2.891-0.477,2.984,0.679
	c0.723,9.016,0.608,18.049-0.468,27.037c-1.264,10.556-2.752,21.086-4.029,31.641c-1.621,13.404-3.224,26.811-4.654,40.236
	c-1.258,11.813-1.505,23.791-3.607,35.442c-1.997,11.066-1.747,22.061-1.858,33.125c-0.016,1.639,0.198,3.28,0.308,4.917
	C2242.397,1376.818,2241.502,1376.924,2240.608,1377.03z"/>
<path fill="#3E6AA9" d="M2244.808,1391.608c-3.105-4.601-1.468-9.657-1.395-14.563c2.381,1.844,1.928,4.627,2.367,7.111
	C2245.457,1386.638,2245.133,1389.123,2244.808,1391.608z"/>
<path fill="#FFFFFF" d="M532.097,533.05c-9.078-3.108-20.378-2.204-27.074-12.332c-2.88-4.356-3.092-8.138,0.261-11.954
	c0.726-0.826,1.45-1.673,2.286-2.38c10.864-9.199,33.533-9.592,44.985-0.971c8.555,6.44,8.557,17.837-2.516,22.029
	c-4.105,1.554-8.265,2.968-12.432,4.346C536.056,532.301,534.412,532.531,532.097,533.05z"/>
<path fill="#FFFFFF" d="M404.609,456.432c-9.119,0.879-17.569-0.631-24.521-7.292c-4.97-4.762-5.347-9.351-0.915-14.429
	c7.994-9.16,18.494-11.197,29.804-9.672c7.636,1.03,15.133,2.84,20.165,9.873c3.459,4.835,3.68,9.124-0.323,13.311
	C422.193,455.151,413.947,457.38,404.609,456.432z"/>
<path fill="#FFFFFF" d="M469.547,463.165c9.058-1.276,17.683,0.796,23.726,9.593c2.36,3.436,2.642,7.448,0.082,10.656
	c-4.568,5.724-9.667,10.444-17.898,9.858c-5.466-0.389-11.003,0.196-16.466-0.219c-6.833-0.519-12.554-3.655-17.068-8.87
	c-3.328-3.846-3.426-8.077-0.118-11.866c4.915-5.629,11.03-8.939,18.622-9.141C463.171,463.104,465.919,463.165,469.547,463.165z"/>
<path fill="#173D7A" d="M2389.719,1842.686c1.222,14.017,0.718,27.953-2.549,41.67c-3.061,12.853-10.212,23.353-19.806,32.198
	c-7.349,6.776-15.696,5.571-20.501-3.242c-8.733-16.018-13.395-32.71-7.741-51.092c2.544-8.27,4.556-16.695,8.119-24.624
	C2360.887,1843.585,2375.062,1845.15,2389.719,1842.686z"/>
<path fill="#183D7A" d="M2336.104,1821.481c-11.348,14.964-25.354,26.859-41.733,35.97c-8.019,4.46-16.841,6.565-25.793,8.036
	c-3.218,0.529-6.582,0.55-9.847,0.329c-6.999-0.474-10.234-4.854-8.631-11.832c0.729-3.17,2.008-6.274,3.438-9.213
	c8.838-18.171,21.495-32.994,38.768-43.701c7.893,11.332,18.911,16.912,32.546,17.673
	C2329.295,1816.807,2333.013,1817.855,2336.104,1821.481z"/>
<path fill="#D98C2D" d="M2336.104,1821.481c-3.731-0.994-7.835-0.454-11.252-2.737c-0.072-16.516,0.872-33.112-0.422-49.532
	c-2.794-35.434-0.284-70.992-2.719-106.318c-2.161-31.362-0.939-62.663-2.012-93.971c-0.169-4.94,0.045-9.854-1.366-14.733
	c-0.784-2.709-0.694-5.719-0.708-8.594c-0.069-13.626-0.054-27.252-0.026-40.878c0.004-1.994-0.39-4.101,1.099-5.926
	c1.766,3.546,0.847,7.313,1.015,10.951c0.38,8.209-0.407,16.458,2.069,24.563c0.931,3.046,0.302,6.559,0.444,9.856
	c0.479,11.095-0.585,22.259,2.166,33.259c0.88,3.518,0.31,7.398,0.416,11.112c0.269,9.457-0.698,19.004,2.111,28.277
	c0.233,0.77,0.219,1.644,0.178,2.463c-1.072,21.074,3.414,41.905,2.773,62.95c-0.29,9.534,2.897,18.673,2.534,28.274
	c-0.34,9.009-0.9,18.175,1.834,27.051c0.355,1.154,0.333,2.459,0.311,3.69c-0.491,26.819,4.236,53.446,2.952,80.293
	c0.003,0.001-0.699,0.04-0.699,0.04L2336.104,1821.481z"/>
<path fill="#CDF2F9" d="M2377.134,1486.744c-5.869,5.928-7.862,12.991-7.786,21.354c0.349,38.851,0.28,77.706,0.36,116.56
	c-4.19-0.858-6.308-3.716-6.919-7.675c-0.373-2.419-0.257-4.924-0.258-7.39c-0.013-35.403,0.025-70.806-0.041-106.208
	c-0.011-5.852,0.373-11.552,3.785-16.529c0.883-1.287,2.394-2.142,3.617-3.195
	C2372.893,1483.309,2375.609,1483.627,2377.134,1486.744z"/>
<path fill="#CDF2F9" d="M2377.134,1486.744c-2.417-1.026-4.833-2.053-7.246-3.082c11.879-8.512,24.976-14.99,37.471-22.468
	c4.865-2.911,10.022-5.356,14.182-9.329c5.869-1,10.269-4.766,14.977-7.957c3.158-1.761,6.322-3.509,9.472-5.283
	c4.978-2.802,6.126-2.401,9.083,3.392c0.347,0.681,0.323,1.552,0.467,2.329c-4.526-0.983-7.798,1.782-11.305,3.797
	C2421.863,1461.003,2399.5,1473.876,2377.134,1486.744z"/>
<path fill="#983BE9" d="M1164.077,479.318c-0.845,0.806-1.69,1.611-2.535,2.416C1162.387,480.929,1163.232,480.123,1164.077,479.318
	z"/>
<path fill="#FDFEFE" d="M553.583,881.608c-0.245,4.974-0.284,9.97-0.807,14.915c-0.339,3.201-2.851,4.457-5.883,4.594
	c-3.094,0.141-5.88-1.174-6.33-4.14c-1.664-10.99-1.59-22.068-0.055-33.074c0.403-2.886,2.642-4.771,5.771-5.001
	c3.036-0.223,6.503,2.602,6.696,6.08c0.306,5.523,0.082,11.076,0.082,16.616C553.232,881.602,553.408,881.605,553.583,881.608z"/>
<linearGradient id="SVGID_10_" gradientUnits="userSpaceOnUse" x1="2658.5203" y1="1582.4827" x2="3168.957" y2="1582.4827">
	<stop  offset="0" style="stop-color:#271887"/>
	<stop  offset="1" style="stop-color:#02BFE1"/>
</linearGradient>
<path fill="url(#SVGID_10_)" d="M2660.191,1552.756c2.711-9.37,10.34-13.933,18.031-18.426
	c25.321-14.792,50.637-29.594,75.974-44.359c38.722-22.567,77.512-45.017,116.161-67.71c12.131-7.123,24.758-11.959,38.972-12.833
	c15.979-0.982,30.423,2.46,44.359,10.654c65.82,38.701,131.896,76.969,197.871,115.406c2.865,1.669,5.771,3.313,8.442,5.263
	c5.156,3.764,8.776,8.869,8.871,15.277c0.236,16.024-0.065,32.057-0.27,48.085c-0.012,0.933-1.096,1.853-1.68,2.779
	c-7.759-9.249-3.221-20.082-4.232-30.213c-67.726,42.175-138.105,80.432-206.849,121.48c-5.219,3.116-11.091,5.406-15.128,10.048
	c-7.849,9.025-17.58,12.83-29.392,12.565c-4.792-0.107-11.251-0.544-11.664,6.232c-0.472,7.751,6.327,7.889,11.818,8.302
	c9.555,0.719,19.104,1.176,23.011,12.349c-10.171,11.473-24.282,8.068-35.269,5.512c-27.345-6.359-51.159-20.883-71.773-40.22
	c-15.627-9.399-31.163-18.953-46.9-28.163c-29.629-17.34-59.389-34.456-89.045-51.75c-2.829-1.65-5.305-3.907-7.944-5.883
	c-3.046-4.188-4.375-8.97-4.115-14.037c0.764-14.89-0.906-27.952-15.409-37.307
	C2656.557,1570.986,2658.22,1561.055,2660.191,1552.756z"/>
<path fill="#B2D3EA" d="M2827.443,1712.946c17.147,9.687,34.339,19.293,51.428,29.082c17.719,10.15,36.118,10.991,55.156,4.514
	c0.662-1.118,1.584-1.961,2.711-2.587c1.655-0.829,3.391-1.485,5.101-2.17c1.055-0.509,2.154-0.948,3.241-1.38
	c1.539-0.713,3.086-1.428,4.589-2.219c0.941-0.566,1.931-1.051,2.919-1.521c0.913-0.573,1.842-1.129,2.733-1.739
	c-0.026-0.037,1.294-0.975,1.271-1.007c0.799-0.744,1.677-1.376,2.598-1.951c0.896-0.613,1.862-1.092,2.864-1.492
	c1.434-0.701,2.869-1.408,4.282-2.161c0.925-0.543,1.897-0.981,2.887-1.379c1.448-0.715,2.872-1.472,4.29-2.262
	c0.963-0.576,1.947-1.09,2.937-1.621c0.966-0.679,1.932-1.326,2.884-2.045c0.475-0.421,0.955-0.785,1.429-1.197
	c1.534-1.316,3.166-2.448,4.924-3.44c4.641-1.938,8.841-5.765,14.466-3.337c8.159,8.594,19.13,13.046,28.982,18.984
	c25.095,15.123,50.781,29.264,76.199,43.853c4.313,2.476,8.688,4.937,12.648,7.918c8.722,6.567,9.807,14.455,3.237,22.837
	c-3.073,3.922-6.8,7.185-11.215,9.735c-28.249,16.315-56.459,32.698-84.623,49.161c-21.477,12.554-42.856,25.274-64.3,37.885
	c-3.813,2.242-7.952,3.992-11.556,6.519c-14.575,10.22-31.006,10.582-47.806,9.644c-4.603-0.257-8.687-1.778-12.566-3.893
	c-9.224-5.029-18.362-10.217-27.473-15.448c-31.168-17.895-62.343-35.778-93.448-53.781c-18.661-10.8-37.249-21.729-55.772-32.764
	c-10.881-6.482-12.342-18.67-3.256-27.708c3.087-3.072,6.812-5.634,10.578-7.87c23.768-14.111,47.718-27.917,71.423-42.131
	C2803.474,1728.617,2816.748,1722.795,2827.443,1712.946z"/>
<path fill="#CDF2F9" d="M2970.434,1728.995c-0.766,0.714-1.672,1.082-2.719,1.103c-1.6,0.412-2.768,1.499-3.967,2.537
	c-0.612,0.655-1.365,0.976-2.261,0.963c-1.976,0.151-3.274,1.369-4.428,2.814l-0.063,0.042c-0.955,0.939-2.021,1.727-3.201,2.361
	c-0.836,0.761-1.819,1.152-2.95,1.172c-1.268,0.739-2.513,1.517-3.729,2.339c-0.91,0.691-1.935,1.006-3.075,0.944
	c-2.059,1.584-4.943,0.99-6.976,2.641c-0.939,0.568-1.952,0.779-3.039,0.631c-5.686,0.465-7.585-6.511-12.981-6.611
	c-4.983-0.093-9.973-0.034-14.947-0.292c-10.607-0.55-16.069-10.365-11.159-20.035c1.082-2.13,3.269-2.924,5.547-2.995
	c4.982-0.156,9.975-0.342,14.953-0.182c8.283,0.267,15.212-1.804,19.866-9.377c2.029-3.301,5.28-5.502,8.722-7.493
	c26.767-15.475,53.408-31.169,80.177-46.642c17.215-9.95,34.616-19.58,51.871-29.464c21.56-12.349,43.185-24.593,64.511-37.336
	c8.358-4.994,15.981-11.219,25.189-17.774c1.752,13.562,0.069,26.137,1.146,38.551c-0.356,1.018-0.713,2.037-1.07,3.056
	c-0.623,1.213-1.442,2.275-2.458,3.185l-0.055,0.072c-1.113,1.096-2.271,2.151-3.189,3.429l0.022-0.021
	c-1.186,0.996-2.344,2.022-3.476,3.08l-0.158,0.106c-0.807,1.074-1.825,1.882-3.054,2.424c-0.653,0.931-1.546,1.365-2.682,1.302
	c-1.555,0.444-2.701,1.557-3.989,2.437c-0.509,0.811-1.24,1.172-2.193,1.081c-1.967,0.146-3.27,1.4-4.533,2.719l-0.113,0.062
	c-0.822,1.03-1.857,1.754-3.107,2.17c-1.003,0.462-2.006,0.924-3.008,1.386c-1.216,0.815-2.444,1.611-3.686,2.386
	c-27.207,16.065-54.438,32.088-81.61,48.211c-16.185,9.604-32.276,19.366-48.41,29.057c-5.194,2.388-10.388,4.776-15.581,7.163
	c-1.785,0.309-3.029,1.499-4.301,2.642l-0.278,0.169c-0.715,1.076-1.687,1.832-2.88,2.313c-1.042,0.427-2.085,0.853-3.127,1.28
	C2972.811,1727.412,2971.626,1728.21,2970.434,1728.995z"/>
<path fill="#CDF2F9" d="M2660.191,1552.756c0.088,0.54,0.295,1.09,0.248,1.617c-1.051,11.672,3.063,20.232,14.541,24.486
	c7.208,2.672,9.564,8.028,9.193,15.506c-0.541,10.911-0.444,21.853-0.62,32.783c-3.531-1.522-7.209-2.777-10.565-4.619
	c-10.041-5.512-15.362-13.76-15.108-25.613c0.26-12.169-0.153-24.351-0.248-36.528
	C2657.611,1557.567,2658.134,1554.895,2660.191,1552.756z"/>
<path fill="#FFFFFF" d="M2973.558,1606.479c-9.078-3.108-20.378-2.204-27.074-12.332c-2.88-4.356-3.092-8.138,0.261-11.954
	c0.726-0.826,1.45-1.673,2.286-2.38c10.864-9.199,33.533-9.592,44.985-0.971c8.555,6.44,8.557,17.837-2.516,22.03
	c-4.104,1.554-8.265,2.968-12.432,4.346C2977.517,1605.73,2975.873,1605.96,2973.558,1606.479z"/>
<path fill="#FFFFFF" d="M2846.07,1529.861c-9.119,0.879-17.569-0.631-24.521-7.292c-4.97-4.762-5.347-9.351-0.915-14.429
	c7.994-9.16,18.494-11.197,29.804-9.672c7.636,1.03,15.133,2.84,20.165,9.873c3.459,4.835,3.679,9.124-0.323,13.311
	C2863.654,1528.58,2855.408,1530.809,2846.07,1529.861z"/>
<path fill="#FFFFFF" d="M2911.008,1536.594c9.058-1.276,17.683,0.796,23.726,9.593c2.36,3.436,2.642,7.448,0.082,10.656
	c-4.568,5.724-9.667,10.444-17.898,9.858c-5.466-0.389-11.003,0.196-16.466-0.219c-6.833-0.519-12.554-3.655-17.068-8.87
	c-3.328-3.846-3.426-8.077-0.118-11.866c4.915-5.629,11.031-8.939,18.622-9.141
	C2904.633,1536.533,2907.38,1536.594,2911.008,1536.594z"/>
<path fill="#FFFBFA" d="M2278.711,1008.833c1.559-0.564,2.398-1.208,3.024-1.043c9.422,2.471,18.831,4.992,28.204,7.643
	c1.996,0.565,2.145,3.207,0.708,5.064c-2.801,3.621-6.501,5.233-10.787,3.927
	C2291.124,1021.761,2283.896,1016.917,2278.711,1008.833z"/>
<path fill="#183E7B" d="M1776.69,702.707c0.014,16.496,0.027,16.473-14.714,8.597c-3.266-1.745-6.4-3.589-8.97-6.33
	c-2.025-2.159-3.594-4.451-3.568-7.539c0.058-6.954,0.045-13.911,0.224-20.862c0.058-2.241,2.412-3.532,4.472-2.392
	c6.065,3.357,12.128,6.742,17.977,10.455c3.28,2.083,4.803,5.429,4.606,9.478C1776.578,696.972,1776.69,699.842,1776.69,702.707z"/>
<path fill="#7594BC" d="M1620.46,677.879c-2.185-0.023-4.009-0.733-5.167-2.715C1617.411,675.312,1619.455,675.607,1620.46,677.879z
	"/>
<path fill="#3768A4" d="M1615.57,1463.893c5.136-10.229,10.316-20.438,15.4-30.693c10.568-21.317,17.873-43.824,24.267-66.665
	c0.654-2.335,1.717-4.556,2.591-6.83c22.416,11.856,44.283,24.671,66.061,37.645c3.864,2.302,7.8,4.501,11.811,6.532
	c2.617,1.326,5.055,2.702,6.351,5.486c-6.495,12.454-15.15,23.441-23.502,34.636c-12.645,16.95-28.187,30.98-44.372,44.401
	c-2.782,2.307-5.768,2.952-9.093,3.14C1648.58,1482.329,1632.075,1473.111,1615.57,1463.893z"/>
<path fill="#D2EAFE" d="M1838.944,1529.391c0,2.871,0.125,5.75-0.029,8.613c-0.221,4.107-2.185,5.578-5.457,3.829
	c-5.778-3.088-11.457-6.383-17.023-9.84c-3.337-2.072-4.975-5.35-4.965-9.357c0.015-6.153-0.118-12.311,0.072-18.458
	c0.139-4.521,2.22-5.594,6.566-3.29c5.067,2.685,9.972,5.677,14.914,8.595c4.279,2.527,6.211,6.316,5.995,11.294
	c-0.125,2.866-0.023,5.743-0.023,8.615C1838.978,1529.391,1838.961,1529.391,1838.944,1529.391z"/>
<path fill="#D2EBFE" d="M1749.244,1476.781c0.807-3.141-2.573-9.379,2.499-12.037c4.282-2.244,8.234,2.447,12.021,4.69
	c13.158,7.793,13.215,5.288,13.099,23.181c-0.024,3.687-0.132,7.393-0.554,11.049c-0.213,1.846-1.983,2.761-3.704,2.214
	c-7.931-2.518-14.808-6.96-21.176-12.206c-1.671-1.376-2.116-3.499-2.164-5.592
	C1749.189,1484.79,1749.244,1481.498,1749.244,1476.781z"/>
<path fill="#3768A4" d="M1670.037,968.114c0.012-42.355,0.024-84.709,0.036-127.068c5.001,0.795,9.147,3.615,13.372,6.033
	c26.634,15.243,53.2,30.604,79.717,46.049c10.241,5.965,20.294,12.25,30.431,18.394c0.155,3.276,0.445,6.547,0.448,9.819
	c0.032,36.078,0.032,72.156-0.003,108.234c-0.003,3.271-0.308,6.541-0.476,9.807c-12.116-6.887-24.247-13.738-36.336-20.664
	c-15.292-8.761-30.569-17.547-45.812-26.393C1697.594,984.305,1683.828,976.189,1670.037,968.114z"/>
<path fill="#3768A4" d="M1669.972,1232.928c0.028-42.955,0.056-85.91,0.084-128.868c10.295,3.192,18.794,9.805,28.043,14.952
	c19.299,10.739,38.345,21.936,57.432,33.052c12.712,7.404,25.315,14.994,37.964,22.506c0.155,19.832,0.314,39.659,0.472,59.486
	c-3.48,10.281-1.82,21.208-4.085,31.754c-1.527,7.112-2.45,14.558-3.224,21.903c-0.382,3.624-1.84,6.251-5.004,7.975
	c-22.793-13.13-45.591-26.257-68.377-39.403c-10.323-5.956-20.565-12.053-30.961-17.878
	C1678.399,1236.213,1674.595,1233.6,1669.972,1232.928z"/>
<path fill="#183E7B" d="M1838.928,739.294c-0.766,3.414,2.195,9.219-1.919,11.799c-4.768,2.991-8.85-2.451-13.256-4.143
	c-0.751-0.289-1.365-0.924-2.107-1.252c-8.202-3.623-11.411-9.855-10.297-18.712c0.457-3.632-0.015-7.372,0.141-11.054
	c0.25-5.913,2.442-7.117,7.99-4.201c4.344,2.284,8.39,5.144,12.771,7.345c5.07,2.548,7.061,6.478,6.705,11.96
	C1838.797,733.486,1838.928,735.954,1838.928,739.294z"/>
<path fill="#D2EBFE" d="M1838.956,1265.942c0.001,2.873,0.116,5.751-0.025,8.617c-0.232,4.699-2.291,6.014-6.273,3.83
	c-5.39-2.956-10.675-6.111-15.928-9.305c-2.531-1.539-4.782-3.844-4.892-6.769c-0.292-7.769-0.154-15.562,0.091-23.337
	c0.054-1.693,1.79-2.964,3.607-2.207c6.823,2.841,13.378,6.226,19.222,10.812c2.716,2.131,4.22,4.965,4.201,8.509
	C1838.94,1259.376,1838.954,1262.659,1838.956,1265.942z"/>
<path fill="#183E7B" d="M1838.94,1002.51c0,2.062-0.052,4.125,0.009,6.186c0.202,6.822-1.156,10.331-9.241,4.669
	c-3.69-2.585-8-4.266-11.887-6.594c-4.146-2.484-6.561-6.044-6.403-11.179c0.178-5.768-0.074-11.549,0.103-17.317
	c0.138-4.507,2.703-6.137,6.399-4.152c5.081,2.729,9.998,5.766,15.086,8.48c4.087,2.18,5.977,5.451,5.908,10.01
	c-0.05,3.298-0.009,6.598-0.009,9.897C1838.918,1002.51,1838.929,1002.51,1838.94,1002.51z"/>
<path fill="#D0E8FC" d="M1771.12,248.601c-0.198,0.73-0.164,1.849-0.632,2.13c-6.664,4.001-13.336,7.999-20.168,11.699
	c-1.182,0.64-3.382,0.41-4.645-0.277c-6.477-3.52-12.853-7.236-19.141-11.083c-1.622-0.992-1.654-3,0.006-4.028
	c5.919-3.662,11.922-7.198,18.002-10.588c2.67-1.489,5.573-1.225,8.243,0.303c5.693,3.257,11.373,6.539,17.008,9.895
	C1770.404,247.017,1770.685,247.938,1771.12,248.601z"/>
<path fill="#D0E8FC" d="M1840.962,289.787c-6.231,4.841-13.481,8.477-20.583,12.33c-1.939,1.052-4.005,0.831-5.885-0.242
	c-6.739-3.849-13.447-7.752-19.796-11.421c0.059-3.951,2.722-4.718,4.75-5.839c22.296-12.317,14.205-12.432,37.069,0.332
	c1.396,0.779,2.601,1.918,3.834,2.962C1840.616,288.132,1840.616,288.669,1840.962,289.787z"/>
<path fill="#D1E9FC" d="M1910.951,329.036c-6.438,5.422-13.576,8.582-20.199,12.538c-2.275,1.359-4.727,1.462-7.033,0.14
	c-6.724-3.853-13.396-7.795-20.746-12.086c6.688-7.011,14.727-10.102,22.196-14c1.228-0.641,3.455-0.43,4.737,0.27
	C1897.004,319.775,1904.591,322.95,1910.951,329.036z"/>
<path fill="#D0E9FC" d="M1980.356,368.801c-6.78,5.589-14.025,9.28-21.222,13.02c-1.895,0.985-4.106,0.88-5.933-0.196
	c-6.666-3.924-13.953-6.872-19.646-12.343c4.689-7.224,13.151-8.932,19.719-13.406c1.73-1.178,4.023-1.266,5.901-0.202
	C1966.222,359.666,1973.796,362.854,1980.356,368.801z"/>
<path fill="#D4ECFF" d="M485.411,1575.331c-4.755-2.757-9.814-5.104-14.201-8.356c-8.804-6.528-14.803-14.302-13.373-26.612
	c1.52-13.085-0.733-26.326,2.889-39.551c2.292-8.37,6.699-13.876,13.451-17.846c22.381-13.162,45.014-25.894,67.457-38.951
	c21.485-12.5,42.841-25.223,64.281-37.801c10.961-6.43,21.994-12.735,32.974-19.132c10.498-6.116,21.042-12.158,31.432-18.453
	c12.99-7.87,26.617-11.953,42.126-13.081c19.121-1.39,34.609,5.899,49.995,14.738c33.529,19.261,66.896,38.807,100.239,58.389
	c21.905,12.864,43.629,26.035,65.483,38.984c8.556,5.07,17.332,9.77,25.832,14.929c3.268,1.984,6.03,4.796,9.051,7.195
	c6.795,5.394,9.025,12.312,6.97,20.681c-2.943,8.846-8.931,14.67-16.992,19.36c-65.533,38.13-130.944,76.47-196.662,114.28
	c-21.481,12.358-44.358,16.999-68.536,7.696c-54.254-28.981-106.547-61.388-159.766-92.189
	c-9.113-5.274-18.514-10.034-27.435-15.644c-8.644-5.435-11.728-2.249-11.915,7.199
	C488.551,1559.281,490.826,1567.884,485.411,1575.331z"/>
<path fill="#B2D3EA" d="M797.046,1661.543c3.806,4.986,9.279,7.787,14.51,10.822c30.175,17.504,60.427,34.874,90.583,52.411
	c3.792,2.205,7.549,4.736,10.661,7.789c7.077,6.941,6.548,16.749-1.174,23.232c-3.801,3.191-7.997,5.994-12.293,8.496
	c-36.361,21.179-72.798,42.229-109.187,63.36c-11.489,6.672-22.817,13.625-34.38,20.162c-8.668,4.9-17.355,9.827-27.181,12.272
	c-13.303,3.311-26.278,3.618-38.625-3.433c-20.194-11.53-40.425-22.996-60.56-34.627c-31.163-18-62.276-36.088-93.369-54.208
	c-6.215-3.621-12.54-7.162-18.29-11.445c-7.535-5.613-8.204-12.118-3.335-20.458c2.043-3.501,4.895-5.904,8.304-7.907
	c10.975-6.452,21.855-13.066,32.857-19.471c22.49-13.094,45.001-26.153,67.592-39.071c4.004-2.289,7.845-4.296,7.668-9.702
	c8.213-3.599,13.287,3.134,19.202,6.249c13.683,7.205,25.795,17.302,40.784,22.134c25.529,7.31,48.593,1.72,71.164-11.422
	C772.85,1670.395,781.944,1658.551,797.046,1661.543z"/>
<path fill="#193F7B" d="M797.046,1661.543c-13.009,7.279-26.205,14.246-38.978,21.918c-15.201,9.13-31.412,13.283-49.096,12.504
	c-7.289-0.321-14.324-1.192-20.956-4.352c-7.924-14.207-7.943-28.463-0.26-42.765c7.072,1.081,14.11,2.666,21.222,3.142
	c17.062,1.141,32.652-3.664,47.315-12.342c26.137-15.469,52.45-30.642,78.698-45.924c35.792-20.84,71.554-41.733,107.414-62.454
	c10.083-5.827,19.784-12.043,27.614-20.805c0.022,10.512-0.262,21.035,0.151,31.531c0.437,11.117-4.498,19.099-13.263,25.124
	c-3.638,2.501-7.515,4.663-11.334,6.891c-44.418,25.92-88.859,51.801-133.254,77.761
	C807.105,1654.82,802.131,1658.276,797.046,1661.543z"/>
<path fill="#396CAA" d="M687.756,1648.848c0.087,14.255,0.173,28.511,0.26,42.765c-12.677-4.092-22.914-12.683-34.517-18.766
	c-7.721-4.048-15.126-8.702-22.672-13.083c-48.472-28.144-96.944-56.288-145.416-84.432c-0.192-12.689-0.453-25.376-0.529-38.065
	c-0.018-3.112,2.981-4.976,5.668-3.493c10.629,5.867,21.205,11.837,31.708,17.928c54.436,31.567,108.847,63.178,163.243,94.814
	C686.4,1647.038,687.01,1648.059,687.756,1648.848z"/>
<path fill="#3D6FAC" d="M786.463,1552.142c-8.009,0.341-15.32-1.931-21.798-6.478c-7.55-5.299-7.818-13.667-0.917-19.445
	c10.836-9.074,33.763-9.431,45.159-0.704c7.75,5.935,7.544,14.862-0.477,20.712C803.344,1549.936,794.973,1552.192,786.463,1552.142
	z"/>
<path fill="#3D6FAC" d="M723.056,1482.274c7.516-0.448,14.992,1.126,21.597,5.692c8.843,6.113,8.656,15.833-0.683,21.345
	c-12.823,7.57-26.179,7.867-39.521,1.283c-2.398-1.183-4.506-3.191-6.368-5.175c-4.281-4.562-4.164-10.271,0.264-14.775
	C705.018,1483.859,713.477,1481.998,723.056,1482.274z"/>
<path fill="#3B6EAB" d="M659.323,1445.389c7.98-0.478,15.41,1.024,21.945,5.708c8.129,5.827,8.124,14.354,0.077,20.456
	c-10.472,7.941-33.306,7.923-43.741-0.034c-8.548-6.518-8.033-15.63,1.253-21.435
	C645.145,1446.154,652.077,1444.878,659.323,1445.389z"/>
<g>
	<path fill="#D4ECFF" d="M2527.451,633.322c-4.755-2.757-9.814-5.104-14.201-8.356c-8.804-6.528-14.802-14.302-13.373-26.612
		c1.52-13.085-0.733-26.326,2.889-39.551c2.292-8.37,6.699-13.876,13.451-17.846c22.381-13.162,45.014-25.894,67.457-38.951
		c21.486-12.5,42.841-25.223,64.281-37.801c10.961-6.43,21.994-12.735,32.974-19.132c10.498-6.116,21.042-12.158,31.432-18.452
		c12.99-7.87,26.617-11.953,42.126-13.081c19.121-1.39,34.609,5.899,49.995,14.738c33.529,19.261,66.896,38.807,100.239,58.389
		c21.905,12.864,43.629,26.035,65.483,38.985c8.556,5.07,17.332,9.77,25.832,14.929c3.268,1.984,6.03,4.796,9.051,7.195
		c6.795,5.394,9.025,12.312,6.97,20.681c-2.943,8.846-8.931,14.67-16.991,19.36c-65.533,38.13-130.944,76.47-196.662,114.28
		c-21.48,12.358-44.358,16.999-68.536,7.696c-54.254-28.981-106.547-61.388-159.766-92.189
		c-9.113-5.274-18.514-10.034-27.436-15.644c-8.644-5.435-11.728-2.249-11.916,7.199
		C2530.591,617.271,2532.866,625.875,2527.451,633.322z"/>
	<path fill="#B2D3EA" d="M2839.086,719.533c3.806,4.986,9.279,7.787,14.51,10.822c30.175,17.504,60.427,34.874,90.583,52.411
		c3.792,2.205,7.549,4.736,10.661,7.789c7.077,6.941,6.548,16.749-1.174,23.232c-3.801,3.191-7.998,5.994-12.293,8.496
		c-36.362,21.179-72.798,42.229-109.187,63.36c-11.489,6.672-22.817,13.625-34.38,20.162c-8.668,4.9-17.355,9.827-27.181,12.272
		c-13.303,3.31-26.278,3.617-38.625-3.433c-20.194-11.53-40.425-22.996-60.56-34.627c-31.163-18-62.276-36.088-93.369-54.208
		c-6.215-3.621-12.54-7.162-18.29-11.445c-7.535-5.612-8.204-12.118-3.335-20.458c2.043-3.501,4.895-5.904,8.304-7.907
		c10.975-6.452,21.855-13.066,32.857-19.471c22.49-13.094,45.001-26.153,67.592-39.071c4.003-2.289,7.845-4.296,7.668-9.702
		c8.213-3.599,13.287,3.134,19.202,6.249c13.683,7.205,25.795,17.302,40.784,22.134c25.529,7.31,48.593,1.72,71.164-11.422
		C2814.89,728.386,2823.984,716.541,2839.086,719.533z"/>
	<path fill="#FDD762" d="M2833.48,1052.954c-0.15-24.922-0.213-49.845-0.474-74.767c-0.244-23.349,8.605-43.072,23.646-60.379
		c12.122-13.947,26.63-24.996,42.586-34.123c25.188-14.406,52.261-23.849,80.547-30.042c38.769-8.49,78.091-9.283,117.293-6.092
		c36.54,2.974,72.063,12.004,105.217,28.118c23.495,11.42,45.543,25.299,61.503,46.853c11.432,15.438,18.281,32.209,19.523,51.919
		c1.185,18.801,1.807,37.553,1.805,56.357c0,4.37,0.706,8.922-2.149,12.842c-9.543-13.215-4.596-26.735-3.001-34.886
		c-11.079,35.412-43.967,56.367-79.614,73.216c-42.681,20.174-88.695,27.351-135.571,29.057
		c-20.008,0.728-20.348,0.96-20.898,20.585c-0.323,11.5,2.277,23.313-2.904,34.427c-4.231,4.603-9.917,4.973-15.402,4.355
		c-53.487-6.025-104.921-18.386-149.245-51.029C2853.786,1102.751,2837.137,1081.948,2833.48,1052.954z"/>
	<path fill="#FDD762" d="M3282.327,1050.02c2.762,6.11,8.888,8.22,14.018,11.24c23.403,13.78,47,27.233,70.525,40.806
		c38.889,22.437,77.783,44.864,116.664,67.315c39.839,23.005,79.658,46.045,119.499,69.048
		c38.881,22.449,77.771,44.884,116.673,67.296c20.651,11.897,41.336,23.737,62.011,35.593c2.345,1.345,5.223,2.066,5.932,5.251
		c-6.08,5.398-13.588,3.968-20.627,3.987c-53.16,0.139-106.328-0.452-159.479,0.284c-28.464,0.394-48.335-17.303-70.091-30.771
		c-9.237-5.718-5.159-15.668-0.701-23.923c2.318-4.293,5.881-9.004,1.951-13.769c-4.321-5.239-9.939-2.951-15.318-1.197
		c-12.916,4.214-32.925-1.868-41.46-12.428c-2.118-2.62-4.909-5.965-3.084-8.904c7.913-12.748-1.929-16.226-10.139-20.805
		c-4.351-2.427-8.806-4.764-12.861-7.606c-10.964-7.685-21.513-7.671-31.97,0.732c-13.594,10.923-26.957,10.387-40.908,0.21
		c-12.953-9.449-28.316-15.052-41.157-24.801c-1.438-2.295-1.716-4.741-0.935-7.313c5.885-7.901,15.82-9.783,23.204-15.512
		c3.988-3.094,6.578-5.603,1.995-10.511c-8.519-9.122-25.408-13.218-36.349-8.284c-19.009,8.572-30.889,4.244-38.813-14.961
		c-4.166-10.098-12.986-13.737-21.875-15.741c-11.226-2.532-22.855-5.854-34.401-4.383c-23.334,2.973-41.838-7.693-60.009-19.502
		c-11.877-7.719-11.926-13.214,0.568-18.06c30.19-11.709,57.716-27.468,82.447-48.434
		C3267.127,1036.829,3275.066,1043.523,3282.327,1050.02z"/>
	<path fill="#E9A502" d="M3342.306,1206.019c10.598,2.091,19.07,8.608,28.203,13.696c9.186,5.117,18.192,10.562,27.189,16.009
		c4.309,2.609,8.297,2.275,12.458-0.251c9.909-6.019,19.877-11.943,29.505-17.715c14.727,8.302,28.69,16.174,42.655,24.042
		c1.926,1.085,3.946,2.025,5.78,3.247c3.389,2.258,3.735,5.734,0.972,8.337c-0.402,0.379-0.797,0.766-1.219,1.121
		c-9.639,8.105-9.6,8.738,1.439,15.117c3.837,2.217,8.147,3.775,11.608,6.453c7.497,5.8,14.372,6.674,22.042,0.142
		c6.551-5.578,13.42-3.283,19.959,0.793c4.875,3.039,5.587,5.238,2.859,10.984c-1.896,3.994-3.999,7.896-6.159,11.755
		c-6.773,12.097-6.228,14.501,5.167,20.963c11.08,6.283,22.521,12.004,33.184,18.925c7.89,5.122,15.955,6.475,25.09,6.424
		c48.792-0.273,97.586-0.172,146.38-0.099c12.745,0.019,25.49,0.397,38.234,0.61c1.64,12.583,0.645,25.211,0.592,37.821
		c-0.013,3.203-1.903,5.026-5.064,5.193c-7.118,0.375-14.244,0.612-21.366,0.905c-6.255,4.85-13.685,3.942-20.8,3.962
		c-44.936,0.126-89.872,0.008-134.808,0.076c-27.43,0.042-48.5-13.1-67.079-31.661c-3.686-3.391-6.638-6.904-6.2-12.59
		c0.374-4.858-0.359-9.8-0.602-14.705c-4.224-2.817-2.835-7.932-4.933-12.289c-14.629,8.117-27.339,6.246-37.386-7.682
		c-2.461-1.849-4.707-4.152-7.432-5.446c-4.777-2.268-7.102-5.81-7.409-10.918c-3.609-4.975-2.846-12.352-7.571-16.323
		c-14.279-12-26.718-20.51-42.225-7.277c-14.402,12.289-28.698,11.178-43.373,0.21c-8.705-6.506-20.133-9.236-26.486-19.05
		c-13.525-9.804-13.495-9.805-13.772-27.597c-0.05-3.24-0.452-6.474-0.691-9.712
		C3338.276,1214.697,3338.391,1210.18,3342.306,1206.019z"/>
	<path fill="#E8A301" d="M3282.327,1050.02c-4.019,0.343-7.795-0.414-10.899-3.072c-4.192-3.589-7.828-3.125-11.535,0.791
		c-6.508,6.875-14.158,12.371-21.985,17.619c-18.903,12.674-38.72,23.577-60.271,31.14c-3.074,1.079-6.026,2.506-9.69,4.047
		c4.149,5.774,10.076,7.59,14.8,11.031c16.823,12.25,35.305,16.933,56.114,15.477c10.31-0.722,21.177,0.507,31.179,3.16
		c9.449,2.507,17.671,8.766,25.562,14.812c1.288,0.987,2.514,2.84,1.255,4.324c-4.925,5.807-1.804,8.594,3.568,11.106
		c3.493,1.633,6.876,3.622,10.013,5.865c3.679,2.632,6.712,2.195,10.57,0.013c23.099-13.063,14.995-12.871,40.036,0.083
		c5.357,2.771,10.319,6.386,15.177,9.997c1.845,1.371,2.277,4.264-0.126,5.594c-11.072,6.126-20.812,14.797-33.556,17.753
		c-16.48,18.212-27.506,19.632-43.326,5.581c-1.242-0.68-2.483-1.36-3.725-2.04c-11.918-22.847-31.767-26.915-55.567-26.092
		c-18.632,0.645-37.507-2.516-53.742-13.704c-10.33-7.119-21.268-7.247-33.214-4.071c-31.081,8.265-62.691,13.141-95.007,11.623
		c-6.45-0.302-13.493,0.945-18.264-5.324c-0.053-16.604-0.251-33.209-0.098-49.811c0.076-8.221,1.368-9.249,9.946-9.529
		c4.976-0.163,9.967,0.094,14.942-0.073c46.154-1.548,91.067-9.252,133.554-28.053c15.697-6.947,30.639-15.561,43.822-26.61
		c16.651-13.955,30.739-30.102,38.897-54.253c2.851,17.405-0.219,32.002,2.222,46.236
		C3282.76,1045.766,3282.543,1047.893,3282.327,1050.02z"/>
	<path fill="#193F7B" d="M2839.086,719.534c-13.009,7.279-26.205,14.247-38.979,21.918c-15.201,9.13-31.412,13.283-49.096,12.504
		c-7.289-0.321-14.323-1.192-20.956-4.352c-7.924-14.207-7.943-28.463-0.26-42.765c7.072,1.081,14.11,2.666,21.222,3.142
		c17.063,1.141,32.652-3.664,47.314-12.342c26.137-15.469,52.45-30.642,78.698-45.924c35.792-20.84,71.554-41.733,107.414-62.455
		c10.083-5.827,19.784-12.043,27.614-20.805c0.022,10.512-0.262,21.035,0.15,31.531c0.437,11.117-4.498,19.099-13.263,25.125
		c-3.638,2.501-7.515,4.663-11.334,6.891c-44.418,25.92-88.859,51.801-133.254,77.761
		C2849.145,712.811,2844.171,716.267,2839.086,719.534z"/>
	<path fill="#396CAA" d="M2729.796,706.838c0.087,14.255,0.173,28.511,0.26,42.765c-12.677-4.092-22.915-12.683-34.517-18.766
		c-7.721-4.048-15.125-8.701-22.672-13.083c-48.472-28.144-96.943-56.288-145.416-84.432c-0.192-12.689-0.453-25.376-0.529-38.065
		c-0.019-3.112,2.981-4.976,5.668-3.493c10.629,5.867,21.205,11.837,31.708,17.928c54.437,31.567,108.847,63.178,163.243,94.814
		C2728.44,705.029,2729.05,706.05,2729.796,706.838z"/>
	<path fill="#B3D3E9" d="M3039.692,1165.732c39.033,3.262,77.446-0.745,114.925-11.661c12.144-3.537,22.25-3.457,32.364,4.342
		c12.229,9.43,26.355,13.208,41.75,13.298c11.616,0.068,23.224,1.089,34.844,1.415c5.638,0.158,10.787,1.145,15.819,4.005
		c7.481,4.251,14.425,8.223,12.825,18.801c-0.339,2.239,2.103,4.899,3.266,7.366c-4.635-0.227-8.391-2.794-12.185-4.958
		c-10.385-5.921-21.723-7.896-33.379-8.364c-9.953-0.399-19.927-0.306-29.893-0.294c-6.721,0.008-12.888-0.641-18.765-4.984
		c-6.172-4.561-13.691-7.258-20.104-11.544c-6.136-4.1-12.653-4.72-19.044-2.71c-17.962,5.649-36.598,7.842-54.939,11.522
		c-4.296,0.862-8.784,1.029-13.187,1.055c-21.59,0.126-43.192-0.305-64.769,0.266c-13.984,0.37-27.571-2.19-41-4.829
		c-27.129-5.33-53.525-13.614-78.389-25.89c-26.204-12.937-48.489-30.796-64.438-55.674c-8.534-13.311-13.441-27.805-11.916-43.941
		c3.271,7.538,6.146,15.278,9.886,22.574c8.756,17.079,22.108,30.189,37.365,41.466c30.856,22.807,66.186,35.099,103.277,42.533
		C3002.296,1163.192,3020.681,1167.768,3039.692,1165.732z"/>
	<path fill="#B7D5E9" d="M3539.123,1362.865c13.531,5.199,25.221,13.777,37.726,20.835c7.505,4.235,14.933,6.286,23.587,6.236
		c47.708-0.276,95.419-0.156,143.129-0.1c6.085,0.007,12.169,0.425,18.25,0.653c4.195,5.558,10.914,7.264,16.427,10.815
		c2.074,1.336,5.879,1.959,4.573,5.591c-1.172,3.258-4.656,2.072-7.237,2.305c-2.19,0.197-4.411,0.06-6.618,0.06
		c-55.734,0.001-111.468-0.084-167.202,0.089c-8.5,0.027-15.936-1.398-23.291-6.313c-10.964-7.327-23.076-12.919-34.194-20.038
		c-8.154-5.222-11.136-4.299-5.952-16.927C3538.733,1365.063,3538.862,1363.936,3539.123,1362.865z"/>
	<path fill="#B4D3E8" d="M3355.506,1256.794c14.362,5.892,27.037,14.853,40.46,22.441c5.397,3.051,9.785,3.58,15.156,0.058
		c7.379-4.837,15.36-8.75,22.832-13.456c5.218-3.286,9.912-4.038,15.265-0.302c4.059,2.833,8.377,5.56,12.97,7.314
		c12.737,4.863,15.645,14.161,12.971,26.39c-9.024-5.209-18.419-9.883-26.933-15.818c-5.188-3.616-9.108-2.388-13.553,0.116
		c-7.648,4.309-15.277,8.653-22.848,13.096c-6.302,3.698-11.925,3.497-18.392-0.565c-14.858-9.333-30.219-17.866-45.334-26.794
		c-1.345-0.794-2.385-2.104-3.55-3.158C3346.395,1260.553,3352.737,1260.793,3355.506,1256.794z"/>
	<path fill="#B4D3E7" d="M3490.002,1315.598c5.82,2.901,11.702,5.684,17.434,8.749c3.16,1.69,5.993,1.885,9.211,0.158
		c4.719-2.533,9.075-5.966,14.773-6.929c2.352,6.183,1.754,12.087,0.9,17.999c-3.573,1.416-7.378,2.437-10.67,4.345
		c-6.355,3.684-12.354,4.019-18.709,0.08c-6.561-4.066-13.391-7.696-19.968-11.736c-3.351-2.058-3.256-4.917,0.241-7.995
		C3485.262,1318.468,3487.726,1317.14,3490.002,1315.598z"/>
	<path fill="#BAD4E0" d="M3299.211,1205.339c6.626,0.881,11.3,8.432,18.146,6.685c5.712-1.457,10.734-5.541,16.143-8.303
		c2.923-1.493,6.016-2.654,9.034-3.964c-0.075,2.089-0.153,4.178-0.229,6.264c-0.42,4.489-0.842,8.981-1.263,13.468
		c-5.419,2.443-11.047,4.522-16.203,7.434c-6.358,3.59-12.271,3.674-18.385-0.208c-1.827-1.16-3.831-2.04-5.733-3.085
		c-6.988-3.84-7.124-3.961-1.494-10.78C3301.54,1210.048,3299.366,1207.826,3299.211,1205.339z"/>
	<path fill="#3D6FAC" d="M2828.503,610.133c-8.01,0.341-15.32-1.931-21.798-6.478c-7.55-5.299-7.818-13.667-0.917-19.445
		c10.836-9.074,33.763-9.431,45.159-0.704c7.75,5.935,7.544,14.862-0.477,20.712
		C2845.384,607.927,2837.013,610.182,2828.503,610.133z"/>
	<path fill="#3D6FAC" d="M2765.096,540.264c7.516-0.448,14.992,1.126,21.596,5.692c8.843,6.113,8.656,15.833-0.683,21.345
		c-12.823,7.57-26.178,7.867-39.521,1.283c-2.398-1.183-4.506-3.191-6.368-5.175c-4.281-4.562-4.164-10.271,0.264-14.775
		C2747.058,541.849,2755.517,539.988,2765.096,540.264z"/>
	<path fill="#3B6EAB" d="M2701.363,503.379c7.979-0.478,15.41,1.024,21.945,5.708c8.129,5.827,8.124,14.354,0.077,20.456
		c-10.472,7.941-33.305,7.923-43.741-0.034c-8.548-6.518-8.033-15.631,1.253-21.435
		C2687.185,504.144,2694.117,502.869,2701.363,503.379z"/>
	<path fill="#F2B42A" d="M3039.637,880.087c3.26-0.542,6.641-0.709,9.752-1.711c4.928-1.587,9.952-2.17,14.69-0.472
		c6.49,2.326,13.128,2.562,19.688,2.024c13.476-1.106,26.472,2.237,39.372,4.578c18.953,3.44,37.601,8.92,55.234,17.031
		c19.703,9.063,37.795,20.43,53.4,35.861c11.903,11.77,18.351,26.152,23.099,41.563c1.976,6.412,1.009,12.903-1.637,19.413
		c-10.234,25.177-27.797,43.591-51.188,56.75c-30.174,16.976-62.36,27.112-96.813,32.068c-27.151,3.906-54.1,1.535-81.118,2.522
		c-36.699-5.534-72.566-13.627-105.473-31.909c-17.806-9.893-31.831-23.945-44.506-39.317
		c-12.574-15.249-15.959-33.641-14.322-53.012c0.169-2.005,1.794-3.887,2.743-5.827c36.923-56.446,94.675-73.961,156.576-83.45
		C3026.068,875.136,3033.603,874.635,3039.637,880.087z"/>
	<path fill="#E8A302" d="M3039.637,880.087c-47.453,0.14-91.021,13.332-131.144,38.559c-17.589,11.059-32.054,24.88-41.702,43.454
		c-0.756,1.456-1.929,2.646-3.346,0.719c-0.606-0.825-0.604-2.096-0.883-3.167c1.992-15.009,10.677-26.487,20.122-37.428
		c11.773-13.638,26.779-23.146,42.436-31.583c22.614-12.186,46.947-19.306,72.122-23.964c10.911-2.019,21.772-3.925,32.916-3.507
		c7.433,0.279,8.468,1.183,9.164,8.607C3039.582,874.533,3039.541,877.316,3039.637,880.087z"/>
	<path fill="#EDAB14" d="M3686.036,1311.764c-4.166,1.054-7.68,2.039-11.238,2.827c-11.658,2.582-22.239,1.741-33.206-4.798
		c-47.034-28.043-94.519-55.334-141.938-82.726c-33.054-19.094-66.339-37.789-99.397-56.876
		c-39.758-22.956-79.384-46.139-119.064-69.228c-1.435-0.835-2.901-1.633-4.251-2.591c-4.626-3.282-4.455-7.42,0.291-10.536
		c6.969-4.574,13.85-6.216,21.677-1.459c9.914,6.024,20.277,11.305,30.329,17.109c42.118,24.318,84.182,48.729,126.285,73.073
		c36.36,21.023,72.78,41.942,109.109,63.02c32.024,18.58,63.952,37.325,95.936,55.973
		C3669.035,1300.486,3678.738,1303.487,3686.036,1311.764z"/>
	<path fill="#B2D3E9" d="M3065.261,960.624c1.083,5.087-1.856,8.342-5.276,11.277c-9.495,8.149-20.871,12.397-32.954,14.136
		c-14.831,2.135-29.704,1.455-44.078-3.391c-8.424-2.84-15.945-7.143-22.361-13.587c-4.235-4.253-2.554-7.826-0.428-11.843
		c0.609-5.688,4.811-8.661,9.187-10.868c29.149-14.702,58.237-14.688,86.905,1.334
		C3061.101,950.39,3065.149,954.305,3065.261,960.624z"/>
	<path fill="#E8A303" d="M3065.261,960.624c-25.569-27.405-79.787-26.019-105.097-3.408c-5.758-4.341-5.039-9.558-1.319-14.488
		c7.24-9.593,16.92-16.085,28.54-18.841c5.314-1.26,10.774-2.526,16.168-3.238c18.167-2.399,35.112,2.727,51.057,10.816
		c4.713,2.391,8.751,6.961,11.894,11.388C3070.61,948.639,3071.452,955.112,3065.261,960.624z"/>
</g>
<path fill="#7493BC" d="M1776.525,963.821c0,4.869,0.163,8.567-0.048,12.244c-0.196,3.409-3.105,4.9-6.174,3.146
	c-4.969-2.84-9.955-5.693-14.661-8.937c-4.234-2.918-6.779-6.896-6.364-12.496c0.363-4.896-0.017-9.844,0.211-14.755
	c0.192-4.136,2.823-5.581,6.827-3.889c2.259,0.954,4.306,2.445,6.598,3.284C1773.552,946.306,1779.379,953.034,1776.525,963.821z"/>
<path fill="#183E7B" d="M1776.464,1227.024c0,4.882,0.152,8.595-0.051,12.288c-0.149,2.708-2.956,4.495-5.351,3.199
	c-6.493-3.513-12.879-7.242-19.133-11.163c-1.18-0.74-2.158-2.745-2.2-4.197c-0.217-7.403-0.206-14.819-0.036-22.224
	c0.062-2.709,2.777-4.25,5.382-3.212c2.669,1.063,5.208,2.449,7.807,3.688C1772.481,1209.976,1780.055,1215.777,1776.464,1227.024z"
	/>
</svg>
