<?xml version="1.0" encoding="utf-8"?>
<!-- Generator: Adobe Illustrator 17.0.0, SVG Export Plug-In . SVG Version: 6.00 Build 0)  -->
<!DOCTYPE svg PUBLIC "-//W3C//DTD SVG 1.1//EN" "http://www.w3.org/Graphics/SVG/1.1/DTD/svg11.dtd">
<svg version="1.1" id="Layer_1" xmlns="http://www.w3.org/2000/svg" xmlns:xlink="http://www.w3.org/1999/xlink" x="0px" y="0px"
	 width="4000px" height="2000px" viewBox="0 0 4000 2000" enable-background="new 0 0 4000 2000" xml:space="preserve">
<g>
	<path fill="#5585FE" d="M1679.223,88.167c20.893-27.606,47.501-45.953,82.404-50.861c2.72-1.421,5.989,0.584,8.623-1.378
		c3.343,0,6.687,0,10.03,0c3.343,1.367,6.687,1.367,10.03,0c0.557,0,1.114,0,1.672,0c3.671,2.888,8.324,2.227,12.475,3.388
		c35.848,10.026,56.046,34.481,63.915,69.86c1.087,4.887,3.12,7.01,7.158,8.869c20.715,9.532,41.387,19.181,60.66,31.481
		c3.73,2.38,7.156,5.278,10.524,8.168c2.286,1.962,5.102,4.176,3.859,7.676c-1.329,3.742-5.026,2.949-7.944,2.847
		c-14.005-0.49-27.367-4.474-40.825-7.855c-11.566-2.906-23.076-6.038-34.61-9.07c-4.904,1.637-9.28-0.806-13.653-2.121
		c-24.382-7.33-48.477-15.577-72.842-22.966c-3.579-1.414-7.269-2.503-10.94-3.657c-26.199-8.558-52.068-18.078-78.233-26.734
		C1686.908,94.287,1681.567,93.523,1679.223,88.167z"/>
	<path fill="#82A6FE" d="M1790.309,35.928c-3.343,2.747-6.687,2.353-10.03,0C1783.623,35.928,1786.966,35.928,1790.309,35.928z"/>
	<path fill="#9FBAFE" d="M1770.25,35.928c-2.537,2.563-5.654,1.503-8.622,1.379c0.094-0.459,0.182-0.918,0.264-1.379
		C1764.677,35.928,1767.464,35.928,1770.25,35.928z"/>
	<path fill="#F2F2F2" d="M566.669,1089.056c-0.393-5.729,3.672-5.017,7.246-5.017c18.204-0.001,36.408-0.002,54.612-0.004
		c1.738,1.26,3.747,0.846,5.658,0.845c82.634-0.028,165.268,0.109,247.901-0.057c8.482-3.14,17.264-1.373,25.926-1.593
		c59.256-0.375,118.512-0.425,177.763-0.003c11.005-0.533,22.076,0.772,33.038-1.156c21.971-1.504,43.969-0.48,65.954-0.644
		c13.078-0.098,26.169-0.541,39.224,0.347c6.109,0.578,9.688,5.014,13.407,9.089c18.126,19.865,35.731,40.345,55.686,58.315
		c17.068,15.371,22.189,34.343,22.987,55.749c-0.309,6.792-2.999,13.126-3.794,19.82c-0.422,2.819-2.37,5.603-0.243,8.663
		c3.178-1.439,3.843-4.537,5.176-7.136c2.021-6.107,3.759-12.29,5.406-18.503c1.887-4.172,3.02-8.571,3.94-13.038
		c1.813-6.057,0.874-13.137,6.573-17.745c3.704-0.541,5.324,2.286,7.198,4.583c7.185,8.807,10.454,19.189,12.175,30.226
		c0.351,2.254-0.501,6.131,2.493,6.181c3.468,0.058,2.859-3.952,3.392-6.493c0.167-0.797,0.098-1.644,0.127-2.474
		c0.249-2.455,0.185-5.04,2.663-6.583c0.863-0.112,1.563,0.21,2.223,0.763c1.78,1.49,2.435,5.384,5.429,4.109
		c3.472-1.479,1.304-4.784,0.917-7.344c-0.251-1.66-0.827-3.608,0.262-4.833c5.366-6.037,1.214-10.633-2.008-15.467
		c-6.153-9.229-13.098-17.789-21.075-25.515c-2.363-2.289-4.972-4.445-6.096-7.752c-1.048-9.437,3.225-17.903,4.967-26.825
		c1.006-5.156,2.255-10.305,3.976-15.292c0.766-2.89,2.07-5.679,1.916-8.768c-0.069-1.376-0.286-2.859-1.93-3.24
		c-1.513-0.35-2.645,0.498-3.375,1.747c-1.816,3.11-2.658,6.576-3.493,10.048c-2.211,8.544-4.202,17.131-6.454,25.654
		c-0.777,2.942-1.259,5.966-3.849,8.022c-6.1,0.144-7.837-4.05-8.899-8.926c1.213-11.656,6.513-22.173,9.539-33.34
		c1.737-6.409-0.103-7.54-5.982-7.561c-11.011-0.038-22.07,1.099-33.052-0.748c-1.278-0.668-2.371-1.45-1.91-3.163
		c48.476,0.014,96.953,0.123,145.428-0.069c6.779-0.027,9.271,1.513,10.247,9.076c3.604,27.914-0.46,55.348-4.136,82.719
		c-3.914,29.135-11.168,57.631-21.029,85.395c-17.07,48.064-41.036,92.014-74.64,130.832
		c-34.568,39.931-75.555,71.161-122.874,93.906c-42.97,20.655-88.4,33.568-135.531,41.505
		c-51.238,8.629-102.794,9.943-154.272,7.575c-66.467-3.058-129.993-19.62-187.993-53.177
		c-49.016-28.358-87.352-67.988-116.305-116.652c-29.324-49.286-47.096-102.828-57.276-158.936
		c-2.998-16.525-5.916-33.269-5.558-50.263c-1.951-2.509,0.392-5.87-1.659-8.359c-0.005-6.129-0.009-12.259-0.014-18.388
		C565.36,1115.794,565.36,1102.425,566.669,1089.056z"/>
	<path fill="#FED1D5" d="M3020.544,828.05c3.129-3.826,3.653-8.668,4.739-13.17c8.331-34.535,24.331-65.126,46.753-92.539
		c2.745-3.356,4.647-7.401,6.94-11.127c19.885-13.177,39.28-27.084,60.166-38.747c25.376-14.17,52.338-22.739,81.338-24.883
		c2.602-0.192,4.957,0.284,7.193,1.552c6.158,3.466,13.264,3.137,19.877,4.719c41.865,10.017,73.247,34.889,98.056,68.814
		c31.205,42.672,47.881,91.55,59.555,142.498c6.92,30.2,11.969,60.674,15.036,91.493c1.066,10.719,2.254,21.426,3.387,32.139
		c1.761,2.564-0.408,5.852,1.542,8.381c0.043,5.008,0.086,10.016,0.129,15.024c1.933,3.72-0.591,8.027,1.545,11.72
		c0.038,6.679,0.076,13.357,0.114,20.036c2.101,7.138-0.735,14.629,1.559,21.754c0,27.817,0,55.633,0,83.45
		c-2.344,8.252,0.591,16.832-1.559,25.096c-0.038,8.88-0.075,17.76-0.114,26.64c-9.251,2.169-18.634,0.458-27.943,0.942
		c-11.271,0.586-22.602-1.032-33.841,0.885c-3.477,1.352-7.125,1.021-10.719,1.023c-82.248,0.048-164.497-0.023-246.745,0.042
		c-2.762,0.002-5.581,0.31-8.155-1.114c0.001-1.165,0.002-2.33,0.002-3.494c4.53-26.298,9.688-52.532,10.675-79.285
		c2.794-75.755-6.819-150.009-27.536-222.869c-1.422-5.001-0.84-10.447-3.506-15.144c-2.513-2.405-1.17-5.554-1.611-8.358
		c3.028-10.054,2.551-10.841-6.73-16.295C3054.018,847.432,3036.963,838.288,3020.544,828.05z"/>
	<path fill="#5585FE" d="M3099.397,1202.678c3.301-2.185,7.027-1.359,10.583-1.361c84.957-0.072,169.913-0.095,254.87-0.126
		c0.791,0.276,1.258,0.827,1.401,1.652c1.353,10.02,2.705,20.04,4.058,30.061c0.797,10.526,0.813,21.052-0.01,31.577
		c-5.734,40.078-16.291,79.038-27.528,117.823c-8.649,29.854-17.791,59.573-19.829,90.856c-0.072,1.098,0.072,2.209,0.116,3.315
		c-1.682,3.293,0.091,6.996-1.227,10.333c-0.886,14.548-0.965,29.097,0,43.645c1.453,4.435-0.627,9.195,1.25,13.592
		c0.138,2.712,0.275,5.423,0.412,8.135c1.292,2.707-0.433,5.868,1.28,8.512c0.421,19.784,5.716,38.813,9.042,58.146
		c0.784,4.56,1.995,9.047,3.01,13.568c1.353,2.725-0.368,5.915,1.3,8.593c0.142,2.713,0.283,5.426,0.425,8.138
		c1.31,3.338-0.456,7.039,1.222,10.333c0.15,5.471,0.3,10.943,0.449,16.414c1.524,8.965-0.7,18.101,1.224,27.048
		c0,17.011,0.001,34.021,0.001,51.032c-1.991,11.749,0.373,23.652-1.249,35.414c-0.141,7.698-0.282,15.395-0.423,23.093
		c-1.945,6.696,0.341,13.652-1.253,20.37c-0.14,5.468-0.28,10.937-0.42,16.405c-1.856,5,0.238,10.315-1.225,15.346
		c-0.197,3.305-0.394,6.609-0.591,9.914c-0.528,3.676-1.243,7.263-6.013,7.445c-15.711,0.601-31.423,0.969-47.124-0.243
		c-1.402-0.108-2.574-0.933-3.541-1.975c-5.463-26.603-10.989-53.193-16.375-79.811c-13.215-65.311-26.847-130.528-42.626-195.281
		c-3.55-14.569-5.983-29.366-7.443-44.306c4.792-13.607,12.322-26.014,16.426-40.002c12.471-42.508,13.11-85.309,5.359-128.633
		c-4.627-25.857-13.582-50.356-22.105-75.007c-0.16-0.666-0.091-1.344,0.012-2.023c-0.358,0.44-0.479,0.941-0.509,1.495
		c-0.097,1.768-1.159,2.942-2.503,3.926c-16.609,48.025-35.364,95.341-47.504,144.837c-10.128,41.291-14.968,82.915-11.879,125.592
		c3.426,47.329-1.465,94.388-7.062,141.415c-7.542,63.371-24.462,124.744-38.092,186.825c-0.107,0.489-0.626,0.887-0.954,1.328
		c-0.462,0.305-0.894,0.811-1.39,0.885c-18.389,2.732-36.803,2.165-55.22,0.311c-0.852-0.086-1.355-0.913-1.986-1.441
		c-0.724-53.423-1.321-106.848-2.208-160.269c-0.942-56.754-1.993-113.507-3.329-170.253c-0.635-26.957-4.103-53.805-3.052-80.848
		c1.652-42.478,10.986-83.664,20.864-124.73c14.027-58.316,29.297-116.34,40.66-175.273
		C3099.063,1206.564,3099.169,1204.609,3099.397,1202.678z"/>
	<path fill="#B8D3FE" d="M1910.635,626.599c13.179,1.543,26.44,2.479,38.66,8.608c14.886,7.466,21.861,19.781,23.267,35.902
		c2.123,24.341-2.451,47.996-7.478,71.554c-12.547,58.801-29.134,116.69-40.079,175.847c-7.905,42.726-15.217,85.562-22.771,128.352
		c-6.447,36.524-12.824,73.06-19.318,109.575c-1.643,9.238-2.03,18.736-5.532,27.604c-2.867,3.278-6.556,2.465-10.167,2.073
		c-11.026-2.332-22.191-0.736-33.287-1.094c-10.584-0.342-12.548-1.643-14.013-12.263c-4.375-31.706-6.975-63.558-9-95.516
		c-2.082-32.851-1.857-65.689-1.17-98.483c1.682-80.298,10.69-159.86,27.22-238.514c0.286-1.362,0.572-2.728,0.956-4.065
		c1.335-4.654-0.638-5.432-4.691-4.228c-8.54,2.537-16.981,5.446-25.639,7.532c-10.742,2.588-20.953,7.717-32.414,6.956
		c-22.443,4.983-44.801,10.398-67.35,14.842c-30.451,6.001-61.124,10.201-92.18,12.378c-27.75,1.945-55.003,1.085-81.484-7.278
		c-42.924-13.554-65.599-44.705-73.045-87.924c-3.275-19.009-2.653-38.172-0.11-57.267c2.481-2.882,5.943-2.836,9.238-2.836
		c49.188-0.005,98.376-0.387,147.561,0.156c21.663-0.276,43.329-0.396,64.991,0.017c10.507-0.31,21.017-0.117,31.526,0.056
		c3.14-0.262,6.238,0.067,9.319,0.641c11.622,2.217,23.343,0.771,35.02,0.92c9.349,0.085,18.716-0.633,28.038,0.629
		c11.732,2.453,23.587,0.834,35.386,1.047c9.393,0.06,18.803-0.636,28.17,0.623c12.345,2.476,24.804,0.832,37.213,1.012
		C1895.213,624.363,1903.568,620.759,1910.635,626.599z"/>
	<path fill="#FD645D" d="M1618.138,620.741c-48.502,0.052-97.004,0.097-145.506,0.168c-3.874,0.006-7.749,0.186-11.623,0.285
		c-18.926-0.119-37.854-0.426-56.776-0.24c-5.556,0.055-7.263-1.381-6.389-7.075c11.753-76.562,28.114-151.941,58.013-223.762
		c17.137-41.165,38.105-79.953,73.442-108.865c26.404-21.603,55.856-36.28,90.588-38.338c20.058-4.875,38.374,1.754,56.628,8.646
		c2.85,1.076,5.522,2.623,8.223,4.044c6.462,4.495,14.532,6.904,18.787,14.31c42.296,35.122,62.157,82.794,74.868,134.363
		c2.719,11.032,4.306,22.341,6.547,33.495c1.077,5.357,0.287,8.453-6.367,7.821c-5.505-0.523-11.109-0.006-16.669,0.049
		c-3.833,3.073-8.412,2.309-12.791,2.418c-19.116,0.477-38.258-0.882-57.33,0.8c-4.268,1.672-4.79,5.907-6.191,9.409
		c-20.374,50.934-41.227,101.676-61.434,152.677C1622.725,614.563,1621.581,618.36,1618.138,620.741z"/>
	<path fill="#FDCA00" d="M1086.543,1085.428c-59.612,0-119.224,0-178.835,0c-3.228-3.554-3.319-8.129-3.957-12.483
		c-6.963-47.538-13.78-95.097-21.085-142.584c-1.412-9.177-1.661-18.424-2.467-28.065c-0.487,4.891,2.069,9.527-0.136,13.973
		c-0.693,0.953-1.468,1.026-2.327,0.226c-0.116-11.004-0.232-22.008-0.347-33.011c-1.945-6.441-6.663-10.262-12.133-13.742
		c-9.985-6.352-19.82-12.953-29.55-19.698c-1.79-1.411-3.919-2.494-4.786-4.822c-12.104-7.429-13.518-3.886-6.581-17.963
		c6.928-14.058,15.031-27.258,24.716-39.532c0.748-1.399,0.572-3.147,1.652-4.43c22.331-28.381,50.813-48.435,84.425-61.035
		c11.218-4.205,22.654-9.224,35.324-6.917c3.198,2.31,2.851,5.813,2.97,9.104c0.161,4.448-0.109,8.907,0.132,13.352
		c0.783,14.427,8.588,22.117,26.494,26.202c18.801,0.14,27.311-8.152,28.924-28.328c0.589-7.366,0.311-14.871,3.98-21.674
		c4.924-2.111,9.349-1.063,13.437,2.114c24.26,4.91,47.97,11.424,69.601,23.965c34.85,20.206,59.793,48.855,74.632,86.452
		c3.107,7.872,3.569,13.541-5.332,16.989c-1.773,4.399-6.342,5.408-9.631,7.974c-11.218,6.546-21.949,13.916-33.312,20.184
		c-5.137,2.833-8.141,6.272-8.206,12.146c-0.339,0.797-0.761,1.533-1.241,2.247c-14.399,62.908-27.513,126.082-41.634,189.035
		C1090.426,1078.87,1090.155,1082.922,1086.543,1085.428z"/>
	<path fill="#478D86" d="M1780.215,1717.727c5.236,0.116,8.482-3.802,12.151-6.45c16.847-12.157,33.411-24.705,50.161-36.997
		c19.378-14.22,41.138-22.51,64.914-25.648c3.594-1.102,5.297,1.349,6.319,3.921c7.062,17.762,15.881,34.821,21.384,53.214
		c-0.548,11.918-0.155,23.85-4.042,35.497c-8.707,26.09-25.538,44.05-51.681,52.804c-28.781,9.637-58.067,17.665-86.921,27.101
		c-24.351,7.963-48.785,15.67-72.851,24.462c-4.762,1.74-9.793,2.03-14.507,3.723c-45.616,0.466-91.234,1.636-136.751-3.072
		c-32.125-3.323-45.055-15.845-49.036-48.028c-4.13-33.389,1.519-65.97,7.761-98.491c9.762-50.852,25.082-100.166,41.673-149.124
		c1.84-5.429,4.307-10.913,2.684-16.958c6.76-26.87,15.735-53.136,21.844-80.186c5.853-16.497,9.689-33.577,14.62-50.34
		c1.233-4.192,1.901-8.816,6.484-11.102c5.52-1.383,10.232,1.543,15.203,2.95c13.813,3.91,27.561,8.045,41.351,12.038
		c3.134,0.907,6.607,1.366,8.205,4.898c-5.373,41.671-9.625,83.463-13.487,125.296c-0.145,1.566,0.586,3.212,0.908,4.821
		c0.656,17.557-2.28,34.897-3.415,52.342c-0.523,8.032-0.819,16.1-1.437,24.139c-1.839,23.96-10.03,46.126-18.239,68.324
		c-9.656,24.609-20.461,48.667-35.072,71.888c24.532,0.296,48.701-0.988,72.806-3.825c29.794-1.562,56.303-12.911,81.833-27.296
		C1768.83,1724.391,1773.844,1719.881,1780.215,1717.727z"/>
	<path fill="#5585FE" d="M970.032,715.757c-44.832,6.515-81.255,28.261-111.355,61.466c-2.414,2.663-4.874,5.285-7.313,7.925
		c-5.716,0.775-11.431,0.815-17.142-0.05c-25.324-2.131-42.196-14.918-50.491-39.208c-1.129-3.305-0.544-6.546-1.682-9.634
		c-0.895-6.072-0.842-12.144-0.024-18.218c0.115-13.199,7.818-23.172,14.361-33.614c7.669-12.24,16.248-23.963,18.583-38.825
		c2.045-13.008-1.128-25.517-3.252-38.065c-2.344-13.843,1.299-25.445,11.259-34.917c6.641-6.316,13.782-12.148,21.017-17.788
		c11.24-8.763,17.315-19.468,17.197-34.281c-0.203-25.546,12.035-37.827,37.993-39.931c4.709-0.382,9.397-1.028,14.107-1.409
		c11.742-0.952,19.854-6.717,26.066-16.88c12.643-20.681,29.945-35.747,54.48-40.859c10.286-2.143,20.795-2.372,30.513,1.315
		c21.178,8.037,43.263,12.38,65.145,17.624c7.328,1.756,14.378,4.301,21.036,7.884c18.429,9.918,26.498,26.332,25.789,46.203
		c-0.474,13.302,3.487,22.169,13.034,31.587c30.496,30.082,29.425,75.85-0.905,104.167c-4.809,4.49-10.284,7.771-16.594,9.216
		c-14.519,3.325-22.016,12.946-25.459,26.767c-2.224,8.926-5.163,17.612-10.763,25.148c-10.493,14.118-25.355,20.262-42.012,23.15
		c-2.436,0.422-5.055-0.038-7.226,1.585c-4.397-0.417-8.794-0.835-13.191-1.252c-2.179-1.768-2.543-4.319-2.487-6.797
		c0.204-8.898-0.993-17.717-1.289-26.573c0.544-3.59,2.965-5.145,6.286-5.644c20.269-3.045,31.89-16.695,41.127-33.367
		c2.94-5.306,4.443-11.495,9.374-15.612c6.806-2.247,14.068-3.158,19.996-7.874c19.998-15.908,19.324-42.091-1.598-57.312
		c-2.668-1.941-5.96-3.138-7.583-6.342c-0.99-2.332-1.22-4.845-1.742-7.285c-2.472-11.554-3.276-12.448-14.843-11.625
		c-19.168,1.364-31.656,12.202-39.407,29.092c-6.408,13.963-9.47,29.034-13.951,43.634c-3.376,10.999-7.91,21.296-16.175,29.702
		c-7.507,7.634-16.654,12.051-26.88,14.179c-6.654,1.385-8.964,4.749-9.044,11.52c-0.169,14.419-2.158,28.784-1.64,43.256
		C973.453,710.789,973.419,714.07,970.032,715.757z"/>
	<path fill="#B8D3FE" d="M1933.714,1706.032c-6.943-16.925-13.84-33.87-20.876-50.757c-1.106-2.654-1.446-6.193-5.398-6.642
		c19.295-3.44,38.451-7.499,57.329-12.793c3.707-1.04,7.379-2.204,11.068-3.31c11.978,13.926,27.049,23.119,44.632,27.83
		c20.118,5.389,34.632-0.996,45.239-18.965c9.935-16.83,14.699-35.406,18.03-54.406c0.863-4.922,2.238-9.771,2.514-14.795
		c27.237-31.375,56.232-60.638,93.915-79.76c17.725-8.994,36.18-13.984,56.185-12.077c1.64,4.717-1.3,8.571-2.633,12.621
		c-3.004,9.122-1.412,17.242,5.476,23.616c6.972,6.452,15.406,8.389,24.676,4.897c4.447-1.675,8.375-4.225,12.397-6.676
		c2.106-1.283,3.852-4.391,7.118-2.268c3.33,5.416,6.66,10.831,9.99,16.247c9.781,32.159,1.767,61.123-15.858,88.363
		c-5.117,0.966-5.75-3.534-7.181-6.409c-7.081-14.23-14.485-28.248-23.64-41.289c-4.81-6.852-10.066-13.276-15.868-19.347
		c-12.37-12.942-27.202-17.349-44.143-12.284c-17.756,5.309-29.693,17.026-34.44,35.389c-3.648,14.112-2.031,28.254,0.052,42.309
		c3.229,21.795,7.828,43.3,15.24,64.121c3.518,9.885,4.088,10.184,13.703,6.922c2.841-0.964,5.599-2.755,8.8-1.196
		c3.677,8.159,10.005,15.481,8.064,25.423c-26.293,23.502-52.968,46.537-82.077,66.563c-37.429,25.75-77.301,47.205-118.04,67.149
		c-3.911,1.914-6.124,1.363-7.711-2.721c-2.514-6.47-5.242-12.856-7.88-19.278c-3.623-1.409-4.304-4.977-5.556-7.96
		c-13.796-32.871-27.217-65.899-40.956-98.793C1934.601,1712.684,1934.013,1709.369,1933.714,1706.032z"/>
	<path fill="#F2F2F2" d="M2602.685,1643.99c8.421-4.327,10.427-13.413,14.3-20.685c19.095-35.849,37.419-72.108,56.05-108.205
		c6.761-13.099,13.777-26.071,20.346-39.264c2.25-4.518,3.981-5.276,8.73-2.588c21.518,12.18,43.331,23.84,65.053,35.657
		c51.017,27.754,102.084,55.416,153.039,83.284c13.67,7.476,13.778,7.962,4.199,19.871c-26.564,33.03-53.448,65.803-80.049,98.804
		c-23.988,29.76-47.563,59.856-71.782,89.424c-6.275,7.66-11.719,16.133-19.433,22.589c-7.407-3.101-10.884-10.221-15.513-15.913
		c-42.261-51.967-84.613-103.859-126.939-155.773C2608.342,1648.314,2605.018,1646.751,2602.685,1643.99z"/>
	<path fill="#FE6161" d="M2517.262,579.415c0.075-64.202,51.871-115.883,116.396-116.138
		c64.705-0.256,117.575,51.876,117.66,116.018c0.085,64.017-52.705,116.655-117.122,116.786
		C2569.679,696.212,2517.187,643.84,2517.262,579.415z"/>
	<path fill="#FE6161" d="M2254.079,1456.698c-18.649-0.098-37.299-0.276-55.948-0.23c-4.168,0.01-6.534-0.484-6.821-5.672
		c-2.682-48.434,0.181-96.243,16.704-142.331c12.155-33.904,31.472-62.092,66.551-75.954c23.046-9.107,47.374-9.854,71.564-7.745
		c39.224,3.42,70.382,21.021,91.005,55.475c10.427,17.419,16.493,36.391,20.042,56.22c2.501,13.975,3.371,28.064,3.27,42.317
		c-0.311,43.71-0.048,87.424-0.132,131.136c-0.005,2.866,1.381,6.128-1.339,8.64c-3.27-3.771-2.428-8.383-2.435-12.737
		c-0.063-39.929-0.034-79.858-0.038-119.788c-0.001-11.19-0.031-10.925-10.747-11.51c-7.204-0.394-14.164,0.452-21.126,2.053
		c-4.081-2.157-8.501-2.356-12.974-2.356c-29.721-0.001-59.442-0.039-89.163,0.024c-10.55,0.022-11.237,0.734-11.29,11.446
		c-0.1,19.999,0.102,39.999-0.088,59.997c-0.111,11.733-1.991,13.572-13.584,13.735c-11.109,0.156-22.222,0.129-33.331-0.013
		C2260.645,1459.36,2256.878,1459.726,2254.079,1456.698z"/>
	<path fill="#5585FE" d="M2727.951,991.827c-55.122,0.037-110.245,0.016-165.367,0.203c-5.258,0.018-7.305-1.243-7.236-6.944
		c0.294-24.218,0.3-48.443-0.004-72.661c-0.072-5.754,2.037-7.027,7.277-6.982c23.663,0.206,47.331-0.106,70.991,0.222
		c6.112,0.085,8.16-1.465,8.063-7.859c-0.355-23.38,0.099-46.773-0.226-70.154c-0.086-6.176,1.523-8.099,7.89-7.995
		c23.38,0.385,46.774-0.096,70.153,0.309c6.74,0.117,9.082-1.394,8.933-8.596c-0.479-23.098,0.096-46.217-0.342-69.316
		c-0.135-7.122,2.199-8.892,8.995-8.782c23.101,0.377,46.219,0.42,69.317-0.023c7.026-0.135,8.749,2,8.728,8.84
		c-0.239,77.118-0.161,154.236-0.167,231.355c-2.687,2.607-5.138,0.215-7.676-0.359c-17.888-4.044-30.543-16.082-43.191-28.172
		c-1.945-1.859-3.227-4.506-6.669-5.718c0.042,5.706,3.539,9.422,5.941,13.587c1.636,2.837,4.458,5.982,1.574,9.028
		c-3.19,3.369-6.738,0.688-9.774-1.144c-10.978-6.625-20.613-15.021-30.317-23.315c-2.2-1.88-4.009-4.367-8.054-5.243
		c3.954,10.291,13.922,14.505,18.457,23.024c0.098,1.376-0.582,2.22-1.83,2.675c-4.031,0.386-6.629-2.341-9.5-4.43
		c-7.769-5.653-15.314-11.648-24.282-15.584c4.93,9.216,14.004,14.192,21.298,20.956c2.788,2.585,6.699,4.044,8.022,8.086
		c-0.011,0.804-0.235,1.541-0.696,2.204c-3.993,1.852-6.992-0.754-10.007-2.497c-6.011-3.477-12.133-6.747-18.429-9.851
		c7.812,7.416,17.06,12.966,25.542,19.499c2.381,1.834,5.458,2.938,6.549,6.154c-0.142,1.348-0.974,2.099-2.18,2.53
		c-7.925,0.359-14.864-3.732-22.9-5.43c4.896,3.203,9.748,5.061,14.497,7.17C2723.859,987.737,2727.626,987.741,2727.951,991.827z"
		/>
	<path fill="#E5E5E5" d="M2602.685,1643.99c10.006,0.779,12.682,10.197,17.73,16.129c22.053,25.916,43.303,52.517,64.755,78.943
		c17.787,21.912,35.434,43.938,53.176,65.887c4.87,6.025,9.859,11.954,14.794,17.927c-47.141,15.624-94.271,31.281-141.428,46.856
		c-16.327,5.392-32.804,10.344-49.042,15.989c-5.279,1.836-7.724,0.96-10.19-4.148c-9.187-19.031-18.865-37.826-28.358-56.71
		c4.11-3.897,9.173-3.328,14.135-2.886c17.501,1.559,34.928,1.963,52.073-2.955c-4.731,0.299-9.42,1.377-14.185,1.019
		c-2.966-0.223-7.402,0.704-8.078-2.587c-0.746-3.629,3.869-3.978,6.522-4.959c9.892-3.659,19.738-7.402,30.719-12.602
		c-10.323,1.464-18.138,6.76-27.29,5.983c-1.209-0.414-2.14-1.11-2.457-2.423c2.937-4.951,8.571-5.732,13.029-8.292
		c6.903-3.964,14.537-6.65,20.691-12.102c-8.401,1.367-15.906,5.262-23.771,8.079c-3.568,1.278-6.936,3.737-11.073,2.132
		c-0.529-0.625-0.766-1.342-0.676-2.162c2.867-4.853,8.224-6.398,12.498-9.383c2.835-1.98,5.99-3.6,8.986-8.05
		c-12.803,4.696-22.733,11.49-33.901,15.513c-2.613,0.942-5.126,2.173-7.826,2.867c-2.727,0.701-5.856,1.551-7.712-1.12
		c-2.012-2.896,0.492-5.202,2.285-7.274c3.16-3.651,7.135-6.707,9.502-13.362c-8.776,7.276-17.76,10.372-25.874,15.097
		c-7.954,4.632-17.185,5.745-26.494,4.257c-10.34-20.629-20.718-41.237-30.932-61.925c-1.578-3.197-3.439-6.447-2.288-10.301
		c12.021-4.343,23.765-1.265,34.706,3.073c8.12,3.219,16.54,6.55,24.893,13.456c-1.718-5.882-5.2-8.008-8.124-10.606
		c-2.062-1.832-4.677-3.866-2.935-6.977c1.615-2.884,4.842-2.505,7.536-1.854c8.956,2.162,17.359,5.849,25.709,9.675
		c3.438,1.575,6.506,4.117,10.984,4.493c-2.909-5.751-10.518-5.719-12.672-11.572c0.282-1.374,1.222-2.1,2.462-2.54
		c7.858-0.801,14.062,4.98,23.233,5.492c-5.798-3.982-10.986-6.227-16.043-8.673c-2.756-1.333-5.77-2.115-8.45-3.577
		c-2.21-1.206-6.414-1.665-5.094-5.141c1.071-2.821,4.845-2.053,7.569-1.532c5.437,1.041,10.772,2.553,16.188,3.761
		c-7.696-3.496-15.669-6.214-23.618-9.008c-2.253-0.792-5.848-1.415-5.474-4.205c0.447-3.325,4.226-2.759,6.856-2.999
		c3.046-0.278,6.117-0.062,10.322-0.114c-13.38-3.343-26.035-3.288-38.229-1.602c-16.304,2.254-32.195-0.459-48.224-1.33
		c-7.211-0.392-14.427-0.64-21.639-1.01c-3.086-0.158-6.918,0.76-8.256-3.63c2.964-0.204,5.928-0.409,9.706-0.67
		c-3.076-6.557-5.856-12.482-8.942-19.059c22.879-2.468,44.976-4.745,67.044-7.263c21.884-2.498,43.729-5.323,65.612-7.832
		C2585.618,1645.207,2594.164,1644.706,2602.685,1643.99z"/>
	<path fill="#478D86" d="M2978.438,549.336c-13.597-2.251-23.724-8.025-27.424-22.838c-3.82-15.296-17.48-20.349-30.11-10.834
		c-16.476,12.412-33.126,9.471-49.538,1.874c-17.49-8.095-25.656-27.474-21.152-46.267c4.461-18.617,21.576-32.15,41.726-32.081
		c9.42,0.032,18.863,1.326,28.244,2.472c11.873,1.45,21.517-0.892,29.257-11.319c10.143-13.665,22.021-16.679,38.399-11.561
		c4.229,1.321,8.317,3.136,12.386,4.915c6.502,2.844,12.72,2.667,19.325-0.171c25.331-10.885,45.97-2.847,57.765,22.181
		c1.421,3.017,2.92,6.003,4.188,9.084c3.899,9.473,10.351,15.384,20.963,16.642c33.288,3.947,44.594,30.135,54.693,56.256
		c4.325,11.187-0.069,22.606-9.183,31.149c-3.83,3.591-8.116,6.695-12.195,10.021c-5.218,5.428-12.394,6.369-19.1,7.055
		c-29.491,3.018-56.405-2.432-77.282-25.686c-1.295-1.442-2.727-2.762-4.112-4.123c-9.66-9.49-15.41-10.355-27.332-3.546
		c-5.832,3.331-11.889,5.961-18.337,7.725C2985.802,551.33,2981.977,551.861,2978.438,549.336z"/>
	<path fill="#E5E5E5" d="M2165.523,213.119c65.44,0,130.881,0.13,196.32-0.172c7.776-0.036,10.422,1.633,10.395,9.948
		c-0.297,92.729-0.279,185.46-0.019,278.189c0.022,7.684-2.049,9.799-9.744,9.75c-52.35-0.333-104.706,0.077-157.053-0.415
		c-9.001-0.085-9.283,4.029-8.932,10.514c0.317,5.855-1.903,13.264,8.569,11.504c1.625-0.273,3.372,0.188,5-0.076
		c8.238-1.336,10.321,2.3,10.103,10.184c-0.184,6.645-2.091,8.478-8.63,8.409c-30.071-0.316-60.151-0.385-90.22,0.035
		c-7.469,0.104-8.695-2.788-8.571-9.266c0.117-6.09,0.458-10.615,8.327-9.376c2.174,0.342,4.504-0.271,6.665,0.109
		c8.774,1.542,10.969-2.338,10.455-10.606c-0.693-11.152-0.167-11.189-11.457-11.19c-52.909-0.002-105.819-0.113-158.726,0.138
		c-6.76,0.032-9.041-1.609-9.024-8.744c0.23-93.565,0.223-187.131,0.007-280.696c-0.016-6.75,2.077-8.39,8.543-8.369
		C2033.529,213.202,2099.526,213.12,2165.523,213.119z"/>
	<path fill="#95BDFE" d="M1775.179,746.442c20.943-6.149,41.894-12.271,62.821-18.473c3.632-1.076,4.637,0.203,3.784,3.598
		c-5.877,23.363-10.055,47.056-13.565,70.868c-2.74,18.586-5.439,37.183-7.76,55.825c-4.173,33.516-6.052,67.246-8.128,100.924
		c-1.266,20.534,0.121,41.216-0.413,61.813c-0.613,23.658,0.659,47.268,2.089,70.806c1.657,27.298,5.37,54.471,8.235,81.694
		c0.7,6.651,3.528,9.654,11.185,9.468c11.247-0.273,22.696-2.162,33.862,1.178c-3.303,3.505-7.689,2.737-11.753,2.765
		c-17.782,0.126-35.566,0.022-53.349,0.065c-10.626,0.025-10.628,0.064-13.081,10.048c-0.403,1.64-0.916,3.209-2.393,4.239
		c-1.77-2.503-1.177-5.386-1.136-8.108c0.403-26.793-5.089-52.989-8.033-79.438c-2.821-25.344-6.021-50.645-8.98-75.974
		c-3.281-28.085-6.844-56.143-9.609-84.279c-2.987-30.392-4.782-60.744-2.624-91.45
		C1759.087,822.809,1765.315,784.382,1775.179,746.442z"/>
	<path fill="#F19E0C" d="M1688.168,447.224c1.539-2.255,3.916-1.767,6.077-1.764c22.553,0.037,45.106,0.115,67.658,0.182
		c0.054,31.993,0.933,63.992-0.839,95.967c-0.272,2.269,0.328,4.588-0.385,6.832c-0.652,9.876-1.019,19.783-2.07,29.617
		c-0.572,5.354,1.115,6.47,6.256,6.367c24.366-0.487,48.743-0.803,73.098,0.62c2.27,0.269,4.588-0.325,6.834,0.382
		c34.229,1.22,68.381,3.176,102.479,6.828c20.341,2.178,40.713,3.713,60.741,8.055c3.076,0.667,5.371-0.883,7.856-2.007
		c12.592-5.694,25.513-10.779,37.663-17.299c15.391-8.26,29.242-5.097,42.982,3.317c6.466,3.959,12.134,8.845,16.669,14.972
		c1.145,2.354,1.978,4.844-0.37,6.836c-2.197,1.864-4.783,1.158-7.042-0.035c-5.389-2.848-10.731-5.783-16.137-8.605
		c-10.967-5.724-21.06-5.23-30.897,2.768c-6.007,4.883-12.53,9.15-18.921,13.555c-6.893,4.751-14.18,8.617-22.454,10.361
		c-10.632,2.024-21.388,2.306-32.165,2.295c-17.374,0.578-34.749,0.579-52.123,0c-7.482,0.043-14.964,0.086-22.446,0.13
		c-7.782-0.278-15.564-0.556-23.346-0.834c-12.324-1.823-24.796,0.634-37.116-1.284c-9.348-0.125-18.695-0.249-28.042-0.374
		c-11.779-1.819-23.711,0.591-35.488-1.287c-9.337-0.15-18.673-0.299-28.01-0.449c-11.794-1.712-23.727,0.644-35.516-1.218
		c-2.572-0.052-5.144-0.105-7.716-0.157c-9.493-2.306-13.694-9.822-17.197-17.819c-8.379-19.132-10.468-39.621-12.644-60.086
		c-1.896-9.319-2.174-18.804-1.105-28.121c1.68-14.647,1.293-29.292,1.271-43.944
		C1685.714,462.976,1686.043,455.024,1688.168,447.224z"/>
	<path fill="#F3AD22" d="M2577.821,1804.854c8.528-2.366,17.031-4.833,25.603-7.027c2.095-0.536,5.307-3.154,6.377,0.47
		c0.883,2.992-2.92,3.54-5,4.404c-11.685,4.859-23.456,9.509-35.854,14.494c9.786,1.951,18.881-1.403,29.878-0.486
		c-7.236,6.621-14.888,6.454-21.808,7.447c-13.195,1.894-26.53,1.718-39.74-0.218c-4.559-0.669-8.77,0.727-13.156,0.925
		c-38.805,2.954-77.594,6.147-116.421,8.801c-44.671,3.054-89.34,6.576-134.17,5.921c-13.983-0.204-22.533-9.617-28.058-20.722
		c-13.723-27.58-25.774-55.954-37.108-84.614c6.555-24.851,15.941-48.185,35.506-66.034c1.677-1.53,3.029-3.104,2.61-5.587
		c3.884-3.297,8.018-5.526,13.264-3.27c6.414,11.566,8.674,24.559,12.448,36.997c9.043,29.809,17.389,59.828,26.363,89.659
		c3.014,10.02,3.24,9.911,13.466,8.458c19.572-2.782,39.333-3.305,59.022-3.927c24.733-0.781,49.51-0.218,74.267-0.179
		c17.246,0.027,34.393-1.724,51.578-2.772c3.082-0.188,6.119-0.617,8.808,1.411c18.959,0.142,34.17-9.208,49.054-19.378
		c1.488-1.017,2.673-3.527,4.819-1.918c2.568,1.925,0.218,4.083-0.567,5.891c-1.928,4.441-5.67,7.422-9.138,10.63
		c-1.684,1.558-4.995,3.049-3.084,5.864c1.28,1.886,4.039,0.596,6.201-0.051c11.49-3.438,21.934-9.214,32.624-14.443
		c1.741-0.852,3.383-1.925,5.165-2.673c2.436-1.023,5.66-3.869,7.44-1.06c2.067,3.263-1.938,5.38-4.214,6.931
		c-6.397,4.362-13.1,8.276-19.682,12.367c-0.828,1.257-2.665,1.417-3.293,3.009c0.891-1.257,2.102-1.011,3.278-0.898
		c11.093-4.258,22.173-8.552,33.292-12.742c1.971-0.743,4.697-2.17,5.941,0.281c1.249,2.462-1.608,3.932-3.294,5.013
		c-10.746,6.886-22.281,12.265-33.993,17.274c-1.175,1.824-3.411,2.134-3.428,2.148
		C2573.198,1804.911,2575.625,1805.321,2577.821,1804.854z"/>
	<path fill="#FDCA00" d="M2487.206,762.245c0,23.679-0.164,47.36,0.122,71.035c0.067,5.524-1.594,7.005-7.045,6.981
		c-46.521-0.203-93.044-0.219-139.565,0.015c-5.812,0.029-7.405-1.384-7.318-7.355c0.942-64.615,50.81-127.109,114.57-143.16
		c10.002-2.518,20.179-3.857,30.405-5.093c6.736-0.815,9.184,0.805,9.02,8.216C2486.881,715.994,2487.206,739.123,2487.206,762.245z
		"/>
	<path fill="#7C4F08" d="M2731.399,982.092c-10.959-7.601-21.942-15.167-32.85-22.84c-1.712-1.204-4.424-2.794-2.721-5.192
		c1.631-2.298,3.966-0.349,5.879,0.7c8.752,4.796,17.511,9.578,26.267,14.365c1.72-0.601,0.512-1.323,0.083-2.013
		c-9.516-8.415-20.063-15.658-28.707-25.05c-1.724-1.873-5.102-4.193-2.874-6.868c2.219-2.664,5.119,0.233,7.195,1.63
		c9.858,6.629,19.555,13.496,29.309,20.279c0.945,0.604,2.462,1.026,2.958,0.503c0.578-0.61-1.072-1.176-1.314-2.053
		c-6.332-6.224-13.307-11.857-18.366-19.258c-1.417-2.073-4.441-4.712-1.455-7.171c2.431-2.002,4.582,0.979,6.364,2.472
		c10.428,8.735,20.391,18.045,31.826,25.522c1.857,1.214,3.73,2.425,5.698,3.44c1.881,0.97,4.112,2.862,5.921,0.488
		c1.347-1.768-0.259-3.665-1.428-5.217c-3.357-4.454-6.554-9.035-7.971-14.495c-0.585-2.251-1.728-5.433,1.324-6.606
		c2.811-1.081,3.235,2.33,4.559,3.871c14.535,16.912,31.512,30.021,53.859,34.847c26.401,9.219,53.016,14.481,80.754,5.669
		c17.181-5.458,29.707-17.047,41.236-30.06c29.413-33.201,54.126-69.92,79.336-106.265c2.686-1.108,4.499-0.279,5.465,2.453
		c3.18,12.633,7.567,24.942,8.008,38.24c0.728,21.945-3.199,42.52-15.6,61.022c-20.017,23.114-39.964,46.513-64.104,65.336
		c-29.327,22.868-63.034,27.121-98.784,18.346c-15.932-3.911-31.9-8.067-46.741-14.848c-24.509-11.199-50.831-15.146-76.572-21.511
		c-7.929-4.592-17.711-5.915-25.799-14.813c10.977,0.671,18.877,5.493,27.533,6.865
		C2731.654,984.622,2732.688,984.47,2731.399,982.092z"/>
	<path fill="#A96F11" d="M1175.084,849.96c3.403-2.147,6.807-4.294,10.21-6.439c11.557,32.876,17.965,67.027,24.988,101.023
		c2.024,9.797,3.735,19.658,5.721,29.462c0.542,2.679,0.894,5.402,2.632,7.808c24.591,34.032,49.111,68.115,73.648,102.186
		c0.431,0.606,0.862,1.212,1.293,1.818c8.702,6.739,13.458,16.641,19.867,25.185c4.423,5.896,9.765,11.381,11.874,18.803
		c1.541,3.112,4.031,5.367,6.723,7.439c2.421,4.146-0.267,7.926-0.887,11.839c-1.146,7.234-4.721,14.023-3.934,21.606
		c0.509,2.552,1.426,4.999,1.918,7.557c0.696,5.834-1.499,11.504-0.973,17.33c-0.645,4.203-0.767,8.563-3.656,12.087
		c-1.285,1.018-2.632,1.888-4.363,1.855c-0.803,0.023-1.599-0.066-2.385-0.238c-2.381-0.495-2.913-2.388-3.303-4.389
		c-0.754-5.753-1.246-11.556-2.316-17.25c-2.324-12.37-6.767-23.22-16.294-32.6c-23.471-23.112-45.879-47.304-68.714-71.063
		c-10.089-4.618-15.144-14.495-22.306-22.041c-11.435-12.047-22.227-24.763-32.589-37.807c-7.705-9.699-13.619-20.248-16.909-32.208
		c-4.559-16.57-9.473-33.062-11.515-50.218c1.766-8.482,0.061-17.141,1.585-25.694
		C1149.773,891.465,1160.535,869.884,1175.084,849.96z"/>
	<path fill="#A96F11" d="M830.919,845.221c1.647,1.027,3.293,2.053,4.94,3.08c14.01,23.69,23.826,48.878,28.153,76.2
		c1.202,7.589-1.041,14.902-0.2,22.346c-6.03,24.533-12.554,48.838-27.946,69.651c-6.489,8.774-14.715,14.775-25.197,17.721
		c-4.425,0.726-8.845,0.867-13.256-0.104c-22.114-6.021-37.352-21.72-51.457-38.184c-17.851-20.835-33.791-43.218-48.273-66.578
		c-3.45-5.564-6.917-11.119-10.259-16.748c-1.676-2.824-2.806-6.171-7.131-5.447c-6.084,0.846-12.17,0.733-18.259,0.052
		c-5.562-1.029-11.387-1.018-16.419-4.148c-2.609-8.454,2.451-17.991,10.502-18.222c14.222-0.407,21.389-8.742,25.918-20.841
		c1.332-3.559,1.633-7.706,5.221-10.121c26.516,28.385,52.885,56.91,79.632,85.077c8.784,9.25,17.515,18.616,27.505,26.702
		c4.147,3.357,5.992,3.2,6.902-2.204C808.058,923.264,816.95,883.606,830.919,845.221z"/>
	<path fill="#2C887C" d="M1780.215,1717.727c-4.615,6.74-12.203,9.465-18.805,13.256c-22.978,13.193-47.449,22.476-73.836,26.288
		c-2.173,0.314-3.767-0.271-5.442-1.282c-3.234-0.394-4.496-3.089-5.946-5.366c-11.63-18.27-22.58-36.948-33.161-55.843
		c-1.238-2.211-1.987-4.569-1.533-7.163c4.3-13.672,8.431-27.399,12.953-40.997c3.703-11.135,4.593-22.735,5.277-34.202
		c1.346-22.562,3.273-45.063,5.365-67.557c0.09-0.972,0.992-1.869,1.516-2.801c39.828,51.371,78.337,103.622,107.676,161.961
		C1776.512,1708.461,1778.248,1713.152,1780.215,1717.727z"/>
	<path fill="#F3AD22" d="M2254.079,1456.698c14.748-0.009,29.515-0.46,44.237,0.15c7.854,0.326,10.582-1.617,10.35-9.968
		c-0.627-22.523-0.053-45.076-0.425-67.61c-0.104-6.303,1.889-8.042,8.072-7.979c34.223,0.343,68.45,0.298,102.676,0.341
		c3.489,0.004,6.956-0.252,6.871,4.768c1.939,2.085,1.737,4.628,1.326,7.1c-5.581,33.532-19.924,62.601-46.213,84.487
		c-19.481,16.219-42.346,18.094-66.198,10.836c-10.462,11.24-20.924,22.479-31.387,33.721c-5.501,3.2-10.186,7.62-16.13,10.201
		c-10.771,4.676-20.747,3.624-29.445-4.207c-8.706-7.838-9.576-17.706-5.67-28.263c1.245-3.366,2.798-6.618,4.209-9.921
		C2242.261,1472.47,2248.17,1464.584,2254.079,1456.698z"/>
	<path fill="#B8D3FE" d="M687.256,853.878c-1.566,7.021-3.415,13.963-7.306,20.114c-4.481,7.083-10.613,13.205-19.174,12.516
		c-8.292-0.667-11.309,2.991-13.242,9.614c-0.673,2.305-2.936,4.17-1.917,6.942c-6.444,5.432-12.337,11.69-20.248,15.029
		c-3.192,1.347-6.856,1.577-10.305,2.316c-4.406,0.979-8.808,1.035-13.207-0.04c-24.533-2.734-43.116-22.247-46.781-48.75
		c-3.44-24.875-1.889-49.868-1.349-74.764c0.408-18.786,11.135-28.53,29.737-30.573c2.599-1.651,5.85,0.406,8.408-1.479
		c6.615-0.003,13.229-0.005,19.844-0.008c2.548,1.881,5.764-0.12,8.367,1.439c13.858,2.304,28.988,2.439,39.782,12.244
		c7.919,7.193,13.614,16.115,25.154,19.072c5.307,1.36,6.591,8.385,7.177,14.075c1.019,2.747,1.041,5.493-0.014,8.237
		C690.539,831.2,688.898,842.539,687.256,853.878z"/>
	<path fill="#F3AD22" d="M2443.707,1681.004c10.867,2.726,22.066,1.679,33.086,2.629c15.668,1.35,31.322,3.548,47.303,0.918
		c11.126-1.831,22.726-1.194,33.994,1.226c2.926,0.628,6.044,0.674,8.843,4.062c-7.945,2.281-15.617-0.361-24.104,1.373
		c12.381,5.782,25.241,8.082,36.073,15.448c-10.598,2.275-20.03-5.007-31.983-3.889c11.465,5.09,21.926,8.779,31.317,14.65
		c1.777,1.111,4.942,2.124,4.162,4.496c-1.2,3.648-4.424,1.143-6.413,0.576c-7.187-2.048-14.237-4.579-21.339-6.928
		c-4.627-0.127-8.459-3.373-13.024-3.836c4.15,1.063,8.228,2.011,11.054,5.66c4.476,2.793,9.007,5.503,13.403,8.417
		c1.82,1.207,4.18,2.908,2.896,5.328c-1.538,2.899-3.94,0.598-5.766-0.174c-10.231-4.325-20.328-8.977-30.638-13.096
		c-3.413-1.364-7.156-3.322-11.553-0.99c1.875,5.701,8.529,6.958,11.007,11.889c1.191,2.37,4.362,4.934,1.994,7.327
		c-2.4,2.425-4.152-1.34-6.02-2.554c-16.928-10.996-35.194-17.307-55.629-16.236c-3.756,1.472-7.695,1.07-11.565,0.984
		c-27.856-0.623-55.513,2.128-83.197,4.623c-11.366,1.024-22.802,0.536-34.204,0.193c-4.886-0.147-9.329-2.038-12.987-5.151
		c-13.472-11.464-24.6-24.866-32.726-40.657c-1.461-11.518-2.077-22.939,0.459-34.52c2.522-11.515,8.703-20.724,15.96-29.506
		c2.821-3.484,5.987-6.205,10.955-4.771c9.572,21.548,19.31,43.025,28.605,64.692c2.431,5.668,5.021,7.408,11.678,6.774
		c23.316-2.223,46.677,0.432,70.025,0.977C2438.151,1681,2440.929,1680.983,2443.707,1681.004z"/>
	<path fill="#2C887C" d="M1933.714,1706.032c16.228,38.826,32.456,77.652,48.683,116.478
		c-69.983,18.404-141.083,27.496-213.501,25.603c-12.1,1.452-24.25,0.267-36.369,0.679c-3.018,0.103-6.082-0.488-9.049,0.526
		c-6.112,0.013-12.224,0.026-18.336,0.038c7.404-4.458,15.695-6.801,23.754-9.569c48.719-16.738,97.869-32.159,147.249-46.802
		c33.308-9.877,56.123-40.443,56.394-74.988C1932.571,1714.06,1931.752,1709.854,1933.714,1706.032z"/>
	<path fill="#E55A5A" d="M2314.774,1478.823c5.855-1.939,11.247,1.306,16.957,1.624c25.928,1.444,46.843-7.881,62.498-28.266
		c17.185-22.378,29.47-47.02,31.627-75.779c1.443-3.837,3.971-5.354,8.245-4.903c6.201,0.654,12.491,1.143,18.7,0.838
		c5.16-0.254,6.299,1.331,6.276,6.385c-0.209,46.61-0.113,93.221-0.105,139.832c-17.695,1.61-35.439,1.145-53.169,1.214
		c-27.473,0.105-54.949,0.004-82.417,0.404c-6.297,0.092-8.161-1.922-8.035-8.06
		C2315.579,1501.024,2315.011,1489.92,2314.774,1478.823z"/>
	<path fill="#7C4F08" d="M2978.438,549.336c10.633,0.072,19.92-3.872,28.866-9.241c11.289-6.775,19.881-6.68,27.696,2.389
		c27.696,32.139,61.717,38.505,100.783,26.38c8.71,22.163,18.374,43.848,31.994,63.542c-0.21,0.527-0.422,1.177-0.882,1.372
		c-16.817,7.147-32.766,16.022-48.906,24.521c-13.366-12.229-28.186-22.777-41.171-35.455c-2.339-3.212-4.446-0.438-6.416,0.42
		c-22.027,9.597-40.217,5.753-56.379-12.092c-9.798-10.819-16.796-23.44-23.207-36.421
		C2986.646,566.302,2982.562,557.809,2978.438,549.336z"/>
	<path fill="#FED1D5" d="M1679.223,88.167c25.681,10.89,52.492,18.592,78.736,27.895c4.147,1.47,8.319,2.87,12.479,4.303
		c-0.632,8.521-6.373,14.607-10.413,21.461c-1.903,3.229-5.694,2.965-9.028,3.258c-13.493,1.186-22.477,8.641-24.955,20.63
		c-2.593,12.547,2.751,23.647,14.388,30.028c2.612,1.432,5.917,1.948,7.245,5.196c-1.705,10.558-9.746,17.091-15.905,24.789
		c-1.532,1.914-4.13,1.664-6.278,0.944c-19.732-6.612-39.551-12.981-58.924-20.622c-4.758-4.658-11.171-5.863-17.131-7.717
		c-4.886-1.52-6.638-4.031-6.298-9.021c1.577-23.155,6.914-45.415,16.144-66.652C1664.592,110.447,1670.795,98.633,1679.223,88.167z
		"/>
	<path fill="#F3AD22" d="M1666.568,206.049c3.185-1.438,5.96,0.311,8.765,1.264c15.983,5.428,32.035,10.679,47.833,16.605
		c5.266,1.975,7.947,0.891,10.796-3.579c4.164-6.53,8.957-12.658,13.482-18.957c0.356-0.442,0.757-1.006,1.252-1.042
		c14.549-1.058,24.785-8.526,31.581-21.155c4.136-0.857,7.518,1.287,11.051,2.794c9.425,4.02,18.862,8.014,28.219,12.188
		c2.612,1.165,6.166,1.563,6.152,5.678c-6.726,14.612-14.173,28.768-24.753,41.08c-17.753,20.658-40.817,25.48-70.15,14.548
		c-3.476-1.295-6.948-4.003-10.728-0.622c-11.606,1.71-23.24,3.123-34.995,3.208c-20.433-10.638-42.226-15.416-65.191-15.142
		C1635.818,231.095,1652.781,220.583,1666.568,206.049z"/>
	<path fill="#FDCA00" d="M1679.182,1411.943c-21.659-6.357-43.318-12.715-64.977-19.072c-4.391,0.657-7.922-1.613-11.57-3.437
		c-9.535-4.768-19.123-9.431-28.498-14.515c-17.513-10.987-34.934-22.106-49.687-36.821c0.038-5.82-5.859-7.625-8.115-11.962
		c-2.178-4.186-5.848-8.342-2.419-12.931c2.99-4.001,8.016-3.639,12.331-2.066c17.445,6.358,34.734,13.149,52.215,19.403
		c19.581,7.005,39.293,13.646,58.985,20.337c3.565,1.211,7.151,2.694,10.127-1.894c1.8-2.774,5.17-2.562,8.378-1.524
		c13.55,4.382,26.162,10.779,38.466,17.81c5.178,2.959,4.604,7.971,3.224,12.594
		C1693.877,1390.481,1688.365,1402.226,1679.182,1411.943z"/>
	<path fill="#5485FC" d="M1786.714,1201.26c1.261-17.076,1.261-17.071,18.93-17.077c20.548-0.008,41.096-0.025,61.644-0.04
		c3.366-0.034,6.731-0.067,10.096-0.101c35.984,3.685,71.869,7.914,106.182,20.301c7.613,2.748,14.83,6.342,21.285,11.303
		c1.556,1.196,3.199,2.594,2.799,4.792c-0.436,2.393-2.748,2.653-4.592,2.873c-4.401,0.526-8.839,1.064-13.261,1.049
		c-38.967-0.129-77.95,0.967-116.892-1.397c-4.556-0.277-9.559-1.451-11.59,5.007c-0.634,2.015-3.294,3.06-5.642,2.958
		c-9.621-0.418-19.497,1.904-28.756-2.585c-0.889-0.431-1.606-1.711-2.856-0.73c-8.761,6.875-18.767,2.564-28.193,2.899
		c-6.108,0.217-9.625-3.122-9.148-10.048C1787.157,1214.094,1786.749,1207.664,1786.714,1201.26z"/>
	<path fill="#B8D3FE" d="M3045.76,1919.842c19.532,0.081,39.064,0.162,58.596,0.244c-0.045,13.371-0.627,26.768,0.052,40.102
		c0.455,8.926-3.9,12.313-11.513,12.892c-6.648,0.506-13.362,0.252-20.045,0.156c-3.969-0.057-7.632-1.83-8.107-5.847
		c-0.811-6.853-5.434-5.919-9.737-5.59c-28.266,2.161-56.597,3.542-84.909,2.821c-15.539-0.396-31.09-1.083-46.646-1.377
		c-1.899-0.036-3.801-0.676-5.674-1.147c-2.427-0.611-5.158-1.077-5.533-4.208c-0.349-2.919,1.931-4.608,3.871-6.037
		c6.979-5.139,14.712-8.937,22.876-11.785c26.337-9.187,53.729-13.353,81.244-16.903
		C3028.746,1922.066,3037.252,1920.95,3045.76,1919.842z"/>
	<path fill="#B8D3FE" d="M3279.612,1879.732c16.043,0.028,32.091-0.132,48.127,0.203c4.512,0.094,7.315-1.063,8.552-5.43
		c0.078,2.268,0.156,4.537,0.235,6.805c-1.779,9.518-0.333,19.13-0.843,28.683c-0.174,3.262,0.656,6.595-0.649,9.782
		c-1.037,5.456-5.284,6.366-9.755,6.657c-4.05,0.264-8.124,0.176-12.187,0.242c-3.297,1.052-6.595,1.044-9.894,0.005
		c-3.851,0.229-6.672-1.492-7.517-5.169c-1.151-5.009-3.261-5.794-8.663-5.455c-40.495,2.532-81.063,2.307-121.62,1.928
		c-4.953-0.046-9.922-0.873-14.837-1.637c-2.978-0.463-6.639-1.095-7.245-4.542c-0.565-3.212,2.07-5.346,4.698-7.223
		c12.752-9.106,27.441-13.343,42.442-16.229C3219.875,1882.694,3249.767,1881.327,3279.612,1879.732z"/>
	<path fill="#F8BC00" d="M1524.451,1338.098c7.329,2.372,11.759,8.704,17.726,12.921c10.75,7.597,21.741,14.855,32.63,22.255
		c3.358,3.831,5.402,8.327,7.021,13.125c5.634,16.693,8.564,33.914,10.166,51.389c0.302,3.294,0.285,6.683-1.076,9.854
		c-13.524,8.85-28.589,14.391-43.589,20.063c-0.734,0.278-1.608-0.269-2.343-0.675c-15.406-19.553-21.633-42.863-27.034-66.467
		c-3.047-13.318-4.83-26.837-3.43-40.519C1515.373,1351.732,1516.959,1343.516,1524.451,1338.098z"/>
	<path fill="#3377FE" d="M3213.07,1314.763c10.085,19.624,16.017,40.781,21.034,62.014c6.209,26.277,9.316,53.126,8.014,80.256
		c-1.636,34.102-8,67.054-24.571,97.405c-1.179,2.159-1.808,4.758-4.38,5.895c-6.911-56.128-8.266-112.39-4.509-168.816
		c1.292-19.399,1.789-38.851,2.649-58.279C3213.701,1327.252,3210.069,1320.691,3213.07,1314.763z"/>
	<path fill="#FEBAC2" d="M3079.034,881.885c0.054-0.273,0.071-0.56,0.168-0.816c0.278-0.732,1.078-1.64,1.393-0.501
		c3.987,14.39,8.224,28.728,11.606,43.264c7.764,33.359,13.465,67.037,17.364,101.133c3.803,33.253,3.411,66.496,2.666,99.718
		c-0.531,23.691-4.914,47.181-10.247,70.353c-0.346,1.503-1.702,2.774-2.587,4.15c-1.787-32.433-3.183-64.892-5.476-97.287
		c-2.332-32.928-4.545-65.862-6.773-98.796c-2.21-32.66-4.693-65.3-6.656-97.981
		C3080.029,897.387,3078.984,889.669,3079.034,881.885z"/>
	<path fill="#FED1D5" d="M1825.701,199.843c-14.394-8.171-30.309-12.974-45.058-20.359c-0.894-10.208-2.299-20.215-9.55-28.322
		c-1.082-1.209-1.256-3.301-0.638-4.798c3.118-7.554,4.186-16.053,10.113-22.332c28.875,9.087,57.751,18.173,86.626,27.26
		c-4.298,17.266-9.934,33.957-19.389,49.248c-3.124,5.052-5.917,6.468-11.25,3.264
		C1833.313,201.858,1829.343,201.123,1825.701,199.843z"/>
	<path fill="#AECEFE" d="M2086.252,1572.193c3.57,7.772-0.65,15.009-1.876,22.331c-2.754,16.458-7.939,32.195-16.099,46.887
		c-10.795,19.435-26.285,26.302-48.015,21.141c-16.079-3.819-29.255-12.797-41.55-23.297c-1.885-1.61-5.068-3.16-2.875-6.726
		c24.514-7.031,48.945-14.321,71.115-27.391C2061.86,1596.349,2074.954,1585.324,2086.252,1572.193z"/>
	<path fill="#FE6161" d="M3117.502,657.439c15.584-10.703,32.113-19.508,50.276-25.032c6.137-1.572,12.217-3.428,18.421-4.659
		c21.751-4.316,32.467,1.295,41.475,21.389c-53.976,1.507-97.272,28.401-139.328,58.388c-2.613,1.863-4.64,6.666-9.369,3.69
		c3.476-12.014,10.466-22.23,16.778-32.793C3100.919,669.266,3107.893,661.987,3117.502,657.439z"/>
	<path fill="#F8BC00" d="M878.986,917.434c0-6.852,0-13.704,0-20.556c0.423-0.006,0.847-0.012,1.27-0.018
		c4.128,27.701,8.25,55.403,12.384,83.103c4.958,33.215,9.937,66.427,14.86,99.647c0.283,1.908,0.148,3.878,0.207,5.819
		c-8.304,0.065-16.608,0.13-24.911,0.196c-0.622-0.22-0.887-0.528-0.798-0.926c0.099-0.442,0.232-0.663,0.401-0.663
		c-0.028-6.707-0.056-13.415-0.083-20.122c-1.62-10.093,0.75-20.349-1.242-30.427c-0.143-13.818-0.286-27.635-0.429-41.453
		c-1.52-7.294,0.635-14.795-1.242-22.069c-0.143-12.146-0.286-24.292-0.429-36.438C878.169,928.161,878.149,922.797,878.986,917.434
		z"/>
	<path fill="#88ACE4" d="M2325.067,1608.492c-3.278,1.818-6.557,3.636-9.835,5.454c-10.41,7.848-20.735,15.863-34.302,17.571
		c-3.83-4.07-7.086-8.312-4.259-14.355c3.902-10.593,10.244-20.073,13.597-30.966c5.388-17.506,6.671-35.094,2.768-53.011
		c-0.337-1.547-1.595-3.063,0.341-4.393c14.418,21.727,25.084,45.454,36.837,68.615
		C2333.678,1604.235,2329.346,1606.006,2325.067,1608.492z"/>
	<path fill="#E5E5E5" d="M2017.37,624.174c15.786-7.481,29.781-17.758,43.698-28.133c8.907-6.64,18.222-5.643,27.478-1.424
		c6.013,2.74,11.626,6.356,17.422,9.572c5.622,3.119,8.302,1.88,7.223-4.896c6.264,5.086,12.133,10.595,15.938,17.803
		c2.303,4.362,2.56,7.446-4.442,7.38C2088.916,624.138,2053.142,624.232,2017.37,624.174z"/>
	<path fill="#774400" d="M3014.155,944.504c0.305-7.209,5.21-12.643,7.424-19.166c8.11-23.888,7.752-47.582,0.219-71.465
		c-0.872-2.766-4.28-5.637-0.953-8.978c2.554-1.868,4.823-0.405,6.909,0.829c14.538,8.602,29.124,17.116,43.944,25.225
		c1.457,0.797,2.773,1.874,2.918,3.769C3054.681,898.17,3035.116,921.941,3014.155,944.504z"/>
	<path fill="#2C897C" d="M1544.987,1467.03c14.934-6.552,29.867-13.103,44.801-19.655c3.328,0.564,5.319,2.263,5.017,5.909
		c-0.201,12.621-5.68,23.998-8.626,35.965c-3.349,13.604-7.649,26.972-11.375,40.487c-0.556,2.019-0.859,3.764-3.329,3.948
		C1561.929,1511.75,1553.163,1489.507,1544.987,1467.03z"/>
	<path fill="#F19E0C" d="M2246.694,1664.085c2.421,0.235,2.956,1.366,1.108,2.985c-19.419,17.008-29.661,39.244-36.324,63.533
		c-0.469,1.709-1.544,2.884-3.112,3.646c-3.42-7.817-6.84-15.635-10.26-23.453c-2.878-8.337-5.755-16.674-8.632-25.01
		c0.162-3.253,2.91-3.789,5.137-4.628c14.776-5.566,29.452-11.391,44.239-16.925
		C2241.365,1663.292,2244.043,1661.944,2246.694,1664.085z"/>
	<path fill="#935D0F" d="M863.812,946.848c-2.173-13.556-2.159-27.334-5.923-40.785c-5.042-18.015-11.513-35.247-21.147-51.296
		c-1.102-1.836-3.854-3.889-0.883-6.465c12.456,8.191,24.802,16.558,37.429,24.478c4.444,2.787,4.556,6.446,4.102,10.704
		c-5.93,10.164-5.142,21.98-7.666,32.954C867.423,926.443,865.708,936.692,863.812,946.848z"/>
	<path fill="#FE6161" d="M3074.616,874.718c-17.924-9.941-35.849-19.881-53.772-29.822c-0.999-1.846-2.985-1.535-4.568-2.1
		c-2.705-6.115-4.201-11.871,4.268-14.746c10.472,1.749,18.193,9.003,27.174,13.711c9.304,4.877,18.325,10.304,27.38,15.644
		c8.681,5.12,9.114,8.587,2.324,16.122C3076.487,873.924,3075.552,874.321,3074.616,874.718z"/>
	<path fill="#774401" d="M3117.502,657.439c-7.25,6.993-14.5,13.986-21.748,20.98c-7.473-18.128-13.727-36.674-18.934-55.576
		c11.378,5.3,19.483,14.871,28.951,22.613C3110.005,648.919,3116.443,650.716,3117.502,657.439z"/>
	<path fill="#FDFDFD" d="M882.399,1084.035c0.226,0.506,0.358,1.036,0.397,1.589c-82.143,0.019-164.287,0.047-246.43,0.022
		c-2.667-0.001-5.645,0.933-7.839-1.61C713.151,1084.035,797.775,1084.035,882.399,1084.035z"/>
	<path fill="#F19F0E" d="M1685.074,258.058c11.435-3.574,23.012-5.602,34.995-3.208c-5.515,5.022-11.031,10.044-16.546,15.066
		C1697.374,265.962,1691.224,262.01,1685.074,258.058z"/>
	<path fill="#FDFDFD" d="M3366.252,1202.842c-0.467-0.551-0.935-1.103-1.402-1.653c20.651-0.095,41.301-0.19,61.951-0.287
		c-2.317,2.957-5.599,1.742-8.469,1.766C3400.973,1202.815,3383.612,1202.802,3366.252,1202.842z"/>
	<path fill="#FD645D" d="M1933.082,626.47c17.383-0.001,34.766-0.003,52.136-0.002
		C1967.83,627.903,1950.456,627.759,1933.082,626.47z"/>
	<path fill="#478D86" d="M1723.479,1849.318c15.073-2.852,30.273-0.959,45.416-1.205
		C1753.803,1850.252,1738.635,1849.558,1723.479,1849.318z"/>
	<path fill="#FDFDFD" d="M566.669,1089.056c0,13.369,0,26.739,0,40.108C563.919,1115.794,563.919,1102.425,566.669,1089.056z"/>
	<path fill="#FDFDFD" d="M3335.034,1919.776c0.674-12.814-1.85-25.753,1.492-38.464c0.011,10.212,0.081,20.425-0.005,30.637
		C3336.498,1914.604,3337.425,1917.534,3335.034,1919.776z"/>
	<path fill="#FDFDFD" d="M3340.2,1789.377c0.116-11.813-0.97-23.669,1.25-35.411
		C3340.924,1765.763,3343.166,1777.662,3340.2,1789.377z"/>
	<path fill="#FDFDFD" d="M3370.301,1264.48c0.003-10.526,0.006-21.052,0.009-31.577
		C3372.541,1243.429,3372.558,1253.955,3370.301,1264.48z"/>
	<path fill="#FDFDFD" d="M881.073,1033.486c2.127,10.072,1.288,20.266,1.242,30.427
		C879.32,1053.876,881.615,1043.623,881.073,1033.486z"/>
	<path fill="#FDFDFD" d="M3341.448,1702.93c-2.083-8.94-1.081-18.02-1.225-27.048
		C3343.033,1684.79,3341.007,1693.916,3341.448,1702.93z"/>
	<path fill="#FDFDFD" d="M3426.915,1174.26c0.742-8.351-1.882-16.911,1.559-25.096
		C3427.619,1157.508,3430.389,1166.078,3426.915,1174.26z"/>
	<path fill="#FDFDFD" d="M879.402,969.964c1.896,7.273,1.371,14.682,1.242,22.069C877.689,984.82,879.895,977.316,879.402,969.964z"
		/>
	<path fill="#FDFDFD" d="M3428.473,1065.713c-3.396-7.045-0.842-14.518-1.559-21.754
		C3430.385,1051,3427.626,1058.486,3428.473,1065.713z"/>
	<path fill="#BDD0FE" d="M3213.07,1314.763c-0.832,6.135,0.924,12.517-1.763,18.475c-1.13-4.312,1.263-9.015-1.46-13.15
		C3210.855,1318.274,3209.677,1315.135,3213.07,1314.763z"/>
	<path fill="#FDFDFD" d="M3338.525,1832.84c0.012-6.813-0.774-13.676,1.253-20.368
		C3339.326,1819.257,3341.354,1826.198,3338.525,1832.84z"/>
	<path fill="#FDFDFD" d="M782.024,718.039c0.008,6.073,0.017,12.146,0.025,18.218C779.797,730.188,779.831,724.115,782.024,718.039z
		"/>
	<path fill="#FDFDFD" d="M662.034,907.21c6.086-0.017,12.172-0.035,18.259-0.052C674.213,909.35,668.127,909.277,662.034,907.21z"/>
	<path fill="#FDFDFD" d="M834.222,785.099c5.714,0.017,11.427,0.034,17.142,0.05c-0.417,1.175-0.835,2.35-2.31,2.578
		C844.528,784.493,838.707,788.567,834.222,785.099z"/>
	<path fill="#FDFDFD" d="M878.986,917.434c-0.005,5.364-0.009,10.728-0.014,16.092c-2.746-5.507-0.874-11.349-1.237-17.031
		C878.139,916.825,878.556,917.138,878.986,917.434z"/>
	<path fill="#FDFDFD" d="M3336.881,1864.591c-0.005-5.147-0.792-10.356,1.225-15.344
		C3337.711,1854.361,3339.613,1859.661,3336.881,1864.591z"/>
	<path fill="#FDFDFD" d="M601.857,920.368c4.403,0.012,8.807,0.025,13.209,0.039C610.655,922.744,606.252,922.789,601.857,920.368z"
		/>
	<path fill="#FDFDFD" d="M3323.083,1544.043c-2.08-4.378-1.281-9.02-1.251-13.592
		C3324.557,1534.769,3322.654,1539.513,3323.083,1544.043z"/>
	<path fill="#FDFDFD" d="M797.412,1034.115c4.419,0.035,8.838,0.07,13.256,0.104C806.233,1036.31,801.813,1036.445,797.412,1034.115
		z"/>
	<path fill="#FDFDFD" d="M3426.801,1023.924c-2.982-3.582-1.089-7.807-1.546-11.72
		C3428.292,1015.779,3426.225,1020.025,3426.801,1023.924z"/>
	<path fill="#FDFDFD" d="M3321.833,1486.806c-0.168-3.511-0.555-7.048,1.227-10.33
		C3322.791,1479.934,3324.343,1483.611,3321.833,1486.806z"/>
	<path fill="#FDFDFD" d="M3303.198,1926.681c3.299-0.003,6.597-0.005,9.894-0.007
		C3309.795,1929.047,3306.497,1929.045,3303.198,1926.681z"/>
	<path fill="#FDFDFD" d="M3339.775,1659.468c-1.762-3.284-1.335-6.828-1.223-10.333
		C3341.057,1652.331,3339.509,1656.007,3339.775,1659.468z"/>
	<path fill="#FDFDFD" d="M3425.127,997.181c-2.588-2.412-1.317-5.535-1.544-8.382
		C3426.24,991.199,3424.773,994.357,3425.127,997.181z"/>
	<path fill="#FDFDFD" d="M620.083,766.233c-2.85-0.12-5.919,1.026-8.366-1.439C614.531,765.122,617.645,763.71,620.083,766.233z"/>
	<path fill="#FDFDFD" d="M692.181,819.861c0.004-2.746,0.008-5.492,0.013-8.238C694.468,814.374,694.477,817.12,692.181,819.861z"/>
	<path fill="#FDFDFD" d="M566.683,1147.552c2.771,2.346,1.267,5.541,1.659,8.359
		C565.567,1153.565,567.085,1150.368,566.683,1147.552z"/>
	<path fill="#FDFDFD" d="M3324.776,1560.69c-1.814-2.629-1.489-5.579-1.281-8.512
		C3325.843,1554.726,3324.533,1557.825,3324.776,1560.69z"/>
	<path fill="#FDFDFD" d="M3338.127,1640.997c-1.665-2.678-1.501-5.633-1.3-8.593
		C3339.243,1634.969,3337.905,1638.101,3338.127,1640.997z"/>
	<path fill="#FDFDFD" d="M591.872,764.802c-2.456,2.467-5.553,1.292-8.409,1.48C585.898,763.689,589.039,765.124,591.872,764.802z"
		/>
	<path fill="#FE6161" d="M1780.568,124.033c-0.591,1.853-1.013,3.782-1.802,5.547c-4.721,10.569-9.678,20.543,0.69,31.457
		c4.207,4.428,3.428,12.084,1.185,18.447c-5.907,15.873-14.625,21.623-33.198,21.898c-18.86-8.358-24.885-16.469-24.067-32.402
		c0.694-13.519,12.025-25.792,25.53-26.007c7.241-0.116,10.992-2.651,13.646-9.035c1.991-4.788,5.212-9.065,7.886-13.571
		C1773.815,121.588,1777.191,122.81,1780.568,124.033z"/>
	<path fill="#F9F8F8" d="M1015.569,1373.226c-65.986,0-131.974-0.145-197.958,0.185c-8.16,0.041-9.945-2.429-8.589-9.941
		c5.398-29.896,10.548-59.838,15.626-89.79c4.939-29.132,9.646-58.303,14.518-87.447c2.64-15.797,5.67-31.535,7.968-47.381
		c0.716-4.935,2.352-6.433,7.272-6.427c95.221,0.123,190.442,0.126,285.662-0.019c5.459-0.008,7.785,2.028,9.382,7.073
		c13.821,43.651,27.816,87.247,41.894,130.816c10.065,31.15,20.347,62.23,30.509,93.348c2.998,9.182,2.686,9.576-7.49,9.578
		C1148.099,1373.231,1081.834,1373.226,1015.569,1373.226z"/>
	<path fill="#FEFEFE" d="M1145.48,941.834c3.35,17.12,7.698,33.982,12.264,50.822c5.799,21.384,21.226,36.065,34.737,52.083
		c11.248,13.335,23.079,26.178,34.652,39.239c-36.174,0.015-72.347,0.03-108.521,0.045c-0.719-0.645-1.081-1.45-1.096-2.416
		c0.316-3.715,0.254-7.43-0.021-11.156c0.017-21.109,2.853-42.028,4.047-63.057c1.209-21.299,2.904-42.572,4.2-63.868
		c1.224-20.101,2.009-40.243,6.231-60.031c0.395,0.023,0.791,0.021,1.185-0.007c1.92,0.886,3.053,2.538,3.432,4.453
		C1140.13,905.809,1145.352,923.404,1145.48,941.834z"/>
	<path fill="#F8BC00" d="M1118.661,1082.295c-0.016,0.576-0.032,1.152-0.049,1.728c-10.549,3.675-21.371,1.129-32.069,1.405
		c8.362-38.075,16.717-76.152,25.089-114.225c6.351-28.883,12.721-57.763,19.13-86.633c0.095-0.427,0.794-0.719,1.211-1.074
		c-3.5,54.845-6.906,109.696-10.606,164.527c-0.541,8.017-1.792,15.987-1.51,24.059
		C1118.162,1075.334,1119.942,1078.994,1118.661,1082.295z"/>
	<path fill="#A96F11" d="M1360.431,1209.696c-0.135,1.663-0.174,3.341-0.426,4.987c-0.513,3.346-0.941,7.144-5.452,7.067
		c-4.929-0.084-4.324-4.106-4.401-7.389c-0.346-14.649-6.363-26.811-16.273-37.28c-1.847-11.32,0.78-21.4,8.35-30.109
		c12.427,10.75,22.497,23.469,31.244,37.307c2.397,3.792,4.385,7.396-1.086,10.292c-2.48,1.313-1.358,3.121-0.787,4.973
		c1.174,3.808,4.025,8.511-1.609,10.626c-6.012,2.257-5.831-4.153-7.994-7.174
		C1359.394,1203.811,1359.391,1203.823,1360.431,1209.696z"/>
	<path fill="#E5E5E5" d="M1325.316,1129.805c-11.627-13.907-21.693-28.941-31.74-43.988c12.709-0.04,25.431,0.24,38.123-0.251
		c6.518-0.252,6.436,1.998,4.772,7.101C1332.465,1104.953,1328.999,1117.415,1325.316,1129.805z"/>
	<path fill="#FCCA02" d="M1342.228,1146.973c-4.222,9.638-6.9,19.704-8.35,30.11c-3.52,5.667-3.59,12.401-5.716,18.497
		c-0.311-5.999-0.622-11.995-0.933-17.992c1.869-13.441,6.549-26.19,9.708-39.313c2.171-9.019,4.984-17.883,6.493-25.177
		c-4.564,17.121-9.348,36.07-14.62,54.893c-0.451,1.611-0.788,3.331-3.115,2.97c-3.33-3.736-0.014-7.282,0.635-10.708
		c1.47-7.752,3.756-15.349,5.709-23.009c3.116-11.801,6.234-23.602,9.351-35.403c4.101-1.805,7.582-0.843,10.56,2.366
		C1349.4,1118.619,1343.425,1132.253,1342.228,1146.973z"/>
	<path fill="#FE6562" d="M1351.95,1104.206c-3.521-0.784-7.043-1.567-10.562-2.358c0.917-3.192,1.781-6.391,2.759-9.554
		c1.033-3.339,3.537-3.929,6.603-3.332c3.154,0.613,3.986,2.823,3.485,5.573C1353.644,1097.79,1352.727,1100.985,1351.95,1104.206z"
		/>
	<path fill="#FCCA09" d="M1314.456,1204.891c0.909,1.038,1.818,2.076,2.727,3.113c1.125,3.524-1.716,6.524-1.519,9.339
		c0.866-2.738,1.232-6.182,3.274-9.096c1.855-0.193,3.711-0.386,5.568-0.581c-1.878,6.753-3.757,13.508-5.637,20.263
		c-3.449,1.673-6.338,0.846-8.782-1.968C1311.543,1218.938,1312.999,1211.914,1314.456,1204.891z"/>
	<path fill="#719AF9" d="M1310.086,1225.961c2.927,0.656,5.855,1.312,8.782,1.968c-1.529,3.975-4.122,7.084-7.903,9.828
		C1308.462,1233.791,1308.489,1229.954,1310.086,1225.961z"/>
	<path fill="#DEC8AC" d="M1360.431,1209.696c-1.998-3.26-0.812-6.907-1.96-10.785c3.06,0.555,3.058,2.502,3.526,4.086
		C1360.012,1204.888,1361.382,1207.564,1360.431,1209.696z"/>
	<path fill="#E55A5A" d="M1688.168,447.224c0.377,24.935,0.329,49.857-1.299,74.765c-0.484,7.395-0.442,14.878,1.224,22.211
		c-0.126,19.797-0.52,39.591-0.564,59.389c-0.014,6.046,0.209,12.226-3.902,17.39c-21.829-0.079-43.659-0.158-65.488-0.238
		C1641.481,562.902,1664.825,505.063,1688.168,447.224z"/>
	<path fill="#FEFDFC" d="M1683.626,620.979c0.989-22.985,1.936-45.972,3.023-68.952c0.124-2.619-1.039-5.599,1.445-7.826
		c1.692,18.696,4.4,37.173,10.799,54.97c3.262,9.075,8.655,16.324,16.507,21.823C1704.81,620.99,1694.218,620.984,1683.626,620.979z
		"/>
	<path fill="#F6BF53" d="M1850.173,624.481c12.388-0.023,24.831-1.639,37.116,1.284
		C1874.896,625.951,1862.477,626.882,1850.173,624.481z"/>
	<path fill="#F6C056" d="M1786.643,622.819c11.847-0.053,23.751-1.704,35.487,1.287
		C1810.283,624.183,1798.397,625.327,1786.643,622.819z"/>
	<path fill="#F6C158" d="M1723.117,621.153c11.856-0.112,23.762-1.689,35.515,1.218
		C1746.774,622.572,1734.89,623.492,1723.117,621.153z"/>
	<path fill="#A96F11" d="M1086.165,628.322c-3.776,8.261-7.753,16.378-12.672,24.078c-9.962,15.593-24.205,24.188-42.182,27.156
		c-8.216,29.723-20.184,58.075-31.621,86.622c-21.671-3.971-28.639-12.433-28.621-34.121c0.005-5.422,1.37-11.007-1.045-16.299
		c2.856-8.377,0.929-17.053,1.526-25.574c0.737-10.513,0.646-21.083,0.953-31.627c0.077-2.642-0.725-5.611,3.591-6.099
		c32.621-3.687,45.176-26.408,52.044-54.746c2.804-11.572,6.114-23.036,11.202-33.901c9.434-20.149,25.128-30.195,47.438-30.464
		c5.766-0.069,8.926,1.563,9.567,7.408c0.543,4.952,1.227,9.888,1.849,14.832c-3,2.661-6.407,0.816-9.577,0.705
		c-19.772-0.696-34.864,11.92-37.418,31.491c-2.158,16.535,10.095,32.921,27.8,37.32
		C1081.539,625.734,1084.75,625.103,1086.165,628.322z"/>
	<path fill="#935D0F" d="M999.69,766.178c0.692-11.293,6.458-20.969,10.253-31.225c6.866-18.558,12.92-37.446,21.368-55.398
		c1.753,11.709,1.366,23.533,1.889,35.308c-1.025,9.337-1.537,18.765-3.187,27.99C1026.917,760.165,1017.672,766.986,999.69,766.178
		z"/>
	<path fill="#935D0F" d="M1145.48,941.834c-4.107-19.448-8.214-38.897-12.321-58.346c-1.885-6.038,0.701-9.336,6.066-12.289
		c12.164-6.696,23.931-14.115,35.859-21.24c1.406,0.942,1.645,2.124,0.629,3.477c-19.177,25.536-30.537,53.708-29.173,86.205
		C1146.57,940.356,1145.85,941.103,1145.48,941.834z"/>
	<path fill="#FEFEFE" d="M1641.491,1687.617c12.803,23.233,25.874,46.306,40.64,68.372c-4.762,3.501-10.497,2.791-15.783,3.099
		c-20.724,1.207-41.479,1.894-63.487,2.827c13.952-18.419,22.618-38.591,31.562-58.629
		C1636.758,1698.055,1637.709,1692.192,1641.491,1687.617z"/>
	<path fill="#FEFEFD" d="M1594.804,1453.284c-1.672-1.969-3.345-3.938-5.017-5.908c0.085-25.728-5.925-50.223-14.98-74.102
		c13.133,6.532,26.265,13.065,39.398,19.597c-6.927,17.28-10.234,35.644-15.963,53.283
		C1597.421,1448.682,1597.683,1451.743,1594.804,1453.284z"/>
	<path fill="#FED1D5" d="M1086.165,628.322c-20.11-2.504-33.063-12.958-36.52-29.474c-5.591-26.711,17.619-49.745,44.54-44.196
		c1.344,0.277,2.673,0.623,4.01,0.936c21.965,11.154,30.242,29.54,21.739,49.706C1113.737,619.989,1101.77,627.02,1086.165,628.322z
		"/>
	<path fill="#95BDFE" d="M2246.694,1664.085c-19.073,7.234-38.147,14.468-57.22,21.702c-19.78,7.294-20.079,7.387-26.549-13.435
		c-8.738-28.122-15.131-56.744-14.828-86.42c0.309-30.185,24.392-53.279,54.159-52.21c17.987,0.646,29.155,12.304,39.323,25.093
		c12.154,15.286,21.693,32.22,30.076,49.828c1.411,2.964,2.285,6.311,5.018,8.521c0.517,5.138,2.292,9.76,5.652,13.729
		c2.48,3.021,3.537,6.715,4.867,10.28c1.916,5.136,0.967,9.096-4.562,11.199c-8.079,2.271-15.214,7.767-24.152,7.148
		C2254.428,1660.729,2250.193,1661.458,2246.694,1664.085z"/>
	<path fill="#FE6161" d="M2840.947,1593.803c22.189-0.11,36.302,19.56,30.578,43.997c-4.181,17.851-15.075,30.832-32.707,37.112
		c-23.427,8.344-43.514-5.181-45.093-30.043C2792.143,1619.95,2816.208,1593.926,2840.947,1593.803z"/>
	<path fill="#5586FE" d="M2802.578,1714.059c-1.415,2.06-2.23,3.463-3.249,4.697c-13.791,16.698-27.717,33.286-41.349,50.114
		c-3.48,4.296-5.634,4.53-9.605,0.356c-14.361-15.093-28.776-30.173-43.915-44.469c-6.464-6.104-1.362-8.549,1.539-12.584
		c3.534-4.916,6.986-5.759,11.182-1.007c0.365,0.413,0.82,0.749,1.245,1.107c13.952,11.762,14.168,11.977,27.069-1.01
		c4.255-4.284,6.984-3.37,11.093-0.313c11.142,8.289,11.81,8.584,20.246-2.116c5.564-7.057,10.029-6.839,16.095-1.553
		C2795.781,1709.766,2799.138,1711.674,2802.578,1714.059z"/>
	<path fill="#FDCA00" d="M2742.972,1628.997c1.177,0.217,4.495,0.617,7.7,1.454c17.745,4.633,18.944,7.574,8.165,21.796
		c-4.809,6.344-8.09,17.151-14.925,17.707c-5.892,0.48-12.518-8.054-18.817-12.606c-3.152-2.278-6.142-4.832-9.483-6.785
		c-6.248-3.652-6.277-6.948-0.667-11.516C2722.375,1632.995,2731.785,1628.948,2742.972,1628.997z"/>
	<path fill="#E6E6E6" d="M2705.524,1608.65c-6.701-1.572-10.419-6.914-15.701-9.673c-9.075-4.74-18.089-9.6-27.116-14.433
		c-1.424-0.763-3.323-1.49-2.18-3.63c0.79-1.479,2.252-1.22,3.618-0.563c13.977,6.723,27.723,13.837,39.814,23.718
		C2705.014,1604.931,2705.979,1605.998,2705.524,1608.65z"/>
	<path fill="#E6E6E6" d="M2679.573,1552.021c11.504,2.899,21.767,8.908,31.833,14.876c3.665,2.173,12.32,3.059,9.818,8.074
		c-1.919,3.847-7.507-2.917-11.497-4.691c-10.708-4.76-21.045-10.354-31.529-15.617
		C2678.657,1553.782,2679.115,1552.902,2679.573,1552.021z"/>
	<path fill="#E6E6E6" d="M2687.774,1634.511c-0.424,2.671-1.926,2.649-3.639,1.678c-12.543-7.111-25.081-14.233-37.555-21.464
		c-0.728-0.422-1.364-1.921-1.197-2.748c0.236-1.17,1.699-1.541,2.71-0.977c12.832,7.162,25.631,14.384,38.402,21.656
		C2687.119,1633.011,2687.406,1633.956,2687.774,1634.511z"/>
	<path fill="#E6E6E6" d="M2736.236,1547.231c-12.71-7.272-25.425-14.538-38.125-21.827c-1.383-0.794-3.271-1.496-1.958-3.668
		c0.653-1.081,1.917-1.254,2.947-0.654c12.447,7.253,24.879,14.532,37.252,21.91c0.724,0.432,0.908,1.769,1.343,2.685
		C2737.208,1546.195,2736.722,1546.713,2736.236,1547.231z"/>
	<path fill="#6277B7" d="M2734.625,955.552c2.75,1.269,4.908,3.17,6.845,6.598c-4.021-0.65-6.211-2.929-8.489-5.048
		C2733.529,956.585,2734.077,956.069,2734.625,955.552z"/>
	<path fill="#6A6B82" d="M2731.399,982.092c1.225,0.857,2.45,1.713,3.675,2.57c-2.087,1.738-3.755,0.603-5.387-0.784
		C2730.258,983.283,2730.828,982.688,2731.399,982.092z"/>
	<path fill="#5683F2" d="M2728.058,967.111c2.168,0.602,3.584,2.033,4.937,4.187c-2.573,0.491-3.838-0.75-5.02-2.174
		C2728.002,968.453,2728.03,967.782,2728.058,967.111z"/>
	<path fill="#FEFEFE" d="M2258.477,1659.52c7.615-2.896,15.231-5.792,22.846-8.688c7.842,6.863,14.05,14.866,17.376,24.881
		c7.355,12.12,15.853,23.352,25.374,33.883c7.594,8.399,16.505,12.216,27.956,11.97c24.176-0.52,48.143-3.733,72.261-4.818
		c16.034-0.722,32.082-2.019,48.081,0.552c8.564,21.546,20.355,41.533,30.182,62.47c1.388,2.958,3.531,5.67,3.145,9.236
		c-39.359,4.807-78.92,3.535-118.426,3.969c-27.826,0.306-55.693,0.316-83.163,5.563c-5.576,1.065-5.083-2.603-5.964-5.583
		c-12.687-42.903-25.36-85.81-38.049-128.712C2259.624,1662.647,2259.019,1661.093,2258.477,1659.52z"/>
	<path fill="#E8D9BD" d="M2552.678,1717.387c-4.212-1.848-8.425-3.695-14.126-6.196c7.029-0.324,11.656,1.691,16.094,4.374
		C2553.991,1716.172,2553.334,1716.78,2552.678,1717.387z"/>
	<path fill="#E9D4AA" d="M2574.302,1793.275c-2.179,1.637-4.433,3.029-7.727,2.346c2.387-2.326,4.631-4.13,7.743-4.456
		C2574.312,1791.868,2574.307,1792.572,2574.302,1793.275z"/>
	<path fill="#ECCC8D" d="M2577.821,1804.854c-2.621,2.115-5.796,2.155-10.08,3.546c2.998-3.621,5.768-4.43,8.506-5.298
		C2576.772,1803.685,2577.297,1804.269,2577.821,1804.854z"/>
	<path fill="#FEFEFE" d="M2165.546,493.915c-59.591,0-119.182-0.14-178.771,0.163c-8.21,0.042-11.09-2-11.057-10.689
		c0.308-81.031,0.275-162.064,0.035-243.095c-0.023-7.855,2.031-10.606,10.282-10.59c119.737,0.237,239.476,0.218,359.214,0.028
		c7.471-0.012,10.22,1.87,10.195,9.822c-0.258,81.588-0.262,163.178,0.005,244.766c0.027,8.08-2.95,9.754-10.295,9.726
		C2285.284,493.813,2225.415,493.914,2165.546,493.915z"/>
	<path fill="#FDD229" d="M1325.695,1170.96c7.531-20.892,11.607-42.801,19.179-63.724c-4.569,23.788-9.846,47.379-17.645,70.353
		C1325.979,1175.549,1325.412,1173.353,1325.695,1170.96z"/>
	<path fill="#FDD329" d="M1318.938,1208.247c-0.69,5.493-0.808,11.189-6.183,17.005c0.77-7.176,2.063-12.34,4.428-17.249
		C1317.767,1208.085,1318.352,1208.166,1318.938,1208.247z"/>
	<path fill="#FEFEFE" d="M602.241,774.777c14.526-0.421,27.539,2.033,40.154,6.622c3.367,1.225,6.806,2.631,9.714,4.665
		c8.929,6.246,8.129,12.258-1.722,17.154c-7.986,3.97-16.76,4.249-25.154,4.635c-15.803,0.727-31.606-0.955-46.594-6.586
		c-5.466-2.054-12.387-3.49-12.02-11.745c0.379-8.535,7.403-10.746,13.585-12.613C587.607,774.674,595.462,774.084,602.241,774.777z
		"/>
	<path fill="#A96F11" d="M676.948,841.782c0.384,10.355-3.635,19.42-8.336,28.269c-1.202,2.263-3.063,3.956-5.456,4.913
		c-2.131,0.852-4.497,1.112-6.441-0.105c-2.392-1.497-0.182-3.502,0.139-5.137c2.828-14.392,2.858-14.34-9.515-22.051
		c-10.007-6.237-18.649-13.435-17.035-26.993c0.318-2.671,0.299-6.039,3.005-7.263c2.629-1.189,4.417,1.682,6.296,3.16
		c7.866,6.188,16.19,11.576,25.557,15.233C671.366,832.443,674.682,836.493,676.948,841.782z"/>
	<path fill="#FDFDFE" d="M676.948,841.782c-3.929-3.325-7.857-6.649-11.786-9.974c2.051-7.455,4.025-14.932,6.195-22.352
		c0.811-2.773,1.089-6.711,5.455-5.846c3.761,0.745,5.104,3.808,5.229,7.506C682.398,821.686,680.536,831.874,676.948,841.782z"/>
	<path fill="#F19F0D" d="M2298.699,1675.713c-5.791-8.295-11.583-16.589-17.375-24.883c5.057-1.343,6.341-3.977,4.031-9.007
		c-1.546-3.368-3.933-6.775-3.032-10.93c10.969-5.648,21.938-11.297,32.908-16.946c0.78,0.622,0.943,1.42,0.249,2.108
		c-16.078,15.933-19.329,35.362-15.624,56.752C2300.008,1673.683,2299.109,1674.74,2298.699,1675.713z"/>
	<path fill="#FE6161" d="M1126.76,1343.479c-13.798-0.74-26.061-5.682-34.434-16.611c-16.194-21.136-5.322-48.647,21.361-57.068
		c3.161-0.998,6.484-1.484,9.732-2.207c4.957-0.791,9.914-0.791,14.871,0c9.462,2.282,18.568,5.319,25.933,12.102
		c19.177,17.661,14.345,47.44-9.548,58.101c-6.27,2.797-12.655,5.523-19.728,5.683
		C1132.218,1344.191,1129.489,1344.191,1126.76,1343.479z"/>
	<path fill="#5586FE" d="M1084.932,1206.188c-3.03-5.935-2.565-12.665-4.237-18.932c-1.034-3.873-2.661-5.094-6.642-5.226
		c-19.561-0.653-19.579-0.775-23.894-19.119c-0.372-1.583-0.201-3.293-0.283-4.944c1.499-1.827,3.583-1.158,5.436-1.162
		c19.135-0.046,38.271-0.043,57.406-0.006c1.879,0.004,3.922-0.554,5.534,1.026c6.447,22.513,12.803,45.053,19.411,67.519
		c1.467,4.987-0.633,5.529-4.807,5.716c-21.649,0.968-21.658,1.058-27.503-19.222c-0.377-1.307-0.328-2.736-0.478-4.108
		C1098.368,1205.401,1091.461,1208.237,1084.932,1206.188z"/>
	<path fill="#FDCA00" d="M1053.111,1232.748c2.873,11.43,5.419,22.956,8.771,34.243c1.451,4.888-1.71,5.768-4.263,5.487
		c-16.087-1.768-32-4.861-45.182-14.966c-7.801-5.981-12.898-14.166-12.778-24.649
		C1017.474,1231.357,1035.291,1231.605,1053.111,1232.748z"/>
	<path fill="#E6E6E6" d="M967.872,1262.881c1.604,0.256,4.123,0.365,3.581,2.354c-0.6,2.202-3.325,2.998-5.505,2.262
		c-7.071-2.387-14.316-0.746-21.454-1.289c-7.118-2.349-14.636,0.67-21.758-1.62c-20.606-0.01-41.212,0.017-61.818-0.09
		c-1.981-0.01-5.346,1.222-5.612-1.734c-0.313-3.479,3.193-3.132,5.574-3.145c12.252-0.071,24.504-0.031,36.756-0.03
		c7.575,1.811,15.271,0.328,22.891,0.846c2.968,0.202,6.044-0.751,8.897,0.775c8.349,0.017,16.698,0.034,25.047,0.051
		C958.734,1263.487,963.602,1260.715,967.872,1262.881z"/>
	<path fill="#E5E5E5" d="M847.543,1301.299c0.541-4.049,3.686-3.239,6.272-3.273c5.699-0.074,11.4-0.033,17.101-0.039
		c3.169-1.55,6.551-0.742,9.82-0.751c27.441-0.075,54.882-0.067,82.323-0.006c2.711,0.006,5.554-0.741,8.131,0.816
		c-0.784,4.639-4.482,3.228-7.212,3.248c-15.418,0.115-30.836,0.064-46.255,0.069c-19.009,1.821-38.063,0.392-57.093,0.72
		C856.285,1302.158,851.807,1303.083,847.543,1301.299z"/>
	<path fill="#E5E5E5" d="M889.333,1184.368c26.465-0.006,52.93-0.012,79.396-0.017c1.671,0,3.344-0.033,5.014,0.023
		c1.937,0.065,4.523,0.019,4.537,2.45c0.015,2.488-2.587,2.404-4.532,2.476c-1.391,0.051-2.785,0.012-4.178,0.014
		c-10.981-1.824-22.047-0.766-33.059-0.718c-12.956,0.056-25.953-1.182-38.877,0.717c-6.676,0.017-13.353,0.035-20.03,0.052
		c-3.9,1.254-7.801,1.223-11.704,0.015c-1.7-1.741-1.144-3.007,1.045-3.215c2.974-0.282,5.988-0.139,8.985-0.178
		C880.201,1183.821,885.069,1186.59,889.333,1184.368z"/>
	<path fill="#E5E5E5" d="M947.841,1224.488c6.112,0,12.225-0.03,18.337,0.02c1.887,0.016,4.429-0.268,4.494,2.4
		c0.067,2.713-2.477,2.5-4.365,2.515c-6.945,0.055-13.892,0.03-20.838,0.031c-25.839,0.005-51.679,0.065-77.517-0.101
		c-1.955-0.012-6.393,2.378-5.396-3.239c13.492-1.79,27.049-0.33,40.568-0.798C918.026,1224.801,932.964,1226.325,947.841,1224.488z
		"/>
	<path fill="#F2F2F2" d="M971.19,1298.046c-33.425-0.019-66.849-0.039-100.274-0.058c1.905-2.311,4.556-1.621,6.965-1.624
		c28.796-0.038,57.592-0.04,86.388-0.002C966.668,1296.364,969.336,1295.64,971.19,1298.046z"/>
	<path fill="#F2F2F2" d="M947.841,1224.488c-2.494,2.647-5.743,1.571-8.669,1.58c-25.538,0.081-51.077,0.047-76.615,0.046
		c2.183-2.538,5.151-1.616,7.813-1.621C896.194,1224.442,922.017,1224.477,947.841,1224.488z"/>
	<path fill="#F2F2F2" d="M897.634,1189.313c1.4-1.745,3.374-1.629,5.308-1.629c20.441-0.002,40.881-0.003,61.322-0.002
		c1.934,0,3.907-0.115,5.306,1.631C945.591,1189.313,921.612,1189.313,897.634,1189.313z"/>
	<path fill="#F2F2F2" d="M847.543,1301.299c23.393,0.021,46.787,0.042,70.18,0.064
		C894.327,1304.056,870.933,1304.194,847.543,1301.299z"/>
	<path fill="#F2F2F2" d="M1118.251,1157.825c-22.792,0.047-45.584,0.094-68.375,0.141c1.321-2.495,3.707-2.028,5.862-2.031
		c18.849-0.025,37.698-0.025,56.547-0.001C1114.443,1155.937,1116.811,1155.47,1118.251,1157.825z"/>
	<path fill="#F2F2F2" d="M1053.111,1232.748c-17.819-0.726-35.637-0.938-53.451,0.115c1.542-2.196,3.88-1.729,6.028-1.733
		c13.774-0.028,27.548-0.027,41.322-0.001C1049.163,1231.133,1051.485,1230.678,1053.111,1232.748z"/>
	<path fill="#F2F2F2" d="M929.424,1261.21c-10.578-0.889-21.345,1.923-31.788-1.621
		C908.215,1260.47,918.984,1257.62,929.424,1261.21z"/>
	<path fill="#F2F2F2" d="M922.736,1264.589c7.227,0.879,14.73-1.944,21.758,1.621
		C937.265,1265.339,929.76,1268.188,922.736,1264.589z"/>
	<path fill="#F2F2F2" d="M1084.932,1206.188c6.634,0.695,13.524-1.922,19.943,1.542
		C1098.248,1206.944,1091.371,1209.405,1084.932,1206.188z"/>
	<path fill="#F2F2F2" d="M1138.29,1267.594c-4.957,0-9.915,0-14.872,0C1128.375,1265.456,1133.333,1265.456,1138.29,1267.594z"/>
	<path fill="#F2F2F2" d="M967.872,1262.881c-4.451-0.672-9.261,1.626-13.4-1.621
		C958.923,1261.926,963.737,1259.594,967.872,1262.881z"/>
	<path fill="#F2F2F2" d="M889.333,1184.368c-4.141,3.241-8.951,0.951-13.403,1.62C880.066,1182.7,884.88,1185.029,889.333,1184.368z
		"/>
	<path fill="#F2F2F2" d="M865.9,1189.38c3.901-0.005,7.803-0.01,11.704-0.016C873.706,1191.958,869.805,1191.952,865.9,1189.38z"/>
	<path fill="#F2F2F2" d="M1126.76,1343.479c2.729,0,5.458,0,8.187,0C1132.218,1345.47,1129.489,1345.47,1126.76,1343.479z"/>
	<path fill="#F2F2F2" d="M1118.661,1082.295c-0.192-3.474-0.665-6.981,1.196-10.214
		C1119.703,1075.515,1121.096,1079.129,1118.661,1082.295z"/>
	<path fill="#A96F11" d="M1089.885,617.589c-14.027,1.353-23.733-3.895-28.981-15.67c-4.814-10.804-2.305-22.985,6.413-31.126
		c8.599-8.031,20.796-9.373,31.324-3.449c4.291,7.771,1.351,15.756-0.104,23.338C1096.77,599.896,1097.184,610.068,1089.885,617.589
		z"/>
	<path fill="#5686FD" d="M1089.885,617.589c4.839-16.413,8.454-33.04,8.756-50.245c10.755,5.558,16.333,16.316,14.465,27.896
		C1111.225,606.909,1101.985,615.801,1089.885,617.589z"/>
	<path fill="#5586FE" d="M2010.8,417.647c0-13.09,0.175-26.184-0.091-39.268c-0.098-4.802,1.625-6.047,6.262-6.202
		c23.825-0.797,24.041-0.924,23.933,22.489c-0.028,6.142,1.47,8.298,7.867,8.024c7.132-0.305,16.343-3.187,20.963,1.283
		c4.648,4.497,1.614,13.746,1.403,20.857c-0.191,6.436,1.571,9.545,8.35,8.48c0.816-0.128,1.676-0.09,2.503-0.006
		c6.267,0.641,15.469-3.062,18.202,1.611c4.149,7.094,1.203,16.766,1.292,25.339c0.031,3.055-2.464,3.234-4.792,3.235
		c-27.016,0.004-54.031-0.069-81.046,0.068c-5.224,0.026-4.864-3.2-4.857-6.64C2010.815,443.827,2010.8,430.737,2010.8,417.647z"/>
	<path fill="#FE6161" d="M2051.818,342.059c-22.629-0.033-41.001-18.32-40.986-40.795c0.016-22.291,19.104-41.373,41.035-41.021
		c22.552,0.362,40.998,18.839,41.021,41.091C2092.91,323.731,2074.395,342.092,2051.818,342.059z"/>
	<path fill="#FDCA00" d="M2107.854,367.57c0-7.218,0.189-14.443-0.071-21.652c-0.156-4.307,1.008-5.804,5.637-5.288
		c23.736,2.645,43.988,21.85,47.802,45.486c0.987,6.118,0.647,9.733-7.418,9.309c-13.289-0.699-26.645-0.381-39.964-0.089
		c-4.764,0.104-6.305-1.397-6.077-6.117C2108.11,382.018,2107.854,374.788,2107.854,367.57z"/>
	<path fill="#E7E7E7" d="M2262.177,376.935c18.616,0.009,37.232-0.048,55.847,0.079c2.409,0.016,6.568-1.5,6.511,2.661
		c-0.046,3.406-3.905,2.216-6.155,2.22c-37.51,0.07-75.019,0.059-112.528,0.002c-2.601-0.004-6.663,0.775-6.567-2.973
		c0.087-3.372,4.014-1.911,6.211-1.926C2224.389,376.872,2243.283,376.925,2262.177,376.935z"/>
	<path fill="#E6E6E6" d="M2320.856,339.465c-39.385,0-78.769,0-119.528,0c3.677-3.778,7.203-4.288,10.969-4.286
		c32.501,0.01,65.004-0.061,97.504,0.103c3.743,0.019,7.479,1.322,11.219,2.03C2320.966,338.029,2320.911,338.747,2320.856,339.465z
		"/>
	<path fill="#E6E6E6" d="M2247.325,418.733c19.701-1.539,43.2,2.641,66.825,1.699c2.041-0.081,5.328-0.838,5.447,2.173
		c0.154,3.873-3.53,2.875-5.69,2.654c-33.008-3.38-66.104-0.598-99.142-1.525c-2.224-0.062-4.459,0.063-6.673-0.107
		c-1.959-0.15-4.246-0.574-3.872-3.188c0.316-2.212,2.582-1.666,4.113-1.674C2220.02,418.706,2231.706,418.733,2247.325,418.733z"/>
	<path fill="#E5E5E5" d="M2199.054,295.656c1.834-0.24,3.436-0.632,5.039-0.633c35.911-0.029,71.822-0.037,107.732,0.048
		c1.985,0.005,5.336-1.21,5.631,1.724c0.354,3.514-3.185,3.3-5.526,3.155c-36.658-2.27-73.36-1.285-110.044-1.63
		C2200.859,298.31,2199.646,298.258,2199.054,295.656z"/>
</g>
</svg>
