<?xml version="1.0" encoding="UTF-8" standalone="no"?>
<!-- Created with Inkscape (http://www.inkscape.org/) -->

<svg
   version="1.1"
   id="svg2"
   xml:space="preserve"
   width="666.66669"
   height="666.66669"
   viewBox="0 0 666.66669 666.66669"
   sodipodi:docname="8449769_3911319.ai"
   xmlns:inkscape="http://www.inkscape.org/namespaces/inkscape"
   xmlns:sodipodi="http://sodipodi.sourceforge.net/DTD/sodipodi-0.dtd"
   xmlns="http://www.w3.org/2000/svg"
   xmlns:svg="http://www.w3.org/2000/svg"><defs
     id="defs6"><clipPath
       clipPathUnits="userSpaceOnUse"
       id="clipPath16"><path
         d="M 0,500 H 500 V 0 H 0 Z"
         id="path14" /></clipPath><clipPath
       clipPathUnits="userSpaceOnUse"
       id="clipPath28"><path
         d="M 0,500 H 500 V 0 H 0 Z"
         id="path26" /></clipPath><clipPath
       clipPathUnits="userSpaceOnUse"
       id="clipPath62"><path
         d="m 368.458,381.265 h 14.18 v -14.18 h -14.18 z"
         id="path60" /></clipPath><clipPath
       clipPathUnits="userSpaceOnUse"
       id="clipPath190"><path
         d="M 0,500 H 500 V 0 H 0 Z"
         id="path188" /></clipPath><clipPath
       clipPathUnits="userSpaceOnUse"
       id="clipPath202"><path
         d="M 65.7373,454.439 H 442.505 V 181.165 H 65.7373 Z"
         id="path200" /></clipPath><clipPath
       clipPathUnits="userSpaceOnUse"
       id="clipPath228"><path
         d="M 0,500 H 500 V 0 H 0 Z"
         id="path226" /></clipPath><clipPath
       clipPathUnits="userSpaceOnUse"
       id="clipPath236"><path
         d="m 108.379,219.2 h 7.18 V 105.86 h -7.18 z"
         id="path234" /></clipPath><clipPath
       clipPathUnits="userSpaceOnUse"
       id="clipPath260"><path
         d="M 0,500 H 500 V 0 H 0 Z"
         id="path258" /></clipPath><clipPath
       clipPathUnits="userSpaceOnUse"
       id="clipPath268"><path
         d="m 386.635,219.2 h 7.18 V 105.86 h -7.18 z"
         id="path266" /></clipPath><clipPath
       clipPathUnits="userSpaceOnUse"
       id="clipPath288"><path
         d="M 0,500 H 500 V 0 H 0 Z"
         id="path286" /></clipPath><clipPath
       clipPathUnits="userSpaceOnUse"
       id="clipPath296"><path
         d="M 55.0391,221.75 H 446.896 v -5.489 H 55.0391 Z"
         id="path294" /></clipPath><clipPath
       clipPathUnits="userSpaceOnUse"
       id="clipPath312"><path
         d="M 0,500 H 500 V 0 H 0 Z"
         id="path310" /></clipPath><clipPath
       clipPathUnits="userSpaceOnUse"
       id="clipPath324"><path
         d="M 73.35,245.861 H 94.9927 V 228.385 H 73.35 Z"
         id="path322" /></clipPath><clipPath
       clipPathUnits="userSpaceOnUse"
       id="clipPath344"><path
         d="m 71.0421,228.529 h 31.0589 v -1.48 H 71.0421 Z"
         id="path342" /></clipPath><clipPath
       clipPathUnits="userSpaceOnUse"
       id="clipPath364"><path
         d="m 415.327,246.698 h 22.037 v -19.529 h -22.037 z"
         id="path362" /></clipPath><clipPath
       clipPathUnits="userSpaceOnUse"
       id="clipPath382"><path
         d="M 0,500 H 500 V 0 H 0 Z"
         id="path380" /></clipPath><clipPath
       clipPathUnits="userSpaceOnUse"
       id="clipPath390"><path
         d="m 244.105,251.269 h 11.79 v -23.952 h -11.79 z"
         id="path388" /></clipPath><clipPath
       clipPathUnits="userSpaceOnUse"
       id="clipPath408"><path
         d="M 0,500 H 500 V 0 H 0 Z"
         id="path406" /></clipPath><clipPath
       clipPathUnits="userSpaceOnUse"
       id="clipPath416"><path
         d="m 238.881,231.684 h 22.337 v -4.796 h -22.337 z"
         id="path414" /></clipPath><clipPath
       clipPathUnits="userSpaceOnUse"
       id="clipPath436"><path
         d="M 0,500 H 500 V 0 H 0 Z"
         id="path434" /></clipPath><clipPath
       clipPathUnits="userSpaceOnUse"
       id="clipPath444"><path
         d="m 254.489,234.643 h 65.92 v -7.784 h -65.92 z"
         id="path442" /></clipPath><clipPath
       clipPathUnits="userSpaceOnUse"
       id="clipPath464"><path
         d="M 0,500 H 500 V 0 H 0 Z"
         id="path462" /></clipPath><clipPath
       clipPathUnits="userSpaceOnUse"
       id="clipPath472"><path
         d="m 254.489,234.643 h 10.09 v -7.784 h -10.09 z"
         id="path470" /></clipPath><clipPath
       clipPathUnits="userSpaceOnUse"
       id="clipPath492"><path
         d="m 200.8,303.821 h 97.72 V 246.147 H 200.8 Z"
         id="path490" /></clipPath><clipPath
       clipPathUnits="userSpaceOnUse"
       id="clipPath506"><path
         d="m 246.105,291.958 h 49.311 V 258.01 h -49.311 z"
         id="path504" /></clipPath><clipPath
       clipPathUnits="userSpaceOnUse"
       id="clipPath574"><path
         d="M 0,500 H 500 V 0 H 0 Z"
         id="path572" /></clipPath><clipPath
       clipPathUnits="userSpaceOnUse"
       id="clipPath606"><path
         d="M 0,500 H 500 V 0 H 0 Z"
         id="path604" /></clipPath><clipPath
       clipPathUnits="userSpaceOnUse"
       id="clipPath614"><path
         d="m 293.228,130.328 h 8.24 v -11.38 h -8.24 z"
         id="path612" /></clipPath><clipPath
       clipPathUnits="userSpaceOnUse"
       id="clipPath654"><path
         d="m 263.229,128.117 h 9.41 v -11.95 h -9.41 z"
         id="path652" /></clipPath><clipPath
       clipPathUnits="userSpaceOnUse"
       id="clipPath738"><path
         d="M 329.452,318.85 H 353.2 v -17.34 h -23.748 z"
         id="path736" /></clipPath><clipPath
       clipPathUnits="userSpaceOnUse"
       id="clipPath766"><path
         d="m 325.815,269.063 h 8.77 v -27.271 h -8.77 z"
         id="path764" /></clipPath><clipPath
       clipPathUnits="userSpaceOnUse"
       id="clipPath810"><path
         d="m 333.773,171.154 h 11 v -8.03 h -11 z"
         id="path808" /></clipPath><clipPath
       clipPathUnits="userSpaceOnUse"
       id="clipPath836"><path
         d="M 274.87,294.92 H 392.49 V 171.15 H 274.87 Z"
         id="path834" /></clipPath><clipPath
       clipPathUnits="userSpaceOnUse"
       id="clipPath856"><path
         d="m 340.624,294.924 h 60.749 v -123.77 h -60.749 z"
         id="path854" /></clipPath><clipPath
       clipPathUnits="userSpaceOnUse"
       id="clipPath876"><path
         d="M 274.837,217.33 H 326.95 V 204.046 H 274.837 Z"
         id="path874" /></clipPath><clipPath
       clipPathUnits="userSpaceOnUse"
       id="clipPath892"><path
         d="M 0,500 H 500 V 0 H 0 Z"
         id="path890" /></clipPath><clipPath
       clipPathUnits="userSpaceOnUse"
       id="clipPath960"><path
         d="m 184.09,285.548 h 19.913 V 263.53 H 184.09 Z"
         id="path958" /></clipPath><clipPath
       clipPathUnits="userSpaceOnUse"
       id="clipPath988"><path
         d="M 121.726,266.942 H 132.14 V 245.663 H 121.726 Z"
         id="path986" /></clipPath><clipPath
       clipPathUnits="userSpaceOnUse"
       id="clipPath1008"><path
         d="m 160.995,262.12 h 10.222 v -20.345 h -10.222 z"
         id="path1006" /></clipPath><clipPath
       clipPathUnits="userSpaceOnUse"
       id="clipPath1032"><path
         d="m 206.463,125.806 h 8.69 v -9.29 h -8.69 z"
         id="path1030" /></clipPath><clipPath
       clipPathUnits="userSpaceOnUse"
       id="clipPath1052"><path
         d="m 176.753,125.944 h 9.8 v -9.29 h -9.8 z"
         id="path1050" /></clipPath><clipPath
       clipPathUnits="userSpaceOnUse"
       id="clipPath1096"><path
         d="M 167.167,187.036 H 201.7 v -15.249 h -34.533 z"
         id="path1094" /></clipPath><clipPath
       clipPathUnits="userSpaceOnUse"
       id="clipPath1128"><path
         d="m 134.08,181.475 h 13.125 V 99.9842 H 134.08 Z"
         id="path1126" /></clipPath><clipPath
       clipPathUnits="userSpaceOnUse"
       id="clipPath1148"><path
         d="m 122.942,188.885 h 65 v -7.42 h -65 z"
         id="path1146" /></clipPath><clipPath
       clipPathUnits="userSpaceOnUse"
       id="clipPath1172"><path
         d="m 180.212,181.475 h 14.52 V 99.3153 h -14.52 z"
         id="path1170" /></clipPath></defs><sodipodi:namedview
     id="namedview4"
     pagecolor="#ffffff"
     bordercolor="#666666"
     borderopacity="1.0"
     inkscape:pageshadow="2"
     inkscape:pageopacity="0.0"
     inkscape:pagecheckerboard="0" /><g
     id="g8"
     inkscape:groupmode="layer"
     inkscape:label="8449769_3911319"
     transform="matrix(1.3333333,0,0,-1.3333333,0,666.66667)"><g
       id="g10"><g
         id="g12"
         clip-path="url(#clipPath16)"><g
           id="g18"
           transform="translate(250,101.25)"><path
             d="m 0,0 c 107.082,0 193.89,-5.068 193.89,-11.32 0,-6.252 -86.808,-11.32 -193.89,-11.32 -107.083,0 -193.89,5.068 -193.89,11.32 C -193.89,-5.068 -107.083,0 0,0"
             style="fill:#f5f5f5;fill-opacity:1;fill-rule:nonzero;stroke:none"
             id="path20" /></g></g></g><g
       id="g22"><g
         id="g24"
         clip-path="url(#clipPath28)"><g
           id="g30"
           transform="translate(45.3047,441.0698)"><path
             d="m 0,0 c -3.012,-0.006 -5.449,-2.449 -5.449,-5.46 v -271.43 c 0,-3.012 2.437,-5.454 5.449,-5.46 h 193.09 c 3.014,0.006 5.455,2.446 5.461,5.46 V -5.46 c -0.006,3.013 -2.447,5.454 -5.461,5.46 z M 193.09,-282.6 H 0 c -3.149,0.006 -5.699,2.56 -5.699,5.71 V -5.46 C -5.672,-2.33 -3.13,0.194 0,0.2 h 193.09 c 3.154,0 5.711,-2.556 5.711,-5.71 v -271.38 c 0,-3.153 -2.557,-5.71 -5.711,-5.71"
             style="fill:#e7e7e7;fill-opacity:1;fill-rule:nonzero;stroke:none"
             id="path32" /></g><g
           id="g34"
           transform="translate(261.6055,441.0698)"><path
             d="m 0,0 c -3.014,-0.006 -5.455,-2.447 -5.461,-5.46 v -271.43 c 0.006,-3.014 2.447,-5.454 5.461,-5.46 h 193.1 c 3.012,0.006 5.454,2.446 5.46,5.46 V -5.46 c -0.006,3.013 -2.448,5.454 -5.46,5.46 z M 193.1,-282.6 H 0 c -3.151,0.006 -5.705,2.558 -5.711,5.71 V -5.46 C -5.678,-2.329 -3.133,0.194 0,0.2 h 193.1 c 3.126,-0.011 5.663,-2.534 5.689,-5.66 v -271.43 c 0,-3.146 -2.544,-5.699 -5.689,-5.71"
             style="fill:#e7e7e7;fill-opacity:1;fill-rule:nonzero;stroke:none"
             id="path36" /></g><path
           d="M 53.79,107.79 H 95 v -0.25 H 53.79 Z"
           style="fill:#e1e1e1;fill-opacity:1;fill-rule:nonzero;stroke:none"
           id="path38" /><path
           d="M 137.67,109.79 H 179 v -0.25 h -41.33 z"
           style="fill:#e1e1e1;fill-opacity:1;fill-rule:nonzero;stroke:none"
           id="path40" /><path
           d="m 222.78,109.79 h 10 v -0.25 h -10 z"
           style="fill:#e1e1e1;fill-opacity:1;fill-rule:nonzero;stroke:none"
           id="path42" /><path
           d="m 86.58,101.25 h 46.25 V 101 H 86.58 Z"
           style="fill:#e1e1e1;fill-opacity:1;fill-rule:nonzero;stroke:none"
           id="path44" /><path
           d="m 271.2,107.92 h 21.6 v -0.25 h -21.6 z"
           style="fill:#e1e1e1;fill-opacity:1;fill-rule:nonzero;stroke:none"
           id="path46" /><path
           d="m 301.7,107.92 h 27.93 v -0.25 H 301.7 Z"
           style="fill:#e1e1e1;fill-opacity:1;fill-rule:nonzero;stroke:none"
           id="path48" /><path
           d="m 401.89,103.69 h 62.44 v -0.25 h -62.44 z"
           style="fill:#e1e1e1;fill-opacity:1;fill-rule:nonzero;stroke:none"
           id="path50" /><path
           d="m 364.83,385.774 h 47.61 v -33.27 h -47.61 z"
           style="fill:#e7e7e7;fill-opacity:1;fill-rule:nonzero;stroke:none"
           id="path52" /><path
           d="m 386.3,352.504 h -21.47 v 33.27 h 21.47 z"
           style="fill:#f0f0f0;fill-opacity:1;fill-rule:nonzero;stroke:none"
           id="path54" /><g
           id="g56"><g
             id="g58" /><g
             id="g70"><g
               clip-path="url(#clipPath62)"
               opacity="0.399994"
               id="g68"><g
                 transform="translate(375.5479,381.2646)"
                 id="g66"><path
                   d="m 0,0 c 3.916,0 7.09,-3.174 7.09,-7.09 0,-3.916 -3.174,-7.09 -7.09,-7.09 -3.916,0 -7.09,3.174 -7.09,7.09 C -7.09,-3.174 -3.916,0 0,0"
                   style="fill:#e1e1e1;fill-opacity:1;fill-rule:nonzero;stroke:none"
                   id="path64" /></g></g></g></g><g
           id="g72"
           transform="translate(379.0078,360.3447)"><path
             d="m 0,0 c 0,-1.911 -1.549,-3.46 -3.46,-3.46 -1.911,0 -3.46,1.549 -3.46,3.46 0,1.911 1.549,3.46 3.46,3.46 C -1.549,3.46 0,1.911 0,0"
             style="fill:#e1e1e1;fill-opacity:1;fill-rule:nonzero;stroke:none"
             id="path74" /></g><g
           id="g76"
           transform="translate(377.5146,373.6934)"><path
             d="m 0,0 c 0,-1.114 -0.903,-2.018 -2.018,-2.018 -1.114,0 -2.017,0.904 -2.017,2.018 0,1.114 0.903,2.018 2.017,2.018 C -0.903,2.018 0,1.114 0,0"
             style="fill:#fafafa;fill-opacity:1;fill-rule:nonzero;stroke:none"
             id="path78" /></g><path
           d="m 310.796,352.492 h -20.588 v 45.196 h 20.588 z"
           style="fill:#f0f0f0;fill-opacity:1;fill-rule:nonzero;stroke:none"
           id="path80" /><path
           d="m 337.552,352.492 h -27.317 v 45.196 h 27.317 z"
           style="fill:#e7e7e7;fill-opacity:1;fill-rule:nonzero;stroke:none"
           id="path82" /><g
           id="g84"
           transform="translate(300.4277,383.3369)"><path
             d="m 0,0 c 1.574,0 2.852,-1.276 2.852,-2.852 0,-1.574 -1.278,-2.851 -2.852,-2.851 -1.575,0 -2.852,1.277 -2.852,2.851 C -2.852,-1.276 -1.575,0 0,0"
             style="fill:#ffffff;fill-opacity:1;fill-rule:nonzero;stroke:none"
             id="path86" /></g><g
           id="g88"
           transform="translate(300.4277,387.7881)"><path
             d="m 0,0 c 0.787,0 1.426,-0.638 1.426,-1.426 0,-0.787 -0.639,-1.426 -1.426,-1.426 -0.788,0 -1.426,0.639 -1.426,1.426 C -1.426,-0.638 -0.788,0 0,0"
             style="fill:#ffffff;fill-opacity:1;fill-rule:nonzero;stroke:none"
             id="path90" /></g><g
           id="g92"
           transform="translate(300.4277,392.1104)"><path
             d="m 0,0 c 0.787,0 1.426,-0.638 1.426,-1.426 0,-0.787 -0.639,-1.426 -1.426,-1.426 -0.788,0 -1.426,0.639 -1.426,1.426 C -1.426,-0.638 -0.788,0 0,0"
             style="fill:#ffffff;fill-opacity:1;fill-rule:nonzero;stroke:none"
             id="path94" /></g><path
           d="m 337.073,371.625 h -46.404 v 0.713 h 46.404 z"
           style="fill:#e1e1e1;fill-opacity:1;fill-rule:nonzero;stroke:none"
           id="path96" /><path
           d="m 337.073,367.615 h -46.404 v 0.713 h 46.404 z"
           style="fill:#e1e1e1;fill-opacity:1;fill-rule:nonzero;stroke:none"
           id="path98" /><path
           d="m 337.073,363.605 h -46.404 v 0.713 h 46.404 z"
           style="fill:#e1e1e1;fill-opacity:1;fill-rule:nonzero;stroke:none"
           id="path100" /><path
           d="m 337.073,359.595 h -46.404 v 0.713 h 46.404 z"
           style="fill:#e1e1e1;fill-opacity:1;fill-rule:nonzero;stroke:none"
           id="path102" /><path
           d="m 337.073,355.585 h -46.404 v 0.713 h 46.404 z"
           style="fill:#e1e1e1;fill-opacity:1;fill-rule:nonzero;stroke:none"
           id="path104" /><path
           d="m 300.918,369.159 h -1.961 v 1.96 h 1.961 z"
           style="fill:#e1e1e1;fill-opacity:1;fill-rule:nonzero;stroke:none"
           id="path106" /><path
           d="m 300.918,364.941 h -1.961 v 1.96 h 1.961 z"
           style="fill:#e1e1e1;fill-opacity:1;fill-rule:nonzero;stroke:none"
           id="path108" /><path
           d="m 300.918,361.14 h -1.961 v 1.96 h 1.961 z"
           style="fill:#e1e1e1;fill-opacity:1;fill-rule:nonzero;stroke:none"
           id="path110" /><path
           d="m 300.918,357.041 h -1.961 v 1.96 h 1.961 z"
           style="fill:#e1e1e1;fill-opacity:1;fill-rule:nonzero;stroke:none"
           id="path112" /><path
           d="m 300.918,353.058 h -1.961 v 1.96 h 1.961 z"
           style="fill:#e1e1e1;fill-opacity:1;fill-rule:nonzero;stroke:none"
           id="path114" /><g
           id="g116"
           transform="translate(250.8691,307.9844)"><path
             d="m 0,0 h -1 v 38.304 c 0,4.299 3.497,7.797 7.796,7.797 H 39.8 v -1 H 6.796 C 3.049,45.101 0,42.052 0,38.304 Z"
             style="fill:#e1e1e1;fill-opacity:1;fill-rule:nonzero;stroke:none"
             id="path118" /></g><g
           id="g120"
           transform="translate(248.8691,307.9272)"><path
             d="m 0,0 h -1 v 38.642 c 0,5.215 4.243,9.459 9.459,9.459 H 41.8 v -1 H 8.459 C 3.795,47.101 0,43.306 0,38.642 Z"
             style="fill:#e1e1e1;fill-opacity:1;fill-rule:nonzero;stroke:none"
             id="path122" /></g><path
           d="m 139.37,403.999 h -31.31 v -33.33 h 31.31 z"
           style="fill:#e7e7e7;fill-opacity:1;fill-rule:nonzero;stroke:none"
           id="path124" /><path
           d="m 139.37,370.668 h 8.021 v 33.33 h -8.021 z"
           style="fill:#f5f5f5;fill-opacity:1;fill-rule:nonzero;stroke:none"
           id="path126" /><path
           d="M 123.37,409.138 H 99.85 v -38.47 h 23.52 z"
           style="fill:#e7e7e7;fill-opacity:1;fill-rule:nonzero;stroke:none"
           id="path128" /><path
           d="m 123.36,370.668 h 6.8 v 38.47 h -6.8 z"
           style="fill:#f5f5f5;fill-opacity:1;fill-rule:nonzero;stroke:none"
           id="path130" /><path
           d="M 116.44,403.999 H 96.61 v -33.33 h 19.83 z"
           style="fill:#ececec;fill-opacity:1;fill-rule:nonzero;stroke:none"
           id="path132" /><path
           d="m 116.44,370.668 h 4.53 v 33.33 h -4.53 z"
           style="fill:#f5f5f5;fill-opacity:1;fill-rule:nonzero;stroke:none"
           id="path134" /><path
           d="M 100.211,398.358 H 74.2 v -27.69 h 26.011 z"
           style="fill:#e7e7e7;fill-opacity:1;fill-rule:nonzero;stroke:none"
           id="path136" /><path
           d="m 100.211,370.668 h 6.659 v 27.69 h -6.659 z"
           style="fill:#f5f5f5;fill-opacity:1;fill-rule:nonzero;stroke:none"
           id="path138" /><path
           d="m 86.921,402.628 h -19.54 v -31.96 h 19.54 z"
           style="fill:#e7e7e7;fill-opacity:1;fill-rule:nonzero;stroke:none"
           id="path140" /><path
           d="m 86.91,370.668 h 5.65 v 31.96 h -5.65 z"
           style="fill:#f5f5f5;fill-opacity:1;fill-rule:nonzero;stroke:none"
           id="path142" /><path
           d="M 81.16,398.358 H 62.181 v -27.69 H 81.16 Z"
           style="fill:#e7e7e7;fill-opacity:1;fill-rule:nonzero;stroke:none"
           id="path144" /><path
           d="m 81.171,370.668 h 3.76 v 27.69 h -3.76 z"
           style="fill:#f0f0f0;fill-opacity:1;fill-rule:nonzero;stroke:none"
           id="path146" /><path
           d="m 39.998,361.04 h 204 v 9.646 h -204 z"
           style="fill:#e7e7e7;fill-opacity:1;fill-rule:nonzero;stroke:none"
           id="path148" /><g
           id="g150"
           transform="translate(76.6055,360.812)"><path
             d="M 0,0 H 11.286 L 3.065,-12.412 H 0 Z"
             style="fill:#e1e1e1;fill-opacity:1;fill-rule:nonzero;stroke:none"
             id="path152" /></g><path
           d="m 74.98,360.812 h 1.625 V 348.4 H 74.98 Z"
           style="fill:#e1e1e1;fill-opacity:1;fill-rule:nonzero;stroke:none"
           id="path154" /><g
           id="g156"
           transform="translate(203.3145,360.812)"><path
             d="M 0,0 H 11.285 L 3.064,-12.412 H 0 Z"
             style="fill:#e1e1e1;fill-opacity:1;fill-rule:nonzero;stroke:none"
             id="path158" /></g><path
           d="m 201.688,360.812 h 1.626 V 348.4 h -1.626 z"
           style="fill:#e1e1e1;fill-opacity:1;fill-rule:nonzero;stroke:none"
           id="path160" /><path
           d="m 460.234,342.845 h -204 v 9.646 h 204 z"
           style="fill:#e7e7e7;fill-opacity:1;fill-rule:nonzero;stroke:none"
           id="path162" /><g
           id="g164"
           transform="translate(423.627,330.2061)"><path
             d="m 0,0 h -3.065 l -8.221,12.412 H 0 Z"
             style="fill:#e1e1e1;fill-opacity:1;fill-rule:nonzero;stroke:none"
             id="path166" /></g><path
           d="m 425.252,330.206 h -1.625 v 12.412 h 1.625 z"
           style="fill:#e1e1e1;fill-opacity:1;fill-rule:nonzero;stroke:none"
           id="path168" /><g
           id="g170"
           transform="translate(296.9189,330.2061)"><path
             d="m 0,0 h -3.065 l -8.221,12.412 H 0 Z"
             style="fill:#e1e1e1;fill-opacity:1;fill-rule:nonzero;stroke:none"
             id="path172" /></g><path
           d="m 298.544,330.206 h -1.625 v 12.412 h 1.625 z"
           style="fill:#e1e1e1;fill-opacity:1;fill-rule:nonzero;stroke:none"
           id="path174" /><g
           id="g176"
           transform="translate(182.8867,382.2476)"><path
             d="m 0,0 c -4.18,0 -7.566,3.39 -7.566,7.57 0,4.18 3.386,7.571 7.566,7.571 4.18,0 7.57,-3.391 7.57,-7.571 C 7.57,3.39 4.18,0 0,0 m 14.563,7.862 c 0,1.471 -0.216,2.892 -0.625,4.228 l 3.709,3.264 -2.334,4.045 -4.682,-1.583 c -1.938,2.068 -4.469,3.569 -7.323,4.232 l -0.972,4.843 h -4.672 l -0.969,-4.843 c -2.853,-0.663 -5.388,-2.164 -7.326,-4.232 l -4.682,1.583 -2.334,-4.045 3.709,-3.264 c -0.406,-1.336 -0.625,-2.757 -0.625,-4.228 0,-1.473 0.219,-2.892 0.625,-4.231 l -3.709,-3.26 2.334,-4.046 4.682,1.583 c 1.938,-2.067 4.473,-3.568 7.326,-4.235 l 0.969,-4.842 h 4.672 l 0.972,4.842 c 2.854,0.667 5.385,2.168 7.323,4.235 l 4.682,-1.583 2.334,4.046 -3.709,3.26 c 0.409,1.339 0.625,2.758 0.625,4.231"
             style="fill:#f0f0f0;fill-opacity:1;fill-rule:nonzero;stroke:none"
             id="path178" /></g><g
           id="g180"
           transform="translate(217.2383,378.2422)"><path
             d="m 0,0 c -2.348,-1.437 -5.414,-0.698 -6.852,1.649 -1.436,2.348 -0.7,5.415 1.647,6.853 C -2.857,9.938 0.211,9.201 1.648,6.854 3.085,4.506 2.348,1.437 0,0 m 5.475,9.421 c -0.505,0.826 -1.116,1.55 -1.805,2.16 l 0.962,3.107 -2.703,1.469 -2.084,-2.498 c -1.799,0.495 -3.737,0.467 -5.568,-0.141 l -2.21,2.385 -2.623,-1.606 1.121,-3.052 C -10.81,9.891 -11.717,8.177 -12.094,6.35 l -3.174,-0.721 0.08,-3.075 3.205,-0.557 c 0.232,-0.889 0.597,-1.764 1.102,-2.589 0.507,-0.827 1.118,-1.548 1.806,-2.161 l -0.962,-3.106 2.702,-1.469 2.085,2.499 c 1.799,-0.495 3.738,-0.467 5.569,0.141 l 2.209,-2.387 2.623,1.606 -1.119,3.053 C 5.406,-1.06 6.312,0.653 6.688,2.48 L 9.861,3.2 9.782,6.275 6.578,6.83 C 6.348,7.723 5.981,8.594 5.475,9.421"
             style="fill:#f0f0f0;fill-opacity:1;fill-rule:nonzero;stroke:none"
             id="path182" /></g></g></g><g
       id="g184"><g
         id="g186"
         clip-path="url(#clipPath190)"><g
           id="g192"
           transform="translate(385.3408,441.9507)"><path
             d="m 0,0 c -24.604,18.466 -61.008,13.588 -90.141,3.708 -29.132,-9.878 -54.335,-30.892 -69.291,-57.773 -8.752,-15.73 -14.308,-33.619 -26.615,-46.756 -18.915,-20.189 -52.901,-23.955 -75.777,-8.396 -11.964,8.136 -23.452,21.43 -37.65,18.639 -8.04,-1.58 -14.274,-8.415 -17.212,-16.065 -2.937,-7.649 -3.092,-16.059 -2.828,-24.248 0.723,-22.371 4.38,-44.876 13.269,-65.417 8.889,-20.542 23.276,-39.073 42.423,-50.666 22.694,-13.74 51,-16.89 76.857,-10.954 25.857,5.936 49.286,20.475 68.07,39.21 14.817,14.778 26.875,32.073 41.005,47.51 14.13,15.437 31.064,29.371 51.33,34.587 14.389,3.703 29.552,2.786 44.23,5.096 14.678,2.31 30.096,9.033 36.415,22.481 5.508,11.722 2.77,25.606 -1.534,37.821 C 41.96,-41.168 25.486,-19.129 0,0"
             style="fill:#007cff;fill-opacity:1;fill-rule:nonzero;stroke:none"
             id="path194" /></g><g
           id="g196"><g
             id="g198" /><g
             id="g210"><g
               clip-path="url(#clipPath202)"
               opacity="0.800003"
               id="g208"><g
                 transform="translate(385.3408,441.9507)"
                 id="g206"><path
                   d="m 0,0 c -24.604,18.466 -61.008,13.588 -90.141,3.708 -29.132,-9.878 -54.335,-30.892 -69.291,-57.773 -8.752,-15.73 -14.308,-33.619 -26.615,-46.756 -18.915,-20.189 -52.901,-23.955 -75.777,-8.396 -11.964,8.136 -23.452,21.43 -37.65,18.639 -8.04,-1.58 -14.274,-8.415 -17.212,-16.065 -2.937,-7.649 -3.092,-16.059 -2.828,-24.248 0.723,-22.371 4.38,-44.876 13.269,-65.417 8.889,-20.542 23.276,-39.073 42.423,-50.666 22.694,-13.74 51,-16.89 76.857,-10.954 25.857,5.936 49.286,20.475 68.07,39.21 14.817,14.778 26.875,32.073 41.005,47.51 14.13,15.437 31.064,29.371 51.33,34.587 14.389,3.703 29.552,2.786 44.23,5.096 14.678,2.31 30.096,9.033 36.415,22.481 5.508,11.722 2.77,25.606 -1.534,37.821 C 41.96,-41.168 25.486,-19.129 0,0"
                   style="fill:#ffffff;fill-opacity:1;fill-rule:nonzero;stroke:none"
                   id="path204" /></g></g></g></g></g></g><path
       d="m 46.56,226.88 h 407.618 v -5.13 H 46.56 Z"
       style="fill:#007cff;fill-opacity:1;fill-rule:nonzero;stroke:none"
       id="path212" /><g
       id="g214"
       transform="translate(70.8389,223.1992)"><path
         d="M 0,0 V -122.34 H 3.181 L 7.181,0 Z"
         style="fill:#007cff;fill-opacity:1;fill-rule:nonzero;stroke:none"
         id="path216" /></g><g
       id="g218"
       transform="translate(108.3789,219.1992)"><path
         d="M 0,0 V -113.34 H 3.181 L 7.181,0 Z"
         style="fill:#007cff;fill-opacity:1;fill-rule:nonzero;stroke:none"
         id="path220" /></g><g
       id="g222"><g
         id="g224"
         clip-path="url(#clipPath228)"><g
           id="g230"><g
             id="g232" /><g
             id="g244"><g
               clip-path="url(#clipPath236)"
               opacity="0.5"
               id="g242"><g
                 transform="translate(108.3789,219.1992)"
                 id="g240"><path
                   d="M 0,0 V -113.34 H 3.181 L 7.181,0 Z"
                   style="fill:#000000;fill-opacity:1;fill-rule:nonzero;stroke:none"
                   id="path238" /></g></g></g></g></g></g><g
       id="g246"
       transform="translate(431.3447,223.1992)"><path
         d="M 0,0 V -122.34 H -3.17 L -7.18,0 Z"
         style="fill:#007cff;fill-opacity:1;fill-rule:nonzero;stroke:none"
         id="path248" /></g><g
       id="g250"
       transform="translate(393.8154,219.1992)"><path
         d="M 0,0 V -113.34 H -3.181 L -7.181,0 Z"
         style="fill:#007cff;fill-opacity:1;fill-rule:nonzero;stroke:none"
         id="path252" /></g><g
       id="g254"><g
         id="g256"
         clip-path="url(#clipPath260)"><g
           id="g262"><g
             id="g264" /><g
             id="g276"><g
               clip-path="url(#clipPath268)"
               opacity="0.5"
               id="g274"><g
                 transform="translate(393.8154,219.1992)"
                 id="g272"><path
                   d="M 0,0 V -113.34 H -3.181 L -7.181,0 Z"
                   style="fill:#000000;fill-opacity:1;fill-rule:nonzero;stroke:none"
                   id="path270" /></g></g></g></g></g></g><g
       id="g278"
       transform="translate(438.5957,216.2617)"><path
         d="m 0,0 h -375.257 l -8.3,5.488 H 8.3 Z"
         style="fill:#007cff;fill-opacity:1;fill-rule:nonzero;stroke:none"
         id="path280" /></g><g
       id="g282"><g
         id="g284"
         clip-path="url(#clipPath288)"><g
           id="g290"><g
             id="g292" /><g
             id="g304"><g
               clip-path="url(#clipPath296)"
               opacity="0.5"
               id="g302"><g
                 transform="translate(438.5957,216.2617)"
                 id="g300"><path
                   d="m 0,0 h -375.257 l -8.3,5.488 H 8.3 Z"
                   style="fill:#000000;fill-opacity:1;fill-rule:nonzero;stroke:none"
                   id="path298" /></g></g></g></g></g></g><g
       id="g306"><g
         id="g308"
         clip-path="url(#clipPath312)"><g
           id="g314"
           transform="translate(75.3496,242.6064)"><path
             d="m 0,0 c 0,0.274 0.223,0.497 0.497,0.497 h 1.671 v -6.574 c 0,-0.09 0.01,-0.178 0.013,-0.267 L 0.146,-4.309 C 0.054,-4.216 0,-4.088 0,-3.957 Z m -2,0 v -3.957 c 0,-0.666 0.26,-1.293 0.73,-1.766 l 3.174,-3.173 c 0.291,-0.291 0.645,-0.49 1.028,-0.608 1.294,-2.783 4.107,-4.717 7.38,-4.717 h 1.187 c 4.498,0 8.145,3.646 8.145,8.144 V 3.254 H 2.168 V 2.497 H 0.497 C -0.88,2.497 -2,1.377 -2,0"
             style="fill:#007cff;fill-opacity:1;fill-rule:nonzero;stroke:none"
             id="path316" /></g><g
           id="g318"><g
             id="g320" /><g
             id="g332"><g
               clip-path="url(#clipPath324)"
               opacity="0.5"
               id="g330"><g
                 transform="translate(75.3496,242.6064)"
                 id="g328"><path
                   d="m 0,0 c 0,0.274 0.223,0.497 0.497,0.497 h 1.671 v -6.574 c 0,-0.09 0.01,-0.178 0.013,-0.267 L 0.146,-4.309 C 0.054,-4.216 0,-4.088 0,-3.957 Z m -2,0 v -3.957 c 0,-0.666 0.26,-1.293 0.73,-1.766 l 3.174,-3.173 c 0.291,-0.291 0.645,-0.49 1.028,-0.608 1.294,-2.783 4.107,-4.717 7.38,-4.717 h 1.187 c 4.498,0 8.145,3.646 8.145,8.144 V 3.254 H 2.168 V 2.497 H 0.497 C -0.88,2.497 -2,1.377 -2,0"
                   style="fill:#ffffff;fill-opacity:1;fill-rule:nonzero;stroke:none"
                   id="path326" /></g></g></g></g><g
           id="g334"
           transform="translate(99.1406,227.0488)"><path
             d="m 0,0 h -25.139 c -1.634,0 -2.96,1.48 -2.96,1.48 H 2.961 C 2.961,1.48 1.636,0 0,0"
             style="fill:#007cff;fill-opacity:1;fill-rule:nonzero;stroke:none"
             id="path336" /></g><g
           id="g338"><g
             id="g340" /><g
             id="g352"><g
               clip-path="url(#clipPath344)"
               opacity="0.5"
               id="g350"><g
                 transform="translate(99.1406,227.0488)"
                 id="g348"><path
                   d="m 0,0 h -25.139 c -1.634,0 -2.96,1.48 -2.96,1.48 H 2.961 C 2.961,1.48 1.636,0 0,0"
                   style="fill:#ffffff;fill-opacity:1;fill-rule:nonzero;stroke:none"
                   id="path346" /></g></g></g></g><g
           id="g354"
           transform="translate(430.2656,231.6816)"><path
             d="M 0,0 V 10.502 C 2.9,10.075 4.904,9.678 4.478,6.778 4.136,4.462 2.316,0.342 0,0 M 7.099,7.559 C 6.967,11.527 3.946,12.5 0,12.948 v 1.449 c -0.006,0.349 -0.294,0.625 -0.642,0.619 h -0.013 -13.616 c -0.355,0.014 -0.654,-0.262 -0.668,-0.618 V 14.397 -4.513 H 0 v 2.068 c 3.953,0.443 6.979,6.027 7.099,10.004"
             style="fill:#007cff;fill-opacity:1;fill-rule:nonzero;stroke:none"
             id="path356" /></g><g
           id="g358"><g
             id="g360" /><g
             id="g372"><g
               clip-path="url(#clipPath364)"
               opacity="0.5"
               id="g370"><g
                 transform="translate(430.2656,231.6816)"
                 id="g368"><path
                   d="M 0,0 V 10.502 C 2.9,10.075 4.904,9.678 4.478,6.778 4.136,4.462 2.316,0.342 0,0 M 7.099,7.559 C 6.967,11.527 3.946,12.5 0,12.948 v 1.449 c -0.006,0.349 -0.294,0.625 -0.642,0.619 h -0.013 -13.616 c -0.355,0.014 -0.654,-0.262 -0.668,-0.618 V 14.397 -4.513 H 0 v 2.068 c 3.953,0.443 6.979,6.027 7.099,10.004"
                   style="fill:#ffffff;fill-opacity:1;fill-rule:nonzero;stroke:none"
                   id="path366" /></g></g></g></g></g></g><path
       d="m 255.895,227.317 h -11.789 v 23.951 h 11.789 z"
       style="fill:#007cff;fill-opacity:1;fill-rule:nonzero;stroke:none"
       id="path374" /><g
       id="g376"><g
         id="g378"
         clip-path="url(#clipPath382)"><g
           id="g384"><g
             id="g386" /><g
             id="g396"><g
               clip-path="url(#clipPath390)"
               opacity="0.5"
               id="g394"><path
                 d="m 255.895,227.317 h -11.789 v 23.951 h 11.789 z"
                 style="fill:#ffffff;fill-opacity:1;fill-rule:nonzero;stroke:none"
                 id="path392" /></g></g></g></g></g><g
       id="g398"
       transform="translate(261.2178,226.8877)"><path
         d="m 0,0 h -22.337 l 5.448,4.796 h 11.441 z"
         style="fill:#007cff;fill-opacity:1;fill-rule:nonzero;stroke:none"
         id="path400" /></g><g
       id="g402"><g
         id="g404"
         clip-path="url(#clipPath408)"><g
           id="g410"><g
             id="g412" /><g
             id="g424"><g
               clip-path="url(#clipPath416)"
               opacity="0.5"
               id="g422"><g
                 transform="translate(261.2178,226.8877)"
                 id="g420"><path
                   d="m 0,0 h -22.337 l 5.448,4.796 h 11.441 z"
                   style="fill:#ffffff;fill-opacity:1;fill-rule:nonzero;stroke:none"
                   id="path418" /></g></g></g></g></g></g><g
       id="g426"
       transform="translate(310.3291,234.6426)"><path
         d="m 0,0 h -55.84 l 10.09,-7.784 h 55.83 z"
         style="fill:#007cff;fill-opacity:1;fill-rule:nonzero;stroke:none"
         id="path428" /></g><g
       id="g430"><g
         id="g432"
         clip-path="url(#clipPath436)"><g
           id="g438"><g
             id="g440" /><g
             id="g452"><g
               clip-path="url(#clipPath444)"
               opacity="0.399994"
               id="g450"><g
                 transform="translate(310.3291,234.6426)"
                 id="g448"><path
                   d="m 0,0 h -55.84 l 10.09,-7.784 h 55.83 z"
                   style="fill:#ffffff;fill-opacity:1;fill-rule:nonzero;stroke:none"
                   id="path446" /></g></g></g></g></g></g><g
       id="g454"
       transform="translate(255.7793,226.8584)"><path
         d="M 0,0 -1.29,7.784 8.8,0 Z"
         style="fill:#007cff;fill-opacity:1;fill-rule:nonzero;stroke:none"
         id="path456" /></g><g
       id="g458"><g
         id="g460"
         clip-path="url(#clipPath464)"><g
           id="g466"><g
             id="g468" /><g
             id="g480"><g
               clip-path="url(#clipPath472)"
               opacity="0.5"
               id="g478"><g
                 transform="translate(255.7793,226.8584)"
                 id="g476"><path
                   d="M 0,0 -1.29,7.784 8.8,0 Z"
                   style="fill:#000000;fill-opacity:1;fill-rule:nonzero;stroke:none"
                   id="path474" /></g></g></g></g><g
           id="g482"
           transform="translate(198.8955,307.9556)"><path
             d="m 0,0 h 101.636 c 1.064,0 1.927,-0.863 1.927,-1.928 v -62.324 c 0,-1.066 -0.863,-1.929 -1.927,-1.929 H 0 c -1.064,0 -1.928,0.863 -1.928,1.929 V -1.928 C -1.928,-0.863 -1.064,0 0,0"
             style="fill:#007cff;fill-opacity:1;fill-rule:nonzero;stroke:none"
             id="path484" /></g><g
           id="g486"><g
             id="g488" /><g
             id="g498"><g
               clip-path="url(#clipPath492)"
               opacity="0.5"
               id="g496"><path
                 d="M 298.521,246.146 H 200.8 v 57.675 h 97.721 z"
                 style="fill:#000000;fill-opacity:1;fill-rule:nonzero;stroke:none"
                 id="path494" /></g></g></g><g
           id="g500"><g
             id="g502" /><g
             id="g512"><g
               clip-path="url(#clipPath506)"
               opacity="0.399994"
               id="g510"><path
                 d="m 295.416,258.01 h -49.311 v 33.948 h 49.311 z"
                 style="fill:#000000;fill-opacity:1;fill-rule:nonzero;stroke:none"
                 id="path508" /></g></g></g><path
           d="m 295.416,288.848 h -49.311 v 3.11 h 49.311 z"
           style="fill:#007cff;fill-opacity:1;fill-rule:nonzero;stroke:none"
           id="path514" /><g
           id="g516"
           transform="translate(255.1396,273.1826)"><path
             d="m 0,0 8.063,-4.467 c 0.404,-0.227 0.673,-0.43 0.806,-0.608 0.134,-0.178 0.2,-0.404 0.2,-0.679 0,-0.349 -0.125,-0.65 -0.376,-0.905 -0.251,-0.255 -0.542,-0.383 -0.874,-0.383 -0.218,0 -0.547,0.122 -0.983,0.364 l -10.4,5.784 c -0.702,0.39 -0.702,1.398 0,1.788 l 10.4,5.784 C 7.272,6.913 7.597,7.03 7.807,7.03 8.147,7.03 8.442,6.904 8.693,6.654 8.944,6.402 9.069,6.103 9.069,5.755 9.069,5.48 9.003,5.253 8.869,5.075 8.736,4.897 8.467,4.695 8.063,4.468 Z"
             style="fill:#ffffff;fill-opacity:1;fill-rule:nonzero;stroke:none"
             id="path518" /></g><g
           id="g520"
           transform="translate(275.8828,281.5117)"><path
             d="m 0,0 -7.976,-17.192 c -0.203,-0.429 -0.384,-0.708 -0.546,-0.838 -0.211,-0.17 -0.466,-0.255 -0.765,-0.255 -0.34,0 -0.634,0.121 -0.881,0.365 -0.247,0.242 -0.37,0.518 -0.37,0.825 0,0.219 0.097,0.538 0.291,0.959 l 8.002,17.18 c 0.202,0.429 0.38,0.708 0.533,0.838 0.22,0.17 0.475,0.255 0.766,0.255 0.34,0 0.631,-0.119 0.874,-0.358 C 0.171,1.54 0.292,1.267 0.292,0.959 0.292,0.741 0.195,0.421 0,0"
             style="fill:#ffffff;fill-opacity:1;fill-rule:nonzero;stroke:none"
             id="path522" /></g><g
           id="g524"
           transform="translate(285.9141,273.1826)"><path
             d="m 0,0 -8.063,4.468 c -0.404,0.227 -0.672,0.429 -0.806,0.607 -0.134,0.178 -0.2,0.405 -0.2,0.68 0,0.348 0.125,0.647 0.376,0.899 0.251,0.25 0.546,0.376 0.885,0.376 0.211,0 0.536,-0.117 0.972,-0.352 l 10.4,-5.784 c 0.702,-0.39 0.702,-1.398 0,-1.788 l -10.4,-5.784 c -0.436,-0.242 -0.761,-0.364 -0.972,-0.364 -0.343,0 -0.642,0.129 -0.894,0.386 -0.238,0.242 -0.367,0.562 -0.367,0.902 0,0.275 0.066,0.502 0.2,0.679 0.134,0.178 0.402,0.381 0.806,0.608 z"
             style="fill:#ffffff;fill-opacity:1;fill-rule:nonzero;stroke:none"
             id="path526" /></g><path
           d="m 208.145,295.159 h -3.339 v 3.338 h 3.339 z"
           style="fill:#ffffff;fill-opacity:1;fill-rule:nonzero;stroke:none"
           id="path528" /><path
           d="m 208.145,286.517 h -3.339 v 3.338 h 3.339 z"
           style="fill:#ffffff;fill-opacity:1;fill-rule:nonzero;stroke:none"
           id="path530" /><path
           d="m 208.145,277.875 h -3.339 v 3.338 h 3.339 z"
           style="fill:#ffffff;fill-opacity:1;fill-rule:nonzero;stroke:none"
           id="path532" /><path
           d="m 208.145,269.232 h -3.339 v 3.338 h 3.339 z"
           style="fill:#ffffff;fill-opacity:1;fill-rule:nonzero;stroke:none"
           id="path534" /><path
           d="m 208.145,260.59 h -3.339 v 3.338 h 3.339 z"
           style="fill:#ffffff;fill-opacity:1;fill-rule:nonzero;stroke:none"
           id="path536" /><path
           d="m 208.145,251.949 h -3.339 v 3.338 h 3.339 z"
           style="fill:#ffffff;fill-opacity:1;fill-rule:nonzero;stroke:none"
           id="path538" /><path
           d="m 224.624,296.745 h -13.308 v 1 h 13.308 z"
           style="fill:#ffffff;fill-opacity:1;fill-rule:nonzero;stroke:none"
           id="path540" /><path
           d="m 219.158,288.08 h -4.74 v 1 h 4.74 z"
           style="fill:#ffffff;fill-opacity:1;fill-rule:nonzero;stroke:none"
           id="path542" /><path
           d="m 239.789,278.36 h -4.74 v 1 h 4.74 z"
           style="fill:#ffffff;fill-opacity:1;fill-rule:nonzero;stroke:none"
           id="path544" /><path
           d="m 219.158,270.646 h -4.74 v 1 h 4.74 z"
           style="fill:#ffffff;fill-opacity:1;fill-rule:nonzero;stroke:none"
           id="path546" /><path
           d="m 225.994,270.646 h -4.74 v 1 h 4.74 z"
           style="fill:#ffffff;fill-opacity:1;fill-rule:nonzero;stroke:none"
           id="path548" /><path
           d="m 233.366,278.36 h -12.112 v 1 h 12.112 z"
           style="fill:#ffffff;fill-opacity:1;fill-rule:nonzero;stroke:none"
           id="path550" /><path
           d="m 236.284,270.646 h -7.975 v 1 h 7.975 z"
           style="fill:#ffffff;fill-opacity:1;fill-rule:nonzero;stroke:none"
           id="path552" /><path
           d="m 233.022,252.118 h -4.74 v 1 h 4.74 z"
           style="fill:#ffffff;fill-opacity:1;fill-rule:nonzero;stroke:none"
           id="path554" /><path
           d="m 239.857,252.118 h -4.74 v 1 h 4.74 z"
           style="fill:#ffffff;fill-opacity:1;fill-rule:nonzero;stroke:none"
           id="path556" /><path
           d="m 244.822,252.118 h -2.648 v 1 h 2.648 z"
           style="fill:#ffffff;fill-opacity:1;fill-rule:nonzero;stroke:none"
           id="path558" /><path
           d="m 236.284,288.08 h -14.75 v 1 h 14.75 z"
           style="fill:#ffffff;fill-opacity:1;fill-rule:nonzero;stroke:none"
           id="path560" /><path
           d="m 225.994,261.62 h -4.74 v 1 h 4.74 z"
           style="fill:#ffffff;fill-opacity:1;fill-rule:nonzero;stroke:none"
           id="path562" /><path
           d="m 230.318,261.62 h -2.74 v 1 h 2.74 z"
           style="fill:#ffffff;fill-opacity:1;fill-rule:nonzero;stroke:none"
           id="path564" /><path
           d="m 240.154,261.62 h -7.74 v 1 h 7.74 z"
           style="fill:#ffffff;fill-opacity:1;fill-rule:nonzero;stroke:none"
           id="path566" /></g></g><g
       id="g568"><g
         id="g570"
         clip-path="url(#clipPath574)"><g
           id="g576"
           transform="translate(241.4355,335.4971)"><path
             d="m 0,0 c -0.243,-12.101 -12.819,-22.244 -28.088,-22.648 -4.683,-0.157 -9.315,0.701 -13.681,2.534 -1.533,-3.802 -4.777,-7.061 -14.069,-8.521 9.696,7.489 4.393,13.823 2.182,19.398 -1.124,2.331 -1.7,5.018 -1.667,7.779 0.245,12.107 12.82,22.244 28.088,22.648 C -11.957,21.626 0.244,12.101 0,0"
             style="fill:#007cff;fill-opacity:1;fill-rule:nonzero;stroke:none"
             id="path578" /></g><path
           d="m 214.099,347.166 h -13.308 v 1 h 13.308 z"
           style="fill:#ffffff;fill-opacity:1;fill-rule:nonzero;stroke:none"
           id="path580" /><path
           d="m 208.633,338.501 h -4.74 v 1 h 4.74 z"
           style="fill:#ffffff;fill-opacity:1;fill-rule:nonzero;stroke:none"
           id="path582" /><path
           d="m 229.264,328.782 h -4.74 v 1 h 4.74 z"
           style="fill:#ffffff;fill-opacity:1;fill-rule:nonzero;stroke:none"
           id="path584" /><path
           d="m 208.633,321.067 h -4.74 v 1 h 4.74 z"
           style="fill:#ffffff;fill-opacity:1;fill-rule:nonzero;stroke:none"
           id="path586" /><path
           d="m 215.469,321.067 h -4.74 v 1 h 4.74 z"
           style="fill:#ffffff;fill-opacity:1;fill-rule:nonzero;stroke:none"
           id="path588" /><path
           d="m 222.841,328.782 h -12.112 v 1 h 12.112 z"
           style="fill:#ffffff;fill-opacity:1;fill-rule:nonzero;stroke:none"
           id="path590" /><path
           d="m 225.759,321.067 h -7.975 v 1 h 7.975 z"
           style="fill:#ffffff;fill-opacity:1;fill-rule:nonzero;stroke:none"
           id="path592" /><path
           d="m 225.759,338.501 h -14.75 v 1 h 14.75 z"
           style="fill:#ffffff;fill-opacity:1;fill-rule:nonzero;stroke:none"
           id="path594" /></g></g><g
       id="g596"
       transform="translate(299.167,106.252)"><path
         d="m 0,0 -7.29,2.18 1.7,17.87 7.29,-2.181 z"
         style="fill:#913c38;fill-opacity:1;fill-rule:nonzero;stroke:none"
         id="path598" /></g><g
       id="g600"><g
         id="g602"
         clip-path="url(#clipPath606)"><g
           id="g608"><g
             id="g610" /><g
             id="g622"><g
               clip-path="url(#clipPath614)"
               opacity="0.199997"
               id="g620"><g
                 transform="translate(301.4678,128.1582)"
                 id="g618"><path
                   d="m 0,0 -7.29,2.17 -0.95,-10.011 7.37,-1.37 z"
                   style="fill:#000000;fill-opacity:1;fill-rule:nonzero;stroke:none"
                   id="path616" /></g></g></g></g><g
           id="g624"
           transform="translate(342.3174,216.6211)"><path
             d="m 0,0 c 0,0 -50.131,-4.229 -48.9,-26 1.008,-17.822 3.649,-12.978 -1.54,-65.966 l 12.611,-0.696 c 0,0 12.829,43.343 11.099,60.562 14.129,0 46.48,-1.24 51.179,11.51 2.334,6.475 3.47,13.319 3.351,20.2 z"
             style="fill:#007cff;fill-opacity:1;fill-rule:nonzero;stroke:none"
             id="path626" /></g><g
           id="g628"
           transform="translate(306.4941,121.5195)"><path
             d="m 0,0 -16.48,2.819 0.27,7.29 17.06,-3.79 z"
             style="fill:#1a2e35;fill-opacity:1;fill-rule:nonzero;stroke:none"
             id="path630" /></g><g
           id="g632"
           transform="translate(291.127,111.4297)"><path
             d="M 0,0 8.42,-1.665 C 8.717,-1.709 8.93,-2.023 8.9,-2.374 l -0.7,-7.961 c -0.128,-0.857 -0.81,-1.438 -1.54,-1.311 -2.92,0.638 -4.3,1.111 -8,1.843 -2.28,0.449 -7.49,1.547 -10.66,1.902 -3.17,0.354 -2.79,4.062 -1.42,4.252 6.16,0.814 9.66,1.806 12.05,3.354 C -0.954,-0.021 -0.472,0.084 0,0"
             style="fill:#1a2e35;fill-opacity:1;fill-rule:nonzero;stroke:none"
             id="path634" /></g><g
           id="g636"
           transform="translate(288.96,110.2568)"><path
             d="m 0,0 c -1.391,0 -2.37,0.16 -2.66,0.57 -0.117,0.198 -0.117,0.443 0,0.64 0.032,0.109 0.119,0.192 0.229,0.22 C -1.921,1.54 -0.78,0.7 0,0 m -1.61,-0.27 c 0.662,-0.089 1.333,-0.11 2,-0.06 0.068,0.001 0.129,0.045 0.149,0.11 0.034,0.059 0.034,0.131 0,0.19 -0.21,0.21 -2.1,2 -3.069,1.8 -0.229,-0.04 -0.417,-0.201 -0.491,-0.42 -0.16,-0.32 -0.137,-0.702 0.06,-1 0.359,-0.365 0.84,-0.585 1.351,-0.62"
             style="fill:#007cff;fill-opacity:1;fill-rule:nonzero;stroke:none"
             id="path638" /></g><g
           id="g640"
           transform="translate(288.8398,113.1367)"><path
             d="m 0,0 c 0.142,-0.022 0.268,-0.103 0.35,-0.22 0.293,-0.789 0.325,-1.651 0.089,-2.46 -0.606,0.685 -0.927,1.576 -0.899,2.491 0,0.099 0.109,0.21 0.369,0.199 z M 0.52,-3.21 H 0.6 c 0.057,0.022 0.102,0.07 0.12,0.13 0,0.09 0.55,2.221 -0.09,3.07 -0.158,0.232 -0.42,0.369 -0.7,0.37 -0.309,0.044 -0.608,-0.13 -0.72,-0.42 -0.311,-0.79 0.55,-2.54 1.22,-3.11 0.023,-0.024 0.055,-0.039 0.09,-0.04"
             style="fill:#007cff;fill-opacity:1;fill-rule:nonzero;stroke:none"
             id="path642" /></g><g
           id="g644"
           transform="translate(266.667,103.4717)"><path
             d="M 0,0 -6.94,3.12 -2.14,20.239 4.8,17.12 Z"
             style="fill:#913c38;fill-opacity:1;fill-rule:nonzero;stroke:none"
             id="path646" /></g><g
           id="g648"><g
             id="g650" /><g
             id="g662"><g
               clip-path="url(#clipPath654)"
               opacity="0.199997"
               id="g660"><g
                 transform="translate(272.6387,124.9971)"
                 id="g658"><path
                   d="m 0,0 -6.939,3.12 -2.47,-8.83 6.939,-3.12 z"
                   style="fill:#000000;fill-opacity:1;fill-rule:nonzero;stroke:none"
                   id="path656" /></g></g></g></g><g
           id="g664"
           transform="translate(327.3965,216.6211)"><path
             d="m 0,0 c -0.329,0 -56.199,-5.75 -56.27,-24.699 -0.12,-31.341 -9.07,-67.267 -9.07,-67.267 l 11.042,-5.47 c 0,0 19.229,38.947 18.939,63.376 15.37,4.411 55.13,-3 59.83,9.741 C 28.32,-13.899 26.24,0 26.24,0 Z"
             style="fill:#007cff;fill-opacity:1;fill-rule:nonzero;stroke:none"
             id="path666" /></g><g
           id="g668"
           transform="translate(274.8643,117.5996)"><path
             d="M 0,0 -14.801,6.659 -13.61,12.72 2,7.329 Z"
             style="fill:#1a2e35;fill-opacity:1;fill-rule:nonzero;stroke:none"
             id="path670" /></g><g
           id="g672"
           transform="translate(260.417,112.3447)"><path
             d="M 0,0 8.44,-1.753 C 8.732,-1.807 8.939,-2.15 8.91,-2.532 l -0.66,-8.752 c -0.113,-0.95 -0.797,-1.601 -1.528,-1.455 -0.001,0.001 -0.001,0.001 -0.002,0.001 -2.92,0.675 -4.3,1.194 -8,1.961 -2.28,0.466 -8.49,1.973 -11.62,2.791 -3.13,0.818 -2.43,4.804 -1,4.831 6.19,0.091 10.2,1.103 12.58,2.831 C -0.92,-0.03 -0.456,0.084 0,0"
             style="fill:#1a2e35;fill-opacity:1;fill-rule:nonzero;stroke:none"
             id="path674" /></g><g
           id="g676"
           transform="translate(258.0801,111.6221)"><path
             d="m 0,0 c -1.087,-0.852 -1.997,-1.267 -2.475,-1.119 -0.213,0.092 -0.36,0.294 -0.381,0.525 -0.039,0.106 -0.015,0.223 0.061,0.305 C -2.438,0.07 -1.037,0.1 0,0 m -1.129,-1.167 c 0.587,0.319 1.14,0.7 1.647,1.136 C 0.574,0.015 0.598,0.09 0.576,0.16 0.555,0.225 0.498,0.27 0.43,0.276 0.137,0.322 -2.444,0.658 -3.113,-0.088 c -0.151,-0.173 -0.201,-0.411 -0.136,-0.63 0.059,-0.353 0.302,-0.648 0.637,-0.773 0.517,-0.082 1.047,0.034 1.483,0.324"
             style="fill:#007cff;fill-opacity:1;fill-rule:nonzero;stroke:none"
             id="path678" /></g><g
           id="g680"
           transform="translate(256.2725,113.8691)"><path
             d="M 0,0 C 0.127,0.071 0.277,0.086 0.415,0.042 1.12,-0.424 1.66,-1.1 1.957,-1.891 c -0.898,0.189 -1.689,0.716 -2.209,1.473 -0.059,0.08 -0.034,0.234 0.182,0.379 z m 2.325,-2.278 0.073,0.052 c 0.038,0.046 0.044,0.11 0.018,0.163 C 2.363,-1.991 1.541,0.058 0.523,0.368 0.26,0.454 -0.029,0.409 -0.254,0.248 -0.528,0.097 -0.664,-0.222 -0.583,-0.523 -0.369,-1.345 1.357,-2.24 2.243,-2.301 2.271,-2.3 2.3,-2.292 2.325,-2.278"
             style="fill:#007cff;fill-opacity:1;fill-rule:nonzero;stroke:none"
             id="path682" /></g><g
           id="g684"
           transform="translate(346.377,277.084)"><path
             d="m 0,0 c 1.47,-3.16 2.68,-6.2 3.89,-9.36 1.21,-3.16 2.28,-6.32 3.27,-9.56 0.99,-3.24 1.85,-6.56 2.54,-10 0.753,-3.574 1.128,-7.218 1.12,-10.87 -0.011,-2.145 -0.332,-4.276 -0.95,-6.33 -0.39,-1.258 -0.951,-2.456 -1.67,-3.56 -0.418,-0.626 -0.897,-1.209 -1.43,-1.74 l -0.43,-0.42 c -0.24,-0.2 -0.5,-0.42 -0.75,-0.59 -0.422,-0.29 -0.87,-0.537 -1.34,-0.74 -0.693,-0.307 -1.417,-0.538 -2.16,-0.69 -0.584,-0.124 -1.175,-0.211 -1.77,-0.26 -1.015,-0.064 -2.034,-0.064 -3.05,0 -1.804,0.086 -3.601,0.287 -5.38,0.6 -6.638,1.207 -13.14,3.069 -19.411,5.56 l 1.451,5.51 c 6.35,-0.76 12.83,-1.57 18.94,-1.85 1.52,0 3,-0.07 4.38,0 0.615,0.032 1.227,0.11 1.83,0.23 0.5,0.09 0.93,0.27 0.78,0.26 -0.099,-0.034 -0.194,-0.081 -0.28,-0.14 -0.101,-0.06 -0.194,-0.13 -0.28,-0.21 0,0 0.05,0.08 0.09,0.17 0.13,0.286 0.23,0.584 0.3,0.89 0.223,1.099 0.314,2.22 0.27,3.34 -0.147,2.864 -0.572,5.708 -1.27,8.49 -0.68,3 -1.56,5.92 -2.52,8.89 -0.96,2.97 -2,5.94 -3.14,8.9 -1.14,2.96 -2.34,5.93 -3.52,8.72 z"
             style="fill:#913c38;fill-opacity:1;fill-rule:nonzero;stroke:none"
             id="path686" /></g><g
           id="g688"
           transform="translate(323.0664,233.1338)"><path
             d="m 0,0 -6.63,3.73 -3.33,-7.18 c 0,0 7.75,-3.23 9.381,-1.21 z"
             style="fill:#913c38;fill-opacity:1;fill-rule:nonzero;stroke:none"
             id="path690" /></g><g
           id="g692"
           transform="translate(311.0664,235.5039)"><path
             d="M 0,0 -3.029,-4.8 2.04,-5.77 5.37,1.41 Z"
             style="fill:#913c38;fill-opacity:1;fill-rule:nonzero;stroke:none"
             id="path694" /></g><g
           id="g696"
           transform="translate(330.917,271.3813)"><path
             d="m 0,0 c -1.27,-3.19 -2.6,-6.24 -4,-9.33 -1.4,-3.09 -2.8,-6.13 -4.28,-9.17 -2.979,-6.19 -6.319,-12.201 -10,-18 -1,-1.48 -2,-2.95 -3.12,-4.42 -0.56,-0.74 -1.18,-1.47 -1.84,-2.22 -0.36,-0.38 -0.65,-0.73 -1.07,-1.12 l -0.6,-0.58 -0.34,-0.32 c -0.951,-0.815 -2.071,-1.409 -3.28,-1.74 -0.637,-0.181 -1.284,-0.318 -1.94,-0.41 -1.068,-0.129 -2.145,-0.173 -3.22,-0.13 -1.857,0.06 -3.707,0.243 -5.54,0.55 -6.78,1.197 -13.42,3.081 -19.82,5.62 l 1.46,5.52 c 6.47,-0.78 13.08,-1.61 19.3,-1.87 1.467,-0.056 2.936,-0.037 4.4,0.06 0.59,0.047 1.175,0.14 1.75,0.28 0.188,0.044 0.369,0.111 0.54,0.2 0.06,0 0,0.07 -0.27,-0.1 -0.098,-0.055 -0.189,-0.122 -0.27,-0.2 0,0 0.07,0.09 0.1,0.12 l 0.28,0.31 c 0.18,0.18 0.4,0.48 0.61,0.72 0.41,0.521 0.83,1.08 1.25,1.69 0.83,1.19 1.64,2.51 2.44,3.85 1.6,2.68 3.09,5.53 4.55,8.41 1.46,2.88 2.86,5.82 4.24,8.78 2.75,5.9 5.44,11.95 8,17.9 z"
             style="fill:#913c38;fill-opacity:1;fill-rule:nonzero;stroke:none"
             id="path698" /></g><g
           id="g700"
           transform="translate(276.167,234.1914)"><path
             d="M 0,0 -6.64,3.78 -9.97,-3.4 c 0,0 7.75,-3.24 9.39,-1.22 z"
             style="fill:#913c38;fill-opacity:1;fill-rule:nonzero;stroke:none"
             id="path702" /></g><g
           id="g704"
           transform="translate(264.167,236.5518)"><path
             d="M 0,0 -3.04,-4.79 2.03,-5.761 5.36,1.42 Z"
             style="fill:#913c38;fill-opacity:1;fill-rule:nonzero;stroke:none"
             id="path706" /></g><g
           id="g708"
           transform="translate(348.0869,306.8613)"><path
             d="m 0,0 -4.24,-4.91 -6.471,-6.694 c 0.133,-0.329 0.312,-0.758 0.495,-1.212 0.498,-1.234 0.793,-2.544 0.863,-3.873 0.141,-2.683 -0.116,-4.952 -4.347,-6.771 0,0 -4.44,-5.8 6.12,-4.19 10.56,1.61 12.15,7.09 12.15,7.09 C -0.11,-17.23 -0.37,-6.16 0,0"
             style="fill:#913c38;fill-opacity:1;fill-rule:nonzero;stroke:none"
             id="path710" /></g><g
           id="g712"
           transform="translate(326.5566,312.4014)"><path
             d="m 0,0 c 0,-0.66 -0.33,-1.22 -0.77,-1.24 -0.44,-0.02 -0.79,0.5 -0.799,1.16 C -1.58,0.58 -1.229,1.14 -0.8,1.16 -0.37,1.18 -0.01,0.66 0,0"
             style="fill:#1a2e35;fill-opacity:1;fill-rule:nonzero;stroke:none"
             id="path714" /></g><g
           id="g716"
           transform="translate(328.7666,314.8613)"><path
             d="m 0,0 c -0.13,0.001 -0.251,0.069 -0.319,0.18 -0.525,0.861 -1.419,1.43 -2.42,1.54 -0.214,0.011 -0.381,0.187 -0.381,0.4 0.006,0.215 0.184,0.385 0.4,0.38 C -1.456,2.388 -0.32,1.683 0.34,0.6 0.451,0.417 0.398,0.179 0.221,0.06 0.153,0.021 0.078,0 0,0"
             style="fill:#1a2e35;fill-opacity:1;fill-rule:nonzero;stroke:none"
             id="path718" /></g><g
           id="g720"
           transform="translate(326.3174,312.0312)"><path
             d="m 0,0 c -0.537,-1.801 -1.311,-3.522 -2.301,-5.12 0.832,-0.469 1.829,-0.542 2.721,-0.2 z"
             style="fill:#740606;fill-opacity:1;fill-rule:nonzero;stroke:none"
             id="path722" /></g><g
           id="g724"
           transform="translate(348.6865,315.7314)"><path
             d="m 0,0 c -0.39,-8.16 -0.21,-13 -4.26,-17.32 -3.945,-4.348 -10.668,-4.674 -15.015,-0.729 -1.594,1.446 -2.712,3.343 -3.204,5.439 -1.84,7.23 -0.88,19.36 7,23 5.315,2.633 11.757,0.459 14.391,-4.856 C -0.239,3.819 0.137,1.909 0,0"
             style="fill:#913c38;fill-opacity:1;fill-rule:nonzero;stroke:none"
             id="path726" /></g><g
           id="g728"
           transform="translate(352.3896,313.0098)"><path
             d="m 0,0 c -1.18,-3.46 -2.97,-6.68 -5.3,-9.5 l -10.62,-2 c 0,0 -8.39,3.51 -6.149,9.29 -1.42,1.2 -0.891,4.91 0.109,6.95 1.601,-1.28 4.231,-1.39 5.67,0.15 1.16,-2.13 4.641,-2.43 6.15,-0.51 1.731,-1.92 5.42,-1.33 6.46,1.04 C -2.399,4.58 -0.56,4.7 0.601,5.7 0.65,5.75 0.7,5.79 0.75,5.84 0.92,4.38 0.75,2.47 0,0"
             style="fill:#1a2e35;fill-opacity:1;fill-rule:nonzero;stroke:none"
             id="path730" /></g><g
           id="g732"><g
             id="g734" /><g
             id="g746"><g
               clip-path="url(#clipPath738)"
               opacity="0.100006"
               id="g744"><g
                 transform="translate(352.3896,313.0098)"
                 id="g742"><path
                   d="m 0,0 c -1.18,-3.46 -2.97,-6.68 -5.3,-9.5 l -10.62,-2 c 0,0 -8.39,3.51 -6.149,9.29 -1.42,1.2 -0.891,4.91 0.109,6.95 1.601,-1.28 4.231,-1.39 5.67,0.15 1.16,-2.13 4.641,-2.43 6.15,-0.51 1.731,-1.92 5.42,-1.33 6.46,1.04 C -2.399,4.58 -0.56,4.7 0.601,5.7 0.65,5.75 0.7,5.79 0.75,5.84 0.92,4.38 0.75,2.47 0,0"
                   style="fill:#ffffff;fill-opacity:1;fill-rule:nonzero;stroke:none"
                   id="path740" /></g></g></g></g><g
           id="g748"
           transform="translate(353.9199,322.8999)"><path
             d="m 0,0 c 0.6,-1.34 0.27,-3.03 -0.78,-4.05 -0.05,-0.05 -0.1,-0.09 -0.15,-0.14 -1.16,-1 -3,-1.12 -4.28,-0.28 -1.04,-2.37 -4.729,-2.96 -6.46,-1.04 -1.51,-1.92 -4.99,-1.62 -6.15,0.51 -1.44,-1.54 -4.07,-1.43 -5.67,-0.15 -0.42,0.33 -0.77,0.75 -1,1.24 -0.06,0.11 -0.1,0.22 -0.14,0.33 -0.09,-0.1 -0.18,-0.19 -0.28,-0.27 -0.97,-0.8 -2.5,-0.92 -3.56,-0.21 -0.87,0.58 -1.35,1.66 -1.28,2.69 0.01,0.22 0.05,0.43 0.11,0.64 -0.08,-0.15 -0.18,-0.29 -0.299,-0.41 -0.871,-0.93 -2.711,-0.97 -3.561,0.09 -1.06,1.31 -0.46,3.49 0.99,4.36 0.58,0.34 1.22,0.5 1.88,0.5 1.02,0 2.06,-0.37 2.87,-0.99 -0.87,1.25 -0.56,3.16 0.66,4.07 1.22,0.9 3.14,0.65 4.08,-0.54 -0.13,1.42 0.34,2.27 1.07,2.71 1.38,0.8 3.68,0.11 4.8,-1.23 0,0 1.54,3.72 4.2,3.3 0.58,-0.08 3.31,-1.29 3.24,-2.27 0,-0.07 -0.019,-0.13 -0.05,-0.19 0.04,0.08 0.08,0.15 0.13,0.22 0.52,0.82 1.57,1.23 2.56,1.21 C -6,10.09 -4.979,9.68 -3.99,9.28 -1.92,8.43 0.28,7.48 1.48,5.59 2.67,3.69 2.15,0.6 0,0"
             style="fill:#1a2e35;fill-opacity:1;fill-rule:nonzero;stroke:none"
             id="path750" /></g><g
           id="g752"
           transform="translate(335.0068,310.0415)"><path
             d="m 0,0 c -0.29,-2.016 -1.215,-3.886 -2.64,-5.34 -1.81,-1.73 -3.35,0 -3.37,2.63 0,2.38 0.89,6.15 3,6.85 C -0.9,4.84 0.39,2.59 0,0"
             style="fill:#913c38;fill-opacity:1;fill-rule:nonzero;stroke:none"
             id="path754" /></g><g
           id="g756"
           transform="translate(366.9873,283.4614)"><path
             d="m 0,0 c -0.75,2 -4.25,4 -6.4,4 h -1.42 c -2.481,0 -5.571,-0.2 -8.571,-0.55 -5.715,-0.633 -11.391,-1.587 -17,-2.86 -2.58,-0.68 -5.069,-1.54 -7.049,-2.28 -2.52,-1 -4,-1.67 -4,-1.67 0,0 2.761,-18.385 4.19,-36.646 0.794,-10.162 0.466,-20.254 0.72,-27.194 H 3.13 c 1.47,8.34 1.238,15.614 1.358,30.673 C 4.558,-27.487 3.09,-8.23 0,0"
             style="fill:#1a2e35;fill-opacity:1;fill-rule:nonzero;stroke:none"
             id="path758" /></g><g
           id="g760"><g
             id="g762" /><g
             id="g774"><g
               clip-path="url(#clipPath766)"
               opacity="0.199997"
               id="g772"><g
                 transform="translate(325.8154,253.6621)"
                 id="g770"><path
                   d="m 0,0 c 0.319,-3.83 0.649,-7.85 1,-11.87 5,7.3 7.77,27.271 7.77,27.271 z"
                   style="fill:#000000;fill-opacity:1;fill-rule:nonzero;stroke:none"
                   id="path768" /></g></g></g></g><g
           id="g776"
           transform="translate(320.1357,278.7568)"><path
             d="M 0,0 C -6.109,-3.44 -12.099,-21.044 -12.099,-21.044 L 1.891,-31.6 c 5.339,5.05 13.149,17.58 14,22.59 C 17.261,-1.32 9.79,5.48 0,0"
             style="fill:#1a2e35;fill-opacity:1;fill-rule:nonzero;stroke:none"
             id="path778" /></g><g
           id="g780"
           transform="translate(308.0635,99.5645)"><path
             d="m 0,0 c 0,-2.402 -1.948,-4.35 -4.351,-4.35 -2.402,0 -4.349,1.948 -4.349,4.35 0,2.402 1.947,4.35 4.349,4.35 C -1.948,4.35 0,2.402 0,0"
             style="fill:#1a2e35;fill-opacity:1;fill-rule:nonzero;stroke:none"
             id="path782" /></g><g
           id="g784"
           transform="translate(372.9531,99.5645)"><path
             d="M 0,0 C 0,-2.402 1.947,-4.35 4.35,-4.35 6.752,-4.35 8.7,-2.402 8.7,0 8.7,2.402 6.752,4.35 4.35,4.35 1.947,4.35 0,2.402 0,0"
             style="fill:#1a2e35;fill-opacity:1;fill-rule:nonzero;stroke:none"
             id="path786" /></g><g
           id="g788"
           transform="translate(336.2744,100.9551)"><path
             d="m 0,0 c 0,-2.402 1.947,-4.35 4.35,-4.35 2.402,0 4.349,1.948 4.349,4.35 0,2.402 -1.947,4.351 -4.349,4.351 C 1.947,4.351 0,2.402 0,0"
             style="fill:#1a2e35;fill-opacity:1;fill-rule:nonzero;stroke:none"
             id="path790" /></g><g
           id="g792"
           transform="translate(339.2734,106.3242)"><path
             d="M 0,0 V 8.41 H -12.46 C -14.906,8.408 -17.347,8.181 -19.75,7.73 L -42.951,3.222 c -1.145,-0.224 -1.891,-1.331 -1.668,-2.475 0.198,-1.016 1.103,-1.738 2.138,-1.706 z"
             style="fill:#1a2e35;fill-opacity:1;fill-rule:nonzero;stroke:none"
             id="path794" /></g><g
           id="g796"
           transform="translate(339.2734,106.3242)"><path
             d="M 0,0 V 8.41 H 12.47 C 14.915,8.409 17.355,8.182 19.76,7.73 L 45.835,3.562 C 46.979,3.339 47.726,2.23 47.502,1.087 47.305,0.071 46.399,-0.651 45.365,-0.619 Z"
             style="fill:#1a2e35;fill-opacity:1;fill-rule:nonzero;stroke:none"
             id="path798" /></g><path
           d="m 331.553,153.234 h 15.431 v -38.51 h -15.431 z"
           style="fill:#1a2e35;fill-opacity:1;fill-rule:nonzero;stroke:none"
           id="path800" /><path
           d="m 333.773,171.154 h 11 v -17.91 h -11 z"
           style="fill:#1a2e35;fill-opacity:1;fill-rule:nonzero;stroke:none"
           id="path802" /><g
           id="g804"><g
             id="g806" /><g
             id="g818"><g
               clip-path="url(#clipPath810)"
               opacity="0.5"
               id="g816"><g
                 transform="translate(333.7734,165.8945)"
                 id="g814"><path
                   d="M 0,0 11,-2.771 V 5.26 H 0 Z"
                   style="fill:#000000;fill-opacity:1;fill-rule:nonzero;stroke:none"
                   id="path812" /></g></g></g></g><path
           d="m 298.123,211.675 h 5.59 v -23.851 h -5.59 z"
           style="fill:#1a2e35;fill-opacity:1;fill-rule:nonzero;stroke:none"
           id="path820" /><g
           id="g822"
           transform="translate(331.7383,171.1543)"><path
             d="m 0,0 v 103.683 c 0,3.926 1.694,7.66 4.648,10.246 l 7.39,6.469 c 2.483,2.174 5.67,3.372 8.97,3.372 H 47.704 L 60.749,109.89 V 0 Z"
             style="fill:#007cff;fill-opacity:1;fill-rule:nonzero;stroke:none"
             id="path824" /></g><g
           id="g826"
           transform="translate(291.9932,191.2148)"><path
             d="M 0,0 H 60.9 V -20.061 H -9.92 c -3.976,-0.002 -7.203,3.218 -7.206,7.195 -10e-4,1.294 0.347,2.563 1.006,3.676 3.37,5.698 9.5,9.192 16.12,9.19"
             style="fill:#007cff;fill-opacity:1;fill-rule:nonzero;stroke:none"
             id="path828" /></g><g
           id="g830"><g
             id="g832" /><g
             id="g844"><g
               clip-path="url(#clipPath836)"
               opacity="0.699997"
               id="g842"><g
                 transform="translate(392.4902,281.04)"
                 id="g840"><path
                   d="m 0,0 v -109.89 h -110.42 c -3.971,0 -7.2,3.22 -7.2,7.2 0,1.29 0.34,2.56 1,3.669 3.37,5.691 9.479,9.191 16.09,9.191 h 30.674 c 5.029,0 9.106,4.077 9.106,9.106 V -6.2 c 0,3.92 1.689,7.66 4.649,10.24 l 7.391,6.47 c 2.48,2.18 5.67,3.37 8.97,3.37 h 26.689 z"
                   style="fill:#ffffff;fill-opacity:1;fill-rule:nonzero;stroke:none"
                   id="path838" /></g></g></g></g><g
           id="g846"
           transform="translate(340.624,171.1543)"><path
             d="m 0,0 v 103.683 c 0,3.926 1.694,7.66 4.647,10.246 l 7.391,6.469 c 2.483,2.174 5.67,3.372 8.97,3.372 h 20.806 c 3.758,0 7.35,-1.553 9.923,-4.291 l 5.318,-5.658 c 2.373,-2.525 3.694,-5.86 3.694,-9.326 V 10.382 C 60.749,4.648 56.102,0 50.368,0 Z"
             style="fill:#007cff;fill-opacity:1;fill-rule:nonzero;stroke:none"
             id="path848" /></g><g
           id="g850"><g
             id="g852" /><g
             id="g864"><g
               clip-path="url(#clipPath856)"
               opacity="0.5"
               id="g862"><g
                 transform="translate(340.624,171.1543)"
                 id="g860"><path
                   d="m 0,0 v 103.683 c 0,3.926 1.694,7.66 4.647,10.246 l 7.391,6.469 c 2.483,2.174 5.67,3.372 8.97,3.372 h 20.806 c 3.758,0 7.35,-1.553 9.923,-4.291 l 5.318,-5.658 c 2.373,-2.525 3.694,-5.86 3.694,-9.326 V 10.382 C 60.749,4.648 56.102,0 50.368,0 Z"
                   style="fill:#ffffff;fill-opacity:1;fill-rule:nonzero;stroke:none"
                   id="path858" /></g></g></g></g><g
           id="g866"
           transform="translate(319.9033,204.3945)"><path
             d="m 0,0 c -12.303,4.295 -25.697,4.295 -38,0 -2.555,-0.963 -5.425,0.132 -6.69,2.55 -1.14,2.41 0.39,5.53 3.49,6.62 14.367,5.02 30.012,5.02 44.38,0 C 6.279,8.09 7.81,4.96 6.67,2.55 5.402,0.145 2.548,-0.946 0,0"
             style="fill:#007cff;fill-opacity:1;fill-rule:nonzero;stroke:none"
             id="path868" /></g><g
           id="g870"><g
             id="g872" /><g
             id="g884"><g
               clip-path="url(#clipPath876)"
               opacity="0.699997"
               id="g882"><g
                 transform="translate(319.9033,204.3945)"
                 id="g880"><path
                   d="m 0,0 c -12.303,4.295 -25.697,4.295 -38,0 -2.555,-0.963 -5.425,0.132 -6.69,2.55 -1.14,2.41 0.39,5.53 3.49,6.62 14.367,5.02 30.012,5.02 44.38,0 C 6.279,8.09 7.81,4.96 6.67,2.55 5.402,0.145 2.548,-0.946 0,0"
                   style="fill:#ffffff;fill-opacity:1;fill-rule:nonzero;stroke:none"
                   id="path878" /></g></g></g></g></g></g><g
       id="g886"><g
         id="g888"
         clip-path="url(#clipPath892)"><g
           id="g894"
           transform="translate(164.4922,303.6055)"><path
             d="M 0,0 C -0.21,-0.59 -0.061,-1.18 0.33,-1.31 0.72,-1.44 1.199,-1.08 1.399,-0.49 1.6,0.1 1.46,0.7 1.08,0.83 0.699,0.96 0.21,0.6 0,0"
             style="fill:#1a2e35;fill-opacity:1;fill-rule:nonzero;stroke:none"
             id="path896" /></g><g
           id="g898"
           transform="translate(164.3818,302.9951)"><path
             d="m 0,0 c 0.078,-2.06 0.437,-4.099 1.07,-6.06 -1.019,-0.293 -2.115,-0.124 -3,0.46 z"
             style="fill:#bb221f;fill-opacity:1;fill-rule:nonzero;stroke:none"
             id="path900" /></g><g
           id="g902"
           transform="translate(163.5322,307.6255)"><path
             d="m 0,0 c 0.074,-0.025 0.155,-0.025 0.229,0 0.89,0.297 1.869,0.148 2.63,-0.4 0.166,-0.12 0.398,-0.083 0.517,0.082 C 3.482,-0.171 3.467,0.031 3.34,0.16 2.387,0.87 1.15,1.075 0.02,0.71 -0.174,0.644 -0.276,0.433 -0.21,0.24 -0.174,0.132 -0.089,0.047 0.02,0.01 Z"
             style="fill:#1a2e35;fill-opacity:1;fill-rule:nonzero;stroke:none"
             id="path904" /></g><g
           id="g906"
           transform="translate(142.5615,301.4253)"><path
             d="m 0,0 c 1.12,-5.69 2.23,-16.12 -1.75,-19.92 0,0 1.561,-5.77 12.141,-5.77 11.63,0 5.559,5.77 5.559,5.77 -6.349,1.52 -5.328,6.23 -4.218,10.65 z"
             style="fill:#ce5b51;fill-opacity:1;fill-rule:nonzero;stroke:none"
             id="path908" /></g><g
           id="g910"
           transform="translate(145.1514,311.7451)"><path
             d="m 0,0 c -2.079,-7.44 -3.68,-11.69 -1.3,-16.7 3.571,-7.55 16.045,-8.529 19.45,0.114 C 20.74,-8.63 23.301,-0.22 17.181,5.15 12.828,9.016 6.167,8.622 2.301,4.27 1.213,3.045 0.425,1.583 0,0"
             style="fill:#ce5b51;fill-opacity:1;fill-rule:nonzero;stroke:none"
             id="path912" /></g><g
           id="g914"
           transform="translate(137.0879,309.272)"><path
             d="m 0,0 c -0.541,2.741 -0.68,5.74 0.687,8.176 1.369,2.436 4.685,3.928 7.09,2.508 2.077,4.381 7.1,7.167 11.915,6.61 4.816,-0.556 9.071,-4.414 10.093,-9.153 1.024,-4.739 -1.26,-10.008 -5.417,-12.502 0.556,2.045 1.111,4.09 1.665,6.134 -0.476,-2.825 -2.023,-5.457 -4.261,-7.248 0.322,2.044 0.643,4.088 0.964,6.133 -0.293,-2.887 -2.034,-5.591 -4.541,-7.053 0.389,1.432 0.778,2.864 1.166,4.296 -0.171,-0.63 -1.726,-5.131 -2.256,-5.748 -0.981,-1.144 -1.638,-8.663 -5.085,-8.9 C 0.239,-19.106 1.265,-6.402 0,0"
             style="fill:#1a2e35;fill-opacity:1;fill-rule:nonzero;stroke:none"
             id="path916" /></g><g
           id="g918"
           transform="translate(152.999,305.707)"><path
             d="M 0,0 C -0.2,-1.908 0.229,-3.829 1.221,-5.47 2.55,-7.61 4.5,-6.79 5.221,-4.6 5.86,-2.6 5.931,0.85 4.08,2.24 2.23,3.63 0.28,2.3 0,0"
             style="fill:#ce5b51;fill-opacity:1;fill-rule:nonzero;stroke:none"
             id="path920" /></g><g
           id="g922"
           transform="translate(124.8125,233.6299)"><path
             d="m 0,0 c -1.273,0.422 -7.222,3.48 -8.168,2.935 2.746,7.007 4.459,8.083 5.707,12.543 0.698,2.492 0.219,4.433 -1.329,6.507 -1.758,2.354 -2.374,3.547 -5.297,3.257 -4.02,-6.722 -9.082,-15.016 -11.063,-22.594 -0.667,-2.551 -1.151,-4.487 0.367,-6.644 1.338,-1.9 3.812,-2.666 6.127,-2.874 5.574,-0.5 13.842,0.524 13.737,3.834 C 0.015,-0.949 0,0 0,0"
             style="fill:#ce5b51;fill-opacity:1;fill-rule:nonzero;stroke:none"
             id="path924" /></g><g
           id="g926"
           transform="translate(123.8672,233.8789)"><path
             d="M 0,0 4.726,1.534 4.305,-6.998 c 0,0 -3.783,-0.135 -5.798,2.395 z"
             style="fill:#ce5b51;fill-opacity:1;fill-rule:nonzero;stroke:none"
             id="path928" /></g><g
           id="g930"
           transform="translate(134.4922,235.5459)"><path
             d="m 0,0 -0.677,-7.035 -5.643,-1.63 0.421,8.532 z"
             style="fill:#ce5b51;fill-opacity:1;fill-rule:nonzero;stroke:none"
             id="path932" /></g><g
           id="g934"
           transform="translate(188.6133,227.8232)"><path
             d="m 0,0 c 0,0 -6.584,5.16 -15.229,22.215 -1.281,2.385 -2.507,4.788 -3.679,7.212 -1.177,2.447 -2.308,4.84 -3.385,7.409 l 10.216,4.404 C -9.971,36.655 -6.695,31.928 -4.376,27.377 -2.056,22.827 3.42,12.052 4.105,11.046 4.447,10.528 4.815,10.1 5.17,9.621 L 5.697,8.919 -0.894,1.3 Z"
             style="fill:#ce5b51;fill-opacity:1;fill-rule:nonzero;stroke:none"
             id="path936" /></g><g
           id="g938"
           transform="translate(197.2588,260.9761)"><path
             d="m 0,0 -2.047,2.44 -0.946,3.653 6.171,5.733 c 0,0 1.495,-1.838 2.537,-3.818 C 5.874,7.706 5.942,7.363 5.93,7.021 L 5.678,0.598 Z"
             style="fill:#ce5b51;fill-opacity:1;fill-rule:nonzero;stroke:none"
             id="path940" /></g><g
           id="g942"
           transform="translate(194.3564,271.0254)"><path
             d="M 0,0 4.617,4.197 6.078,1.747 -0.091,-3.957 Z"
             style="fill:#ce5b51;fill-opacity:1;fill-rule:nonzero;stroke:none"
             id="path944" /></g><g
           id="g946"
           transform="translate(197.3496,262.7617)"><path
             d="m 0,0 c 0.162,0.687 0.305,-0.66 0.757,-0.118 1.365,1.633 3.347,1.811 4.525,0.038 1.179,-1.772 0.171,-19.617 -1.714,-25.207 -1.252,-3.714 -1.919,-6.678 -5.121,-8.937 -1.323,-0.934 -2.878,-1.639 -4.498,-1.614 -1.619,0.025 -3.29,0.911 -3.903,2.412 -0.95,2.332 2.579,10.731 3.842,13.441 C -2.156,-11.493 -1.895,-8.06 0,0"
             style="fill:#ce5b51;fill-opacity:1;fill-rule:nonzero;stroke:none"
             id="path948" /></g><g
           id="g950"
           transform="translate(184.1152,263.5303)"><path
             d="m 0,0 c 2.725,0.026 5.45,0.053 8.175,0.079 1.164,0.011 2.373,0.033 3.42,0.542 1.372,0.668 2.239,2.068 2.793,3.489 1.156,2.965 1.253,6.216 1.712,9.364 0.459,3.149 1.406,6.434 3.788,8.544 C 15.546,21.441 7.871,22.802 4.538,19.246 2.771,17.36 -0.334,-0.003 0,0"
             style="fill:#007cff;fill-opacity:1;fill-rule:nonzero;stroke:none"
             id="path952" /></g><g
           id="g954"><g
             id="g956" /><g
             id="g968"><g
               clip-path="url(#clipPath960)"
               opacity="0.5"
               id="g966"><g
                 transform="translate(184.1152,263.5303)"
                 id="g964"><path
                   d="m 0,0 c 2.725,0.026 5.45,0.053 8.175,0.079 1.164,0.011 2.373,0.033 3.42,0.542 1.372,0.668 2.239,2.068 2.793,3.489 1.156,2.965 1.253,6.216 1.712,9.364 0.459,3.149 1.406,6.434 3.788,8.544 C 15.546,21.441 7.871,22.802 4.538,19.246 2.771,17.36 -0.334,-0.003 0,0"
                   style="fill:#ffffff;fill-opacity:1;fill-rule:nonzero;stroke:none"
                   id="path962" /></g></g></g></g><g
           id="g970"
           transform="translate(198.0957,275.6675)"><path
             d="m 0,0 v 0 c -0.469,-0.124 -0.779,-1.802 -0.677,-2.276 l 0.459,-0.819 0.934,-4.053 3.119,1.725 -2.813,4.991 C 0.819,-0.073 0.399,0.105 0,0"
             style="fill:#ce5b51;fill-opacity:1;fill-rule:nonzero;stroke:none"
             id="path972" /></g><g
           id="g974"
           transform="translate(127.627,280.0767)"><path
             d="m 0,0 c -7.301,-1.67 -18.095,-24.414 -18.095,-24.414 l 14.65,-10 C 0.198,-29.188 5.16,-21.29 7.953,-15.564 12.283,-6.504 7.46,1.71 0,0"
             style="fill:#007cff;fill-opacity:1;fill-rule:nonzero;stroke:none"
             id="path976" /></g><g
           id="g978"
           transform="translate(138.292,279.5254)"><path
             d="M 0,0 C -0.84,1.83 -1.75,3.92 0.14,4.57 2.229,5.29 13.67,6.03 17.609,4.68 19.773,4.091 21.05,1.86 20.462,-0.304 20.454,-0.329 20.447,-0.354 20.439,-0.38 Z"
             style="fill:#1a2e35;fill-opacity:1;fill-rule:nonzero;stroke:none"
             id="path980" /></g><g
           id="g982"><g
             id="g984" /><g
             id="g996"><g
               clip-path="url(#clipPath988)"
               opacity="0.199997"
               id="g994"><g
                 transform="translate(132.1396,266.9424)"
                 id="g992"><path
                   d="m 0,0 -10.413,-19.604 2.455,-1.675 c 0,0 4.719,6.569 7.958,12.249 z"
                   style="fill:#000000;fill-opacity:1;fill-rule:nonzero;stroke:none"
                   id="path990" /></g></g></g></g><g
           id="g998"
           transform="translate(172.0117,270.0693)"><path
             d="M 0,0 C 1.578,-7.983 -2.108,-26.966 -2.07,-57.974 H -43.7 c -0.275,6.267 4.284,21.106 -1.379,50.666 -0.183,0.958 -0.267,17.146 0.694,17.315 4.031,0.708 8.099,1.189 12.185,1.439 5.895,0.345 11.805,0.345 17.7,0 2.405,-0.242 6.202,-1.737 8.594,-2.598 C -2.171,7.503 -0.77,3.895 0,0"
             style="fill:#007cff;fill-opacity:1;fill-rule:nonzero;stroke:none"
             id="path1000" /></g><g
           id="g1002"><g
             id="g1004" /><g
             id="g1016"><g
               clip-path="url(#clipPath1008)"
               opacity="0.199997"
               id="g1014"><g
                 transform="translate(160.9951,262.1201)"
                 id="g1012"><path
                   d="m 0,0 c 1.086,-6.571 5.395,-15.253 9.688,-20.346 0.17,3.731 0.543,7.626 0.534,10.616 z"
                   style="fill:#000000;fill-opacity:1;fill-rule:nonzero;stroke:none"
                   id="path1010" /></g></g></g></g><g
           id="g1018"
           transform="translate(158.0342,271.9951)"><path
             d="m 0,0 c -1,-7.37 13.5,-26.19 13.5,-26.19 l 14.59,10 c 0,0 -4.05,10.37 -10.861,17.17 C 9.47,8.78 1.14,8.02 0,0"
             style="fill:#007cff;fill-opacity:1;fill-rule:nonzero;stroke:none"
             id="path1020" /></g><g
           id="g1022"
           transform="translate(205.7217,108.875)"><path
             d="M 0,0 H 7.78 L 9.55,18.03 H 1.771 Z"
             style="fill:#ce5b51;fill-opacity:1;fill-rule:nonzero;stroke:none"
             id="path1024" /></g><g
           id="g1026"><g
             id="g1028" /><g
             id="g1040"><g
               clip-path="url(#clipPath1032)"
               opacity="0.199997"
               id="g1038"><g
                 transform="translate(215.1533,125.8066)"
                 id="g1036"><path
                   d="M 0,0 -0.9,-9.29 H -8.69 L -7.78,0 Z"
                   style="fill:#000000;fill-opacity:1;fill-rule:nonzero;stroke:none"
                   id="path1034" /></g></g></g></g><g
           id="g1042"
           transform="translate(175.0322,108.875)"><path
             d="m 0,0 h 7.779 l 3.91,18.03 h -7.78 z"
             style="fill:#ce5b51;fill-opacity:1;fill-rule:nonzero;stroke:none"
             id="path1044" /></g><g
           id="g1046"><g
             id="g1048" /><g
             id="g1060"><g
               clip-path="url(#clipPath1052)"
               opacity="0.199997"
               id="g1058"><g
                 transform="translate(178.7734,125.9443)"
                 id="g1056"><path
                   d="M 0,0 H 7.78 L 5.76,-9.29 h -7.78 z"
                   style="fill:#000000;fill-opacity:1;fill-rule:nonzero;stroke:none"
                   id="path1054" /></g></g></g></g><g
           id="g1062"
           transform="translate(213.9414,112.3711)"><path
             d="m 0,0 h -8.489 c -0.323,-0.002 -0.601,-0.292 -0.67,-0.699 l -1.54,-8.905 c -0.145,-0.786 0.231,-1.574 0.839,-1.759 0.091,-0.029 0.186,-0.042 0.28,-0.04 3.06,0.065 7.49,0.298 11.341,0.298 4.51,0 8.399,-0.311 13.679,-0.311 3.201,0 4.09,4.181 2.75,4.556 C 12.101,-5.139 7.131,-4.957 1.87,-0.751 1.312,-0.282 0.665,-0.022 0,0"
             style="fill:#1a2e35;fill-opacity:1;fill-rule:nonzero;stroke:none"
             id="path1064" /></g><g
           id="g1066"
           transform="translate(221.3613,110.9854)"><path
             d="m 0,0 c 0.116,0.017 0.234,0.017 0.351,0 0.152,-0.028 0.285,-0.124 0.36,-0.26 0.13,-0.23 0.09,-0.34 0,-0.4 -0.36,-0.51 -2.33,-0.52 -3.78,-0.31 0.95,0.52 1.993,0.849 3.069,0.97 m -1.239,-1.51 c 1,0 2,0.14 2.29,0.59 0.169,0.243 0.169,0.566 0,0.81 -0.134,0.211 -0.34,0.364 -0.58,0.43 -1.3,0.35 -4,-1.2 -4.13,-1.27 -0.07,-0.035 -0.108,-0.113 -0.09,-0.19 0.013,-0.073 0.067,-0.131 0.14,-0.15 0.782,-0.143 1.575,-0.216 2.37,-0.22"
             style="fill:#007cff;fill-opacity:1;fill-rule:nonzero;stroke:none"
             id="path1068" /></g><g
           id="g1070"
           transform="translate(219.6719,112.8457)"><path
             d="m 0,0 h 0.11 c 0.329,0 0.35,-0.17 0.36,-0.21 0.09,-0.53 -1.18,-1.851 -2.14,-2.421 0.079,0.881 0.429,1.716 1,2.391 C -0.483,-0.081 -0.245,0.005 0,0 m -1.9,-3.15 h 0.08 c 0.94,0.42 2.799,2.099 2.65,3 0,0.21 -0.18,0.46 -0.68,0.519 -0.363,0.032 -0.723,-0.083 -1,-0.319 -1,-0.811 -1.2,-2.91 -1.211,-3 -0.006,-0.066 0.02,-0.13 0.071,-0.17 0.027,-0.017 0.058,-0.026 0.09,-0.03"
             style="fill:#007cff;fill-opacity:1;fill-rule:nonzero;stroke:none"
             id="path1072" /></g><g
           id="g1074"
           transform="translate(183.3613,112.3711)"><path
             d="m 0,0 h -8.739 c -0.32,-0.004 -0.595,-0.294 -0.66,-0.699 l -1.54,-8.905 c -0.133,-0.803 0.263,-1.594 0.884,-1.766 0.084,-0.024 0.169,-0.034 0.255,-0.033 3.05,0.065 4.54,0.298 8.38,0.298 2.37,0 5.4,-0.311 8.67,-0.311 3.271,0 3.69,4.181 2.351,4.556 -6,1.696 -6.411,4.039 -8.33,6.277 C 0.916,-0.194 0.465,0.013 0,0"
             style="fill:#1a2e35;fill-opacity:1;fill-rule:nonzero;stroke:none"
             id="path1076" /></g><g
           id="g1078"
           transform="translate(188.9316,109.9648)"><path
             d="M 0,0 C 0.073,0.011 0.147,0.011 0.22,0 0.365,-0.021 0.491,-0.11 0.561,-0.239 0.73,-0.55 0.63,-0.67 0.561,-0.72 0.23,-1.149 -1.359,-1.159 -2.53,-0.97 c 0.753,0.51 1.611,0.841 2.51,0.97 z m -1,-1.479 c 0.667,-0.087 1.341,0.096 1.87,0.509 0.189,0.26 0.189,0.611 0,0.87 C 0.75,0.123 0.538,0.28 0.29,0.33 -0.85,0.601 -3,-0.869 -3.09,-0.93 -3.147,-0.975 -3.179,-1.047 -3.17,-1.119 -3.155,-1.19 -3.101,-1.245 -3.03,-1.26 -2.363,-1.405 -1.683,-1.479 -1,-1.479"
             style="fill:#007cff;fill-opacity:1;fill-rule:nonzero;stroke:none"
             id="path1080" /></g><g
           id="g1082"
           transform="translate(187.5215,111.8457)"><path
             d="M 0,0 H 0.08 C 0.32,0 0.341,-0.141 0.351,-0.19 0.45,-0.7 -0.55,-1.99 -1.35,-2.601 c 0.054,0.888 0.374,1.739 0.92,2.441 0.119,0.102 0.273,0.159 0.43,0.16 m -1.569,-3.15 h 0.08 c 0.809,0.44 2.369,2.139 2.199,3 C 0.657,0.134 0.409,0.34 0.12,0.34 -0.162,0.374 -0.445,0.287 -0.659,0.1 -1.56,-0.641 -1.75,-2.9 -1.76,-2.98 c -10e-4,-0.069 0.033,-0.133 0.09,-0.17 0.033,-0.01 0.067,-0.01 0.101,0"
             style="fill:#007cff;fill-opacity:1;fill-rule:nonzero;stroke:none"
             id="path1084" /></g><g
           id="g1086"
           transform="translate(157.4619,212.085)"><path
             d="M 0,0 C 0,0 36.849,-15.212 44.469,-26.909 39.938,-56.648 31.808,-90.529 31.808,-90.529 H 17.95 c 0,0 -0.38,18.84 3.588,43.76 2,36.35 -63.418,-1.26 -50.708,46.769 z"
             style="fill:#1a2e35;fill-opacity:1;fill-rule:nonzero;stroke:none"
             id="path1088" /></g><g
           id="g1090"><g
             id="g1092" /><g
             id="g1104"><g
               clip-path="url(#clipPath1096)"
               opacity="0.300003"
               id="g1102"><g
                 transform="translate(182.9385,187.0156)"
                 id="g1100"><path
                   d="m 0,0 c -2.582,-0.1 -5.142,-0.493 -7.695,-0.886 -2.693,-0.415 -5.385,-0.829 -8.076,-1.243 4.164,-3.495 8.563,-6.711 13.157,-9.619 2.788,-1.764 5.821,-3.465 9.12,-3.481 3.695,-0.016 13.736,4.747 12.071,9.67 C 16.889,-0.567 4.2,0.162 0,0"
                   style="fill:#000000;fill-opacity:1;fill-rule:nonzero;stroke:none"
                   id="path1098" /></g></g></g></g><g
           id="g1106"
           transform="translate(169.9414,212.085)"><path
             d="m 0,0 c 0,0 34.062,-4.392 52.839,-15.085 5.78,-3.292 4.972,-13.864 4.821,-20.824 -0.413,-18.678 -4.004,-37.149 -10.62,-54.62 H 35.48 c 0,0 0.59,18.87 0.201,49.319 -0.12,9.13 -18.55,12.141 -36.561,13.2 -15.557,0.979 -29.214,10.695 -35.239,25.071 L -37.35,0 Z"
             style="fill:#1a2e35;fill-opacity:1;fill-rule:nonzero;stroke:none"
             id="path1108" /></g><g
           id="g1110"
           transform="translate(219.8115,124.6553)"><path
             d="m 0,0 c 0.061,0 -0.75,-5.47 -0.75,-5.47 h -16 l -0.439,4.88 z"
             style="fill:#007cff;fill-opacity:1;fill-rule:nonzero;stroke:none"
             id="path1112" /></g><g
           id="g1114"
           transform="translate(190.6113,124.6553)"><path
             d="m 0,0 c 0.061,0 -1.47,-5.47 -1.47,-5.47 h -16 l 0.29,4.88 z"
             style="fill:#007cff;fill-opacity:1;fill-rule:nonzero;stroke:none"
             id="path1116" /></g><g
           id="g1118"
           transform="translate(147.6152,184.4912)"><path
             d="m 0,0 -11.464,-84.507 -2.071,0.282 8.848,84.865 z"
             style="fill:#007cff;fill-opacity:1;fill-rule:nonzero;stroke:none"
             id="path1120" /></g><g
           id="g1122"><g
             id="g1124" /><g
             id="g1136"><g
               clip-path="url(#clipPath1128)"
               opacity="0.399994"
               id="g1134"><g
                 transform="translate(147.2051,181.4648)"
                 id="g1132"><path
                   d="m 0,0 -11.054,-81.48 -2.071,0.282 8.468,81.209 z"
                   style="fill:#000000;fill-opacity:1;fill-rule:nonzero;stroke:none"
                   id="path1130" /></g></g></g></g><g
           id="g1138"
           transform="translate(187.9414,181.4648)"><path
             d="m 0,0 h -65 c 0,4.099 3.322,7.421 7.42,7.421 H -7.42 C -3.321,7.421 0,4.099 0,0"
             style="fill:#007cff;fill-opacity:1;fill-rule:nonzero;stroke:none"
             id="path1140" /></g><g
           id="g1142"><g
             id="g1144" /><g
             id="g1156"><g
               clip-path="url(#clipPath1148)"
               opacity="0.699997"
               id="g1154"><g
                 transform="translate(187.9414,181.4648)"
                 id="g1152"><path
                   d="m 0,0 h -65 c 0,4.099 3.322,7.421 7.42,7.421 H -7.42 C -3.321,7.421 0,4.099 0,0"
                   style="fill:#ffffff;fill-opacity:1;fill-rule:nonzero;stroke:none"
                   id="path1150" /></g></g></g></g><g
           id="g1158"
           transform="translate(125.9521,181.4756)"><path
             d="M 0,0 -9.801,-82.16 H -7.7 L 4.729,0 Z"
             style="fill:#007cff;fill-opacity:1;fill-rule:nonzero;stroke:none"
             id="path1160" /></g><g
           id="g1162"
           transform="translate(184.9316,181.4756)"><path
             d="M 0,0 9.8,-82.16 H 7.7 L -4.72,0 Z"
             style="fill:#007cff;fill-opacity:1;fill-rule:nonzero;stroke:none"
             id="path1164" /></g><g
           id="g1166"><g
             id="g1168" /><g
             id="g1180"><g
               clip-path="url(#clipPath1172)"
               opacity="0.399994"
               id="g1178"><g
                 transform="translate(184.9316,181.4756)"
                 id="g1176"><path
                   d="M 0,0 9.8,-82.16 H 7.7 L -4.72,0 Z"
                   style="fill:#000000;fill-opacity:1;fill-rule:nonzero;stroke:none"
                   id="path1174" /></g></g></g></g><g
           id="g1182"
           transform="translate(171.8223,181.4756)"><path
             d="M 0,0 0.189,-82.16 H -1.9 L -4.73,0 Z"
             style="fill:#007cff;fill-opacity:1;fill-rule:nonzero;stroke:none"
             id="path1184" /></g></g></g></g></svg>
