<svg width="259" height="139" viewBox="0 0 259 139" fill="none" xmlns="http://www.w3.org/2000/svg">
<path d="M258.012 138.836H20.2007L43.2658 31.2899C45.2542 22.0187 54.2321 15.7037 64.0319 16.6834L217.561 32.0322C225.605 32.8364 232.262 38.4043 234.195 45.95L258.012 138.836Z" fill="#E3EEFD"/>
<path d="M86.8774 18.8067V39.4886C86.8774 40.973 88.0824 42.1759 89.5693 42.1759C126.433 40.6885 124.252 49.5295 123.946 22.6729L86.8774 18.8067" fill="#A4C4FF"/>
<path d="M135.069 22.341V26.7938C135.069 27.729 135.828 28.4869 136.765 28.4869H158.784C161.073 28.3872 160.788 26.1203 160.767 24.4787L135.069 22.341" fill="#A4C4FF"/>
<path d="M194.033 122.798C193.5 121.541 192.841 120.355 192.064 119.247L195.772 115.546L190.025 109.809L186.111 113.716C184.307 112.638 182.296 111.846 180.243 111.411V105.765H172.116V111.411C170.063 111.846 168.05 112.638 166.246 113.716L162.334 109.809L156.587 115.546L160.295 119.247C159.012 121.07 158.038 123.154 157.46 125.31H152.535V133.423H157.047C157.336 135.209 157.879 136.962 158.664 138.606H165.182C158.286 129.956 165.081 116.291 176.18 116.581C187.275 116.289 194.076 129.958 187.178 138.606H193.694C194.48 136.962 195.023 135.209 195.311 133.423H199.824V125.31H194.899C194.669 124.457 194.381 123.619 194.033 122.798" fill="#A4C4FF"/>
<path d="M193.2 105.036C185.056 104.792 185.057 92.9789 193.2 92.7347C201.346 92.98 201.343 104.793 193.2 105.036ZM201.76 100.27H203.78V96.6412H201.575C201.317 95.6753 200.881 94.7437 200.308 93.9276L201.967 92.2724L199.396 89.7057L197.644 91.4534C196.838 90.9719 195.939 90.6173 195.019 90.4222V87.8966H191.383V90.4222C190.465 90.6173 189.565 90.9719 188.758 91.4534L187.006 89.7057L184.435 92.2724L186.094 93.9276C185.519 94.7437 185.085 95.6753 184.825 96.6412H182.622V100.27H184.641C184.813 101.341 185.197 102.39 185.756 103.321L184.435 104.639L187.006 107.206L188.233 105.98C189.172 106.637 190.261 107.111 191.383 107.349V109.015H195.019V107.349C196.14 107.111 197.23 106.637 198.167 105.98L199.396 107.206L201.967 104.639L200.646 103.321C201.204 102.39 201.589 101.341 201.76 100.27" fill="#A4C4FF"/>
<path d="M82.5001 81.9398C83.358 66.2216 105.986 68.4698 104.224 84.0986H82.5001V81.9398ZM111.705 84.0986H106.608C108.108 63.7936 78.6116 63.8056 80.1163 84.0986H73.5669L65.9717 138.889H121.402L111.705 84.0986" fill="#A4C4FF"/>
<mask id="mask0_31_18836" style="mask-type:alpha" maskUnits="userSpaceOnUse" x="65" y="68" width="57" height="71">
<path d="M82.5001 81.9398C83.358 66.2216 105.986 68.4698 104.224 84.0986H82.5001V81.9398ZM111.705 84.0986H106.608C108.108 63.7936 78.6116 63.8056 80.1163 84.0986H73.5669L65.9717 138.889H121.402L111.705 84.0986" fill="white"/>
</mask>
<g mask="url(#mask0_31_18836)">
<path d="M60.7417 133.664C86.2148 117.523 92.5105 112.638 96.973 81.9007H114.234L117.651 141.667L62.3698 141.487L60.7417 133.664" fill="#739BFD"/>
</g>
<path d="M181.989 138.836H160.252C160.71 138.836 161.149 138.754 161.556 138.606H165.181C164.629 137.913 164.164 137.188 163.783 136.44C163.954 136.009 164.048 135.537 164.048 135.044V124.012C166.261 119.758 170.537 116.576 175.832 116.576C175.948 116.576 176.062 116.578 176.179 116.581C176.295 116.578 176.412 116.576 176.528 116.576C178.631 116.576 180.574 117.079 182.291 117.952C181.755 120.797 180.615 123.782 178.277 125.522L187.452 131.541C187.452 131.541 183.123 135.969 179.514 136.74L181.989 138.836M166.246 113.716L164.048 111.522V106.803L170.274 101.313C170.274 101.313 171.387 106.945 170.748 111.755C169.174 112.214 167.647 112.879 166.246 113.716ZM182.73 112.12C181.916 111.827 181.082 111.589 180.243 111.411V111.097L182.651 110.598C182.651 110.598 182.709 111.178 182.73 112.12" fill="#D5E5FD"/>
<path d="M165.182 138.606H161.556C162.572 138.235 163.386 137.442 163.783 136.44C164.165 137.188 164.628 137.913 165.182 138.606M164.049 124.012V111.522L166.246 113.716C167.648 112.879 169.174 112.214 170.748 111.755C170.686 112.216 170.61 112.67 170.514 113.11L180.243 111.097V111.411C181.082 111.589 181.916 111.827 182.731 112.12C182.764 113.509 182.717 115.686 182.29 117.952C180.573 117.079 178.631 116.576 176.528 116.576C176.413 116.576 176.295 116.578 176.179 116.581C176.063 116.578 175.948 116.576 175.831 116.576C170.537 116.576 166.262 119.758 164.049 124.012" fill="#A4C4FF"/>
<path d="M208.399 55.889L203.37 65.7523L210.873 66.5251L208.399 55.889" fill="#DF4930"/>
<path d="M199.759 44.6568L206.507 60.3924L201.172 61.4044L197.731 48.3762L199.759 44.6568" fill="#FFB6A6"/>
<mask id="mask1_31_18836" style="mask-type:alpha" maskUnits="userSpaceOnUse" x="197" y="44" width="10" height="18">
<path d="M199.759 44.6574L206.507 60.3926L201.171 61.4047L197.731 48.3769L199.759 44.6574" fill="white"/>
</mask>
<g mask="url(#mask1_31_18836)">
<path d="M198.383 52.7268C198.383 52.7268 201.608 57.4637 205.793 57.2723L207.635 61.2063L199.804 60.3189L198.383 52.7268Z" fill="#FF8370"/>
</g>
<path d="M196.98 42.8881L195.093 47.7423C194.96 48.0854 195.16 48.4674 195.519 48.5544L197.501 49.0355C197.798 49.1079 198.103 48.9482 198.214 48.6626L200.411 42.9648L196.98 42.8881" fill="#38385C"/>
<path d="M188.369 30.8229L201.332 39.7244C201.944 40.1401 202.236 40.8924 202.061 41.6118C201.873 42.3788 201.201 42.9304 200.411 42.9648L184.941 43.6406L188.369 30.8229" fill="#FF8370"/>
<path d="M186.707 37.1769C186.98 35.8618 188.859 35.5503 189.557 36.6723C190.764 28.6011 184.836 28.6802 183.058 36.2911C181.135 43.8662 186.366 46.6559 189.006 38.9315C187.87 39.6085 186.344 38.4698 186.707 37.1769" fill="#38385C"/>
<path d="M189.557 36.6721C188.859 35.5502 186.981 35.8616 186.707 37.1767C186.345 38.4697 187.87 39.6083 189.006 38.9313C189.247 38.2167 189.441 37.4171 189.557 36.6721" fill="#F85C3D"/>
<path d="M194.214 34.8357C194.214 34.8357 195.404 38.4166 192.146 43.3256L193.82 43.2524C193.82 43.2524 196.383 40.7493 195.909 35.9995L194.214 34.8357Z" fill="#38385C"/>
<path d="M201.009 47.571C201.009 47.571 200.551 44.2093 200.012 43.8842C198.333 42.8726 197.071 43.1968 197.286 43.7004C197.384 43.93 198.721 44.8498 198.721 44.8498C198.721 44.8498 198.654 47.516 198.584 47.7042C198.416 48.1549 201.009 47.571 201.009 47.571Z" fill="#FFB6A6"/>
<path d="M196.556 43.8672C196.556 43.8672 198.214 44.3493 198.214 44.5945C198.214 44.8397 197.21 46.8686 196.92 46.9356C196.629 47.0024 195.512 46.8581 195.447 46.7193C195.031 46.0931 196.024 44.1538 196.556 43.8672Z" fill="#FFB6A6"/>
<path d="M239.704 128.492C239.704 128.492 237.843 131.025 234.789 129.066L229.998 135.634C229.33 136.6 229.341 137.881 230.025 138.836L241.173 132.204C241.565 131.971 241.877 131.426 241.877 130.954C241.978 130.382 239.989 128.89 239.704 128.492" fill="#38385C"/>
<path d="M233.803 126.048L235.24 129.328C235.24 129.328 237.884 130.778 239.704 128.492L237.82 123.731L233.803 126.048" fill="#FFB6A6"/>
<mask id="mask2_31_18836" style="mask-type:alpha" maskUnits="userSpaceOnUse" x="233" y="123" width="7" height="7">
<path d="M233.802 126.048L235.24 129.328C235.24 129.328 237.883 130.778 239.703 128.492L237.819 123.731L233.802 126.048Z" fill="white"/>
</mask>
<g mask="url(#mask2_31_18836)">
<path d="M234.789 129.066L239.254 126.354L238.354 123.942L233.425 126.756L234.789 129.066Z" fill="#FF8370"/>
</g>
<path d="M229.444 96.4892C233.505 77.4314 226.044 74.5368 226.044 74.5368H212.748L204.182 129.078L211.284 129.65C211.654 128.923 218.807 99.4298 219.948 100.111L233.265 127.417L239.884 125.293L229.444 96.4892Z" fill="#38385C"/>
<path d="M219.948 100.111L214.711 87.3739C214.711 87.3739 214.716 98.5947 218.669 102.093L219.948 100.111" fill="#1A1A35"/>
<path d="M212.471 36.0397C217.363 31.1634 224.513 47.5303 224.9 48.0059C241.866 56.2676 224.615 64.0265 212.476 59.4716C209.262 58.6522 206.921 55.8885 206.661 52.5879C206.185 46.5096 206.473 37.2149 212.471 36.0397" fill="#38385C"/>
<path d="M209.38 43.3395C210.636 31.5432 222.186 39.1685 217.137 47.4706L218.346 53.4004L213.862 54.1852L213.272 49.3391C211.075 48.9482 209.38 46.4123 209.38 43.3395Z" fill="#FFB6A6"/>
<mask id="mask3_31_18836" style="mask-type:alpha" maskUnits="userSpaceOnUse" x="209" y="37" width="10" height="18">
<path d="M209.379 43.3397C210.635 31.543 222.185 39.169 217.137 47.4703L218.345 53.4008L213.862 54.1847L213.271 49.3396C211.075 48.9486 209.379 46.412 209.379 43.3397Z" fill="white"/>
</mask>
<g mask="url(#mask3_31_18836)">
<path d="M219.022 43.801C219.022 43.801 215.695 42.9462 214.597 42.0122L215.707 43.1078C215.707 43.1078 212.294 42.3 211.539 40.2163C211.539 40.2163 210.19 41.9044 210.064 43.3054C209.844 41.5922 209.051 37.9286 212.331 37.4684L218.719 42.5838L219.022 43.801Z" fill="#FF8370"/>
<path d="M217.137 47.4703C217.137 47.4703 216.012 48.992 213.863 49.2834C213.863 49.2834 216.308 49.9753 217.878 49.174L217.137 47.4703Z" fill="#FF8370"/>
<path d="M212.214 47.0897C212.214 47.0897 213.711 47.0012 214.242 46.205C214.242 46.205 214.007 47.6323 213.13 47.7671C212.291 47.8962 212.214 47.0897 212.214 47.0897" fill="white"/>
</g>
<path d="M213.066 36.7767C213.066 36.7767 212.844 42.8537 218.344 43.0126C218.344 43.0126 218.556 35.9544 213.066 36.7767Z" fill="#38385C"/>
<path d="M213.251 37.342C213.251 37.342 213.107 41.146 214.711 42.5834C214.711 42.5834 211.799 41.0518 212.264 37.6821C212.264 37.6821 212.404 37.3319 213.251 37.342Z" fill="#38385C"/>
<path d="M212.726 37.2708C212.726 37.2708 210.323 40.4938 210.177 42.5841C210.177 42.5841 210.091 39.2322 211.133 37.3426L212.726 37.2708" fill="#38385C"/>
<path d="M212.213 76.2727C212.213 76.2727 207.727 61.4681 207.884 57.7774C208.042 54.087 213.325 51.1766 213.325 51.1766L217.807 50.3917C217.807 50.3917 225.597 50.7583 227.272 55.9574C228.946 61.1565 228.729 76.2727 228.729 76.2727H212.213Z" fill="#F85C3D"/>
<mask id="mask4_31_18836" style="mask-type:alpha" maskUnits="userSpaceOnUse" x="207" y="50" width="22" height="27">
<path d="M212.214 76.2726C212.214 76.2726 207.728 61.4679 207.885 57.7776C208.042 54.0872 213.325 51.1767 213.325 51.1767L217.808 50.3918C217.808 50.3918 225.597 50.7586 227.272 55.9575C228.946 61.1564 228.73 76.2726 228.73 76.2726H212.214Z" fill="white"/>
</mask>
<g mask="url(#mask4_31_18836)">
<path d="M208.358 67.6454C208.358 67.6454 223.231 73.3237 230.955 73.2191V77.3346H210.874L208.358 67.6454Z" fill="#DF4930"/>
<path d="M219.944 59.0307L217.656 56.7483L218.31 59.0307H219.944Z" fill="#DF4930"/>
</g>
<path d="M235.014 59.0307H201.573V52.6351C201.573 51.551 200.379 50.8895 199.456 51.4631L178.81 64.3088C177.94 64.8495 177.94 66.1128 178.81 66.6536L199.456 79.4994C200.379 80.0733 201.573 79.411 201.573 78.3276V71.9318H235.014V59.0307" fill="#3875FF"/>
<path d="M214.903 70.2298C214.903 70.2298 213.039 69.9052 213.112 69.5322C213.204 69.0609 216.682 69.272 216.682 69.272C218.096 68.488 231.389 60.5767 232.503 60.3193C234.435 62.0892 236.593 64.0349 234.188 66.5474C233.85 66.8479 233.447 67.072 233.013 67.2026L218.069 71.682C218.069 71.682 215.641 73.4749 215.301 73.5081C213.278 73.705 212.1 72.1875 211.872 71.9322C211.644 71.6769 214.903 70.2298 214.903 70.2298" fill="#FFB6A6"/>
<mask id="mask5_31_18836" style="mask-type:alpha" maskUnits="userSpaceOnUse" x="211" y="60" width="25" height="14">
<path d="M214.903 70.2295C214.903 70.2295 213.039 69.9049 213.112 69.532C213.204 69.0607 216.683 69.2717 216.683 69.2717C218.095 68.4878 231.389 60.5765 232.504 60.3192C234.436 62.089 236.593 64.0347 234.189 66.5472C233.85 66.8477 233.448 67.0718 233.013 67.2024L218.069 71.6817C218.069 71.6817 215.641 73.4746 215.302 73.5078C213.278 73.7048 212.1 72.1872 211.872 71.932C211.645 71.6767 214.903 70.2295 214.903 70.2295" fill="white"/>
</mask>
<g mask="url(#mask5_31_18836)">
<path d="M235.403 61.5C235.403 61.5 234.147 63.1321 226.638 62.689L233.21 58.6304L235.403 61.5" fill="#FF8370"/>
</g>
<path d="M224.868 52.7272L233.043 60.0645L225.302 64.1895C218.831 57.5186 216.44 59.3812 224.868 52.7272" fill="#F85C3D"/>
<mask id="mask6_31_18836" style="mask-type:alpha" maskUnits="userSpaceOnUse" x="219" y="52" width="15" height="13">
<path d="M224.867 52.7274L233.043 60.0639L225.301 64.1895C218.83 57.5183 216.44 59.3815 224.867 52.7274" fill="white"/>
</mask>
<g mask="url(#mask6_31_18836)">
<path d="M219.942 59.0312C219.942 59.0312 224.867 62.5264 228.32 62.5817C231.773 62.636 228.32 62.5817 228.32 62.5817L225.243 64.7314C225.243 64.7314 220.481 60.424 219.942 59.0312Z" fill="#DF4930"/>
</g>
<path d="M209.337 134.713C209.337 134.713 206.455 135.978 204.793 132.757L197.353 136.049C196.289 136.552 195.657 137.667 195.772 138.836L208.747 138.661C209.204 138.655 209.747 138.339 209.983 137.93C210.357 137.485 209.383 135.201 209.337 134.713" fill="#38385C"/>
<path d="M205.308 129.169L205.05 133.208C205.05 133.208 206.613 135.784 209.336 134.713L210.253 129.567L205.308 129.169Z" fill="#FFB6A6"/>
<mask id="mask7_31_18836" style="mask-type:alpha" maskUnits="userSpaceOnUse" x="205" y="129" width="6" height="6">
<path d="M205.307 129.169L205.051 133.208C205.051 133.208 206.613 135.784 209.335 134.713L210.253 129.567L205.307 129.169" fill="white"/>
</mask>
<g mask="url(#mask7_31_18836)">
<path d="M204.501 130.345L210.334 132.008C210.334 132.008 211.107 128.659 210.811 128.492C210.513 128.325 205.051 128.492 205.051 128.492L204.501 130.345" fill="#FF8370"/>
</g>
<path d="M213.236 76.2726C213.236 76.2726 223.696 80.4173 229.647 79.347C229.647 79.347 229.299 77.7409 228.052 76.2726H213.236" fill="#1A1A35"/>
<path d="M187.452 131.541C182.453 127.157 176.893 126.62 173.25 126.889C181.464 123.631 182.68 110.33 182.68 110.33C172.361 112.185 168.697 115.014 167.555 116.225C171.215 111.176 170.274 101.313 170.274 101.313C161.623 107.663 159.329 113.47 159.329 113.47L160.251 138.836H179.924C179.924 138.836 178.129 137.812 175.565 136.498C182.745 134.364 187.452 131.541 187.452 131.541" fill="#A7BD37"/>
<mask id="mask8_31_18836" style="mask-type:alpha" maskUnits="userSpaceOnUse" x="159" y="101" width="29" height="38">
<path d="M187.451 131.541C182.452 127.157 176.892 126.62 173.25 126.889C181.464 123.631 182.68 110.33 182.68 110.33C172.361 112.185 168.697 115.014 167.555 116.225C171.215 111.176 170.275 101.313 170.275 101.313C161.622 107.663 159.329 113.47 159.329 113.47L160.25 138.836H179.923C179.923 138.836 178.129 137.812 175.565 136.498C182.744 134.364 187.451 131.541 187.451 131.541" fill="white"/>
</mask>
<g mask="url(#mask8_31_18836)">
<path d="M166.449 104.428L166.342 135.529C166.072 140.685 161.018 139.963 157.323 139.825L157.985 105.065L166.449 104.428Z" fill="#3E5409"/>
<path d="M160.866 117.474C165.95 113.861 170.166 102.046 170.132 101.272C170.178 101.092 170.475 101.165 170.417 101.353C170.016 104.202 164.282 116.811 160.866 117.474" fill="#3E5409"/>
<path d="M161.205 126.904C161.049 126.906 160.996 126.668 161.156 126.616C168.879 123.993 182.283 110.125 182.785 110.225C182.877 110.72 168.799 124.113 161.205 126.904Z" fill="#3E5409"/>
<path d="M161.205 132.904C161.052 132.909 160.995 132.67 161.152 132.618C169.428 129.699 187.359 131.099 187.599 131.555C187.265 131.942 169.433 129.72 161.205 132.904Z" fill="#3E5409"/>
</g>
<path d="M107.702 138.836H79.7523C79.7523 138.836 85.4347 136.187 88.8956 135.613C88.8956 135.613 79.2932 133.576 75.3921 127.285C75.3921 127.285 88.1477 124.05 91.4022 123.392C91.4022 123.392 83.9227 120.467 82.778 114.471H95.5577C95.5577 114.471 90.1338 107.804 90.0865 103.324C90.0865 103.324 97.5358 103.752 103.839 109.615L107.702 138.836" fill="#3875FF"/>
<path d="M105.093 110.916C105.093 110.916 100.535 105.229 90.4209 103.522C90.4209 103.522 92.704 112.681 98.444 114.471C98.444 114.471 91.3883 112.203 82.7782 114.471C82.7782 114.471 86.8442 122.827 98.2045 123.901C98.2045 123.901 83.1367 122.946 76.0815 127.005C76.0815 127.005 86.964 135.873 98.6826 135.796C98.6826 135.796 88.2787 136.342 83.3763 138.836H106.724L105.093 110.916" fill="#A7BD37"/>
<mask id="mask9_31_18836" style="mask-type:alpha" maskUnits="userSpaceOnUse" x="76" y="103" width="31" height="36">
<path d="M105.093 110.916C105.093 110.916 100.535 105.229 90.4199 103.522C90.4199 103.522 92.704 112.681 98.444 114.471C98.444 114.471 91.3883 112.203 82.7782 114.471C82.7782 114.471 86.8442 122.827 98.2045 123.901C98.2045 123.901 83.1367 122.946 76.0815 127.004C76.0815 127.004 86.964 135.873 98.6826 135.796C98.6826 135.796 88.2787 136.342 83.3763 138.836H106.724L105.093 110.916" fill="white"/>
</mask>
<g mask="url(#mask9_31_18836)">
<path d="M101.239 106.487L100.959 135.493C101.132 139.698 104.73 140.092 108.121 139.855L107.163 108.368L101.239 106.487Z" fill="#3E5409"/>
<path d="M104.234 114.174C97.523 111.418 90.1643 103.864 90.3213 103.413C90.8025 103.309 97.4254 111.282 104.29 113.888C104.438 113.939 104.395 114.181 104.234 114.174Z" fill="#3E5409"/>
<path d="M104.026 121.327C102.89 121.718 83.9201 115.56 82.6401 114.417C83.0121 114.103 99.0785 120.763 104.037 121.03C104.218 121.039 104.216 121.332 104.026 121.327" fill="#3E5409"/>
<path d="M102.927 132.105C94.0258 128.746 76.1945 127.437 75.934 126.991C75.777 126.755 95.4563 128.47 102.927 132.105Z" fill="#3E5409"/>
</g>
<path d="M236.377 21.7894L234.366 1.51683C234.274 0.592012 233.449 -0.0821427 232.522 0.008159L212.213 2.01816C211.287 2.10846 210.61 2.93363 210.702 3.85688L212.713 24.1302C212.806 25.0546 213.63 25.7298 214.557 25.6381L219.109 25.188L219.575 28.4689C219.703 29.3766 220.84 29.7143 221.445 29.0247L225.355 24.5701L234.866 23.6292C235.793 23.5377 236.469 22.7141 236.377 21.7894Z" fill="#E3EEFD"/>
<path d="M229.358 17.0005C229.478 16.7066 229.539 16.2058 229.547 15.4981C229.486 14.5752 229.648 13.7473 228.804 13.691C227.695 13.8969 227.972 16.3611 228.18 17.1046C228.408 17.6982 229.171 17.5575 229.358 17.0005ZM232.081 16.8423C231.5 18.8218 229.2 19.9217 227.276 19.3498C225.214 18.7617 224.86 16.1035 225.475 14.3255C226.12 11.958 229.661 10.7688 231.41 12.4748C232.412 13.3608 232.571 15.4923 232.081 16.8423V16.8423ZM227.072 5.09534L229.077 4.88531L220.873 20.2972L218.907 20.5035L227.072 5.09534ZM219.768 11.184C219.953 10.5633 220.327 7.80929 219.214 7.88426C218.108 8.09045 218.377 10.5401 218.591 11.2977C218.819 11.8944 219.583 11.7503 219.768 11.184ZM221.769 12.3483C220.671 13.7752 217.801 14.2309 216.536 12.8979C215.197 11.6667 215.357 8.54638 216.585 7.23701C217.683 5.81128 220.553 5.35443 221.82 6.68818C223.159 7.91922 222.998 11.0396 221.769 12.3483" fill="#739BFD"/>
<path d="M91.82 132.757L90.008 128.791L85.0552 129.781L87.6332 134.831C89.4795 135.565 92.2287 136.145 91.82 132.757Z" fill="#FFB6A6"/>
<mask id="mask10_31_18836" style="mask-type:alpha" maskUnits="userSpaceOnUse" x="85" y="128" width="7" height="8">
<path d="M91.82 132.756L90.008 128.791L85.0552 129.781L87.6322 134.831C89.4795 135.565 92.2287 136.146 91.82 132.756Z" fill="white"/>
</mask>
<g mask="url(#mask10_31_18836)">
<path d="M92.3153 129.781L85.0553 132.757L83.1909 128.791L90.1037 127.908L92.3153 129.781Z" fill="#FF8370"/>
</g>
<path d="M87.2768 134.713C87.2768 134.713 90.1579 135.978 91.8199 132.757L99.2602 136.049C100.323 136.552 100.955 137.667 100.841 138.836C100.815 138.835 87.8587 138.661 87.8406 138.66C87.3805 138.642 86.8439 138.323 86.6164 137.907C86.2641 137.475 87.2345 135.185 87.2768 134.713Z" fill="#38385C"/>
<path d="M46.873 67.0025L46.2546 72.1179L38.6582 83.0403L43.3851 83.6704L50.7606 75.337L51.8208 67.0025H46.873Z" fill="#FFB6A6"/>
<mask id="mask11_31_18836" style="mask-type:alpha" maskUnits="userSpaceOnUse" x="38" y="67" width="14" height="17">
<path d="M46.873 67.0025L46.2546 72.1179L38.6582 83.0403L43.3851 83.6704L50.7606 75.337L51.8208 67.0025H46.873Z" fill="white"/>
</mask>
<g mask="url(#mask11_31_18836)">
<path d="M46.0791 67.6999L50.1365 69.6808L50.0214 66.2819L46.4521 66.2055L46.0791 67.6999Z" fill="#FF8370"/>
<path d="M49.4491 73.8586C49.249 74.1118 40.2051 83.179 40.2051 83.179C40.2051 83.179 48.9689 79.8233 49.4491 78.1861C49.9293 76.548 49.4491 73.8586 49.4491 73.8586Z" fill="#FF8370"/>
</g>
<path d="M50.1614 67.0024H46.0791L47.4987 58.266L50.9379 55.9485L50.1614 67.0024" fill="#F85C3D"/>
<path d="M52.5389 39.8001L49.9817 47.622C49.5203 49.0331 50.4506 50.5174 51.9238 50.7205L55.9816 51.2792L57.3143 57.869H63.7554L59.0125 39.8001H52.5389" fill="#FFB6A6"/>
<mask id="mask12_31_18836" style="mask-type:alpha" maskUnits="userSpaceOnUse" x="49" y="39" width="15" height="19">
<path d="M52.5389 39.8001L49.9817 47.622C49.5203 49.0331 50.4506 50.5174 51.9239 50.7205L55.9816 51.2792L57.3143 57.869H63.7554L59.0125 39.8001H52.5389" fill="white"/>
</mask>
<g mask="url(#mask12_31_18836)">
<path d="M49.8628 49.5476C49.8628 49.5476 53.0326 50.3687 56.6211 49.2009C56.6211 49.2009 55.8365 50.5617 56.0572 51.6531C56.278 52.7445 56.0572 51.6531 56.0572 51.6531C56.0572 51.6531 50.3611 51.5134 49.8628 49.5476Z" fill="#FF8370"/>
<path d="M50.9561 41.2141C50.9561 41.2141 51.7667 44.3849 57.9569 44.1417C64.147 43.8985 57.9569 44.1417 57.9569 44.1417L52.8515 39.0665L50.9561 41.2141Z" fill="#FF8370"/>
</g>
<path d="M52.8178 39.8001C52.8178 39.8001 55.6643 43.7699 57.9569 44.1417L58.4069 42.7086C58.4069 42.7086 60.1759 44.1628 58.7128 45.7457C58.7128 45.7457 59.3035 47.9758 61.3514 48.7104C61.5716 47.2693 64.6414 37.1972 61.0391 35.1801L61.282 36.7741C60.6125 35.346 57.4273 34.6073 54.2093 34.5761L55.4851 35.4575C53.013 34.8033 48.765 36.1218 49.0981 39.8001L50.7296 38.16C50.7296 38.16 49.6535 39.9278 50.556 42.2141C50.556 42.2141 52.5456 40.8855 52.8178 39.8001Z" fill="#38385C"/>
<path d="M49.1459 84.1578L42.0512 103.562C40.3422 104.382 50.4098 128.337 50.5578 129.781H57.2638L54.2039 104.95L58.4556 96.8248L73.0593 112.712L84.3083 130.566L91.5724 129.061L83.5915 107.714L69.088 84.1678L49.1459 84.1578" fill="#38385C"/>
<path d="M58.5538 84.1628C58.5538 84.1628 53.5682 91.6671 45.8228 93.247C45.8228 93.247 58.1695 93.4118 61.6743 84.1578L58.5538 84.1628Z" fill="#1A1A35"/>
<path d="M47.4985 84.1759H69.9275L67.342 57.9173C66.5764 52.033 61.1422 52.2008 56.5107 52.3908C53.3818 52.3908 50.7537 54.7405 50.4104 57.8449L47.4985 84.1759Z" fill="#F85C3D"/>
<path d="M53.9997 88.7618C63.8451 80.8163 65.1816 65.1292 56.8215 55.639L44.54 41.1007L35.3573 48.8291C41.2752 57.0008 58.109 69.1341 46.2562 79.5952C33.9381 89.4964 24.7628 70.8577 17.7173 63.677L8.53467 71.4064L20.8165 85.9448C28.776 95.7727 44.4921 97.1063 53.9997 88.7618Z" fill="#38385C"/>
<mask id="mask13_31_18836" style="mask-type:alpha" maskUnits="userSpaceOnUse" x="8" y="41" width="55" height="54">
<path d="M53.9999 88.7618C63.8452 80.8162 65.1816 65.1292 56.8216 55.639L44.54 41.1006L35.3574 48.8291C41.2753 57.0007 58.1091 69.1341 46.2562 79.5951C33.9381 89.4964 24.7629 70.8577 17.7174 63.677L8.53467 71.4064L20.8166 85.9447C28.7761 95.7716 44.4922 97.1063 53.9999 88.7618Z" fill="white"/>
</mask>
<g mask="url(#mask13_31_18836)">
<path d="M37.977 46.6241L51.3172 62.8558C51.3172 62.8558 58.0931 71.7933 48.6551 81.8182C48.6551 81.8182 43.3091 87.7356 34.0112 84.3548C29.4659 83.385 18.5782 68.7602 15.2495 65.7543C15.2495 65.7543 34.4378 48.0271 37.977 46.6241" fill="#1A1A35"/>
</g>
<path d="M35.3574 48.8291L44.5401 41.1007L39.5963 35.2485L30.4136 42.977L35.3574 48.8291Z" fill="#F85C3D"/>
<mask id="mask14_31_18836" style="mask-type:alpha" maskUnits="userSpaceOnUse" x="30" y="35" width="15" height="14">
<path d="M35.3574 48.8291L44.54 41.1007L39.5963 35.2485L30.4136 42.977L35.3574 48.8291Z" fill="white"/>
</mask>
<g mask="url(#mask14_31_18836)">
<path d="M37.9773 46.6241L33.0327 40.773L30.4136 42.977L35.3574 48.8291L37.9773 46.6241" fill="#DF4930"/>
</g>
<path d="M8.53466 71.4064L17.7173 63.6769L12.7734 57.8248L3.59082 65.5543L8.53466 71.4064Z" fill="#F85C3D"/>
<mask id="mask15_31_18836" style="mask-type:alpha" maskUnits="userSpaceOnUse" x="3" y="57" width="15" height="15">
<path d="M8.53456 71.4064L17.7173 63.6769L12.7735 57.8248L3.59082 65.5543L8.53456 71.4064Z" fill="white"/>
</mask>
<g mask="url(#mask15_31_18836)">
<path d="M15.2498 65.7543L10.2471 59.9514L12.7736 57.8248L17.7174 63.6769L15.2498 65.7543Z" fill="#DF4930"/>
</g>
<path d="M65.9717 54.6219L75.7318 68.2829L67.2142 73.8586L65.9717 54.6219Z" fill="#F85C3D"/>
<path d="M51.0919 82.9397C51.0152 82.6191 55.216 81.0614 55.216 81.0614L73.0511 70.0375C74.1688 71.9933 76.3789 74.5379 75.0485 76.6514C74.5541 77.6383 73.708 78.4042 72.6763 78.8001L57.5188 84.5558C55.0809 87.2069 54.9328 88.4471 51.0963 86.6974C51.0086 86.5658 52.2382 84.9065 53.3764 83.4221C52.2174 83.5678 51.1568 83.2121 51.0919 82.9397" fill="#FFB6A6"/>
<mask id="mask16_31_18836" style="mask-type:alpha" maskUnits="userSpaceOnUse" x="51" y="70" width="25" height="18">
<path d="M51.0919 82.9397C51.0152 82.6191 55.216 81.0614 55.216 81.0614L73.0511 70.0375C74.1688 71.9933 76.3789 74.5379 75.0484 76.6514C74.5541 77.6383 73.708 78.4042 72.6763 78.8001L57.5188 84.5558C55.0809 87.2069 54.9328 88.4471 51.0963 86.6974C51.0086 86.5658 52.2382 84.9065 53.3764 83.4221C52.2174 83.5678 51.1568 83.2121 51.0919 82.9397" fill="white"/>
</mask>
<g mask="url(#mask16_31_18836)">
<path d="M66.6089 73.8585C66.6089 73.8585 73.7834 73.2364 74.3662 71.5742L72.5764 68.9571L66.6089 73.8585" fill="#FF8370"/>
</g>
<path d="M66.7693 73.9209L60.7417 62.1765C60.7417 62.1765 63.7629 68.8447 61.4866 77.1852L66.7693 73.9209Z" fill="#DF4930"/>
<path d="M56.5387 134.713L55.5689 129.781H51.0151L52.2712 133.728C52.2712 133.728 54.3608 136.072 56.5387 134.713" fill="#FFB6A6"/>
<mask id="mask17_31_18836" style="mask-type:alpha" maskUnits="userSpaceOnUse" x="51" y="129" width="6" height="7">
<path d="M56.5388 134.713L55.569 129.781H51.0151L52.2713 133.728C52.2713 133.728 54.3609 136.072 56.5388 134.713Z" fill="white"/>
</mask>
<g mask="url(#mask17_31_18836)">
<path d="M56.5389 131.975L50.9388 130.754L50.5757 129.418L55.9843 129.246L56.5389 131.975Z" fill="#FF8370"/>
</g>
<path d="M56.5389 134.713C56.5389 134.713 53.6577 135.978 51.9957 132.757L44.5555 136.049C43.4927 136.552 42.8603 137.667 42.9747 138.836L55.9505 138.661C56.4071 138.655 56.95 138.339 57.1865 137.93C57.5604 137.485 56.5861 135.201 56.5389 134.713" fill="#38385C"/>
<path d="M24.3164 22.6729C24.4533 30.6777 36.3823 30.6767 36.5181 22.6729C36.3812 14.6681 24.4522 14.6691 24.3164 22.6729Z" fill="#E3EEFD"/>
<mask id="mask18_31_18836" style="mask-type:alpha" maskUnits="userSpaceOnUse" x="24" y="16" width="13" height="13">
<path d="M24.3164 22.6729C24.4533 30.6777 36.3823 30.6767 36.5182 22.6729C36.3812 14.6681 24.4522 14.6691 24.3164 22.6729" fill="white"/>
</mask>
<g mask="url(#mask18_31_18836)">
<path d="M28.398 23.0286C26.7142 21.3824 28.0206 18.2428 30.4172 18.3262C32.8129 18.2428 34.1207 21.3824 32.4361 23.0286C37.965 25.0909 36.4166 33.7118 30.4168 33.6284C24.4178 33.7118 22.8687 25.0889 28.398 23.0286Z" fill="#739BFD"/>
</g>
<path d="M23.9049 42.7417C26.1833 49.5416 36.3713 46.3316 34.3261 39.4584C32.0478 32.6586 21.8597 35.8695 23.9049 42.7417Z" fill="#E3EEFD"/>
<mask id="mask19_31_18836" style="mask-type:alpha" maskUnits="userSpaceOnUse" x="23" y="35" width="12" height="12">
<path d="M23.9049 42.7417C26.1834 49.5416 36.3713 46.3316 34.3261 39.4584C32.0477 32.6586 21.8597 35.8695 23.9049 42.7417Z" fill="white"/>
</mask>
<g mask="url(#mask19_31_18836)">
<path d="M27.4873 41.9468C25.6046 40.9941 25.8728 37.961 27.9421 37.3871C29.9659 36.6716 31.9305 39.0022 30.9361 40.8604C36.2151 41.1348 37.2205 48.9145 32.0736 50.4572C26.9723 52.1425 23.3213 45.195 27.4873 41.9468Z" fill="#739BFD"/>
</g>
<path d="M1.69189 59.4951C1.78592 64.9945 9.98059 64.9935 10.0739 59.4951C9.97978 53.9958 1.78511 53.9968 1.69189 59.4951Z" fill="#E3EEFD"/>
<mask id="mask20_31_18836" style="mask-type:alpha" maskUnits="userSpaceOnUse" x="1" y="55" width="10" height="9">
<path d="M1.69141 59.4951C1.78553 64.9945 9.9802 64.9935 10.0735 59.4951C9.9795 53.9958 1.78472 53.9968 1.69141 59.4951" fill="white"/>
</mask>
<g mask="url(#mask20_31_18836)">
<path d="M4.49559 59.7393C3.33893 58.6087 4.23637 56.452 5.88267 56.5093C7.52847 56.452 8.42682 58.6087 7.26956 59.7393C11.0677 61.1554 10.0041 67.0788 5.88237 67.0216C1.76138 67.0778 0.697231 61.1554 4.49559 59.7393" fill="#739BFD"/>
</g>
<path d="M0.287732 43.4282C3.26173 54.0641 19.1829 49.9185 16.5732 39.1881C13.5993 28.5522 -2.32185 32.6978 0.287732 43.4282" fill="#E3EEFD"/>
<mask id="mask21_31_18836" style="mask-type:alpha" maskUnits="userSpaceOnUse" x="0" y="32" width="17" height="18">
<path d="M0.287732 43.4282C3.26173 54.0641 19.1829 49.9185 16.5732 39.1881C13.5993 28.5522 -2.32185 32.6978 0.287732 43.4282" fill="white"/>
</mask>
<g mask="url(#mask21_31_18836)">
<path d="M5.85966 42.4845C3.03828 40.8725 3.68728 36.2284 6.91495 35.5068C10.0836 34.5631 12.9238 38.2997 11.2493 41.0815C19.3477 41.9127 20.2874 53.9576 12.2504 55.9314C4.27245 58.1263 -0.80165 47.1557 5.85966 42.4845" fill="#739BFD"/>
</g>
<path d="M158.089 26.8253H138.145C137.445 26.8253 136.876 26.258 136.876 25.5585V6.8823C136.876 6.1838 137.445 5.61653 138.145 5.61653H158.089C158.789 5.61653 159.357 6.1838 159.357 6.8823V25.5585C159.357 26.258 158.789 26.8253 158.089 26.8253Z" fill="#E3EEFD"/>
<path d="M143.087 11.7564C143.087 11.7564 144.197 17.2369 151.539 16.3128L155.494 19.2883C155.942 19.6066 156.085 20.1613 156.042 20.6851H148.401C147.726 20.6851 147.081 20.4093 146.615 19.9207L143.087 16.2213V20.6851H141.669C141.669 20.6851 141.975 17.1751 140.896 15.8827C140.896 15.8827 140.373 13.9122 143.087 11.7564Z" fill="#739BFD"/>
<path d="M185.412 84.0405C185.365 86.8073 181.242 86.8073 181.195 84.0395C181.242 81.2728 185.366 81.2728 185.412 84.0405Z" fill="#D1DAF7"/>
<path d="M175.769 49.2045C175.763 50.7573 173.397 50.7571 173.39 49.2045C173.397 47.6518 175.763 47.6519 175.769 49.2045Z" fill="#D1DAF7"/>
<path d="M243.588 100.211C243.52 104.177 237.609 104.176 237.542 100.211C237.609 96.245 243.52 96.245 243.588 100.211Z" fill="#D1DAF7"/>
<path d="M93.3621 57.3474C93.3541 59.1765 90.5676 59.1765 90.5596 57.3474C90.5676 55.5183 93.3541 55.5183 93.3621 57.3474Z" fill="#D1DAF7"/>
<path d="M69.3863 29.6888C69.3479 31.9289 66.0097 31.9289 65.9717 29.6888C66.01 27.4486 69.3482 27.4496 69.3863 29.6888Z" fill="#D1DAF7"/>
<path d="M37.7639 120.171C37.6924 124.348 31.4688 124.347 31.3979 120.171C31.4694 115.995 37.693 115.996 37.7639 120.171Z" fill="#D1DAF7"/>
<path d="M106.723 138.836H160.251C162.347 138.836 164.048 137.139 164.048 135.044V34.2821C164.048 32.1889 162.347 30.4911 160.251 30.4911H106.723C104.626 30.4911 102.926 32.1889 102.926 34.2821V135.044C102.926 137.139 104.626 138.836 106.723 138.836Z" fill="#38385C"/>
<path d="M159.273 130.868H107.702V38.4581H159.273V130.868Z" fill="#B9D4FD"/>
<mask id="mask22_31_18836" style="mask-type:alpha" maskUnits="userSpaceOnUse" x="107" y="38" width="53" height="93">
<path d="M107.702 130.868H159.273V38.4583H107.702V130.868Z" fill="white"/>
</mask>
<g mask="url(#mask22_31_18836)">
<path d="M122.214 70.8887H112.805C111.964 70.8887 111.283 70.2084 111.283 69.3702V59.9774C111.283 59.1383 111.964 58.4589 112.805 58.4589H122.214C123.055 58.4589 123.736 59.1383 123.736 59.9774V69.3702C123.736 70.2084 123.055 70.8887 122.214 70.8887Z" fill="#E3EEFD"/>
<path d="M138.192 70.8887H128.783C127.942 70.8887 127.261 70.2084 127.261 69.3702V59.9774C127.261 59.1383 127.942 58.4589 128.783 58.4589H138.192C139.033 58.4589 139.714 59.1383 139.714 59.9774V69.3702C139.714 70.2084 139.033 70.8887 138.192 70.8887Z" fill="#E3EEFD"/>
<path d="M154.17 70.8887H144.76C143.919 70.8887 143.239 70.2083 143.239 69.3701V59.9776C143.239 59.1385 143.919 58.4583 144.76 58.4583H154.17C155.009 58.4583 155.691 59.1385 155.691 59.9776V69.3701C155.691 70.2083 155.009 70.8887 154.17 70.8887Z" fill="#E3EEFD"/>
<path d="M122.214 88.4954H112.805C111.964 88.4954 111.283 87.815 111.283 86.9768V77.5841C111.283 76.7449 111.964 76.0655 112.805 76.0655H122.214C123.055 76.0655 123.736 76.7449 123.736 77.5841V86.9768C123.736 87.815 123.055 88.4954 122.214 88.4954" fill="#E3EEFD"/>
<path d="M138.192 88.4954H128.783C127.942 88.4954 127.261 87.815 127.261 86.9768V77.5841C127.261 76.7449 127.942 76.0655 128.783 76.0655H138.192C139.033 76.0655 139.714 76.7449 139.714 77.5841V86.9768C139.714 87.815 139.033 88.4954 138.192 88.4954" fill="#E3EEFD"/>
<path d="M154.17 88.4954H144.76C143.919 88.4954 143.239 87.8149 143.239 86.9768V77.5841C143.239 76.7448 143.919 76.0655 144.76 76.0655H154.17C155.009 76.0655 155.691 76.7448 155.691 77.5841V86.9768C155.691 87.8149 155.009 88.4954 154.17 88.4954Z" fill="#E3EEFD"/>
<path d="M122.214 106.102H112.805C111.964 106.102 111.283 105.423 111.283 104.583V95.1906C111.283 94.3525 111.964 93.6721 112.805 93.6721H122.214C123.055 93.6721 123.736 94.3525 123.736 95.1906V104.583C123.736 105.423 123.055 106.102 122.214 106.102Z" fill="#E3EEFD"/>
<path d="M138.192 106.102H128.783C127.942 106.102 127.261 105.423 127.261 104.583V95.1906C127.261 94.3525 127.942 93.6721 128.783 93.6721H138.192C139.033 93.6721 139.714 94.3525 139.714 95.1906V104.583C139.714 105.423 139.033 106.102 138.192 106.102Z" fill="#E3EEFD"/>
<path d="M154.17 106.102H144.76C143.919 106.102 143.239 105.422 143.239 104.583V95.1906C143.239 94.3525 143.919 93.672 144.76 93.672H154.17C155.009 93.672 155.691 94.3525 155.691 95.1906V104.583C155.691 105.422 155.009 106.102 154.17 106.102Z" fill="#E3EEFD"/>
</g>
<mask id="mask23_31_18836" style="mask-type:alpha" maskUnits="userSpaceOnUse" x="107" y="61" width="53" height="70">
<path d="M159.273 130.868H107.702V112.237L113.9 106.102H122.214C123.055 106.102 123.736 105.423 123.736 104.583V96.3665L131.689 88.4954H138.192C139.033 88.4954 139.714 87.815 139.714 86.9768V80.5528L143.398 76.9067C143.296 77.1107 143.238 77.3409 143.238 77.5841V86.9768C143.238 87.815 143.919 88.4954 144.76 88.4954H154.17C155.009 88.4954 155.691 87.815 155.691 86.9768V77.5841C155.691 76.7449 155.009 76.0655 154.17 76.0655H144.76C144.52 76.0655 144.293 76.1208 144.092 76.2183L149.477 70.8888H154.17C155.009 70.8888 155.691 70.2084 155.691 69.3702V64.7382L159.273 61.1935V130.868M144.76 93.6721C143.919 93.6721 143.238 94.3525 143.238 95.1907V104.583C143.238 105.423 143.919 106.102 144.76 106.102H154.17C155.009 106.102 155.691 105.423 155.691 104.583V95.1907C155.691 94.3525 155.009 93.6721 154.17 93.6721H144.76ZM128.783 93.6721C127.942 93.6721 127.261 94.3525 127.261 95.1907V104.583C127.261 105.423 127.942 106.102 128.783 106.102H138.192C139.033 106.102 139.714 105.423 139.714 104.583V95.1907C139.714 94.3525 139.033 93.6721 138.192 93.6721H128.783Z" fill="white"/>
</mask>
<g mask="url(#mask23_31_18836)">
<path d="M107.702 61.1933H159.273V130.868H107.702" fill="#C7DDFD"/>
</g>
<mask id="mask24_31_18836" style="mask-type:alpha" maskUnits="userSpaceOnUse" x="107" y="38" width="53" height="93">
<path d="M107.702 130.868H159.273V38.4583H107.702V130.868Z" fill="white"/>
</mask>
<g mask="url(#mask24_31_18836)">
<path d="M154.17 70.8887H149.477L155.691 64.7381V69.3701C155.691 70.2083 155.009 70.8887 154.17 70.8887Z" fill="#E9F1FD"/>
<path d="M138.192 88.4954H131.689L139.714 80.5528V86.9768C139.714 87.815 139.033 88.4954 138.192 88.4954Z" fill="#E9F1FD"/>
<path d="M154.17 88.4954H144.76C143.919 88.4954 143.239 87.8149 143.239 86.9768V77.5841C143.239 77.3408 143.296 77.1107 143.397 76.9066L144.092 76.2182C144.293 76.1207 144.52 76.0655 144.76 76.0655H154.17C155.009 76.0655 155.691 76.7448 155.691 77.5841V86.9768C155.691 87.8149 155.009 88.4954 154.17 88.4954" fill="#E9F1FD"/>
<path d="M122.214 106.102H113.9L123.736 96.3665V104.583C123.736 105.423 123.055 106.102 122.214 106.102" fill="#E9F1FD"/>
<path d="M138.192 106.102H128.783C127.942 106.102 127.261 105.423 127.261 104.583V95.1906C127.261 94.3525 127.942 93.6721 128.783 93.6721H138.192C139.033 93.6721 139.714 94.3525 139.714 95.1906V104.583C139.714 105.423 139.033 106.102 138.192 106.102Z" fill="#E9F1FD"/>
<path d="M154.17 106.102H144.76C143.919 106.102 143.239 105.423 143.239 104.583V95.1907C143.239 94.3525 143.919 93.6721 144.76 93.6721H154.17C155.009 93.6721 155.691 94.3525 155.691 95.1907V104.583C155.691 105.423 155.009 106.102 154.17 106.102Z" fill="#E9F1FD"/>
<path d="M160.834 38.4589L110.294 40.7725L108.634 132.091H106.592L105.631 36.8847L160.834 38.4589Z" fill="#739BFD"/>
<path d="M106.353 48.9742C106.353 48.9742 112.578 51.226 116.306 47.5843C118.048 50.4638 123.482 49.6301 124.91 47.1951C126.61 49.9879 131.771 50.0248 133.486 47.2395C135.191 50.0985 140.492 49.6843 142.119 47.1496C144.322 50.0475 148.802 49.6269 150.725 46.7874C153.635 50.4096 158.715 48.6826 160.183 44.9801V41.14H105.822L106.353 48.9742" fill="#739BFD"/>
</g>
<path d="M138.028 35.3169H128.272C127.803 35.3169 127.424 34.937 127.424 34.4687C127.424 34.0004 127.803 33.6215 128.272 33.6215H138.028C138.497 33.6215 138.878 34.0004 138.878 34.4687C138.878 34.937 138.497 35.3169 138.028 35.3169Z" fill="white"/>
<path d="M112.004 47.5839C106.869 47.3959 107.705 42.0342 107.702 38.4554C107.675 37.6002 108.548 36.9027 109.238 36.951C109.376 36.951 116.307 36.951 116.307 36.951C116.131 40.6132 117.645 47.4703 112.004 47.5839" fill="#F85C3D"/>
<path d="M120.609 47.5839C114.968 47.4733 116.482 40.6041 116.307 36.951H124.911C124.735 40.6132 126.25 47.4703 120.609 47.5839" fill="white"/>
<path d="M129.214 47.5839C123.572 47.4733 125.087 40.6041 124.911 36.951H133.516C133.34 40.6132 134.855 47.4703 129.214 47.5839Z" fill="#F85C3D"/>
<path d="M137.818 47.5839C132.177 47.4733 133.691 40.6041 133.516 36.951H142.12C141.944 40.6132 143.459 47.4703 137.818 47.5839" fill="white"/>
<path d="M146.423 47.5829C140.783 47.4726 142.297 40.6037 142.121 36.9503H150.726C150.55 40.6131 152.065 47.4695 146.423 47.5829Z" fill="#F85C3D"/>
<path d="M155.028 47.5837C149.386 47.4737 150.899 40.6045 150.725 36.9515H157.795C158.642 36.9515 159.328 37.6368 159.328 38.4822C159.33 42.0524 160.149 47.3996 155.028 47.5837Z" fill="white"/>
<path d="M154.579 125.3H135.817C135.309 125.3 134.896 124.889 134.896 124.381V112.724C134.896 112.217 135.309 111.806 135.817 111.806H154.579C155.088 111.806 155.499 112.217 155.499 112.724V124.381C155.499 124.889 155.088 125.3 154.579 125.3Z" fill="#E3EEFD"/>
<path d="M145.161 116.685H143.368V117.979H145.161V116.685Z" fill="#A4C4FF"/>
<path d="M145.579 121.425H147.239V120.053H145.579V121.425Z" fill="#A4C4FF"/>
<path d="M145.161 118.396H143.368V119.636H145.161V118.396Z" fill="#A4C4FF"/>
<path d="M147.239 118.396H145.579V119.636H147.239V118.396Z" fill="#A4C4FF"/>
<path d="M147.656 117.979H149.614L149.897 116.685H147.656V117.979Z" fill="#A4C4FF"/>
<path d="M142.951 118.396H140.942L141.263 119.636H142.951V118.396Z" fill="#A4C4FF"/>
<path d="M142.951 121.425V120.053H141.37L141.725 121.425H142.951Z" fill="#A4C4FF"/>
<path d="M143.368 121.425H145.161V120.053H143.368V121.425Z" fill="#A4C4FF"/>
<path d="M142.95 121.842H141.833L142.125 122.972H142.95V121.842Z" fill="#A4C4FF"/>
<path d="M142.951 117.979V116.685H140.5L140.835 117.979H142.951Z" fill="#A4C4FF"/>
<path d="M147.656 121.843V122.972H148.526L148.772 121.843H147.656Z" fill="#A4C4FF"/>
<path d="M147.657 118.396V119.636H149.254L149.525 118.396H147.657Z" fill="#A4C4FF"/>
<path d="M145.161 122.972V121.842H143.368V122.972H145.161Z" fill="#A4C4FF"/>
<path d="M147.239 121.842H145.579V122.972H147.239V121.842Z" fill="#A4C4FF"/>
<path d="M149.162 120.054H147.656V121.425H148.862L149.162 120.054" fill="#A4C4FF"/>
<path d="M145.579 116.685V117.979H147.239V116.685H145.579Z" fill="#A4C4FF"/>
<path d="M148.115 116.173H147.72C147.948 113.148 146.768 113.688 144.404 113.646C142.983 113.686 143.124 115.158 143.149 116.173H142.753C142.53 112.946 143.84 113.228 146.465 113.25C148.177 113.341 148.181 114.851 148.115 116.173" fill="#A4C4FF"/>
<path d="M130.89 125.3H112.129C111.62 125.3 111.208 124.889 111.208 124.381V112.724C111.208 112.216 111.62 111.805 112.129 111.805H130.89C131.398 111.805 131.811 112.216 131.811 112.724V124.381C131.811 124.889 131.398 125.3 130.89 125.3Z" fill="#E3EEFD"/>
<path d="M116.849 121.591C117.818 121.676 117.478 120.404 117.535 119.84C117.555 119.191 117.293 118.955 116.674 119.03V121.581C116.747 121.588 116.805 121.591 116.849 121.591ZM116.674 117.655C117.215 117.706 117.439 117.598 117.421 117.009V116.124C117.453 115.639 117 115.692 116.674 115.699V117.655ZM114.95 123.142V114.338C116.687 114.45 119.325 113.669 119.179 116.349C119.211 117.133 119.123 118.036 118.277 118.244C119.759 118.563 119.468 122.041 118.538 122.787C117.951 123.386 115.737 123.065 114.95 123.142" fill="#A4C4FF"/>
<path d="M121.9 123.222C120.346 123.22 119.763 122.299 119.756 120.786V114.338H121.469C121.655 114.805 121.006 121.846 121.9 121.601C122.788 121.916 122.149 114.745 122.331 114.338H124.045V120.786C124.037 122.299 123.455 123.221 121.9 123.222" fill="#A4C4FF"/>
<path d="M125.789 123.142V120.245L124.381 114.338H126.13L126.622 117.319L127.112 114.338H128.856L127.453 120.245V123.142H125.789" fill="#A4C4FF"/>
<path d="M119.604 39.8615H91.3287C90.3361 39.8615 89.5308 39.0574 89.5308 38.0655V11.5878C89.5308 10.5969 90.3361 9.79285 91.3287 9.79285H119.604C120.596 9.79285 121.402 10.5969 121.402 11.5878V38.0655C121.402 39.0574 120.596 39.8615 119.604 39.8615Z" fill="#E3EEFD"/>
<path d="M117.118 18.1866L112.278 15.3968V15.3606H109.491C109.467 20.679 101.369 20.676 101.346 15.3606H98.5599V15.454L98.5055 15.3606L93.603 18.1866L96.7569 23.6398L98.5599 22.6006V33.6224H112.278V22.6679L113.964 23.6398L117.118 18.1866" fill="#739BFD"/>
</svg>
