<?xml version="1.0" encoding="utf-8"?>
<!-- Generator: Adobe Illustrator 17.0.0, SVG Export Plug-In . SVG Version: 6.00 Build 0)  -->
<!DOCTYPE svg PUBLIC "-//W3C//DTD SVG 1.1//EN" "http://www.w3.org/Graphics/SVG/1.1/DTD/svg11.dtd">
<svg version="1.1" xmlns="http://www.w3.org/2000/svg" xmlns:xlink="http://www.w3.org/1999/xlink" x="0px" y="0px" width="4000px"
	 height="2000px" viewBox="0 0 4000 2000" enable-background="new 0 0 4000 2000" xml:space="preserve">
<g id="BACKGROUND" display="none">
	<rect x="1582.162" y="473.05" display="inline" fill="#FFFFFF" width="750" height="500"/>
</g>
<g id="OBJECTS">
	<linearGradient id="SVGID_1_" gradientUnits="userSpaceOnUse" x1="405.9426" y1="1181.7173" x2="715.6093" y2="1181.7173">
		<stop  offset="0" style="stop-color:#281E82"/>
		<stop  offset="1" style="stop-color:#6BBDDE"/>
	</linearGradient>
	<path fill="#FFFFFF" stroke="url(#SVGID_1_)" stroke-width="4" stroke-miterlimit="10" d="M562.929,1355.82
		c-1.435,0-2.87,0-4.305,0c-40.015-7.294-78.382-20.867-117.688-30.864c-5.08-1.292-7.37-4.38-7.847-9.667
		c-3.943-43.757-7.716-87.531-11.761-131.277c-3.693-39.941-6.915-79.924-10.868-119.843c-1.173-11.845-1.148-23.819-1.792-35.728
		c-0.101-1.863,0.539-3.839-0.725-5.554c0-4.305,0-8.61,0-12.915c2.753-2.468,6.175-2.322,9.505-2.324
		c95.084-0.044,190.168-0.054,285.252,0.02c3.979,0.003,8.313-0.524,10.91,3.739c0,2.392,0,4.784,0,7.175
		c-1.729,11.075-1.346,22.287-2.082,33.427c-1.276,19.31-3.437,38.534-5.003,57.814c-1.991,24.518-4.392,49.003-6.563,73.507
		c-2.635,29.738-5.246,59.479-8.043,89.203c-1.275,13.553-2.533,27.114-3.394,40.697c-0.383,6.05-2.744,10.062-8.593,11.673
		c-35.257,9.713-70.324,20.119-105.823,28.947C570.422,1354.766,566.543,1354.534,562.929,1355.82z"/>
	<path fill="#D6F1F8" d="M551.448,925.304c0.113,17.925,0.12,35.851,0.419,53.772c0.068,4.081-1.692,4.66-5.14,4.617
		c-12.193-0.152-24.391-0.174-36.583,0.011c-3.625,0.055-5.174-0.855-4.986-4.764c0.287-5.964,0.209-11.956,0.023-17.928
		c-0.097-3.123,0.984-4.266,4.112-4.054c3.332,0.226,6.695,0.139,10.039,0.025c3.084-0.105,5.774-0.157,5.215,4.292
		c-0.441,3.508,2.357,2.704,4.383,2.912c2.88,0.295,3.645-1.024,3.639-3.75c-0.026-11.711,0.132-23.422,0.222-35.132
		C539.011,925.304,545.229,925.304,551.448,925.304z"/>
	<linearGradient id="SVGID_2_" gradientUnits="userSpaceOnUse" x1="476.9372" y1="1179.9052" x2="552.8286" y2="1179.9052">
		<stop  offset="0" style="stop-color:#281E82"/>
		<stop  offset="1" style="stop-color:#6BBDDE"/>
	</linearGradient>
	<path fill="url(#SVGID_2_)" d="M552.664,1180.828c-0.001,32.987-0.207,65.976,0.162,98.959c0.08,7.179-1.875,7.71-8.084,5.862
		c-18.986-5.65-38.132-10.77-57.254-15.952c-3.559-0.965-5.799-2.2-6.118-6.485c-1.223-16.43-2.775-32.837-4.32-49.241
		c-0.379-4.027-0.057-6.811,5.076-4.832c0.434,0.167,0.943,0.133,1.416,0.205c17.401,2.644,17.536,2.632,19.059,20.038
		c0.314,3.589,1.852,4.822,4.936,5.789c18.758,5.882,18.496,5.948,17.713-13.646c-1.527-38.199-2.743-76.411-4.107-114.617
		c-0.341-9.55-0.641-19.105-1.187-28.644c-0.216-3.779,1.12-5.054,4.875-4.935c7.164,0.227,14.358,0.37,21.505-0.042
		c5.077-0.293,6.464,1.423,6.434,6.431C552.568,1113.42,552.665,1147.125,552.664,1180.828z"/>
	<path fill="#D6F1F8" d="M568.876,926.765c15.647,0,31.294,0,46.942,0c0.089,1.425,0.245,2.849,0.256,4.274
		c0.113,14.301,0.106,14.301-14.946,15.169c4.364,5.662,8.209,10.896,12.314,15.918c5.055,6.184,1.977,13.265,2.352,19.93
		c0.128,2.279-2.58,1.527-4.077,1.535c-12.416,0.068-24.833-0.049-37.247,0.102c-3.29,0.04-4.476-0.794-4.64-4.353
		c-0.63-13.655-0.784-13.647,14.568-15.346C577.721,952.088,564.808,942.842,568.876,926.765z"/>
	<linearGradient id="SVGID_3_" gradientUnits="userSpaceOnUse" x1="567.2678" y1="1180.1489" x2="656.1161" y2="1180.1489">
		<stop  offset="0" style="stop-color:#281E82"/>
		<stop  offset="1" style="stop-color:#6BBDDE"/>
	</linearGradient>
	<path fill="url(#SVGID_3_)" d="M567.413,1131.128c-0.001-17.215,0.151-34.432-0.102-51.643c-0.068-4.616,1.107-6.223,5.946-6.183
		c25.821,0.215,51.645,0.205,77.465,0.006c4.575-0.035,5.822,1.375,5.271,5.774c-1.067,8.528-2.024,17.092-2.433,25.67
		c-0.213,4.47-1.901,5.567-6.074,5.556c-13.387-0.036-26.776,0.449-40.163,0.402c-4.323-0.015-5.78,1.359-5.826,5.723
		c-0.097,9.313-0.511,18.641-1.281,27.922c-0.411,4.956,0.878,6.676,6.097,6.522c12.422-0.368,24.866,0.048,37.293-0.208
		c4.432-0.091,5.818,1.193,5.392,5.694c-3.392,35.907-6.654,71.826-9.773,107.758c-0.289,3.332-1.846,4.512-4.615,5.273
		c-20.72,5.694-41.439,11.391-62.129,17.192c-3.737,1.048-5.21,0.204-5.132-3.895c0.19-10.038,0.22-20.087-0.018-30.123
		c-0.088-3.727,1.637-4.935,4.825-5.704c11.372-2.743,22.65-5.902,34.073-8.401c4.315-0.944,5.743-2.787,6.043-7.096
		c0.929-13.339,2.244-26.655,3.623-39.957c0.434-4.192-0.974-5.449-5.096-5.116c-12.143,0.983-24.334,1.436-36.456,2.607
		c-5.15,0.497-7.204-0.282-7.07-6.131C567.667,1165.564,567.414,1148.343,567.413,1131.128z"/>
	<linearGradient id="SVGID_4_" gradientUnits="userSpaceOnUse" x1="2949.3367" y1="378.624" x2="3218.7097" y2="378.624">
		<stop  offset="0" style="stop-color:#281E82"/>
		<stop  offset="1" style="stop-color:#6BBDDE"/>
	</linearGradient>
	<path fill="#FFFFFF" stroke="url(#SVGID_4_)" stroke-width="4" stroke-miterlimit="10" d="M2951.337,231.925
		c0-1.091,0-2.182,0-3.273c0.538-0.484,1.203-0.527,1.875-0.544c0.667-0.016,1.333-0.01,2-0.01
		c85.701,0,171.403-0.003,257.104,0.008c4.737,0.001,4.635-0.484,4.2,4.817c-0.763,9.294-1.613,18.582-2.456,27.869
		c-0.674,7.418-1.332,14.838-1.997,22.256c-0.671,7.479-1.319,14.96-1.968,22.441c-0.649,7.481-1.372,14.956-2.006,22.437
		c-0.644,7.602-1.364,15.198-2.023,22.799c-0.612,7.058-1.276,14.113-1.937,21.167c-0.711,7.596-1.402,15.194-2.049,22.796
		c-0.503,5.913-1.052,11.822-1.558,17.734c-0.562,6.576-1.138,13.15-1.714,19.725c-0.639,7.299-1.269,14.599-1.946,21.895
		c-0.689,7.416-1.312,14.838-2.011,22.253c-0.654,6.933-1.343,13.863-1.882,20.807c-0.127,1.631-1.165,2.219-2.574,2.602
		c-6.901,1.874-13.789,3.796-20.664,5.764c-16.022,4.585-32.103,8.965-48.13,13.536c-11.423,3.257-22.902,6.317-34.313,9.619
		c-2.57,0.744-5.119,0.689-7.69-0.051c-25.918-7.456-51.912-14.645-77.849-22.035c-7.868-2.242-15.734-4.492-23.635-6.616
		c-3.05-0.82-3.072-0.889-3.381-4.032c-1.294-13.139-2.438-26.292-3.637-39.44c-1.458-15.981-2.769-31.975-4.221-47.956
		c-1.294-14.233-2.514-28.473-3.799-42.707c-1.144-12.666-2.349-25.327-3.471-37.994c-1.037-11.701-2.08-23.402-3.073-35.107
		c-0.871-10.255-1.833-20.505-2.728-30.757c-0.858-9.824-2.07-19.626-2.284-29.501
		C2951.513,232.231,2951.424,232.082,2951.337,231.925z"/>
	<path fill="#D6F1F8" d="M3083.553,207.922c-7.697,0-15.395-0.025-23.091,0.027c-1.155,0.008-1.548-0.247-1.507-1.468
		c0.096-2.906,0.108-5.82,0.001-8.725c-0.051-1.401,0.312-1.814,1.771-1.806c10.242,0.057,20.485-0.024,30.727,0.038
		c1.491,0.009,2.023-0.324,1.908-1.853c-0.144-1.91,0.854-4.4-0.323-5.575c-0.926-0.924-3.444-0.281-5.254-0.284
		c-9.091-0.016-18.183-0.044-27.273,0.012c-1.292,0.008-1.587-0.347-1.578-1.603c0.064-9.151,0.078-18.304,0.024-27.455
		c-0.008-1.315,0.388-1.556,1.617-1.552c15.454,0.052,30.909,0.056,46.364,0.036c1.079-0.001,1.585,0.116,1.55,1.42
		c-0.102,3.876-0.092,7.758-0.007,11.635c0.027,1.244-0.393,1.472-1.534,1.471c-10.909-0.01-21.818,0.062-32.727,0.039
		c-1.357-0.003-1.851,0.247-1.811,1.741c0.106,4.02,0.027,4.022,4.04,4.053c10.12,0.077,20.24,0.176,30.36,0.204
		c1.232,0.003,1.641,0.274,1.634,1.582c-0.046,8.848-0.038,17.698,0.045,26.546c0.013,1.38-0.491,1.522-1.662,1.514
		c-7.758-0.049-15.516-0.025-23.273-0.025C3083.553,207.903,3083.553,207.913,3083.553,207.922z"/>
	<path fill="#D6F1F8" d="M3138.615,207.967c-7.755,0-15.51-0.026-23.264,0.028c-1.173,0.008-1.541-0.281-1.505-1.481
		c0.089-2.966,0.098-5.938,0.007-8.903c-0.041-1.322,0.438-1.563,1.656-1.559c10.298,0.036,20.596-0.03,30.894,0.027
		c1.446,0.008,1.876-0.39,1.764-1.789c-0.111-1.384-0.127-2.799,0.035-4.174c0.192-1.63-0.515-1.827-1.931-1.819
		c-10.178,0.059-20.356,0.003-30.534,0.065c-1.427,0.009-1.937-0.209-1.916-1.812c0.12-9.026,0.123-18.053,0.103-27.08
		c-0.003-1.243,0.146-1.769,1.624-1.763c15.449,0.064,30.898,0.053,46.347,0.013c1.169-0.003,1.528,0.274,1.502,1.479
		c-0.081,3.815-0.096,7.635,0.006,11.449c0.036,1.357-0.314,1.688-1.677,1.681c-10.905-0.052-21.81,0.011-32.715-0.033
		c-1.377-0.005-1.861,0.26-1.794,1.761c0.19,4.244,0.116,4.23,4.299,4.251c10.056,0.051,20.112,0.151,30.168,0.147
		c1.379-0.001,1.694,0.366,1.686,1.709c-0.054,8.724-0.052,17.448,0.036,26.172c0.014,1.421-0.409,1.656-1.709,1.645
		c-7.694-0.063-15.388-0.031-23.082-0.031C3138.615,207.956,3138.615,207.961,3138.615,207.967z"/>
	<path fill="#D6F1F8" d="M3004.382,182.759c0-7.816,0.029-15.632-0.03-23.447c-0.009-1.23,0.238-1.615,1.55-1.612
		c15.267,0.036,30.535,0.014,45.802-0.038c1.146-0.004,1.544,0.234,1.517,1.464c-0.089,4.057-0.106,8.119-0.019,12.176
		c0.029,1.366-0.351,1.7-1.708,1.693c-10.178-0.047-20.357,0.025-30.535-0.023c-1.349-0.006-1.695,0.307-1.691,1.67
		c0.021,6.3-0.047,12.602-0.182,18.901c-0.029,1.366,0.336,1.7,1.701,1.696c10.178-0.028,20.356,0.075,30.534,0.033
		c1.556-0.006,1.925,0.458,1.872,1.922c-0.114,3.147-0.097,6.3-0.046,9.45c0.017,1.045-0.326,1.3-1.337,1.298
		c-15.389-0.039-30.778-0.059-46.167-0.015c-1.337,0.004-1.262-0.632-1.26-1.54c0.016-7.876,0.01-15.753,0.01-23.629
		C3004.39,182.759,3004.386,182.759,3004.382,182.759z"/>
	<linearGradient id="SVGID_5_" gradientUnits="userSpaceOnUse" x1="2993.1042" y1="376.7011" x2="3171.4014" y2="376.7011">
		<stop  offset="0" style="stop-color:#281E82"/>
		<stop  offset="1" style="stop-color:#6BBDDE"/>
	</linearGradient>
	<path fill="url(#SVGID_5_)" d="M3169.572,282.075c-23.637,0.032-47.275-0.014-70.912-0.04h-0.001l0,0
		c-0.617-0.366-1.296-0.199-1.947-0.205c-4.22-0.042-8.44-0.063-12.661-0.09c-0.846,0.025-1.693,0.071-2.54,0.071
		c-28.72,0.004-57.44,0.026-86.16-0.048c-1.924-0.005-2.401,0.554-2.208,2.321c0.424,3.901,0.688,7.82,1.122,11.721
		c0.579,5.213,1.251,10.416,1.898,15.621c0.097,0.777,0.382,1.258,1.374,1.268c3.511,0.036,7.021,0.282,10.531,0.293
		c19.51,0.06,39.02,0.075,58.53,0.103c4.479,0.007,8.959,0.001,13.439,0.001c0.003,0.192,0.006,0.383,0.009,0.574
		c-0.754,0.355-1.5,0.729-2.263,1.06c-20.451,8.876-40.903,17.749-61.358,26.618c-4.588,1.989-9.205,3.915-13.761,5.974
		c-0.932,0.421-2.294,0.57-2.295,2.178c-0.003,4.909,0.494,9.783,0.949,14.659c0.517,5.529,1.192,11.044,1.606,16.579
		c0.112,1.499,0.569,1.797,1.922,1.768c6.419-0.136,12.84-0.232,19.26-0.264c12.784-0.063,25.568-0.086,38.352-0.105
		c7.209-0.011,14.418,0.019,21.627,0.031c0.709,0.605,1.576,0.548,2.416,0.55c7.612,0.013,15.224,0.014,22.836-0.002
		c0.835-0.002,1.709,0.079,2.414-0.544c-0.013-0.056-0.046-0.072-0.062-0.121c4.482,0.017,8.964,0.063,13.445,0.029
		c1.035-0.008,1.311,0.257,1.233,1.321c-0.429,5.914-0.773,11.835-1.149,17.753c-0.475,7.488-0.974,14.976-1.406,22.467
		c-0.061,1.063-0.357,1.546-1.451,1.862c-7.755,2.239-15.501,4.515-23.214,6.895c-5.03,1.552-10.215,2.66-14.976,5.018
		c-0.329-0.244-0.839-0.104-1.188-0.305c-0.424-0.019-0.857,0.012-1.27-0.066c-12.004-2.269-24.005-4.549-36.007-6.829
		c-1.535-0.292-3.34-0.239-4.474-1.209c-1.284-1.099-0.704-3.04-0.852-4.625c-0.596-6.375-1.288-12.744-1.713-19.131
		c-0.245-3.675,0.045-2.671-3.24-3.402c-0.349-0.078-0.725-0.045-1.088-0.044c-9.091,0.014-18.181,0.05-27.272,0.027
		c-1.222-0.003-1.653,0.249-1.596,1.612c0.283,6.83,0.875,13.633,1.456,20.442c0.796,9.323,1.881,18.605,3.27,27.857
		c0.171,1.139,0.584,1.462,1.598,1.728c18.74,4.915,37.448,9.958,56.285,14.494c5.202,1.253,10.29,2.983,15.614,3.723
		c0.254-0.141,0.508-0.282,0.762-0.422c0.473-0.079,0.956-0.12,1.418-0.241c12.189-3.184,24.379-6.366,36.563-9.571
		c11.016-2.898,22.019-5.847,33.045-8.704c1.239-0.321,1.828-0.808,1.895-2.104c0.103-1.991,0.353-3.974,0.528-5.962
		c0.52-5.902,1.019-11.806,1.555-17.707c0.552-6.08,1.167-12.154,1.703-18.236c0.547-6.204,1.027-12.414,1.543-18.62
		c0.576-6.931,1.202-13.857,1.726-20.792c0.452-5.973,0.664-11.967,1.253-17.925c0.189-1.908-0.405-2.185-1.932-2.182
		c-21.759,0.037-43.518-0.148-65.277-0.148c-0.815,0-1.63,0-2.445,0c0.563-2,1.222-0.962,1.897-1.285
		c15.093-7.221,30.623-13.371,45.868-20.249c7.318-3.302,14.669-6.49,22.056-9.635c2.167-0.923,2.883-2.402,2.997-4.596
		c0.178-3.441,0.537-6.861,0.836-10.295c0.55-6.325,1.09-12.645,1.688-18.965C3171.51,282.584,3171.183,282.073,3169.572,282.075z"
		/>
	<path fill="#D6F1F8" d="M3450.241,836.728c0.069,21.041,0.106,42.082,0.252,63.122c0.016,2.251-0.539,3.052-2.897,2.976
		c-5.256-0.17-10.528-0.199-15.781,0.007c-2.753,0.108-3.492-0.81-3.441-3.49c0.16-8.288,0.062-16.582,0.051-24.873
		c-0.001-0.903-0.087-1.807-0.195-3.906c-5.342,8.174-10.065,15.401-15.104,23.11c-5.004-7.629-9.826-14.98-15.476-23.594
		c0,10.474-0.224,19.478,0.107,28.461c0.139,3.772-1.096,4.534-4.514,4.305c-4.445-0.299-8.943-0.321-13.383,0.008
		c-3.357,0.248-3.884-1.082-3.866-4.041c0.114-19.452,0.067-38.906,0.038-58.359c-0.002-1.243-0.294-2.485-0.452-3.727
		c7.977,0,15.953,0,23.93,0c3.341,2.268,4.536,6.078,6.548,9.276c2.626,4.173,5.309,8.325,7.517,12.79
		c-0.119,0.578,0.643-0.336,0.051-0.098c-0.265,0.106-0.381-0.07-0.174-0.426c4.292-7.381,7.665-15.354,13.816-21.542
		C3434.926,836.728,3442.583,836.728,3450.241,836.728z"/>
	<path fill="#D6F1F8" d="M3296.134,836.728c-0.106,16.884-0.148,33.768-0.357,50.651c-0.063,5.045,2.193,11.795-0.97,14.64
		c-2.766,2.487-9.403,0.714-14.33,0.745c-6.677,0.042-6.677,0.01-6.677-6.742c0-3.667-0.202-7.348,0.061-10.996
		c0.229-3.178-0.474-4.635-4.06-4.344c-4.118,0.334-8.294,0.257-12.425,0.016c-2.85-0.166-3.926,0.518-3.753,3.606
		c0.284,5.086-0.05,10.203,0.13,15.299c0.089,2.523-0.714,3.311-3.226,3.225c-5.096-0.175-10.214-0.265-15.299,0.025
		c-3.239,0.185-3.954-0.923-3.932-3.993c0.134-18.971,0.075-37.943,0.053-56.915c-0.002-1.738-0.198-3.477-0.304-5.215
		c7.338,0,14.677,0,22.015,0c1.735,2.008,1.38,4.465,1.432,6.819c0.066,3.016,0.04,6.033,0.036,9.049
		c-0.004,3.099,1.277,4.741,4.537,4.691c3.015-0.046,6.034-0.046,9.049,0c3.26,0.05,4.535-1.593,4.537-4.691
		c0.002-3.334-0.02-6.668,0.036-10.002c0.035-2.058-0.081-4.164,1.431-5.867C3281.457,836.728,3288.795,836.728,3296.134,836.728z"
		/>
	<path fill="#D6F1F8" d="M3366.009,836.728c0.106,6.525,0.121,13.054,0.364,19.573c0.089,2.392-1.107,2.499-2.908,2.466
		c-4.146-0.076-8.31,0.196-12.438-0.094c-3.244-0.228-4.325,0.573-4.255,4.063c0.241,12.119,0.004,24.247,0.159,36.369
		c0.036,2.821-0.477,3.946-3.594,3.748c-4.767-0.302-9.58-0.298-14.347-0.004c-3.279,0.202-4.299-0.633-4.232-4.091
		c0.237-12.119-0.002-24.247,0.161-36.369c0.039-2.864-0.541-3.938-3.62-3.722c-4.286,0.3-8.614-0.048-12.914,0.125
		c-2.312,0.093-3.008-0.64-2.933-2.943c0.207-6.37,0.185-12.747,0.254-19.121C3325.807,836.728,3345.908,836.728,3366.009,836.728z"
		/>
	<path fill="#D6F1F8" d="M3483.743,836.728c-0.069,13.85-0.068,27.701-0.265,41.55c-0.039,2.73,1.359,2.631,3.25,2.62
		c8.123-0.047,16.248,0.074,24.368-0.074c2.616-0.048,3.662,0.588,3.544,3.399c-0.212,5.088-0.158,10.194-0.016,15.286
		c0.064,2.301-0.307,3.353-3.026,3.33c-15.767-0.134-31.535-0.09-47.303-0.034c-1.904,0.007-2.838-0.268-2.822-2.548
		c0.152-21.176,0.187-42.353,0.255-63.53C3469.066,836.728,3476.404,836.728,3483.743,836.728z"/>
	<path fill="#FDFDFD" d="M3427.269,836.728c-4.522,7.577-9.045,15.155-13.862,23.225c-4.89-7.934-9.844-15.301-13.897-23.225
		C3408.763,836.728,3418.016,836.728,3427.269,836.728z"/>
	<linearGradient id="SVGID_6_" gradientUnits="userSpaceOnUse" x1="3197.3635" y1="1129.7284" x2="3548.0886" y2="1129.7284">
		<stop  offset="0" style="stop-color:#281E82"/>
		<stop  offset="1" style="stop-color:#6BBDDE"/>
	</linearGradient>
	<path fill="#FFFFFF" stroke="url(#SVGID_6_)" stroke-width="4" stroke-miterlimit="10" d="M3373.002,933.11
		c55.983,0,111.967,0.045,167.95-0.091c4.126-0.01,5.493,0.762,5.061,5.198c-2.612,26.806-4.972,53.637-7.365,80.464
		c-2.393,26.827-4.698,53.662-7.09,80.49c-2.392,26.827-4.865,53.646-7.261,80.473c-2.381,26.668-4.714,53.341-7.06,80.013
		c-0.712,8.097-1.574,16.187-2.009,24.299c-0.187,3.485-2.296,3.962-4.857,4.668c-34.51,9.515-69.003,19.087-103.501,28.644
		c-10.425,2.888-20.86,5.738-31.268,8.686c-2.046,0.58-3.883,0.679-6.014,0.085c-44.903-12.523-89.82-24.997-134.782-37.307
		c-3.426-0.938-4.409-2.52-4.696-5.835c-3.364-38.9-6.896-77.786-10.338-116.679c-3.329-37.624-6.562-75.257-9.913-112.88
		c-3.337-37.463-6.771-74.917-10.162-112.375c-0.014-0.159-0.03-0.318-0.045-0.476c-0.702-7.374-0.702-7.374,6.834-7.374
		C3261.992,933.11,3317.497,933.11,3373.002,933.11z"/>
	<linearGradient id="SVGID_7_" gradientUnits="userSpaceOnUse" x1="3263.6799" y1="1128.2561" x2="3480.8625" y2="1128.2561">
		<stop  offset="0" style="stop-color:#281E82"/>
		<stop  offset="1" style="stop-color:#6BBDDE"/>
	</linearGradient>
	<path fill="url(#SVGID_7_)" d="M3480.863,1006.132c-2.631-1.671-5.543-0.733-8.298-0.745c-33.289-0.139-66.579-0.172-99.868-0.234
		c-1.906,0.083-3.812,0.238-5.718,0.238c-33,0.015-66,0.018-99-0.003c-2.479-0.001-4.661-0.404-4.246,3.557
		c1.492,14.255,2.654,28.545,3.963,42.819c2.443,26.645,5.019,53.279,7.228,79.943c0.339,4.088,1.295,5.364,5.511,5.326
		c22.955-0.21,45.913-0.126,68.869-0.085c7.801,0.014,15.602,0.194,23.403,0.298c1.818,1.654,4.088,1.569,6.303,1.574
		c13.807,0.034,27.615,0.046,41.422-0.009c2.003-0.008,4.079,0.112,5.782-1.298c-1.573,17.102-3.26,34.194-4.622,51.312
		c-0.273,3.423-1.372,4.983-4.705,5.834c-14.667,3.746-29.273,7.73-43.9,11.63c-0.079-0.09-0.159-0.18-0.238-0.27
		c-15.535-4.053-31.058-8.154-46.619-12.105c-2.167-0.551-2.133-1.856-2.278-3.502c-0.825-9.367-1.823-18.719-2.536-28.094
		c-0.207-2.714-0.823-3.889-3.883-3.841c-11.802,0.184-23.611,0.217-35.412-0.009c-3.709-0.071-4.585,1.031-4.244,4.634
		c1.862,19.674,3.61,39.361,5.119,59.065c0.305,3.98,2.179,5.187,5.627,6.14c27.455,7.586,54.859,15.355,82.278,23.068
		c0.638-0.063,1.277-0.125,1.915-0.188c8.621-1.571,16.907-4.416,25.335-6.714c19.802-5.4,39.578-10.899,59.347-16.422
		c1.965-0.549,4.299-0.466,4.443-3.842c0.3-6.998,1.173-13.971,1.804-20.955c2.106-23.332,4.251-46.661,6.297-69.999
		c1.14-13.009,2.111-26.032,3.159-39.048h-0.001l0,0c-1.325-1.806-3.232-0.844-4.821-0.85c-31.861-0.122-63.723-0.157-95.585-0.21
		c-2.045-1.679-4.511-1.37-6.874-1.377c-14.032-0.04-28.064,0.005-42.096-0.029c-6.649-0.016-7.407-0.735-7.838-7.261
		c-0.599-9.061-1.692-18.079-2.269-27.145c-0.403-6.326-0.414-6.58,5.828-6.599c15.308-0.048,30.616,0.007,45.923-0.036
		c2.515-0.007,5.153,0.382,7.33-1.442c1.748-0.061,3.495-0.175,5.243-0.175c31.376-0.011,62.753,0.007,94.13-0.049
		c1.639-0.003,3.504,0.79,4.943-0.763C3479.066,1034.297,3480.441,1020.258,3480.863,1006.132L3480.863,1006.132L3480.863,1006.132z
		"/>
	<linearGradient id="SVGID_8_" gradientUnits="userSpaceOnUse" x1="2291.0146" y1="1807.88" x2="3466.0103" y2="1807.88">
		<stop  offset="0" style="stop-color:#281E82"/>
		<stop  offset="1" style="stop-color:#6BBDDE"/>
	</linearGradient>
	<polygon fill="url(#SVGID_8_)" points="2291.015,1829.48 3048.426,1636.526 3466.01,1759.082 2751.797,1979.234 	"/>
	<polygon fill="#D6F1F8" points="2735.037,1765.764 3074.494,1679.287 3261.646,1734.213 2941.551,1832.881 	"/>
	<linearGradient id="SVGID_9_" gradientUnits="userSpaceOnUse" x1="1847.4819" y1="1800.6805" x2="3022.4773" y2="1800.6805">
		<stop  offset="0" style="stop-color:#281E82"/>
		<stop  offset="1" style="stop-color:#6BBDDE"/>
	</linearGradient>
	<polygon fill="url(#SVGID_9_)" points="1847.482,1822.28 2604.893,1629.327 3022.477,1751.882 2308.264,1972.034 	"/>
	<polygon fill="#D6F1F8" points="2305.677,1771.524 2645.133,1685.047 2832.286,1739.973 2512.19,1838.641 	"/>
	<path fill="#D6F1F8" d="M1219.695,1518.451c0,0-241.911,47.518-263.51-185.753c-21.599-233.271,332.628-185.753,215.992-419.024
		c-116.636-233.271-380.146-159.834-371.506-535.66c8.639-375.826,436.303-354.226,505.421-211.672
		c69.118,142.555,311.028,211.672,518.38,112.316c207.352-99.356,505.421-298.068,743.012-237.591
		c237.591,60.478,311.028,168.474,298.069,345.587c-12.959,177.113-82.077,371.506,73.437,496.781
		c155.514,125.276,293.749,414.704,0,578.858c0,0-95.036,55.482-155.514,60.14L1219.695,1518.451z"/>
	<rect x="1211.056" y="343.455" fill="#D6F1F8" width="1589.969" height="1176.464"/>
	<rect x="1211.056" y="343.455" fill="#1B1257" width="1589.969" height="62.722"/>
	<rect x="1211.056" y="406.178" fill="#1B1257" width="56.158" height="1113.741"/>
	<rect x="2735.958" y="406.178" fill="#1B1257" width="65.067" height="1113.741"/>
	<circle fill="#FFFFFF" cx="1244.354" cy="374.595" r="15.299"/>
	<circle fill="#FFFFFF" cx="1290.779" cy="374.595" r="15.299"/>
	<circle fill="#FFFFFF" cx="1337.419" cy="374.595" r="15.299"/>
	<rect x="1506.344" y="615.705" fill="#FFFFFF" width="982.043" height="645.096"/>
	<rect x="1267.213" y="406.178" fill="#FFFFFF" width="1468.745" height="55.353"/>
	<g>
		<linearGradient id="SVGID_10_" gradientUnits="userSpaceOnUse" x1="1441.8292" y1="215.48" x2="1552.9379" y2="215.48">
			<stop  offset="0" style="stop-color:#281E82"/>
			<stop  offset="1" style="stop-color:#6BBDDE"/>
		</linearGradient>
		<path fill="url(#SVGID_10_)" d="M1474.438,124.299h43.477c0,0-5.435,44.685,35.023,53.743l-49.516,128.62l-61.593-125.6
			C1441.829,181.061,1478.061,170.191,1474.438,124.299z"/>
		<linearGradient id="SVGID_11_" gradientUnits="userSpaceOnUse" x1="1474.4375" y1="100.7487" x2="1517.9147" y2="100.7487">
			<stop  offset="0" style="stop-color:#281E82"/>
			<stop  offset="1" style="stop-color:#6BBDDE"/>
		</linearGradient>
		<rect x="1474.438" y="90.483" fill="url(#SVGID_11_)" width="43.477" height="20.531"/>
		<linearGradient id="SVGID_12_" gradientUnits="userSpaceOnUse" x1="1499.7991" y1="242.9551" x2="1503.422" y2="242.9551">
			<stop  offset="0" style="stop-color:#281E82"/>
			<stop  offset="1" style="stop-color:#6BBDDE"/>
		</linearGradient>
		<line fill="url(#SVGID_12_)" x1="1503.422" y1="306.661" x2="1499.799" y2="179.249"/>
		<linearGradient id="SVGID_13_" gradientUnits="userSpaceOnUse" x1="1491.7646" y1="174.0265" x2="1508.0686" y2="174.0265">
			<stop  offset="0" style="stop-color:#281E82"/>
			<stop  offset="1" style="stop-color:#6BBDDE"/>
		</linearGradient>
		<circle fill="url(#SVGID_13_)" cx="1499.917" cy="174.027" r="8.152"/>
	</g>
	<g>
		<polyline fill="none" stroke="#4549C3" stroke-miterlimit="10" points="1213.121,271.638 1503.422,306.661 1831.916,189.515 		"/>
		<circle fill="#4549C3" cx="1209.347" cy="271.638" r="5.435"/>
		<circle fill="#4549C3" cx="1834.935" cy="187.613" r="5.435"/>
	</g>
	<g>
		<g>
			<path fill="none" stroke="#4549C3" stroke-miterlimit="10" d="M2801.025,1152.705c0,0,1.375-0.276,3.894-0.895"/>
			<path fill="none" stroke="#4549C3" stroke-miterlimit="10" stroke-dasharray="8.0374,8.0374" d="M2812.681,1149.737
				c30.595-8.762,113.866-39.032,157.988-117.988c54.718-97.916,43.199-194.446-28.799-255.617
				c-67.12-57.027-84.182-91.759-76.852-127.315"/>
			<path fill="none" stroke="#4549C3" stroke-miterlimit="10" d="M2865.923,644.896c0.327-1.281,0.684-2.565,1.07-3.852"/>
		</g>
	</g>
	<g>
		<g>
			<path fill="none" stroke="#4549C3" stroke-miterlimit="10" d="M1211.056,689.042c0,0-1.367-0.331-3.911-0.82"/>
			<path fill="none" stroke="#4549C3" stroke-miterlimit="10" stroke-dasharray="8.0123,8.0123" d="M1199.247,686.891
				c-27.904-4.127-100.351-9.268-163.865,33.83c-80.637,54.718-112.316,184.313,0,302.389
				c107.045,112.535,153.923,146.591,173.046,196.91"/>
			<path fill="none" stroke="#4549C3" stroke-miterlimit="10" d="M1209.799,1223.789c0.435,1.253,0.854,2.517,1.257,3.793"/>
		</g>
	</g>
	<g>
		<path fill="none" stroke="#F36290" stroke-linecap="round" stroke-linejoin="round" stroke-miterlimit="10" d="M1474.031,1665.023
			c0,0,48.958-7.882,66.237-51.081c17.279-43.198,20.159-57.598,20.159-90.716s18.719-51.838,35.999-59.038"/>
		<path fill="#F36290" d="M1522.634,1639.574c0,0-40.698-27.875-27.887-50.386
			C1507.557,1566.677,1539.246,1606.293,1522.634,1639.574z"/>
		<path fill="#F36290" d="M1551.103,1587.693c0,0,19.789-45.184,44.296-36.801C1619.906,1559.276,1586.9,1597.801,1551.103,1587.693
			z"/>
		<path fill="#F36290" d="M1559.645,1542.576c0,0-47.821-12.101-43.576-37.652
			C1520.315,1479.374,1563.737,1505.605,1559.645,1542.576z"/>
		<path fill="#F36290" d="M1591.727,1466.188c0,0,13.723-47.381,39.114-42.268
			C1656.233,1429.034,1628.537,1471.537,1591.727,1466.188z"/>
	</g>
	<g>
		<path fill="none" stroke="#F36290" stroke-linecap="round" stroke-linejoin="round" stroke-miterlimit="10" d="M2891.284,1565.838
			c0,0,48.958-7.882,66.238-51.081c17.279-43.198,20.159-57.598,20.159-90.716s18.719-51.838,35.998-59.038"/>
		<path fill="#F36290" d="M2939.888,1540.389c0,0-40.698-27.875-27.887-50.386
			C2924.811,1467.491,2956.499,1507.107,2939.888,1540.389z"/>
		<path fill="#F36290" d="M2968.356,1488.508c0,0,19.789-45.185,44.296-36.801C3037.16,1460.09,3004.154,1498.615,2968.356,1488.508
			z"/>
		<path fill="#F36290" d="M2976.898,1443.391c0,0-47.821-12.101-43.575-37.652C2937.569,1380.188,2980.99,1406.42,2976.898,1443.391
			z"/>
		<path fill="#F36290" d="M3008.981,1367.002c0,0,13.723-47.381,39.114-42.268
			C3073.486,1329.848,3045.791,1372.352,3008.981,1367.002z"/>
	</g>
	<g>
		<ellipse fill="#72C0E3" cx="1182.042" cy="1666.327" rx="122.395" ry="18.719"/>
		<ellipse fill="#72C0E3" cx="1426.833" cy="1666.327" rx="122.395" ry="18.719"/>
		
			<ellipse transform="matrix(0.972 -0.235 0.235 0.972 -344.9525 380.3407)" fill="#72C0E3" cx="1423.405" cy="1637.566" rx="122.396" ry="18.719"/>
		
			<ellipse transform="matrix(0.9017 -0.4323 0.4323 0.9017 -558.4732 770.2353)" fill="#72C0E3" cx="1414.803" cy="1613.412" rx="122.395" ry="18.719"/>
		
			<ellipse transform="matrix(0.7789 -0.6271 0.6271 0.7789 -687.3967 1229.2654)" fill="#72C0E3" cx="1399.773" cy="1589.57" rx="122.395" ry="18.719"/>
		
			<ellipse transform="matrix(0.617 -0.787 0.787 0.617 -707.0087 1687.3699)" fill="#72C0E3" cx="1379.951" cy="1570.004" rx="122.395" ry="18.719"/>
		
			<ellipse transform="matrix(0.4075 -0.9132 0.9132 0.4075 -617.1824 2157.887)" fill="#72C0E3" cx="1354.31" cy="1554.554" rx="122.395" ry="18.719"/>
		
			<ellipse transform="matrix(0.1754 -0.9845 0.9845 0.1754 -428.4889 2580.0989)" fill="#72C0E3" cx="1325.901" cy="1545.828" rx="122.396" ry="18.719"/>
		
			<ellipse transform="matrix(-0.0753 -0.9972 0.9972 -0.0753 -147.205 2952.0432)" fill="#72C0E3" cx="1295.227" cy="1544.279" rx="122.395" ry="18.719"/>
		
			<ellipse transform="matrix(-0.3017 -0.9534 0.9534 -0.3017 172.4801 3225.6001)" fill="#72C0E3" cx="1267.511" cy="1549.635" rx="122.395" ry="18.719"/>
		
			<ellipse transform="matrix(-0.5672 -0.8236 0.8236 -0.5672 646.247 3470.6484)" fill="#72C0E3" cx="1235.01" cy="1565.528" rx="122.395" ry="18.719"/>
		
			<ellipse transform="matrix(-0.7673 -0.6413 0.6413 -0.7673 1121.0417 3582.4719)" fill="#72C0E3" cx="1210.526" cy="1587.834" rx="122.395" ry="18.719"/>
		
			<ellipse transform="matrix(-0.9069 -0.4214 0.4214 -0.9069 1595.3547 3582.0334)" fill="#72C0E3" cx="1193.438" cy="1614.754" rx="122.395" ry="18.719"/>
		
			<ellipse transform="matrix(-0.9767 -0.2148 0.2148 -0.9767 1989.8528 3496.3105)" fill="#72C0E3" cx="1184.899" cy="1640.036" rx="122.395" ry="18.719"/>
	</g>
	<g>
		<ellipse fill="#7F85FC" cx="2780.611" cy="1643.023" rx="122.396" ry="18.719"/>
		<ellipse fill="#7F85FC" cx="3025.402" cy="1643.023" rx="122.395" ry="18.719"/>
		
			<ellipse transform="matrix(0.972 -0.235 0.235 0.972 -294.7118 755.3308)" fill="#7F85FC" cx="3021.974" cy="1614.261" rx="122.395" ry="18.72"/>
		
			<ellipse transform="matrix(0.9017 -0.4323 0.4323 0.9017 -391.2834 1459.0568)" fill="#7F85FC" cx="3013.372" cy="1590.108" rx="122.395" ry="18.72"/>
		
			<ellipse transform="matrix(0.7789 -0.6271 0.6271 0.7789 -319.3641 2226.6199)" fill="#7F85FC" cx="2998.342" cy="1566.265" rx="122.395" ry="18.719"/>
		
			<ellipse transform="matrix(0.617 -0.787 0.787 0.617 -76.3633 2936.5)" fill="#7F85FC" cx="2978.52" cy="1546.699" rx="122.395" ry="18.719"/>
		
			<ellipse transform="matrix(0.4075 -0.9132 0.9132 0.4075 351.2924 3603.9209)" fill="#7F85FC" cx="2952.879" cy="1531.25" rx="122.395" ry="18.719"/>
		
			<ellipse transform="matrix(0.1754 -0.9845 0.9845 0.1754 912.6945 4134.6812)" fill="#7F85FC" cx="2924.47" cy="1522.524" rx="122.395" ry="18.719"/>
		
			<ellipse transform="matrix(-0.0753 -0.9972 0.9972 -0.0753 1594.8984 4521.022)" fill="#7F85FC" cx="2893.796" cy="1520.975" rx="122.395" ry="18.719"/>
		
			<ellipse transform="matrix(-0.3017 -0.9534 0.9534 -0.3017 2275.5513 4719.3506)" fill="#7F85FC" cx="2866.08" cy="1526.331" rx="122.395" ry="18.719"/>
		
			<ellipse transform="matrix(-0.5672 -0.8236 0.8236 -0.5672 3170.7749 4750.6377)" fill="#7F85FC" cx="2833.58" cy="1542.223" rx="122.395" ry="18.719"/>
		
			<ellipse transform="matrix(-0.7673 -0.6413 0.6413 -0.7673 3961.1096 4566.4663)" fill="#7F85FC" cx="2809.095" cy="1564.529" rx="122.395" ry="18.719"/>
		
			<ellipse transform="matrix(-0.9069 -0.4214 0.4214 -0.9069 4653.4717 4211.1758)" fill="#7F85FC" cx="2792.007" cy="1591.45" rx="122.395" ry="18.719"/>
		
			<ellipse transform="matrix(-0.9767 -0.2148 0.2148 -0.9767 5154.6821 3793.624)" fill="#7F85FC" cx="2783.468" cy="1616.732" rx="122.395" ry="18.719"/>
	</g>
	<g>
		<linearGradient id="SVGID_14_" gradientUnits="userSpaceOnUse" x1="1240.9713" y1="1570.6942" x2="1452.3616" y2="1570.6942">
			<stop  offset="0" style="stop-color:#281E82"/>
			<stop  offset="1" style="stop-color:#6BBDDE"/>
		</linearGradient>
		<path fill="url(#SVGID_14_)" d="M1362.424,1694.133c0,0-70.233-7.2-101.788-40.319c-31.556-33.119-20.283-47.518,0-51.838
			c20.283-4.32,34.052,4.319,17.088-28.799c-16.964-33.119-23.354-48.958,0-50.398c23.354-1.44,34.874,17.279,44.953,5.76
			c10.08-11.519-1.439-59.038,34.559-76.317c35.999-17.279,58.767,12.959,35.863,53.278c-22.904,40.318-8.504,50.398,18.855,46.078
			c27.359-4.32,48.792,17.279,35.196,30.239c-13.596,12.959-58.235,23.039-42.396,31.679c15.839,8.64,54.315,10.079,46.597,27.359
			C1443.632,1658.134,1376.253,1688.373,1362.424,1694.133z"/>
		<linearGradient id="SVGID_15_" gradientUnits="userSpaceOnUse" x1="1343.0223" y1="1619.9753" x2="1362.4237" y2="1619.9753">
			<stop  offset="0" style="stop-color:#281E82"/>
			<stop  offset="1" style="stop-color:#6BBDDE"/>
		</linearGradient>
		<path fill="url(#SVGID_15_)" d="M1346.667,1545.818c0,0-14.965,84.068,15.757,148.314"/>
	</g>
	<path fill="#D6F1F8" d="M1603.977,1113.927c0,0,8.923-106.684,47.321-146.458c38.399-39.775,84.477-13.27,105.596,22.436
		c21.119,35.706,57.184-119.808,126.509-177.406c69.324-57.598,113.482,6.72,144.201,88.797
		c30.719,82.077,118.636,60.958,161.074-13.92c42.438-74.877,53.958-124.795,121.155-117.115
		c67.198,7.68,57.598,343.667,57.598,343.667H1603.977z"/>
	<path fill="none" stroke="#3C46B6" stroke-miterlimit="10" d="M1660.549,1113.927c0,0,8.923-106.684,47.321-146.458
		c38.399-39.775,84.477-13.27,105.596,22.436c21.119,35.706,57.184-119.808,126.509-177.406
		c69.324-57.598,113.482,6.72,144.201,88.797c30.719,82.077,118.636,60.958,161.074-13.92
		c42.438-74.877,53.958-124.795,121.155-117.115c67.198,7.68,57.598,343.667,57.598,343.667"/>
	<g>
		<ellipse opacity="0.61" fill="#AEAECC" cx="1960.448" cy="1847.244" rx="259.016" ry="30.771"/>
		<path fill="#4FA0FF" d="M1857.111,1256.381c0,0,5.76-21.119,46.91-31.207c33.261-8.153,106.685-24.471,106.685-24.471
			l111.356-126.715l21.119,16.319c0,0-74.877,104.636-89.277,129.595c-14.399,24.959-33.599,47.998-36.478,62.398
			c-2.88,14.399-16.319,124.795-16.319,124.795s-57.598,18.239-111.356,7.68c0,0-10.559-92.156-14.399-112.316
			c0,0-21.119,30.719-30.719,37.439c-9.599,6.719-143.034,3.84-143.034,3.84s-7.68-15.359,0-21.119c0,0,97.916-11.52,111.356-14.4
			C1826.392,1305.339,1857.111,1256.381,1857.111,1256.381z"/>
		<path fill="#18156F" d="M1937.748,1066.308c0,0-49.918-15.306-71.037,39.865c-21.119,55.171-15.359,86.85-25.919,105.089
			c0,0,39.359,21.119,101.756,11.52c62.398-9.6,68.157-22.079,68.157-22.079S2015.505,1077.828,1937.748,1066.308z"/>
		<path fill="#FE95AC" d="M2027.985,1504.052c-5.759-21.119-26.879-96.956-26.879-96.956s-57.598,18.239-111.356,7.68
			c0,0-18.239,116.156-23.039,175.673s-16.319,91.197-21.119,119.036c-4.8,27.839-6.72,91.196-6.72,91.196s20.159,6.72,31.679,0
			c0,0,26.879-82.557,31.679-103.676c4.8-21.119,0.96-44.159,10.559-68.157c9.6-23.999,43.083-121.916,43.083-121.916
			s43.313,118.076,43.313,140.155c0,22.079,52.798,146.874,52.798,146.874s14.4,3.84,27.839-4.8c0,0-14.399-86.397-23.999-133.435
			C2046.224,1608.688,2033.745,1525.171,2027.985,1504.052z"/>
		<path fill="#6FBDFD" d="M1838.872,1800.68c0,0-14.759,40.319-3.599,42.118c11.16,1.8,34.918,0.72,41.758,0
			c6.84-0.72-6.48-42.118-6.48-42.118C1859.031,1807.4,1838.872,1800.68,1838.872,1800.68z"/>
		<path fill="#6FBDFD" d="M2079.823,1789.161c-13.439,8.64-27.839,4.8-27.839,4.8s-12.445,47.039-1.285,48.838
			c11.159,1.8,34.918,0.72,41.758,0C2099.297,1842.079,2079.823,1789.161,2079.823,1789.161z"/>
		<g>
			<path fill="#FF7D9F" d="M1933.908,1502.612c0,0,2.688,0.832,6.818,1.562c1.026,0.212,2.154,0.351,3.337,0.541
				c1.193,0.132,2.444,0.307,3.747,0.417c1.302,0.119,2.647,0.23,4.018,0.279c1.369,0.094,2.762,0.099,4.155,0.096
				c1.393,0.049,2.784-0.063,4.155-0.099c1.371-0.038,2.712-0.205,4.016-0.297c1.305-0.089,2.549-0.318,3.741-0.449
				c1.195-0.125,2.305-0.358,3.334-0.554c1.024-0.216,1.983-0.337,2.81-0.543c0.829-0.2,1.552-0.375,2.147-0.518
				c1.197-0.276,1.881-0.434,1.881-0.434s-0.664,0.226-1.827,0.621c-0.585,0.192-1.295,0.425-2.109,0.692
				c-0.813,0.276-1.76,0.476-2.785,0.732c-1.026,0.249-2.136,0.539-3.333,0.724c-1.195,0.191-2.444,0.493-3.762,0.605
				c-1.316,0.118-2.67,0.346-4.059,0.385c-1.388,0.048-2.797,0.174-4.208,0.134c-1.412-0.009-2.823-0.026-4.208-0.132
				c-1.389-0.054-2.746-0.222-4.06-0.369c-1.316-0.131-2.572-0.384-3.767-0.573c-1.186-0.25-2.313-0.445-3.337-0.709
				c-1.031-0.229-1.963-0.495-2.784-0.742c-0.823-0.24-1.531-0.482-2.114-0.675C1934.55,1502.9,1933.908,1502.612,1933.908,1502.612
				z"/>
		</g>
		<path fill="#FFB6D6" d="M1701.597,1322.619c0,0-12.479-7.92-18.599-12.24c-6.12-4.32-17.64-11.16-21.599-9.72
			c-3.96,1.44,1.8,5.924,5.4,10.882c3.6,4.957,3.6,4.957,3.6,4.957s-6.12,0.72-16.559-0.36c-10.44-1.08-19.799-3.96-21.239-1.8
			c-1.44,2.16,3.6,5.76,11.879,8.28c8.28,2.52,10.08,5.039,4.68,6.84c-5.399,1.8-21.239,0.72-22.679,3.24
			c-1.44,2.52,1.08,5.4,10.8,5.4c9.72,0,13.32,1.44,12.959,2.88c-0.36,1.44-12.959,10.079-13.32,12.239
			c-0.36,2.16,6.48,1.08,19.799-5.4c0,0,7.56-2.88,3.24,3.24c-4.32,6.12-7.56,15.839,2.16,8.64c9.72-7.2,12.959-11.88,16.559-13.68
			c3.6-1.8,22.919-2.28,22.919-2.28S1693.918,1328.378,1701.597,1322.619z"/>
		<path fill="#FFB6D6" d="M2168.66,1054.678c12.592-7.8,17.158-13.005,15.14-13.855c-2.019-0.849-16.052,5.188-17.461,4.724
			c-1.41-0.465-0.705-4.277,4.487-12.494c5.191-8.217,4.103-11.886,1.203-12.014c-2.9-0.129-10.447,13.839-14.852,17.443
			c-4.406,3.604-5.575,0.736-3.283-7.61c2.292-8.346,1.94-14.529-0.655-14.465c-2.595,0.064-5.159,9.515-9.822,18.917
			c-4.663,9.403-8.54,14.192-8.54,14.192s0,0-2.269-5.691c-2.269-5.692-2.983-12.955-6.315-10.377
			c-3.333,2.579-3.703,15.971-3.319,23.452c0.255,4.975,0.354,13.158,0.391,18.096l18.6,14.373
			c2.438-3.592,10.532-15.326,13.445-17.087c3.444-2.082,9.131-2.321,20.409-6.693c11.278-4.372,1.33-6.824-6.151-6.44
			C2162.188,1059.531,2168.66,1054.678,2168.66,1054.678z"/>
		<polygon fill="#3C88D3" points="1875.35,1302.459 1871.631,1276.9 1868.674,1311.832 		"/>
		<g>
			<path fill="#E8809C" d="M1875.35,1648.758c6.24-32.408,18.239-69.829,22.956-130.1c3.011-38.474,6.093-77.964,7.93-101.515
				c-5.493-0.528-11.009-1.291-16.486-2.367c0,0-18.239,116.156-23.039,175.673s-16.319,91.197-21.119,119.036
				c-4.8,27.839-6.72,91.196-6.72,91.196s6.892,2.281,14.913,2.847C1858.187,1768.918,1870.292,1675.03,1875.35,1648.758z"/>
			<path fill="#E8809C" d="M2023.754,1673.581c-18.15-62.302-35.128-101.852-42.233-123.726
				c-7.104-21.875-25.65-42.923-25.65-42.923s43.313,118.076,43.313,140.155c0,22.079,52.798,146.874,52.798,146.874
				s3.825,1.006,9.358,0.817C2053.695,1771.201,2037.203,1719.745,2023.754,1673.581z"/>
		</g>
	</g>
	<path fill="#D6F1F8" d="M3187.597,690.962v-28.799h-16.707c-1.506-6.304-3.969-12.219-7.234-17.614l11.769-11.77l-20.364-20.364
		l-11.601,11.601c-5.425-3.403-11.403-5.975-17.782-7.577v-16.195h-28.799v15.808c-6.581,1.477-12.743,4.013-18.351,7.395
		l-11.032-11.032l-20.364,20.364l10.833,10.833c-3.55,5.641-6.209,11.881-7.802,18.55h-15.202v28.799h15.168
		c1.582,6.686,4.238,12.943,7.787,18.599l-10.784,10.784l20.364,20.364l10.953-10.952c5.629,3.406,11.819,5.959,18.43,7.443v15.68
		h28.799v-16.067c6.41-1.61,12.416-4.198,17.862-7.626l11.521,11.522l20.364-20.364l-11.721-11.721
		c3.263-5.41,5.723-11.341,7.219-17.662H3187.597z M3111.281,704.882c-15.64,0-28.319-12.679-28.319-28.319
		c0-15.64,12.679-28.319,28.319-28.319c15.64,0,28.319,12.679,28.319,28.319C3139.599,692.203,3126.92,704.882,3111.281,704.882z"/>
	<path fill="#D6F1F8" d="M899.128,796.212v-28.799h-16.707c-1.506-6.304-3.969-12.219-7.234-17.614l11.77-11.77l-20.364-20.364
		l-11.601,11.601c-5.424-3.403-11.403-5.975-17.782-7.577v-16.195h-28.799v15.808c-6.58,1.477-12.743,4.013-18.351,7.395
		l-11.032-11.032l-20.364,20.364l10.833,10.833c-3.551,5.641-6.21,11.881-7.803,18.55h-15.201v28.799h15.168
		c1.582,6.686,4.239,12.943,7.787,18.599l-10.784,10.784l20.364,20.364l10.953-10.953c5.629,3.406,11.819,5.959,18.43,7.443v15.68
		h28.799v-16.067c6.41-1.61,12.416-4.198,17.862-7.626l11.522,11.522l20.364-20.364l-11.721-11.721
		c3.262-5.41,5.722-11.341,7.218-17.662H899.128z M822.811,810.131c-15.64,0-28.319-12.679-28.319-28.319
		c0-15.64,12.679-28.319,28.319-28.319c15.64,0,28.319,12.679,28.319,28.319C851.131,797.453,838.451,810.131,822.811,810.131z"/>
	<path fill="#D6F1F8" d="M1745.38,118.081v-22.66h-13.145c-1.185-4.96-3.123-9.615-5.692-13.859l9.26-9.261l-16.023-16.023
		l-9.128,9.128c-4.268-2.678-8.972-4.701-13.991-5.962V46.701H1674v12.439c-5.178,1.162-10.026,3.158-14.439,5.819l-8.681-8.681
		L1634.857,72.3l8.524,8.524c-2.794,4.438-4.886,9.348-6.14,14.596h-11.961v22.66h11.935c1.245,5.261,3.335,10.184,6.127,14.634
		l-8.486,8.486l16.023,16.023l8.618-8.618c4.429,2.68,9.299,4.689,14.501,5.857V166.8h22.661v-12.642
		c5.044-1.267,9.77-3.303,14.054-6l9.065,9.066l16.023-16.023l-9.222-9.223c2.567-4.257,4.502-8.924,5.679-13.897H1745.38z
		 M1685.33,129.033c-12.306,0-22.283-9.976-22.283-22.283c0-12.306,9.976-22.283,22.283-22.283s22.283,9.976,22.283,22.283
		C1707.612,119.057,1697.636,129.033,1685.33,129.033z"/>
	<circle fill="#D6F1F8" cx="1706.017" cy="780.552" r="59.451"/>
	<circle fill="none" stroke="#3C46B6" stroke-miterlimit="10" cx="1738.205" cy="780.552" r="59.451"/>
	<g>
		<linearGradient id="SVGID_16_" gradientUnits="userSpaceOnUse" x1="2545.8242" y1="1570.6942" x2="2926.0913" y2="1570.6942">
			<stop  offset="0" style="stop-color:#281E82"/>
			<stop  offset="1" style="stop-color:#6BBDDE"/>
		</linearGradient>
		<path fill="url(#SVGID_16_)" d="M2550.294,1673.581c0,0-15.023-20.03,10.015-45.068c0,0-14.48-84.792,71.985-96.212
			c0,0,16.314-57.099,65.256-63.625c48.942-6.525,88.096,24.471,99.516,66.888c0,0,37.522-13.051,71.782,9.789
			c34.26,22.84,30.997,70.15,30.997,70.15s37.522,13.378,22.839,58.078H2550.294z"/>
	</g>
	<linearGradient id="SVGID_17_" gradientUnits="userSpaceOnUse" x1="2545.8242" y1="1570.7211" x2="2713.7925" y2="1570.7211">
		<stop  offset="0" style="stop-color:#281E82"/>
		<stop  offset="1" style="stop-color:#6BBDDE"/>
	</linearGradient>
	<path fill="url(#SVGID_17_)" d="M2635.642,1605.381c13.439-35.946,45.081-47.527,45.081-47.527
		c-4.686-47.16,14.464-74.621,33.069-89.927c-5.277-0.188-10.687,0.008-16.242,0.749c-48.942,6.526-65.256,63.625-65.256,63.625
		c-86.464,11.42-71.985,96.212-71.985,96.212c-25.038,25.038-10.015,45.068-10.015,45.068h103.818
		C2634.87,1655.269,2626.673,1629.37,2635.642,1605.381z"/>
	<g>
		
			<rect x="815.603" y="1333.57" transform="matrix(0.998 -0.0628 0.0628 0.998 -96.2891 56.1425)" fill="#4549C3" width="57.598" height="450.588"/>
		
			<rect x="800.677" y="1309.56" transform="matrix(0.998 -0.0628 0.0628 0.998 -81.4216 54.736)" fill="#D7DCFF" width="57.598" height="24.479"/>
		<path fill="#FE95AC" d="M857.448,1307.775l-57.484,3.619l-1.358-21.565c-0.849-13.488,9.397-25.11,22.885-25.96l8.639-0.544
			c13.488-0.849,25.111,9.396,25.96,22.884L857.448,1307.775z"/>
		<polygon fill="#3341A0" points="845.846,1784.513 817.532,1334.816 801.503,1335.825 829.817,1785.522 887.301,1781.903 
			887.301,1781.903 		"/>
		<polygon fill="#B9C2EA" points="817.549,1334.815 816.011,1310.384 799.964,1311.394 801.503,1335.825 858.987,1332.206 
			858.987,1332.205 		"/>
		<path fill="#E57693" d="M815.006,1289.085c-0.786-12.494,7.953-23.37,19.966-25.583c-1.576-0.213-3.193-0.28-4.841-0.176
			l-8.639,0.544c-13.488,0.849-23.734,12.472-22.885,25.96l1.358,21.565l16.381-1.031L815.006,1289.085z"/>
	</g>
	<g>
		
			<rect x="983.673" y="1381.207" transform="matrix(-0.971 -0.2392 0.2392 -0.971 1611.288 3408.5444)" fill="#F36290" width="57.598" height="450.588"/>
		<polygon fill="#D7DCFF" points="1094.324,1394.635 1086.71,1305.145 1038.398,1380.858 		"/>
		<g>
			<polygon fill="#D85082" points="972.576,1828.702 986.545,1832.143 986.545,1832.143 			"/>
			<polygon fill="#D85082" points="1064.325,1387.245 1076.708,1390.295 1038.398,1380.858 930.619,1818.366 956.546,1824.753 			
				"/>
		</g>
		<polygon fill="#B9C2EA" points="1064.325,1387.245 1086.71,1305.145 1038.398,1380.858 		"/>
	</g>
	<rect x="887.301" y="913.092" fill="#9281FF" width="100.94" height="912.168"/>
	<rect x="887.301" y="913.092" fill="#7A6CF1" width="38.793" height="912.168"/>
	<linearGradient id="SVGID_18_" gradientUnits="userSpaceOnUse" x1="757.0212" y1="1674.183" x2="1121.3275" y2="1674.183">
		<stop  offset="0" style="stop-color:#281E82"/>
		<stop  offset="1" style="stop-color:#6BBDDE"/>
	</linearGradient>
	<path fill="url(#SVGID_18_)" d="M801.659,1862.016c0,0,122.396,35.999,277.909,0l41.759-391.665H757.021L801.659,1862.016z"/>
	<linearGradient id="SVGID_19_" gradientUnits="userSpaceOnUse" x1="757.0212" y1="1674.183" x2="1079.5688" y2="1674.183">
		<stop  offset="0" style="stop-color:#281E82"/>
		<stop  offset="1" style="stop-color:#6BBDDE"/>
	</linearGradient>
	<path fill="url(#SVGID_19_)" d="M817.04,1582.586c-18.602-44.514-29.068-82.835-34.975-112.236h-25.044l44.638,391.665
		c0,0,122.396,35.999,277.909,0C908.552,1819.675,860.841,1687.405,817.04,1582.586z"/>
</g>
<g id="DESIGNED_BY_FREEPIK">
</g>
</svg>
