<?xml version="1.0" encoding="utf-8"?>
<!-- Generator: Adobe Illustrator 17.0.0, SVG Export Plug-In . SVG Version: 6.00 Build 0)  -->
<!DOCTYPE svg PUBLIC "-//W3C//DTD SVG 1.1//EN" "http://www.w3.org/Graphics/SVG/1.1/DTD/svg11.dtd">
<svg version="1.1" xmlns="http://www.w3.org/2000/svg" xmlns:xlink="http://www.w3.org/1999/xlink" x="0px" y="0px" width="783px"
	 height="500px" viewBox="0 0 783 500" enable-background="new 0 0 783 500" xml:space="preserve">
<g id="BACKGROUND" display="none">
	<rect x="283" display="inline" fill="#AFC6F5" width="500" height="500"/>
</g>
<g id="OBJECTS">
	<polygon fill="#F4F4F4" points="117.328,270.033 115.792,283.091 106.594,306.971 115.005,309.559 121.474,284.652 
		122.321,270.609 	"/>
	
		<linearGradient id="SVGID_1_" gradientUnits="userSpaceOnUse" x1="643.5991" y1="345.8904" x2="641.43" y2="383.695" gradientTransform="matrix(-1 0 0 1 749.987 0)">
		<stop  offset="0.0033" style="stop-color:#241084"/>
		<stop  offset="0.9896" style="stop-color:#0A5DE2"/>
	</linearGradient>
	<polygon fill="url(#SVGID_1_)" points="97.673,333.176 101.782,374.733 100.413,411.265 114.569,411.265 115.33,408.544 
		105.626,407.251 110.801,374.904 115.471,334.676 	"/>
	<polygon fill="#3878FF" points="92.996,332.711 89.776,368.111 68.104,396.9 70.692,410.485 77.161,410.485 73.279,407.574 
		72.632,398.84 93.334,375.551 112.096,333.823 	"/>
	<polygon fill="#F76D59" points="122.321,270.609 122.069,257.445 119.422,257.114 117.328,270.033 	"/>
	<g>
		<path fill="#F76D59" d="M96.585,288.848c-0.976,4.787-1.029,12.107,6.156,13.26c7.129,1.144,11.427-3.375,12.47-8.148
			c1.043-4.773-0.721-10.913-8.095-11.865C102.271,281.47,97.365,285.019,96.585,288.848z"/>
		<path fill="#1F1F89" d="M101.75,301.778c-5.129-1.379-7.075-6.325-6.336-11.317c0.905-6.108,6.929-9.41,11.701-8.366
			c0.288,0.063,0.547,0.18,0.822,0.269c0.096,0.74,0.054,1.505-0.156,2.112c-0.819,2.359-2.919,4.327-5.308,5.051
			C102.473,289.527,100.975,300.231,101.75,301.778z"/>
		<path fill="#F76D59" d="M101.153,290.341c-0.726-0.107-1.476,0.074-2.12,0.426c-2.075,1.131-1.347,4.245,0.486,5.23
			c0.592,0.318,1.261,0.472,1.929,0.537c0.579,0.056,1.198,0.037,1.694-0.267c0.48-0.294,0.78-0.827,0.889-1.379
			c0.109-0.553,0.044-1.126-0.077-1.675C103.678,291.958,102.467,290.534,101.153,290.341z"/>
		
			<ellipse transform="matrix(-0.9369 0.3496 -0.3496 -0.9369 315.9815 516.0724)" fill="#F7F5EF" cx="111.41" cy="286.557" rx="2.551" ry="3.38"/>
	</g>
	<circle fill="#8E574A" cx="120.911" cy="255.625" r="2.977"/>
	<path fill="#F7F5EF" d="M131.922,275.602l-4.519,1.495c-1.839,5.324-4.902,10.142-8.941,14.068l-8.459,8.219l-10.415,7.034
		l-7.737,28.699l24.203,2.283l0.799-31.623l8.986-11.233c3.694-4.618,6.195-10.075,7.279-15.889L131.922,275.602z"/>
	<linearGradient id="SVGID_2_" gradientUnits="userSpaceOnUse" x1="99.2292" y1="231.3641" x2="153.8309" y2="231.3641">
		<stop  offset="0" style="stop-color:#271887"/>
		<stop  offset="1" style="stop-color:#02BFE1"/>
	</linearGradient>
	<path fill="url(#SVGID_2_)" d="M143.396,204.063h-33.733c-5.763,0-10.434,4.672-10.434,10.434v33.733
		c0,5.763,4.672,10.434,10.434,10.434h33.733c5.763,0,10.434-4.672,10.434-10.434v-33.733
		C153.831,208.735,149.159,204.063,143.396,204.063z"/>
	<circle fill="#F76D59" cx="135.786" cy="257.618" r="2.977"/>
	<polygon fill="#F76D59" points="126.929,278.674 132.883,280.787 137.668,258.981 134.253,258.205 	"/>
	<path fill="#FFFFFF" d="M139.757,224.534c0,7.647-13.847,27.945-13.847,27.945s-13.847-20.298-13.847-27.945
		c0-7.648,6.2-13.847,13.847-13.847C133.557,210.687,139.757,216.886,139.757,224.534z"/>
	<linearGradient id="SVGID_3_" gradientUnits="userSpaceOnUse" x1="119.2748" y1="223.38" x2="132.545" y2="223.38">
		<stop  offset="0" style="stop-color:#271887"/>
		<stop  offset="1" style="stop-color:#02BFE1"/>
	</linearGradient>
	<circle fill="url(#SVGID_3_)" cx="125.91" cy="223.38" r="6.635"/>
	<linearGradient id="SVGID_4_" gradientUnits="userSpaceOnUse" x1="56.4351" y1="410.9914" x2="163.5729" y2="410.9914">
		<stop  offset="0" style="stop-color:#271887"/>
		<stop  offset="1" style="stop-color:#02BFE1"/>
	</linearGradient>
	
		<line fill="#FBFBFD" stroke="url(#SVGID_4_)" stroke-width="2" stroke-miterlimit="10" x1="56.435" y1="410.991" x2="163.573" y2="410.991"/>
	<linearGradient id="SVGID_5_" gradientUnits="userSpaceOnUse" x1="299.91" y1="251.6947" x2="444.515" y2="251.6947">
		<stop  offset="0" style="stop-color:#271887"/>
		<stop  offset="1" style="stop-color:#02BFE1"/>
	</linearGradient>
	<path fill="#FBFBFD" stroke="url(#SVGID_5_)" stroke-width="2" stroke-miterlimit="10" d="M431.407,98.036H313.018
		c-6.687,0-12.108,5.421-12.108,12.108v283.102c0,6.687,5.421,12.108,12.108,12.108h118.389c6.687,0,12.108-5.421,12.108-12.108
		V110.144C443.515,103.457,438.094,98.036,431.407,98.036z"/>
	<path fill="#CDF2F9" d="M430.564,99.054H313.815c-6.594,0-11.94,5.463-11.94,12.201v12.362h140.629v-12.362
		C442.504,104.517,437.158,99.054,430.564,99.054z"/>
	<path fill="#CDF2F9" d="M301.891,376.905v15.437c0,6.687,5.345,12.108,11.937,12.108h116.72c6.593,0,11.937-5.421,11.937-12.108
		v-15.437H301.891z"/>
	<path opacity="0.2" fill="#F76D59" d="M421.113,130.757H387.38c-5.763,0-10.434,4.672-10.434,10.434v33.733
		c0,5.763,4.672,10.434,10.434,10.434h33.733c5.763,0,10.434-4.672,10.434-10.434v-33.733
		C431.547,135.429,426.875,130.757,421.113,130.757z"/>
	<path fill="#AFC6F5" d="M620.779,359.423h-33.733c-5.763,0-10.434,4.672-10.434,10.435v33.733c0,5.763,4.672,10.434,10.434,10.434
		h33.733c5.763,0,10.434-4.672,10.434-10.434v-33.733C631.214,364.094,626.542,359.423,620.779,359.423z"/>
	<path opacity="0.2" fill="#F76D59" d="M556.294,359.423h-33.733c-5.763,0-10.435,4.672-10.435,10.435v33.733
		c0,5.763,4.672,10.434,10.435,10.434h33.733c5.763,0,10.435-4.672,10.435-10.434v-33.733
		C566.728,364.094,562.057,359.423,556.294,359.423z"/>
	<linearGradient id="SVGID_6_" gradientUnits="userSpaceOnUse" x1="300.3375" y1="406.7482" x2="453.9991" y2="406.7482">
		<stop  offset="0" style="stop-color:#271887"/>
		<stop  offset="1" style="stop-color:#02BFE1"/>
	</linearGradient>
	
		<line fill="#FBFBFD" stroke="url(#SVGID_6_)" stroke-width="2" stroke-miterlimit="10" x1="300.337" y1="406.748" x2="453.999" y2="406.748"/>
	<g>
		<g>
			<linearGradient id="SVGID_7_" gradientUnits="userSpaceOnUse" x1="478.4072" y1="356.3753" x2="498.5162" y2="356.3753">
				<stop  offset="0" style="stop-color:#271887"/>
				<stop  offset="1" style="stop-color:#02BFE1"/>
			</linearGradient>
			<polygon fill="url(#SVGID_7_)" points="497.126,412.802 478.407,300.18 479.797,299.949 498.516,412.57 			"/>
		</g>
		<g>
			<linearGradient id="SVGID_8_" gradientUnits="userSpaceOnUse" x1="444.0366" y1="356.3753" x2="464.1473" y2="356.3753">
				<stop  offset="0" style="stop-color:#271887"/>
				<stop  offset="1" style="stop-color:#02BFE1"/>
			</linearGradient>
			<polygon fill="url(#SVGID_8_)" points="462.757,412.802 444.037,300.18 445.427,299.949 464.147,412.57 			"/>
		</g>
		<g>
			<linearGradient id="SVGID_9_" gradientUnits="userSpaceOnUse" x1="448.7215" y1="323.9998" x2="483.3976" y2="323.9998">
				<stop  offset="0" style="stop-color:#271887"/>
				<stop  offset="1" style="stop-color:#02BFE1"/>
			</linearGradient>
			<rect x="448.722" y="323.295" fill="url(#SVGID_9_)" width="34.676" height="1.41"/>
		</g>
		<g>
			<linearGradient id="SVGID_10_" gradientUnits="userSpaceOnUse" x1="451.1761" y1="339.0373" x2="485.8535" y2="339.0373">
				<stop  offset="0" style="stop-color:#271887"/>
				<stop  offset="1" style="stop-color:#02BFE1"/>
			</linearGradient>
			<rect x="451.176" y="338.332" fill="url(#SVGID_10_)" width="34.677" height="1.41"/>
		</g>
		<g>
			<linearGradient id="SVGID_11_" gradientUnits="userSpaceOnUse" x1="453.6322" y1="354.0735" x2="488.3081" y2="354.0735">
				<stop  offset="0" style="stop-color:#271887"/>
				<stop  offset="1" style="stop-color:#02BFE1"/>
			</linearGradient>
			<rect x="453.632" y="353.369" fill="url(#SVGID_11_)" width="34.676" height="1.41"/>
		</g>
		<g>
			<linearGradient id="SVGID_12_" gradientUnits="userSpaceOnUse" x1="456.0869" y1="369.1096" x2="490.7627" y2="369.1096">
				<stop  offset="0" style="stop-color:#271887"/>
				<stop  offset="1" style="stop-color:#02BFE1"/>
			</linearGradient>
			<rect x="456.087" y="368.405" fill="url(#SVGID_12_)" width="34.676" height="1.41"/>
		</g>
		<g>
			<linearGradient id="SVGID_13_" gradientUnits="userSpaceOnUse" x1="458.5414" y1="384.1472" x2="493.2175" y2="384.1472">
				<stop  offset="0" style="stop-color:#271887"/>
				<stop  offset="1" style="stop-color:#02BFE1"/>
			</linearGradient>
			<rect x="458.541" y="383.442" fill="url(#SVGID_13_)" width="34.676" height="1.41"/>
		</g>
		<g>
			<linearGradient id="SVGID_14_" gradientUnits="userSpaceOnUse" x1="460.996" y1="399.1833" x2="495.6735" y2="399.1833">
				<stop  offset="0" style="stop-color:#271887"/>
				<stop  offset="1" style="stop-color:#02BFE1"/>
			</linearGradient>
			<rect x="460.996" y="398.478" fill="url(#SVGID_14_)" width="34.677" height="1.41"/>
		</g>
	</g>
	<g>
		<g>
			<linearGradient id="SVGID_15_" gradientUnits="userSpaceOnUse" x1="424.2997" y1="356.3753" x2="444.4098" y2="356.3753">
				<stop  offset="0" style="stop-color:#271887"/>
				<stop  offset="1" style="stop-color:#02BFE1"/>
			</linearGradient>
			<polygon fill="url(#SVGID_15_)" points="425.69,412.802 424.3,412.57 443.019,299.949 444.41,300.18 			"/>
		</g>
		<g>
			<linearGradient id="SVGID_16_" gradientUnits="userSpaceOnUse" x1="458.6696" y1="356.3753" x2="478.7787" y2="356.3753">
				<stop  offset="0" style="stop-color:#271887"/>
				<stop  offset="1" style="stop-color:#02BFE1"/>
			</linearGradient>
			<polygon fill="url(#SVGID_16_)" points="460.06,412.802 458.67,412.57 477.388,299.949 478.779,300.18 			"/>
		</g>
		<g>
			<linearGradient id="SVGID_17_" gradientUnits="userSpaceOnUse" x1="439.4179" y1="323.9998" x2="474.0938" y2="323.9998">
				<stop  offset="0" style="stop-color:#271887"/>
				<stop  offset="1" style="stop-color:#02BFE1"/>
			</linearGradient>
			<rect x="439.418" y="323.295" fill="url(#SVGID_17_)" width="34.676" height="1.41"/>
		</g>
		<g>
			<linearGradient id="SVGID_18_" gradientUnits="userSpaceOnUse" x1="436.9633" y1="339.0373" x2="471.6392" y2="339.0373">
				<stop  offset="0" style="stop-color:#271887"/>
				<stop  offset="1" style="stop-color:#02BFE1"/>
			</linearGradient>
			<rect x="436.963" y="338.332" fill="url(#SVGID_18_)" width="34.676" height="1.41"/>
		</g>
		<g>
			<linearGradient id="SVGID_19_" gradientUnits="userSpaceOnUse" x1="434.508" y1="354.0735" x2="469.1847" y2="354.0735">
				<stop  offset="0" style="stop-color:#271887"/>
				<stop  offset="1" style="stop-color:#02BFE1"/>
			</linearGradient>
			<rect x="434.508" y="353.369" fill="url(#SVGID_19_)" width="34.677" height="1.41"/>
		</g>
		<g>
			<linearGradient id="SVGID_20_" gradientUnits="userSpaceOnUse" x1="432.0532" y1="369.1096" x2="466.7299" y2="369.1096">
				<stop  offset="0" style="stop-color:#271887"/>
				<stop  offset="1" style="stop-color:#02BFE1"/>
			</linearGradient>
			<rect x="432.053" y="368.405" fill="url(#SVGID_20_)" width="34.677" height="1.41"/>
		</g>
		<g>
			<linearGradient id="SVGID_21_" gradientUnits="userSpaceOnUse" x1="429.5979" y1="384.1472" x2="464.2739" y2="384.1472">
				<stop  offset="0" style="stop-color:#271887"/>
				<stop  offset="1" style="stop-color:#02BFE1"/>
			</linearGradient>
			<rect x="429.598" y="383.442" fill="url(#SVGID_21_)" width="34.676" height="1.41"/>
		</g>
		<g>
			<linearGradient id="SVGID_22_" gradientUnits="userSpaceOnUse" x1="427.1433" y1="399.1833" x2="461.8193" y2="399.1833">
				<stop  offset="0" style="stop-color:#271887"/>
				<stop  offset="1" style="stop-color:#02BFE1"/>
			</linearGradient>
			<rect x="427.143" y="398.478" fill="url(#SVGID_22_)" width="34.676" height="1.41"/>
		</g>
	</g>
	<g>
		<rect x="440.91" y="298.314" fill="#0A5DE2" width="42.292" height="4.229"/>
	</g>
	<polygon fill="#F7F5EF" points="520.121,279.315 515.981,236.732 510.658,191.191 514.798,190.6 524.261,233.775 539.047,234.958 
		554.424,191.191 558.564,191.782 547.327,238.506 547.918,278.133 	"/>
	<path fill="#F76D59" d="M525.383,221.137c-1.117,4.081,0.646,10.629,4.727,11.747c4.081,1.117,8.935-3.619,10.052-7.7
		c1.118-4.081-1.285-8.296-5.366-9.413C530.715,214.653,526.501,217.056,525.383,221.137z"/>
	<path fill="#2B159B" d="M530.839,218.781c-0.835-0.229-2.003-0.801-2.448-1.587c-0.042-0.074-0.061-0.144-0.086-0.216
		c1.814-1.309,4.165-1.845,6.491-1.208c4.081,1.118,6.484,5.332,5.366,9.413c-0.798,2.914-3.502,6.151-6.469,7.363
		c0.054-0.822,0.254-1.637,0.464-2.438c0.846-3.227,1.788-6.428,2.823-9.599C534.893,220.094,532.838,219.515,530.839,218.781z"/>
	<path fill="#F76D59" d="M535.608,225.021c0.554-0.404,1.31-0.587,1.94-0.317c0.146,0.062,0.283,0.148,0.395,0.261
		c0.305,0.304,0.394,0.769,0.357,1.198c-0.102,1.184-1.077,2.178-2.212,2.53c-0.322,0.1-0.665,0.156-0.998,0.105
		c-0.334-0.05-0.659-0.217-0.853-0.493C533.523,227.286,534.812,225.601,535.608,225.021z"/>
	<polygon fill="#3878FF" points="547.918,278.133 543.815,343.448 539.296,343.448 535.459,278.663 531.424,278.834 
		528.956,345.046 525.471,344.965 520.121,279.315 519.334,271.228 547.821,271.599 	"/>
	<polygon fill="#3878FF" points="543.815,343.448 553.75,344.543 553.391,346.083 538.841,346.083 539.296,343.448 	"/>
	<polygon fill="#3878FF" points="528.956,345.046 528.956,346.901 515.309,347.417 515.309,345.711 525.471,344.965 	"/>
	<path fill="#2B159B" d="M532.706,226.673c-2.485,0.27-4.462-2.236-6.942-2.551c-0.155-0.02-0.32-0.029-0.461,0.037
		c-0.184,0.086-0.289,0.279-0.382,0.46c-0.315,0.613-0.629,1.225-0.943,1.838c-0.321,0.626-0.646,1.261-0.786,1.95
		c-0.169,0.825-0.064,1.68,0.075,2.51c0.111,0.658,0.246,1.321,0.541,1.919c0.527,1.07,1.54,1.851,2.661,2.26
		c1.12,0.409,2.341,0.473,3.529,0.367c0.81-0.072,1.626-0.225,2.352-0.591c1.609-0.811,2.588-2.716,2.312-4.496
		c-0.068-0.44-0.205-0.878-0.158-1.321c0.047-0.432,0.265-0.825,0.479-1.203c0.243-0.431,1.884-2.581,0.599-2.593
		c-0.39-0.004-0.955,0.664-1.296,0.861C533.797,226.404,533.269,226.612,532.706,226.673z"/>
	<g opacity="0.4">
		<polygon fill="#AFC6F5" points="549.124,206.278 555.078,206.278 558.564,191.782 554.424,191.191 		"/>
		<polygon fill="#AFC6F5" points="514.798,190.6 510.658,191.191 512.421,206.278 518.234,206.278 		"/>
	</g>
	<path fill="#CDF2F9" d="M615.937,144.553H478.053c-6.765,0-12.25,5.484-12.25,12.25v20.531c0,6.765,5.484,12.25,12.25,12.25
		h137.884c6.765,0,12.25-5.484,12.25-12.25v-20.531C628.187,150.037,622.702,144.553,615.937,144.553z"/>
	<linearGradient id="SVGID_23_" gradientUnits="userSpaceOnUse" x1="460.7318" y1="167.068" x2="625.1153" y2="167.068">
		<stop  offset="0" style="stop-color:#271887"/>
		<stop  offset="1" style="stop-color:#02BFE1"/>
	</linearGradient>
	<path fill="#FBFBFD" stroke="url(#SVGID_23_)" stroke-width="2" stroke-miterlimit="10" d="M611.866,144.553H473.981
		c-6.765,0-12.25,5.484-12.25,12.25v20.531c0,6.765,5.484,12.25,12.25,12.25h137.884c6.765,0,12.25-5.484,12.25-12.25v-20.531
		C624.115,150.037,618.631,144.553,611.866,144.553z"/>
	<path fill="#CDF2F9" d="M613.842,179.177l-6.617-6.882c1.702-2.024,2.634-4.57,2.634-7.22c0-6.191-5.037-11.228-11.23-11.228
		c-6.19,0-11.227,5.037-11.227,11.228c0,6.193,5.037,11.229,11.227,11.229c2.324,0,4.541-0.7,6.434-2.033l6.67,6.937
		c0.279,0.291,0.653,0.45,1.056,0.45c0.379,0,0.738-0.145,1.013-0.409C614.385,180.688,614.402,179.761,613.842,179.177
		L613.842,179.177z M598.629,156.777c4.577,0,8.3,3.724,8.3,8.298c0,4.577-3.724,8.3-8.3,8.3c-4.574,0-8.297-3.723-8.297-8.3
		C590.331,160.501,594.054,156.777,598.629,156.777L598.629,156.777z M598.629,156.777"/>
	<linearGradient id="SVGID_24_" gradientUnits="userSpaceOnUse" x1="475.1187" y1="347.5539" x2="621.7313" y2="347.5539">
		<stop  offset="0" style="stop-color:#271887"/>
		<stop  offset="1" style="stop-color:#02BFE1"/>
	</linearGradient>
	
		<line fill="#FBFBFD" stroke="url(#SVGID_24_)" stroke-width="2" stroke-miterlimit="10" x1="475.119" y1="347.554" x2="621.731" y2="347.554"/>
	<circle fill="#F76D59" cx="512.205" cy="188.825" r="3.549"/>
	<circle fill="#F76D59" cx="555.052" cy="189.827" r="3.549"/>
	<circle fill="#AFC6F5" cx="381.949" cy="201.647" r="3.886"/>
	<path fill="#CDF2F9" d="M373.836,183.338l-33.225-5.833c-5.676-0.997-11.085,2.797-12.082,8.473l-5.833,33.225
		c-0.996,5.676,2.797,11.085,8.473,12.081l33.225,5.833c5.676,0.997,11.085-2.797,12.082-8.473l5.833-33.225
		C383.306,189.744,379.512,184.335,373.836,183.338z"/>
	<g>
		<linearGradient id="SVGID_25_" gradientUnits="userSpaceOnUse" x1="212.9409" y1="357.876" x2="238.8807" y2="357.876">
			<stop  offset="0" style="stop-color:#271887"/>
			<stop  offset="1" style="stop-color:#02BFE1"/>
		</linearGradient>
		<path fill="url(#SVGID_25_)" d="M213.036,371.747h24.435c0.56,0,1.068-0.332,1.292-0.845c0.224-0.514,0.123-1.111-0.257-1.523
			l-23.495-25.374l-2.069,1.915l21.304,23.007h-21.208V371.747z"/>
	</g>
	<polygon fill="#D64536" points="384.688,200.677 395.175,204.778 425.676,207.662 415.493,214.847 394.065,209.7 383.111,204.682 	
		"/>
	<circle fill="#AFC6F5" cx="413.549" cy="199.109" r="8.554"/>
	<polygon fill="#0A5DE2" points="453.557,231.422 450.038,267.011 451.211,298.298 439.088,298.298 438.436,295.968 446.746,294.86 
		442.314,267.158 438.315,232.707 	"/>
	<path fill="#F76D59" d="M379.81,204.373c4.468,1.818,19.468,5.808,24.276,5.419l10.068-0.814l10.408-2.743l22.857,11.204
		l-12.182,16.883l-20.827-17.325l-12.307-0.547c-5.06-0.225-19.417-5.703-23.775-8.284L379.81,204.373z"/>
	<path fill="#1F1F89" d="M422.856,193.869c-1.781-4.029-8.936-5.012-12.92-3.135c-0.24,0.113-0.445,0.268-0.668,0.402
		c0.065,0.67,0.255,1.334,0.562,1.824c1.195,1.908,3.436,3.216,5.682,3.372c0,0,0.168,0.444,0.42,1.129
		c0.266-0.293,0.561-0.546,0.904-0.679c0.616-0.24,1.312-0.231,1.949-0.052c2.051,0.577,2.038,3.46,0.625,4.694
		c-0.456,0.399-1.013,0.669-1.588,0.86c-0.069,0.023-0.144,0.029-0.215,0.049c-0.186,2.77-0.016,3.092,0.587,3.958
		C421.448,203.899,425.203,199.179,422.856,193.869z"/>
	<polygon fill="#0A5DE2" points="490.876,226.696 470.423,235.606 446.865,217.502 434.781,234.077 470.406,245.013 491.494,230.87 
		495.976,235.876 497.49,234.407 	"/>
	<circle fill="#AFC6F5" cx="377.437" cy="205.628" r="3.886"/>
	<g>
		<linearGradient id="SVGID_26_" gradientUnits="userSpaceOnUse" x1="211.7769" y1="244.533" x2="239.3595" y2="244.533">
			<stop  offset="0" style="stop-color:#271887"/>
			<stop  offset="1" style="stop-color:#02BFE1"/>
		</linearGradient>
		<path fill="url(#SVGID_26_)" d="M211.777,105.909h27.583v277.248h-27.583V105.909z M236.54,108.728h-21.944v271.609h21.944
			V108.728z"/>
	</g>
	<rect x="208.001" y="368.318" fill="#CDF2F9" width="35.134" height="25.177"/>
	<g>
		<linearGradient id="SVGID_27_" gradientUnits="userSpaceOnUse" x1="212.9409" y1="253.6817" x2="238.8807" y2="253.6817">
			<stop  offset="0" style="stop-color:#271887"/>
			<stop  offset="1" style="stop-color:#02BFE1"/>
		</linearGradient>
		<path fill="url(#SVGID_27_)" d="M213.036,267.552h24.435c0.56,0,1.068-0.332,1.292-0.845c0.224-0.514,0.123-1.111-0.257-1.523
			l-23.495-25.374l-2.069,1.915l21.304,23.007h-21.208V267.552z"/>
	</g>
	<g>
		<linearGradient id="SVGID_28_" gradientUnits="userSpaceOnUse" x1="212.9409" y1="279.7303" x2="238.8807" y2="279.7303">
			<stop  offset="0" style="stop-color:#271887"/>
			<stop  offset="1" style="stop-color:#02BFE1"/>
		</linearGradient>
		<path fill="url(#SVGID_28_)" d="M213.036,293.601h24.435c0.56,0,1.068-0.332,1.292-0.845c0.224-0.514,0.123-1.111-0.257-1.523
			L215.01,265.86l-2.069,1.915l21.304,23.007h-21.208V293.601z"/>
	</g>
	<g>
		<linearGradient id="SVGID_29_" gradientUnits="userSpaceOnUse" x1="212.9409" y1="305.7788" x2="238.8807" y2="305.7788">
			<stop  offset="0" style="stop-color:#271887"/>
			<stop  offset="1" style="stop-color:#02BFE1"/>
		</linearGradient>
		<path fill="url(#SVGID_29_)" d="M213.036,319.65h24.435c0.56,0,1.068-0.332,1.292-0.845c0.224-0.514,0.123-1.111-0.257-1.523
			l-23.495-25.374l-2.069,1.915l21.304,23.007h-21.208V319.65z"/>
	</g>
	<g>
		<linearGradient id="SVGID_30_" gradientUnits="userSpaceOnUse" x1="212.9409" y1="331.8274" x2="238.8807" y2="331.8274">
			<stop  offset="0" style="stop-color:#271887"/>
			<stop  offset="1" style="stop-color:#02BFE1"/>
		</linearGradient>
		<path fill="url(#SVGID_30_)" d="M213.036,345.698h24.435c0.56,0,1.068-0.332,1.292-0.845s0.123-1.111-0.257-1.522l-23.495-25.374
			l-2.069,1.915l21.304,23.007h-21.208V345.698z"/>
	</g>
	<g>
		<linearGradient id="SVGID_31_" gradientUnits="userSpaceOnUse" x1="212.9409" y1="228.2587" x2="238.8807" y2="228.2587">
			<stop  offset="0" style="stop-color:#271887"/>
			<stop  offset="1" style="stop-color:#02BFE1"/>
		</linearGradient>
		<path fill="url(#SVGID_31_)" d="M213.036,242.13h24.435c0.56,0,1.068-0.332,1.292-0.845s0.123-1.111-0.257-1.522l-23.495-25.375
			l-2.069,1.915l21.304,23.008h-21.208V242.13z"/>
	</g>
	<g>
		<linearGradient id="SVGID_32_" gradientUnits="userSpaceOnUse" x1="212.9409" y1="202.7895" x2="238.8807" y2="202.7895">
			<stop  offset="0" style="stop-color:#271887"/>
			<stop  offset="1" style="stop-color:#02BFE1"/>
		</linearGradient>
		<path fill="url(#SVGID_32_)" d="M213.036,216.661h24.435c0.56,0,1.068-0.332,1.292-0.845c0.224-0.513,0.123-1.111-0.257-1.522
			l-23.495-25.375l-2.069,1.915l21.304,23.008h-21.208V216.661z"/>
	</g>
	<g>
		<linearGradient id="SVGID_33_" gradientUnits="userSpaceOnUse" x1="212.9409" y1="177.3663" x2="238.8807" y2="177.3663">
			<stop  offset="0" style="stop-color:#271887"/>
			<stop  offset="1" style="stop-color:#02BFE1"/>
		</linearGradient>
		<path fill="url(#SVGID_33_)" d="M213.036,191.237h24.435c0.56,0,1.068-0.332,1.292-0.845c0.224-0.514,0.123-1.111-0.257-1.522
			l-23.495-25.375l-2.069,1.915l21.304,23.008h-21.208V191.237z"/>
	</g>
	<g>
		<linearGradient id="SVGID_34_" gradientUnits="userSpaceOnUse" x1="212.9409" y1="151.943" x2="238.8807" y2="151.943">
			<stop  offset="0" style="stop-color:#271887"/>
			<stop  offset="1" style="stop-color:#02BFE1"/>
		</linearGradient>
		<path fill="url(#SVGID_34_)" d="M213.036,165.814h24.435c0.56,0,1.068-0.332,1.292-0.845c0.224-0.514,0.123-1.111-0.257-1.522
			l-23.495-25.375l-2.069,1.915l21.304,23.008h-21.208V165.814z"/>
	</g>
	<g>
		<linearGradient id="SVGID_35_" gradientUnits="userSpaceOnUse" x1="212.9409" y1="126.5197" x2="238.8807" y2="126.5197">
			<stop  offset="0" style="stop-color:#271887"/>
			<stop  offset="1" style="stop-color:#02BFE1"/>
		</linearGradient>
		<path fill="url(#SVGID_35_)" d="M213.036,140.391h24.435c0.56,0,1.068-0.332,1.292-0.845s0.123-1.111-0.257-1.522l-23.495-25.375
			l-2.069,1.915l21.304,23.008h-21.208V140.391z"/>
	</g>
	<g>
		<path fill="#3878FF" d="M213.036,114.968h24.435c0.56,0,1.068-0.332,1.292-0.845c0.224-0.514,0.123-1.111-0.257-1.522
			L215.01,87.226l-2.069,1.915l21.304,23.008h-21.208V114.968z"/>
	</g>
	<rect x="211.647" y="77.777" fill="#CDF2F9" width="44.715" height="37.697"/>
	<rect x="144.627" y="77.777" fill="#CDF2F9" width="44.715" height="21.653"/>
	<g>
		<linearGradient id="SVGID_36_" gradientUnits="userSpaceOnUse" x1="143.9593" y1="79.1207" x2="367.6356" y2="79.1207">
			<stop  offset="0" style="stop-color:#271887"/>
			<stop  offset="1" style="stop-color:#02BFE1"/>
		</linearGradient>
		<path fill="url(#SVGID_36_)" d="M145.369,80.53h220.857c0.778,0,1.41-0.631,1.41-1.41s-0.631-1.41-1.41-1.41H145.369
			c-0.779,0-1.41,0.631-1.41,1.41S144.59,80.53,145.369,80.53z"/>
	</g>
	<g>
		<linearGradient id="SVGID_37_" gradientUnits="userSpaceOnUse" x1="355.2611" y1="109.6091" x2="355.2611" y2="166.9877">
			<stop  offset="0" style="stop-color:#271887"/>
			<stop  offset="1" style="stop-color:#02BFE1"/>
		</linearGradient>
		<rect x="354.556" y="80.59" fill="url(#SVGID_37_)" width="1.41" height="96.743"/>
	</g>
	<path fill="#B0D8FF" d="M224.313,78.181"/>
	<rect x="196.017" y="388.994" fill="#3878FF" width="59.101" height="11.079"/>
	<g>
		<linearGradient id="SVGID_38_" gradientUnits="userSpaceOnUse" x1="233.3116" y1="73.4653" x2="366.5308" y2="73.4653">
			<stop  offset="0" style="stop-color:#271887"/>
			<stop  offset="1" style="stop-color:#02BFE1"/>
		</linearGradient>
		<path fill="url(#SVGID_38_)" d="M234.017,80.162c0.18,0,0.361-0.069,0.498-0.207l11.776-11.776h107.965l11.071,11.071
			c0.275,0.275,0.722,0.275,0.997,0c0.275-0.275,0.275-0.721,0-0.997L354.84,66.769H245.707l-12.189,12.189
			c-0.275,0.275-0.275,0.721,0,0.997C233.656,80.093,233.836,80.162,234.017,80.162z"/>
	</g>
	<g>
		<linearGradient id="SVGID_39_" gradientUnits="userSpaceOnUse" x1="143.7236" y1="68.0109" x2="197.8339" y2="68.0109">
			<stop  offset="0" style="stop-color:#271887"/>
			<stop  offset="1" style="stop-color:#02BFE1"/>
		</linearGradient>
		<path fill="url(#SVGID_39_)" d="M144.428,80.162c0.254,0,0.499-0.138,0.625-0.378l11.785-22.514h28.581l11.082,21.801
			c0.177,0.346,0.602,0.483,0.948,0.309c0.347-0.176,0.485-0.601,0.309-0.948L186.283,55.86h-30.299l-12.18,23.27
			c-0.181,0.345-0.048,0.771,0.297,0.951C144.206,80.136,144.318,80.162,144.428,80.162z"/>
	</g>
	<g>
		<linearGradient id="SVGID_40_" gradientUnits="userSpaceOnUse" x1="170.1624" y1="51.5525" x2="325.4043" y2="51.5525">
			<stop  offset="0" style="stop-color:#271887"/>
			<stop  offset="1" style="stop-color:#02BFE1"/>
		</linearGradient>
		<path fill="url(#SVGID_40_)" d="M324.699,68.169c0.302,0,0.582-0.196,0.674-0.499c0.114-0.372-0.096-0.767-0.468-0.88
			L220.539,34.967c-0.159-0.048-0.329-0.04-0.48,0.025l-49.466,20.877c-0.359,0.151-0.527,0.564-0.375,0.923
			c0.151,0.359,0.565,0.527,0.923,0.375l49.23-20.777l104.122,31.748C324.563,68.159,324.631,68.169,324.699,68.169z"/>
	</g>
	<g>
		<linearGradient id="SVGID_41_" gradientUnits="userSpaceOnUse" x1="210.4135" y1="57.2245" x2="238.1627" y2="57.2245">
			<stop  offset="0" style="stop-color:#271887"/>
			<stop  offset="1" style="stop-color:#02BFE1"/>
		</linearGradient>
		<path fill="url(#SVGID_41_)" d="M236.753,80.256c0.167,0,0.336-0.03,0.501-0.093c0.728-0.276,1.093-1.09,0.816-1.819
			l-16.434-43.242c-0.222-0.586-0.801-0.956-1.433-0.904c-0.626,0.052-1.143,0.511-1.266,1.127l-8.496,42.174
			c-0.154,0.763,0.341,1.506,1.104,1.66c0.761,0.149,1.506-0.341,1.66-1.104l7.53-37.385l14.699,38.677
			C235.649,79.909,236.185,80.256,236.753,80.256z"/>
	</g>
	<circle fill="#BCCCFD" cx="220.319" cy="35.603" r="2.841"/>
	<g>
		<linearGradient id="SVGID_42_" gradientUnits="userSpaceOnUse" x1="338.8538" y1="73.5321" x2="355.2544" y2="73.5321">
			<stop  offset="0" style="stop-color:#271887"/>
			<stop  offset="1" style="stop-color:#02BFE1"/>
		</linearGradient>
		<path fill="url(#SVGID_42_)" d="M339.559,80.296c0.156,0,0.312-0.051,0.443-0.157l13.843-11.189v10.462
			c0,0.39,0.315,0.705,0.705,0.705c0.39,0,0.705-0.315,0.705-0.705V67.474c0-0.272-0.156-0.519-0.401-0.636
			c-0.244-0.118-0.536-0.084-0.747,0.088l-14.991,12.117c-0.303,0.244-0.35,0.688-0.105,0.991
			C339.15,80.206,339.354,80.296,339.559,80.296z"/>
	</g>
	<g>
		<linearGradient id="SVGID_43_" gradientUnits="userSpaceOnUse" x1="325.4676" y1="73.5321" x2="341.8687" y2="73.5321">
			<stop  offset="0" style="stop-color:#271887"/>
			<stop  offset="1" style="stop-color:#02BFE1"/>
		</linearGradient>
		<path fill="url(#SVGID_43_)" d="M326.173,80.296c0.156,0,0.312-0.051,0.443-0.157l13.843-11.189v10.462
			c0,0.39,0.315,0.705,0.705,0.705c0.39,0,0.705-0.315,0.705-0.705V67.474c0-0.272-0.156-0.519-0.401-0.636
			c-0.243-0.118-0.535-0.084-0.747,0.088l-14.991,12.117c-0.303,0.244-0.35,0.688-0.105,0.991
			C325.764,80.206,325.967,80.296,326.173,80.296z"/>
	</g>
	<g>
		<linearGradient id="SVGID_44_" gradientUnits="userSpaceOnUse" x1="312.0814" y1="73.5321" x2="328.4827" y2="73.5321">
			<stop  offset="0" style="stop-color:#271887"/>
			<stop  offset="1" style="stop-color:#02BFE1"/>
		</linearGradient>
		<path fill="url(#SVGID_44_)" d="M312.787,80.296c0.156,0,0.312-0.051,0.443-0.157l13.843-11.189v10.462
			c0,0.39,0.315,0.705,0.705,0.705c0.389,0,0.705-0.315,0.705-0.705V67.474c0-0.272-0.156-0.519-0.401-0.636
			c-0.242-0.118-0.535-0.084-0.747,0.088l-14.991,12.117c-0.303,0.244-0.35,0.688-0.105,0.991
			C312.377,80.206,312.581,80.296,312.787,80.296z"/>
	</g>
	<g>
		<linearGradient id="SVGID_45_" gradientUnits="userSpaceOnUse" x1="298.6958" y1="73.5321" x2="315.0963" y2="73.5321">
			<stop  offset="0" style="stop-color:#271887"/>
			<stop  offset="1" style="stop-color:#02BFE1"/>
		</linearGradient>
		<path fill="url(#SVGID_45_)" d="M299.401,80.296c0.156,0,0.312-0.051,0.443-0.157l13.843-11.189v10.462
			c0,0.39,0.315,0.705,0.705,0.705c0.39,0,0.705-0.315,0.705-0.705V67.474c0-0.272-0.156-0.519-0.401-0.636
			c-0.244-0.118-0.534-0.084-0.747,0.088l-14.991,12.117c-0.303,0.244-0.35,0.688-0.104,0.991
			C298.992,80.206,299.196,80.296,299.401,80.296z"/>
	</g>
	<g>
		<linearGradient id="SVGID_46_" gradientUnits="userSpaceOnUse" x1="285.3097" y1="73.5321" x2="301.7108" y2="73.5321">
			<stop  offset="0" style="stop-color:#271887"/>
			<stop  offset="1" style="stop-color:#02BFE1"/>
		</linearGradient>
		<path fill="url(#SVGID_46_)" d="M286.015,80.296c0.156,0,0.312-0.051,0.443-0.157l13.843-11.189v10.462
			c0,0.39,0.315,0.705,0.705,0.705s0.705-0.315,0.705-0.705V67.474c0-0.272-0.156-0.519-0.401-0.636
			c-0.244-0.118-0.534-0.084-0.747,0.088l-14.991,12.117c-0.303,0.244-0.35,0.688-0.105,0.991
			C285.606,80.206,285.81,80.296,286.015,80.296z"/>
	</g>
	<g>
		<linearGradient id="SVGID_47_" gradientUnits="userSpaceOnUse" x1="271.9235" y1="73.5321" x2="288.3248" y2="73.5321">
			<stop  offset="0" style="stop-color:#271887"/>
			<stop  offset="1" style="stop-color:#02BFE1"/>
		</linearGradient>
		<path fill="url(#SVGID_47_)" d="M272.629,80.296c0.156,0,0.312-0.051,0.443-0.157l13.843-11.189v10.462
			c0,0.39,0.315,0.705,0.705,0.705s0.705-0.315,0.705-0.705V67.474c0-0.272-0.156-0.519-0.401-0.636
			c-0.242-0.118-0.535-0.084-0.747,0.088l-14.991,12.117c-0.303,0.244-0.35,0.688-0.105,0.991
			C272.22,80.206,272.423,80.296,272.629,80.296z"/>
	</g>
	<g>
		<linearGradient id="SVGID_48_" gradientUnits="userSpaceOnUse" x1="258.538" y1="73.5321" x2="274.9393" y2="73.5321">
			<stop  offset="0" style="stop-color:#271887"/>
			<stop  offset="1" style="stop-color:#02BFE1"/>
		</linearGradient>
		<path fill="url(#SVGID_48_)" d="M259.244,80.296c0.155,0,0.312-0.051,0.443-0.157L273.53,68.95v10.462
			c0,0.39,0.315,0.705,0.705,0.705s0.705-0.315,0.705-0.705V67.474c0-0.272-0.156-0.519-0.401-0.636
			c-0.242-0.118-0.535-0.084-0.747,0.088L258.8,79.043c-0.303,0.244-0.35,0.688-0.105,0.991
			C258.834,80.206,259.038,80.296,259.244,80.296z"/>
	</g>
	<g>
		<linearGradient id="SVGID_49_" gradientUnits="userSpaceOnUse" x1="245.1517" y1="73.5321" x2="261.5531" y2="73.5321">
			<stop  offset="0" style="stop-color:#271887"/>
			<stop  offset="1" style="stop-color:#02BFE1"/>
		</linearGradient>
		<path fill="url(#SVGID_49_)" d="M245.857,80.296c0.156,0,0.312-0.051,0.443-0.157l13.843-11.189v10.462
			c0,0.39,0.315,0.705,0.705,0.705c0.389,0,0.705-0.315,0.705-0.705V67.474c0-0.272-0.156-0.519-0.401-0.636
			c-0.244-0.118-0.536-0.084-0.747,0.088l-14.991,12.117c-0.303,0.244-0.35,0.688-0.105,0.991
			C245.448,80.206,245.652,80.296,245.857,80.296z"/>
	</g>
	<g>
		<linearGradient id="SVGID_50_" gradientUnits="userSpaceOnUse" x1="166.0187" y1="68.2484" x2="186.6496" y2="68.2484">
			<stop  offset="0" style="stop-color:#271887"/>
			<stop  offset="1" style="stop-color:#02BFE1"/>
		</linearGradient>
		<path fill="url(#SVGID_50_)" d="M166.723,80.296c0.2,0,0.399-0.085,0.538-0.249l17.979-21.218v20.583
			c0,0.39,0.315,0.705,0.705,0.705c0.39,0,0.705-0.315,0.705-0.705V56.907c0-0.296-0.185-0.56-0.462-0.661
			c-0.279-0.103-0.589-0.021-0.781,0.206l-19.221,22.684c-0.252,0.297-0.215,0.742,0.082,0.993
			C166.4,80.241,166.562,80.296,166.723,80.296z"/>
	</g>
	<g>
		<linearGradient id="SVGID_51_" gradientUnits="userSpaceOnUse" x1="152.1912" y1="68.2492" x2="168.5923" y2="68.2492">
			<stop  offset="0" style="stop-color:#271887"/>
			<stop  offset="1" style="stop-color:#02BFE1"/>
		</linearGradient>
		<path fill="url(#SVGID_51_)" d="M152.895,80.296c0.229,0,0.453-0.111,0.589-0.316l13.699-20.728v20.16
			c0,0.39,0.315,0.705,0.705,0.705c0.39,0,0.705-0.315,0.705-0.705V56.907c0-0.311-0.204-0.586-0.502-0.675
			c-0.301-0.087-0.62,0.027-0.791,0.286l-14.991,22.684c-0.215,0.325-0.125,0.762,0.199,0.977
			C152.627,80.258,152.762,80.296,152.895,80.296z"/>
	</g>
	<circle fill="#1F1F89" cx="355.261" cy="179.212" r="4.438"/>
	<linearGradient id="SVGID_52_" gradientUnits="userSpaceOnUse" x1="170.623" y1="401.1233" x2="277.7608" y2="401.1233">
		<stop  offset="0" style="stop-color:#271887"/>
		<stop  offset="1" style="stop-color:#02BFE1"/>
	</linearGradient>
	
		<line fill="#FBFBFD" stroke="url(#SVGID_52_)" stroke-width="2" stroke-miterlimit="10" x1="170.623" y1="401.123" x2="277.761" y2="401.123"/>
	<polygon fill="#F76D59" points="705.416,326.879 703.816,304.777 706.289,288.509 714.684,240.568 710.629,239.989 
		701.361,282.275 686.88,283.434 671.819,240.568 667.764,241.147 678.77,286.909 682.632,304.402 682.178,325.72 	"/>
	<polygon fill="#1F1F89" points="685.46,267.792 684.033,280.431 692.636,281.117 697.896,267.792 	"/>
	<circle fill="#F7F5EF" cx="692.636" cy="272.428" r="8.689"/>
	<linearGradient id="SVGID_53_" gradientUnits="userSpaceOnUse" x1="664.5297" y1="214.4474" x2="719.1314" y2="214.4474">
		<stop  offset="0" style="stop-color:#271887"/>
		<stop  offset="1" style="stop-color:#02BFE1"/>
	</linearGradient>
	<path fill="url(#SVGID_53_)" d="M708.697,187.147h-33.733c-5.763,0-10.434,4.672-10.434,10.434v33.733
		c0,5.763,4.672,10.434,10.434,10.434h33.733c5.763,0,10.434-4.672,10.434-10.434v-33.733
		C719.131,191.818,714.46,187.147,708.697,187.147z"/>
	<path fill="#1F1F89" d="M695.825,271.85c0.17,0.082,0.366,0.16,0.542,0.091c0.176-0.068,0.267-0.256,0.382-0.406
		c0.451-0.588,1.438-0.587,1.964-0.065c0.526,0.522,0.578,1.412,0.214,2.057c-0.365,0.645-1.076,1.047-1.809,1.156
		c-0.482,1.72-0.68,3.519-0.586,5.302c1.193,0.088,2.387,0.176,3.58,0.264c0.232,0.017,0.488,0.027,0.672-0.115
		c0.172-0.134,0.232-0.364,0.279-0.577c0.445-2.047,0.669-4.142,0.665-6.237c-0.004-2.04-0.248-4.156-1.301-5.904
		c-1.261-2.094-6.435-5.537-8.959-3.606C688.687,265.939,693.902,270.925,695.825,271.85z"/>
	<path fill="#1F1F89" d="M688.628,268.86c-1.47,1.44-3.378,2.537-5.433,2.627c-0.094-2.296,0.915-4.613,2.659-6.109
		c0.981-0.841,4.276-2.702,5.625-1.809C692.876,264.495,689.622,267.886,688.628,268.86z"/>
	<polygon fill="#0A5DE2" points="704.57,311.202 682.416,310.166 665.373,386.5 657.465,381.686 667.092,393.377 689.785,330.456 
		689.441,358.994 704.828,379.382 705.81,386.739 706.218,389.868 708.96,389.542 709.458,378.328 697.547,358.961 705.952,326.9 	
		"/>
	<polygon fill="#F7F5EF" points="705.969,261.25 710.768,262.932 714.684,240.568 710.629,239.989 	"/>
	<polygon fill="#F7F5EF" points="678.037,258.268 672.415,260.486 667.764,241.147 671.819,240.568 	"/>
	<polygon fill="#F7F5EF" points="696.83,282.638 692.672,290.02 690.579,283.138 	"/>
	<circle fill="#F7F5EF" cx="669.425" cy="238.251" r="3.476"/>
	<circle fill="#F7F5EF" cx="713.057" cy="238.901" r="3.476"/>
	<linearGradient id="SVGID_54_" gradientUnits="userSpaceOnUse" x1="685.274" y1="323.2284" x2="673.1781" y2="353.4681">
		<stop  offset="0" style="stop-color:#241084;stop-opacity:0.8"/>
		<stop  offset="0.9896" style="stop-color:#0A5DE2;stop-opacity:0"/>
	</linearGradient>
	<path fill="url(#SVGID_54_)" d="M683.545,347.759l5.351-14.837l0.5-4.713l-6.98-18.043l-7.403,33.157
		C678.181,345.016,681.273,346.606,683.545,347.759z"/>
	<g>
		<g>
			<circle fill="#F7F5EF" cx="691.707" cy="205.142" r="7.147"/>
			<path fill="#F7F5EF" d="M705.751,226.821c-0.129-7.454-6.201-13.46-13.687-13.46c-7.485,0-13.558,6.006-13.687,13.46H705.751z"/>
		</g>
	</g>
	<linearGradient id="SVGID_55_" gradientUnits="userSpaceOnUse" x1="637.4271" y1="391.9669" x2="744.5649" y2="391.9669">
		<stop  offset="0" style="stop-color:#271887"/>
		<stop  offset="1" style="stop-color:#02BFE1"/>
	</linearGradient>
	
		<line fill="#FBFBFD" stroke="url(#SVGID_55_)" stroke-width="2" stroke-miterlimit="10" x1="637.427" y1="391.967" x2="744.565" y2="391.967"/>
	<linearGradient id="SVGID_56_" gradientUnits="userSpaceOnUse" x1="404.8217" y1="412.408" x2="511.9595" y2="412.408">
		<stop  offset="0" style="stop-color:#271887"/>
		<stop  offset="1" style="stop-color:#02BFE1"/>
	</linearGradient>
	
		<line fill="#FBFBFD" stroke="url(#SVGID_56_)" stroke-width="2" stroke-miterlimit="10" x1="404.822" y1="412.408" x2="511.96" y2="412.408"/>
	<linearGradient id="SVGID_57_" gradientUnits="userSpaceOnUse" x1="250.07" y1="265.1976" x2="304.6717" y2="265.1976">
		<stop  offset="0" style="stop-color:#271887"/>
		<stop  offset="1" style="stop-color:#02BFE1"/>
	</linearGradient>
	<path fill="url(#SVGID_57_)" d="M294.237,237.897h-33.733c-5.763,0-10.434,4.672-10.434,10.434v33.733
		c0,5.763,4.672,10.434,10.434,10.434h33.733c5.763,0,10.434-4.672,10.434-10.434v-33.733
		C304.672,242.568,300,237.897,294.237,237.897z"/>
	<polygon fill="#F7F5EF" points="263.145,381.107 259.034,338.818 253.747,293.592 257.859,293.005 267.257,335.881 281.94,337.056 
		297.211,293.592 301.323,294.18 290.163,340.58 290.75,379.932 	"/>
	<circle fill="#F76D59" cx="256.684" cy="291.243" r="3.524"/>
	<circle fill="#F76D59" cx="297.799" cy="292.418" r="3.524"/>
	<circle fill="#F76D59" cx="274.933" cy="323.031" r="8.963"/>
	<circle fill="#1F1F89" cx="274.933" cy="324.441" r="8.963"/>
	<polygon fill="#3878FF" points="290.75,379.932 286.675,444.796 282.187,444.796 278.377,380.459 274.37,380.629 271.919,446.383 
		268.458,446.303 263.145,381.107 262.364,373.075 290.653,373.444 	"/>
	<polygon fill="#3878FF" points="286.675,444.796 296.541,445.883 296.185,447.412 281.735,447.412 282.187,444.796 	"/>
	<polygon fill="#3878FF" points="271.919,446.383 271.919,448.225 258.367,448.737 258.367,447.043 268.458,446.303 	"/>
	<linearGradient id="SVGID_58_" gradientUnits="userSpaceOnUse" x1="242.7037" y1="448.3562" x2="321.6452" y2="448.3562">
		<stop  offset="0" style="stop-color:#271887"/>
		<stop  offset="1" style="stop-color:#02BFE1"/>
	</linearGradient>
	
		<line fill="#FBFBFD" stroke="url(#SVGID_58_)" stroke-width="2" stroke-miterlimit="10" x1="242.704" y1="448.356" x2="321.645" y2="448.356"/>
	<g>
		<path fill="#80392E" d="M396.785,463.919c0.001,0.107-0.016,0.214-0.042,0.321c-0.006,0.026-0.016,0.051-0.024,0.077
			c-0.027,0.087-0.063,0.174-0.108,0.26c-0.01,0.019-0.018,0.038-0.029,0.057c-0.058,0.1-0.129,0.2-0.212,0.299
			c-0.019,0.022-0.039,0.044-0.059,0.066c-0.081,0.091-0.172,0.181-0.274,0.27c-0.013,0.012-0.025,0.023-0.038,0.035
			c-0.115,0.097-0.245,0.192-0.384,0.286c-0.038,0.026-0.08,0.051-0.12,0.077c-0.113,0.072-0.236,0.143-0.364,0.212
			c-0.05,0.027-0.098,0.055-0.151,0.082c-0.136,0.07-0.285,0.138-0.436,0.205c-0.058,0.026-0.111,0.053-0.172,0.078
			c-0.22,0.093-0.453,0.183-0.704,0.269l-24.036,8.318c-0.226,0.078-0.485,0.136-0.725,0.206c-0.354,0.103-0.704,0.207-1.085,0.292
			c-0.458,0.102-0.934,0.188-1.422,0.263c-0.297,0.046-0.603,0.079-0.908,0.115c-0.378,0.044-0.754,0.092-1.14,0.121
			c-0.078,0.006-0.156,0.012-0.235,0.017c-0.618,0.041-1.242,0.067-1.867,0.07c-0.014,0-0.028,0-0.042,0
			c-0.655,0.002-1.31-0.016-1.955-0.056c-0.008-0.001-0.015-0.001-0.023-0.002c-0.645-0.041-1.28-0.103-1.896-0.186
			c-0.015-0.002-0.03-0.005-0.045-0.007c-0.603-0.082-1.186-0.186-1.742-0.309c-0.018-0.004-0.037-0.007-0.055-0.011
			c-0.569-0.128-1.109-0.277-1.609-0.448l-23.671-8.108c-0.133-0.046-0.249-0.094-0.373-0.142c-0.11-0.042-0.229-0.083-0.332-0.126
			c-0.112-0.047-0.208-0.097-0.311-0.145c-0.099-0.046-0.205-0.091-0.296-0.139c-0.089-0.047-0.164-0.096-0.246-0.143
			c-0.09-0.052-0.187-0.103-0.268-0.156c-0.073-0.048-0.132-0.098-0.198-0.147c-0.075-0.055-0.157-0.109-0.223-0.165
			c-0.065-0.055-0.114-0.112-0.171-0.168c-0.052-0.052-0.112-0.103-0.158-0.155c-0.058-0.068-0.1-0.136-0.146-0.205
			c-0.028-0.042-0.065-0.083-0.089-0.126c-0.031-0.055-0.047-0.111-0.071-0.167c-0.071-0.169-0.119-0.338-0.121-0.509l0.085,10.588
			c0.001,0.17,0.049,0.34,0.121,0.509c0.024,0.056,0.039,0.112,0.071,0.167c0.024,0.042,0.061,0.084,0.089,0.126
			c0.046,0.069,0.087,0.137,0.146,0.205c0.039,0.046,0.092,0.09,0.137,0.135c0.062,0.063,0.119,0.126,0.191,0.188
			c0.046,0.039,0.104,0.076,0.154,0.114c0.086,0.066,0.168,0.133,0.267,0.198c0.061,0.04,0.135,0.078,0.2,0.117
			c0.103,0.061,0.2,0.123,0.315,0.183c0.065,0.034,0.143,0.066,0.212,0.099c0.129,0.062,0.254,0.125,0.395,0.185
			c0.086,0.036,0.186,0.07,0.277,0.105c0.137,0.053,0.269,0.108,0.418,0.159c0.003,0.001,0.006,0.002,0.009,0.003l23.671,8.108
			c0.266,0.091,0.543,0.176,0.83,0.255c0.236,0.065,0.479,0.126,0.727,0.182c0.017,0.004,0.035,0.007,0.052,0.011
			c0.017,0.004,0.034,0.007,0.051,0.011c0.187,0.041,0.375,0.082,0.568,0.119c0.211,0.04,0.426,0.078,0.643,0.113
			c0.175,0.028,0.354,0.053,0.533,0.078c0.015,0.002,0.029,0.005,0.045,0.007c0.018,0.002,0.035,0.005,0.052,0.008
			c0.206,0.027,0.415,0.052,0.625,0.075c0.208,0.022,0.417,0.042,0.628,0.06c0.196,0.016,0.393,0.03,0.591,0.043
			c0.008,0.001,0.015,0.001,0.023,0.002c0.008,0.001,0.017,0.001,0.025,0.002c0.217,0.013,0.434,0.024,0.653,0.033
			c0.223,0.009,0.446,0.015,0.67,0.018c0.203,0.003,0.407,0.004,0.611,0.003c0.012,0,0.024,0,0.036,0c0.015,0,0.03,0,0.045,0
			c0.242-0.002,0.485-0.006,0.727-0.013c0.266-0.008,0.532-0.02,0.797-0.035c0.1-0.006,0.199-0.015,0.299-0.022
			c0.08-0.005,0.158-0.012,0.238-0.017c0.146-0.011,0.294-0.019,0.44-0.032c0.238-0.022,0.464-0.061,0.699-0.089
			c0.307-0.036,0.612-0.07,0.911-0.115c0.086-0.013,0.178-0.019,0.264-0.033c0.349-0.058,0.691-0.122,1.024-0.194
			c0.047-0.01,0.086-0.025,0.132-0.036c0.383-0.085,0.735-0.19,1.091-0.293c0.185-0.054,0.391-0.094,0.567-0.153
			c0.051-0.017,0.102-0.034,0.152-0.051l24.036-8.318c0.238-0.083,0.463-0.168,0.674-0.256c0.01-0.004,0.018-0.009,0.028-0.013
			c0.063-0.027,0.118-0.055,0.179-0.082c0.121-0.054,0.246-0.107,0.358-0.163c0.025-0.013,0.047-0.026,0.071-0.039
			c0.053-0.027,0.102-0.055,0.153-0.083c0.07-0.038,0.145-0.076,0.211-0.115c0.054-0.032,0.1-0.065,0.151-0.097
			c0.041-0.026,0.082-0.052,0.121-0.078c0.025-0.017,0.055-0.034,0.079-0.051c0.103-0.072,0.199-0.145,0.288-0.219
			c0.006-0.005,0.01-0.01,0.016-0.015c0.014-0.012,0.026-0.024,0.04-0.036c0.063-0.055,0.126-0.11,0.181-0.166
			c0.034-0.034,0.061-0.069,0.092-0.103c0.02-0.022,0.04-0.044,0.058-0.066c0.014-0.017,0.031-0.033,0.044-0.05
			c0.058-0.074,0.11-0.148,0.154-0.223c0.005-0.009,0.008-0.018,0.013-0.027c0.011-0.019,0.019-0.038,0.029-0.058
			c0.025-0.048,0.053-0.096,0.072-0.145c0.016-0.038,0.024-0.077,0.036-0.115c0.008-0.025,0.017-0.05,0.023-0.076
			c0.004-0.016,0.011-0.032,0.015-0.048c0.018-0.084,0.027-0.169,0.028-0.253c0-0.007,0-0.014,0-0.021L396.785,463.919z"/>
		<g>
			<path fill="#F76D59" d="M393.791,461.432c4.042,1.384,3.982,3.661-0.122,5.081l-24.036,8.318
				c-4.104,1.42-10.707,1.449-14.748,0.065l-23.671-8.108c-4.042-1.384-4-3.661,0.104-5.081l24.036-8.318
				c4.104-1.42,10.725-1.449,14.766-0.065L393.791,461.432z"/>
		</g>
	</g>
	<g>
		<path fill="#1F1F89" d="M489.97,454.842c0.001,0.107-0.016,0.214-0.042,0.321c-0.006,0.026-0.016,0.051-0.024,0.077
			c-0.027,0.087-0.063,0.174-0.108,0.26c-0.01,0.019-0.018,0.038-0.029,0.057c-0.058,0.101-0.129,0.2-0.212,0.299
			c-0.019,0.022-0.039,0.044-0.059,0.066c-0.081,0.091-0.172,0.181-0.274,0.27c-0.013,0.012-0.025,0.023-0.038,0.035
			c-0.115,0.097-0.245,0.192-0.384,0.286c-0.038,0.026-0.079,0.051-0.12,0.077c-0.113,0.072-0.235,0.143-0.364,0.212
			c-0.05,0.027-0.098,0.055-0.151,0.082c-0.136,0.07-0.285,0.138-0.436,0.205c-0.058,0.026-0.111,0.053-0.172,0.078
			c-0.22,0.093-0.453,0.183-0.704,0.269l-24.036,8.318c-0.226,0.078-0.485,0.136-0.725,0.206c-0.354,0.103-0.704,0.207-1.085,0.292
			c-0.458,0.102-0.934,0.188-1.422,0.263c-0.297,0.046-0.603,0.079-0.908,0.115c-0.378,0.044-0.753,0.092-1.14,0.121
			c-0.078,0.006-0.156,0.012-0.235,0.017c-0.618,0.041-1.242,0.067-1.867,0.07c-0.014,0-0.028,0-0.042,0
			c-0.655,0.002-1.31-0.016-1.955-0.056c-0.008-0.001-0.015-0.001-0.023-0.002c-0.645-0.041-1.28-0.102-1.896-0.186
			c-0.015-0.002-0.03-0.005-0.045-0.007c-0.603-0.082-1.186-0.186-1.742-0.309c-0.018-0.004-0.037-0.007-0.055-0.011
			c-0.569-0.128-1.109-0.277-1.609-0.448l-23.671-8.108c-0.133-0.046-0.249-0.094-0.373-0.142c-0.11-0.042-0.229-0.083-0.332-0.126
			c-0.112-0.047-0.208-0.097-0.311-0.145c-0.099-0.046-0.205-0.091-0.296-0.139c-0.089-0.047-0.164-0.096-0.246-0.143
			c-0.09-0.052-0.187-0.103-0.268-0.156c-0.073-0.048-0.132-0.098-0.198-0.147c-0.075-0.055-0.157-0.109-0.223-0.165
			c-0.065-0.055-0.114-0.112-0.171-0.168c-0.052-0.052-0.113-0.103-0.158-0.155c-0.058-0.068-0.1-0.136-0.146-0.205
			c-0.028-0.042-0.065-0.083-0.089-0.126c-0.031-0.055-0.047-0.111-0.071-0.167c-0.071-0.169-0.119-0.338-0.121-0.509l0.085,10.588
			c0.001,0.17,0.049,0.34,0.121,0.509c0.024,0.056,0.039,0.112,0.071,0.167c0.024,0.042,0.061,0.084,0.089,0.126
			c0.046,0.069,0.087,0.137,0.146,0.205c0.039,0.046,0.093,0.09,0.137,0.135c0.062,0.063,0.119,0.126,0.191,0.188
			c0.046,0.039,0.104,0.076,0.154,0.114c0.086,0.066,0.168,0.133,0.267,0.198c0.061,0.04,0.135,0.078,0.2,0.117
			c0.103,0.061,0.2,0.123,0.315,0.183c0.065,0.034,0.143,0.066,0.212,0.099c0.129,0.062,0.254,0.125,0.395,0.185
			c0.086,0.036,0.186,0.07,0.277,0.105c0.137,0.053,0.269,0.108,0.418,0.159c0.003,0.001,0.007,0.002,0.01,0.003l23.671,8.108
			c0.266,0.091,0.543,0.176,0.83,0.255c0.236,0.065,0.479,0.126,0.727,0.182c0.017,0.004,0.035,0.007,0.052,0.011
			c0.017,0.004,0.034,0.007,0.051,0.011c0.187,0.041,0.375,0.082,0.568,0.119c0.211,0.04,0.426,0.078,0.643,0.113
			c0.175,0.028,0.354,0.053,0.533,0.078c0.015,0.002,0.03,0.005,0.045,0.007c0.018,0.002,0.035,0.005,0.052,0.008
			c0.206,0.027,0.415,0.052,0.625,0.075c0.208,0.022,0.417,0.042,0.628,0.06c0.196,0.016,0.393,0.03,0.591,0.043
			c0.008,0.001,0.015,0.001,0.023,0.002c0.008,0.001,0.017,0.001,0.025,0.002c0.217,0.013,0.434,0.024,0.653,0.033
			c0.223,0.009,0.446,0.015,0.67,0.018c0.203,0.003,0.407,0.004,0.611,0.003c0.012,0,0.024,0,0.036,0c0.015,0,0.03,0,0.045,0
			c0.242-0.002,0.485-0.006,0.727-0.013c0.266-0.008,0.532-0.02,0.797-0.035c0.1-0.006,0.199-0.015,0.299-0.022
			c0.08-0.005,0.158-0.012,0.238-0.017c0.146-0.011,0.294-0.019,0.44-0.032c0.238-0.022,0.464-0.061,0.699-0.089
			c0.307-0.036,0.612-0.069,0.911-0.115c0.086-0.013,0.178-0.019,0.264-0.033c0.349-0.058,0.691-0.122,1.024-0.194
			c0.047-0.01,0.086-0.025,0.132-0.036c0.383-0.085,0.735-0.19,1.091-0.293c0.185-0.054,0.391-0.094,0.567-0.153
			c0.051-0.017,0.102-0.034,0.152-0.051l24.036-8.318c0.238-0.083,0.463-0.168,0.674-0.256c0.01-0.004,0.018-0.009,0.028-0.013
			c0.063-0.027,0.118-0.055,0.179-0.082c0.121-0.054,0.246-0.107,0.358-0.163c0.025-0.013,0.047-0.026,0.071-0.039
			c0.053-0.027,0.102-0.055,0.153-0.083c0.07-0.038,0.145-0.076,0.211-0.115c0.054-0.032,0.1-0.065,0.151-0.097
			c0.041-0.026,0.082-0.052,0.121-0.078c0.025-0.017,0.055-0.034,0.079-0.051c0.103-0.072,0.199-0.145,0.288-0.219
			c0.006-0.005,0.01-0.01,0.016-0.015c0.014-0.012,0.026-0.024,0.04-0.036c0.063-0.055,0.126-0.11,0.181-0.166
			c0.034-0.034,0.061-0.069,0.092-0.103c0.02-0.022,0.04-0.044,0.058-0.066c0.014-0.017,0.031-0.033,0.044-0.05
			c0.058-0.074,0.11-0.148,0.154-0.223c0.005-0.009,0.008-0.018,0.013-0.027c0.011-0.019,0.019-0.038,0.029-0.058
			c0.025-0.048,0.053-0.096,0.072-0.145c0.016-0.038,0.024-0.077,0.036-0.115c0.008-0.025,0.017-0.05,0.023-0.076
			c0.004-0.016,0.011-0.032,0.015-0.048c0.018-0.084,0.027-0.169,0.028-0.253c0-0.007,0-0.014,0-0.021L489.97,454.842z"/>
		<g>
			<path fill="#3878FF" d="M486.976,452.356c4.042,1.384,3.982,3.661-0.122,5.081l-24.036,8.318
				c-4.104,1.42-10.707,1.449-14.748,0.065l-23.671-8.108c-4.042-1.384-4-3.661,0.104-5.081l24.036-8.318
				c4.104-1.42,10.724-1.449,14.766-0.065L486.976,452.356z"/>
		</g>
	</g>
	<linearGradient id="SVGID_59_" gradientUnits="userSpaceOnUse" x1="339.1008" y1="323.0904" x2="399.3627" y2="323.0904">
		<stop  offset="0" style="stop-color:#271887"/>
		<stop  offset="1" style="stop-color:#02BFE1"/>
	</linearGradient>
	<path fill="url(#SVGID_59_)" d="M383.113,351.144c-0.288,0-0.576,0-0.864,0c-2.288-0.014-4.304-0.97-6.365-1.803
		c-3.447-1.393-6.919-1.305-10.382-0.031c-0.629,0.231-1.252,0.482-1.862,0.764c-1.402,0.649-2.877,1.005-4.422,1.069
		c-0.336,0-0.672,0-1.008,0c-0.278-0.156-0.579-0.036-0.867-0.074c-1.758,0.022-3.094-0.933-4.365-1.96
		c-2.899-2.342-4.952-5.4-6.919-8.497c-3.255-5.125-5.308-10.734-6.364-16.701c-0.728-4.115-0.845-8.259-0.034-12.371
		c0.804-4.076,2.477-7.785,5.428-10.774c2.966-3.005,6.547-4.851,10.791-5.403c2.998-0.39,5.747,0.398,8.48,1.435
		c1.143,0.434,2.274,0.901,3.439,1.277c1.297,0.419,2.575,0.453,3.879-0.001c1.586-0.552,3.143-1.18,4.723-1.747
		c2.021-0.726,4.077-1.301,6.234-1.29c4.782,0.024,9.05,1.478,12.627,4.735c0.693,0.631,1.263,1.379,1.818,2.132
		c0.468,0.635,0.425,0.787-0.245,1.263c-2.405,1.711-4.347,3.823-5.656,6.492c-1.487,3.033-1.874,6.225-1.341,9.528
		c0.857,5.306,3.838,9.09,8.488,11.643c0.084,0.046,0.172,0.086,0.257,0.13c0.833,0.43,0.927,0.607,0.61,1.467
		c-0.571,1.553-1.162,3.099-1.897,4.584c-1.927,3.893-4.356,7.454-7.263,10.67c-1.173,1.297-2.584,2.344-4.26,2.996
		C384.904,351.016,383.998,350.982,383.113,351.144z"/>
	<linearGradient id="SVGID_60_" gradientUnits="userSpaceOnUse" x1="369.1153" y1="285.967" x2="384.025" y2="285.967">
		<stop  offset="0" style="stop-color:#271887"/>
		<stop  offset="1" style="stop-color:#02BFE1"/>
	</linearGradient>
	<path fill="url(#SVGID_60_)" d="M383.977,277.446c0.323,4.344-0.998,8.181-3.693,11.541c-2.398,2.989-5.471,4.894-9.323,5.418
		c-1.702,0.231-1.927,0.074-1.824-1.655c0.303-5.044,2.598-9.046,6.574-12.081c2.197-1.677,4.67-2.797,7.455-3.124
		c0.034-0.004,0.061-0.064,0.092-0.098C383.497,277.446,383.737,277.446,383.977,277.446z"/>
	<path fill="#FEFEFE" d="M359.219,351.144c2.548-0.283,4.768-1.573,7.162-2.327c3.316-1.044,6.586-0.903,9.804,0.427
		c1.607,0.664,3.188,1.402,4.929,1.691c0.377,0.063,0.804-0.103,1.136,0.209C374.573,351.144,366.896,351.144,359.219,351.144z"/>
	<path fill="#474747" d="M357.348,351.144c0.03-0.049,0.024-0.092-0.017-0.131c0.305-0.033,0.611-0.07,0.881,0.131
		C357.924,351.144,357.636,351.144,357.348,351.144z"/>
</g>
<g id="DESIGNED_BY_FREEPIK">
</g>
</svg>
