<?xml version="1.0" encoding="utf-8"?>
<!-- Generator: Adobe Illustrator 17.0.0, SVG Export Plug-In . SVG Version: 6.00 Build 0)  -->
<!DOCTYPE svg PUBLIC "-//W3C//DTD SVG 1.1//EN" "http://www.w3.org/Graphics/SVG/1.1/DTD/svg11.dtd">
<svg version="1.1" id="Layer_1" xmlns="http://www.w3.org/2000/svg" xmlns:xlink="http://www.w3.org/1999/xlink" x="0px" y="0px"
	 width="4000px" height="2000px" viewBox="0 0 4000 2000" enable-background="new 0 0 4000 2000" xml:space="preserve">
<path fill="#CAF0F8" d="M1283.024,1439.216c0,0-193.14,37.938-210.385-148.304c-17.244-186.242,265.568-148.304,172.447-334.546
	c-93.121-186.242-303.506-127.611-296.608-427.667c6.898-300.057,348.342-282.812,403.524-168.997
	c55.183,113.815,248.323,168.997,413.871,89.672c165.549-79.325,403.525-237.976,593.216-189.691
	c189.691,48.285,248.323,134.508,237.976,275.914c-10.347,141.406-65.53,296.608,58.631,396.626
	c124.162,100.019,234.527,331.097,0,462.156c0,0-75.876,44.296-124.161,48.015L1283.024,1439.216z"/>
<path fill="#CDF2F9" d="M218.841,1006.807l-0.368,0.016c44.624-46.622,23.645-98.127,15.557-113.799
	c-0.018-0.026-0.027-0.053-0.046-0.079c-1.562-3.02-2.684-4.825-2.684-4.825l0.404,0.078c-12.936-25.5-20.378-54.254-20.378-84.801
	c0-51.909,21.042-98.903,55.055-132.92c31.258-41.374,7.604-96.38,7.604-96.38h0.072c-4.884-13.838-7.676-28.661-7.676-44.169
	c0-73.41,59.508-132.919,132.921-132.919c73.413,0,132.92,59.509,132.92,132.919c0,15.508-2.792,30.332-7.676,44.169h0.073
	c0,0-23.654,55.007,7.603,96.38c34.013,34.017,55.056,81.011,55.056,132.92c0,30.526-7.433,59.26-20.351,84.748l0.135-0.025
	c0,0-0.234,0.37-0.584,0.955c-1.059,2.075-2.118,4.149-3.259,6.179c-8.349,17.258-24.435,63.311,12.343,106.48
	c1.131,1.333,2.29,2.637,3.393,3.995c0.341,0.363,0.584,0.732,0.934,1.095l-0.116-0.004c31.796,39.63,50.925,89.867,50.925,144.631
	c0,127.799-103.602,231.398-231.396,231.398c-127.795,0-231.397-103.599-231.397-231.398
	C167.907,1096.681,187.037,1046.437,218.841,1006.807z"/>
<linearGradient id="SVGID_1_" gradientUnits="userSpaceOnUse" x1="399.3041" y1="1456.7804" x2="399.3041" y2="1013.747">
	<stop  offset="0" style="stop-color:#271887"/>
	<stop  offset="1" style="stop-color:#02BFE1"/>
</linearGradient>
<path fill="url(#SVGID_1_)" d="M331.277,1131.662l56.68,56.075V990.7l-69.606-68.856c-3.609-3.573-3.644-9.39-0.072-12.998
	c3.573-3.617,9.39-3.636,12.998-0.072l56.68,56.069V693.051c0-5.081,4.112-9.193,9.192-9.193c5.081,0,9.193,4.112,9.193,9.193
	v163.792l55.118-54.804c3.591-3.574,9.408-3.574,12.998,0.036c3.573,3.599,3.573,9.416-0.036,12.998l-68.08,67.692v197.89
	l60.916-61.538c3.555-3.617,9.372-3.636,12.998-0.072c3.609,3.573,3.645,9.39,0.073,12.998l-73.988,74.742v524.968
	c0,5.08-4.112,9.192-9.193,9.192c-5.08,0-9.192-4.112-9.192-9.192v-418.159l-69.606-68.863c-3.609-3.573-3.644-9.39-0.072-12.999
	C321.851,1128.115,327.669,1128.098,331.277,1131.662z"/>
<line fill="none" stroke="#B0D5F7" stroke-width="1.8871" stroke-linecap="round" stroke-linejoin="round" stroke-miterlimit="10" x1="294.005" y1="1640.712" x2="497.185" y2="1640.712"/>
<linearGradient id="SVGID_2_" gradientUnits="userSpaceOnUse" x1="1058.3276" y1="1135.6713" x2="2704.1384" y2="1135.6713">
	<stop  offset="0" style="stop-color:#271887"/>
	<stop  offset="1" style="stop-color:#02BFE1"/>
</linearGradient>
<rect x="1063.328" y="626.26" fill="#FBFBFD" stroke="url(#SVGID_2_)" stroke-width="10" stroke-miterlimit="10" width="1635.811" height="1018.822"/>
<linearGradient id="SVGID_3_" gradientUnits="userSpaceOnUse" x1="1058.3276" y1="577.0798" x2="2704.1384" y2="577.0798">
	<stop  offset="0" style="stop-color:#271887"/>
	<stop  offset="1" style="stop-color:#02BFE1"/>
</linearGradient>
<path fill="#CDF2F9" stroke="url(#SVGID_3_)" stroke-width="10" stroke-miterlimit="10" d="M2660.402,527.899H1102.064
	c-21.393,0-38.736,17.343-38.736,38.736v59.625h1635.811v-59.625C2699.138,545.242,2681.796,527.899,2660.402,527.899z"/>
<g>
	<circle fill="#FFFFFF" cx="1173.28" cy="577.08" r="19.857"/>
	<circle fill="#FFFFFF" cx="1232.121" cy="577.08" r="19.857"/>
	<circle fill="#FFFFFF" cx="1290.962" cy="577.08" r="19.857"/>
</g>
<path fill="#FBFBFB" d="M2060.592,1729.772c15.122-0.105,28.005,12.396,28.36,27.521c0.372,15.828-13.019,29.241-28.797,28.846
	c-15.135-0.379-27.639-13.293-27.509-28.409C2032.778,1742.605,2045.5,1729.877,2060.592,1729.772z"/>
<path fill="#FBFBFB" d="M2019.122,996.305c-0.085-15.121,12.439-28.008,27.546-28.345c15.789-0.352,29.201,13.106,28.776,28.873
	c-0.409,15.17-13.305,27.636-28.427,27.48C2031.887,1024.157,2019.207,1011.425,2019.122,996.305z"/>
<g>
	<path fill="#2BC0E4" d="M1772.329,1969.278c-5.832,0.001-12.128-1.371-18.713-4.076c-46.557-19.125-87.535-36.142-125.275-52.023
		c-21.197-8.92-29.39-28.507-20.873-49.898c9.967-25.033,18.399-45.27,26.537-63.685c3.534-7.996,2.344-13.103-4.244-18.212
		c-24.888-19.302-47.235-41.675-66.423-66.495c-3.244-4.196-6.335-6.067-10.024-6.067c-2.052,0-4.289,0.566-7.039,1.782
		c-17.407,7.697-35.348,15.001-52.699,22.063l-8.75,3.564c-7.017,2.862-13.67,4.313-19.776,4.313
		c-15.52,0-27.626-9.472-35.01-27.392c-9.183-22.287-18.356-44.579-27.53-66.87c-7.116-17.29-14.231-34.58-21.351-51.868
		c-11.351-27.563-3.797-45.729,23.771-57.169c3.631-1.507,7.258-3.026,10.863-4.537l5.79-2.424l-0.204-1.179
		c-0.531-3.064-2.617-4.208-4.294-5.127l-0.464-0.256c-39.008-21.9-70.513-49.702-93.641-82.633
		c-23.17-32.989-38.596-72.073-45.851-116.165c-0.072-0.439-0.105-0.918-0.141-1.425c-0.12-1.724-0.278-4.017-2.414-5.479v-61.895
		c3.529-7.514,4.866-15.601,6.159-23.424c0.995-6.02,2.024-12.243,4.05-18.049c0.722-2.07,1.369-4.191,1.995-6.242
		c0.761-2.495,1.548-5.074,2.465-7.535c3.286-8.823,9.947-14.091,17.816-14.091c1.603,0,3.238,0.226,4.86,0.672
		c5.174,1.423,9.419,4.702,11.953,9.232c2.571,4.597,3.123,10.104,1.555,15.508c-9.126,31.45-13.082,58.09-12.447,83.837
		c2.238,90.803,68.676,181.455,151.252,206.378l0.224,0.068c0,0,0.75-0.01,1.007-0.01c7.458,0,14.838,1.718,21.975,3.379
		c2.513,0.585,5.111,1.19,7.689,1.716c18.416,3.755,35.399,5.58,51.922,5.58h0.111c122.291-0.06,251.832-0.091,385.027-0.091
		c124.349,0,248.653,0.026,373.002,0.07h0.172c12.843,0,28.057-0.404,43.52-3.401c56.637-8.061,105.918-55.98,119.77-116.521
		c9.065-39.622,1.417-82.262-20.983-116.986c-22.288-34.549-56.11-57.943-95.236-65.875c-2.104-0.359-4.16-0.745-6.216-1.132
		c-6.796-1.276-13.824-2.597-20.941-2.597c-0.943,0-1.884,0.023-2.795,0.069c-0.742,0.037-1.474,0.057-2.19,0.057
		c-12.459,0-20.742-5.666-25.321-17.323c-21.744-55.691-60.036-94.387-113.81-115.007c-22.23-8.508-46.591-12.959-72.404-13.23
		c-14.87-0.156-23.857-6.073-28.284-18.62c-20.392-48.92-51.547-88.28-92.629-117.063c-40.145-29.431-86.603-46.046-138.057-49.367
		c-6.468-0.417-12.958-0.629-19.289-0.629c-64.209,0-122.43,21.846-173.045,64.93c-30.871,26.276-55.004,59.455-71.731,98.612
		c-8.718,20.408-13.388,22.045-35.708,22.071c-45.481,0.053-84.493,9.867-119.264,30c-5.796,3.356-12.366,7.16-19.4,7.16
		c-2.248,0-4.43-0.363-6.67-1.113c-10.022-2.843-15.315-9.009-15.797-18.347c-0.462-8.964,4.822-14.063,13.498-19.385
		c39.64-24.317,85.021-37.634,134.881-39.581c9.382-0.366,13.041-4.159,16.509-11.029
		c50.527-100.068,131.765-158.297,241.457-173.07c13.064-1.759,26.366-2.651,39.534-2.651c56.751,0,112.55,16.27,161.367,47.052
		c48.997,30.896,88.336,74.782,113.763,126.914c3.871,7.938,8.005,12.446,18.74,13.528c45.253,4.56,84.81,18.292,117.569,40.812
		c32.919,22.631,59.846,54.735,80.032,95.423c2.434,4.903,5.252,8.084,11.777,8.791c46.893,5.079,88.687,25.14,120.864,58.012
		c29.242,29.872,48.128,68.016,53.18,107.402c0.151,1.178,1.01,1.985,1.767,2.699c0.111,0.104,0.223,0.208,0.33,0.313v54.678
		c-3.284,4.029-4,8.759-4.693,13.339c-0.312,2.061-0.606,4.008-1.122,5.895c-15.645,57.189-50.21,99.91-102.735,126.974
		c-1.904,0.98-3.818,1.946-5.972,3.032l-5.44,2.75l1.824,1.456c18.17,14.507,21.134,31.622,9.911,57.23
		c-11.221,25.605-21.948,51.927-32.324,77.381c-4.915,12.059-9.997,24.528-15.066,36.76c-7.459,17.996-19.119,27.122-34.657,27.122
		c-6.203,0.001-13.012-1.502-20.235-4.467c-3.88-1.592-7.763-3.177-11.646-4.762c-16.025-6.54-32.597-13.303-48.636-20.502
		c-2.916-1.309-5.406-1.945-7.615-1.945c-4.118,0-7.502,2.1-11.315,7.021c-18.897,24.388-41.004,46.424-65.706,65.496
		c-6.463,4.991-7.677,9.543-4.478,16.795c7.354,16.674,14.323,33.865,21.063,50.49c1.639,4.043,3.277,8.085,4.924,12.125
		c9.901,24.305,2.129,43.212-21.886,53.238c-38.089,15.903-77.985,32.435-121.966,50.539c-7.267,2.991-14.053,4.508-20.168,4.508
		c-15.153,0-26.716-9.282-34.368-27.591c-1.797-4.298-3.602-8.593-5.408-12.888c-6.685-15.9-13.598-32.343-19.909-48.69
		c-2.473-6.406-5.861-9.019-11.694-9.019c-1.045,0-2.179,0.083-3.469,0.254c-15.556,2.065-31.484,3.112-47.343,3.112
		c-15.696,0-31.749-1.025-47.711-3.05c-1.124-0.143-2.112-0.211-3.022-0.211c-5.174,0-8.188,2.269-10.403,7.832
		c-9.131,22.933-17.927,44.149-26.89,64.861C1798.78,1960.471,1787.14,1969.278,1772.329,1969.278z"/>
	<g>
		<path fill="#FFFFFF" d="M1834.759,834.597c56.467,0,111.99,16.19,160.567,46.821c48.761,30.747,87.91,74.421,113.215,126.302
			c4.013,8.228,8.562,13.216,19.938,14.363c44.999,4.535,84.32,18.18,116.869,40.556c32.706,22.484,59.467,54.397,79.539,94.853
			c2.585,5.209,5.778,8.838,12.959,9.616c46.543,5.041,88.023,24.948,119.955,57.569c29.014,29.641,47.753,67.479,52.764,106.545
			c0.208,1.616,1.255,2.68,2.084,3.465v53.513c-3.257,4.261-4.008,9.222-4.676,13.634c-0.305,2.016-0.594,3.921-1.087,5.723
			c-7.765,28.387-20.26,53.366-37.139,74.243c-16.907,20.912-38.721,38.338-64.836,51.793c-1.882,0.97-3.772,1.923-5.895,2.994
			c-1.073,0.541-2.206,1.112-3.426,1.731l-4.163,2.109l3.647,2.912c17.539,14.002,20.372,30.587,9.474,55.456
			c-11.228,25.621-21.959,51.949-32.338,77.411c-4.915,12.058-9.998,24.528-15.066,36.757
			c-7.204,17.383-18.398,26.197-33.271,26.197c-6.008,0-12.624-1.465-19.666-4.355c-3.886-1.595-7.775-3.182-11.665-4.769
			c-16.009-6.533-32.563-13.289-48.573-20.475c-3.112-1.397-5.804-2.076-8.229-2.077c-5.825,0-9.589,3.843-12.501,7.602
			c-18.823,24.29-40.838,46.236-65.437,65.228c-7.05,5.443-8.434,10.654-4.934,18.588c7.34,16.639,14.299,33.804,21.028,50.405
			c1.645,4.058,3.29,8.115,4.942,12.17c9.541,23.417,2.057,41.631-21.074,51.288c-38.07,15.895-77.964,32.426-121.959,50.537
			c-7.085,2.917-13.678,4.395-19.597,4.395c-14.49,0-25.589-8.973-32.985-26.67c-1.796-4.297-3.601-8.591-5.406-12.884
			c-6.682-15.893-13.591-32.327-19.895-48.656c-2.664-6.9-6.702-9.977-13.093-9.978c-1.111,0-2.31,0.087-3.667,0.268
			c-15.491,2.056-31.353,3.099-47.145,3.099c-15.635,0-31.624-1.022-47.523-3.038c-1.188-0.151-2.238-0.224-3.212-0.224
			c-5.741,0-9.379,2.707-11.795,8.777c-9.131,22.932-17.921,44.135-26.873,64.821c-6.956,16.073-18.12,24.568-32.287,24.568
			c-5.635,0-11.74-1.334-18.143-3.964c-46.517-19.108-87.491-36.124-125.264-52.019c-20.374-8.573-28.248-27.399-20.061-47.961
			c9.956-25.005,18.381-45.224,26.515-63.633c3.824-8.655,2.464-14.45-4.697-20.004c-24.786-19.223-47.044-41.505-66.155-66.227
			c-2.393-3.096-5.831-6.65-11.211-6.65c-2.268,0-4.698,0.607-7.646,1.911c-17.414,7.7-35.374,15.011-52.743,22.08
			c-2.889,1.176-5.778,2.352-8.666,3.53c-6.836,2.789-13.299,4.203-19.21,4.203c-14.863,0-26.489-9.151-33.622-26.463
			c-9.224-22.387-18.438-44.777-27.653-67.167c-7.075-17.191-14.15-34.381-21.228-51.57c-5.569-13.524-6.457-24.475-2.712-33.482
			c3.745-9.008,12.142-16.117,25.671-21.731c3.58-1.485,7.154-2.984,10.709-4.473l4.845-2.029l2.206-0.923l-0.408-2.357
			c-0.653-3.776-3.299-5.226-5.05-6.185c-0.15-0.083-0.302-0.165-0.452-0.25c-38.811-21.79-70.15-49.441-93.148-82.187
			c-23.039-32.804-38.38-71.679-45.598-115.547c-0.061-0.37-0.092-0.815-0.125-1.286c-0.116-1.668-0.296-4.256-2.41-6.11v-60.828
			c3.511-7.612,4.847-15.692,6.139-23.512c1.03-6.23,2.003-12.115,3.986-17.799c0.733-2.1,1.385-4.236,2.015-6.302
			c0.754-2.472,1.535-5.029,2.435-7.446c3.059-8.212,9.193-13.114,16.412-13.114c1.468,0,2.968,0.208,4.46,0.619
			c4.784,1.316,8.706,4.341,11.042,8.518c2.374,4.243,2.879,9.342,1.424,14.358c-9.171,31.604-13.145,58.388-12.506,84.292
			c2.253,91.412,69.16,182.679,152.319,207.778l0.447,0.135l0.467-0.007c0.251-0.004,0.503-0.006,0.754-0.006
			c7.284,0,14.254,1.623,21.633,3.34c2.522,0.587,5.13,1.194,7.729,1.724c18.516,3.775,35.598,5.611,52.223,5.611h0.11
			c122.252-0.06,251.813-0.091,385.084-0.091c118.502,0,240.493,0.023,372.945,0.07h0.179c12.89,0,28.163-0.406,43.725-3.414
			c57.28-8.19,107.037-56.568,121.019-117.673c9.155-40.014,1.433-83.072-21.186-118.134
			c-22.509-34.891-56.673-58.519-96.198-66.531l-0.046-0.009l-0.046-0.008c-2.043-0.348-4.129-0.74-6.147-1.119
			c-6.863-1.289-13.959-2.622-21.215-2.623c-0.968,0-1.934,0.024-2.873,0.072c-0.714,0.036-1.426,0.054-2.114,0.054
			c-11.771,0-19.598-5.355-23.923-16.366c-21.905-56.104-60.486-95.087-114.673-115.865c-22.396-8.572-46.931-13.056-72.924-13.329
			c-14.347-0.151-22.639-5.585-26.885-17.619l-0.028-0.079l-0.032-0.077c-20.468-49.097-51.792-88.67-93.096-117.617
			c-40.4-29.611-87.112-46.315-138.847-49.654c-6.499-0.419-13.021-0.632-19.385-0.632c-64.574-0.001-123.122,21.965-174.019,65.288
			c-31.049,26.428-55.319,59.793-72.138,99.166c-4.559,10.673-7.677,15.355-11.913,17.892c-4.587,2.746-11.148,3.255-22.417,3.269
			c-45.754,0.054-85.01,9.933-120.015,30.202c-5.908,3.421-12.017,6.958-18.647,6.958c-2.084,0-4.111-0.339-6.194-1.036
			l-0.066-0.022l-0.067-0.019c-9.401-2.665-14.19-8.213-14.641-16.961c-0.424-8.223,4.577-12.995,12.785-18.029
			c20.11-12.336,41.814-21.906,64.509-28.443c21.85-6.293,45.282-9.967,69.646-10.918c10.072-0.393,14.15-4.644,17.79-11.852
			c25.002-49.515,57.892-89.149,97.758-117.802c40.057-28.79,88.021-47.113,142.56-54.458
			C1808.425,835.485,1821.659,834.597,1834.759,834.597 M1834.759,831.597c-13.165,0-26.443,0.875-39.734,2.665
			c-110.852,14.929-192.043,73.763-242.595,173.88c-3.543,7.017-7.011,9.886-15.229,10.207
			c-48.447,1.892-93.975,14.262-135.607,39.801c-8.025,4.922-14.74,10.508-14.212,20.741c0.545,10.574,6.836,16.863,16.819,19.693
			c2.483,0.831,4.856,1.191,7.146,1.191c7.257,0,13.685-3.618,20.151-7.362c36.651-21.222,76.62-29.749,118.515-29.798
			c23.323-0.028,28.193-2.165,37.085-22.982c16.303-38.166,39.625-71.078,71.324-98.06c50.296-42.812,107.437-64.573,172.074-64.572
			c6.323,0,12.724,0.209,19.192,0.626c50.578,3.264,96.389,19.112,137.292,49.099c42.275,29.618,72.309,68.918,92.075,116.333
			c4.948,14.026,15.099,19.468,29.682,19.621c24.632,0.259,48.731,4.271,71.883,13.131c54.858,21.036,91.746,59.844,112.951,114.155
			c4.899,12.471,13.911,18.275,26.718,18.275c0.742,0,1.498-0.02,2.265-0.058c0.91-0.046,1.816-0.068,2.721-0.068
			c9.082,0,17.936,2.178,26.858,3.699c80.873,16.393,133.702,99.559,115.055,181.055c-13.813,60.373-62.125,107.345-118.592,115.383
			c-14.261,2.764-28.685,3.373-43.227,3.373c-0.059,0-0.12,0-0.179,0c-124.318-0.044-248.627-0.07-372.945-0.07
			c-128.359,0-256.727,0.027-385.085,0.091c-0.037,0-0.072,0-0.109,0c-17.468,0-34.599-2.079-51.624-5.55
			c-9.939-2.027-19.688-5.125-29.961-5.125c-0.266,0-0.534,0.002-0.801,0.006c-82.166-24.799-147.963-114.739-150.187-204.98
			c-0.704-28.56,4.473-56.103,12.388-83.382c3.536-12.187-3.257-23.498-14.551-26.604c-1.776-0.489-3.537-0.726-5.257-0.726
			c-8.308,0-15.672,5.537-19.222,15.067c-1.687,4.529-2.877,9.24-4.471,13.806c-4.731,13.559-3.99,28.465-10.293,41.629
			c0,21.033,0,42.066,0,63.099c2.776,1.308,2.197,3.985,2.574,6.28c14.665,89.13,61.532,155.674,140.238,199.862
			c1.75,0.983,3.567,1.744,4.015,4.331c-5.139,2.149-10.337,4.337-15.546,6.499c-28.335,11.758-36.248,30.8-24.583,59.126
			c16.299,39.577,32.576,79.163,48.882,118.738c7.693,18.671,20.279,28.32,36.396,28.32c6.272,0,13.083-1.463,20.343-4.425
			c20.563-8.389,41.183-16.665,61.489-25.645c2.469-1.092,4.558-1.654,6.432-1.654c3.319,0,5.963,1.765,8.838,5.485
			c19.376,25.064,41.66,47.351,66.69,66.763c6.292,4.88,6.947,9.278,3.791,16.421c-9.301,21.048-18.045,42.353-26.559,63.736
			c-8.76,22.002-0.159,42.644,21.685,51.836c41.68,17.539,83.459,34.846,125.287,52.028c6.83,2.806,13.291,4.189,19.283,4.189
			c15.289,0,27.523-9.008,35.04-26.377c9.301-21.492,18.244-43.146,26.907-64.902c2.008-5.042,4.547-6.887,9.008-6.887
			c0.869,0,1.81,0.07,2.835,0.2c15.954,2.023,31.926,3.062,47.9,3.062c15.853,0,31.709-1.024,47.54-3.125
			c1.181-0.157,2.267-0.241,3.271-0.241c5.066,0,8.016,2.155,10.295,8.058c7.995,20.712,16.767,41.126,25.332,61.617
			c7.914,18.934,19.961,28.513,35.753,28.513c6.321,0,13.244-1.536,20.739-4.621c40.697-16.753,81.361-33.586,121.973-50.542
			c24.71-10.317,32.847-30.274,22.696-55.189c-8.532-20.942-16.88-41.97-26.004-62.653c-3.05-6.915-1.691-10.591,4.023-15.002
			c24.75-19.109,46.827-41.054,65.975-65.765c3.319-4.283,6.289-6.44,10.13-6.44c2.03,0,4.304,0.603,7.001,1.814
			c19.885,8.927,40.155,17.005,60.327,25.283c7.463,3.063,14.42,4.579,20.805,4.579c15.976,0,28.356-9.501,36.042-28.048
			c15.769-38.049,30.852-76.397,47.38-114.112c9.817-22.403,10.804-42.117-10.35-59.005c3.641-1.844,6.5-3.271,9.34-4.734
			c53.271-27.447,87.684-70.112,103.494-127.911c1.752-6.404,1.083-13.602,5.869-19.081c0-18.606,0-37.212,0-55.819
			c-0.728-0.866-1.987-1.665-2.108-2.609c-9.92-77.333-74.546-155.794-175.372-166.715c-5.795-0.628-8.238-3.217-10.594-7.967
			c-40.894-82.422-107.58-127.869-198.795-137.061c-9.667-0.974-13.653-4.719-17.542-12.693
			C2059.055,899.416,1950.75,831.597,1834.759,831.597L1834.759,831.597z"/>
	</g>
</g>
<path fill="#2BC0E4" stroke="#FFFFFF" stroke-width="4" stroke-miterlimit="10" d="M1370.106,1241.947
	c9.467-28.949,22.008-56.152,42.995-78.901c18.921-20.51,40.845-36.55,66.752-47.023c13.722-5.547,24.803-2.025,29.665,9.317
	c4.934,11.51,0.478,22.462-12.983,28.34c-36.504,15.942-63.174,41.697-78.37,78.491c-18.287,44.276-14.979,87.442,8.985,128.965
	c1.614,2.796,3.47,5.45,5.111,8.231c6.934,11.748,5.289,23.54-4.161,30.129c-9.806,6.838-21.968,4.084-30.254-7.511
	c-12.569-17.59-21.163-37.081-26.471-58.04c-1.077-4.25-2.522-8.407-3.797-12.608
	C1363.954,1294.731,1364.614,1268.262,1370.106,1241.947z"/>
<path fill="#FEFEFE" stroke="#FFFFFF" stroke-width="6" stroke-miterlimit="10" d="M1657.196,1560.421
	c158.589,0,316.164,0,473.941,0c-29.308,66.089-113.933,141.787-230.495,144.528
	C1784.55,1707.679,1692.82,1636.227,1657.196,1560.421z"/>
<path fill="#FEFEFE" d="M1462.313,1561.527c-9.062,9.754-3.827,19.485,0.128,29.15c12.935,31.614,25.934,63.202,38.909,94.801
	c-0.621,0.505-1.165,1.2-1.875,1.486c-10.085,4.067-21.564,13.048-29.919,10.742c-8.81-2.432-9.759-17.971-13.951-27.827
	c-11.997-28.207-23.207-56.749-35.295-84.915c-3.068-7.147-2.534-10.461,5.212-13.245c11.697-4.203,22.954-9.628,34.398-14.534
	C1461.692,1558.096,1463.666,1558.895,1462.313,1561.527z"/>
<path fill="#CDF2F9" d="M2366.564,1578.289c-16.502-5.82-31.126-17.045-49.541-17.37l0.008,0.007c0,0-0.006-0.003-0.009-0.005
	c-42.832-0.094-85.668,0.078-128.494-0.503c-8.646-0.117-12.791,2.893-16.41,10.418c-18.421,38.303-43.279,72.194-75.857,99.393
	c-66.92,55.869-143.56,82.958-231.569,75.136c-47.943-4.261-92.255-19.103-133.157-43.799
	c-52.839-31.902-92.355-76.329-119.523-131.719c-2.561-5.221-4.639-9.44-12.071-9.392c-41.039,0.261-79.59-0.402-120.138-9.322
	c-9.805,5.364-23.559,9.84-23.559,9.84s-40.113,7.063-36.175,16.536c22.854,54.983,46.982,101.612,53.238,116.654
	c3.345,8.043,20.075-4.793,26.166-7.197c29.751-11.744,32.212-13.574,48.211-20.205c14.654-6.073,24.694-0.333,33.711,12.372
	c24.06,33.904,53.67,62.271,86.787,87.133c13.733,10.31,15.532,17.026,8.76,33.224c-10.268,24.562-20.177,49.279-30.816,73.678
	c-2.649,6.074-1.452,8.42,4.262,10.708c27.301,10.933,54.491,22.145,81.721,33.257l0,0l0,0c9.985,4.246,20.085,8.245,29.905,12.843
	c4.807,2.251,6.588,0.064,8.111-3.738c9.264-23.123,18.53-46.245,27.795-69.369c0,0,0.001-0.001,0.002-0.001
	c12.254-24.899,12.252-24.881,40.183-22.11c38.613,3.831,77.172,5.211,115.637-1.827c15.826-2.895,23.476,1.883,30,17.466
	c10.725,25.617,21.557,51.189,32.344,76.779c0.931,6.602,5.102,3.611,8.049,2.394c36.807-15.196,73.505-30.656,110.367-45.718
	c6.937-2.834,6.091-5.999,3.602-11.814c-10.287-24.032-20.091-48.275-29.736-72.575c-7.377-18.588-5.146-24.283,11.663-36.131
	c25.835-18.21,47.529-40.865,68.255-64.513l-0.001,0l0-0.001c5.094-6.665,10.291-13.254,15.258-20.012
	c8.823-12.005,18.715-14.895,32.547-9.24c14.062,5.749,28.108,11.535,42.161,17.305c11.751,5.014,23.589,9.837,35.218,15.121
	c6.141,2.791,6.988-2.053,8.38-5.394c15.284-36.671,30.406-73.41,45.554-110.138
	C2368.59,1583.589,2371.065,1579.876,2366.564,1578.289z"/>
<g>
	<path fill="#2BC0E4" d="M1583.267,1299.783h20.62c6.999-4.469,11.638-10.667,13.914-18.595c1.265-4.89,1.898-10.121,1.898-15.687
		c0-3.036-0.212-6.113-0.633-9.234c-1.096-5.901-1.644-11.554-1.644-16.95c0-5.903,0.674-11.469,2.025-16.698
		c2.95-10.795,9.361-18.976,19.228-24.542c6.24-3.625,12.817-5.439,19.734-5.439c1.853,0,5.945,0.505,12.27,1.517v24.667
		c-7.085-1.179-11.091-1.77-12.018-1.77c-2.701,0-5.356,0.716-7.969,2.151c-3.881,2.193-6.411,5.483-7.591,9.867
		c-0.928,3.626-1.39,7.801-1.39,12.522c0,2.11,0.083,4.176,0.252,6.199c1.265,6.157,1.898,12.355,1.898,18.595
		c0,7.254-0.886,14.339-2.657,21.253c-4.049,14.338-8.982,23.698-14.802,28.083c5.82,3.966,10.753,13.115,14.802,27.451
		c1.771,6.916,2.657,14.001,2.657,21.252c0,6.242-0.633,12.441-1.898,18.595c-0.169,2.025-0.252,4.093-0.252,6.199
		c0,4.724,0.462,8.899,1.39,12.526c1.18,4.301,3.71,7.544,7.591,9.739c2.782,1.517,5.522,2.279,8.221,2.279
		c0.928,0,4.85-0.423,11.765-1.266v24.162c-6.325,1.013-10.417,1.517-12.27,1.517c-6.917,0-13.494-1.814-19.734-5.441
		c-9.867-5.564-16.278-13.789-19.228-24.667c-1.351-5.229-2.025-10.797-2.025-16.697c0-5.398,0.549-11.005,1.644-16.827
		c0.422-3.119,0.633-6.196,0.633-9.234c0-5.564-0.633-10.793-1.898-15.687c-2.276-7.925-6.916-14.124-13.914-18.595h-20.62V1299.783
		z"/>
	<path fill="#2BC0E4" d="M1780.609,1192.131l73.624,202.402h-27.83l-26.059-71.599h-53.637l-25.932,71.599h-27.957l73.624-202.402
		H1780.609z M1790.856,1296.747l-17.33-47.438l-17.204,47.438H1790.856z"/>
	<path fill="#2BC0E4" d="M1905.719,1329.765v64.768h-26.186v-202.402h57.432c16.275,2.193,30.022,8.899,41.238,20.114
		c13.41,13.494,20.114,29.686,20.114,48.576c0,19.06-6.704,35.316-20.114,48.766c-13.408,13.452-29.602,20.179-48.576,20.179
		H1905.719z M1905.719,1218.443v85.01h23.909c11.637,0,21.61-4.153,29.917-12.461c8.306-8.306,12.461-18.362,12.461-30.171
		c0-11.72-4.155-21.714-12.461-29.981c-8.308-8.264-18.281-12.397-29.917-12.397H1905.719z"/>
	<path fill="#2BC0E4" d="M2053.094,1192.131v202.402h-26.186v-202.402H2053.094z"/>
	<path fill="#2BC0E4" d="M2177.95,1331.029h-20.62c-7.083,4.47-11.723,10.67-13.914,18.595c-1.267,4.894-1.898,10.123-1.898,15.687
		c0,3.038,0.167,6.115,0.506,9.234c1.18,5.822,1.771,11.428,1.771,16.827c0,5.9-0.718,11.467-2.15,16.697
		c-2.869,10.878-9.236,19.103-19.103,24.667c-6.242,3.627-12.82,5.441-19.734,5.441c-1.856,0-5.945-0.505-12.27-1.517v-24.162
		c6.831,0.843,10.709,1.266,11.638,1.266c2.782,0,5.566-0.762,8.348-2.279c3.88-2.194,6.367-5.437,7.464-9.739
		c1.013-3.627,1.517-7.801,1.517-12.526c0-2.107-0.085-4.174-0.252-6.199c-1.265-6.154-1.898-12.353-1.898-18.595
		c0-7.251,0.886-14.336,2.657-21.252c3.964-14.336,8.897-23.485,14.802-27.451c-5.905-4.384-10.837-13.745-14.802-28.083
		c-1.771-6.914-2.657-13.999-2.657-21.253c0-6.24,0.633-12.438,1.898-18.595c0.168-2.024,0.252-4.089,0.252-6.199
		c0-4.721-0.505-8.897-1.517-12.522c-1.097-4.384-3.585-7.674-7.464-9.867c-2.615-1.434-5.271-2.151-7.969-2.151
		c-0.929,0-4.933,0.591-12.018,1.77v-24.667c6.325-1.013,10.414-1.517,12.27-1.517c6.914,0,13.493,1.814,19.734,5.439
		c9.867,5.566,16.234,13.747,19.103,24.542c1.433,5.229,2.15,10.795,2.15,16.698c0,5.397-0.55,11.049-1.646,16.95
		c-0.422,3.121-0.632,6.198-0.632,9.234c0,5.566,0.632,10.797,1.898,15.687c2.191,7.928,6.831,14.126,13.914,18.595h20.62V1331.029z
		"/>
</g>
<path fill="#CDF2F9" d="M3601.983,1347.663l-0.201,0.009c24.394-25.487,12.925-53.642,8.504-62.209
	c-0.01-0.014-0.015-0.029-0.025-0.043c-0.854-1.651-1.467-2.638-1.467-2.638l0.221,0.043c-7.072-13.94-11.14-29.658-11.14-46.357
	c0-28.376,11.502-54.066,30.096-72.662c17.087-22.617,4.156-52.687,4.156-52.687h0.039c-2.67-7.565-4.196-15.668-4.196-24.146
	c0-40.13,32.53-72.661,72.662-72.661s72.663,32.531,72.663,72.661c0,8.478-1.526,16.581-4.196,24.146h0.039
	c0,0-12.931,30.07,4.157,52.687c18.593,18.596,30.096,44.286,30.096,72.662c0,16.687-4.063,32.395-11.125,46.328l0.074-0.014
	c0,0-0.127,0.202-0.319,0.522c-0.579,1.134-1.158,2.268-1.781,3.377c-4.564,9.434-13.357,34.61,6.748,58.208
	c0.618,0.729,1.251,1.442,1.855,2.183c0.187,0.199,0.319,0.401,0.51,0.599l-0.063-0.002c17.381,21.664,27.839,49.127,27.839,79.064
	c0,69.862-56.635,126.496-126.495,126.496c-69.86,0-126.495-56.634-126.495-126.496
	C3574.139,1396.794,3584.597,1369.327,3601.983,1347.663z"/>
<linearGradient id="SVGID_4_" gradientUnits="userSpaceOnUse" x1="3654.8882" y1="1432.7209" x2="3746.3799" y2="1432.7209">
	<stop  offset="0" style="stop-color:#271887"/>
	<stop  offset="1" style="stop-color:#02BFE1"/>
</linearGradient>
<path fill="url(#SVGID_4_)" d="M3663.447,1415.916l30.984,30.654v-107.712l-38.051-37.64c-1.973-1.953-1.992-5.133-0.039-7.106
	c1.953-1.978,5.133-1.987,7.106-0.039l30.984,30.65v-148.577c0-2.777,2.248-5.025,5.025-5.025c2.777,0,5.025,2.248,5.025,5.025
	v89.538l30.131-29.959c1.962-1.953,5.143-1.953,7.106,0.019c1.953,1.968,1.953,5.148-0.02,7.106l-37.217,37.005v108.178
	l33.301-33.641c1.943-1.978,5.123-1.987,7.106-0.039c1.972,1.953,1.992,5.133,0.039,7.106l-40.446,40.858v286.978
	c0,2.778-2.248,5.026-5.025,5.026c-2.777,0-5.025-2.248-5.025-5.026v-228.589l-38.051-37.645c-1.973-1.953-1.992-5.133-0.039-7.106
	C3658.294,1413.978,3661.474,1413.968,3663.447,1415.916z"/>
<line fill="none" stroke="#B0D5F7" stroke-width="1.8871" stroke-linecap="round" stroke-linejoin="round" stroke-miterlimit="10" x1="3633.081" y1="1694.321" x2="3837.153" y2="1694.321"/>
<path fill="#CAF0F8" d="M3670.948,717.371v-40.609h-23.558c-2.124-8.889-5.597-17.231-10.2-24.837l16.596-16.596l-28.715-28.714
	l-16.359,16.359c-7.648-4.799-16.079-8.425-25.074-10.685v-22.836h-40.61v22.291c-9.279,2.082-17.968,5.659-25.876,10.428
	l-15.557-15.556l-28.715,28.714l15.276,15.276c-5.007,7.953-8.756,16.753-11.003,26.157h-21.435v40.609h21.388
	c2.231,9.428,5.977,18.25,10.98,26.226l-15.207,15.208l28.715,28.714l15.445-15.444c7.937,4.802,16.665,8.403,25.988,10.496v22.11
	h40.61v-22.656c9.038-2.27,17.508-5.919,25.186-10.752l16.246,16.246l28.715-28.714l-16.528-16.528
	c4.601-7.628,8.069-15.992,10.178-24.905H3670.948z M3563.334,736.998c-22.054,0-39.932-17.878-39.932-39.932
	c0-22.054,17.879-39.932,39.932-39.932s39.932,17.879,39.932,39.932C3603.266,719.12,3585.388,736.998,3563.334,736.998z"/>
<path fill="#CAF0F8" d="M982.475,246.836v-53.211h-30.869c-2.783-11.648-7.334-22.578-13.365-32.545l21.746-21.747l-37.626-37.625
	l-21.435,21.435c-10.022-6.289-21.069-11.04-32.855-14.001V79.218h-53.212v29.209c-12.159,2.729-23.544,7.415-33.906,13.664
	l-20.385-20.384l-37.627,37.625l20.017,20.017c-6.56,10.421-11.474,21.952-14.417,34.275h-28.087v53.211h28.026
	c2.924,12.354,7.832,23.914,14.388,34.364l-19.926,19.927l37.627,37.625l20.238-20.237c10.401,6.293,21.837,11.011,34.053,13.753
	v28.972h53.212v-29.687c11.843-2.975,22.941-7.756,33.003-14.089l21.288,21.288l37.626-37.625L938.33,279.47
	c6.028-9.996,10.573-20.955,13.337-32.634H982.475z M841.463,272.555c-28.898,0-52.325-23.426-52.325-52.325
	c0-28.898,23.427-52.325,52.325-52.325c28.898,0,52.325,23.427,52.325,52.325C893.788,249.129,870.361,272.555,841.463,272.555z"/>
<g>
	<g>
		<path fill="none" stroke="#4147C8" stroke-miterlimit="10" d="M2707.256,1408.136c0,0,1.356-0.272,3.901-0.865"/>
		<path fill="none" stroke="#4147C8" stroke-miterlimit="10" stroke-dasharray="7.9799,7.9799" d="M2718.898,1405.351
			c44.873-11.71,208.292-63.512,292.375-213.978c98.06-175.475,77.416-348.465-51.61-458.089
			c-124.194-105.518-152.753-168.444-136.307-234.377"/>
		<path fill="none" stroke="#4147C8" stroke-miterlimit="10" d="M2824.372,495.037c0.352-1.279,0.721-2.56,1.105-3.842"/>
	</g>
</g>
<g>
	<path fill="none" stroke="#FF6293" stroke-linecap="round" stroke-linejoin="round" stroke-miterlimit="10" d="M1002.005,1647.666
		c0,0,55.665-8.962,75.312-58.078c19.646-49.116,22.921-65.488,22.921-103.144c0-37.656,21.284-58.94,40.931-67.126"/>
	<path fill="#FF6293" d="M1057.266,1618.73c0,0-46.273-31.693-31.707-57.289C1040.124,1535.845,1076.154,1580.889,1057.266,1618.73z
		"/>
	<path fill="#FF6293" d="M1089.636,1559.741c0,0,22.5-51.375,50.365-41.843C1167.864,1527.431,1130.337,1571.234,1089.636,1559.741z
		"/>
	<path fill="#FF6293" d="M1099.348,1508.443c0,0-54.373-13.759-49.545-42.81C1054.63,1436.582,1104.001,1466.408,1099.348,1508.443z
		"/>
	<path fill="#FF6293" d="M1135.825,1421.59c0,0,15.603-53.872,44.473-48.058C1209.168,1379.346,1177.678,1427.672,1135.825,1421.59z
		"/>
</g>
<g>
	<ellipse fill="#2BC0E4" cx="670.013" cy="1649.148" rx="139.163" ry="21.284"/>
	<ellipse fill="#2BC0E4" cx="948.34" cy="1649.148" rx="139.163" ry="21.284"/>
	
		<ellipse transform="matrix(0.972 -0.235 0.235 0.972 -353.4015 267.1982)" fill="#2BC0E4" cx="944.443" cy="1616.446" rx="139.164" ry="21.284"/>
	
		<ellipse transform="matrix(0.9017 -0.4323 0.4323 0.9017 -595.1024 560.2552)" fill="#2BC0E4" cx="934.663" cy="1588.984" rx="139.163" ry="21.284"/>
	
		<ellipse transform="matrix(0.7789 -0.6271 0.6271 0.7789 -776.6349 920.7416)" fill="#2BC0E4" cx="917.573" cy="1561.875" rx="139.163" ry="21.284"/>
	
		<ellipse transform="matrix(0.617 -0.787 0.787 0.617 -868.8421 1294.1122)" fill="#2BC0E4" cx="895.036" cy="1539.628" rx="139.163" ry="21.284"/>
	
		<ellipse transform="matrix(0.4075 -0.9132 0.9132 0.4075 -876.915 1692.5947)" fill="#2BC0E4" cx="865.883" cy="1522.062" rx="139.163" ry="21.284"/>
	
		<ellipse transform="matrix(0.1754 -0.9845 0.9845 0.1754 -801.3079 2067.6284)" fill="#2BC0E4" cx="833.581" cy="1512.141" rx="139.163" ry="21.284"/>
	
		<ellipse transform="matrix(-0.0753 -0.9972 0.9972 -0.0753 -647.2879 2420.4783)" fill="#2BC0E4" cx="798.705" cy="1510.379" rx="139.163" ry="21.284"/>
	
		<ellipse transform="matrix(-0.3017 -0.9534 0.9534 -0.3017 -447.1609 2705.4216)" fill="#2BC0E4" cx="767.192" cy="1516.469" rx="139.163" ry="21.284"/>
	
		<ellipse transform="matrix(-0.5672 -0.8236 0.8236 -0.5672 -119.3269 3006.3738)" fill="#2BC0E4" cx="730.239" cy="1534.539" rx="139.163" ry="21.284"/>
	
		<ellipse transform="matrix(-0.7673 -0.6413 0.6413 -0.7673 240.9541 3207.2397)" fill="#2BC0E4" cx="702.4" cy="1559.901" rx="139.163" ry="21.284"/>
	
		<ellipse transform="matrix(-0.9069 -0.4214 0.4214 -0.9069 632.1655 3320.7085)" fill="#2BC0E4" cx="682.971" cy="1590.51" rx="139.163" ry="21.284"/>
	
		<ellipse transform="matrix(-0.9767 -0.2148 0.2148 -0.9767 982.986 3345.3318)" fill="#2BC0E4" cx="673.262" cy="1619.255" rx="139.163" ry="21.284"/>
</g>
<g>
	<linearGradient id="SVGID_5_" gradientUnits="userSpaceOnUse" x1="737.0162" y1="1540.4133" x2="977.3666" y2="1540.4133">
		<stop  offset="0" style="stop-color:#271885"/>
		<stop  offset="1" style="stop-color:#03BDDF"/>
	</linearGradient>
	<path fill="url(#SVGID_5_)" d="M875.107,1680.763c0,0-79.855-8.186-115.733-45.842c-35.878-37.656-23.061-54.028,0-58.939
		c23.061-4.912,38.717,4.911,19.429-32.745c-19.288-37.656-26.553-55.665,0-57.303c26.554-1.637,39.652,19.647,51.112,6.549
		c11.461-13.098-1.637-67.126,39.293-86.772c40.93-19.647,66.818,14.735,40.777,60.577c-26.041,45.842-9.669,57.302,21.438,52.391
		c31.107-4.912,55.476,19.647,40.017,34.381c-15.459,14.735-66.213,26.195-48.204,36.019c18.009,9.823,61.756,11.46,52.981,31.107
		C967.441,1639.832,890.831,1674.214,875.107,1680.763z"/>
	<linearGradient id="SVGID_6_" gradientUnits="userSpaceOnUse" x1="853.0481" y1="1596.4459" x2="875.1074" y2="1596.4459">
		<stop  offset="0" style="stop-color:#271885"/>
		<stop  offset="1" style="stop-color:#03BDDF"/>
	</linearGradient>
	<path fill="url(#SVGID_6_)" d="M857.192,1512.129c0,0-17.015,95.586,17.916,168.633"/>
</g>
<g>
	<g>
		<path fill="none" stroke="#4147C8" stroke-miterlimit="10" d="M1059.985,725.602c0,0-1.366-0.331-3.911-0.821"/>
		<path fill="none" stroke="#4147C8" stroke-miterlimit="10" stroke-dasharray="7.9611,7.9611" d="M1048.229,723.453
			c-28.126-4.188-101.76-9.534-166.295,34.257c-81.729,55.459-113.837,186.809,0,306.483
			c108.585,114.154,156.087,148.633,175.438,199.703"/>
		<path fill="none" stroke="#4147C8" stroke-miterlimit="10" d="M1058.729,1267.64c0.434,1.253,0.853,2.517,1.256,3.793"/>
	</g>
</g>
<g>
	<linearGradient id="SVGID_7_" gradientUnits="userSpaceOnUse" x1="2929.9497" y1="592.0613" x2="3309.0425" y2="592.0613">
		<stop  offset="0" style="stop-color:#271887"/>
		<stop  offset="1" style="stop-color:#02BFE1"/>
	</linearGradient>
	<path fill="url(#SVGID_7_)" d="M2942.58,432.687c2.275-11.068,4.547-22.136,6.826-33.202c4.186-20.326,8.188-40.694,12.627-60.965
		c3.479-15.888,9.794-30.762,18.753-44.304c14.443-21.831,33.584-36.213,61.01-36.983c7.35-0.206,7.337-0.663,9.614-12.011
		c22.105,8.619,42.632,20.148,62.077,33.683c-1.031,7.525-7.605,10.849-12.061,15.749c-17.367,19.101-17.07,43.383,1.281,61.659
		c21.084,20.998,47.071,26.356,75.079,20.18c25.631-5.653,37.667-21.545,39.113-47.371c0.302-5.405,0.111-10.859,2.288-15.975
		c6.145-7,14.791-5.416,22.659-6.532c0.332,7.052,2.676,12.11,10.194,14.862c19.268,7.052,38.857,13.505,56.377,24.608
		c1.982,5.977-1.093,10.65-4.492,14.783c-15.086,18.344-18.284,40.235-18.725,62.786c-0.555,28.338,0.072,56.591,3.336,84.88
		c2.155,18.67,1.743,37.797-3.454,56.324c-15.823,52.764-4.729,105.951-1.656,158.841c2.149,36.973,5.698,73.936,9.563,110.825
		c1.486,14.183-0.375,28.317-4.898,41.954c-17.534,39.304-52.465,51.96-90.934,59.265c-77.308,14.681-162.22-23.006-200.718-89.109
		c-2.277-5.05-3.792-10.372-5.602-15.608c-0.738-2.169-1.2-4.387-1.506-6.65c-3.15-52.912,9.027-104.52,13.411-156.794
		c2.696-32.143,8.399-63.994,10.131-96.229c0.334-6.227,3.223-13.523-3.219-18.767c-25.026,5.149-48.843,2.621-71.104-10.536
		C2926.167,505.088,2926.853,468.608,2942.58,432.687z"/>
	<path fill="#FDD762" d="M2998.903,842.73c32.634,52.157,80.628,80.417,140.628,88.874c28.363,3.998,56.622,1.516,84.098-7.368
		c25.242-8.162,46.418-21.571,59.354-45.699c15.108,21.799,9.763,46.282,9.255,70.12c-2.656,12.697-13.386,17.456-23.023,23.349
		c-22.127,13.532-45.879,24.428-66.226,40.85c-4.929,8.284-7.489,17.01-7.474,26.829c0.092,57.3-0.035,114.602,0.12,171.902
		c0.018,6.712-0.656,13.669,5.528,18.505c8.976,7.679,16.771,2.157,25.569-1.299c14.88-5.845,25.397-22.165,44.163-18.561
		c0.005,18.176,0.603,36.383-2.918,54.373c-0.257,1.313-0.262,2.681-0.329,4.026c-1.578,31.591-3.169,63.181-4.712,94.773
		c-1.642,33.613-3.232,67.229-4.855,100.843c-0.484,10.02-4.437,19.839-1.743,30.043c9.472,29.323,3.491,58.32-2.53,87.113
		c-1.868,8.936-9.754,14.1-18.073,17.684c-24.244,5.435-47.742,3.496-70.335-7.303c-13.317-8.55-19.182-21.567-21.873-36.516
		c-8.34-173.895-20.573-347.606-25.093-514.27c-1.886,31.738,2.091,70.793,4.84,109.746c1.811,25.651,1.999,51.38,2.401,76.908
		c0.65,41.223,7.004,82.135,5.086,123.42c-2.673,57.539,5.601,114.839,4.197,172.363c-0.231,9.441,0.666,18.991-2.571,28.148
		c-5.566,10.18-14.473,8.761-22.904,5.587c-15.289-5.756-29.929-12.804-37.869-28.515c-6.006-15.182-7.487-30.703-3.221-46.615
		c-0.22-22.29-4.542-44.126-7.367-66.125c-1.627-12.668-4.119-25.253-5.145-37.963c-0.927-11.472-2.655-22.714-5.387-33.846
		c1.81-12.96-2.79-25.328-4.155-37.955c-1.722-15.919-2.219-32.254-7.486-47.7c-8.887-17.378-11.196-35.685-7.736-54.805
		c1.692-20.965-3.707-41.313-5.645-61.953c-3.066-32.672-7.447-65.221-11.262-97.823c-0.539-4.608,0.023-9.468-3.162-13.452
		c-3.46-3.496-5.446-7.733-5.943-12.585c-5.505-53.725-11.751-107.394-12.522-161.503
		C2993.425,851.209,2994.234,846.065,2998.903,842.73z"/>
	<path fill="#B2D3EA" d="M3149.336,1560.081c2.886,10.261,7.884,19.241,15.974,26.346c5.162,10.634-1.534,19.707-4.406,28.982
		c-8.942,28.882-9.752,56.996,4.8,84.437c9.724,18.336,20.29,20.347,34.515,5.664c18.608-19.207,28.571-42.221,28.729-69.228
		c0.083-14.1-1.094-28.414,6.029-41.505c10.977-5.598,15.324-13.94,16.84-26.814c2.889-24.547,1.07-49.257,4.514-73.672
		c23.897,7.599,46.899,17.086,68.11,30.716c20.101,12.917,38.22,27.695,50.922,48.411c21.641,35.296,18.999,83.311-12.06,116.031
		c-30.82,32.469-68.428,52.572-110.571,64.659c-23.219,6.659-47.013,11.027-71.285,13.82c-20.969,2.413-41.842,4.017-62.606,2.578
		c-56.208-3.893-110.912-14.182-161.074-42.118c-22.977-12.797-41.298-30.71-57.557-50.55
		c-10.761-13.132-16.503-29.414-16.034-47.095c0.036-1.352,0.073-2.714-0.035-4.06c-2.397-29.861,10.075-53.63,30.091-74.51
		c20.044-20.91,44.405-35.347,70.675-46.485c26.755-11.343,54.741-18.98,83.483-23.651c3.822,4.453,2.666,9.984,3.286,15.13
		c1.179,9.783,2.352,19.567,3.528,29.351c-6.313,13.299-19.344,20.295-28.964,30.484c-12.188,12.907-22.496,26.84-29.815,42.941
		c-3.354,7.378-7.412,15.652-1.6,22.923c5.824,7.285,14.876,4.678,22.791,3.575c35.849-4.996,63.19-25.346,88.559-49.28
		c6.372-6.011,11.139-13.545,18.237-18.851C3146.498,1557.666,3148.139,1558.261,3149.336,1560.081z"/>
	<linearGradient id="SVGID_8_" gradientUnits="userSpaceOnUse" x1="3195.7239" y1="1053.0071" x2="3477.7942" y2="1053.0071">
		<stop  offset="0" style="stop-color:#271887"/>
		<stop  offset="1" style="stop-color:#02BFE1"/>
	</linearGradient>
	<path fill="url(#SVGID_8_)" d="M3270.895,1210.233c-17.929,7.481-33.753,18.768-50.631,28.148
		c-6.676,3.71-12.414,4.531-18.107-1.194c-6.687-7.911-6.406-17.454-6.403-26.973c0.018-53.458,0.064-106.915-0.029-160.373
		c-0.024-13.852,1.433-27.07,11.279-37.857c38.736-26.801,80.572-48.49,121.352-71.949c5.376-3.093,11.575-3.718,17.071,0.736
		c8.064,14.264,1.467,30.332,6.44,48.847c7.691-13.647,10.844-25.46,11.272-38.352c0.331-9.956-1.066-20.1,2.673-29.788
		c25.347-22.768,57.556-34.532,85.454-53.231c7.24-4.853,15.249-4.532,22.959-0.289c3.203,4.783,3.054,10.202,3.064,15.629
		c0.105,60.142,0.027,120.285,0.504,180.425c0.137,17.25-6.111,29.103-21.564,37.857c-56.418,31.962-112.366,64.754-168.44,97.324
		C3281.98,1202.566,3276.518,1206.538,3270.895,1210.233z"/>
	<linearGradient id="SVGID_9_" gradientUnits="userSpaceOnUse" x1="2993.6667" y1="173.3199" x2="3251.2317" y2="173.3199">
		<stop  offset="0" style="stop-color:#271887"/>
		<stop  offset="1" style="stop-color:#02BFE1"/>
	</linearGradient>
	<path fill="url(#SVGID_9_)" d="M3241.846,306.615c-5.044,9.972-12.781,7.594-20.671,4.505c-15.46-9.285-27.044-23.64-42.738-32.637
		c-9.04-15.909-8.727-33.669-9.549-51.069c-0.42-8.875,5.291-14.926,12.643-19.48c7.722-4.784,14.706-10.39,13.086-20.891
		c-1.524-9.874-9.526-12.229-17.684-14.118c-4.699-1.088-9.424-2.682-12.399-6.48c-8.349-10.658-18.349-9.599-29.129-4.874
		c-24.911,7.871-50.458,12.26-76.428,14.218c-11.472,0.865-22.639-0.335-32.42-7.313c-4.63-2.865-9.562-4.816-15.081-4.999
		c-15.041-3.52-17.381-15.743-17.789-27.997c-1-30.099,31.517-76.929,70.191-85.844c5.482-2.417,10.875-5.065,16.463-7.207
		c15.01-5.752,30.342-9.879,46.686-8.809c3.283,0.215,6.626-0.493,9.936-0.78c9.41,1.023,18.81,1.711,28.107,4.067
		c34.726,8.802,58.626,30.114,72.705,62.547c8.709,20.062,13.554,41.198,13.452,63.194c-0.059,12.871-0.405,25.766-1.315,38.601
		C3247.422,236.386,3244.561,271.495,3241.846,306.615z"/>
	<linearGradient id="SVGID_10_" gradientUnits="userSpaceOnUse" x1="3278.7485" y1="512.15" x2="3381.9771" y2="512.15">
		<stop  offset="0" style="stop-color:#271887"/>
		<stop  offset="1" style="stop-color:#02BFE1"/>
	</linearGradient>
	<path fill="url(#SVGID_10_)" d="M3279.459,563.41c5.27-24.605,5.875-49.213,0.565-73.934c-0.978-4.552-0.736-9.4-0.768-14.114
		c-0.11-16.198,0.691-32.448-0.356-48.581c-0.938-14.439,2.704-28.108,5.042-41.927c1.547-9.145,6.352-17.721,12.891-24.844
		c4.087-4.453,9.038-8.186,11.584-13.924c13.718,3.535,20.948,14.208,27.546,25.382c11.82,20.017,18.946,41.952,23.926,64.412
		c8.919,40.229,15.241,80.97,20.052,121.873c2.686,22.835,2.296,45.942,1.213,68.956c-0.591,12.554-4.978,23.694-12.524,33.659
		c-21.701,19.583-48.859,23.325-71.286,9.854c-17.161-29.688-15.363-62.711-16.523-95.196
		C3280.679,571.083,3281.836,567.066,3279.459,563.41z"/>
	<path fill="#FFC2B0" d="M3300.363,668.003c12.972,8.389,26.678,6.124,40.21,2.224c9.509-2.741,18.714-6.534,28.055-9.858
		c-0.104,22.341,1.503,44.853-0.703,66.984c-3.498,35.095-3.092,70.192-3.844,105.31c-0.072,3.347-0.839,6.685-1.375,10.013
		s-1.672,6.63-1.713,9.954c-0.23,18.939,2.785,37.468,7.608,55.734c3.848,4.105,2.476,8.53,0.793,12.973
		c0.018,8.792,0.208,17.588,0.02,26.375c-0.371,17.25-5.032,33.349-13.832,48.179c-0.914,1.54-2.955,3.083-4.664,3.336
		c-3.503,0.519-4.311-2.916-4.718-5.21c-0.938-5.292-1.329-10.702-1.62-16.082c-0.656-12.156-1.118-24.324-1.66-36.486
		c-5.978-7.832-12.571-4.99-19.631-1.563c-6.479,3.145-13.139,4.798-15.956-4.988c-1.555-6.055-1.741-12.233-0.411-18.169
		c11.813-52.725,2.149-104.953-3.289-157.297c-2.514-24.204-5.296-48.384-7.279-72.64
		C3295.816,680.19,3293.949,673.177,3300.363,668.003z"/>
	<path fill="#FEC1B0" d="M3136.739,156.147c4.372-1.776,8.721-3.612,13.123-5.311c5.15-1.989,9.8-0.734,12.152,4.104
		c4.29,8.821,10.756,12.652,20.587,13.944c11.913,1.565,17.874,8.394,19.067,17.926c1.274,10.183-3.326,21.928-13.618,24.82
		c-15.553,4.369-16.308,14.443-13.832,26.522c2.709,13.213,1.095,27.208,7.235,39.772c6.483,8.657,12.216,17.859,18.087,26.895
		c17.362,26.723,5.478,57.343-25.233,65.557c-18.333,4.903-36.229,3.512-52.71-7.073c-22.452-14.421-28.506-38.198-16.041-61.742
		c3.872-7.315,12.573-13.394,7.21-23.612c-3.161-1.118-6.241-2.708-9.498-3.272c-15.059-2.607-27.531-10.361-39.404-19.34
		c-4.263-3.224-8.309-6.734-12.454-10.114c-8.733-12.483-19.108-24.108-20.985-40.173c-3.613-14.833,8.665-12.869,16.097-14.092
		C3079.083,185.602,3108.195,171.697,3136.739,156.147z"/>
	<path fill="#FEC2B0" d="M2940.788,636.033c0.469-23.439,0.91-46.878,1.423-70.315c0.176-8.037,0.535-16.07,0.813-24.12
		c5.783,1.398,11.567,2.798,17.345,4.226c14.264,3.524,28.484,6.641,43.141,1.591c3.02-1.041,6.571-0.541,9.877-0.752
		c4.16,33.377-4.728,65.586-9.96,97.911c-9.384,57.98-20.456,115.62-11.294,174.735c0.598,3.856,0.819,8.12-1.716,11.741
		c-2.278,2.942-5.097,4.672-8.392,1.929c-3.581-2.98-6.649-6.568-10.106-9.707c-6.094-5.532-10.813-4.041-12.121,4.504
		c-1.512,9.876-2.151,19.903-2.801,29.889c-0.607,9.333-0.804,18.692-3.374,27.774c-0.656,2.318-4.792,3.164-6.546,1.491
		c-5.568-5.309-6.772-12.906-10.248-19.313c-1.292-5.903-2.66-11.786-3.857-17.703c-2.152-10.634-2.375-21.142-1.274-32.121
		c2.09-20.845,4.531-41.598,8.081-62.234c0.342-1.989,0.579-4.024,0.588-6.039C2940.532,711.691,2940.656,673.862,2940.788,636.033z
		"/>
	<path fill="#E79994" d="M3136.739,156.147c-5.837,8.855-15.344,12.889-24.002,17.887c-22.507,12.992-46.935,20.183-72.729,22.6
		c-5.707,0.535-8.583,3.114-9.581,8.419c-6.53-11.643-3.715-24.267-3.865-36.578c35.721,4.807,70.228-1.231,104.26-11.639
		C3132.69,156.265,3134.761,156.362,3136.739,156.147z"/>
	<path fill="#173D7A" d="M3234.977,1594.777c2.005,22.99,1.177,45.846-4.181,68.344c-5.02,21.08-16.749,38.301-32.483,52.808
		c-12.054,11.114-25.743,9.137-33.624-5.318c-14.323-26.271-21.969-53.648-12.697-83.796c4.172-13.564,7.471-27.382,13.316-40.387
		C3187.688,1596.251,3210.937,1598.818,3234.977,1594.777z"/>
	<path fill="#183D7A" d="M3147.041,1559.999c-18.612,24.542-41.584,44.052-68.448,58.994c-13.152,7.316-27.621,10.768-42.303,13.181
		c-5.278,0.868-10.796,0.902-16.151,0.539c-11.479-0.777-16.784-7.96-14.156-19.405c1.195-5.199,3.293-10.289,5.638-15.11
		c14.495-29.802,35.255-54.114,63.584-71.674c12.945,18.585,31.016,27.737,53.379,28.986
		C3135.874,1552.332,3141.972,1554.052,3147.041,1559.999z"/>
</g>
</svg>
