<?xml version="1.0" encoding="utf-8"?>
<!-- Generator: Adobe Illustrator 18.0.0, SVG Export Plug-In . SVG Version: 6.00 Build 0)  -->
<!DOCTYPE svg PUBLIC "-//W3C//DTD SVG 1.1//EN" "http://www.w3.org/Graphics/SVG/1.1/DTD/svg11.dtd">
<svg version="1.1" xmlns="http://www.w3.org/2000/svg" xmlns:xlink="http://www.w3.org/1999/xlink" x="0px" y="0px"
	 viewBox="0 0 750 500" enable-background="new 0 0 750 500" xml:space="preserve">
<g id="BACKGROUND">
	<rect fill="#FFFFFF" width="750" height="500"/>
</g>
<g id="OBJECTS">
	<g>
		<g>
			<g>
				<path fill="#EDEEF7" d="M143.1,196.6c2.1,2.8,4.6,5.4,7.4,7.7c2.8,2.3,5.9,4.2,9,5.8l5-8.3c3,1.3,6,2.3,9.2,2.8l-0.4,9.7
					c7.1,1,14.4,0.2,21.1-2.1l-2.4-9.4c3-1.1,5.8-2.6,8.5-4.5l6.6,7.2c2.8-2.1,5.4-4.6,7.7-7.4c2.3-2.8,4.2-5.9,5.8-9l-8.3-5
					c1.3-3,2.3-6,2.8-9.2l9.7,0.4c1-7.1,0.2-14.4-2.1-21.1l-9.4,2.4c-1.1-3-2.6-5.8-4.5-8.5l7.2-6.6c-2.1-2.8-4.6-5.4-7.4-7.7
					c-2.8-2.3-5.9-4.2-9-5.8l-5,8.3c-3-1.3-6-2.3-9.2-2.8l0.4-9.7c-7.1-1-14.4-0.2-21.1,2.1l2.4,9.4c-3,1.1-5.8,2.6-8.5,4.5
					l-6.6-7.2c-2.8,2.1-5.4,4.6-7.7,7.4c-2.3,2.8-4.2,5.9-5.8,9l8.3,5c-1.3,3-2.3,6-2.8,9.2l-9.7-0.4c-1,7.1-0.2,14.4,2.1,21.1
					l9.4-2.4c1.1,3,2.6,5.8,4.5,8.5L143.1,196.6z M162.4,155c7.7-9.4,21.6-10.8,31-3.1c9.4,7.7,10.8,21.6,3.1,31
					c-7.7,9.4-21.6,10.8-31,3.1C156.1,178.3,154.8,164.4,162.4,155z M168.3,159.8c5.1-6.2,14.2-7.1,20.4-2c6.2,5.1,7.1,14.2,2,20.4
					c-5.1,6.2-14.2,7.1-20.4,2C164.1,175.1,163.2,165.9,168.3,159.8z"/>
				<path fill="#EDEEF7" d="M382.3,116.2c0.7,4.4,1.9,8.7,3.6,13c1.8,4.3,4,8.2,6.6,11.8l10.5-6.3c2.5,3.3,5.4,6.1,8.5,8.6
					l-6.3,10.5c7.3,5.3,15.8,8.8,24.7,10.3l3-11.9c4,0.5,8,0.6,12.1,0l3,11.9c4.4-0.7,8.7-1.9,13-3.6c4.3-1.8,8.2-4,11.8-6.6
					l-6.3-10.5c3.3-2.5,6.1-5.4,8.6-8.5l10.5,6.3c5.3-7.3,8.8-15.8,10.3-24.7l-11.9-3c0.5-4,0.6-8,0-12.1l11.9-3
					c-0.7-4.4-1.9-8.7-3.6-13c-1.8-4.3-4-8.2-6.6-11.8l-10.5,6.3c-2.5-3.3-5.4-6.1-8.5-8.6l6.3-10.5c-7.3-5.3-15.8-8.8-24.7-10.3
					l-3,11.9c-4-0.5-8-0.6-12.1,0l-3-11.9c-4.4,0.7-8.7,1.9-13,3.6c-4.3,1.8-8.2,4-11.8,6.6l6.3,10.5c-3.3,2.5-6.1,5.4-8.6,8.5
					l-10.5-6.3c-5.3,7.3-8.8,15.8-10.3,24.7l11.9,3c-0.5,4-0.6,8,0,12.1L382.3,116.2z M428.5,81.6c14.2-5.8,30.3,0.9,36.2,15.1
					c5.8,14.2-0.9,30.3-15.1,36.2c-14.2,5.8-30.3-0.9-36.2-15.1C407.6,103.7,414.4,87.5,428.5,81.6z M432.1,90.4
					c9.3-3.8,20,0.6,23.8,9.9c3.8,9.3-0.6,20-9.9,23.8c-9.3,3.8-20-0.6-23.8-9.9C418.4,104.9,422.8,94.2,432.1,90.4z"/>
				<path fill="#EDEEF7" d="M543.7,161.4c1.7,2.2,3.6,4.2,5.8,6.1c2.2,1.8,4.6,3.3,7.1,4.5l3.9-6.6c2.3,1.1,4.8,1.8,7.2,2.2
					l-0.4,7.7c5.6,0.8,11.3,0.2,16.6-1.7l-1.9-7.4c2.3-0.9,4.6-2.1,6.7-3.6l5.2,5.7c2.2-1.7,4.2-3.6,6.1-5.8
					c1.8-2.2,3.3-4.6,4.5-7.1l-6.6-3.9c1.1-2.3,1.8-4.8,2.2-7.2l7.7,0.4c0.8-5.6,0.2-11.3-1.7-16.6l-7.4,1.9
					c-0.9-2.3-2.1-4.6-3.6-6.7l5.7-5.2c-1.7-2.2-3.6-4.2-5.8-6.1c-2.2-1.8-4.6-3.3-7.1-4.5l-3.9,6.6c-2.3-1.1-4.8-1.8-7.2-2.2
					l0.4-7.7c-5.6-0.8-11.3-0.2-16.6,1.7l1.9,7.4c-2.3,0.9-4.6,2.1-6.7,3.6l-5.2-5.7c-2.2,1.7-4.2,3.6-6.1,5.8
					c-1.8,2.2-3.3,4.6-4.5,7.1l6.6,3.9c-1.1,2.3-1.8,4.8-2.2,7.2l-7.7-0.4c-0.8,5.6-0.2,11.3,1.7,16.6l7.4-1.9
					c0.9,2.3,2.1,4.6,3.6,6.7L543.7,161.4z M558.9,128.7c6.1-7.4,17-8.5,24.4-2.4c7.4,6.1,8.5,17,2.4,24.4c-6.1,7.4-17,8.5-24.4,2.4
					C554,147,552.9,136.1,558.9,128.7z M563.5,132.5c4-4.9,11.2-5.6,16-1.6c4.9,4,5.6,11.2,1.6,16c-4,4.9-11.2,5.6-16,1.6
					C560.2,144.5,559.5,137.3,563.5,132.5z"/>
				<path fill="#EDEEF7" d="M232.1,107.6c0.8-1.7,1.4-3.4,1.7-5.3c0.4-1.9,0.5-3.7,0.5-5.5l-5.1-0.3c-0.1-1.7-0.4-3.3-1-4.9l4.6-2.2
					c-1.3-3.5-3.4-6.7-6.1-9.2l-3.8,3.4c-1.2-1.1-2.6-2-4.1-2.8l1.7-4.8c-1.7-0.8-3.4-1.4-5.3-1.7c-1.9-0.4-3.7-0.5-5.5-0.5
					l-0.3,5.1c-1.7,0.1-3.3,0.4-4.9,1l-2.2-4.6c-3.5,1.3-6.7,3.4-9.2,6.1l3.4,3.8c-1.1,1.2-2,2.6-2.8,4.1l-4.8-1.7
					c-0.8,1.7-1.4,3.4-1.7,5.3c-0.4,1.9-0.5,3.7-0.5,5.5l5.1,0.3c0.1,1.7,0.4,3.3,1,4.9l-4.6,2.2c1.3,3.5,3.4,6.7,6.1,9.2l3.8-3.4
					c1.2,1.1,2.6,2,4.1,2.8l-1.7,4.8c1.7,0.8,3.4,1.4,5.3,1.7c1.9,0.4,3.7,0.5,5.5,0.5l0.3-5.1c1.7-0.1,3.3-0.4,4.9-1l2.2,4.6
					c3.5-1.3,6.7-3.4,9.2-6.1l-3.4-3.8c1.1-1.2,2-2.6,2.8-4.1L232.1,107.6z M208.3,108.8c-6.2-1.3-10.2-7.3-9-13.5
					c1.3-6.2,7.3-10.2,13.5-9c6.2,1.3,10.2,7.3,9,13.5C220.5,106.1,214.5,110.1,208.3,108.8z"/>
				<path fill="#EDEEF7" d="M632.1,199.4c1.1-1.3,2-2.6,2.8-4.2s1.4-3.1,1.7-4.7l-4.3-1.5c0.3-1.5,0.4-3,0.4-4.5l4.5-0.8
					c-0.3-3.4-1.3-6.6-3.1-9.5l-4.1,2c-0.8-1.3-1.8-2.4-2.9-3.4l2.6-3.7c-1.3-1.1-2.6-2-4.2-2.8c-1.5-0.8-3.1-1.4-4.7-1.7l-1.5,4.3
					c-1.5-0.3-3-0.4-4.5-0.4l-0.8-4.5c-3.4,0.3-6.6,1.3-9.5,3.1l2,4.1c-1.3,0.8-2.4,1.8-3.4,2.9l-3.7-2.6c-1.1,1.3-2,2.6-2.8,4.2
					c-0.8,1.5-1.4,3.1-1.7,4.7l4.3,1.5c-0.3,1.5-0.4,3-0.4,4.5l-4.5,0.8c0.3,3.4,1.3,6.6,3.1,9.5l4.1-2c0.8,1.3,1.8,2.4,2.9,3.4
					l-2.6,3.7c1.3,1.1,2.6,2,4.2,2.8c1.5,0.8,3.1,1.4,4.7,1.7l1.5-4.3c1.5,0.3,3,0.4,4.5,0.4l0.8,4.5c3.4-0.3,6.6-1.3,9.5-3.1
					l-2-4.1c1.3-0.8,2.4-1.8,3.4-2.9L632.1,199.4z M611.1,194.7c-5.1-2.6-7.1-8.8-4.5-13.9c2.6-5.1,8.8-7.1,13.9-4.5
					c5.1,2.6,7.1,8.8,4.5,13.9C622.4,195.3,616.2,197.3,611.1,194.7z"/>
				<path fill="#EDEEF7" d="M50,281.5h-3.4c-0.6,0-1.1-0.5-1.1-1.1v-3.4c0-0.6,0.5-1.1,1.1-1.1H50c0.6,0,1.1,0.5,1.1,1.1v3.4
					C51.1,281.1,50.6,281.5,50,281.5z"/>
				<path fill="#EDEEF7" d="M704.5,234h-3.4c-0.6,0-1.1-0.5-1.1-1.1v-3.4c0-0.6,0.5-1.1,1.1-1.1h3.4c0.6,0,1.1,0.5,1.1,1.1v3.4
					C705.6,233.5,705.1,234,704.5,234z"/>
				<path fill="#EDEEF7" d="M371.1,64.5h-3.4c-0.6,0-1.1-0.5-1.1-1.1V60c0-0.6,0.5-1.1,1.1-1.1h3.4c0.6,0,1.1,0.5,1.1,1.1v3.4
					C372.2,64,371.7,64.5,371.1,64.5z"/>
				<path fill="#EDEEF7" d="M587.5,204.6h-3.4c-0.6,0-1.1-0.5-1.1-1.1v-3.4c0-0.6,0.5-1.1,1.1-1.1h3.4c0.6,0,1.1,0.5,1.1,1.1v3.4
					C588.6,204.1,588.1,204.6,587.5,204.6z"/>
				<path fill="#EDEEF7" d="M266.7,110.6h-3.4c-0.6,0-1.1-0.5-1.1-1.1v-3.4c0-0.6,0.5-1.1,1.1-1.1h3.4c0.6,0,1.1,0.5,1.1,1.1v3.4
					C267.8,110.2,267.3,110.6,266.7,110.6z"/>
			</g>
			<circle fill="none" stroke="#C5C8EF" stroke-linejoin="round" stroke-miterlimit="10" cx="205.6" cy="218.8" r="4.6"/>
			<circle fill="none" stroke="#C5C8EF" stroke-linejoin="round" stroke-miterlimit="10" cx="144.2" cy="111.9" r="4.6"/>
			<circle fill="none" stroke="#C5C8EF" stroke-linejoin="round" stroke-miterlimit="10" cx="663.4" cy="163" r="4.6"/>
			<circle fill="none" stroke="#C5C8EF" stroke-linejoin="round" stroke-miterlimit="10" cx="176.5" cy="107" r="2.4"/>
			<circle fill="none" stroke="#C5C8EF" stroke-linejoin="round" stroke-miterlimit="10" cx="60.2" cy="222.8" r="2.4"/>
			<circle fill="none" stroke="#C5C8EF" stroke-linejoin="round" stroke-miterlimit="10" cx="280.4" cy="98.2" r="2.4"/>
			<circle fill="none" stroke="#C5C8EF" stroke-linejoin="round" stroke-miterlimit="10" cx="622.3" cy="132.1" r="2.4"/>
			<circle fill="none" stroke="#C5C8EF" stroke-linejoin="round" stroke-miterlimit="10" cx="573.5" cy="286" r="2.4"/>
			
				<line fill="none" stroke="#C5C8EF" stroke-linejoin="round" stroke-miterlimit="10" x1="103.4" y1="151.6" x2="115.7" y2="151.6"/>
			<line fill="none" stroke="#C5C8EF" stroke-linejoin="round" stroke-miterlimit="10" x1="86" y1="145.5" x2="109.5" y2="145.5"/>
			<line fill="none" stroke="#C5C8EF" stroke-linejoin="round" stroke-miterlimit="10" x1="312.2" y1="71.9" x2="329.5" y2="71.9"/>
			<line fill="none" stroke="#C5C8EF" stroke-linejoin="round" stroke-miterlimit="10" x1="328.4" y1="77.9" x2="340.7" y2="77.9"/>
			
				<line fill="none" stroke="#C5C8EF" stroke-linejoin="round" stroke-miterlimit="10" x1="667.5" y1="206.2" x2="683.1" y2="206.2"/>
			
				<line fill="none" stroke="#C5C8EF" stroke-linejoin="round" stroke-miterlimit="10" x1="687.9" y1="206.2" x2="695.5" y2="206.2"/>
			<line fill="none" stroke="#C5C8EF" stroke-linejoin="round" stroke-miterlimit="10" x1="306.7" y1="120.9" x2="319" y2="120.9"/>
			<g>
				
					<line fill="none" stroke="#C5C8EF" stroke-linecap="round" stroke-linejoin="round" stroke-miterlimit="10" x1="108.5" y1="185.5" x2="108.5" y2="190.5"/>
				
					<line fill="none" stroke="#C5C8EF" stroke-linecap="round" stroke-linejoin="round" stroke-miterlimit="10" x1="111" y1="188" x2="106" y2="188"/>
			</g>
			<g>
				
					<line fill="none" stroke="#C5C8EF" stroke-linecap="round" stroke-linejoin="round" stroke-miterlimit="10" x1="519.6" y1="106.9" x2="519.6" y2="111.9"/>
				
					<line fill="none" stroke="#C5C8EF" stroke-linecap="round" stroke-linejoin="round" stroke-miterlimit="10" x1="522" y1="109.4" x2="517.1" y2="109.4"/>
			</g>
			<g>
				
					<line fill="none" stroke="#C5C8EF" stroke-linecap="round" stroke-linejoin="round" stroke-miterlimit="10" x1="351.7" y1="102.7" x2="351.7" y2="107.7"/>
				
					<line fill="none" stroke="#C5C8EF" stroke-linecap="round" stroke-linejoin="round" stroke-miterlimit="10" x1="354.2" y1="105.2" x2="349.2" y2="105.2"/>
			</g>
			<g>
				
					<line fill="none" stroke="#C5C8EF" stroke-linecap="round" stroke-linejoin="round" stroke-miterlimit="10" x1="695.5" y1="316.6" x2="695.5" y2="321.5"/>
				
					<line fill="none" stroke="#C5C8EF" stroke-linecap="round" stroke-linejoin="round" stroke-miterlimit="10" x1="698" y1="319.1" x2="693" y2="319.1"/>
			</g>
		</g>
		<g>
			
				<rect x="220.8" y="120.7" fill="#FFFFFF" stroke="#7C8BD8" stroke-linejoin="round" stroke-miterlimit="10" width="308.5" height="205.7"/>
			
				<rect x="230.8" y="130.7" fill="none" stroke="#7C8BD8" stroke-linejoin="round" stroke-miterlimit="10" width="288.5" height="185.7"/>
			<g>
				<g>
					<path fill="#FFFFFF" stroke="#7C8BD8" stroke-linejoin="round" stroke-miterlimit="10" d="M332.5,223.6
						c0-23.5,19-42.5,42.5-42.5c23.5,0,42.5,19,42.5,42.5c0,9.4-3,18-8.1,25h0c-6.1,9.1-21.8,19.5-21.8,25.6v7.1
						c0,1.4-1.1,2.6-2.6,2.6h-6.8h-6.3H365c-1.4,0-2.6-1.1-2.6-2.6v-7.1c0-6.2-15.8-16.5-21.8-25.6l0,0
						C335.5,241.6,332.5,232.9,332.5,223.6z"/>
				</g>
				<g>
					<path fill="#7C8BD8" d="M379.8,283.2c0-1.1-0.8-18.1,0.6-33.1c-1.7,0.2-3.5,0.3-5.4,0.3c-1.9,0-3.7-0.1-5.4-0.3
						c1.4,14.9,0.6,32,0.6,33.1l-0.7,0c0-0.3,0.8-17.9-0.6-33.1c-12.6-1.8-18.2-8.9-19.3-15.6c-0.6-3.9,0.8-7.9,3.2-9.3
						c1.5-0.9,3.3-1.1,5.2-0.5c3,0.9,5.9,3.4,7.6,6.9c2.1,4,3.3,10.7,4,17.9c1.7,0.2,3.5,0.3,5.5,0.3c1.9,0,3.8-0.1,5.5-0.3
						c0.7-7.2,1.9-13.9,4-17.9c1.8-3.5,4.6-6.1,7.6-6.9c1.9-0.5,3.7-0.4,5.2,0.5c2.4,1.5,3.8,5.4,3.2,9.3c-1,6.7-6.7,13.9-19.3,15.6
						c-1.4,15.2-0.6,32.9-0.6,33.1L379.8,283.2z M394.1,225c-0.6,0-1.2,0.1-1.9,0.3c-2.8,0.8-5.5,3.2-7.2,6.5
						c-2,3.9-3.2,10.3-3.8,17.4c12.1-1.7,17.5-8.5,18.4-15c0.5-3.6-0.7-7.3-2.8-8.6C396,225.2,395.1,225,394.1,225z M355.9,225
						c-1,0-1.9,0.2-2.7,0.7c-2.2,1.3-3.4,5-2.8,8.6c1,6.4,6.4,13.2,18.4,15c-0.7-7.1-1.9-13.6-3.8-17.4c-1.7-3.3-4.4-5.7-7.2-6.5
						C357.1,225.1,356.5,225,355.9,225z"/>
				</g>
				<g>
					<path fill="#EDEEF7" d="M410.4,226c-1.3,0-2.4-1.1-2.4-2.4c0-15.1-10.2-28.3-24.9-32c-1.3-0.3-2.1-1.7-1.8-3
						c0.3-1.3,1.7-2.1,3-1.8c16.8,4.3,28.5,19.3,28.5,36.7C412.8,224.9,411.8,226,410.4,226z"/>
				</g>
				<g>
					<circle fill="#EDEEF7" cx="376.6" cy="188.1" r="2.4"/>
				</g>
				<g>
					<path fill="#FFFFFF" stroke="#7C8BD8" stroke-linejoin="round" stroke-miterlimit="10" d="M388.5,277.3h-27v12.9
						c0,2.1,0.6,4.2,1.7,5.9l0,0c2.1,3.4,5.8,5.4,9.8,5.4h4c4,0,7.7-2,9.8-5.4l0,0c1.1-1.8,1.7-3.8,1.7-5.9V277.3z"/>
				</g>
				<g>
					<g>
						<path fill="#FFFFFF" stroke="#7C8BD8" stroke-linejoin="round" stroke-miterlimit="10" d="M387.4,297.7c-0.1,0-0.2,0-0.2,0
							l-25.6-2.2c-0.9-0.1-1.6-0.9-1.4-1.8c0.1-0.9,1-1.6,1.9-1.5l25.6,2.2c0.9,0.1,1.6,0.9,1.4,1.8
							C389,297,388.3,297.6,387.4,297.7z"/>
					</g>
				</g>
				<g>
					<g>
						<path fill="#FFFFFF" stroke="#7C8BD8" stroke-linejoin="round" stroke-miterlimit="10" d="M388.5,286.2c-0.1,0-0.2,0-0.2,0
							l-27-2.3c-0.9-0.1-1.6-0.9-1.4-1.8c0.1-0.9,1-1.6,1.9-1.5l27,2.3c0.9,0.1,1.6,0.9,1.4,1.8
							C390.1,285.5,389.4,286.1,388.5,286.2z"/>
					</g>
				</g>
				<g>
					<g>
						<path fill="#FFFFFF" stroke="#7C8BD8" stroke-linejoin="round" stroke-miterlimit="10" d="M388.5,292.1c-0.1,0-0.2,0-0.2,0
							l-27-2.3c-0.9-0.1-1.6-0.9-1.4-1.8c0.1-0.9,1-1.6,1.9-1.5l27,2.3c0.9,0.1,1.6,0.9,1.4,1.8C390.1,291.4,389.4,292,388.5,292.1z
							"/>
					</g>
				</g>
				<g>
					
						<line fill="none" stroke="#7C8BD8" stroke-linejoin="round" stroke-miterlimit="10" x1="375.1" y1="159.9" x2="375.1" y2="174.6"/>
					
						<line fill="none" stroke="#7C8BD8" stroke-linejoin="round" stroke-miterlimit="10" x1="420.3" y1="178.7" x2="409.9" y2="189.1"/>
					
						<line fill="none" stroke="#7C8BD8" stroke-linejoin="round" stroke-miterlimit="10" x1="329.8" y1="178.6" x2="340.2" y2="189"/>
					
						<line fill="none" stroke="#7C8BD8" stroke-linejoin="round" stroke-miterlimit="10" x1="350.6" y1="164.8" x2="356.2" y2="178.3"/>
					
						<line fill="none" stroke="#7C8BD8" stroke-linejoin="round" stroke-miterlimit="10" x1="399.6" y1="164.8" x2="394" y2="178.4"/>
					
						<line fill="none" stroke="#7C8BD8" stroke-linejoin="round" stroke-miterlimit="10" x1="434.2" y1="199.5" x2="420.6" y2="205.1"/>
					
						<line fill="none" stroke="#7C8BD8" stroke-linejoin="round" stroke-miterlimit="10" x1="315.9" y1="199.4" x2="329.4" y2="205"/>
				</g>
			</g>
			<g>
				<g>
					<g>
						<rect x="246.8" y="176.3" opacity="0.35" fill="#ABB3ED" width="18.8" height="15.1"/>
						<line opacity="0.35" fill="none" stroke="#ABB3ED" stroke-miterlimit="10" x1="274.2" y1="176.3" x2="287.2" y2="176.3"/>
						<line opacity="0.35" fill="none" stroke="#ABB3ED" stroke-miterlimit="10" x1="274.2" y1="191.5" x2="300.5" y2="191.5"/>
						<line opacity="0.35" fill="none" stroke="#ABB3ED" stroke-miterlimit="10" x1="274.2" y1="186.6" x2="300.5" y2="186.6"/>
						<line opacity="0.35" fill="none" stroke="#ABB3ED" stroke-miterlimit="10" x1="274.2" y1="181.9" x2="300.5" y2="181.9"/>
					</g>
					<g>
						<rect x="246.8" y="206.5" opacity="0.35" fill="#ABB3ED" width="18.8" height="15.1"/>
						<line opacity="0.35" fill="none" stroke="#ABB3ED" stroke-miterlimit="10" x1="274.2" y1="206.5" x2="287.2" y2="206.5"/>
						<line opacity="0.35" fill="none" stroke="#ABB3ED" stroke-miterlimit="10" x1="274.2" y1="221.6" x2="300.5" y2="221.6"/>
						<line opacity="0.35" fill="none" stroke="#ABB3ED" stroke-miterlimit="10" x1="274.2" y1="216.7" x2="300.5" y2="216.7"/>
						<line opacity="0.35" fill="none" stroke="#ABB3ED" stroke-miterlimit="10" x1="274.2" y1="212" x2="300.5" y2="212"/>
					</g>
					<g>
						<rect x="246.8" y="236.6" opacity="0.35" fill="#ABB3ED" width="18.8" height="15.1"/>
						<line opacity="0.35" fill="none" stroke="#ABB3ED" stroke-miterlimit="10" x1="274.2" y1="236.6" x2="287.2" y2="236.6"/>
						<line opacity="0.35" fill="none" stroke="#ABB3ED" stroke-miterlimit="10" x1="274.2" y1="251.7" x2="300.5" y2="251.7"/>
						<line opacity="0.35" fill="none" stroke="#ABB3ED" stroke-miterlimit="10" x1="274.2" y1="246.9" x2="300.5" y2="246.9"/>
						<line opacity="0.35" fill="none" stroke="#ABB3ED" stroke-miterlimit="10" x1="274.2" y1="242.1" x2="300.5" y2="242.1"/>
					</g>
					<g>
						<rect x="246.8" y="266.7" opacity="0.35" fill="#ABB3ED" width="18.8" height="15.1"/>
						<line opacity="0.35" fill="none" stroke="#ABB3ED" stroke-miterlimit="10" x1="274.2" y1="266.7" x2="287.2" y2="266.7"/>
						<line opacity="0.35" fill="none" stroke="#ABB3ED" stroke-miterlimit="10" x1="274.2" y1="281.9" x2="300.5" y2="281.9"/>
						<line opacity="0.35" fill="none" stroke="#ABB3ED" stroke-miterlimit="10" x1="274.2" y1="277" x2="300.5" y2="277"/>
						<line opacity="0.35" fill="none" stroke="#ABB3ED" stroke-miterlimit="10" x1="274.2" y1="272.3" x2="300.5" y2="272.3"/>
					</g>
				</g>
				<g>
					<g>
						<rect x="449.5" y="176.3" opacity="0.35" fill="#ABB3ED" width="18.8" height="15.1"/>
						<line opacity="0.35" fill="none" stroke="#ABB3ED" stroke-miterlimit="10" x1="476.9" y1="176.3" x2="489.9" y2="176.3"/>
						<line opacity="0.35" fill="none" stroke="#ABB3ED" stroke-miterlimit="10" x1="476.9" y1="191.5" x2="503.2" y2="191.5"/>
						<line opacity="0.35" fill="none" stroke="#ABB3ED" stroke-miterlimit="10" x1="476.9" y1="186.6" x2="503.2" y2="186.6"/>
						<line opacity="0.35" fill="none" stroke="#ABB3ED" stroke-miterlimit="10" x1="476.9" y1="181.9" x2="503.2" y2="181.9"/>
					</g>
					<g>
						<rect x="449.5" y="206.5" opacity="0.35" fill="#ABB3ED" width="18.8" height="15.1"/>
						<line opacity="0.35" fill="none" stroke="#ABB3ED" stroke-miterlimit="10" x1="476.9" y1="206.5" x2="489.9" y2="206.5"/>
						<line opacity="0.35" fill="none" stroke="#ABB3ED" stroke-miterlimit="10" x1="476.9" y1="221.6" x2="503.2" y2="221.6"/>
						<line opacity="0.35" fill="none" stroke="#ABB3ED" stroke-miterlimit="10" x1="476.9" y1="216.7" x2="503.2" y2="216.7"/>
						<line opacity="0.35" fill="none" stroke="#ABB3ED" stroke-miterlimit="10" x1="476.9" y1="212" x2="503.2" y2="212"/>
					</g>
					<g>
						<rect x="449.5" y="236.6" opacity="0.35" fill="#ABB3ED" width="18.8" height="15.1"/>
						<line opacity="0.35" fill="none" stroke="#ABB3ED" stroke-miterlimit="10" x1="476.9" y1="236.6" x2="489.9" y2="236.6"/>
						<line opacity="0.35" fill="none" stroke="#ABB3ED" stroke-miterlimit="10" x1="476.9" y1="251.7" x2="503.2" y2="251.7"/>
						<line opacity="0.35" fill="none" stroke="#ABB3ED" stroke-miterlimit="10" x1="476.9" y1="246.9" x2="503.2" y2="246.9"/>
						<line opacity="0.35" fill="none" stroke="#ABB3ED" stroke-miterlimit="10" x1="476.9" y1="242.1" x2="503.2" y2="242.1"/>
					</g>
					<g>
						<rect x="449.5" y="266.7" opacity="0.35" fill="#ABB3ED" width="18.8" height="15.1"/>
						<line opacity="0.35" fill="none" stroke="#ABB3ED" stroke-miterlimit="10" x1="476.9" y1="266.7" x2="489.9" y2="266.7"/>
						<line opacity="0.35" fill="none" stroke="#ABB3ED" stroke-miterlimit="10" x1="476.9" y1="281.9" x2="503.2" y2="281.9"/>
						<line opacity="0.35" fill="none" stroke="#ABB3ED" stroke-miterlimit="10" x1="476.9" y1="277" x2="503.2" y2="277"/>
						<line opacity="0.35" fill="none" stroke="#ABB3ED" stroke-miterlimit="10" x1="476.9" y1="272.3" x2="503.2" y2="272.3"/>
					</g>
				</g>
			</g>
			<g>
				
					<line fill="none" stroke="#7C8BD8" stroke-linejoin="round" stroke-miterlimit="10" x1="501.9" y1="120.7" x2="501.9" y2="85.1"/>
				<circle fill="none" stroke="#7C8BD8" stroke-linejoin="round" stroke-miterlimit="10" cx="501.9" cy="82.2" r="2.8"/>
				
					<line fill="none" stroke="#7C8BD8" stroke-linejoin="round" stroke-miterlimit="10" x1="248.1" y1="120.7" x2="248.1" y2="85.1"/>
				<circle fill="none" stroke="#7C8BD8" stroke-linejoin="round" stroke-miterlimit="10" cx="248.1" cy="82.2" r="2.8"/>
			</g>
			
				<line opacity="0.35" fill="none" stroke="#ABB3ED" stroke-width="2" stroke-linecap="round" stroke-linejoin="round" stroke-miterlimit="10" x1="333.2" y1="140.3" x2="416.8" y2="140.3"/>
			
				<line opacity="0.35" fill="none" stroke="#ABB3ED" stroke-width="2" stroke-linecap="round" stroke-linejoin="round" stroke-miterlimit="10" x1="309.2" y1="149.4" x2="440.8" y2="149.4"/>
		</g>
		<g>
			<g>
				<g>
					<g>
						<path fill="#FFFFFF" stroke="#C5C8EF" stroke-linejoin="round" stroke-miterlimit="10" d="M589.3,385.1
							c-5.8-16.2-20.2-51.2-7.1-101.8c22.9,28.3,24.3,69.1,22,106"/>
						<path fill="none" stroke="#C5C8EF" stroke-linejoin="round" stroke-miterlimit="10" d="M582.2,283.3c0,0,4.9,64.4,13.9,105.1"
							/>
						<path fill="none" stroke="#C5C8EF" stroke-linejoin="round" stroke-miterlimit="10" d="M582.2,283.3c0,0-5.3,46,9.8,104.3"/>
						<path fill="none" stroke="#C5C8EF" stroke-linejoin="round" stroke-miterlimit="10" d="M598.9,387.9c0,0-6.7-80.8-16.6-104.6"
							/>
						<path fill="none" stroke="#C5C8EF" stroke-linejoin="round" stroke-miterlimit="10" d="M601.4,388c0,0,0.9-76-19.1-104.7"/>
					</g>
					<g>
						<path fill="#FFFFFF" stroke="#C5C8EF" stroke-linejoin="round" stroke-miterlimit="10" d="M577.5,392.8
							c-8.7-11.5-29.3-36.2-25.5-76.7c27.7,18.3,36.6,49.3,41,77.8"/>
						<path fill="none" stroke="#C5C8EF" stroke-linejoin="round" stroke-miterlimit="10" d="M552,316.1c0,0,9.5,48.4,29,76.6"/>
						<path fill="none" stroke="#C5C8EF" stroke-linejoin="round" stroke-miterlimit="10" d="M584.7,393.9c0,0-24.7-66.8-32.8-77.8"
							/>
						<path fill="none" stroke="#C5C8EF" stroke-linejoin="round" stroke-miterlimit="10" d="M589.3,393.9c0,0-14.7-60.2-37.4-77.8"
							/>
					</g>
					<g>
						<path fill="#FFFFFF" stroke="#C5C8EF" stroke-linejoin="round" stroke-miterlimit="10" d="M617.7,384.3
							c7.4-16.7,25.6-52.8,13.7-106.4c-27.2,28.7-31.2,71.4-30.6,110.1"/>
						<path fill="none" stroke="#C5C8EF" stroke-linejoin="round" stroke-miterlimit="10" d="M631.4,277.9c0,0-9.2,67.3-21.6,109.6"
							/>
						<path fill="none" stroke="#C5C8EF" stroke-linejoin="round" stroke-miterlimit="10" d="M631.4,277.9c0,0,3.3,48.4-16.9,108.9"
							/>
						<path fill="none" stroke="#C5C8EF" stroke-linejoin="round" stroke-miterlimit="10" d="M606.8,386.8c0,0,12.1-84.4,24.5-108.9
							"/>
						<path fill="none" stroke="#C5C8EF" stroke-linejoin="round" stroke-miterlimit="10" d="M604,386.8c0,0,3.3-79.7,27.3-108.9"/>
					</g>
					<g>
						<path fill="#FFFFFF" stroke="#C5C8EF" stroke-linejoin="round" stroke-miterlimit="10" d="M622.3,404.5
							c9.1-13.4,30.4-41.8,31.4-91.4c-27,20.1-38.4,57.1-45.5,91.5"/>
						<path fill="none" stroke="#C5C8EF" stroke-linejoin="round" stroke-miterlimit="10" d="M653.8,313.1c0,0-13.9,58.2-34.6,91.1"
							/>
						<path fill="none" stroke="#C5C8EF" stroke-linejoin="round" stroke-miterlimit="10" d="M615.7,405.2c0,0,29.6-79.5,38.1-92.2"
							/>
						<path fill="none" stroke="#C5C8EF" stroke-linejoin="round" stroke-miterlimit="10" d="M611.5,404.8c0,0,19.9-72.2,42.2-91.8"
							/>
					</g>
					<g id="XMLID_15_">
						<path fill="#E5EAF9" d="M637.7,384.2v15.3c0,33.9-13.8,55.7-13.8,55.7h-42.7c0,0-13.8-21.8-13.8-55.7v-15.3H637.7z"/>
					</g>
				</g>
			</g>
			<g>
				<g>
					<g>
						<path fill="#FFFFFF" stroke="#C5C8EF" stroke-linejoin="round" stroke-miterlimit="10" d="M79.2,383.8
							c-5.1-22.8-18.1-71.9-2.5-144.2c21.8,39.2,21.4,97.1,17.4,149.5"/>
						<path fill="none" stroke="#C5C8EF" stroke-linejoin="round" stroke-miterlimit="10" d="M76.7,239.6c0,0,2.1,91.2,9.3,148.6"/>
						<path fill="none" stroke="#C5C8EF" stroke-linejoin="round" stroke-miterlimit="10" d="M76.7,239.6c0,0-7.4,65.5,5.1,147.6"/>
						<path fill="none" stroke="#C5C8EF" stroke-linejoin="round" stroke-miterlimit="10" d="M88.7,387.4c0,0-3.1-114.4-12-147.8"/>
						<path fill="none" stroke="#C5C8EF" stroke-linejoin="round" stroke-miterlimit="10" d="M91.3,387.5c0,0,4.4-107.9-14.5-147.8"
							/>
					</g>
					<g>
						<path fill="#FFFFFF" stroke="#C5C8EF" stroke-linejoin="round" stroke-miterlimit="10" d="M68.3,392.6
							c-8.7-14.3-29.3-44.8-25.5-95c27.7,22.7,36.6,61.1,41,96.3"/>
						<path fill="none" stroke="#C5C8EF" stroke-linejoin="round" stroke-miterlimit="10" d="M42.8,297.6c0,0,9.5,59.9,29,94.9"/>
						<path fill="none" stroke="#C5C8EF" stroke-linejoin="round" stroke-miterlimit="10" d="M75.6,393.9c0,0-24.7-82.8-32.8-96.3"
							/>
						<path fill="none" stroke="#C5C8EF" stroke-linejoin="round" stroke-miterlimit="10" d="M80.2,393.9c0,0-14.7-74.5-37.4-96.3"
							/>
					</g>
					<g>
						<path fill="#FFFFFF" stroke="#C5C8EF" stroke-linejoin="round" stroke-miterlimit="10" d="M110,383.5
							c7-20,24.1-63.2,12.5-127.5C96.6,290.2,93,341.5,93.8,387.9"/>
						<path fill="none" stroke="#C5C8EF" stroke-linejoin="round" stroke-miterlimit="10" d="M122.4,256c0,0-8.4,80.7-20,131.3"/>
						<path fill="none" stroke="#C5C8EF" stroke-linejoin="round" stroke-miterlimit="10" d="M122.4,256c0,0,3.4,58.1-15.5,130.5"/>
						<path fill="none" stroke="#C5C8EF" stroke-linejoin="round" stroke-miterlimit="10" d="M99.6,386.5c0,0,11.1-101.2,22.9-130.5
							"/>
						<path fill="none" stroke="#C5C8EF" stroke-linejoin="round" stroke-miterlimit="10" d="M96.9,386.5c0,0,2.7-95.6,25.5-130.5"
							/>
					</g>
					<g>
						<path fill="#FFFFFF" stroke="#C5C8EF" stroke-linejoin="round" stroke-miterlimit="10" d="M115.2,404.5
							c9.1-13.4,30.4-41.8,31.4-91.4c-27,20.1-38.4,57.1-45.5,91.5"/>
						<path fill="none" stroke="#C5C8EF" stroke-linejoin="round" stroke-miterlimit="10" d="M146.6,313.1c0,0-13.9,58.2-34.6,91.1"
							/>
						<path fill="none" stroke="#C5C8EF" stroke-linejoin="round" stroke-miterlimit="10" d="M108.5,405.2c0,0,29.6-79.5,38.1-92.2"
							/>
						<path fill="none" stroke="#C5C8EF" stroke-linejoin="round" stroke-miterlimit="10" d="M104.4,404.8c0,0,19.9-72.2,42.2-91.8"
							/>
					</g>
					<g id="XMLID_14_">
						<path fill="#E5EAF9" d="M130.5,384.2v15.3c0,33.9-13.8,55.7-13.8,55.7H74c0,0-13.8-21.8-13.8-55.7v-15.3H130.5z"/>
					</g>
				</g>
			</g>
			<g>
				<g>
					<g>
						<path fill="#FFFFFF" stroke="#C5C8EF" stroke-linejoin="round" stroke-miterlimit="10" d="M472.3,404.9
							c-3.5-11.8-12.5-37.5,2.3-70.4c16.8,24,14.5,50.2,9.6,75.1"/>
						<path fill="none" stroke="#C5C8EF" stroke-linejoin="round" stroke-miterlimit="10" d="M474.6,334.5c0,0-5.7,31.1,2,72.8"/>
						<path fill="none" stroke="#C5C8EF" stroke-linejoin="round" stroke-miterlimit="10" d="M477.6,407.6c0,0,3.1-55.6-3.1-73.1"/>
						<path fill="none" stroke="#C5C8EF" stroke-linejoin="round" stroke-miterlimit="10" d="M479.7,408c0,0,9-51.4-5.1-73.5"/>
					</g>
					<g>
						<path fill="#FFFFFF" stroke="#C5C8EF" stroke-linejoin="round" stroke-miterlimit="10" d="M460.7,412.7
							c-7-6.3-23.3-19.3-25.4-47.7c20.3,7.4,29.6,26.9,35.7,45.6"/>
						<path fill="none" stroke="#C5C8EF" stroke-linejoin="round" stroke-miterlimit="10" d="M435.3,365c0,0,7.1,24,28.6,48.2"/>
						<path fill="none" stroke="#C5C8EF" stroke-linejoin="round" stroke-miterlimit="10" d="M467.3,411.4c0,0-23.7-34.3-32-46.4"/>
						<path fill="none" stroke="#C5C8EF" stroke-linejoin="round" stroke-miterlimit="10" d="M468.9,410.7c0,0-16.4-34.5-33.6-45.8"
							/>
					</g>
					<g>
						<path fill="#FFFFFF" stroke="#C5C8EF" stroke-linejoin="round" stroke-miterlimit="10" d="M467.3,405.7
							c-5.6-8.2-21.8-32.8-16.8-59c18.8,14.1,26.3,41.9,27.8,60.9"/>
						<path fill="none" stroke="#C5C8EF" stroke-linejoin="round" stroke-miterlimit="10" d="M450.5,346.7c0,0,7,39.3,19.3,59.2"/>
						<path fill="none" stroke="#C5C8EF" stroke-linejoin="round" stroke-miterlimit="10" d="M472.4,406.9c0,0-16.8-52.5-22-60.2"/>
						<path fill="none" stroke="#C5C8EF" stroke-linejoin="round" stroke-miterlimit="10" d="M475.7,407.3c0,0-10.1-47.4-25.2-60.6"
							/>
					</g>
					<g>
						<path fill="#FFFFFF" stroke="#C5C8EF" stroke-linejoin="round" stroke-miterlimit="10" d="M494.1,405.2
							c4.8-10.6,16.4-33.5,8.5-67.5c-17.5,18.1-19.9,45.3-19.4,69.9"/>
						<path fill="none" stroke="#C5C8EF" stroke-linejoin="round" stroke-miterlimit="10" d="M502.6,337.7c0,0-8.3,39.4-14.5,68.8"
							/>
						<path fill="none" stroke="#C5C8EF" stroke-linejoin="round" stroke-miterlimit="10" d="M502.6,337.7c0,0,1.9,30.8-11,69.1"/>
						<path fill="none" stroke="#C5C8EF" stroke-linejoin="round" stroke-miterlimit="10" d="M485.3,406.8c0,0,3.6-46.2,17.3-69.1"
							/>
					</g>
					<g>
						<path fill="#FFFFFF" stroke="#C5C8EF" stroke-linejoin="round" stroke-miterlimit="10" d="M494.7,416.3
							c6.2-7.1,22-24.7,23.3-48.4c-18.3,10.6-26,30.3-30.8,48.4"/>
						<path fill="none" stroke="#C5C8EF" stroke-linejoin="round" stroke-miterlimit="10" d="M518,367.9c0,0-11.4,30-25.4,47.4"/>
						<path fill="none" stroke="#C5C8EF" stroke-linejoin="round" stroke-miterlimit="10" d="M489.2,415.3c0,0,17.1-36,28.8-47.4"/>
					</g>
					<g id="XMLID_13_">
						<path fill="#E5EAF9" d="M508.5,403.3v11.2c0,24.8-12,40.8-12,40.8h-37.3c0,0-12-16-12-40.8v-11.2H508.5z"/>
					</g>
				</g>
			</g>
		</g>
		<line fill="none" stroke="#7C8BD8" stroke-linejoin="round" stroke-miterlimit="10" x1="47.2" y1="455.8" x2="702.8" y2="455.8"/>
		<g>
			<g>
				<path fill="#FFCBC2" d="M652.8,207.8l1.4,11.9c0,0-4.5,4.8-11.2,4.8s-6.7-4.5-6.7-4.5l1.3-10.3l10.4-10.9L652.8,207.8"/>
				<g>
					<path fill="#F9BBAF" d="M634.2,199.9c0-0.4-0.6-0.7-1-0.6c-0.6,0.1-1.1,0.5-1.4,1.1c-0.3,0.6-0.4,1.2-0.4,1.8
						c0,0.6,0,1.2,0.3,1.7c0.5,0.9,1.7,1.3,2.6,0.9"/>
				</g>
				<path fill="#FFCBC2" d="M634.8,191.8c0,0-3.6,13.6-1.6,16.4c2.9,4.2,9.9,4.5,12.9,2.6c2.5-1.6,4.5-10.3,4.5-12.5
					C650.5,192.1,638,188.6,634.8,191.8z"/>
				<g>
					<path fill="#212237" d="M655,202c0.1-0.4,0.2-0.9,0.4-1.3c0.4-1.1,1-2,1.4-3.1c0.8-2.1,0.1-4.7-1.6-6.1
						c-0.3-0.2-0.7-0.5-0.9-0.8c-0.6-0.6-0.8-1.6-1.2-2.4c-0.3-0.7-0.7-1.3-1.4-1.7c-1.5-0.8-3.5,0.3-5-0.5
						c-0.3-0.2-0.6-0.4-0.9-0.6c-2.1-1.6-4.6-1.2-6.9-0.4c-1.1,0.4-1.4,0.8-2.4,1.5c-1,0.8-2.4,0.7-3.4,1.5c-1,0.8-1.3,2.2-1.3,3.6
						c0,0.5,0,1,0.2,1.4c0.3,0.6,0.8,0.9,1.3,1.2c1.3,0.6,2.8,0.4,4.3,0.3c1.4-0.1,3-1.1,4.3-0.6c1.3,0.5,1.7,2.1,3.3,2.2
						c0.6,0,1.4-0.1,1.8,0.4c0.4,0.6,0.2,1.5,0.5,2.2c0.3,0.6,0.9,1.2,1.3,1.8c0.8,1.2,2,2,1.6,3.5c-0.3,1.1-1.5,2.8-1,3.9
						c0.3,0.7,1.9,0.7,3.2-0.2c1.3-1,1.6-2.8,2-4.3C654.8,203.1,654.9,202.6,655,202z"/>
				</g>
				<path fill="none" stroke="#F7A794" stroke-width="0.75" stroke-miterlimit="10" d="M637.4,211.5c0,0,4.7,0.9,7.9-0.8
					c2.5-1.4,3.5-4.5,3.5-4.5"/>
				<g>
					<path fill="#FFCBC2" d="M647.1,201.7c0.3-0.5,1.3-1.2,1.8-1.1c0.5,0.1,1,0.4,1.4,0.8c1.8,2-0.2,5.8-2.9,5.4
						c-1-0.2-0.7-1.5-0.7-1.5"/>
				</g>
				<path fill="none" stroke="#F7A794" stroke-width="0.5" stroke-miterlimit="10" d="M637.1,198.9c0,0-2.1,3.2-1.9,4.1
					c0.2,0.9,2.3,1,2.3,1"/>
				<path fill="#FFFFFF" d="M635.2,205.1l5.8,0.8c0,0-1.1,3-4.2,2.3C634.5,207.7,635.2,205.1,635.2,205.1z"/>
				<g>
					<g>
						<path fill="#212237" d="M634.7,197.9c-0.1,0.2-0.2,0.5-0.3,0.7c-0.1,0.5,0.6,0.7,0.8,0.2c0.1-0.3,0.1-0.5,0.2-0.8
							C635.4,197.6,634.9,197.5,634.7,197.9L634.7,197.9z"/>
					</g>
				</g>
				
					<path fill="none" stroke="#212237" stroke-width="0.5" stroke-linecap="round" stroke-linejoin="round" stroke-miterlimit="10" d="
					M636.6,196.5c0,0-0.9-1.2-2.2-0.3"/>
				<g>
					<g>
						<path fill="#212237" d="M641.3,199.4c-0.1,0.2-0.2,0.5-0.2,0.7c-0.1,0.5,0.7,0.7,0.8,0.2c0.1-0.3,0.1-0.6,0.1-0.9
							C642,199.1,641.4,199.1,641.3,199.4L641.3,199.4z"/>
					</g>
				</g>
				
					<path fill="none" stroke="#212237" stroke-width="0.5" stroke-linecap="round" stroke-linejoin="round" stroke-miterlimit="10" d="
					M641,197.2c0,0,1.4-0.5,2.9,1.2"/>
			</g>
			<g>
				<g>
					<g>
						<g>
							<path fill="#FFCBC2" d="M632,416l-2.7,27.6l0.2,8.7l-34-0.2c-0.8,0-1.5-0.7-1.5-1.5l0,0c0-0.6,0.4-1.2,1-1.4l14.7-6.7
								l1.4-28.7"/>
							<path fill="#011E3B" d="M592.5,451.7c0.3-1.1,1-2.3,1.6-2.6l15.6-6.7c8.6,3.5,19.7,0.8,19.7,0.8l2,11.7
								c0,0.4-0.3,0.7-0.7,0.7h-37.9C592,455.6,592.5,451.7,592.5,451.7z"/>
							<path fill="none" stroke="#2C79E8" stroke-width="0.75" stroke-miterlimit="10" d="M606.3,443.1c0.9,1.1,1.6,2.4,2.2,3.7"/>
							<path fill="none" stroke="#2C79E8" stroke-width="0.75" stroke-miterlimit="10" d="M604.4,444.2c0.9,1.3,1.3,2,1.8,3.1"/>
							<path fill="none" stroke="#2C79E8" stroke-width="0.75" stroke-miterlimit="10" d="M602.7,445.1c0.6,0.8,1.2,2,1.7,2.9"/>
						</g>
						
							<line fill="none" stroke="#2C79E8" stroke-width="0.75" stroke-miterlimit="10" x1="631.1" y1="453.1" x2="592.3" y2="452.9"/>
						<path fill="none" stroke="#2C79E8" stroke-width="0.75" stroke-miterlimit="10" d="M630.1,447.4c0,0-9.1,0.2-9.9,5.7"/>
						<path fill="none" stroke="#2C79E8" stroke-width="0.75" stroke-miterlimit="10" d="M597.3,447.7c0,0,2.5,3.6,3,5.2"/>
					</g>
				</g>
				<path fill="#1F2677" d="M616.1,297.5c-5.8,42-11.1,141.3-11.1,141.3h29.3c0,0,6-62,11.2-106.9c12.9-21.3,11.9-44.4,13.3-47.5"/>
				<path fill="none" stroke="#3A53CE" stroke-width="0.75" stroke-miterlimit="10" d="M630.3,438.7c0,0,7.2-68.5,12.4-113.4"/>
				<g>
					<g>
						<g>
							<path fill="#FFCBC2" d="M679.1,416l1.3,27.6l0.2,8.7l-34-0.2c-0.8,0-1.5-0.7-1.5-1.5l0,0c0-0.6,0.4-1.2,1-1.4l14.7-6.7
								l-2.6-28.7"/>
							<path fill="#011E3B" d="M643.5,451.7c0.3-1.1,1-2.3,1.6-2.6l15.6-6.7c8.6,3.5,19.7,0.8,19.7,0.8l2,11.7
								c0,0.4-0.3,0.7-0.7,0.7h-37.9C643,455.6,643.5,451.7,643.5,451.7z"/>
							<path fill="none" stroke="#2C79E8" stroke-width="0.75" stroke-miterlimit="10" d="M657.4,443.1c0.9,1.1,1.6,2.4,2.2,3.7"/>
							<path fill="none" stroke="#2C79E8" stroke-width="0.75" stroke-miterlimit="10" d="M655.4,444.2c0.9,1.3,1.3,2,1.8,3.1"/>
							<path fill="none" stroke="#2C79E8" stroke-width="0.75" stroke-miterlimit="10" d="M653.7,445.1c0.6,0.8,1.2,2,1.7,2.9"/>
						</g>
						
							<line fill="none" stroke="#2C79E8" stroke-width="0.75" stroke-miterlimit="10" x1="682.2" y1="453.1" x2="643.4" y2="452.9"/>
						<path fill="none" stroke="#2C79E8" stroke-width="0.75" stroke-miterlimit="10" d="M681.1,447.4c0,0-9.1,0.2-9.9,5.7"/>
						<path fill="none" stroke="#2C79E8" stroke-width="0.75" stroke-miterlimit="10" d="M648.4,447.7c0,0,2.5,3.6,3,5.2"/>
					</g>
				</g>
				<path fill="#1F2677" d="M678.2,293.6c0.8,9.5,0.7,21.3-0.7,32.8c2.5,50.6,6,112.3,6,112.3h-29.3c0,0-14.1-112-14.8-146"/>
				<path fill="none" stroke="#3A53CE" stroke-width="0.75" stroke-miterlimit="10" d="M673.2,293.6c0.8,9.5,0.7,21.3-0.7,32.8
					c2.5,50.6,6,112.3,6,112.3"/>
				<path fill="none" stroke="#3A53CE" stroke-width="0.75" stroke-miterlimit="10" d="M643.7,347.8c0,0-4.1-35.1-4.4-48"/>
				<line fill="none" stroke="#3A53CE" stroke-width="0.75" stroke-miterlimit="10" x1="683.1" y1="433" x2="653.4" y2="433"/>
				<line fill="none" stroke="#3A53CE" stroke-width="0.75" stroke-miterlimit="10" x1="634.9" y1="432.9" x2="605.4" y2="432.9"/>
				<path fill="none" stroke="#3A53CE" stroke-width="0.75" stroke-miterlimit="10" d="M673.5,313.9c0,0-8.4,0.7-13.1-11.3"/>
				<path fill="none" stroke="#3A53CE" stroke-width="0.75" stroke-miterlimit="10" d="M640.6,313.9c0,0-2.9-0.8-3.2-1.8
					s-1.1-11.8-1.1-11.8"/>
				<path fill="none" stroke="#3A53CE" stroke-width="0.75" stroke-miterlimit="10" d="M625.5,302.7c0,0-0.7,9.8-11.4,11.3"/>
			</g>
			<g>
				<g>
					<path fill="#FFCBC2" d="M585.9,237.6c0,0-13.9-14.7-14.8-14.6c-0.9,0.1,1,2.9,0.3,2.8c-0.7,0-5.1-6.1-5.9-5.7
						c-1.1,0.5,3,5.8,3,5.8s-1.1-1-1.9-0.3c-0.6,0.5,0.2,2.2,0.2,2.2s-1.1-0.5-1.7,0c-0.6,0.5,0.2,2,0.2,2s-1.1-1.1-1.7-0.1
						c-0.6,1,3.5,9.4,10.2,18.4"/>
				</g>
				<path fill="#B2D1FF" d="M636.6,217.4c-7,0.6-14.5,4-19.1,10c-7.8,10-17.6,22.7-17.6,22.7l-16.1-16.5l-15.2,12.6
					c0,0,21,29.6,31.4,29.7c9.4,0.1,25.2-13.4,29.8-20.6C639.1,240.8,636.6,217.4,636.6,217.4z"/>
				<path fill="#F7633A" d="M653.8,216c0,0-1.9,2.9-9.8,3.7c-5.9,0.6-7.4-2.2-7.4-2.2s-14.3,7.6-18.6,39.2
					c-4.2,31.6-4.7,48.1-4.7,48.1h67.2c0,0,0.2-24-1.7-44.7C676.9,238.8,672.4,220.9,653.8,216z"/>
				<path fill="none" stroke="#F7958B" stroke-width="0.5" stroke-miterlimit="10" d="M572.4,227.2c0,0,0.7,3.1,1.9,5.6"/>
				<g>
					<path fill="#F7958B" d="M564,231.8c0.6,0.7,1.2,1.3,1.8,1.9c0.3,0.3,0.6,0.6,1,0.9c0.2,0.1,0.4,0.3,0.5,0.3
						c0.2,0.1,0.4,0.1,0.4,0.1c0.1-0.1,0-0.3,0-0.5c-0.1-0.2-0.1-0.4-0.2-0.6c-0.2-0.4-0.4-0.8-0.6-1.2c-0.4-0.8-0.9-1.5-1.4-2.2
						l0.4-0.2c0.6,0.8,1.2,1.6,1.9,2.3c0.3,0.4,0.7,0.7,1,1c0.2,0.2,0.4,0.3,0.6,0.4c0.1,0,0.2,0,0.1,0c0,0,0,0,0-0.1
						c-0.1-0.9-0.6-1.8-1-2.7c-0.4-0.9-0.9-1.8-1.4-2.6l0.4-0.2c0.6,0.9,1.1,1.7,1.8,2.5c0.3,0.4,0.6,0.8,1,1.2
						c0.2,0.2,0.4,0.3,0.6,0.5c0.1,0.1,0.2,0.1,0.2,0.1c0,0,0.1-0.1,0.1-0.2c0-0.4-0.2-1-0.3-1.4c-0.2-0.5-0.4-1-0.6-1.4
						c-0.4-0.9-0.9-1.9-1.3-2.8c0.5,0.9,1,1.8,1.5,2.7c0.4,0.9,1,1.8,1.1,2.9c0,0.1-0.1,0.4-0.3,0.4c-0.2,0.1-0.4,0-0.5-0.1
						c-0.3-0.1-0.5-0.3-0.6-0.5c-0.4-0.4-0.7-0.8-1.1-1.2c-0.7-0.8-1.2-1.7-1.8-2.5l0.4-0.2c0.5,0.9,1,1.8,1.4,2.7
						c0.2,0.5,0.4,0.9,0.6,1.4c0.2,0.5,0.4,0.9,0.4,1.5c0,0.1,0,0.4-0.2,0.5c-0.2,0.1-0.5,0.1-0.6,0c-0.3-0.1-0.5-0.3-0.7-0.5
						c-0.4-0.3-0.7-0.7-1.1-1.1c-0.7-0.8-1.3-1.6-1.9-2.4l0.4-0.2c0.5,0.8,0.9,1.5,1.4,2.3c0.2,0.4,0.4,0.8,0.6,1.2
						c0.1,0.2,0.2,0.4,0.2,0.7c0,0.2,0.1,0.5,0,0.8c-0.3,0.3-0.6,0.1-0.8,0c-0.2-0.1-0.4-0.3-0.6-0.4c-0.3-0.3-0.7-0.6-1-0.9
						C565.1,233.2,564.5,232.5,564,231.8z"/>
				</g>
				<path fill="#B2D1FF" d="M636.6,217.4c-13.8,26.5-14.7,91.8-14.7,91.8h-10.5c0,0,0.5-42.3,8.5-69.9
					C623.2,227.5,631.9,218.3,636.6,217.4"/>
				<path fill="none" stroke="#4152A5" stroke-width="0.75" stroke-linejoin="round" stroke-miterlimit="10" d="M614,270.3
					c0,0,2.3-25.6,6.9-34.4"/>
				<path fill="none" stroke="#4152A5" stroke-width="0.75" stroke-linejoin="round" stroke-miterlimit="10" d="M626.7,253.1
					l-2.1-20.3l3.5-1.9l-3.5-2.2c0,0,3.1-5.9,5.8-10"/>
				<path fill="#B2D1FF" d="M653.5,216c-8.3,17.8-0.9,93.2-0.9,93.2h32c0,0-1.5-27.6-2.8-38.3c-1.3-10.7-10-45.1-10-45.1L653.5,216z
					"/>
				<g>
					<path fill="#DCDDEF" d="M673.6,287.3l-30.9,0.4l0,1.9l32.6-0.5l0,0C675.3,288.2,674.5,287.3,673.6,287.3z"/>
					<path fill="#DCDDEF" d="M605,290.2l43.4-0.6l-8.7-29c-0.4-1.5-1.7-2.5-3.2-2.5l-39.2,0.6c-0.9,0-1.5,0.9-1.2,1.8L605,290.2z"/>
					<path fill="#F2F5F9" d="M603.1,290.2l43.4-0.6l-8.7-29c-0.4-1.5-1.7-2.5-3.2-2.5l-39.2,0.6c-0.9,0-1.5,0.9-1.2,1.8L603.1,290.2
						z"/>
					<path fill="#DCDDEF" d="M615.7,274.7c0.3,1.4,1.8,2.4,3.4,2.4c1.6,0,2.7-1.1,2.4-2.5c-0.3-1.4-1.8-2.4-3.4-2.4
						C616.5,272.2,615.4,273.3,615.7,274.7z"/>
				</g>
				<g>
					<path fill="#FFCBC2" d="M665.2,254c0,0,8.5,14.9,8,18.3c-0.4,2.6-23.5,8.5-23.5,8.5l1,14.6c0,0,38.7-3.3,43.2-11.1
						c6.2-10.6-10.9-38.1-10.9-38.1"/>
					<g>
						<g>
							<g>
								<path fill="#FFCBC2" d="M654.1,280c-3.2,0.6-19.9,3.9-19.7,4.8c0.2,0.8,5.1,0.7,5,1.1c-0.2,0.7-3.8,1.5-5.9,1.8
									c-1.9,0.3-4.8,1-4.8,1.8c0,1.6,10.2-0.1,10.2-0.1s-11.3-0.3-11.4,1c-0.2,1.9,11.8,1.8,12.2,2.2c0,0-10.4-2.8-10.5-1.4
									c-0.1,1.4,9.1,4.1,11.9,3.9c-2.4-0.3-9.6-3.8-9.6-2.5c-0.1,1.3,6.2,3.1,7.2,3.2c8.2,0.6,15.6-1.2,15.6-1.2"/>
							</g>
						</g>
					</g>
					<g>
						<path fill="#F7958B" d="M629.8,290.2c1.3-0.2,2.7-0.4,4-0.4c1.3-0.1,2.7-0.1,4-0.1c-0.7,0.2-1.3,0.3-2,0.4
							c-0.7,0.1-1.3,0.1-2,0.2C632.5,290.3,631.2,290.3,629.8,290.2z"/>
					</g>
					<g>
						<path fill="#F7958B" d="M631,291.9c2.9,0,5.8,0.3,8.7,0.4c-0.7,0.2-1.4,0.2-2.2,0.3c-0.7,0-1.5,0-2.2,0
							C633.9,292.5,632.4,292.3,631,291.9z"/>
					</g>
					<g>
						<path fill="#F7958B" d="M632.9,293.6c1.3,0,2.6,0.2,3.9,0.3c1.3,0.2,2.5,0.4,3.8,0.6c-0.6,0.1-1.3,0.1-1.9,0.1
							c-0.7,0-1.3-0.1-1.9-0.2C635.4,294.2,634.1,294,632.9,293.6z"/>
					</g>
				</g>
				<path fill="#B2D1FF" d="M653.5,216c9,1.5,20.3,4.3,24.9,10.2c7,9.1,25.7,47.4,18.8,56.8c-5.9,8-38.6,14-38.6,14l-8.8-18
					l22.4-8.3l-13.9-30.3"/>
				<polyline fill="none" stroke="#4152A5" stroke-width="0.75" stroke-miterlimit="10" points="649.8,279 672.1,270.7 660.9,246.2 
									"/>
				<line fill="none" stroke="#4152A5" stroke-width="0.75" stroke-miterlimit="10" x1="658.6" y1="297.1" x2="683.4" y2="291"/>
				<line fill="none" stroke="#4152A5" stroke-width="0.75" stroke-miterlimit="10" x1="652.7" y1="277.9" x2="662" y2="296.2"/>
				<path fill="none" stroke="#4152A5" stroke-width="0.75" stroke-linejoin="round" stroke-miterlimit="10" d="M649.6,254
					c1.4-9.4,7.5-17.1,7.5-17.1l-3.7-4.1l5.2-1.9c0,0,2.4-10,4.1-13.1"/>
			</g>
		</g>
		<g>
			<g>
				<path fill="#FFCBC2" d="M555.5,241.2c0,0,5.2,11.8,6.5,20.6c1.3,8.8-10.9,33.8-10.9,33.8l-10.5-6.2c0,0,3.2-18.6,3.2-25.2
					c0-6.6-6-15.8-6-15.8"/>
				<g>
					<path fill="#FFCBC2" d="M541.1,288.1c-1.4,4.1-7.2,15.3-6.6,16c0.6,0.6,2.7-3.3,3.1-2.6c0.4,0.6-2.5,6.9-1.7,7.4
						c1,0.7,3.6-5.9,3.6-5.9s-2.5,7.3-1.4,7.6c0.8,0.2,2.9-5.3,4-7.3c-0.9,2.3-1.9,6.2-1.1,6.5c0.8,0.2,2.3-3.5,3.6-6.3
						c-0.7,1.8-1.7,5.2-1,5.4c0.7,0.2,5.1-8.5,8.9-17"/>
				</g>
			</g>
			<g>
				<g>
					<path fill="#FFCBC2" d="M534,340.8c-1.3,29.6,6.9,103.7,6.9,103.7l-9.1,5.8c0,0,28.1,1.3,29,0.5c0.8-0.8-1-6.5-1-6.5
						s0.8-87.5,1.6-100.5C562.1,330.9,535.3,311.1,534,340.8z"/>
					<path fill="#011E3B" d="M553.7,450.7l6.7-3.7l-0.5-1.9l-8.8,5.6l-2.8,0l-9.8-4.8l-10.6,6.6c-1.2,0.8-0.7,2.7,0.8,2.7l14.2-0.1
						l4.5-3.2l1.3,0l0,3.1l12.3,0l0-4.4L553.7,450.7z"/>
				</g>
				<g>
					<path fill="#FFCBC2" d="M496.4,345.8c-2,41.6-1.3,98.6-1.3,98.6l-9.1,5.9c0,0,28.1,1.2,29,0.4c0.8-0.8-1.1-6.5-1.1-6.5
						s7.8-72.2,10.6-99.3C527.4,317.9,498.5,304.2,496.4,345.8z"/>
					<path fill="#011E3B" d="M508,450.6l6.7-3.7l-0.5-1.9l-8.7,5.6l-2.8,0l-9.8-4.8l-10.6,6.7c-1.2,0.8-0.7,2.7,0.8,2.6l14.2-0.1
						l4.5-3.2l1.3,0l0,3.1l12.3-0.1l0-4.4L508,450.6z"/>
				</g>
				<path fill="#0F43AA" d="M547.4,277.9c2.4,1.7,7.8,9.4,10.1,16.9c5.3,17.8,5.4,57.1,5.4,57.1H495c0,0,0.4-37.8,3-54.2
					c1.4-8.8,5.3-16.4,7.6-19.7"/>
				<path fill="none" stroke="#0F1D49" stroke-width="0.75" stroke-miterlimit="10" d="M509.5,277.4c-2,1.7-5.5,8.1-6.4,15.3
					c-3.3,24.4-2.6,59.2-2.6,59.2"/>
			</g>
			<g>
				<path fill="#2C79E8" d="M530.8,216.3c20.3,1.3,27,26.7,27,26.7l-14.3,9.9"/>
				<line fill="none" stroke="#0F1D49" stroke-width="0.75" stroke-miterlimit="10" x1="549.7" y1="244.5" x2="556.8" y2="239.7"/>
				<path fill="#FFCBC2" d="M493.9,228.5c0,0-15.2,11.7-17.6,11.7c-2.5,0.1-22.1-18.2-22.1-18.2l-10.3,12c0,0,20.6,28.1,31.7,28.1
					c14.7,0,30.3-16.1,30.3-16.1"/>
				<path fill="#2C79E8" d="M515.9,216.4c0,0,2.3,1.8,6.9,1.3s8.2-1.5,8.2-1.5c0,0.1,18.3,8.5,18.9,19.1c0.7,11.8,0.6,18.8-2.5,42.8
					c-7.8,0-43,0-41.8,0c0,0-6.5-29.3-6.5-40.5C499.1,226.2,515.9,216.4,515.9,216.4z"/>
				<path fill="#2C79E8" d="M515.9,216.4c0,0-6.2-0.3-11.5,2.7c-9.2,5.2-16.9,13.4-16.9,13.4l12.2,21.5l12.8-9"/>
				<path fill="none" stroke="#0F1D49" stroke-width="0.75" stroke-miterlimit="10" d="M550.3,248.3c0.3-9.9-1.2-16.6-1.2-16.6"/>
				<line fill="none" stroke="#0F1D49" stroke-width="0.75" stroke-miterlimit="10" x1="490.6" y1="229.5" x2="503" y2="252.1"/>
				<line fill="none" stroke="#0F1D49" stroke-width="0.75" stroke-miterlimit="10" x1="500.9" y1="253.6" x2="511.6" y2="246"/>
				<g>
					<path fill="#FFCBC2" d="M461.7,228.8c0,0-17.3-16-18.4-15.6c-1.1,0.4,2,3.4,1.1,3.6c-0.9,0.1-7.8-7.1-8.8-6.5
						c-1.3,0.9,4.6,6.9,4.6,6.9s-1.6-1.1-2.5,0c-0.6,0.8,1.2,3.2,1.2,3.2s-1.8-1.2-2.5-0.4c-0.7,0.8,1,3.3,1,3.3s-1.3-0.9-1.7-0.1
						c-0.7,1.4,7.9,11.4,15.8,20.2"/>
				</g>
			</g>
			<g>
				<path fill="#FFCBC2" d="M530,205.6l1.6,11.6c0,0-7.6,7.8-15.6-0.8l-0.5-6.5L530,205.6z"/>
				<path fill="#FFCBC2" d="M517.3,190.4c0,0-10.9,12.4-6.9,17.5c2.1,2.7,11.1,5.9,14.3,3.9c2.4-1.5,6.9-12,5.9-14
					C526.6,189.9,517.3,190.4,517.3,190.4z"/>
				<path fill="#011E3B" d="M517.8,192.6c-0.7,7.2,1.4,10.9,1.4,10.9s-4.8,15.1-3.7,16.5c1,1.4,16.4,3.7,23.9,0.5
					c0,0,1.2-22.8-5.7-28.5c-6.5-5.5-15-5-19.6-2.1c0,0,0.4,1.4,2.1,2.1c0.8,0.4,1.7,0.8,1.7,0.8"/>
				<path fill="#FFCBC2" d="M517.7,201.7c1.3-1.7,2.4-1.4,3-0.5c0.8,1.2-0.8,3.8-1.5,4.3c-1.5,0.9-2.7,0.8-2.8-0.4"/>
				<path fill="none" stroke="#E88872" stroke-width="0.5" stroke-linejoin="round" stroke-miterlimit="10" d="M515.5,211
					c1.6,0,2.1-1.3,2.1-1.3"/>
				<g>
					<g>
						<path fill="#28364C" d="M514.4,197.4c-0.5,0.4-0.9,1.1-0.6,1.6c0.1,0.1,0.2,0.2,0.4,0.2C515.2,199.1,515.4,196.6,514.4,197.4z
							"/>
					</g>
				</g>
				<path fill="none" stroke="#28364C" stroke-width="0.75" stroke-miterlimit="10" d="M514.5,195.5c0.6,0.2,1.7,0.8,2.1,1.6"/>
				<path fill="#FFFFFF" d="M513.2,203l-2.3-1.2c0,0-1.5,2.8-0.4,3.4C511.6,205.8,513.2,203,513.2,203z"/>
				<g>
					<path fill="#011E3B" d="M529.9,189.8c-1-0.2-1.6-1.3-1.6-2.2c0-1,0.7-1.9,1.6-2.4c0.9-0.5,1.9-0.5,2.9-0.2
						c0.4,0.1,0.7,0.2,1,0.5c1.2,0.9,1.2,2.9,0.3,4.2c-0.4,0.5-0.9,1-1.5,1.1c-0.6,0.1-1.3-0.1-1.6-0.7"/>
				</g>
			</g>
		</g>
		<g>
			<g>
				<path fill="#FFFFFF" stroke="#ABB3ED" stroke-linejoin="round" stroke-miterlimit="10" d="M373.9,422.3
					c-18.6-5.6-30.9-12-41-22.1c-10.8-10.7-14.6-21.2-17.5-35.8c-4.1-20.4-8.5-52.8-30.5-60.6c-20.5-7.2-38.7,9.1-49.2,25.8
					c-13.4,21.5-17.5,43-17.5,68.3c0,20.4,5.2,57.9,69.8,57.9c0,0,44.1,0,76.8,0C407.1,455.8,400.5,430.4,373.9,422.3z"/>
				<g>
					<path fill="#EDEEF7" d="M368.1,420.9c-3.8-7.8-19.9-5.5-37.4-23.7c-10.1-10.6-14.3-19.7-17.1-33.5c-2.4-11.6-11.5-50.5-27.6-52
						c-6.5-0.6-13.1,0.2-18.8,3.3c-7.9,4.4-14.1,11.5-18.4,19.4c-4.4,7.9-7,16.6-9.2,25.4c-3,12.2-5.1,20.8-3.6,33.2
						c2.6,21.1,15.9,39.8,36.5,44.7c20.8,5,39.6,3.3,64.2,3C346.1,440.7,376,437.1,368.1,420.9z"/>
				</g>
				<g>
					<g>
						<path fill="#ABB3ED" d="M260.8,319.1c-13.1,11.3-20.6,28.6-24.1,45.2c-3.6,17.1-3.2,36.3,5.5,51.9c7.3,13,20,19.8,34.1,23.2
							c19.6,4.7,40.5,3.3,60.4,1.6c0.4,0,0.4-0.7,0-0.6c-13.8,0.4-27.5,1.3-41.3,0.5c-12.9-0.8-26.6-3.1-37.8-10
							c-16-9.8-21.9-29-22.1-46.8c-0.1-12.4,2.4-24.8,6.9-36.3c4.1-10.6,10.2-20.8,18.7-28.3C261.4,319.3,261,318.9,260.8,319.1
							L260.8,319.1z"/>
					</g>
				</g>
			</g>
			<g>
				<g>
					<g>
						<g>
							<path fill="#995037" d="M376,425l26.2,19.5l4.9,7.6l28.1-19.2c0.7-0.5,0.9-1.4,0.4-2.1l0,0c-0.4-0.5-1-0.8-1.6-0.6l-15.9,2.6
								l-25.9-21.4"/>
							<path fill="#FFE1CC" d="M437.5,430.9c-0.9-0.7-2.1-1.4-2.8-1.2l-16.6,3.1c-5.2,7.7-15.9,11.7-15.9,11.7l4.9,10.8
								c0.2,0.3,0.7,0.4,1,0.2l31.4-21.2C440.1,433.9,437.5,430.9,437.5,430.9z"/>
							<path fill="none" stroke="#A5634C" stroke-width="0.75" stroke-miterlimit="10" d="M421.2,431.5c-0.1,1.4,0,2.9,0.2,4.3"/>
							<path fill="none" stroke="#A5634C" stroke-width="0.75" stroke-miterlimit="10" d="M423.5,431.4c0,1.5,0.1,2.3,0.3,3.6"/>
							<path fill="none" stroke="#A5634C" stroke-width="0.75" stroke-miterlimit="10" d="M425.3,431.2c0,1,0.1,2.3,0.2,3.3"/>
						</g>
						
							<line fill="none" stroke="#A5634C" stroke-width="0.75" stroke-miterlimit="10" x1="406.2" y1="453.7" x2="438.3" y2="431.8"/>
						<path fill="none" stroke="#A5634C" stroke-width="0.75" stroke-miterlimit="10" d="M403.9,448.3c0,0,7.7-4.9,11.4-0.8"/>
						<path fill="none" stroke="#A5634C" stroke-width="0.75" stroke-miterlimit="10" d="M431.3,430.3c0,0-0.1,4.4,0.4,6"/>
					</g>
				</g>
				<g>
					<g>
						<g>
							<path fill="#995037" d="M338.2,416l11.2,27.3l-0.1,9l34-0.2c0.8,0,1.5-0.7,1.5-1.5l0,0c0-0.6-0.4-1.2-1-1.4l-14.7-6.7
								l-9.9-28.7"/>
							<path fill="#FFE1CC" d="M386.2,451.7c-0.3-1.1-1-2.3-1.6-2.6l-15.6-6.7c-8.6,3.5-19.7,0.8-19.7,0.8l-2,11.7
								c0,0.4,0.3,0.7,0.7,0.7H386C386.7,455.6,386.2,451.7,386.2,451.7z"/>
							<path fill="none" stroke="#A5634C" stroke-width="0.75" stroke-miterlimit="10" d="M372.4,443.1c-0.9,1.1-1.6,2.4-2.2,3.7"/>
							<path fill="none" stroke="#A5634C" stroke-width="0.75" stroke-miterlimit="10" d="M374.4,444.2c-0.9,1.3-1.3,2-1.8,3.1"/>
							<path fill="none" stroke="#A5634C" stroke-width="0.75" stroke-miterlimit="10" d="M376,445.1c-0.6,0.8-1.2,2-1.7,2.9"/>
						</g>
						
							<line fill="none" stroke="#A5634C" stroke-width="0.75" stroke-miterlimit="10" x1="347.6" y1="453.1" x2="386.4" y2="452.9"/>
						<path fill="none" stroke="#A5634C" stroke-width="0.75" stroke-miterlimit="10" d="M348.7,447.4c0,0,9.1,0.2,9.9,5.7"/>
						<path fill="none" stroke="#A5634C" stroke-width="0.75" stroke-miterlimit="10" d="M381.4,447.7c0,0-2.5,3.6-3,5.2"/>
					</g>
				</g>
				<g>
					<g>
						<path fill="#995037" d="M289.6,301.6c0,0,7.4,11.7,4.2,16.7c-1.6,2.6-7.8,4.4-11,2.9c-2.3-1.1-7.4-10.3-6.7-12.2
							C279.1,301.5,289.6,301.6,289.6,301.6z"/>
						<path fill="#995037" d="M275.7,318.1l-0.7,9.1c0,0,5.8,14.4,16.2,1.4l-0.5-10L275.7,318.1z"/>
						<g>
							<path fill="#2D1006" d="M272.5,315.3c-1.1-2.6-2-4-2.4-7.1c-0.5-3.3,2.2-4.3,2.2-4.3s-0.5,0.4,1-2.5c1.4-2.7,6-2.6,8.8-3
								c3.7-0.6,9.1-3.8,11.2-2.4c0.9,0.6,0.9,6.3-2,7.9c-1.7,0.9-4.5,0.4-6.5,0.7c-3.7,0.6-4.5,1.4-5,3.7c-0.2,1.3-2.7,1.1-1.3,3.7
								c0.2,0.4,0.3,0.8,0.3,1.1l-1.5,1c-1.9,1.3,2.2,4.5,1.9,6.1c-0.2,0.8-1.8,1.2-3.3,0.5C274.6,320.1,273.6,318.2,272.5,315.3z"
								/>
						</g>
						<path fill="#995037" d="M278.4,314.3c-1.7-1.7-2.8-1.3-3.3-0.2c-0.7,1.4,1.3,4.1,2.2,4.5c1.7,0.8,3,0.6,3-0.8"/>
						<path fill="none" stroke="#6D221D" stroke-width="0.75" stroke-linejoin="round" stroke-miterlimit="10" d="M290.8,321.2
							c-5.6,1.2-8.5-0.4-8.5-0.4"/>
						<path fill="none" stroke="#6D221D" stroke-width="0.75" stroke-miterlimit="10" d="M288.9,308.7c0,0,2.7,2.9,2.6,3.8
							c0,0.9-2.2,1.4-2.2,1.4"/>
						<path fill="#FFFFFF" d="M292.6,314.3l-5.7,1.8c0,0,1.6,2.8,4.7,1.6C293.8,316.9,292.6,314.3,292.6,314.3z"/>
						<g>
							<g>
								<path fill="#212237" d="M290.5,307.5c0.1,0.3,0.2,0.6,0.3,0.8c0.2,0.5,0.9,0.1,0.7-0.4c-0.1-0.2-0.2-0.5-0.4-0.7
									C290.9,306.9,290.4,307.1,290.5,307.5L290.5,307.5z"/>
							</g>
						</g>
						
							<path fill="none" stroke="#212237" stroke-width="0.5" stroke-linecap="round" stroke-linejoin="round" stroke-miterlimit="10" d="
							M289,306.2c0,0,0.7-1.4,2.2-0.6"/>
						<g>
							<g>
								<path fill="#212237" d="M284.1,310.2c0.1,0.3,0.2,0.5,0.3,0.8c0.2,0.5,1,0.3,0.8-0.2c-0.1-0.3-0.2-0.6-0.4-0.8
									C284.5,309.6,284,309.8,284.1,310.2L284.1,310.2z"/>
							</g>
						</g>
						
							<path fill="none" stroke="#212237" stroke-width="0.5" stroke-linecap="round" stroke-linejoin="round" stroke-miterlimit="10" d="
							M284.6,307.6c0,0-1.5-0.2-2.7,1.7"/>
					</g>
					<g>
						<path fill="#995037" d="M318,346.9c0,0,8.9,17.1,11.5,17.5c3.1,0.4,27.7-17.8,27.7-17.8l9.9,12c0,0-23,27.9-38.5,27.9
							c-15.5,0-29.9-27.9-29.9-27.9"/>
						<path fill="#FFE1CC" d="M275,327.1c0,0,2.3,4.1,8.9,3.8c5.1-0.2,7.3-2.3,7.3-2.3s15.1,3.9,18.1,23.8
							c2.7,18.5,6.2,50.2,6.2,50.2l-57.4,3.9c0,0-1.4-20.8,0.7-45C260.3,343.3,275,327.1,275,327.1z"/>
						<g>
							<path fill="#DCDDEF" d="M273.6,389.7l30.9,0.4l0,1.9l-32.6-0.5l0,0C271.9,390.5,272.6,389.7,273.6,389.7z"/>
							<path fill="#DCDDEF" d="M342.1,392.6l-43.4-0.6l8.7-29c0.4-1.5,1.7-2.5,3.2-2.5l39.2,0.6c0.9,0,1.5,0.9,1.2,1.8L342.1,392.6z
								"/>
							<path fill="#F2F5F9" d="M344.1,392.6l-43.4-0.6l8.7-29c0.4-1.5,1.7-2.5,3.2-2.5l39.2,0.6c0.9,0,1.5,0.9,1.2,1.8L344.1,392.6z
								"/>
							<path fill="#DCDDEF" d="M331.5,375.3c-0.3,1.4-1.8,2.4-3.4,2.4c-1.6,0-2.7-1.1-2.4-2.5c0.3-1.4,1.8-2.4,3.4-2.4
								C330.7,372.8,331.8,373.9,331.5,375.3z"/>
						</g>
						<path fill="#FFE1CC" d="M291.2,328.5c5.7-0.4,13.1,1,17.1,3.7c10.7,7,15.2,21.9,15.2,21.9l-14.8,3.8"/>
						<g>
							<g>
								<path fill="#995037" d="M269.8,361c0,0-4.3,15.2-3.3,18.6c0.8,2.5,22.7,5.7,22.7,5.7l1.1,14.6c0,0-38.8,2.5-44.4-4.5
									c-7.7-9.6,1.1-38.7,1.1-38.7"/>
								<g>
									<g>
										<g>
											<path fill="#995037" d="M284.6,385c3.2,0.1,20.3,0.9,20.2,1.8c-0.1,0.8-4.9,1.4-4.7,1.8c0.3,0.6,4,0.9,6.1,0.9
												c1.9,0,4.9,0.3,5,1.1c0.2,1.6-10.1,1.5-10.1,1.5s11.1-2,11.4-0.7c0.4,1.8-11.4,3.5-11.7,4c0,0,9.8-4.3,10.2-2.9
												c0.3,1.4-8.4,5.4-11.2,5.6c2.3-0.6,8.9-5.2,9.1-3.9c0.2,1.3-5.7,4-6.6,4.2c-8,1.8-15.6,1.2-15.6,1.2"/>
										</g>
									</g>
								</g>
								<g>
									<path fill="#6D221D" d="M310.1,391.5c0,0-0.5,0.1-1.2,0.3c-0.7,0.1-1.7,0.3-2.7,0.4c-1,0.1-2,0.1-2.8,0.1
										c-0.8,0-1.3-0.1-1.3-0.1s0.5-0.1,1.2-0.2c0.7-0.1,1.7-0.2,2.7-0.3c1-0.1,2-0.1,2.7-0.2
										C309.6,391.5,310.1,391.5,310.1,391.5z"/>
								</g>
								<g>
									<path fill="#6D221D" d="M309.2,393.4c0,0-0.5,0.2-1.3,0.5c-0.8,0.3-1.8,0.6-2.9,0.8c-1.1,0.2-2.2,0.4-3,0.4
										c-0.8,0-1.4,0-1.4,0s0.5-0.1,1.3-0.3c0.8-0.2,1.8-0.4,2.9-0.6c1.1-0.2,2.1-0.4,2.9-0.6
										C308.7,393.5,309.2,393.4,309.2,393.4z"/>
								</g>
								<g>
									<path fill="#6D221D" d="M307.6,395.3c0,0-0.4,0.2-1.1,0.5c-0.7,0.3-1.6,0.6-2.5,0.9c-0.9,0.3-1.9,0.5-2.6,0.6
										c-0.7,0.1-1.2,0.1-1.2,0.1s1.8-0.6,3.7-1.1c0.9-0.3,1.9-0.5,2.6-0.7C307.2,395.4,307.6,395.3,307.6,395.3z"/>
								</g>
							</g>
						</g>
						<path fill="#FFE1CC" d="M275,327.1c0,0-11.6,0.8-16,4.1c-11.8,8.9-14.5,26.3-14.5,26.3l26,6.8L275,350"/>
						<path fill="none" stroke="#A5634C" stroke-width="0.75" stroke-miterlimit="10" d="M269.3,364.4c1.4-6.6,3.5-12,3.5-12"/>
						<path fill="none" stroke="#A5634C" stroke-width="0.75" stroke-miterlimit="10" d="M310.1,357.4c-1.9-9.9-4.3-16-4.3-16"/>
						
							<line fill="none" stroke="#A5634C" stroke-width="0.75" stroke-miterlimit="10" x1="245.3" y1="353.5" x2="270.1" y2="360.8"/>
						
							<line fill="none" stroke="#A5634C" stroke-width="0.75" stroke-miterlimit="10" x1="322.2" y1="350.6" x2="309.4" y2="354.1"/>
						<path fill="none" stroke="#A5634C" stroke-width="0.75" stroke-miterlimit="10" d="M272.5,327.4c0,0,3.1,6.1,12.2,5.5
							s9.5-4.3,9.5-4.3"/>
						<g>
							<path fill="#995037" d="M350.6,351.6c0,0,17.1-13.3,18-13c0.9,0.3-1.5,2.8-0.8,2.9c0.7,0.1,6.2-5.5,7-5c1.1,0.7-4.5,6-4.5,6
								s6.5-5.5,7.2-4.6c0.5,0.6-5.8,6.7-5.8,6.7s6.4-4.7,7-4.1c0.5,0.6-5.2,6-5.2,6s4.5-3.9,5.2-3.3c0.7,0.7-8.8,12.8-17,21"/>
						</g>
						<path fill="none" stroke="#6D221D" stroke-width="0.75" stroke-linejoin="round" stroke-miterlimit="10" d="M366.6,342.2
							c0,0-1.2,3.1-2.8,5.5"/>
						<path fill="none" stroke="#6D221D" stroke-width="0.75" stroke-linejoin="round" stroke-miterlimit="10" d="M365.9,349.1
							c1.8-1.9,4.3-2.2,6.5-2.1"/>
					</g>
				</g>
				<g>
					<path fill="#050C26" d="M283.1,428.6c0,0-1.6,9.3,7.9,8.7c23-1.5,59.6-28.9,59.6-28.9l44.5,34.4l18.3-19.5
						c0,0-30.1-25.1-39-31.9c-3.7-2.8-11.3-9.2-19.9-8.7c-8.6,0.6-57,19.4-57,19.4"/>
					<path fill="none" stroke="#102059" stroke-width="0.75" stroke-miterlimit="10" d="M290.6,432.3c19.8-1.3,49.7-22.9,57.6-27.7
						c1.2-0.7,2.7-0.6,3.8,0.2l45.4,35.4"/>
					<path fill="#131C5E" d="M260,406.3c0,0-3.9,34,24.4,32.1c19.9-1.3,45-29.7,45-29.7l15.4,34.8l26.2-7.8c0,0-12.9-32.4-17.3-43.3
						c-3.8-9.3-10.5-16.7-17.3-17.6s-13.9,2.2-22.4,7.1c-6.8,4-28,22.6-28,22.6"/>
					<path fill="none" stroke="#30409E" stroke-width="0.75" stroke-miterlimit="10" d="M267.5,405.8c0,0-1.7,28.1,18.6,26.7
						c12.1-0.8,36-24.9,42.7-30.7c0.9-0.8,2.3-0.5,2.8,0.6l17.5,39.8"/>
					<path fill="none" stroke="#30409E" stroke-width="0.75" stroke-miterlimit="10" d="M267.7,412.8c0,0,8-1,8.7-7.6"/>
					<line fill="none" stroke="#30409E" stroke-width="0.75" stroke-miterlimit="10" x1="342.7" y1="438.7" x2="369" y2="430.8"/>
					<line fill="none" stroke="#102059" stroke-width="0.75" stroke-miterlimit="10" x1="390.7" y1="439.5" x2="409.1" y2="419.8"/>
				</g>
			</g>
		</g>
		<g>
			<g>
				<g>
					<path fill="#F9BBAF" d="M171.3,199.9c0-0.4,0.6-0.7,1-0.6c0.6,0.1,1.1,0.5,1.4,1.1c0.3,0.6,0.4,1.2,0.4,1.8
						c0,0.6,0,1.2-0.3,1.7c-0.5,0.9-1.7,1.3-2.6,0.9"/>
				</g>
				<path fill="#FFCBC2" d="M170.8,191.8c0,0,3.6,13.6,1.6,16.4c-2.9,4.2-9.9,4.5-12.9,2.6c-2.5-1.6-4.5-10.3-4.5-12.5
					C155.1,192.1,167.6,188.6,170.8,191.8z"/>
				<path fill="#FFCBC2" d="M152.7,207.8l-1.4,11.9c0,0,4.5,4.8,11.2,4.8s6.7-4.5,6.7-4.5l-1.3-10.3l-10.4-10.9L152.7,207.8"/>
				<g>
					<path fill="#4A1A1A" d="M159,197.8c0-0.8,0-1.6-0.1-2.3c0-0.2-0.1-1.8-0.2-1.9c3.3,0.7,6.8,0.9,10.1,0.7
						c1.1-0.1,2.2-0.2,3.1-0.8c0.8-0.5,0.7-8.3-9.2-8.7c-1.9-0.1-3.9,0-5.5,0.9c-1.7,0.9-4.2,2.6-4.3,4.5c-2.4,0.8-5,5.6-3.6,10.7
						c0.8,2.9,1.3,5.8,3.4,6.9c2.7-1.1,4.5-4.1,5-4.7C158.7,201.7,159,199.5,159,197.8z"/>
				</g>
				<path fill="none" stroke="#F7A794" stroke-width="0.75" stroke-miterlimit="10" d="M168.2,211.5c0,0-4.7,0.9-7.9-0.8
					c-2.5-1.4-3.5-4.5-3.5-4.5"/>
				<g>
					<path fill="#FFCBC2" d="M158.5,201.7c-0.3-0.5-1.3-1.2-1.8-1.1c-0.5,0.1-1,0.4-1.4,0.8c-1.8,2,0.2,5.8,2.9,5.4
						c1-0.2,0.7-1.5,0.7-1.5"/>
				</g>
				<path fill="none" stroke="#F7A794" stroke-width="0.5" stroke-miterlimit="10" d="M168.5,198.9c0,0,2.1,3.2,1.9,4.1
					c-0.2,0.9-2.3,1-2.3,1"/>
				<path fill="#FFFFFF" d="M170.4,205.1l-5.8,0.8c0,0,1.1,3,4.2,2.3C171.1,207.7,170.4,205.1,170.4,205.1z"/>
				<g>
					<g>
						<path fill="#212237" d="M170.2,198.1c0,0.3,0.1,0.5,0.2,0.8c0.1,0.5,0.9,0.3,0.8-0.2c-0.1-0.3-0.2-0.5-0.3-0.7
							C170.7,197.5,170.1,197.6,170.2,198.1L170.2,198.1z"/>
					</g>
				</g>
				
					<path fill="none" stroke="#212237" stroke-width="0.5" stroke-linecap="round" stroke-linejoin="round" stroke-miterlimit="10" d="
					M169,196.5c0,0,0.9-1.2,2.2-0.3"/>
				<g>
					<g>
						<path fill="#212237" d="M163.6,199.5c0,0.3,0.1,0.6,0.1,0.9c0.1,0.5,0.9,0.3,0.8-0.2c-0.1-0.3-0.1-0.5-0.2-0.7
							C164.2,199.1,163.6,199.1,163.6,199.5L163.6,199.5z"/>
					</g>
				</g>
				
					<path fill="none" stroke="#212237" stroke-width="0.5" stroke-linecap="round" stroke-linejoin="round" stroke-miterlimit="10" d="
					M164.6,197.2c0,0-1.4-0.5-2.9,1.2"/>
			</g>
			<g>
				<g>
					<g>
						<g>
							<path fill="#FFCBC2" d="M173.6,416l2.7,27.6l-0.2,8.7l34-0.2c0.8,0,1.5-0.7,1.5-1.5l0,0c0-0.6-0.4-1.2-1-1.4l-14.7-6.7
								l-1.4-28.7"/>
							<path fill="#011E3B" d="M213.1,451.7c-0.3-1.1-1-2.3-1.6-2.6l-15.6-6.7c-8.6,3.5-19.7,0.8-19.7,0.8l-2,11.7
								c0,0.4,0.3,0.7,0.7,0.7h37.9C213.6,455.6,213.1,451.7,213.1,451.7z"/>
							<path fill="none" stroke="#2C79E8" stroke-width="0.75" stroke-miterlimit="10" d="M199.3,443.1c-0.9,1.1-1.6,2.4-2.2,3.7"/>
							<path fill="none" stroke="#2C79E8" stroke-width="0.75" stroke-miterlimit="10" d="M201.2,444.2c-0.9,1.3-1.3,2-1.8,3.1"/>
							<path fill="none" stroke="#2C79E8" stroke-width="0.75" stroke-miterlimit="10" d="M202.9,445.1c-0.6,0.8-1.2,2-1.7,2.9"/>
						</g>
						
							<line fill="none" stroke="#2C79E8" stroke-width="0.75" stroke-miterlimit="10" x1="174.4" y1="453.1" x2="213.2" y2="452.9"/>
						<path fill="none" stroke="#2C79E8" stroke-width="0.75" stroke-miterlimit="10" d="M175.5,447.4c0,0,9.1,0.2,9.9,5.7"/>
						<path fill="none" stroke="#2C79E8" stroke-width="0.75" stroke-miterlimit="10" d="M208.3,447.7c0,0-2.5,3.6-3,5.2"/>
					</g>
				</g>
				<path fill="#2C79E8" d="M189.5,297.5c5.8,42,11.1,141.3,11.1,141.3h-29.3c0,0-6-62-11.2-106.9c-12.9-21.3-11.9-44.4-13.3-47.5"
					/>
				<path fill="none" stroke="#0F1D49" stroke-width="0.75" stroke-miterlimit="10" d="M175.3,438.7c0,0-7.2-68.5-12.4-113.4"/>
				<g>
					<g>
						<g>
							<path fill="#FFCBC2" d="M126.5,416l-1.3,27.6l-0.2,8.7l34-0.2c0.8,0,1.5-0.7,1.5-1.5l0,0c0-0.6-0.4-1.2-1-1.4l-14.7-6.7
								l2.6-28.7"/>
							<path fill="#011E3B" d="M162,451.7c-0.3-1.1-1-2.3-1.6-2.6l-15.6-6.7c-8.6,3.5-19.7,0.8-19.7,0.8l-2,11.7
								c0,0.4,0.3,0.7,0.7,0.7h37.9C162.5,455.6,162,451.7,162,451.7z"/>
							<path fill="none" stroke="#2C79E8" stroke-width="0.75" stroke-miterlimit="10" d="M148.2,443.1c-0.9,1.1-1.6,2.4-2.2,3.7"/>
							<path fill="none" stroke="#2C79E8" stroke-width="0.75" stroke-miterlimit="10" d="M150.2,444.2c-0.9,1.3-1.3,2-1.8,3.1"/>
							<path fill="none" stroke="#2C79E8" stroke-width="0.75" stroke-miterlimit="10" d="M151.8,445.1c-0.6,0.8-1.2,2-1.7,2.9"/>
						</g>
						
							<line fill="none" stroke="#2C79E8" stroke-width="0.75" stroke-miterlimit="10" x1="123.4" y1="453.1" x2="162.2" y2="452.9"/>
						<path fill="none" stroke="#2C79E8" stroke-width="0.75" stroke-miterlimit="10" d="M124.5,447.4c0,0,9.1,0.2,9.9,5.7"/>
						<path fill="none" stroke="#2C79E8" stroke-width="0.75" stroke-miterlimit="10" d="M157.2,447.7c0,0-2.5,3.6-3,5.2"/>
					</g>
				</g>
				<path fill="#2C79E8" d="M127.4,293.6c-0.8,9.5-0.7,21.3,0.7,32.8c-2.5,50.6-6,112.3-6,112.3h29.3c0,0,14.1-112,14.8-146"/>
				<path fill="none" stroke="#0F1D49" stroke-width="0.75" stroke-miterlimit="10" d="M132.4,293.6c-0.8,9.5-0.7,21.3,0.7,32.8
					c-2.5,50.6-6,112.3-6,112.3"/>
				<path fill="none" stroke="#0F1D49" stroke-width="0.75" stroke-miterlimit="10" d="M161.9,347.8c0,0,4.1-35.1,4.4-48"/>
				<line fill="none" stroke="#0F1D49" stroke-width="0.75" stroke-miterlimit="10" x1="122.5" y1="433" x2="152.2" y2="433"/>
				<line fill="none" stroke="#0F1D49" stroke-width="0.75" stroke-miterlimit="10" x1="170.7" y1="432.9" x2="200.2" y2="432.9"/>
				<path fill="none" stroke="#0F1D49" stroke-width="0.75" stroke-miterlimit="10" d="M132.1,313.9c0,0,8.4,0.7,13.1-11.3"/>
				<path fill="none" stroke="#0F1D49" stroke-width="0.75" stroke-miterlimit="10" d="M165,313.9c0,0,2.9-0.8,3.2-1.8
					c0.3-0.9,1.1-11.8,1.1-11.8"/>
				<path fill="none" stroke="#0F1D49" stroke-width="0.75" stroke-miterlimit="10" d="M180,302.7c0,0,0.7,9.8,11.4,11.3"/>
			</g>
			<g>
				<path fill="#FFCBC2" d="M196.5,241.2c0,0,6.8,9.5,9,10c2.2,0.4,21.1-20.7,21.1-20.7l11.5,8.9c0,0-17.2,34.7-33.3,35.6
					c-13.9,0.8-27.4-20.9-27.4-20.9"/>
				<path fill="#F7633A" d="M151.8,216c0,0,1.9,2.9,9.8,3.7c5.9,0.6,7.4-2.2,7.4-2.2s14.3,7.6,18.6,39.2c4.2,31.6,4.7,48.1,4.7,48.1
					H125c0,0-0.2-24,1.7-44.7C128.7,238.8,133.2,220.9,151.8,216z"/>
				<g>
					<polygon fill="#EDEEF7" points="173.6,311 142.7,305 141.7,304 152.8,258.2 185.7,266.1 186.7,267.1 					"/>
					<polygon fill="#CCD2ED" points="173.6,311 142.7,305 141.7,304 152.8,258.2 153.8,259.2 					"/>
					
						<rect x="147.8" y="262.5" transform="matrix(0.9721 0.2347 -0.2347 0.9721 71.7621 -30.6698)" fill="#B8C4E8" width="33.9" height="47.2"/>
					<g>
						<path fill="#FFFFFF" d="M176,313.9l-33-8c0,0,7.1-29.9,8.3-34.5c0,0,2.1-5.3,6-7.2c2.2-1.1,5.1-1.7,7.7-1.5l22,5.3L176,313.9z
							"/>
						<g>
							<line fill="none" stroke="#EDEEF7" stroke-miterlimit="10" x1="172.7" y1="309" x2="148.1" y2="303.4"/>
							<line fill="none" stroke="#EDEEF7" stroke-miterlimit="10" x1="173.4" y1="306.4" x2="148.8" y2="300.7"/>
							<line fill="none" stroke="#EDEEF7" stroke-miterlimit="10" x1="174.1" y1="303.7" x2="149.5" y2="298"/>
							<line fill="none" stroke="#EDEEF7" stroke-miterlimit="10" x1="174.7" y1="301" x2="150.1" y2="295.3"/>
							<line fill="none" stroke="#EDEEF7" stroke-miterlimit="10" x1="175.4" y1="298.3" x2="150.8" y2="292.6"/>
							<line fill="none" stroke="#EDEEF7" stroke-miterlimit="10" x1="176.1" y1="295.6" x2="151.5" y2="289.9"/>
							<line fill="none" stroke="#EDEEF7" stroke-miterlimit="10" x1="176.7" y1="292.9" x2="152.1" y2="287.3"/>
							<line fill="none" stroke="#EDEEF7" stroke-miterlimit="10" x1="177.4" y1="290.3" x2="152.8" y2="284.6"/>
							<line fill="none" stroke="#EDEEF7" stroke-miterlimit="10" x1="178.1" y1="287.6" x2="153.5" y2="281.9"/>
							<line fill="none" stroke="#EDEEF7" stroke-miterlimit="10" x1="178.8" y1="284.9" x2="154.1" y2="279.2"/>
							<line fill="none" stroke="#EDEEF7" stroke-miterlimit="10" x1="179.4" y1="282.2" x2="154.8" y2="276.5"/>
							<line fill="none" stroke="#EDEEF7" stroke-miterlimit="10" x1="180.1" y1="279.5" x2="155.5" y2="273.8"/>
							<line fill="none" stroke="#EDEEF7" stroke-miterlimit="10" x1="180.8" y1="276.8" x2="156.1" y2="271.2"/>
							<line fill="none" stroke="#EDEEF7" stroke-miterlimit="10" x1="181.4" y1="274.2" x2="156.8" y2="268.5"/>
							<line fill="none" stroke="#EDEEF7" stroke-miterlimit="10" x1="177.5" y1="269" x2="164.1" y2="266"/>
						</g>
						<g>
							<path fill="#EDEEF7" d="M157.4,264.3c-3.9,2-6,7.2-6,7.2s4.9-5,9.8-4.7c0.1-2.6,3.9-4.1,3.9-4.1
								C162.5,262.5,159.6,263.1,157.4,264.3z"/>
						</g>
					</g>
				</g>
				<path fill="#F7633A" d="M169,217.4c7,0.6,14.7,3.3,18.7,8.3c7.9,9.9,13.9,21,13.9,21l-18.9,13.3L169,217.4z"/>
				<path fill="none" stroke="#AA260C" stroke-width="0.75" stroke-miterlimit="10" d="M187.6,256.4c-1.1-8.9-3.5-20.2-3.5-20.2"/>
				<line fill="none" stroke="#AA260C" stroke-width="0.75" stroke-miterlimit="10" x1="187" y1="252.1" x2="199.8" y2="243.3"/>
				<g>
					<g>
						<path fill="#FFCBC2" d="M136.5,258.4c0,0-6.6,14.4-6.1,17.9c0.4,2.6,21.6,9,21.6,9l-1,14.6c0,0-38.7-3.3-43.2-11.1
							c-6.2-10.6,6.8-38.1,6.8-38.1"/>
						<g>
							<g>
								<g>
									<path fill="#FFCBC2" d="M147.6,284.3c3.2,0.6,19.9,3.9,19.7,4.8c-0.2,0.8-5.1,0.7-5,1.1c0.2,0.7,3.8,1.5,5.9,1.8
										c1.9,0.3,4.8,1,4.8,1.8c0,1.6-10.2-0.1-10.2-0.1s11.3-0.3,11.4,1c0.2,1.9-11.8,1.8-12.2,2.2c0,0,10.4-2.8,10.5-1.4
										c0.1,1.4-9.1,4.1-11.9,3.9c2.4-0.3,9.6-3.8,9.6-2.5c0.1,1.3-6.2,3.1-7.2,3.2c-8.2,0.6-15.6-1.2-15.6-1.2"/>
								</g>
							</g>
						</g>
						<g>
							<path fill="#F7958B" d="M171.8,294.5c-1.3,0.1-2.7,0.1-4,0.1c-0.7,0-1.3-0.1-2-0.2c-0.7-0.1-1.3-0.2-2-0.4
								c1.3-0.1,2.7,0,4,0.1C169.2,294.2,170.5,294.3,171.8,294.5z"/>
						</g>
						<g>
							<path fill="#F7958B" d="M170.6,296.3c-1.4,0.4-2.9,0.6-4.3,0.7c-0.7,0-1.5,0.1-2.2,0c-0.7,0-1.5-0.1-2.2-0.3
								C164.9,296.6,167.7,296.3,170.6,296.3z"/>
						</g>
						<g>
							<path fill="#F7958B" d="M168.8,297.9c-1.2,0.4-2.5,0.6-3.8,0.8c-0.6,0.1-1.3,0.1-1.9,0.2c-0.6,0-1.3,0-1.9-0.1
								c1.3-0.2,2.5-0.4,3.8-0.6C166.2,298.1,167.5,298,168.8,297.9z"/>
						</g>
					</g>
				</g>
				<path fill="#F7633A" d="M152,216c-7.9-0.1-15.7,1.4-20.6,5c-9.3,6.9-18.1,29.6-18.1,29.6l25.7,9.9l11.2-21.8"/>
				<line fill="none" stroke="#AA260C" stroke-width="0.75" stroke-miterlimit="10" x1="137.3" y1="260.1" x2="145.9" y2="245.1"/>
				<line fill="none" stroke="#AA260C" stroke-width="0.75" stroke-miterlimit="10" x1="139.7" y1="255.9" x2="115.6" y2="245.8"/>
				<path fill="none" stroke="#AA260C" stroke-width="0.75" stroke-miterlimit="10" d="M148.6,216c0,0,4.3,5.7,13.1,5.7s9.7-4,9.7-4
					"/>
				<g>
					<path fill="#FFCBC2" d="M221.8,236c0,0,12.6-15.8,13.5-15.8c0.9,0.1-0.8,2.9-0.1,2.9c0.7-0.1,4.6-6.5,5.4-6.2
						c1.1,0.4-2.5,6.1-2.5,6.1s1-1.1,1.9-0.4c0.6,0.4,0,2.2,0,2.2s1-0.6,1.7-0.1c0.6,0.5,0,2,0,2s1-1.2,1.7-0.2
						c0.7,0.9-2.7,9.6-8.6,19.1"/>
				</g>
				<path fill="none" stroke="#F7958B" stroke-width="0.5" stroke-miterlimit="10" d="M234.3,224.5c0,0-0.5,3.2-1.4,5.8"/>
				<g>
					<path fill="#F7958B" d="M243.1,228.4c-0.5,0.7-1,1.5-1.5,2.2c-0.3,0.4-0.6,0.7-0.9,1c-0.2,0.2-0.3,0.3-0.5,0.4
						c-0.2,0.1-0.5,0.3-0.8,0.1c-0.2-0.3-0.1-0.5-0.1-0.8c0-0.2,0.1-0.5,0.2-0.7c0.1-0.4,0.3-0.9,0.5-1.3c0.4-0.8,0.7-1.6,1.2-2.4
						l0.4,0.2c-0.5,0.9-1.1,1.7-1.7,2.5c-0.3,0.4-0.6,0.8-1,1.2c-0.2,0.2-0.4,0.4-0.6,0.5c-0.1,0.1-0.3,0.2-0.6,0
						c-0.2-0.2-0.3-0.4-0.3-0.5c0-0.6,0.1-1.1,0.3-1.6c0.2-0.5,0.3-1,0.5-1.4c0.4-0.9,0.8-1.9,1.2-2.8l0.4,0.2
						c-0.5,0.9-1,1.8-1.6,2.7c-0.3,0.4-0.6,0.8-0.9,1.2c-0.2,0.2-0.4,0.4-0.6,0.5c-0.1,0.1-0.3,0.2-0.5,0.1c-0.2,0-0.3-0.3-0.3-0.4
						c0-1.1,0.5-2.1,0.8-3c0.4-1,0.8-1.9,1.3-2.8c-0.4,0.9-0.8,1.9-1.1,2.9c-0.2,0.5-0.3,1-0.4,1.5c-0.1,0.5-0.3,1-0.2,1.5
						c0,0.1,0.1,0.2,0.1,0.2c0,0,0.1,0,0.2-0.1c0.2-0.1,0.4-0.3,0.5-0.5c0.3-0.4,0.6-0.8,0.9-1.2c0.5-0.9,1.1-1.7,1.5-2.6l0.4,0.2
						c-0.4,0.9-0.8,1.8-1.2,2.8c-0.3,0.9-0.7,1.9-0.8,2.8c0,0.1,0,0.2,0,0.1c0,0,0,0,0.1,0c0.2-0.1,0.4-0.3,0.5-0.4
						c0.3-0.3,0.6-0.7,0.9-1.1c0.6-0.8,1.1-1.6,1.7-2.5l0.4,0.2c-0.4,0.8-0.8,1.6-1.2,2.4c-0.2,0.4-0.4,0.8-0.5,1.2
						c-0.1,0.2-0.1,0.4-0.2,0.6c0,0.2-0.1,0.4,0,0.5c0.1,0.1,0.3,0,0.4-0.1c0.2-0.1,0.3-0.2,0.5-0.4c0.3-0.3,0.6-0.6,0.9-0.9
						C242,229.8,242.6,229.1,243.1,228.4z"/>
				</g>
			</g>
		</g>
	</g>
</g>
</svg>
