<?xml version="1.0" encoding="utf-8"?>
<!-- Generator: Adobe Illustrator 17.0.0, SVG Export Plug-In . SVG Version: 6.00 Build 0)  -->
<!DOCTYPE svg PUBLIC "-//W3C//DTD SVG 1.1//EN" "http://www.w3.org/Graphics/SVG/1.1/DTD/svg11.dtd">
<svg version="1.1" id="Layer_1" xmlns="http://www.w3.org/2000/svg" xmlns:xlink="http://www.w3.org/1999/xlink" x="0px" y="0px"
	 width="4000px" height="2000px" viewBox="0 0 4000 2000" enable-background="new 0 0 4000 2000" xml:space="preserve">
<g>
	<g>
		<defs>
			<rect id="SVGID_1_" x="1680.849" y="1377.643" width="1184.058" height="25.578"/>
		</defs>
		<clipPath id="SVGID_2_">
			<use xlink:href="#SVGID_1_"  overflow="visible"/>
		</clipPath>
		<path clip-path="url(#SVGID_2_)" fill="#96CBFF" d="M1680.849,1377.643v25.578V1377.643z"/>
		<rect x="1680.849" y="1377.643" clip-path="url(#SVGID_2_)" fill="#96CBFF" width="18.216" height="25.578"/>
		<rect x="1699.065" y="1377.643" clip-path="url(#SVGID_2_)" fill="#95CAFF" width="18.216" height="25.578"/>
		<rect x="1717.281" y="1377.643" clip-path="url(#SVGID_2_)" fill="#94C9FF" width="18.216" height="25.578"/>
		<rect x="1735.496" y="1377.643" clip-path="url(#SVGID_2_)" fill="#93C9FF" width="18.216" height="25.578"/>
		<rect x="1753.713" y="1377.643" clip-path="url(#SVGID_2_)" fill="#92C8FF" width="18.216" height="25.578"/>
		<rect x="1771.928" y="1377.643" clip-path="url(#SVGID_2_)" fill="#91C7FF" width="18.216" height="25.578"/>
		<rect x="1790.145" y="1377.643" clip-path="url(#SVGID_2_)" fill="#90C6FF" width="18.216" height="25.578"/>
		<rect x="1808.36" y="1377.643" clip-path="url(#SVGID_2_)" fill="#8FC6FF" width="18.216" height="25.578"/>
		<rect x="1826.576" y="1377.643" clip-path="url(#SVGID_2_)" fill="#8EC5FF" width="18.22" height="25.578"/>
		<rect x="1844.796" y="1377.643" clip-path="url(#SVGID_2_)" fill="#8DC4FF" width="18.216" height="25.578"/>
		<rect x="1863.012" y="1377.643" clip-path="url(#SVGID_2_)" fill="#8CC3FF" width="18.216" height="25.578"/>
		<rect x="1881.228" y="1377.643" clip-path="url(#SVGID_2_)" fill="#8BC2FF" width="18.216" height="25.578"/>
		<rect x="1899.444" y="1377.643" clip-path="url(#SVGID_2_)" fill="#8AC2FF" width="18.216" height="25.578"/>
		<rect x="1917.66" y="1377.643" clip-path="url(#SVGID_2_)" fill="#89C1FF" width="18.216" height="25.578"/>
		<rect x="1935.876" y="1377.643" clip-path="url(#SVGID_2_)" fill="#88C0FF" width="18.216" height="25.578"/>
		<rect x="1954.091" y="1377.643" clip-path="url(#SVGID_2_)" fill="#87BFFF" width="18.216" height="25.578"/>
		<rect x="1972.308" y="1377.643" clip-path="url(#SVGID_2_)" fill="#86BFFF" width="18.216" height="25.578"/>
		<rect x="1990.523" y="1377.643" clip-path="url(#SVGID_2_)" fill="#85BEFF" width="18.216" height="25.578"/>
		<rect x="2008.739" y="1377.643" clip-path="url(#SVGID_2_)" fill="#84BDFF" width="18.216" height="25.578"/>
		<rect x="2026.955" y="1377.643" clip-path="url(#SVGID_2_)" fill="#83BCFF" width="18.22" height="25.578"/>
		<rect x="2045.175" y="1377.643" clip-path="url(#SVGID_2_)" fill="#82BBFF" width="18.216" height="25.578"/>
		<rect x="2063.391" y="1377.643" clip-path="url(#SVGID_2_)" fill="#81BBFF" width="18.216" height="25.578"/>
		<rect x="2081.607" y="1377.643" clip-path="url(#SVGID_2_)" fill="#80BAFF" width="18.216" height="25.578"/>
		<rect x="2099.823" y="1377.643" clip-path="url(#SVGID_2_)" fill="#7FB9FF" width="18.216" height="25.578"/>
		<rect x="2118.039" y="1377.643" clip-path="url(#SVGID_2_)" fill="#7EB8FF" width="18.216" height="25.578"/>
		<rect x="2136.255" y="1377.643" clip-path="url(#SVGID_2_)" fill="#7DB7FF" width="18.216" height="25.578"/>
		<rect x="2154.471" y="1377.643" clip-path="url(#SVGID_2_)" fill="#7CB7FF" width="18.216" height="25.578"/>
		<rect x="2172.687" y="1377.643" clip-path="url(#SVGID_2_)" fill="#7BB6FF" width="18.216" height="25.578"/>
		<rect x="2190.903" y="1377.643" clip-path="url(#SVGID_2_)" fill="#7AB5FF" width="18.216" height="25.578"/>
		<rect x="2209.118" y="1377.643" clip-path="url(#SVGID_2_)" fill="#79B4FF" width="18.216" height="25.578"/>
		<rect x="2227.334" y="1377.643" clip-path="url(#SVGID_2_)" fill="#78B4FF" width="18.22" height="25.578"/>
		<rect x="2245.554" y="1377.643" clip-path="url(#SVGID_2_)" fill="#77B3FF" width="18.216" height="25.578"/>
		<rect x="2263.77" y="1377.643" clip-path="url(#SVGID_2_)" fill="#76B2FF" width="18.216" height="25.578"/>
		<rect x="2281.986" y="1377.643" clip-path="url(#SVGID_2_)" fill="#74B1FF" width="18.216" height="25.578"/>
		<rect x="2300.202" y="1377.643" clip-path="url(#SVGID_2_)" fill="#73B0FF" width="18.216" height="25.578"/>
		<rect x="2318.418" y="1377.643" clip-path="url(#SVGID_2_)" fill="#72B0FF" width="18.216" height="25.578"/>
		<rect x="2336.634" y="1377.643" clip-path="url(#SVGID_2_)" fill="#71AFFF" width="18.216" height="25.578"/>
		<rect x="2354.849" y="1377.643" clip-path="url(#SVGID_2_)" fill="#70AEFF" width="18.216" height="25.578"/>
		<rect x="2373.066" y="1377.643" clip-path="url(#SVGID_2_)" fill="#6FADFF" width="18.216" height="25.578"/>
		<rect x="2391.281" y="1377.643" clip-path="url(#SVGID_2_)" fill="#6EADFF" width="18.216" height="25.578"/>
		<rect x="2409.497" y="1377.643" clip-path="url(#SVGID_2_)" fill="#6DACFF" width="18.22" height="25.578"/>
		<rect x="2427.717" y="1377.643" clip-path="url(#SVGID_2_)" fill="#6CABFF" width="18.216" height="25.578"/>
		<rect x="2445.933" y="1377.643" clip-path="url(#SVGID_2_)" fill="#6BAAFF" width="18.216" height="25.578"/>
		<rect x="2464.149" y="1377.643" clip-path="url(#SVGID_2_)" fill="#6AA9FF" width="18.216" height="25.578"/>
		<rect x="2482.365" y="1377.643" clip-path="url(#SVGID_2_)" fill="#69A9FF" width="18.216" height="25.578"/>
		<rect x="2500.581" y="1377.643" clip-path="url(#SVGID_2_)" fill="#68A8FF" width="18.216" height="25.578"/>
		<rect x="2518.797" y="1377.643" clip-path="url(#SVGID_2_)" fill="#67A7FF" width="18.216" height="25.578"/>
		<rect x="2537.013" y="1377.643" clip-path="url(#SVGID_2_)" fill="#66A6FF" width="18.216" height="25.578"/>
		<rect x="2555.229" y="1377.643" clip-path="url(#SVGID_2_)" fill="#65A6FF" width="18.216" height="25.578"/>
		<rect x="2573.444" y="1377.643" clip-path="url(#SVGID_2_)" fill="#64A5FF" width="18.216" height="25.578"/>
		<rect x="2591.661" y="1377.643" clip-path="url(#SVGID_2_)" fill="#63A4FF" width="18.216" height="25.578"/>
		<rect x="2609.876" y="1377.643" clip-path="url(#SVGID_2_)" fill="#62A3FF" width="18.22" height="25.578"/>
		<rect x="2628.096" y="1377.643" clip-path="url(#SVGID_2_)" fill="#61A2FF" width="18.216" height="25.578"/>
		<rect x="2646.312" y="1377.643" clip-path="url(#SVGID_2_)" fill="#60A2FF" width="18.216" height="25.578"/>
		<rect x="2664.528" y="1377.643" clip-path="url(#SVGID_2_)" fill="#5FA1FF" width="18.216" height="25.578"/>
		<rect x="2682.744" y="1377.643" clip-path="url(#SVGID_2_)" fill="#5EA0FF" width="18.216" height="25.578"/>
		<rect x="2700.96" y="1377.643" clip-path="url(#SVGID_2_)" fill="#5D9FFF" width="18.216" height="25.578"/>
		<rect x="2719.176" y="1377.643" clip-path="url(#SVGID_2_)" fill="#5C9EFF" width="18.216" height="25.578"/>
		<rect x="2737.392" y="1377.643" clip-path="url(#SVGID_2_)" fill="#5B9EFF" width="18.216" height="25.578"/>
		<rect x="2755.608" y="1377.643" clip-path="url(#SVGID_2_)" fill="#5A9DFF" width="18.216" height="25.578"/>
		<rect x="2773.824" y="1377.643" clip-path="url(#SVGID_2_)" fill="#599CFF" width="18.216" height="25.578"/>
		<rect x="2792.039" y="1377.643" clip-path="url(#SVGID_2_)" fill="#589BFF" width="18.216" height="25.578"/>
		<rect x="2810.256" y="1377.643" clip-path="url(#SVGID_2_)" fill="#579BFF" width="18.22" height="25.578"/>
		<rect x="2828.475" y="1377.643" clip-path="url(#SVGID_2_)" fill="#569AFF" width="18.216" height="25.578"/>
		<rect x="2846.691" y="1377.643" clip-path="url(#SVGID_2_)" fill="#5599FF" width="18.216" height="25.578"/>
		<path clip-path="url(#SVGID_2_)" fill="#5599FF" d="M2864.907,1403.221v-25.578V1403.221z"/>
	</g>
</g>
<path fill="#64A4FF" d="M3558.389,1469.055h-339.092c-73.334,0-132.994-59.665-132.994-132.994v-616.05
	c0-75.889-61.739-137.63-137.627-137.63h-342.831v4.639h342.831c73.329,0,132.989,59.659,132.989,132.991v616.05
	c0,75.889,61.744,137.632,137.633,137.632h339.092c73.335,0,132.994,59.655,132.994,132.989v329.58h4.639v-329.58
	C3696.022,1530.793,3634.284,1469.055,3558.389,1469.055z"/>
<path fill="#0053CC" d="M3820.584,1421.135c16.91-28.092,29.495-58.078,37.784-88.975l66.873-12.815l0.691-73.969l0.686-73.969
	l-66.622-14.059c-7.71-31.051-19.732-61.262-36.115-89.666l38.198-56.301l-51.822-52.792l-51.816-52.792l-57.002,37.141
	c-28.092-16.913-58.073-29.495-88.975-37.781l-12.814-66.876l-73.969-0.691l-73.969-0.689l-14.058,66.625
	c-31.051,7.71-61.262,19.731-89.667,36.117l-56.301-38.198l-52.794,51.816l-52.789,51.816l37.144,57.008
	c-16.916,28.092-29.5,58.068-37.783,88.975l-66.879,12.815l-0.686,73.969l-0.692,73.964l66.628,14.059
	c7.705,31.051,19.731,61.262,36.115,89.666l-38.198,56.301l51.816,52.794l51.816,52.794l57.008-37.144
	c28.092,16.91,58.073,29.495,88.975,37.783l12.815,66.874l73.969,0.691l73.969,0.691l14.054-66.633
	c31.056-7.705,61.267-19.726,89.666-36.114l56.302,38.204l52.794-51.817l52.794-51.816L3820.584,1421.135z M3392.471,1368.658
	c-70.166-71.487-69.095-186.321,2.391-256.491c71.491-70.171,186.326-69.095,256.491,2.391c70.17,71.492,69.1,186.326-2.391,256.491
	C3577.476,1441.214,3462.641,1440.144,3392.471,1368.658z"/>
<path fill="#0053CC" d="M2086.913,791.362c7.325,23.363,17.853,45.241,31.02,65.178l-25.956,43.722l40.999,37.013l40.997,37.018
	l40.85-30.274c21.175,11.067,44.011,19.311,67.999,24.217l12.551,49.232l55.165-2.817l55.165-2.817l7.471-50.252
	c23.364-7.326,45.244-17.853,65.178-31.021l43.722,25.957l37.015-40.998l37.018-41.001l-30.277-40.85
	c11.072-21.172,19.314-44.01,24.219-67.997l49.229-12.549l-2.813-55.168l-2.817-55.165l-50.253-7.469
	c-7.326-23.364-17.849-45.244-31.02-65.178l25.956-43.722l-40.997-37.018l-40.999-37.013l-40.85,30.274
	c-21.175-11.067-44.01-19.311-67.999-24.217l-12.551-49.232l-55.165,2.817l-55.165,2.817l-7.471,50.252
	c-23.364,7.326-45.244,17.853-65.178,31.021l-43.722-25.957l-37.017,40.996l-37.017,41.003l30.277,40.85
	c-11.068,21.17-19.31,44.007-24.219,67.997l-49.23,12.549l2.817,55.165l2.817,55.164L2086.913,791.362z M2328.249,578.081
	c74.7-3.814,138.348,53.652,142.164,128.355c3.814,74.7-53.651,138.349-128.351,142.163
	c-74.704,3.818-138.354-53.651-142.167-128.352C2196.08,645.547,2253.545,581.898,2328.249,578.081z"/>
<g>
	<path fill="#4DA8F2" d="M3322.582,1584.447c-4.546-6.026-11.729-9.963-19.859-10.06c-11.228-0.148-20.842,7.06-24.257,17.156l0,0
		l0,0c-0.829,2.443-1.29,5.053-1.326,7.777c-0.041,3.169,0.512,6.205,1.541,9.016c1.644,4.495,4.531,8.396,8.248,11.284
		c3.701,2.867,8.217,4.73,13.152,5.176c0.656,0.057,1.321,0.102,1.991,0.108c0.42,0.005,0.84-0.01,1.255-0.026
		c0.143-0.005,0.292,0,0.44-0.005c2.534-0.138,4.971-0.651,7.26-1.48c9.589-3.481,16.49-12.615,16.634-23.422
		C3327.737,1594.149,3325.833,1588.764,3322.582,1584.447z M3308.866,1617.449l-0.01,0.005c-1.71,0.62-3.532,0.998-5.432,1.106l0,0
		c-0.419,0.02-0.844,0.025-1.269,0.025c-1.797-0.025-3.528-0.312-5.166-0.804c-2.268-0.676-4.362-1.751-6.185-3.164
		c-0.665-0.512-1.29-1.081-1.884-1.674c-3.43-3.482-5.529-8.274-5.458-13.542c0.016-1.372,0.19-2.703,0.487-3.994
		c0.143-0.624,0.302-1.239,0.507-1.838c2.56-7.567,9.763-12.974,18.185-12.866c6.052,0.077,11.407,2.99,14.811,7.449
		c2.488,3.256,3.942,7.326,3.886,11.734C3321.235,1607.988,3316.059,1614.838,3308.866,1617.449z"/>
</g>
<g>
	<rect x="2452.47" y="1923.473" fill="#FFC955" width="1399.56" height="25.583"/>
</g>
<g>
	<g>
		<g>
			<path fill="#6069A8" d="M3672.236,995.435c0,0,13.71,23.241,19.501,27.04c7.853,5.15,2.934,10.362-0.799,10.362
				c-3.732,0.005-22.792,1.372-26.991-3.394c-4.198-4.761-6.282-19.045-10.188-22.783c-3.906-3.735-7.94-18.584,1.905-22.194
				C3664.362,981.276,3672.236,995.435,3672.236,995.435z"/>
		</g>
	</g>
</g>
<g>
	<g>
		<g>
			<path fill="#202338" d="M3666.297,985.211c0,0,15.703,27.219,18.411,31.242c2.703,4.019-5.094,4.014-9.933,2.099
				c-4.833-1.904-16.992-21.428-18.743-24.984c-2.083-4.242-0.369-9.103-0.369-9.103L3666.297,985.211z"/>
		</g>
	</g>
</g>
<g>
	<g>
		<g>
			<polygon fill="#6069A8" points="3650.39,999.856 3654.015,1027.763 3655.935,1027.845 3655.336,1007.771 			"/>
		</g>
	</g>
</g>
<g>
	<g>
		<g>
			<path fill="#6069A8" d="M3536.273,995.435c0,0,13.71,23.241,19.5,27.04c7.859,5.15,2.934,10.362-0.798,10.362
				c-3.732,0.005-22.788,1.372-26.986-3.394c-4.204-4.761-6.282-19.045-10.188-22.783c-3.906-3.735-8.073-18.969,1.9-22.194
				C3528.449,981.637,3536.273,995.435,3536.273,995.435z"/>
		</g>
	</g>
</g>
<g>
	<g>
		<g>
			<path fill="#202338" d="M3531.163,985.267c0,0,14.878,27.163,17.581,31.186c2.708,4.019-5.094,4.014-9.927,2.099
				c-4.838-1.904-16.997-21.428-18.743-24.984c-2.083-4.242-0.373-9.103-0.373-9.103L3531.163,985.267z"/>
		</g>
	</g>
</g>
<g>
	<g>
		<g>
			<polygon fill="#6069A8" points="3514.432,999.856 3518.057,1027.763 3519.977,1027.845 3519.377,1007.771 			"/>
		</g>
	</g>
</g>
<g>
	<g>
		<g>
			<path fill="#202338" d="M3475.445,783.912l124.071,56.534c0,0,13.849,4.503,15.4,19.88c4.843,47.997,40.747,124.14,40.747,124.14
				c11.52,5.634,10.634,0.745,10.634,0.745c-7.259-23.302-16.096-119.345-19.25-157.961c-0.666-8.179-1.081-13.78-1.167-15.569
				c-0.062-1.218-1.398-2.816-3.697-4.677c-17.023-13.805-87.075-42.386-87.075-42.386
				C3502.508,763.285,3475.445,783.912,3475.445,783.912z"/>
		</g>
	</g>
</g>
<g>
	<g>
		<g>
			<path fill="#202338" d="M3452.059,808.188c3.84,33.539,51.714,29.696,51.714,29.696h58.016c0,0-15.236,33.913-21.124,62.516
				c-6.241,30.355-20.965,84.066-20.965,84.066s0.967,1.825,11.463,0.804c0,0,45.545-90.772,62.977-113.591
				c3.747-4.912,14.499-31.568,16.347-47.467c0.625-5.353,0.24-9.484-1.756-11.158c-2.012-1.687-6.64-4.866-12.81-8.755
				c-18.175-11.461-49.733-29.103-67.319-33.055c-23.551-5.294-60.802-15.213-60.802-15.213S3448.219,774.653,3452.059,808.188z"/>
		</g>
	</g>
</g>
<g>
	<path fill="#464240" d="M3491.547,549.876c0,0-8.688-16.488-4.454-34.044c4.234-17.558,20.525-35.052,44.378-27.019
		c23.858,8.036,43.138,26.566,28.839,47.992c-14.299,21.426,12.938,31.103,6.001,41.298c-6.948,10.196-4.311,20.84-1.372,23.213
		c2.938,2.371,12.415,10.828,11.376,20.837c-1.044,10.012-46.282-29.172-46.282-29.172S3505.395,543.476,3491.547,549.876z"/>
</g>
<g>
	<path fill="#EB4747" d="M3564.251,760.597c0,0-3.594,17.453-96.26-4.582C3467.991,756.015,3499.058,745.696,3564.251,760.597z"/>
</g>
<g>
	<g>
		<path fill="#5F8CC9" d="M3466.942,760.91c-1.438,2.744-2.872,5.486-4.311,8.23c33.877,0.986,67.749,1.971,101.621,2.959
			c-5.355-17.942-3.619-42.238-2.683-60.681c1.146-22.524,13.588-38.188,12.261-60.968c6.702,1.083,7.859,1.29,14.571,2.317
			c-10.26-29.244-13.777-43.732-45.662-54.988c-10.378-3.666-17.203-4.39-28.435-3.466c-36.928,3.046-48.064,3.481-66.198,36.941
			c28.388,4.521,23.714,14.716,32.326,42.959c4.198,13.772,8.581,29.141,6.328,43.668
			C3484.548,732.18,3466.942,747.867,3466.942,760.91z"/>
	</g>
</g>
<g>
	<g>
		<path fill="#EEA886" d="M3525.869,604.867c-15.113-2.855-11.898-11.258-11.898-11.258s0.701-4.746,0.972-10.741
			c0.072-1.536,0.113-3.154,0.107-4.795c-0.01-2.491-0.128-5.038-0.419-7.434c-1.234-10.142,27.437-4.093,27.437-4.093
			s-1.654,20.527,2.298,26.676C3548.319,599.376,3540.982,607.721,3525.869,604.867z"/>
	</g>
</g>
<g>
	<g>
		<path fill="#EEA886" d="M3497.04,593.552c0,0,30.482,35.198,41.751,43.359c0,0,12.948-11.701,4.966-42.596
			C3543.757,594.315,3529.043,586.942,3497.04,593.552z"/>
	</g>
</g>
<g>
	<path fill="#EEA886" d="M3497.87,508.839c0,0-15.83,30.5-0.128,59.394c15.702,28.893,46.548-12.584,48.545-17.448
		c1.997-4.866,12.574-32.39-8.468-40.753C3516.776,501.666,3502.349,500.561,3497.87,508.839z"/>
</g>
<g>
	<path fill="#464240" d="M3503.133,519.662c0,0-10.895,14.312-12.185,24.887c0,0-4.342-19.995,7.925-39.207
		c12.267-19.212,43.456-0.914,47.634,6.763c4.178,7.675,16.419,14.438-4.147,47.424
		C3542.36,559.529,3505.37,533.831,3503.133,519.662z"/>
</g>
<g>
	<path fill="#A77860" d="M3528.434,571.276c0,0-2.749,6.005-13.491,11.591c0.072-1.536,0.113-3.154,0.107-4.795
		C3515.051,578.073,3522.322,577.192,3528.434,571.276z"/>
</g>
<g>
	<path fill="#EEA886" d="M3368.439,733.468c0,0-7.526,3.346-11.094,1.828c-3.569-1.518-9.088-1.812-10.828-1.818
		c-2.33-0.005-9.615-2.603-9.487,0.243c0.123,2.847,11.827,4.833,14.223,5.721c2.396,0.886-7.163,6.151-8.053,8.488
		c-0.891,2.34,9.901,17.681,15.989,13.309c6.087-4.372,9.384-13.099,10.623-13.652c1.239-0.556,4.567-3.005,4.567-3.005
		L3368.439,733.468z"/>
</g>
<g>
	<path fill="#EEA886" d="M3344.351,746.572c0,0-17.647,14.635-17.924,16.611c-0.276,1.974,0.651,2.898,2.365,1.6
		c1.71-1.298,17.499-13.639,17.499-13.639s-17.683,20.886-18.277,22.437c-0.348,0.906,1.346,2.793,2.334,2.184
		c0.988-0.609,19.793-20.271,19.793-20.271s-16.47,19.532-16.562,20.993c-0.077,1.28,1.905,2.657,3.236,1.295
		c1.331-1.362,17.724-18.595,17.724-18.595s-11.022,14.995-10.342,16.316c0.415,0.809,1.807,2.501,4.521-1.462
		c2.714-3.963,10.173-12.605,10.173-12.605L3344.351,746.572z"/>
</g>
<g>
	<g>
		<path fill="#FFD255" d="M3555.738,837.887h-51.965c0,0-47.875,3.84-51.709-29.696c-3.845-33.537,15.738-52.16,15.738-52.16
			s25.292,6.735,47.368,12.07c11.059-2.35,24.38-3.878,39.939-3.484c0,0,93.593,30.928,90.777,47.211
			C3645.885,811.827,3606.735,790.893,3555.738,837.887z"/>
	</g>
</g>
<g>
	<polygon fill="#5E5853" points="3521.912,779.814 3620.988,778.357 3570.964,803.756 	"/>
</g>
<g>
	<path fill="#5F8CC9" d="M3552.691,767.156c0,0-22.286,8.632-49.61,0.829l-1.28-10.201l56.25,3.126L3552.691,767.156z"/>
</g>
<g>
	<polygon fill="#91887F" points="3570.964,803.756 3521.912,784.754 3521.912,779.814 3574.844,798.908 	"/>
</g>
<g>
	<g>
		<path fill="#EDDAD3" d="M3552.348,771.876c-0.266,3.66,3.435,6.3,6.809,4.861l5.755-2.457c1.731-0.737,2.734-2.56,2.437-4.418
			c-2.396-14.985-7.536-73.319-0.026-83.331c2.775-3.699,4.51-6.942,5.488-9.776c4.956,12.784,11.125,29.251,13.578,38.111
			l46.809,62.271l15.692,3.981c-19.583-47.188-35.316-72.19-35.316-72.19c-3.062-8.225-11.847-33.13-19.624-55.305
			c-4.915-14-9.425-26.912-11.852-33.854c-1.224-3.515-3.65-6.484-6.845-8.393c-7.25-4.334-19.332-11.164-30.288-16.483
			c-0.046-0.02-0.087-0.038-0.133-0.061c-0.348-0.171-0.696-0.34-1.05-0.507c-0.01-0.003-0.015-0.005-0.015-0.005
			c-0.005-0.005-0.01-0.005-0.01-0.005c20.832,31.519,12.707,120.525,8.596,177.438
			C3552.354,771.792,3552.348,771.835,3552.348,771.876z"/>
	</g>
	<g>
		<path fill="#EDDAD3" d="M3475.021,597.003c-6.676,1.031-23.218,17.092-32.003,33.306c-10.03,18.503-20.233,39.57-27.887,46.5
			c-14.069,12.745-53.44,57.794-55.313,56.703c-0.717-0.42,10.797,13.452,12.261,14.1c0.732,0.32,64.718-55.126,70.867-63.571
			c5.826-8.01,21.41-41.621,26.075-40.883c0,0,0,0.01,0.01,0.023c0,0.005,0.005,0.01,0.005,0.013
			c0.353,0.763,6.021,13.055,11.396,31.02c0.087,0.297,0.179,0.594,0.266,0.893c3.702,12.53,3.358,26.133,1.357,41.418
			c-1.516,11.542-10.127,30.401-15.323,39.583c-0.624,1.103-0.466,3.202,0.21,4.8c0,0,0,0,0,0.003
			c0.404,0.957,0.993,1.73,1.705,1.992l18.79,6.96l4.413,1.633c3.179,1.18,6.512,0.566,9-1.244c2.043-1.479,3.522-3.768,3.881-6.528
			c4.178-32.131,9.461-64.961,13.675-77.328c18.482-54.264-7.224-95.037-7.224-95.037S3480.877,594.817,3475.021,597.003z"/>
	</g>
</g>
<g>
	<polygon fill="#6E6760" points="3570.964,803.756 3600.433,723.295 3695.438,724.846 3667.352,798.993 	"/>
</g>
<g>
	<path fill="#807066" d="M3630.833,758.89c-2.897,5.795-2.027,12.108,1.956,14.097c3.978,1.992,9.553-1.093,12.451-6.888
		c2.903-5.796,2.028-12.108-1.956-14.097C3639.306,750.01,3633.731,753.094,3630.833,758.89z"/>
</g>
<g>
	<path fill="#464240" d="M3530.687,539.212c0,0,6.087,9.466,0.46,17.64c-5.626,8.173,1.419,16.198,2.637,24.838
		c1.224,8.639-23.464,31.624,3.988,43.189c27.457,11.566,36.196-7.551,29.193-18.072c-7.004-10.519-11.975-19.053-12.569-34.054
		C3553.802,557.755,3548.867,534.374,3530.687,539.212z"/>
</g>
<g>
	<polygon fill="#FFCB55" points="3396.49,499.905 3453.774,499.905 3453.774,541.423 3453.774,550.171 3445.029,541.423 
		3396.49,541.423 	"/>
</g>
<g>
	<g>
		<g>
			<g>
				<g>
					<path fill="#BBD070" d="M3074.948,1137.022c0,0-124.844,118.802-64.114,211.305c60.735,92.502,89.155,11.478,89.155,11.478
						s41.075,12.4-19.89-101.651C3051.366,1204.398,3074.948,1137.022,3074.948,1137.022z"/>
				</g>
			</g>
		</g>
	</g>
	<g>
		<g>
			<g>
				<g>
					<path fill="#97A43C" d="M2844.111,1008.219c0,0-95.369,112.078,32.136,267.281
						c127.506,155.208,107.739,237.246,107.739,237.246S3161.481,1242.908,2844.111,1008.219z"/>
				</g>
			</g>
		</g>
	</g>
	<g>
		<g>
			<g>
				<g>
					<path fill="#48753A" d="M3012.738,1465.896c59.332,11.995,11.324-160.533-77.656-213.133
						c-88.975-52.604-168.581-57.73-218.421-108.384C2716.661,1144.379,2720.547,1406.805,3012.738,1465.896z"/>
				</g>
			</g>
		</g>
	</g>
</g>
<g>
	<g>
		<g>
			<g>
				<path fill="#EEA886" d="M2624.958,1541.565c0,0,2.723-6.737,3.169-7.756c0.446-1.013,3.067-2.667,6.236-4.31
					c3.174-1.638,8.196-2.437,8.734-2.135c0.537,0.297,1.218,0.349,1.915,1.771c0.691,1.418,0.497,3,0.497,3
					s1.679,1.346,1.295,3.282c0,0,1.52,1.341,0.722,3.461c0,0,1.449,1.352,0.737,2.841c0,0-2.621,1.664-3.415,2.565
					c-0.794,0.896-6.482,3.983-12.395,6.108C2632.453,1550.391,2626.186,1550.509,2624.958,1541.565z"/>
			</g>
		</g>
	</g>
	<g>
		<g>
			<g>
				<path fill="#CF8C6C" d="M2634.603,1537.889c0,0,0.066,3.65-0.436,4.679c-0.496,1.04,7.404,3.333,7.404,3.333
					S2639.042,1537.925,2634.603,1537.889z"/>
			</g>
		</g>
	</g>
	<g>
		<g>
			<g>
				<polygon fill="#3B3F66" points="2487.202,1894.624 2490.652,1883.878 2505.243,1886.238 2503.063,1895.929 				"/>
			</g>
		</g>
	</g>
	<g>
		<g>
			<g>
				<polygon fill="#555C94" points="2606.834,1893.354 2607.653,1899.257 2623.626,1896.595 2622.777,1887.774 				"/>
			</g>
		</g>
	</g>
	<g>
		<g>
			<g>
				<g>
					<path fill="#354C70" d="M2572.23,1727.865c0,0-2.35,12.825-5.084,27.057c-0.476,2.478-0.958,5.002-1.449,7.505
						c-2.667,13.716-5.365,26.91-6.364,29.638c-2.262,6.205-51.186,95.851-51.186,95.851s-20.008-1.526-20.755-4.096
						c0,0,41.014-97.341,40.778-100.888c-0.226-3.543,5.012-103.331,5.012-103.331S2571.149,1722.105,2572.23,1727.865z"/>
				</g>
			</g>
		</g>
	</g>
	<g>
		<g>
			<g>
				<g>
					<path fill="#354C70" d="M2594.583,1673.899c0,0,19.142,98.027,20.781,105.527c1.638,7.506,8.888,107.918,8.888,107.918
						s-4.301,8.872-20.192,5.535c0,0-21.667-107.887-23.495-111.507c-7.085-14.028-41.864-81.997-45.238-91.699
						c-3.369-9.702-2.381-21.022-2.381-21.022S2558.791,1654.131,2594.583,1673.899z"/>
				</g>
			</g>
		</g>
	</g>
	<g>
		<g>
			<g>
				<g>
					<path fill="#DEB135" d="M2586.539,1546.935c0,0,8.396,20.929,10.506,20.315c2.109-0.624,26.239-28.957,26.239-28.957
						s11.038,13.777,9.558,15.359c-2.058,2.201-30.554,49.579-34.476,48.724c-3.921-0.854-21.441-29.817-21.441-29.817
						S2575.931,1550.719,2586.539,1546.935z"/>
				</g>
			</g>
		</g>
	</g>
	<g>
		<g>
			<g>
				<g>
					<path fill="#F2C344" d="M2550.63,1506.966c0,0,21.774,16.644,27.785,23.243c6.005,6.599,22.593,33.974,21.395,42.207
						c-4.582,31.573-6.763,58.472-6.902,80.01c-0.123,18.764,5.857,23.551,2.135,23.827c-4.275,0.323-59.061,20.177-67.17,22.593
						c0,0,5.314-66.069,8.007-73.693C2538.573,1617.531,2527.263,1537.638,2550.63,1506.966z"/>
				</g>
			</g>
		</g>
	</g>
	<g>
		<g>
			<g>
				<path fill="#D9D0C4" d="M2690.858,1475.403l4.885,24.611l4.884,24.615c0,0-27.953-8.75-59.675-2.452l-2.155-10.854l-2.171-10.92
					C2668.352,1494.1,2690.858,1475.403,2690.858,1475.403z"/>
			</g>
		</g>
	</g>
	<g>
		<g>
			<g>
				<path fill="#84BDFF" d="M2607.653,1899.257c0,0,12.057-2.335,12.482-2.698c0.42-0.369,3.01-5.13,4.874-4.3
					c1.863,0.829,1.889,6.625,3.712,7.608c1.822,0.983,16.214,10.705,17.985,12.476c1.767,1.771,12.671,0.727,13.921,3.804
					c1.249,3.077,1.352,10.347-14.908,8.637c-16.266-1.71-34.835,0.932-38.336-0.988
					C2603.88,1921.876,2606.532,1903.936,2607.653,1899.257z"/>
			</g>
		</g>
	</g>
	<g>
		<g>
			<g>
				<path fill="#84BDFF" d="M2487.007,1894.358c0,0,12.282-0.374,12.753-0.671c0.476-0.292,3.794-4.582,5.504-3.461
					c1.705,1.121,0.804,6.845,2.442,8.11c1.643,1.254,14.299,13.162,15.758,15.19c1.464,2.032,12.39,2.749,13.132,5.985
					s-0.317,10.429-16.096,6.139c-15.779-4.29-34.532-4.654-37.681-7.106C2479.671,1916.08,2485.154,1898.801,2487.007,1894.358z"/>
			</g>
		</g>
	</g>
	<g>
		<g>
			<g>
				<g>
					<path fill="#EEA987" d="M2582.367,1678.44c0,0,1.469,5.97,3.824,7.265c2.355,1.295-10.987,14.053-10.987,14.053
						s-5.417-11.826-5.268-13.019C2570.084,1685.546,2582.367,1678.44,2582.367,1678.44z"/>
				</g>
			</g>
		</g>
	</g>
	<g>
		<g>
			<g>
				<g>
					<path fill="#FFD255" d="M2540.958,1532.775c0,0-15.625,74.328-16.905,81.941c-1.213,7.203,45.811,75.971,45.811,75.971
						l15.635-9.277c0,0-37.942-68.993-37.885-72.141c0.051-3.149,18.21-63.07,18.21-63.07s7.588-13.045-5.872-19.383
						C2546.488,1520.482,2540.958,1532.775,2540.958,1532.775z"/>
				</g>
			</g>
		</g>
	</g>
	<g>
		<g>
			<g>
				<path fill="#3C5780" d="M2591.531,1683.569c0,0,5.084,25.276,4.772,33.017c-0.313,7.741-29.172-12.18-27.708-19.885
					L2591.531,1683.569z"/>
			</g>
		</g>
	</g>
	<g>
		<g>
			<g>
				<g>
					<g>
						<path fill="#EEA886" d="M2550.63,1506.966c0,0,39.657,43.318,37.215,38.516c-8.708-17.12-14.786-20.008-14.663-23.203
							c0.097-2.447,1.05-9.569,1.214-11.955c0.307-4.541,0.645-8.227,0.645-8.227s-19.69-27.657-18.82-18.231
							C2557.086,1493.286,2550.63,1506.966,2550.63,1506.966z"/>
					</g>
				</g>
			</g>
		</g>
	</g>
	<g>
		<g>
			<g>
				<g>
					<g>
						<path fill="#EEA886" d="M2588.398,1455.974c0,0,5.452,12.799,5.529,15.794c0.076,2.995-0.681,5.293-0.216,8.744
							c0.481,3.574,3.477,11.074,3.108,13.147c-0.445,2.509-5.724,1.203-6.45,5.335c-0.727,4.126-4.567,11.888-6.477,12.047
							c-4.91,0.399-23.709-7.265-24.907-11.197c-1.193-3.937-8.007-25.865-10.127-30.037c-2.119-4.173,33.119-27.026,36.33-20.428
							C2588.398,1455.974,2588.398,1455.974,2588.398,1455.974z"/>
					</g>
				</g>
			</g>
		</g>
	</g>
	<g>
		<g>
			<g>
				<path fill="#16202E" d="M2540.477,1465.471c-2.488-10.859,9.994-12.195,9.994-12.195s8.13-9.467,27.579-8.34
					c19.45,1.121,16.481,26.505,16.481,26.505s-13.455-2.012-19.306-0.527c0,0-0.717,10.839-0.082,13.526l-7.337-0.655
					c0,0,0.819-9.62-2.703-10.075c-3.522-0.456-4.705,20.366-11.263,24.953c0,0-0.067-1.469-0.886-2.908l0,0l0,0
					c-1.311-2.294-3.343-6.134-5.099-10.623C2544.993,1478.839,2541.752,1471.031,2540.477,1465.471z"/>
			</g>
		</g>
	</g>
	<g>
		<g>
			<g>
				<g>
					<g>
						<path fill="#EEA886" d="M2569.992,1476.033c0,0-2.729-7.342-9.179-2.58c-4.695,3.472,0.133,15.866,4.7,15.805
							C2570.079,1489.201,2571.933,1482.453,2569.992,1476.033z"/>
					</g>
				</g>
			</g>
		</g>
	</g>
	<g>
		<g>
			<g>
				<path fill="#C48A6F" d="M2557.926,1496.41c0,0,0.962,3.901,2.012,4.807c1.05,0.916,5.985,4.92,14.56,7.613l-0.763,7.69
					C2573.735,1516.52,2557.071,1510.089,2557.926,1496.41z"/>
			</g>
		</g>
	</g>
	<g>
		<g>
			<g>
				<g>
					<defs>
						<path id="SVGID_3_" d="M2645.375,1549.096l2.801-1.331l-12.686-26.914l-7.111,3.348l10.751,22.823
							C2640.326,1549.557,2642.836,1550.294,2645.375,1549.096z"/>
					</defs>
					<clipPath id="SVGID_4_">
						<use xlink:href="#SVGID_3_"  overflow="visible"/>
					</clipPath>
					<path clip-path="url(#SVGID_4_)" fill="#96CBFF" d="M2628.378,1520.851v29.443V1520.851z"/>
					<rect x="2628.378" y="1520.851" clip-path="url(#SVGID_4_)" fill="#96CBFF" width="0.302" height="29.443"/>
					<rect x="2628.68" y="1520.851" clip-path="url(#SVGID_4_)" fill="#95CAFF" width="0.307" height="29.443"/>
					<rect x="2628.987" y="1520.851" clip-path="url(#SVGID_4_)" fill="#94C9FF" width="0.302" height="29.443"/>
					<rect x="2629.289" y="1520.851" clip-path="url(#SVGID_4_)" fill="#93C9FF" width="0.307" height="29.443"/>
					<rect x="2629.596" y="1520.851" clip-path="url(#SVGID_4_)" fill="#92C8FF" width="0.302" height="29.443"/>
					<rect x="2629.898" y="1520.851" clip-path="url(#SVGID_4_)" fill="#91C7FF" width="0.307" height="29.443"/>
					<rect x="2630.205" y="1520.851" clip-path="url(#SVGID_4_)" fill="#90C6FF" width="0.302" height="29.443"/>
					<rect x="2630.507" y="1520.851" clip-path="url(#SVGID_4_)" fill="#8FC6FF" width="0.307" height="29.443"/>
					<rect x="2630.814" y="1520.851" clip-path="url(#SVGID_4_)" fill="#8EC5FF" width="0.302" height="29.443"/>
					<rect x="2631.116" y="1520.851" clip-path="url(#SVGID_4_)" fill="#8DC4FF" width="0.307" height="29.443"/>
					<rect x="2631.424" y="1520.851" clip-path="url(#SVGID_4_)" fill="#8CC3FF" width="0.302" height="29.443"/>
					<rect x="2631.726" y="1520.851" clip-path="url(#SVGID_4_)" fill="#8BC2FF" width="0.307" height="29.443"/>
					<rect x="2632.033" y="1520.851" clip-path="url(#SVGID_4_)" fill="#8AC2FF" width="0.302" height="29.443"/>
					<rect x="2632.335" y="1520.851" clip-path="url(#SVGID_4_)" fill="#89C1FF" width="0.307" height="29.443"/>
					<rect x="2632.642" y="1520.851" clip-path="url(#SVGID_4_)" fill="#88C0FF" width="0.302" height="29.443"/>
					<rect x="2632.944" y="1520.851" clip-path="url(#SVGID_4_)" fill="#87BFFF" width="0.307" height="29.443"/>
					<rect x="2633.251" y="1520.851" clip-path="url(#SVGID_4_)" fill="#86BFFF" width="0.302" height="29.443"/>
					<rect x="2633.554" y="1520.851" clip-path="url(#SVGID_4_)" fill="#85BEFF" width="0.302" height="29.443"/>
					<rect x="2633.856" y="1520.851" clip-path="url(#SVGID_4_)" fill="#84BDFF" width="0.307" height="29.443"/>
					<rect x="2634.163" y="1520.851" clip-path="url(#SVGID_4_)" fill="#83BCFF" width="0.307" height="29.443"/>
					<rect x="2634.47" y="1520.851" clip-path="url(#SVGID_4_)" fill="#82BBFF" width="0.302" height="29.443"/>
					<rect x="2634.772" y="1520.851" clip-path="url(#SVGID_4_)" fill="#81BBFF" width="0.302" height="29.443"/>
					<rect x="2635.074" y="1520.851" clip-path="url(#SVGID_4_)" fill="#80BAFF" width="0.307" height="29.443"/>
					<rect x="2635.381" y="1520.851" clip-path="url(#SVGID_4_)" fill="#7FB9FF" width="0.307" height="29.443"/>
					<rect x="2635.688" y="1520.851" clip-path="url(#SVGID_4_)" fill="#7EB8FF" width="0.302" height="29.443"/>
					<rect x="2635.99" y="1520.851" clip-path="url(#SVGID_4_)" fill="#7DB7FF" width="0.302" height="29.443"/>
					<rect x="2636.292" y="1520.851" clip-path="url(#SVGID_4_)" fill="#7CB7FF" width="0.307" height="29.443"/>
					<rect x="2636.6" y="1520.851" clip-path="url(#SVGID_4_)" fill="#7BB6FF" width="0.307" height="29.443"/>
					<rect x="2636.907" y="1520.851" clip-path="url(#SVGID_4_)" fill="#7AB5FF" width="0.302" height="29.443"/>
					<rect x="2637.209" y="1520.851" clip-path="url(#SVGID_4_)" fill="#79B4FF" width="0.302" height="29.443"/>
					<rect x="2637.511" y="1520.851" clip-path="url(#SVGID_4_)" fill="#78B4FF" width="0.307" height="29.443"/>
					<rect x="2637.818" y="1520.851" clip-path="url(#SVGID_4_)" fill="#77B3FF" width="0.302" height="29.443"/>
					<rect x="2638.12" y="1520.851" clip-path="url(#SVGID_4_)" fill="#76B2FF" width="0.307" height="29.443"/>
					<rect x="2638.427" y="1520.851" clip-path="url(#SVGID_4_)" fill="#74B1FF" width="0.302" height="29.443"/>
					<rect x="2638.73" y="1520.851" clip-path="url(#SVGID_4_)" fill="#73B0FF" width="0.307" height="29.443"/>
					<rect x="2639.037" y="1520.851" clip-path="url(#SVGID_4_)" fill="#72B0FF" width="0.302" height="29.443"/>
					<rect x="2639.339" y="1520.851" clip-path="url(#SVGID_4_)" fill="#71AFFF" width="0.307" height="29.443"/>
					<rect x="2639.646" y="1520.851" clip-path="url(#SVGID_4_)" fill="#70AEFF" width="0.302" height="29.443"/>
					<rect x="2639.948" y="1520.851" clip-path="url(#SVGID_4_)" fill="#6FADFF" width="0.307" height="29.443"/>
					<rect x="2640.255" y="1520.851" clip-path="url(#SVGID_4_)" fill="#6EADFF" width="0.302" height="29.443"/>
					<rect x="2640.557" y="1520.851" clip-path="url(#SVGID_4_)" fill="#6DACFF" width="0.307" height="29.443"/>
					<rect x="2640.865" y="1520.851" clip-path="url(#SVGID_4_)" fill="#6CABFF" width="0.302" height="29.443"/>
					<rect x="2641.167" y="1520.851" clip-path="url(#SVGID_4_)" fill="#6BAAFF" width="0.307" height="29.443"/>
					<rect x="2641.474" y="1520.851" clip-path="url(#SVGID_4_)" fill="#6AA9FF" width="0.302" height="29.443"/>
					<rect x="2641.776" y="1520.851" clip-path="url(#SVGID_4_)" fill="#69A9FF" width="0.307" height="29.443"/>
					<rect x="2642.083" y="1520.851" clip-path="url(#SVGID_4_)" fill="#68A8FF" width="0.302" height="29.443"/>
					<rect x="2642.385" y="1520.851" clip-path="url(#SVGID_4_)" fill="#67A7FF" width="0.307" height="29.443"/>
					<rect x="2642.692" y="1520.851" clip-path="url(#SVGID_4_)" fill="#66A6FF" width="0.302" height="29.443"/>
					<rect x="2642.994" y="1520.851" clip-path="url(#SVGID_4_)" fill="#65A6FF" width="0.307" height="29.443"/>
					<rect x="2643.301" y="1520.851" clip-path="url(#SVGID_4_)" fill="#64A5FF" width="0.302" height="29.443"/>
					<rect x="2643.603" y="1520.851" clip-path="url(#SVGID_4_)" fill="#63A4FF" width="0.307" height="29.443"/>
					<rect x="2643.91" y="1520.851" clip-path="url(#SVGID_4_)" fill="#62A3FF" width="0.302" height="29.443"/>
					<rect x="2644.213" y="1520.851" clip-path="url(#SVGID_4_)" fill="#61A2FF" width="0.307" height="29.443"/>
					<rect x="2644.52" y="1520.851" clip-path="url(#SVGID_4_)" fill="#60A2FF" width="0.302" height="29.443"/>
					<rect x="2644.822" y="1520.851" clip-path="url(#SVGID_4_)" fill="#5FA1FF" width="0.307" height="29.443"/>
					<rect x="2645.129" y="1520.851" clip-path="url(#SVGID_4_)" fill="#5EA0FF" width="0.302" height="29.443"/>
					<rect x="2645.431" y="1520.851" clip-path="url(#SVGID_4_)" fill="#5D9FFF" width="0.307" height="29.443"/>
					<rect x="2645.739" y="1520.851" clip-path="url(#SVGID_4_)" fill="#5C9EFF" width="0.302" height="29.443"/>
					<rect x="2646.04" y="1520.851" clip-path="url(#SVGID_4_)" fill="#5B9EFF" width="0.307" height="29.443"/>
					<rect x="2646.348" y="1520.851" clip-path="url(#SVGID_4_)" fill="#5A9DFF" width="0.302" height="29.443"/>
					<rect x="2646.65" y="1520.851" clip-path="url(#SVGID_4_)" fill="#599CFF" width="0.307" height="29.443"/>
					<rect x="2646.957" y="1520.851" clip-path="url(#SVGID_4_)" fill="#589BFF" width="0.302" height="29.443"/>
					<rect x="2647.259" y="1520.851" clip-path="url(#SVGID_4_)" fill="#579BFF" width="0.307" height="29.443"/>
					<rect x="2647.566" y="1520.851" clip-path="url(#SVGID_4_)" fill="#569AFF" width="0.302" height="29.443"/>
					<rect x="2647.868" y="1520.851" clip-path="url(#SVGID_4_)" fill="#5599FF" width="0.307" height="29.443"/>
					<path clip-path="url(#SVGID_4_)" fill="#5599FF" d="M2648.175,1550.294v-29.443V1550.294z"/>
				</g>
			</g>
		</g>
	</g>
	<g>
		<g>
			<g>
				<path fill="#DB9C7C" d="M2642.247,1527.757c0,0-7.941,4.357-7.393,5.724c0.543,1.362,1.566,1.536,1.566,1.536l-2.452,3.271
					c0,0-0.399,3.087,3.077,2.621c0,0-0.671,2.847,2.631,1.997c0,0,0.394,2.073,1.991,1.951c1.603-0.123,6.594-3.139,6.594-3.139
					s0.768-1.111-0.737-2.841c0,0,0.885-1.986-0.722-3.461c0,0,0.456-1.7-1.295-3.282c0,0,0.732-3.876-2.411-4.772
					C2643.097,1527.363,2642.579,1527.573,2642.247,1527.757z"/>
			</g>
		</g>
	</g>
	<g>
		<g>
			<g>
				<g>
					<defs>
						<polygon id="SVGID_5_" points="2619.013,1526.713 2646.998,1521.49 2642.441,1498.544 2614.677,1504.872 						"/>
					</defs>
					<clipPath id="SVGID_6_">
						<use xlink:href="#SVGID_5_"  overflow="visible"/>
					</clipPath>
					<path clip-path="url(#SVGID_6_)" fill="#96CBFF" d="M2614.677,1498.544v28.168V1498.544z"/>
					<rect x="2614.677" y="1498.544" clip-path="url(#SVGID_6_)" fill="#96CBFF" width="0.496" height="28.168"/>
					<rect x="2615.174" y="1498.544" clip-path="url(#SVGID_6_)" fill="#95CAFF" width="0.496" height="28.168"/>
					<rect x="2615.67" y="1498.544" clip-path="url(#SVGID_6_)" fill="#94C9FF" width="0.502" height="28.168"/>
					<rect x="2616.172" y="1498.544" clip-path="url(#SVGID_6_)" fill="#93C9FF" width="0.497" height="28.168"/>
					<rect x="2616.669" y="1498.544" clip-path="url(#SVGID_6_)" fill="#92C8FF" width="0.496" height="28.168"/>
					<rect x="2617.165" y="1498.544" clip-path="url(#SVGID_6_)" fill="#91C7FF" width="0.496" height="28.168"/>
					<rect x="2617.662" y="1498.544" clip-path="url(#SVGID_6_)" fill="#90C6FF" width="0.497" height="28.168"/>
					<rect x="2618.158" y="1498.544" clip-path="url(#SVGID_6_)" fill="#8FC6FF" width="0.497" height="28.168"/>
					<rect x="2618.655" y="1498.544" clip-path="url(#SVGID_6_)" fill="#8EC5FF" width="0.496" height="28.168"/>
					<rect x="2619.152" y="1498.544" clip-path="url(#SVGID_6_)" fill="#8DC4FF" width="0.496" height="28.168"/>
					<rect x="2619.648" y="1498.544" clip-path="url(#SVGID_6_)" fill="#8CC3FF" width="0.502" height="28.168"/>
					<rect x="2620.15" y="1498.544" clip-path="url(#SVGID_6_)" fill="#8BC2FF" width="0.496" height="28.168"/>
					<rect x="2620.646" y="1498.544" clip-path="url(#SVGID_6_)" fill="#8AC2FF" width="0.497" height="28.168"/>
					<rect x="2621.144" y="1498.544" clip-path="url(#SVGID_6_)" fill="#89C1FF" width="0.496" height="28.168"/>
					<rect x="2621.64" y="1498.544" clip-path="url(#SVGID_6_)" fill="#88C0FF" width="0.496" height="28.168"/>
					<rect x="2622.136" y="1498.544" clip-path="url(#SVGID_6_)" fill="#87BFFF" width="0.496" height="28.168"/>
					<rect x="2622.633" y="1498.544" clip-path="url(#SVGID_6_)" fill="#86BFFF" width="0.497" height="28.168"/>
					<rect x="2623.13" y="1498.544" clip-path="url(#SVGID_6_)" fill="#85BEFF" width="0.497" height="28.168"/>
					<rect x="2623.626" y="1498.544" clip-path="url(#SVGID_6_)" fill="#84BDFF" width="0.502" height="28.168"/>
					<rect x="2624.128" y="1498.544" clip-path="url(#SVGID_6_)" fill="#83BCFF" width="0.496" height="28.168"/>
					<rect x="2624.625" y="1498.544" clip-path="url(#SVGID_6_)" fill="#82BBFF" width="0.497" height="28.168"/>
					<rect x="2625.122" y="1498.544" clip-path="url(#SVGID_6_)" fill="#81BBFF" width="0.496" height="28.168"/>
					<rect x="2625.618" y="1498.544" clip-path="url(#SVGID_6_)" fill="#80BAFF" width="0.496" height="28.168"/>
					<rect x="2626.115" y="1498.544" clip-path="url(#SVGID_6_)" fill="#7FB9FF" width="0.496" height="28.168"/>
					<rect x="2626.611" y="1498.544" clip-path="url(#SVGID_6_)" fill="#7EB8FF" width="0.497" height="28.168"/>
					<rect x="2627.108" y="1498.544" clip-path="url(#SVGID_6_)" fill="#7DB7FF" width="0.496" height="28.168"/>
					<rect x="2627.604" y="1498.544" clip-path="url(#SVGID_6_)" fill="#7CB7FF" width="0.496" height="28.168"/>
					<rect x="2628.101" y="1498.544" clip-path="url(#SVGID_6_)" fill="#7BB6FF" width="0.496" height="28.168"/>
					<rect x="2628.597" y="1498.544" clip-path="url(#SVGID_6_)" fill="#7AB5FF" width="0.497" height="28.168"/>
					<rect x="2629.094" y="1498.544" clip-path="url(#SVGID_6_)" fill="#79B4FF" width="0.502" height="28.168"/>
					<rect x="2629.596" y="1498.544" clip-path="url(#SVGID_6_)" fill="#78B4FF" width="0.496" height="28.168"/>
					<rect x="2630.093" y="1498.544" clip-path="url(#SVGID_6_)" fill="#77B3FF" width="0.496" height="28.168"/>
					<rect x="2630.589" y="1498.544" clip-path="url(#SVGID_6_)" fill="#76B2FF" width="0.497" height="28.168"/>
					<rect x="2631.086" y="1498.544" clip-path="url(#SVGID_6_)" fill="#74B1FF" width="0.496" height="28.168"/>
					<rect x="2631.583" y="1498.544" clip-path="url(#SVGID_6_)" fill="#73B0FF" width="0.496" height="28.168"/>
					<rect x="2632.079" y="1498.544" clip-path="url(#SVGID_6_)" fill="#72B0FF" width="0.497" height="28.168"/>
					<rect x="2632.575" y="1498.544" clip-path="url(#SVGID_6_)" fill="#71AFFF" width="0.497" height="28.168"/>
					<rect x="2633.072" y="1498.544" clip-path="url(#SVGID_6_)" fill="#70AEFF" width="0.502" height="28.168"/>
					<rect x="2633.574" y="1498.544" clip-path="url(#SVGID_6_)" fill="#6FADFF" width="0.496" height="28.168"/>
					<rect x="2634.071" y="1498.544" clip-path="url(#SVGID_6_)" fill="#6EADFF" width="0.496" height="28.168"/>
					<rect x="2634.567" y="1498.544" clip-path="url(#SVGID_6_)" fill="#6DACFF" width="0.496" height="28.168"/>
					<rect x="2635.063" y="1498.544" clip-path="url(#SVGID_6_)" fill="#6CABFF" width="0.497" height="28.168"/>
					<rect x="2635.561" y="1498.544" clip-path="url(#SVGID_6_)" fill="#6BAAFF" width="0.496" height="28.168"/>
					<rect x="2636.057" y="1498.544" clip-path="url(#SVGID_6_)" fill="#6AA9FF" width="0.496" height="28.168"/>
					<rect x="2636.553" y="1498.544" clip-path="url(#SVGID_6_)" fill="#69A9FF" width="0.496" height="28.168"/>
					<rect x="2637.05" y="1498.544" clip-path="url(#SVGID_6_)" fill="#68A8FF" width="0.497" height="28.168"/>
					<rect x="2637.547" y="1498.544" clip-path="url(#SVGID_6_)" fill="#67A7FF" width="0.502" height="28.168"/>
					<rect x="2638.049" y="1498.544" clip-path="url(#SVGID_6_)" fill="#66A6FF" width="0.496" height="28.168"/>
					<rect x="2638.545" y="1498.544" clip-path="url(#SVGID_6_)" fill="#65A6FF" width="0.496" height="28.168"/>
					<rect x="2639.042" y="1498.544" clip-path="url(#SVGID_6_)" fill="#64A5FF" width="0.497" height="28.168"/>
					<rect x="2639.539" y="1498.544" clip-path="url(#SVGID_6_)" fill="#63A4FF" width="0.496" height="28.168"/>
					<rect x="2640.035" y="1498.544" clip-path="url(#SVGID_6_)" fill="#62A3FF" width="0.496" height="28.168"/>
					<rect x="2640.531" y="1498.544" clip-path="url(#SVGID_6_)" fill="#61A2FF" width="0.496" height="28.168"/>
					<rect x="2641.028" y="1498.544" clip-path="url(#SVGID_6_)" fill="#60A2FF" width="0.497" height="28.168"/>
					<rect x="2641.525" y="1498.544" clip-path="url(#SVGID_6_)" fill="#5FA1FF" width="0.502" height="28.168"/>
					<rect x="2642.027" y="1498.544" clip-path="url(#SVGID_6_)" fill="#5EA0FF" width="0.496" height="28.168"/>
					<rect x="2642.523" y="1498.544" clip-path="url(#SVGID_6_)" fill="#5D9FFF" width="0.496" height="28.168"/>
					<rect x="2643.02" y="1498.544" clip-path="url(#SVGID_6_)" fill="#5C9EFF" width="0.496" height="28.168"/>
					<rect x="2643.516" y="1498.544" clip-path="url(#SVGID_6_)" fill="#5B9EFF" width="0.497" height="28.168"/>
					<rect x="2644.013" y="1498.544" clip-path="url(#SVGID_6_)" fill="#5A9DFF" width="0.496" height="28.168"/>
					<rect x="2644.51" y="1498.544" clip-path="url(#SVGID_6_)" fill="#599CFF" width="0.496" height="28.168"/>
					<rect x="2645.006" y="1498.544" clip-path="url(#SVGID_6_)" fill="#589BFF" width="0.497" height="28.168"/>
					<rect x="2645.503" y="1498.544" clip-path="url(#SVGID_6_)" fill="#579BFF" width="0.496" height="28.168"/>
					<rect x="2646" y="1498.544" clip-path="url(#SVGID_6_)" fill="#569AFF" width="0.502" height="28.168"/>
					<rect x="2646.501" y="1498.544" clip-path="url(#SVGID_6_)" fill="#5599FF" width="0.497" height="28.168"/>
					<path clip-path="url(#SVGID_6_)" fill="#5599FF" d="M2646.998,1526.713v-28.168V1526.713z"/>
				</g>
			</g>
		</g>
	</g>
	<g>
		<g>
			<g>
				<path fill="#EEA886" d="M2628.362,1533.65c0,0,6.21-0.174,9.646,1.213c0.773,0.318,1.469,0.763,1.469,1.608
					c0,0.834-1.219,1.904-3.901,2.12c-2.688,0.215-6.062,1.715-6.062,1.715S2626.688,1539.717,2628.362,1533.65z"/>
			</g>
		</g>
	</g>
	<g>
		<g>
			<g>
				<path fill="#293B57" d="M2567.146,1754.923c-0.476,2.478-0.958,5.002-1.449,7.505l-15.892-42.058
					C2551.904,1724.614,2567.146,1754.923,2567.146,1754.923z"/>
			</g>
		</g>
	</g>
</g>
<g>
	<path fill="#FFD255" d="M2199.494,1253.808h-250.721c-18.523,0-33.539-15.011-33.539-33.534V824.209
		c0-18.523,15.016-33.541,33.539-33.541h250.721c18.524,0,33.539,15.018,33.539,33.541v396.065
		C2233.033,1238.797,2218.018,1253.808,2199.494,1253.808z"/>
</g>
<g>
	<g>
		<g>
			<g>
				<g>
					<rect x="2182.804" y="1089.768" fill="#E3F2FF" width="16.47" height="125.315"/>
				</g>
			</g>
		</g>
	</g>
	<g>
		<g>
			<g>
				<g>
					<rect x="2150.274" y="1103.811" fill="#E3F2FF" width="16.465" height="111.271"/>
				</g>
			</g>
		</g>
	</g>
	<g>
		<g>
			<g>
				<g>
					<rect x="2114.927" y="1122.078" fill="#E3F2FF" width="16.465" height="93.004"/>
				</g>
			</g>
		</g>
	</g>
	<g>
		<g>
			<g>
				<g>
					<rect x="2078.629" y="1145.112" fill="#E3F2FF" width="16.465" height="69.97"/>
				</g>
			</g>
		</g>
	</g>
	<g>
		<g>
			<g>
				<polygon fill="#E3F2FF" points="1980.377,1130.264 1976.809,1128.995 2007.859,1041.883 2075.194,1024.077 2099.394,928.467 
					2151.359,905.533 2162.996,831.19 2166.739,831.776 2154.779,908.162 2102.615,931.188 2078.322,1027.164 2010.757,1045.042 
									"/>
			</g>
		</g>
	</g>
	<g>
		<g>
			<path fill="#FFC955" d="M2084.583,1019.224c3.532,4.321,2.893,10.685-1.429,14.222c-4.321,3.527-10.689,2.887-14.222-1.434
				c-3.533-4.316-2.888-10.685,1.433-14.217C2074.681,1014.268,2081.051,1014.902,2084.583,1019.224z"/>
		</g>
	</g>
	<g>
		<g>
			<path fill="#E3F2FF" d="M2084.353,1034.91c-5.125,4.188-12.697,3.43-16.885-1.7c-4.188-5.119-3.426-12.696,1.694-16.885
				c5.125-4.182,12.697-3.425,16.885,1.7C2090.235,1023.145,2089.478,1030.722,2084.353,1034.91z M2071.564,1019.265
				c-3.507,2.867-4.03,8.043-1.162,11.55c2.867,3.507,8.048,4.029,11.55,1.162c3.507-2.867,4.03-8.048,1.162-11.55
				C2080.252,1016.92,2075.066,1016.397,2071.564,1019.265z"/>
		</g>
	</g>
	<g>
		<g>
			<path fill="#FFC955" d="M2109.101,924.01c3.532,4.321,2.892,10.688-1.428,14.218c-4.321,3.532-10.69,2.892-14.217-1.429
				c-3.532-4.321-2.893-10.688,1.428-14.217C2099.205,919.049,2105.568,919.689,2109.101,924.01z"/>
		</g>
	</g>
	<g>
		<g>
			<path fill="#E3F2FF" d="M2108.871,939.697c-5.125,4.186-12.697,3.426-16.885-1.697c-4.188-5.125-3.425-12.7,1.695-16.887
				c5.125-4.185,12.697-3.425,16.885,1.697C2114.753,927.934,2113.996,935.509,2108.871,939.697z M2096.082,924.049
				c-3.507,2.865-4.029,8.048-1.162,11.552c2.867,3.504,8.048,4.024,11.555,1.16c3.502-2.865,4.024-8.046,1.157-11.553
				C2104.77,921.704,2099.583,921.181,2096.082,924.049z"/>
		</g>
	</g>
	<g>
		<g>
			<circle fill="#FFC955" cx="2152.439" cy="906.817" r="10.105"/>
		</g>
	</g>
	<g>
		<g>
			<path fill="#E3F2FF" d="M2160.032,916.108c-5.12,4.188-12.697,3.425-16.885-1.697c-4.183-5.122-3.425-12.697,1.699-16.885
				c5.125-4.188,12.697-3.425,16.885,1.697C2165.92,904.346,2165.156,911.92,2160.032,916.108z M2147.243,900.46
				c-3.502,2.864-4.024,8.048-1.157,11.552c2.862,3.507,8.043,4.026,11.55,1.162c3.507-2.865,4.024-8.048,1.162-11.553
				C2155.931,898.115,2150.75,897.595,2147.243,900.46z"/>
		</g>
	</g>
	<g>
		<g>
			<path fill="#FFC955" d="M2017.51,1037.926c3.532,4.321,2.892,10.684-1.429,14.217c-4.326,3.532-10.69,2.892-14.223-1.429
				c-3.532-4.321-2.893-10.69,1.429-14.217C2007.609,1032.965,2013.977,1033.604,2017.51,1037.926z"/>
		</g>
	</g>
	<g>
		<g>
			<path fill="#E3F2FF" d="M2017.28,1053.612c-5.125,4.188-12.697,3.425-16.885-1.7c-4.188-5.119-3.425-12.697,1.695-16.885
				c5.125-4.182,12.696-3.425,16.885,1.695C2023.162,1041.853,2022.399,1049.424,2017.28,1053.612z M2004.491,1037.967
				c-3.507,2.862-4.029,8.043-1.162,11.55c2.862,3.502,8.048,4.024,11.55,1.162c3.507-2.867,4.029-8.048,1.162-11.555
				C2013.179,1035.617,2007.992,1035.1,2004.491,1037.967z"/>
		</g>
	</g>
	<g>
		<g>
			<g>
				<g>
					<path fill="#EBEBEB" d="M2042.909,943.089h-86.661c-4.004,0-7.249-3.248-7.249-7.252v-6.454c0-4.006,3.246-7.252,7.249-7.252
						h86.661c4.004,0,7.255,3.246,7.255,7.252v6.454C2050.164,939.84,2046.913,943.089,2042.909,943.089z"/>
				</g>
			</g>
		</g>
	</g>
	<g>
		<g>
			<g>
				<g>
					<path fill="#EBEBEB" d="M2042.909,906.449h-86.661c-4.004,0-7.249-3.246-7.249-7.252v-6.451c0-4.006,3.246-7.255,7.249-7.255
						h86.661c4.004,0,7.255,3.248,7.255,7.255v6.451C2050.164,903.204,2046.913,906.449,2042.909,906.449z"/>
				</g>
			</g>
		</g>
	</g>
</g>
<g>
	<g>
		<g>
			<path fill="#5C544D" d="M2439.941,1353.375l1.229-11.473c0,0-16.178-0.118-18.073,1.244c0,0,1.377,9.635,1.546,11.079
				C2424.817,1355.674,2439.941,1353.375,2439.941,1353.375z"/>
		</g>
	</g>
	<g>
		<g>
			<path fill="#3C4145" d="M2412.443,1377.361c19.25-0.164,28.532,1.152,30.595-1.971c2.063-3.123-2.984-23.044-2.984-23.044
				s-4.562,1.659-15.569,0.655c0,0-4.792,5.811-9.426,8.34c-4.638,2.529-11.924,3.532-14.663,6.149
				C2398.42,1369.385,2393.193,1377.525,2412.443,1377.361z"/>
		</g>
	</g>
	<g>
		<g>
			<path fill="#5C544D" d="M2331.567,1353.375l1.224-11.473c0,0-16.178-0.118-18.067,1.244c0,0,1.373,9.635,1.547,11.079
				C2316.438,1355.674,2331.567,1353.375,2331.567,1353.375z"/>
		</g>
	</g>
	<g>
		<g>
			<path fill="#3C4145" d="M2304.064,1377.361c19.245-0.506,28.532,1.152,30.595-1.971c2.063-3.123-2.985-23.044-2.985-23.044
				s-4.295,1.771-15.563,0.655c0,0-4.798,5.811-9.43,8.34c-4.633,2.529-21.692,4.608-24.431,7.229
				C2280.268,1370.46,2276.981,1378.073,2304.064,1377.361z"/>
		</g>
	</g>
	<g>
		<g>
			<path fill="#DBD8E3" d="M2417.726,1094.365c0,0,8.048,23.909,6.988,44.521c-1.06,20.602,4.163,43.154,6.297,64.682
				c2.381,23.996,12.124,80.809,12.477,93.644c0.353,12.84-1.516,53.828-1.516,53.828l-19.495,0.456
				c0,0-16.378-99.327-20.617-109.459c-4.239-10.136-25.276-82.391-25.982-90.495
				C2375.171,1143.432,2417.726,1094.365,2417.726,1094.365z"/>
		</g>
	</g>
	<g>
		<g>
			<path fill="#DBD8E3" d="M2335.755,1098.62c0,0-10.71,56.48-12.123,69.09c-1.413,12.615-2.355,61.037-3.062,68.916
				c-0.707,7.884-4.715,103.157-8.483,114.871h24.928c0,0,19.132-69.265,19.132-102.031s14.786-71.235,24.329-92.856
				s31.384-22.133,37.251-62.245C2417.726,1094.365,2343.701,1085.897,2335.755,1098.62z"/>
		</g>
	</g>
	<g>
		<g>
			<path fill="#EEA886" d="M2386.414,905.597c0,0-19.649-7.339-28.706,7.616c-9.062,14.957-8.187,44.902,1.715,48.583
				c9.907,3.683,24.784,1.758,29.853-7.6c5.074-9.359,9.651-22.891,9.431-31.932C2398.487,913.22,2391.575,908.206,2386.414,905.597
				z"/>
		</g>
	</g>
	<g>
		<g>
			<path fill="#EEA886" d="M2362.72,960.877c0,0,0.799,5.153-0.517,7.69c-1.311,2.537,24.718,2.603,24.718,2.603
				s2.11-13.801,6.118-25.461C2397.043,934.05,2362.72,960.877,2362.72,960.877z"/>
		</g>
	</g>
	<g>
		<g>
			<path fill="#FCCCA2" d="M2393.039,945.71c0,0-1.797,2.962-9.128,1.812c-7.336-1.149-16.281-10.905-19.342-11.975
				c-3.062-1.073-3.087-2.869-3.087-2.869l-1.92,2.798l-3.251,0.207c0,0,2.964-8.726-1.51-12.287
				c-4.474-3.559,4.643-28.245,28.163-20.026c0,0,16.854,3.325,17.873,13.57C2401.922,927.845,2397.079,940.593,2393.039,945.71z"/>
		</g>
	</g>
	<g>
		<g>
			<path fill="#E2D2CA" d="M2360.662,968.26c0,0,0.082-4.846,2.278-5.312c2.197-0.464,24.252-2.586,26.95-1.526v5.647
				C2389.89,967.069,2384.694,970.269,2360.662,968.26z"/>
		</g>
	</g>
	<g>
		<g>
			<path fill="#EEA886" d="M2361.963,928.94c0.415-1.723,4.792-6.645,6.471-1.375c1.679,5.273-2.534,12.364-4.884,11.755
				C2361.2,938.714,2360.923,933.31,2361.963,928.94z"/>
		</g>
	</g>
	<g>
		<g>
			<path fill="#63A4FF" d="M2360.662,968.26c0,0-12.093,4.347-26.1,10.301c0,0-16.111,6.016-17.853,23.807
				c-0.926,9.443-10.981,59.565-12.87,63.809c-1.884,4.239-24.18,72.372-24.969,73.785c-0.783,1.418,18.2,9.298,19.455,8.668
				c1.259-0.63,21.595-62.143,23.632-66.7c0,0,11.709-36.882,12.021-42.381c0,0,0.338,15.672,0.962,20.069
				c0.63,4.398-10.408,89.805-10.091,92.16c0.313,2.36,50.158,5.351,70.109,3.149c19.952-2.196,36.048-6.783,36.048-6.783
				s-15.697-67.401-15.216-74.875c1.05-16.286,6.491-46.948,6.491-46.948l16.265,30.662l-20.822,53.573l4.767,16.276
				c0,0,38.694-58.467,39.949-63.807c1.259-5.34-1.894-12.144-3.937-16.542c-2.042-4.398-15.456-37.87-18.6-42.586
				c-3.139-4.713-8.448-23.584-21.278-28.836c-10.731-4.393-28.737-7.99-28.737-7.99L2360.662,968.26z"/>
		</g>
	</g>
	<g>
		<g>
			<polygon fill="#F25F54" points="2334.055,1170.838 2242.904,1147.467 2259.211,1083.88 2350.362,1107.246 			"/>
		</g>
	</g>
	<g>
		<g>
			<path fill="#C98462" d="M2270.935,1153.866c0,0-2.606,4.208-3.558,5.411c-0.947,1.198,2.34,1.956,3.747,0.737
				C2272.537,1158.802,2270.935,1153.866,2270.935,1153.866z"/>
		</g>
	</g>
	<g>
		<g>
			<path fill="#DE9D7D" d="M2289.913,1168.242c0,0,1.542-1.603,1.874-2.632c0,0,0.456-1.925,0.865-3.266
				c0.133-0.43,0.256-0.799,0.358-1.024c0.435-0.963,1.684-2.939,2.084-5.54c0.404-2.596,1.541-14.258,1.541-14.258l-7.065-1.782
				l-5.668-1.198c0,0-12.257,12.226-12.912,14.607c-0.061,0.23-0.117,0.461-0.148,0.686c-0.358,2.069,0.241,3.753,0.174,4.864
				c-0.021,0.404,0.041,4.459,0.983,5.217c1.311,1.054,2.647,1.254,3.748,0.901c0,0,2.652,1.95,4.869,1.833
				c0,0,2.396,1.879,5.109,0.947C2285.725,1167.597,2288.367,1169.235,2289.913,1168.242z"/>
		</g>
	</g>
	<g>
		<g>
			<path fill="#63A4FF" d="M2317.478,1094.488c0,0-16.178,48.995-19.153,54.141c0,0-11.862-2.493-19.455-8.668l17.765-52.871
				L2317.478,1094.488z"/>
		</g>
	</g>
</g>
<g>
	<path fill="#252E3B" d="M3270.151,1170.884c0,0,60.053-176.112-54.545-230.709c-114.599-54.599-211.899,24.324-230.279,67.03
		c-18.38,42.706-13.516,120.361,2.161,174.512c15.676,54.146,13.393,136.578-20.658,164.147
		c-34.056,27.57-76.283,73.355-74.194,166.559c1.3,57.822,227.535-147.908,227.535-147.908L3270.151,1170.884z"/>
</g>
<g>
	<path fill="#FFD255" d="M3109.132,1380.376c0,0-94.192,20.878-131.581,42.729c-37.384,21.846-120.41,122.35-120.41,165.566
		c0,43.215,363.088,83.584,363.088,83.584l68.819,251.249c0,0,183.52-44.781,205.366-81.925
		c21.851-37.144-69.699-303.337-85.371-357.211c-15.983-54.955-81.761-93.276-158.229-103.991
		C3174.346,1369.666,3109.132,1380.376,3109.132,1380.376z"/>
</g>
<g>
	<path fill="#EEA886" d="M3244.281,1379.511c0,0-2.115,114.481-92.912,117.881c-90.792,3.394-71.891-109.807-71.891-109.807
		S3145.886,1360.681,3244.281,1379.511z"/>
</g>
<g>
	<path fill="#252E3B" d="M3282.694,1034.05c0,0,32.116,184.13-59.347,317.139C3128.622,1488.939,3282.694,1034.05,3282.694,1034.05z
		"/>
</g>
<g>
	<path fill="#EEA886" d="M3224.796,1298.569c0,0-6.313,54.761,4.229,88.817c10.542,34.056-138.825,34.998-138.743,6.993
		c0.097-31.808,15.282-58.385,0.978-112.91C3076.954,1226.94,3224.796,1298.569,3224.796,1298.569z"/>
</g>
<g>
	<path fill="#A77860" d="M3108.932,1305.552c0,0,47.163,49.133,107.467,5.125c0,0-4.981,31.405-48.355,35.459
		C3124.67,1350.191,3108.932,1305.552,3108.932,1305.552z"/>
</g>
<g>
	<path fill="#EEA886" d="M3167.992,970.208c0,0,119.187,35.269,102.159,200.676c-17.028,165.402-94.863,156.888-102.159,158.106
		c-7.3,1.213-99.731,7.296-128.919-193.376C3009.886,934.938,3167.992,970.208,3167.992,970.208z"/>
</g>
<g>
	<path fill="#252E3B" d="M3137.223,1043.962c0,0,64.764,103.024,132.928,126.922c0,0,37.22-172.869-116.504-209.088
		c-153.724-36.217-129.646,174.602-118.173,230.821C3035.475,1192.617,3067.493,1109.908,3137.223,1043.962z"/>
</g>
<g>
	<path fill="#88C0FF" d="M3050.358,1028.444c0,0,34.092-66.021,91.658-68.97c57.565-2.946,91.801,46.991,91.801,46.991
		s-22.475-56.23-91.729-56.23C3072.833,950.236,3050.358,1028.444,3050.358,1028.444z"/>
</g>
<g>
	<linearGradient id="SVGID_7_" gradientUnits="userSpaceOnUse" x1="2752.7246" y1="1735.5834" x2="3325.1362" y2="1735.5834">
		<stop  offset="0" style="stop-color:#271887"/>
		<stop  offset="1" style="stop-color:#02BFE1"/>
	</linearGradient>
	<polygon fill="url(#SVGID_7_)" points="3284.717,1547.693 3325.136,1923.473 2793.145,1923.473 2752.725,1547.693 	"/>
</g>
<g>
	<path fill="#5FA0FF" d="M3312.332,1910.577h-536.656l-40.917-380.418h536.656L3312.332,1910.577z M2779.844,1905.943h527.323
		l-39.918-371.147H2739.92L2779.844,1905.943z"/>
</g>
<g>
	<path fill="#5189DB" d="M3071.937,1729.509c4.776,23.377-6.129,45.35-24.36,49.078c-18.226,3.722-36.877-12.206-41.654-35.582
		c-4.777-23.382,6.128-45.35,24.354-49.078C3048.509,1690.205,3067.156,1706.132,3071.937,1729.509z"/>
</g>
<g>
	<rect x="3274.846" y="1885.7" fill="#5FA0FF" width="99.271" height="37.773"/>
</g>
<g>
	<path fill="#64A4FF" d="M2966.179,795.189c-45.13,0-81.843-36.716-81.843-81.846c0-45.128,36.713-81.844,81.843-81.844
		c45.13,0,81.843,36.716,81.843,81.844C3048.023,758.473,3011.31,795.189,2966.179,795.189z M2966.179,636.138
		c-42.57,0-77.205,34.635-77.205,77.205c0,42.573,34.635,77.207,77.205,77.207c42.57,0,77.205-34.635,77.205-77.207
		C3043.385,670.772,3008.75,636.138,2966.179,636.138z"/>
</g>
<g>
	<path fill="#C2BEBC" d="M3323.029,376.231c-0.144-0.102-14.369-10.421-39.843-25.89l5.083-5.583
		c25.806,15.672,40.282,26.175,40.426,26.279L3323.029,376.231z M3241.512,326.373c-14.006-7.639-28.482-15.139-43.033-22.289
		l4.392-5.962c14.665,7.206,29.253,14.765,43.372,22.463L3241.512,326.373z M3154.23,283.468
		c-14.965-6.597-30.237-12.943-45.384-18.871l3.678-6.277c15.272,5.975,30.663,12.377,45.747,19.025L3154.23,283.468z
		 M3062.392,247.574c-15.735-5.376-31.703-10.434-47.451-15.031l2.864-6.553c15.892,4.639,31.997,9.743,47.871,15.167
		L3062.392,247.574z M2415.251,239.054l-0.188-6.955c16.512-0.297,33.414-1.595,50.24-3.853l1.378,6.866
		C2449.467,237.424,2432.164,238.75,2415.251,239.054z M2363.713,236.891c-16.644-1.7-33.683-4.439-50.641-8.135l2.193-6.723
		c16.588,3.615,33.245,6.292,49.501,7.953L2363.713,236.891z M2516.952,225.656l-2.4-6.676c5.464-1.313,11.042-2.749,16.569-4.265
		c10.647-2.918,21.501-5.655,32.267-8.13l2.313,6.696c-10.635,2.447-21.357,5.148-31.872,8.03
		C2528.201,222.856,2522.524,224.318,2516.952,225.656z M2966.574,219.656c-16.35-3.939-32.894-7.495-49.181-10.57l1.918-6.779
		c16.449,3.105,33.163,6.697,49.669,10.675L2966.574,219.656z M2264.18,215.573c-14.997-4.779-30.375-10.306-47.019-16.893
		l3.716-6.264c16.438,6.51,31.616,11.962,46.399,16.672L2264.18,215.573z M2615.032,203.575l-1.674-6.822
		c16.701-2.742,33.778-4.995,50.742-6.692l1.034,6.904C2648.383,198.645,2631.526,200.867,2615.032,203.575z M2867.536,201.013
		c-16.782-2.261-33.728-4.078-50.372-5.396l0.821-6.927c16.833,1.334,33.972,3.172,50.936,5.46L2867.536,201.013z M1370.833,194.388
		l-4.637-5.837c14.589-7.731,29.203-15.2,43.422-22.206l4.4,5.959C1399.873,179.269,1385.34,186.701,1370.833,194.388z
		 M2715.713,193.477l-0.395-6.95c16.945-0.65,34.185-0.796,51.38-0.423l-0.219,6.955
		C2749.484,192.691,2732.457,192.834,2715.713,193.477z M2171.602,179.433c-14.438-6.41-28.77-13.002-44.663-20.331l4.187-6.059
		c15.861,7.313,30.161,13.89,44.543,20.276L2171.602,179.433z M1458.109,151.485l-4.124-6.09
		c15.266-6.886,30.538-13.439,45.396-19.468l3.791,6.231C1488.421,138.143,1473.261,144.645,1458.109,151.485z M2082.42,138.755
		c-16.676-7.47-31.421-13.808-45.07-19.378l3.804-6.226c13.749,5.608,28.589,11.99,45.358,19.503L2082.42,138.755z
		 M1549.276,114.602l-3.396-6.381c16.043-5.696,32.073-10.941,47.652-15.592l2.927,6.533
		C1581.036,103.766,1565.162,108.961,1549.276,114.602z M1991.241,101.939c-16.319-5.637-31.842-10.403-47.458-14.573l2.645-6.612
		c15.848,4.229,31.59,9.064,48.134,14.778L1991.241,101.939z M1644.712,86.255l-2.356-6.686c16.788-3.955,33.59-7.329,49.927-10.024
		l1.686,6.82C1677.856,79.023,1661.287,82.351,1644.712,86.255z M1894.959,76.474c-16.525-2.954-33.314-5.186-49.895-6.632
		l0.902-6.92c16.895,1.475,33.991,3.745,50.816,6.756L1894.959,76.474z M1744.045,70.02l-0.909-6.919
		c17.246-1.508,34.542-2.294,51.424-2.337l0.026,6.958C1777.998,67.763,1760.996,68.535,1744.045,70.02z"/>
</g>
<g>
	<g>
		<g>
			<g>
				<polygon fill="#D6D6D6" points="2465.44,1670.517 2312.159,1642.373 2355.418,1624.376 				"/>
			</g>
		</g>
	</g>
	<g>
		<g>
			<g>
				<polygon fill="#E8E8E8" points="2465.44,1670.517 2404.109,1620.286 2370.565,1630.726 				"/>
			</g>
		</g>
	</g>
	<g>
		<g>
			<g>
				<polygon fill="#C2C2C2" points="2347.409,1648.841 2350.36,1665.947 2465.44,1670.517 				"/>
			</g>
		</g>
	</g>
</g>
<g>
	<g>
		<g>
			<g>
				<polygon fill="#D6D6D6" points="1184.405,310.07 1373.101,223.852 1308.241,220.357 				"/>
			</g>
		</g>
	</g>
	<g>
		<g>
			<g>
				<polygon fill="#E8E8E8" points="1184.405,310.07 1242.472,233.766 1291.195,232.706 				"/>
			</g>
		</g>
	</g>
	<g>
		<g>
			<g>
				<polygon fill="#C2C2C2" points="1329.704,243.68 1333.483,263.107 1184.405,310.07 				"/>
			</g>
		</g>
	</g>
</g>
<g>
	<g>
		<rect x="1030.719" y="1274.636" fill="#D1E3FF" width="195.109" height="502.061"/>
		<polygon fill="#EEF9FF" points="1188.77,1776.697 1225.828,1776.697 1225.828,1671.287 1149.915,1671.287 		"/>
		<rect x="301.516" y="1274.636" fill="#D1E3FF" width="195.109" height="502.061"/>
		<rect x="464.283" y="1274.636" fill="#EEF9FF" width="761.545" height="437.377"/>
		<rect x="857.493" y="1306.43" fill="#D1E3FF" width="339.587" height="273.807"/>
		<rect x="493.032" y="1306.43" fill="#D1E3FF" width="339.587" height="273.807"/>
		<rect x="857.494" y="1651.127" fill="#D1E3FF" width="339.587" height="20.16"/>
		<rect x="493.033" y="1651.127" fill="#D1E3FF" width="339.587" height="20.16"/>
		<rect x="857.494" y="1612.202" fill="#D1E3FF" width="339.587" height="20.16"/>
		<rect x="493.033" y="1612.202" fill="#D1E3FF" width="339.587" height="20.16"/>
		<path fill="#EEF9FF" d="M696.417,1335.916h-67.184c-29.182,0-57.081-11.999-77.152-33.183l0,0h221.487l0,0
			C753.498,1323.917,725.599,1335.916,696.417,1335.916z"/>
		<path fill="#EEF9FF" d="M1064.311,1335.916h-67.184c-29.182,0-57.081-11.999-77.152-33.183l0,0h221.487l0,0
			C1121.392,1323.917,1093.493,1335.916,1064.311,1335.916z"/>
		<polygon fill="#EEF9FF" points="501.342,1776.697 464.283,1776.697 464.283,1671.287 540.197,1671.287 		"/>
	</g>
	<g>
		<g>
			<rect x="198.148" y="506.08" fill="#D1E3FF" width="1023.465" height="584.603"/>
			<path fill="#D1E3FF" d="M1278.229,488.038H163.951c-2.897,0-5.245,2.348-5.245,5.245l0,0c0,2.896,2.348,5.245,5.245,5.245
				h1114.278c2.896,0,5.245-2.348,5.245-5.245l0,0C1283.473,490.386,1281.125,488.038,1278.229,488.038z"/>
			<rect x="208.623" y="506.08" fill="#E3EEFF" width="1035.407" height="584.603"/>
			<rect x="198.148" y="1090.683" fill="#D1E3FF" width="1023.465" height="41.656"/>
			<rect x="245.968" y="1090.683" fill="#E3EEFF" width="1035.407" height="41.656"/>
			<rect x="240.006" y="537.463" fill="#F5FCFF" width="972.641" height="521.837"/>
			<polygon fill="#FFFFFF" points="721.35,1059.3 905.547,537.463 992.499,537.463 808.302,1059.3 			"/>
			<polygon fill="#FFFFFF" points="826.981,1059.3 1011.178,537.463 1045.076,537.463 860.88,1059.3 			"/>
			<rect x="1208.662" y="537.463" fill="#D1E3FF" width="3.985" height="521.837"/>
		</g>
		<g>
			<rect x="186.359" y="478.653" fill="#EBF3FF" width="54.012" height="503.546"/>
			<rect x="219.331" y="478.653" fill="#D1E3FF" width="42.08" height="503.546"/>
			<rect x="240.371" y="478.653" fill="#EBF3FF" width="54.012" height="503.546"/>
			<rect x="273.343" y="478.653" fill="#D1E3FF" width="42.08" height="503.546"/>
			<rect x="294.384" y="478.653" fill="#EBF3FF" width="54.013" height="503.546"/>
		</g>
		<g>
			<rect x="1161.421" y="478.653" fill="#EBF3FF" width="31.125" height="503.546"/>
			<rect x="1180.421" y="478.653" fill="#D1E3FF" width="24.249" height="503.546"/>
			<rect x="1192.546" y="478.653" fill="#EBF3FF" width="31.126" height="503.546"/>
			<rect x="1211.546" y="478.653" fill="#D1E3FF" width="24.25" height="503.546"/>
			<rect x="1223.671" y="478.653" fill="#EBF3FF" width="31.126" height="503.546"/>
		</g>
	</g>
	<g>
		<rect x="1468.844" y="697.084" fill="#E3EEFF" width="69.055" height="188.403"/>
		<g>
			<g>
				<polygon fill="#F3F8FF" points="1442.577,916.899 1426.626,960.465 1442.577,960.465 1540.352,916.899 				"/>
				<polygon fill="#D1E3FF" points="1426.626,916.899 1426.626,960.465 1524.402,916.899 				"/>
			</g>
			<g>
				<polygon fill="#F3F8FF" points="1609.802,916.899 1593.852,960.465 1609.802,960.465 1707.578,916.899 				"/>
				<polygon fill="#D1E3FF" points="1593.852,916.899 1593.852,960.465 1691.627,916.899 				"/>
			</g>
			<g>
				<rect x="1354.849" y="885.761" fill="#D1E3FF" width="106.337" height="33.183"/>
				<rect x="1461.186" y="885.761" fill="#F3F8FF" width="303.417" height="33.183"/>
			</g>
		</g>
		<g>
			<polygon fill="#D1E3FF" points="1652.908,885.487 1484.849,885.487 1464.07,657.184 1632.128,657.184 			"/>
			<polygon fill="#EEF9FF" points="1661.613,885.487 1493.555,885.487 1472.775,657.184 1640.834,657.184 			"/>
			<polygon fill="#FFFFFF" points="1516.526,860.214 1500.347,682.456 1617.858,682.456 1634.037,860.214 			"/>
		</g>
	</g>
	<g>
		<path fill="#D1E3FF" d="M565.088,1201.369c0,0-72.452-124.897,28.065-224.319c0,0,26.235,17.099,25.833,40.086
			c-0.403,22.988-28.095,28.804-22.145,47.987c5.951,19.184,32.097,38.005,14.936,53.864s2.766,29.976,1.604,49.406
			C612.22,1187.824,565.088,1201.369,565.088,1201.369z"/>
		<path fill="#D1E3FF" d="M570.586,1212.786c0,0,29.372-141.372-97.367-204.026c0,0-19.505,24.499-11.874,46.187
			c7.631,21.688,35.744,18.475,36.146,38.556c0.402,20.081-18.475,46.187,2.811,55.826c21.286,9.639,6.828,29.319,14.057,47.391
			C521.587,1214.794,570.586,1212.786,570.586,1212.786z"/>
		<path fill="#EEF9FF" d="M459.573,1181.459c0,0,2.41,93.177,94.784,93.177c92.374,0,94.784-93.177,94.784-93.177H459.573z"/>
	</g>
	<g>
		<path fill="#EBF3FF" d="M1549.516,1776.697h9.411l26.876-132.477l4.723-23.207l29.322-144.369h112.431l60.921,300.054h9.412
			l-62.077-305.591c-0.442-2.141-2.31-3.67-4.519-3.67h-119.94c-2.175,0-4.077,1.529-4.485,3.67l-25.755,126.802l-4.723,23.173
			L1549.516,1776.697z"/>
		<path fill="#EBF3FF" d="M1369.028,1776.697h9.412l60.955-300.054h112.397l29.322,144.438l4.689,23.139l26.91,132.477h9.412
			l-31.599-155.684l-4.689-23.104l-25.755-126.802c-0.442-2.141-2.344-3.67-4.519-3.67h-119.94c-2.209,0-4.077,1.529-4.519,3.67
			L1369.028,1776.697z"/>
		<path fill="#E3EEFF" d="M1646.145,1472.031h-206.571c-39.438,0-71.631-31.545-72.434-70.974l-7.701-313.946
			c-0.602-29.559,23.195-53.845,52.76-53.845h129.495c26.832,0,49.392,20.134,52.431,46.792L1646.145,1472.031z"/>
		<path fill="#E3EEFF" d="M1735.636,1432.449h-202.153v39.582h220.13c5.698,0,10.317-4.619,10.317-10.317v-0.971
			C1763.929,1445.117,1751.262,1432.449,1735.636,1432.449z"/>
	</g>
</g>
<ellipse fill="#F0F6FF" cx="946.552" cy="1916.113" rx="798.807" ry="46.652"/>
<path opacity="0.2" fill="#318FFF" d="M685.156,729.751c0.003-0.055,0.016-0.108,0.016-0.164c0-0.045-0.012-0.088-0.013-0.132
	c-0.019-7.601-0.611-15.251-1.852-22.896c-6.139-37.843-26.698-71.064-57.882-93.541c-24.539-17.688-53.315-26.985-82.894-27.171
	c-0.334-0.007-0.667-0.013-1-0.014c-0.043-0.001-0.083-0.012-0.126-0.012c-0.045,0-0.086,0.011-0.131,0.013
	c-7.602,0.019-15.251,0.611-22.895,1.852c-37.845,6.142-71.068,26.698-93.545,57.885c-2.164,3.003-4.164,6.087-6.077,9.211
	c-0.157,0.2-0.296,0.414-0.4,0.651c-13.628,22.515-20.712,47.945-20.701,73.993c-0.003,0.055-0.017,0.108-0.017,0.164
	c0,0.045,0.012,0.087,0.014,0.132c0.019,7.601,0.611,15.251,1.851,22.896c6.14,37.843,26.698,71.064,57.882,93.541
	c24.789,17.867,53.892,27.216,83.795,27.216c7.717,0,15.49-0.623,23.253-1.883c37.845-6.142,71.065-26.698,93.543-57.885
	c2.164-3.003,4.164-6.087,6.077-9.211c0.157-0.2,0.296-0.414,0.4-0.651C678.082,781.229,685.167,755.8,685.156,729.751z
	 M403.859,726.501c0.493-23.462,6.99-46.327,19.081-66.741h44.954c-6.549,20.071-10.338,42.888-10.647,66.741H403.859z
	 M474.195,659.76h64.123v66.741h-74.917C463.687,702.51,467.534,679.628,474.195,659.76z M544.492,653.586V592.12
	c8.492,0.604,16.911,3.679,24.889,9.157c15.266,10.48,28.079,29.017,36.918,52.31H544.492z M608.501,659.76
	c4.893,14.486,8.309,30.579,9.9,47.581c0.602,6.43,0.92,12.825,1.007,19.159h-74.916V659.76H608.501z M529.249,593.704
	c3.01-0.847,6.039-1.358,9.069-1.57v61.453H476.4C488.064,622.651,506.759,600.033,529.249,593.704z M538.318,732.675v66.741h-64.01
	c-4.893-14.486-8.309-30.579-9.9-47.581c-0.602-6.43-0.919-12.825-1.006-19.159H538.318z M538.318,805.589v61.467
	c-8.491-0.604-16.91-3.68-24.889-9.157c-15.266-10.48-28.08-29.017-36.918-52.31H538.318z M553.563,865.471
	c-3.01,0.848-6.04,1.358-9.072,1.57v-61.453h61.919C594.747,836.525,576.053,859.142,553.563,865.471z M544.492,799.415v-66.741
	h74.918c-0.286,23.991-4.133,46.873-10.795,66.741H544.492z M625.562,732.675h53.389c-0.493,23.463-6.99,46.327-19.08,66.741
	h-44.955C621.465,779.345,625.254,756.527,625.562,732.675z M678.949,726.501h-53.381c-0.081-6.527-0.402-13.113-1.022-19.734
	c-1.575-16.842-4.8-32.674-9.421-47.007h44.834c8.572,14.533,14.476,30.656,17.255,47.788
	C678.24,713.874,678.797,720.202,678.949,726.501z M621.815,618.027c13.695,9.871,25.217,21.926,34.279,35.56h-43.081
	c-9.24-25.52-23.104-45.706-40.14-57.4c-0.436-0.3-0.878-0.572-1.317-0.859C589.426,599.355,606.486,606.978,621.815,618.027z
	 M511.101,595.407c-17.314,11.389-31.574,32.171-41.074,58.18h-43.199c0.984-1.479,1.972-2.958,3.017-4.407
	C449.702,621.627,478.33,602.772,511.101,595.407z M403.862,732.675h53.381c0.081,6.527,0.402,13.113,1.021,19.734
	c1.576,16.842,4.8,32.674,9.422,47.007h-44.834c-8.572-14.533-14.475-30.656-17.255-47.788
	C404.57,745.302,404.013,738.974,403.862,732.675z M426.716,805.589h43.081c9.24,25.52,23.103,45.704,40.138,57.398
	c0.448,0.307,0.904,0.572,1.355,0.866c-17.883-4.027-34.954-11.649-50.294-22.704C447.3,831.278,435.778,819.223,426.716,805.589z
	 M571.711,863.769c17.314-11.389,31.573-32.171,41.073-58.18h43.201c-0.984,1.479-1.972,2.958-3.017,4.407
	C633.11,837.549,604.482,856.403,571.711,863.769z"/>
<linearGradient id="SVGID_8_" gradientUnits="userSpaceOnUse" x1="328.1027" y1="955.155" x2="1623.3943" y2="955.155">
	<stop  offset="0" style="stop-color:#271887"/>
	<stop  offset="1" style="stop-color:#02BFE1"/>
</linearGradient>
<rect x="328.103" y="798.237" opacity="0.3" fill="url(#SVGID_8_)" width="1295.292" height="313.835"/>
<linearGradient id="SVGID_9_" gradientUnits="userSpaceOnUse" x1="298.9064" y1="984.3515" x2="1594.1981" y2="984.3515">
	<stop  offset="0" style="stop-color:#271887"/>
	<stop  offset="1" style="stop-color:#02BFE1"/>
</linearGradient>
<rect x="298.906" y="827.434" opacity="0.5" fill="url(#SVGID_9_)" width="1295.292" height="313.836"/>
<rect x="269.71" y="856.63" fill="#0053CC" width="1295.292" height="313.836"/>
<rect x="331.51" y="918.427" fill="#FFFFFF" width="1171.691" height="190.241"/>
<rect x="1306.094" y="918.427" fill="#9FC6FF" width="6.867" height="190.241"/>
<rect x="360.707" y="944.654" fill="#9FC6FF" width="6.866" height="137.788"/>
<g>
	<path fill="#9FC6FF" d="M1401.518,1037.374c-7.785,0-15.57-2.963-21.497-8.89c-11.853-11.853-11.853-31.141,0-42.993
		c11.853-11.853,31.141-11.853,42.993,0l0,0c11.853,11.853,11.853,31.141,0,42.993
		C1417.089,1034.411,1409.303,1037.374,1401.518,1037.374z M1401.518,984.837c-5.677,0-11.35,2.16-15.671,6.48
		c-8.642,8.64-8.642,22.702,0,31.342c8.642,8.642,22.699,8.642,31.342,0c8.642-8.64,8.642-22.702,0-31.342l0,0
		C1412.868,986.998,1407.195,984.837,1401.518,984.837z"/>
	<path fill="#9FC6FF" d="M1440.927,1050.508c-1.054,0-2.108-0.402-2.913-1.207l-20.809-20.807c-1.609-1.609-1.609-4.217,0-5.826
		s4.216-1.609,5.826,0l20.809,20.807c1.61,1.609,1.61,4.216,0,5.826C1443.035,1050.106,1441.981,1050.508,1440.927,1050.508z"/>
</g>
<g>
	<rect x="992.499" y="608.503" fill="#9FC6FF" width="129.533" height="3.21"/>
	<rect x="992.499" y="622.154" fill="#9FC6FF" width="129.533" height="3.211"/>
	<rect x="992.499" y="635.805" fill="#9FC6FF" width="129.533" height="3.21"/>
	<rect x="992.499" y="649.455" fill="#9FC6FF" width="129.533" height="3.211"/>
	<rect x="992.499" y="663.106" fill="#9FC6FF" width="129.533" height="3.21"/>
	<rect x="992.503" y="676.758" fill="#9FC6FF" width="84.45" height="3.21"/>
</g>
<g>
	<rect x="204.335" y="1197.592" fill="#9FC6FF" width="138.017" height="2.056"/>
	<rect x="204.335" y="1206.334" fill="#9FC6FF" width="138.017" height="2.056"/>
	<rect x="204.335" y="1215.075" fill="#9FC6FF" width="138.017" height="2.056"/>
	<rect x="204.335" y="1223.817" fill="#9FC6FF" width="138.017" height="2.056"/>
	<rect x="204.335" y="1232.558" fill="#9FC6FF" width="138.017" height="2.056"/>
	<rect x="204.335" y="1241.299" fill="#9FC6FF" width="86.747" height="2.056"/>
</g>
<g>
	<path fill="#318FFF" d="M795.958,628.736L795.958,628.736c-14.382,0-26.04,11.659-26.04,26.04v85.902
		c0,14.382,11.659,26.04,26.04,26.04l0,0c14.382,0,26.04-11.659,26.04-26.04v-85.902
		C821.998,640.395,810.339,628.736,795.958,628.736z"/>
	<path fill="#0053CC" d="M861.212,577.531L861.212,577.531c-14.382,0-26.04,11.659-26.04,26.041v137.106
		c0,14.382,11.659,26.04,26.04,26.04l0,0c14.382,0,26.041-11.659,26.041-26.04V603.572
		C887.253,589.19,875.594,577.531,861.212,577.531z"/>
	<path fill="#9FC6FF" d="M926.466,679.94L926.466,679.94c-14.382,0-26.041,11.659-26.041,26.04v34.697
		c0,14.382,11.659,26.04,26.041,26.04l0,0c14.381,0,26.04-11.659,26.04-26.04v-34.697
		C952.507,691.599,940.848,679.94,926.466,679.94z"/>
</g>
<g>
	<g>
		<polyline fill="#197BDD" points="1476.414,1268.824 1581.692,1268.824 1401.972,1082.442 1401.972,1082.442 1476.414,1268.824 		
			"/>
	</g>
	<polygon fill="#9FC6FF" points="1375.238,1170.466 1401.972,1082.442 1417.124,1170.466 	"/>
	<polygon fill="#4EA4F9" points="1401.972,1082.442 1401.972,1343.266 1420.583,1324.656 1476.414,1268.824 	"/>
</g>
<g>
	<linearGradient id="SVGID_10_" gradientUnits="userSpaceOnUse" x1="1313.2977" y1="647.5875" x2="1632.2526" y2="647.5875">
		<stop  offset="0" style="stop-color:#271887"/>
		<stop  offset="1" style="stop-color:#02BFE1"/>
	</linearGradient>
	<path fill="url(#SVGID_10_)" d="M1588.119,523.061h-230.688c-24.227,0-44.133,19.906-44.133,44.133v119.124
		c0,24.224,19.906,44.13,44.133,44.13h169.274l-1.236,41.666l42.743-41.666h19.906c24.227,0,44.133-19.906,44.133-44.13V567.194
		C1632.253,542.967,1612.346,523.061,1588.119,523.061z M1352.183,573.828c0-6.789,5.557-12.345,12.345-12.345h53.084
		c6.789,0,12.187,5.557,12.187,12.345c0,6.634-5.398,12.191-12.187,12.191h-53.084
		C1357.74,586.019,1352.183,580.462,1352.183,573.828z M1575.005,689.095h-91.812c-6.638,0-12.191-5.399-12.191-12.191
		c0-6.789,5.553-12.187,12.191-12.187h91.812c6.789,0,12.187,5.398,12.187,12.187
		C1587.192,683.697,1581.794,689.095,1575.005,689.095z M1575.005,637.555h-198.131c-6.634,0-12.191-5.399-12.191-12.187
		c0-6.792,5.557-12.191,12.191-12.191h198.131c6.789,0,12.187,5.398,12.187,12.191
		C1587.192,632.157,1581.794,637.555,1575.005,637.555z M1575.005,586.019h-117.274c-6.789,0-12.191-5.557-12.191-12.191
		c0-6.789,5.402-12.345,12.191-12.345h117.274c6.789,0,12.187,5.557,12.187,12.345
		C1587.192,580.462,1581.794,586.019,1575.005,586.019z"/>
</g>
<g>
	<path fill="#318FFF" d="M1227.284,900.726c-9.929-27.274-25.049-52.117-44.289-73.252H855.42
		c-19.158,21.052-34.319,45.854-44.289,73.252l45.319,225.607c38.109,41.404,91.915,68.349,152.56,71.151
		c67.979,3.131,130.231-24.761,172.996-71.151c34.071-36.955,55.825-85.653,58.338-139.789
		C1241.745,956.386,1237.007,927.382,1227.284,900.726z"/>
	<path fill="#FFFFFF" d="M1240.344,986.543c-2.514,54.136-24.267,102.834-58.338,139.789H856.45
		c-38.645-41.899-61.181-98.673-58.338-160.142c1.071-22.947,5.562-44.948,13.019-65.465h416.153
		C1237.007,927.382,1241.745,956.386,1240.344,986.543z"/>
	<path opacity="0.4" fill="#D4E8FF" d="M1240.344,986.543c-2.514,54.136-24.267,102.834-58.338,139.789
		c-42.765,46.39-105.017,74.283-172.996,71.151c-60.645-2.802-114.451-29.747-152.56-71.151
		c-38.645-41.899-61.181-98.673-58.338-160.142c1.071-22.947,5.562-44.948,13.019-65.465c9.97-27.398,25.132-52.2,44.289-73.252
		c42.806-47.009,105.47-75.353,173.943-72.222c61.222,2.842,115.44,30.241,153.632,72.222c19.24,21.135,34.36,45.978,44.289,73.252
		C1237.007,927.382,1241.745,956.386,1240.344,986.543z"/>
	<path opacity="0.4" fill="#D4E8FF" d="M1143.995,793.544l-318.308,290.281c-1.636-2.938-3.197-5.921-4.708-8.926
		c-9.595-19.219-16.427-39.96-20.056-61.766l0.001-0.024l274.931-250.722C1100.565,768.886,1123.533,779.55,1143.995,793.544z"/>
	<path opacity="0.4" fill="#D4E8FF" d="M1229.155,906.051l-299.265,272.89c-31.29-13.789-58.668-34.578-80.238-60.316
		l326.792-298.017C1200.091,844.452,1218.276,873.624,1229.155,906.051z"/>
	<path fill="#197BDD" d="M1240.244,848.699c-70.505-122.07-226.629-163.875-348.699-93.371
		c-122.07,70.504-163.875,226.629-93.371,348.699c70.517,122.09,226.641,163.895,348.711,93.391
		C1268.955,1126.914,1310.76,970.789,1240.244,848.699z M844.801,1077.096c-55.627-96.312-22.659-219.502,73.674-275.142
		c96.334-55.64,219.515-22.637,275.142,73.674c55.64,96.333,22.672,219.524-73.662,275.164
		C1023.622,1206.432,900.44,1173.429,844.801,1077.096z"/>
	<g>
		<path fill="#FF8B7B" d="M431.81,1239.012l31.545,7.354l-26.132,19.515c0,0-18.752-8.514-19.626-21.818L431.81,1239.012z"/>
		<polygon fill="#FF8B7B" points="480.263,1267.37 457.501,1282.525 437.223,1265.881 463.355,1246.366 		"/>
	</g>
	<path fill="#197BDD" d="M837.248,1110.857c-33.55,24.789-67.914,48.168-102.513,71.14c-34.623,22.932-69.569,45.302-104.757,67.255
		c-35.252,21.841-70.631,43.464-106.338,64.517c-17.776,10.661-35.772,20.941-53.647,31.431
		c-8.841,5.411-18.192,9.941-28.595,12.649c-5.18,1.391-10.634,2.308-16.367,2.741c-5.767,0.375-11.747,0.381-18.504-0.959
		c-18.327-3.633-30.239-21.436-26.606-39.763c0.281-1.413,0.71-2.972,1.153-4.305c2.216-6.522,5.209-11.7,8.416-16.507
		c3.24-4.749,6.76-9.016,10.553-12.807c7.544-7.658,16.14-13.494,25.246-18.448c18.018-10.242,35.916-20.693,54.033-30.763
		c36.08-20.409,72.488-40.249,109.023-59.87c36.599-19.51,73.439-38.602,110.603-57.132c37.188-18.49,74.611-36.574,112.848-53.247
		c12.964-5.653,28.055,0.274,33.708,13.238C850.369,1091.183,846.641,1103.922,837.248,1110.857z"/>
</g>
<g>
	<path fill="#FF8B7B" d="M477.54,1043.849c-2.053,3.322-4.424,7.378-6.63,11.149c-2.212,3.868-4.398,7.772-6.481,11.742
		c-4.281,7.875-8.396,15.866-12.234,23.984c-3.75,8.155-7.46,16.327-10.845,24.629c-1.612,4.172-3.35,8.313-4.874,12.515
		l-2.306,6.302c-0.459,1.19-0.536,1.671-0.836,2.526c-0.263,0.747-0.43,1.703-0.662,2.546c-1.602,7.26-2.294,16.062-2.412,24.835
		c-0.232,8.832,0.095,17.878,0.464,26.97c0.384,9.102,1.021,18.26,1.848,27.422c0.643,9.168,1.633,18.425,2.485,27.502
		l-15.912,3.267c-2.788-9.214-4.97-18.339-7.165-27.603c-2.007-9.27-3.832-18.604-5.408-28.048
		c-1.553-9.455-2.711-19.015-3.406-28.829c-0.556-9.847-0.898-19.804,0.784-30.921c0.272-1.433,0.447-2.79,0.82-4.287
		c0.342-1.385,0.755-3.19,1.072-4.2l2.015-7.001c1.335-4.673,2.869-9.27,4.411-13.87c3.183-9.154,6.631-18.209,10.507-27.074
		c3.897-8.851,7.998-17.61,12.474-26.201c2.26-4.282,4.637-8.512,7.064-12.732c2.476-4.292,4.879-8.249,7.9-12.751L477.54,1043.849z
		"/>
	<path fill="#0053CC" d="M459.963,1894.541c-2.963,0-6.2-0.612-8.467-1.147c-0.296-0.072-0.521-0.31-0.573-0.607
		c-0.052-0.298,0.079-0.599,0.332-0.769c1.096-0.72,10.849-6.984,14.568-5.319c0.592,0.266,1.332,0.853,1.513,2.136
		c0.239,1.698-0.183,3.054-1.257,4.031C464.711,1894.115,462.434,1894.541,459.963,1894.541z M453.647,1892.308
		c5.588,1.115,9.789,0.921,11.408-0.564c0.69-0.627,0.943-1.512,0.777-2.699c-0.091-0.64-0.386-0.849-0.634-0.962
		C463.232,1887.211,457.615,1889.906,453.647,1892.308z"/>
	<path fill="#0053CC" d="M451.671,1893.415c-0.133,0-0.264-0.036-0.382-0.105c-0.234-0.137-0.378-0.386-0.378-0.656
		c0-0.39,0.044-9.628,3.53-12.714c0.923-0.817,1.996-1.171,3.217-1.014c1.901,0.229,2.416,1.424,2.555,2.116
		c0.724,3.613-5.106,10.533-8.167,12.271C451.93,1893.382,451.8,1893.415,451.671,1893.415z M457.129,1880.411
		c-0.624,0-1.175,0.221-1.68,0.664c-2.078,1.843-2.795,7.029-2.971,10.103c3.05-2.438,6.687-7.636,6.246-9.837
		c-0.073-0.358-0.28-0.789-1.251-0.91C457.356,1880.419,457.241,1880.411,457.129,1880.411z"/>
	<path fill="#0053CC" d="M605.858,1894.545c-3.531,0-7.367-0.604-10.091-1.146c-0.318-0.06-0.559-0.318-0.605-0.636
		c-0.047-0.322,0.115-0.632,0.402-0.78c1.442-0.753,14.217-7.271,18.158-5.13c0.76,0.414,1.207,1.115,1.287,2.02
		c0.137,1.513-0.324,2.756-1.37,3.697C611.994,1894.05,609.051,1894.545,605.858,1894.545z M598.292,1892.316
		c7.113,1.179,12.39,0.873,14.332-0.877c0.68-0.611,0.965-1.404,0.873-2.43c-0.036-0.398-0.191-0.652-0.505-0.825
		C610.867,1887.018,603.547,1889.794,598.292,1892.316z"/>
	<path fill="#0053CC" d="M595.914,1893.415c-0.155,0-0.308-0.048-0.437-0.141c-0.221-0.153-0.342-0.414-0.32-0.68
		c0.028-0.366,0.77-9,4.802-12.36c1.233-1.026,2.65-1.452,4.206-1.312c2.104,0.213,2.712,1.284,2.853,2.144
		c0.593,3.629-6.968,10.549-10.791,12.279C596.127,1893.391,596.021,1893.415,595.914,1893.415z M603.557,1880.411
		c-0.966,0-1.827,0.326-2.625,0.99c-2.649,2.209-3.714,7.383-4.086,9.897c3.897-2.366,9.03-7.805,8.674-9.986
		c-0.03-0.181-0.121-0.736-1.507-0.877C603.858,1880.419,603.706,1880.411,603.557,1880.411z"/>
	<path fill="#FF8B7B" d="M526.118,920.146c2.49,19.233,8.403,58.245-5.707,70.054c0,0,3.94,19.602,39.228,21.894
		c38.803,2.521,19.795-18.058,19.795-18.058c-20.849-6.433-19.282-22.11-14.634-36.626L526.118,920.146z"/>
	<path fill="#0F264C" d="M598.31,880.972c-0.241,0-0.489-0.059-0.718-0.181c-0.738-0.396-1.016-1.318-0.618-2.058
		c3.981-7.403,10.964-8.071,11.259-8.097c0.835-0.05,1.569,0.551,1.642,1.388c0.068,0.833-0.548,1.565-1.38,1.639l0,0
		c-0.229,0.022-5.667,0.602-8.845,6.51C599.376,880.682,598.852,880.972,598.31,880.972z"/>
	<path fill="#FF5652" d="M609.373,897.934c0,0,5.416,10.676,10.732,15.572c-3.101,3.495-9.018,2.589-9.018,2.589L609.373,897.934z"
		/>
	
		<ellipse transform="matrix(-0.9956 0.0939 -0.0939 -0.9956 1300.6156 1725.6649)" fill="#0F264C" cx="609.7" cy="893.438" rx="3.062" ry="4.684"/>
	<path fill="#0F264C" d="M608.53,888.988l6.018-2.367C614.548,886.621,611.829,891.753,608.53,888.988z"/>
	<polygon fill="#FF8B7B" points="560.648,1892.653 592.72,1892.653 594.861,1818.38 562.789,1818.38 	"/>
	<polygon fill="#FF8B7B" points="414.926,1892.653 446.999,1892.653 457.31,1818.38 425.238,1818.38 	"/>
	<path fill="#14365B" d="M448.987,1888.94l-36.032,0c-1.311,0-2.375,0.911-2.559,2.191l-4.105,28.508
		c-0.426,2.957,2.117,5.755,5.142,5.704c12.562-0.216,18.616-0.954,34.461-0.954c9.748,0,23.99,1.013,37.452,1.013
		c13.167,0,14.179-13.311,8.574-14.517c-25.134-5.405-29.104-12.86-37.572-19.972C452.821,1889.629,450.905,1888.94,448.987,1888.94
		z"/>
	<path fill="#14365B" d="M593.819,1888.94l-36.032,0c-1.311,0-2.375,0.911-2.56,2.191l-4.105,28.508
		c-0.426,2.957,2.118,5.755,5.142,5.704c12.563-0.216,18.616-0.954,34.461-0.954c9.749,0,29.912,1.013,43.374,1.013
		c13.166,0,14.179-13.311,8.574-14.517c-25.134-5.405-35.026-12.86-43.494-19.972C597.653,1889.629,595.738,1888.94,593.819,1888.94
		z"/>
	<g>
		<polygon fill="#EA7063" points="594.855,1818.4 593.757,1856.684 561.671,1856.684 562.769,1818.4 		"/>
		<polygon fill="#EA7063" points="425.227,1818.4 457.313,1818.4 451.982,1856.684 419.897,1856.684 		"/>
	</g>
	<path fill="#9FC6FF" d="M491.219,1048.796c-8.322,13.719-21.053,26.45-21.053,26.45l-3.667-2.431l-40.622-27.15
		c0,0,22.289-49.109,38.851-51.787c15.944-2.555,27.562,13.925,33.042,31.558C499.747,1031.822,496.327,1040.474,491.219,1048.796z"
		/>
	<path fill="#77B3FC" d="M491.219,1048.796c-8.322,13.719-21.053,26.45-21.053,26.45l-3.667-2.431
		c1.812-14.832,7.581-29.54,14.172-34.195C484.709,1039.032,488.293,1043.317,491.219,1048.796z"/>
	<path fill="#9FC6FF" d="M630.184,1073.474v0.041c-1.936,12.318-4.45,26.903-7.827,44.165c-4.285,22.083-9.889,48.574-17.18,80.256
		c-51.581-3.377-104.894-6.839-129.983-8.445c5.603-52.776,7.786-85.406-10.465-195.614c0,0,27.645-4.162,55.702-3.667
		c21.918,0.37,39.88,0.824,58.997,3.831c25.214,3.956,53.559,11.701,53.559,11.701S640.236,1008.832,630.184,1073.474z"/>
	<path fill="#77B3FC" d="M630.184,1073.474v0.041c-1.936,12.318-4.45,26.903-7.827,44.165
		c-5.521-10.752-13.307-31.723-17.757-47.132h24.143L630.184,1073.474z"/>
	<path fill="#FF8B7B" d="M519.223,893.052c4.926,31.447,6.339,44.863,23.846,59.591c26.333,22.154,63.882,9.227,68.451-23.058
		c4.113-29.06-4.633-75.605-36.781-85.272C543.064,834.788,514.297,861.605,519.223,893.052z"/>
	<path fill="#0053CC" d="M570.815,1195.671c0,0-2.06,57.225-7.004,129.406c-4.12,60.563-10.341,131.59-19.034,188.198
		c-0.082,0.535-0.165,1.03-0.248,1.565c-15.614,100.197-84.787,334.415-84.787,334.415h-43.754c0,0,36.049-226.184,43.96-325.309
		c20.064-250.78-30.199-279.166,15.244-334.455L570.815,1195.671z"/>
	<path fill="#004DAA" d="M563.812,1325.078c-4.12,60.563-10.341,131.59-19.034,188.198c-14.791-73.541-39.098-180.947-6.469-251.192
		C546.096,1281.943,555.283,1304.519,563.812,1325.078z"/>
	<path fill="#0053CC" d="M605.159,1197.92c0,0,36.976,219.793,34.874,317.599c-2.186,101.732-39.465,333.752-39.465,333.752H557.2
		c0,0,6.863-226.076,3.03-325.987c-4.179-108.92-50.256-331.547-50.256-331.547L605.159,1197.92z"/>
	<polygon fill="#0F264C" points="549.818,1851.292 607.951,1851.292 612.487,1831.782 547.753,1832.228 	"/>
	<polygon fill="#0F264C" points="409.652,1851.292 467.785,1851.292 472.321,1831.782 410.055,1832.228 	"/>
	<path fill="#0F264C" d="M473.725,1181.722l-6.617,11.254c-0.513,0.873,0.496,1.863,1.999,1.961l136.317,8.855
		c1.172,0.076,2.179-0.435,2.302-1.167l1.928-11.558c0.133-0.801-0.838-1.549-2.12-1.632l-131.628-8.55
		C474.937,1180.82,474.055,1181.159,473.725,1181.722z"/>
	<path fill="#0053CC" d="M490.447,1197.588l-3.525-0.229c-0.702-0.046-1.213-0.443-1.136-0.882l2.635-15.009
		c0.077-0.439,0.714-0.761,1.416-0.716l3.525,0.229c0.702,0.046,1.213,0.443,1.136,0.882l-2.636,15.009
		C491.786,1197.312,491.149,1197.634,490.447,1197.588z"/>
	<path fill="#0053CC" d="M575.896,1203.139l-3.525-0.229c-0.702-0.046-1.213-0.443-1.136-0.882l2.635-15.009
		c0.077-0.439,0.714-0.761,1.416-0.716l3.525,0.229c0.702,0.046,1.213,0.443,1.136,0.882l-2.635,15.009
		C577.236,1202.863,576.598,1203.184,575.896,1203.139z"/>
	<path fill="#FF8B7B" d="M640.366,1038.881c4.929,16.513,9.644,33.161,14.215,49.8l13.792,49.804l1.732,6.181l0.434,1.545
		l0.214,0.76l0.135,0.396c0.211,0.525,0.235,1.084,0.533,1.623c0.86,2.179,2.291,4.554,4.308,6.913
		c4.082,4.714,10.197,9.162,16.876,13.019c13.448,7.772,29.597,13.602,45.259,18.29l-2.356,16.072
		c-18.434-1.113-36.014-4.574-53.892-11.635c-8.82-3.753-17.757-8.389-25.911-16.006c-4.043-3.81-7.897-8.445-10.746-14.099
		c-0.776-1.349-1.309-2.908-1.938-4.375l-0.445-1.121l-0.279-0.786l-0.548-1.55l-2.186-6.202
		c-5.745-16.521-11.101-33.059-16.172-49.679c-5.173-16.595-10.056-33.225-14.58-50.029L640.366,1038.881z"/>
	<path fill="#9FC6FF" d="M633.002,1005.748c16.445,5.385,33.778,59.295,33.778,59.295l-59.496,25.605
		c0,0-24.858-60.47-13.768-74.313C605.064,1001.918,614.085,999.554,633.002,1005.748z"/>
	<path fill="#0F264C" d="M601.196,842.527c-10.53-12.994-91.688-22.264-96.028,13.099c-28.747,20.175-1.46,72.333,2.66,85.609
		c-19.913,5.493-84.001,27.448-37.308,70.03c46.693,42.581,117.298,35.327,131.078-8.729c9.639-30.817-20.984-82.358-20.298-100.44
		C581.987,884.014,619.182,864.721,601.196,842.527z"/>
	<path fill="#0F264C" d="M513.502,947.752c-0.298,0-0.594-0.129-0.797-0.376c-7.457-9.089-33.378-56.683-24.287-79.379
		c2.828-7.061,8.686-11.183,17.407-12.247c0.555-0.079,1.08,0.33,1.147,0.897c0.068,0.565-0.332,1.078-0.897,1.147
		c-7.918,0.967-13.217,4.657-15.743,10.97c-8.785,21.927,16.661,68.403,23.967,77.305c0.36,0.441,0.296,1.089-0.143,1.451
		C513.965,947.676,513.733,947.752,513.502,947.752z"/>
	<path fill="#FF8B7B" d="M575.066,900.162c0.776,6.252,4.177,12.03,8.07,15.743c5.855,5.585,11.371,1.75,11.911-5.353
		c0.487-6.394-1.973-17.005-8.893-19.94C579.337,887.719,574.179,893.013,575.066,900.162z"/>
</g>
<path fill="#FF8B7B" d="M717.425,1182.793l23.43-7.953l-3.69,28.104c0,0-9.208,4.276-21.15-6.233l-11.419-7.314l8.975-4.91
	C714.804,1183.811,716.094,1183.245,717.425,1182.793z"/>
<polygon fill="#FF8B7B" points="757.189,1174.754 750.023,1199.331 737.166,1202.943 740.855,1174.839 "/>
<g>
	<g>
		<path fill="#16202E" d="M1876.386,959.95c0,0-2.934,28.929,2.412,36.186c0,0-14.151-3.082-17.427-7.953
			C1858.093,983.312,1876.386,959.95,1876.386,959.95z"/>
	</g>
	<g>
		<g>
			<path fill="#EEA886" d="M1964.741,1052.333c0,0,5.135-3.451,5.934-3.952c0.798-0.502,3.435-0.42,6.456-0.061
				c3.021,0.358,6.938,2.196,7.173,2.667c0.235,0.466,0.696,0.829,0.507,2.161c-0.195,1.331-1.086,2.355-1.086,2.355
				s0.538,1.751-0.655,2.923c0,0,0.43,1.674-1.146,2.79c0,0,0.378,1.644-0.835,2.356c0,0-2.642-0.082-3.63,0.174
				c-0.988,0.251-6.471-0.287-11.652-1.618C1965.807,1062.127,1960.026,1060.887,1964.741,1052.333z"/>
		</g>
	</g>
	<g>
		<g>
			<path fill="#CF8C6C" d="M1973.481,1054.724c0,0-1.546,2.698-2.365,3.235c-0.814,0.538,3.953,5.668,3.953,5.668
				S1976.706,1056.694,1973.481,1054.724z"/>
		</g>
	</g>
	<g>
		<g>
			<path fill="#EEA886" d="M1961.7,1052.829c0,0,3.231-0.358,5.227-1.28c1.992-0.922-0.374,10.055-0.374,10.055
				s-4.838-3.338-7.992-3.43C1955.403,1058.072,1961.7,1052.829,1961.7,1052.829z"/>
		</g>
	</g>
	<g>
		<g>
			<path fill="#162D40" d="M1827.882,1345.189c0,0,10.096,14.76,13.618,17.893c0,0,7.045,3.656,7.26,6.574
				c0.415,5.524,0.706,8.775-8.56,9.037c-9.267,0.261-15.057-0.026-16.757-5.637c-1.695-5.616-4.623-10.02-4.623-10.02
				l-0.706,14.607h-2.089c0,0-0.932-14.637-1.065-16.732c-0.128-2.083-1.5-10.111,2.908-13.67
				C1822.27,1343.689,1827.882,1345.189,1827.882,1345.189z"/>
		</g>
	</g>
	<g>
		<g>
			<path fill="#162D40" d="M1842.842,1363.84c0,0-5.007,1.413-10.966-0.087c-5.959-1.5-11.678-15.763-13.419-16.951l-1.546-5.76
				h11.616c0,0,0.098,4.26,1.971,7.905C1832.377,1352.592,1842.842,1363.84,1842.842,1363.84z"/>
		</g>
	</g>
	<g>
		<g>
			<path fill="#162D40" d="M1893.419,1339.675c0,0,1.516,3.578,4.372,7.306c2.099,2.734,8.617,13.967,11.489,14.75
				c2.867,0.783,11.745,2.35,12.528,7.306c0.783,4.961,1.172,8.483-7.572,8.877c-8.744,0.389-14.484,0.911-18.661-5.222
				c-4.178-6.133-10.833-10.572-10.833-10.572v16.005h-3.395c0,0-1.562-16.655-2.478-17.827c-0.911-1.177-3.261-13.967,4.828-20.622
				C1891.791,1333.019,1893.419,1339.675,1893.419,1339.675z"/>
		</g>
	</g>
	<g>
		<g>
			<path fill="#162D40" d="M1909.28,1361.731c0,0-7.833,1.955-10.833,0c-3-1.955-13.209-19.204-16.588-20.238
				c0,0,3.277-6.645,11.56-1.817C1893.419,1339.675,1907.058,1358.858,1909.28,1361.731z"/>
		</g>
	</g>
	<g>
		<g>
			<path fill="#1D3B54" d="M1823.438,1100.002c0,0-11.043,14.356-14.038,31.389c-2.995,17.028,1.771,74.189,1.638,82.611
				c-0.128,8.417-7.423,34.609-5.862,50.465c1.567,15.856,9.769,82.043,9.769,82.043l19.132-0.348c0,0-3.834-71.415-2.857-78.07
				c0.978-6.656,4.095-34.973,4.484-37.717c0.394-2.739,21.795-75.213,21.795-87.49
				C1857.499,1130.608,1850.06,1079.974,1823.438,1100.002z"/>
		</g>
	</g>
	<g>
		<g>
			<path fill="#1D3B54" d="M1878.905,1105.618c0,0,18.139,69.228,20.289,78.823c2.155,9.589,6.461,22.122,6.266,23.884
				c-0.195,1.756-2.283,31.317-2.283,31.317l-5.156,100.623h-19.117c0,0-6.133-64.017-7.116-76.934
				c-0.978-12.922,7.05-32.889,5.089-38.372c-1.956-5.478-31.517-68.706-31.517-68.706S1822.982,1085.518,1878.905,1105.618z"/>
		</g>
	</g>
	<g>
		<g>
			<path fill="#EDDAD3" d="M1873.288,1001.993c0,0,7.255,0.684,12.738,6.556c5.483,5.873,10.623,15.242,12.062,18.369
				c1.433,3.133,21.559,32.162,22.603,32.812c1.044,0.651,9.835-1.659,16.885-2.248c11.499-0.957,28.701-6.814,28.701-6.814
				l2.555,12.994c0,0-42.309,13.649-52.072,11.248c-11.939-2.944-39.421-38.203-39.421-38.203S1856.849,1012.696,1873.288,1001.993z
				"/>
		</g>
	</g>
	<g>
		<g>
			<path fill="#EDDAD3" d="M1860.632,996.904c0,0,9.395,4.436,12.656,5.089c3.266,0.653,15.922,17.098,18.144,23.103
				c2.217,6,0,15.006-4.567,25.573c-4.572,10.572-0.261,14.1-2.35,24.672c-2.089,10.567-2.089,39.386-1.694,45.258
				c0.389,5.872-60.418,16.951-72.551,6.251c0,0,8.212-27.088,17.944-37.262c2.099-2.201,1.879-16.864,0.446-20.514
				c-1.439-3.656-17.622-30.928-17.622-30.928s-1.188-27.667,5.872-33.15c6.133-4.764,22.854-6.464,25.854-7.505
				C1845.765,996.446,1854.499,995.99,1860.632,996.904z"/>
		</g>
	</g>
	<g>
		<g>
			<path fill="#D1C0BA" d="M1863.633,1017.851l5.709-6.686l-4.956-17.605C1864.385,993.561,1862.721,1003.363,1863.633,1017.851z"/>
		</g>
	</g>
	<g>
		<g>
			<path fill="#EEA886" d="M1827.841,1001.993c0,0-11.841-3.391-18.63,9.658c-6.783,13.05-5.089,20.095-6.655,25.967
				c-1.561,5.877-7.828,45.155-8.217,46.855c-0.394,1.694-6.394,21.667-5.616,27.795c0.783,6.133,6.4,52.594,6.138,54.161
				c-0.261,1.567,10.828-1.5,10.828-1.5s-0.456-47.439-0.062-51.356c0.39-3.911,0.778-24.467,3.717-29.755
				c2.939-5.284,10.178-37.584,11.745-40.912C1822.655,1039.579,1837.824,1006.235,1827.841,1001.993z"/>
		</g>
	</g>
	<g>
		<g>
			<path fill="#EEA886" d="M1865.117,986.061c0,0-1.874,17.238-1.485,22.852c0,0-9.763,9.784-20.868-11.422
				c0,0,4.674-8.742,1.157-20.65C1840.404,964.929,1865.117,986.061,1865.117,986.061z"/>
		</g>
	</g>
	<g>
		<g>
			<polygon fill="#EEA886" points="1863.633,1008.913 1863.633,1017.851 1853.137,1008.549 			"/>
		</g>
	</g>
	<g>
		<g>
			<polygon fill="#D1C0BA" points="1863.633,1017.851 1858.968,1012.076 1843.251,996.413 1837.364,999.029 			"/>
		</g>
	</g>
	<g>
		<g>
			<polygon fill="#FAE6DE" points="1869.341,1011.165 1876.539,1013.152 1864.385,993.561 			"/>
		</g>
	</g>
	<g>
		<g>
			<polygon fill="#FAE6DE" points="1858.968,1012.076 1852.395,1022.608 1837.123,998.652 1843.666,995.322 			"/>
		</g>
	</g>
	<g>
		<path fill="#D1C0BA" d="M1892.446,1054.57c0,0,2.35-15.636-0.148-25.138c0,0-1.382,7.669-4.746,19.613L1892.446,1054.57z"/>
	</g>
	<g>
		<path fill="#D1C0BA" d="M1819.46,1052.491c0,0,6.497-21.492,6.881-22.67c0,0-0.445,19.751-2.934,29.53
			C1823.407,1059.352,1821.016,1055.179,1819.46,1052.491z"/>
	</g>
	<g>
		<polygon fill="#54281A" points="2061.462,944.773 1959.217,1073.595 1962.781,1076.344 		"/>
	</g>
	<g>
		<g>
			<path fill="#DB9C7C" d="M1983.515,1050.858c0,0-7.669-0.721-7.941,0.502c-0.271,1.218,0.374,1.833,0.374,1.833l-3.297,1.137
				c0,0-1.756,1.981,0.916,3.318c0,0-1.828,1.679,0.906,2.662c0,0-0.717,1.644,0.471,2.324c1.188,0.676,6.144,0.937,6.144,0.937
				s1.07-0.415,0.835-2.356c0,0,1.577-0.978,1.146-2.79c0,0,1.137-0.973,0.655-2.923c0,0,2.365-2.386,0.579-4.516
				C1984.304,1050.986,1983.843,1050.884,1983.515,1050.858z"/>
		</g>
	</g>
	<g>
		<g>
			<path fill="#EEA886" d="M1970.921,1048.375c0,0,4.459,2.847,6.216,5.463c0.394,0.599,0.671,1.244,0.271,1.833
				c-0.404,0.594-1.771,0.763-3.763-0.363c-1.997-1.137-5.094-1.69-5.094-1.69S1966.84,1051.857,1970.921,1048.375z"/>
		</g>
	</g>
	<g>
		<path fill="#EEA886" d="M1857.197,927.392c0,0,17.299-0.448,20.479,20.031c3.184,20.481-4.173,38.474-7.055,41.356
			c-2.888,2.885-20.182,0.697-24.257-9.94c-4.08-10.639-10.045-18.393-9.149-27.539
			C1838.111,942.154,1835.925,927.044,1857.197,927.392z"/>
	</g>
	<g>
		<path fill="#16202E" d="M1878.413,955.174c0,0,4.633-25.545-18.333-30.119c-22.962-4.572-31.016,11.135-33.201,20.478
			c-2.191,9.346,0.399,35.692,0.399,35.692s15.308,13.422,24.452,16.9c0,0-7.654-28.036-4.772-48.118c0,0,18.661,2.928,31.051-0.125
			C1878.009,949.882,1878.383,954.075,1878.413,955.174z"/>
	</g>
	<g>
		<path fill="#A77860" d="M1864.723,989.906c0,0-6.005-0.041-14.176-5.35c0,0,5.749,7.221,13.762,9.863
			C1864.308,994.418,1864.784,990.825,1864.723,989.906z"/>
	</g>
	<g>
		<polygon fill="#366E9C" points="1838.643,1171.217 1771.832,1182.127 1763.768,1132.717 1830.575,1121.807 		"/>
	</g>
	<g>
		<g>
			<g>
				<g>
					<g>
						<g>
							<path fill="#EEA886" d="M1792.551,1181.266c0,0-1.05-1.704-1.142-2.672c0,0-0.041-1.777-0.143-3.036
								c-0.036-0.4-0.072-0.748-0.123-0.968c-0.199-0.926-0.916-2.903-0.778-5.263c0.144-2.36,3.364-12.385,3.364-12.385
								l5.913,0.205l5.565-0.599c0,0,6.722,12.83,6.845,15.041c0.01,0.215,0.016,0.436,0,0.635c-0.077,1.884-0.926,3.251-1.08,4.239
								c-0.057,0.364-0.881,3.911-1.853,4.403c-1.352,0.676-2.565,0.594-3.461,0.077c0,0-2.708,1.214-4.633,0.692
								c0,0-2.457,1.193-4.669-0.144C1796.355,1181.492,1793.723,1182.429,1792.551,1181.266z"/>
						</g>
					</g>
				</g>
			</g>
		</g>
	</g>
	<g>
		<g>
			<path fill="#EDDAD3" d="M1827.841,1001.993c0,0-11.841-3.391-18.63,9.658c-6.783,13.05-6.748,18.621-7.659,24.989
				c-0.855,6.021-9.128,41.762-9.523,43.461c-0.389,1.694-3.113,24.037-3.307,32.167c-0.143,6.185,1.306,46.722,1.045,48.289
				c-0.262,1.567,18.743-2.745,18.743-2.745s-2.104-37.384-1.71-41.3c0.389-3.917,1.224-23.433,3.138-29.172
				c2.247-6.732,11.12-40.681,12.687-44.014C1824.191,1039.999,1837.824,1006.235,1827.841,1001.993z"/>
		</g>
	</g>
</g>
<g>
	<path fill="#C2BEBC" d="M1668.573,1736.23l-0.65-5.918c11.801-1.301,23.674-2.839,35.286-4.575l0.881,5.89
		C1692.403,1733.37,1680.452,1734.92,1668.573,1736.23z M1632.894,1739.493c-11.736,0.859-23.772,1.533-35.765,1.986l-0.231-5.947
		c11.927-0.456,23.893-1.123,35.563-1.974L1632.894,1739.493z M1739.401,1725.631l-1.114-5.844
		c11.585-2.209,23.297-4.681,34.813-7.354l1.347,5.799C1762.855,1720.92,1751.061,1723.414,1739.401,1725.631z M1561.308,1742.256
		c-12.269,0.033-24.337-0.299-35.856-0.994l0.355-5.946c11.4,0.686,23.34,1.021,35.486,0.988L1561.308,1742.256z M1809.173,1709.442
		l-1.575-5.745c11.22-3.074,22.708-6.453,34.147-10.052l1.785,5.684C1832.017,1702.944,1820.461,1706.342,1809.173,1709.442z
		 M1489.708,1737.782c-12.232-1.68-24.127-3.86-35.363-6.491l1.357-5.792c11.051,2.579,22.767,4.73,34.815,6.38L1489.708,1737.782z
		 M1877.501,1688.027l-1.968-5.621c10.604-3.711,21.555-7.705,33.474-12.216l2.108,5.572
		C1899.149,1680.285,1888.153,1684.297,1877.501,1688.027z M1419.788,1721.172c-11.635-4.171-22.758-9.02-33.057-14.427l2.766-5.27
		c10.057,5.274,20.922,10.016,32.301,14.095L1419.788,1721.172z M1944.451,1662.842l-2.183-5.533
		c4.818-1.899,9.584-3.788,14.299-5.656c6.392-2.53,12.69-5.025,18.919-7.468l2.175,5.543c-6.22,2.442-12.519,4.937-18.902,7.462
		C1954.04,1659.057,1949.273,1660.943,1944.451,1662.842z M2252.714,1626.491c-11.447-4.058-22.85-7.5-33.902-10.224l1.429-5.782
		c11.238,2.776,22.835,6.268,34.461,10.392L2252.714,1626.491z M2010.957,1637.011l-2.053-5.59
		c12.42-4.561,23.509-8.362,33.898-11.634l1.788,5.679C2034.291,1628.706,2023.288,1632.485,2010.957,1637.011z M2184.068,1609.756
		c-11.714-1.482-23.574-2.23-35.241-2.215l-0.007-5.957c11.919-0.01,24.031,0.753,35.999,2.261L2184.068,1609.756z
		 M2078.776,1616.044l-1.347-5.799c12.264-2.85,23.845-4.93,35.406-6.375l0.733,5.905
		C2102.219,1611.194,2090.833,1613.242,2078.776,1616.044z M1356.187,1687.452c-9.712-7.343-18.725-15.519-26.784-24.312
		l4.391-4.022c7.815,8.523,16.557,16.458,25.983,23.584L1356.187,1687.452z M1307.527,1634.308
		c-6.257-10.037-11.764-20.895-16.368-32.254l5.519-2.235c4.475,11.047,9.823,21.59,15.901,31.342L1307.527,1634.308z
		 M1280.219,1567.609c-2.702-11.332-4.744-23.304-6.057-35.571l5.919-0.637c1.289,12.022,3.286,23.739,5.929,34.827
		L1280.219,1567.609z M1278.252,1496.057l-5.953-0.002c0.006-11.718,0.589-23.82,1.728-35.962l5.926,0.555
		C1278.831,1472.607,1278.259,1484.523,1278.252,1496.057z M1284.792,1425.501l-5.859-1.069c3.89-21.413,8.005-34.636,8.178-35.187
		l5.68,1.778C1292.748,1391.156,1288.607,1404.479,1284.792,1425.501z"/>
</g>
</svg>
