<?xml version="1.0" encoding="utf-8"?>
<!-- Generator: Adobe Illustrator 18.0.0, SVG Export Plug-In . SVG Version: 6.00 Build 0)  -->
<!DOCTYPE svg PUBLIC "-//W3C//DTD SVG 1.1//EN" "http://www.w3.org/Graphics/SVG/1.1/DTD/svg11.dtd">
<svg version="1.1" id="Layer_1" xmlns="http://www.w3.org/2000/svg" xmlns:xlink="http://www.w3.org/1999/xlink" x="0px" y="0px"
	 viewBox="0 0 2848 1848" enable-background="new 0 0 2848 1848" xml:space="preserve">
<path opacity="0.5" fill="#007CFF" d="M2248.5,696l-1.3-39.3l24.1-7.9c1-13.4,3.2-26.7,6.4-39.5l-20.5-15.1l13.9-36.9l25.3,2
	c6-11.9,13.1-23.3,21.1-34l-13.1-21.9l27-28.8l22.6,11.6c10.2-8.7,20.9-16.5,32.4-23.4l-3.7-25.1l35.9-16.3l16.4,19.3
	c12.5-4.1,25.5-7.1,38.9-9.1l6.1-24.6l39.4-1.3l7.8,24.1c13.5,1.1,26.7,3.2,39.5,6.4l15.2-20.4l36.9,13.8l-2,25.3
	c11.9,6.1,23.3,13.2,34,21.2l21.8-13.1l28.9,26.8l-11.6,22.7c8.7,10.1,16.5,20.9,23.3,32.4l25.1-3.8l16.4,35.9l-19.4,16.5
	c4.1,12.5,7.2,25.6,9.1,39l24.7,6.2l1.3,39.3l-24.2,7.9c-1,13.5-3.2,26.7-6.4,39.5l20.5,15.1l-13.9,36.9l-25.3-2
	c-6,11.9-13.1,23.3-21.1,34l13.1,21.9l-27,28.8l-22.6-11.6c-10.1,8.7-20.9,16.5-32.4,23.4l3.8,25.1l-35.9,16.3l-16.5-19.3
	c-12.5,4.1-25.5,7.1-39,9.1l-6.1,24.6l-39.4,1.4l-7.8-24.1c-13.5-1.1-26.7-3.2-39.5-6.4l-15.1,20.4l-36.9-13.8l1.9-25.3
	c-12-6.1-23.2-13.2-34-21.2l-21.8,13.1l-28.9-26.8l11.6-22.7c-8.7-10.1-16.5-20.9-23.3-32.4l-25.1,3.8l-16.4-35.9l19.4-16.5
	c-4.1-12.5-7.2-25.5-9.1-38.9L2248.5,696z M2514.2,823.3c86.1-3,153.5-75.2,150.6-161.3c-3-86.2-75.2-153.6-161.3-150.7
	c-86.1,3-153.5,75.2-150.6,161.4C2355.9,758.9,2428.1,826.3,2514.2,823.3"/>
<path opacity="0.1" fill="#007CFF" d="M891.6,41.3c417.4-25.9,855.1,109.2,790.7,305.1c-64.3,195.9,343.9-69.6,506.8,1
	c116,50.3,69.6,203.4,125.7,265.1c128.7,141.4,245.4-54.3,419.3,137.4c131.4,144.8,86,897.6-365.6,1040.7l-1928.9-2l-134.5-22.2
	c0,0-387.3-226.9-110.3-436.2c187.3-141.5,52.5-244.3,32.2-309.1c-23.4-74.4-78-204.3,159.9-299.7
	c237.8-95.3,176.4-302.8,170.6-345.8C551.7,332.8,474.2,67.3,891.6,41.3L891.6,41.3z"/>
<g>
	<g>
		<path fill="#F47458" d="M440.3,1338.7c-48.1-71.7-59.7-159.9-61-221.3c-1.4-66.6,8.7-116.9,8.8-117.4l-3.3-1.1
			c-0.1,0.5-10.3,51.2-8.9,118.3c1.3,62,13.1,151.1,61.7,223.7L440.3,1338.7z"/>
	</g>
	<g>
		<path fill="#F47458" d="M398.9,987.4c-0.6,15.1-6.6,28-15.6,36.1c-8.3-10.2-13.3-24.4-12.7-39.5c0.6-15.1,6.6-28,15.6-36.1
			C394.5,958.1,399.5,972.3,398.9,987.4z"/>
	</g>
	<g>
		<path fill="#F47458" d="M369.4,1023.3c8.2,12.8,11.1,27.5,9.1,40.5c-11.9-2.5-23.6-10.6-31.8-23.4c-8.2-12.8-11.1-27.5-9.1-40.5
			C349.5,1002.4,361.2,1010.5,369.4,1023.3z"/>
	</g>
	<g>
		<path fill="#F47458" d="M353.4,1064.8c12.3,7.6,20.8,19.7,24.4,32.7c-11.3,3.8-24.7,2.2-36.9-5.4c-12.3-7.6-20.8-19.7-24.4-32.7
			C327.8,1055.7,341.2,1057.2,353.4,1064.8z"/>
	</g>
	<g>
		<path fill="#F47458" d="M360.8,1121.7c9.7,6,16,16.8,18,28.8c-9.7,4.7-20.9,4.6-30.6-1.5c-9.7-6-16-16.8-18-28.8
			C340,1115.5,351.1,1115.6,360.8,1121.7z"/>
	</g>
	<g>
		<path fill="#F47458" d="M397.6,1052.7c10.4-6.3,22.4-7,32.7-3.1c-2.3,11.5-9.1,21.9-19.5,28.2c-10.5,6.3-22.4,7-32.7,3.1
			C380.4,1069.4,387.2,1059,397.6,1052.7z"/>
	</g>
	<g>
		<path fill="#F47458" d="M397.8,1092.1c10.4-6.3,22.4-7,32.7-3.1c-2.3,11.5-9.1,21.9-19.6,28.2c-10.4,6.3-22.4,7-32.7,3.1
			C380.6,1108.9,387.4,1098.4,397.8,1092.1z"/>
	</g>
</g>
<g>
	<g>
		<path fill="#F47458" d="M390.8,1690.7C290,1654,219.5,1566.5,178.1,1499.5c-44.9-72.7-66.2-137.5-66.4-138.2l-4.5,1.8
			c0.2,0.7,21.7,66,66.9,139.2c41.8,67.6,113,156.1,215.1,193.2L390.8,1690.7z"/>
	</g>
	<g>
		<path fill="#F47458" d="M115.6,1337.7c9.2,17.3,10.8,36.9,5.9,54c-16-3.9-30.9-15.2-40.1-32.5c-9.2-17.3-10.8-36.9-5.9-54
			C91.6,1309.1,106.4,1320.5,115.6,1337.7z"/>
	</g>
	<g>
		<path fill="#F47458" d="M105.7,1403.9c17.5,6.9,30.4,20.7,36.6,36.9c-15,7.9-33.5,9.3-51.1,2.4c-17.5-6.9-30.4-20.7-36.6-36.9
			C69.7,1398.4,88.2,1397,105.7,1403.9z"/>
	</g>
	<g>
		<path fill="#F47458" d="M114.8,1464.2c18.8-2.5,36.3,3.3,48.8,14.5c-10.2,14.2-26.4,24.5-45.1,26.9c-18.8,2.5-36.3-3.3-48.8-14.5
			C79.9,1476.9,96,1466.7,114.8,1464.2z"/>
	</g>
	<g>
		<path fill="#F47458" d="M150.3,1522c18.8-2.5,36.3,3.3,48.8,14.5c-10.2,14.2-26.4,24.5-45.1,26.9c-18.8,2.5-36.3-3.3-48.8-14.5
			C115.4,1534.8,131.5,1524.5,150.3,1522z"/>
	</g>
	<g>
		<path fill="#F47458" d="M147.5,1432c1-18.3,8.6-34.7,19.8-46c10,10.9,15.7,27.1,14.7,45.4c-1,18.3-8.6,34.7-19.8,46
			C152.2,1466.5,146.5,1450.2,147.5,1432z"/>
	</g>
	<g>
		<path fill="#F47458" d="M184.6,1491.8c0.8-18.3,8.1-34.9,19.2-46.3c10.1,10.7,16.2,26.8,15.4,45.1c-0.8,18.3-8.1,34.9-19.2,46.3
			C189.8,1526.2,183.8,1510.1,184.6,1491.8z"/>
	</g>
	<g>
		<path fill="#F47458" d="M210.9,1581.8c7.2-3.8,15-3.9,21.7-1c-2,7.5-7,14.1-14.1,17.9c-7.2,3.8-15,3.9-21.7,1
			C198.8,1592.2,203.8,1585.6,210.9,1581.8z"/>
	</g>
</g>
<path fill="#007CFF" d="M655.3,1606c0,0,78.4-173,52.2-211.6c-36.2-53.3-81.2,110.4-83.4,96c-20.7-135.9-16.4-307.2-113.4-333.2
	c-55.1-14.8,3.6,128-3.2,164.8c-6.8,36.8-98.5-94.5-155-164c-56.5-69.5-91.1-31.1-58.3,53.1c31.7,81.5,146.3,177,120.7,185.2
	c-25.7,8.2-169.6-105.4-191.3-63.5c-26.6,51.3,195.1,141.9,172.9,152.1c-22.2,10.2-127.9-37.8-127.9,3.1s146,51.1,142.2,68.7
	c-6.1,28.6-97.8-44.6-105-4.9c-7.3,40.6,124.5,43.7,119.9,75.4c-2.6,18.3-35.8-0.9-41.8,24.2c-13.7,57.2,194,137.4,194,137.4
	L655.3,1606z"/>
<g>
	<g>
		<g>
			<path fill="#F47458" d="M550.7,1725.8l3-2.6c-68.5-83.4-97.7-188-110.2-261.1c-13.5-79.3-10.8-139.5-10.8-140.1l-4.2-0.7
				c0,0.6-2.8,61.3,10.8,141C452,1536,481.5,1641.5,550.7,1725.8z"/>
		</g>
		<g>
			<path fill="#F47458" d="M441.9,1308.8c2,18-2.6,33.6-11.6,43.6c-11.5-11.8-19.8-28.5-21.8-46.5c-2-18,2.6-33.6,11.6-43.6
				C431.6,1274.1,439.9,1290.8,441.9,1308.8z"/>
		</g>
		<g>
			<path fill="#F47458" d="M415.2,1350.7c11.7,14.9,17.8,32.3,17.8,47.8c-14.2-2.5-29.3-11.7-41-26.5
				c-11.7-14.9-17.8-32.3-17.8-47.8C388.5,1326.7,403.5,1335.9,415.2,1350.7z"/>
		</g>
		<g>
			<path fill="#F47458" d="M404.2,1400.8c15.5,8.6,27.6,22.7,34.1,37.9c-12.4,4.9-28.2,3.6-43.7-4.9c-15.5-8.6-27.6-22.6-34.1-37.9
				C372.8,1391,388.6,1392.3,404.2,1400.8z"/>
		</g>
		<g>
			<path fill="#F47458" d="M432,1483.3c6.7,3.1,12.2,8.7,15.3,14.9c-5,2.5-11.6,2.5-18.3-0.6c-6.7-3.1-12.2-8.7-15.3-14.9
				C418.7,1480.2,425.3,1480.2,432,1483.3z"/>
		</g>
		<g>
			<path fill="#F47458" d="M440.4,1514.1c6.7,3.1,12.2,8.7,15.3,14.9c-5,2.5-11.6,2.5-18.3-0.6c-6.7-3.1-12.2-8.7-15.3-14.9
				C427.1,1510.9,433.7,1511,440.4,1514.1z"/>
		</g>
		<g>
			<path fill="#F47458" d="M453.1,1384.6c11-7.9,24.6-9.3,37.3-5.1c-0.6,13.7-6.6,26.5-17.6,34.3c-11,7.9-24.6,9.3-37.3,5.1
				C436.2,1405.2,442.2,1392.5,453.1,1384.6z"/>
		</g>
		<g>
			<path fill="#F47458" d="M460.4,1431.5c11-7.9,24.6-9.3,37.3-5.1c-0.6,13.7-6.6,26.5-17.6,34.3c-11,7.9-24.6,9.3-37.3,5.1
				C443.5,1452.1,449.5,1439.4,460.4,1431.5z"/>
		</g>
		<g>
			<path fill="#F47458" d="M465.2,1499.2c7.1-5.1,16-6,24.3-3.3c-0.4,8.9-4.3,17.2-11.4,22.4c-7.1,5.1-16,6-24.3,3.3
				C454.2,1512.7,458.1,1504.4,465.2,1499.2z"/>
		</g>
	</g>
</g>
<path opacity="0.5" fill="#007CFF" d="M596.4,1786.4c0,0-100.1-128.6-142-148.3c-44.6-21-5.9,51.7-5.9,51.7s-95.4-93.7-117.8-70.3
	c-22.4,23.4,1.5,45.3,1.5,45.3s-79.9-14.8-91.5,15.1c-17.9,46,113.4,68.8,113.4,68.8s-62.9-13.8-50.3,14.7
	C322.8,1806.4,596.4,1786.4,596.4,1786.4z"/>
<g opacity="0.5">
	<g>
		<path fill="#007CFF" d="M579.9,1787.3c0,0,158.8,11.2,189.8-17.2c30.9-28.4,0.2-80,0.2-80s54.5-43.1,53.7-71.2
			c-0.9-28.1-36.4-13.9-36.4-13.9s60.2-77.5,45.9-92.2c-26.6-27.5-96.2,53.1-96.2,53.1s20.7-38.3-1.1-44.4
			c-32.9-9.2-57,85.3-57,85.3s6.1-37.3-16.5-32.4C621.7,1583.3,579.9,1787.3,579.9,1787.3z"/>
	</g>
</g>
<path opacity="0.5" fill="#007CFF" d="M2154.3,1346.7l12.9-31.2c10-23,35.6-33.9,57.1-24.5l0,0c54.3,23.8,77.9,90,52.7,147.9
	l-18.4,42.3c-8.1,18.5-5.3,38.9,5.6,53.3c9.9,13.1,11.5,31.2,4.6,47l-9.7,22.3c-10.5,24.2-31,42-55.2,49.4
	c-14.2,4.3-26.7,15-33.3,30.2l-13.7,31.6c-15.2,34.9-54.1,51.6-86.8,37.3l-18.7-8.2c-32.8-14.4-47-54.3-31.8-89.2l0,0
	c24.6-41.8,22.6-72.9,13.9-94.1c-12.8-31.1-12.7-66.9,1.2-98.7l1.9-4.5c14.6-33.6,42.8-58.7,76.5-69.4
	C2127.8,1383.4,2143.3,1371.8,2154.3,1346.7z"/>
<path fill="#007CFF" d="M1920.2,1785.4c26.4-34.3,172.8-216.4,267-247c104-33.8,6,100.4,6,100.4s184.5-202.5,252.2-184.2
	c62.1,16.7,0,142.2,0,142.2s69.9-69.5,154.7-69.5c82.5,0-62,250.2-69.5,263.3l-402-0.8L1920.2,1785.4z"/>
<g>
	<g>
		<path fill="#F47458" d="M2478.5,1394.5c-75.4,118.1-130.3,255.2-161.8,394.7l-7.5-0.1c31.3-136.5,88.2-274.7,163.4-392.7
			c17.5-27.4,36.4-60,69.1-70.7c0.6-0.2,0.9,0.8,0.3,1C2512.2,1338,2494.8,1368.8,2478.5,1394.5z"/>
	</g>
	<g>
		<path fill="#F47458" d="M2333.8,1789.4c84.2-115,187.6-222.4,309.4-314.8c1.2-0.9,2.9,1.2,1.6,2.1
			c-115.5,89.1-217.3,193.8-303.3,312.7L2333.8,1789.4z"/>
	</g>
	<path fill="#F47458" d="M2485.4,1321.2c1.9,2.9,9.4,10.3,11.6,20.1c2.9,9.3,0.6,21,0.4,20.6c-0.6,0.2,8.6-7.5,11.5-19.9
		c3.7-11.8,1.1-28.3-3.5-33.7c-8-12.3-21.9-13.6-24.6-7.6C2477.8,1306.6,2481.4,1314.7,2485.4,1321.2z"/>
	<path fill="#F47458" d="M2503.4,1426.7c-2.8-2-10.1-9.6-19.8-12c-9.2-3.1-20.9-1-20.5-0.8c-0.2,0.6,7.7-8.5,20-11.1
		c11.9-3.5,28.2-0.6,33.5,4.2c12.1,8.2,13.1,22.2,7.1,24.8C2517.8,1434.5,2509.8,1430.7,2503.4,1426.7z"/>
	<path fill="#F47458" d="M2476.2,1472.9c-2.8-2-10.1-9.6-19.8-12c-9.2-3.1-20.9-1-20.5-0.8c-0.2,0.6,7.7-8.5,20-11.1
		c11.9-3.5,28.2-0.6,33.5,4.2c12.1,8.2,13.1,22.2,7.1,24.8C2490.6,1480.8,2482.6,1476.9,2476.2,1472.9z"/>
	<path fill="#F47458" d="M2573.3,1580.1c-2.8-2-10.1-9.6-19.8-12c-9.2-3.1-20.9-1-20.5-0.8c-0.2,0.6,7.7-8.5,20-11.1
		c11.9-3.5,28.2-0.6,33.5,4.2c12.1,8.2,13.1,22.2,7.1,24.8C2587.6,1588,2579.7,1584.2,2573.3,1580.1z"/>
	<path fill="#F47458" d="M2622.9,1536.3c-2.8-2-10.1-9.6-19.8-12c-9.2-3.1-20.9-1-20.5-0.8c-0.2,0.6,7.7-8.5,20-11.1
		c11.9-3.5,28.2-0.6,33.5,4.2c12.1,8.2,13.1,22.2,7.1,24.8C2637.2,1544.1,2629.3,1540.3,2622.9,1536.3z"/>
	<path fill="#F47458" d="M2447.3,1373.5c2.4,2.5,10.9,8.7,14.6,18.1c4.4,8.7,3.9,20.6,3.6,20.2c-0.5,0.3,7.3-8.8,8.2-21.5
		c1.8-12.3-3.3-28.1-8.8-32.8c-9.8-10.9-23.7-9.9-25.4-3.6C2437.5,1360.3,2442.4,1367.7,2447.3,1373.5z"/>
	<path fill="#F47458" d="M2407.2,1425.9c3.4,1.8,15.1,5,21.1,13.9c6.7,7.9,7.5,21.3,7.1,21c-0.6,0.6,8.4-13,8-27.5
		c0.8-14.5-7.7-29.9-15.3-32.8c-14-7.9-31.9-0.9-33.4,6.9C2393,1415.4,2400.2,1421.6,2407.2,1425.9z"/>
	<path fill="#F47458" d="M2365.1,1505.3c3.6,1.2,15.8,2.4,23.1,10.1c7.9,6.6,11,19.7,10.5,19.5c-0.5,0.7,6.1-14.2,3.3-28.4
		c-1.6-14.4-12.6-28.2-20.6-29.7c-15.1-5.5-31.6,4.5-31.7,12.5C2349.3,1497.3,2357.5,1502.2,2365.1,1505.3z"/>
	<path fill="#F47458" d="M2489.8,1560.6c2.6,1.7,12,5,16.3,12.5c5,6.8,4.9,17.8,4.6,17.5c-0.5,0.4,7.6-10.1,8.1-21.9
		c1.5-11.7-4.6-24.8-10.6-27.5c-10.9-7.3-25.9-2.5-27.5,3.7C2478.8,1551.3,2484.3,1556.7,2489.8,1560.6z"/>
	<path fill="#F47458" d="M2554.7,1339.8c-1.6-1.3-5.6-6.1-11.2-8c-5.3-2.3-12.3-1.5-12.1-1.4c-0.2,0.3,4.9-4.7,12.3-5.7
		c7.2-1.5,16.7,0.9,19.7,3.9c6.8,5.4,6.8,13.7,3.1,15C2562.8,1345.1,2558.3,1342.5,2554.7,1339.8z"/>
	<path fill="#F47458" d="M2539.6,1306.1c0.1,2.1,1.4,8.2-0.6,13.8c-1.5,5.6-6.3,10.7-6.3,10.4c-0.4-0.1,6.7-1,12-6.3
		c5.6-4.8,9.5-13.8,8.9-18c-0.1-8.7-6.7-13.7-9.9-11.6C2540.4,1296.4,2539.7,1301.6,2539.6,1306.1z"/>
	<path fill="#F47458" d="M2658.6,1491.6c-1.6-1.3-5.6-6.1-11.2-8c-5.3-2.3-12.3-1.5-12.1-1.4c-0.2,0.3,4.9-4.7,12.3-5.7
		c7.2-1.5,16.7,0.9,19.7,3.9c6.8,5.4,6.8,13.7,3.1,15C2666.7,1496.9,2662.2,1494.3,2658.6,1491.6z"/>
	<path fill="#F47458" d="M2640.3,1457.6c0.2,2,2.1,8,0.6,13.8c-1,5.7-5.4,11.2-5.4,10.9c-0.4,0,6.6-1.6,11.5-7.3
		c5.2-5.2,8.3-14.6,7.4-18.7c-0.8-8.7-7.8-13.1-10.8-10.8C2640.4,1447.8,2640.1,1453.1,2640.3,1457.6z"/>
</g>
<g>
	<path fill="#F47458" d="M2556.7,1653.3c0.5,3.2,3.8,12.4,1.8,21.5c-1.2,9-7.7,17.8-7.8,17.4c-0.6,0,10.2-2.9,17.4-12.1
		c7.8-8.5,12.1-23.3,10.3-29.7c-1.8-13.5-13-20-17.6-16.1C2556.1,1638.1,2556,1646.3,2556.7,1653.3z"/>
	<path fill="#F47458" d="M2488.9,1677.7c0.5,3.2,3.8,12.4,1.8,21.5c-1.2,9-7.7,17.8-7.8,17.4c-0.6,0,10.2-2.9,17.4-12.1
		c7.8-8.5,12.1-23.3,10.3-29.7c-1.8-13.5-13-20-17.6-16.1C2488.3,1662.5,2488.2,1670.7,2488.9,1677.7z"/>
	<path fill="#F47458" d="M2420,1708.5c0.5,3.2,3.8,12.4,1.8,21.5c-1.2,9-7.7,17.8-7.8,17.4c-0.6,0,10.2-2.9,17.4-12.1
		c7.8-8.5,12.1-23.3,10.3-29.7c-1.8-13.5-13-20-17.6-16.1C2419.4,1693.3,2419.2,1701.5,2420,1708.5z"/>
	<path fill="#F47458" d="M2576.9,1716.9c-1.4-2.6-4.1-11.2-10.6-16.8c-5.9-5.9-15.6-8.8-15.4-8.5c-0.4,0.3,9.1-3.5,19.6-0.8
		c10.4,1.9,21.8,10.4,24.1,16.1c6.1,10.9,1.6,22-4,21.7C2585,1728.4,2580.3,1722.5,2576.9,1716.9z"/>
	<path fill="#F47458" d="M2506.4,1741.9c-1.4-2.6-4.1-11.2-10.6-16.8c-5.9-5.9-15.6-8.8-15.4-8.5c-0.4,0.3,9.1-3.5,19.6-0.8
		c10.4,1.9,21.8,10.4,24.1,16.1c6.1,10.9,1.6,22-4,21.7C2514.4,1753.5,2509.8,1747.5,2506.4,1741.9z"/>
	<path fill="#F47458" d="M2630.7,1691.1c-1.2-1.5-4-6.5-8.9-9.1c-4.5-2.9-11-3.5-10.8-3.3c-0.2,0.3,5.3-3.4,12.2-3.1
		c6.8-0.2,15.1,3.6,17.3,6.9c5.3,6.1,3.9,13.6,0.3,14.2C2637.2,1697.3,2633.5,1694.1,2630.7,1691.1z"/>
	<path fill="#F47458" d="M2622.5,1657.8c-0.3,1.9-0.1,7.7-2.8,12.5c-2.3,4.9-7.5,8.7-7.5,8.4c-0.3-0.1,6.3,0.2,12-3.8
		c5.9-3.4,10.9-11,11.1-14.9c1.4-7.9-3.8-13.6-7.1-12.2C2624.9,1649.1,2623.4,1653.7,2622.5,1657.8z"/>
	<path fill="#F47458" d="M2626,1676.6c-21.7,2-43.2,6-64.3,11.5c-38.5,10.1-75.5,25.1-111.9,40.9c-17.9,7.8-35.9,15.5-53.5,24.1
		c-8.2,4-16.5,8-24,13.1c-10.2,6.9-26.1,20.8-28,22.9l8.4,0.2c5.7-4.7,26.7-22.4,55.8-36.4c69-33.3,140.7-67.3,217.7-75.8
		C2626.5,1677.2,2626.4,1676.6,2626,1676.6z"/>
</g>
<path fill="#007CFF" d="M797.4,1790.9c-12.6,0-22.9-10.2-22.9-22.9l-0.8-999.7c0-19.5,15.8-35.4,35.4-35.4l1283.3-1.1
	c19.5,0,35.4,15.8,35.4,35.4l0.8,999.7c0,12.6-10.2,22.9-22.9,22.9L797.4,1790.9z"/>
<path fill="#FFFFFF" d="M2088.1,1779.2l-1276.7,1c-16.6,0-30-13.5-30-30.2l1.1-978.3c0-16.7,13.4-30.2,30-30.2l1276.7-1
	c16.6,0,30,13.5,30,30.2l-1.1,978.3C2118.1,1765.7,2104.7,1779.2,2088.1,1779.2z"/>
<path fill="#D1D1D1" d="M1081,1046l-188.8,0.2c-11.6,0-20.9-9.3-20.9-20.9l0,0c0-11.6,9.4-20.9,20.9-20.9l188.8-0.2
	c11.6,0,20.9,9.3,20.9,20.9l0,0C1101.9,1036.7,1092.5,1046,1081,1046z"/>
<path fill="#D1D1D1" d="M1185.4,1473.3l-292.9,0.2c-11.6,0-20.9-9.3-20.9-20.9l0,0c0-11.6,9.3-20.9,20.9-20.9l292.9-0.2
	c11.6,0,20.9,9.3,20.9,20.9l0,0C1206.3,1463.9,1197,1473.3,1185.4,1473.3z"/>
<path fill="#D1D1D1" d="M1072.2,1534.4l-179.7,0.1c-11.6,0-20.9-9.3-20.9-20.9l0,0c0-11.6,9.3-20.9,20.9-20.9l179.7-0.1
	c11.6,0,20.9,9.3,20.9,20.9l0,0C1093.2,1525,1083.8,1534.4,1072.2,1534.4z"/>
<g opacity="0.3">
	<path fill="#007CFF" d="M1455,923.6l-563,0.5c-11.6,0-20.9-9.3-20.9-20.9l0,0c0-11.6,9.3-20.9,20.9-20.9l563-0.5
		c11.6,0,20.9,9.3,20.9,20.9l0,0C1476,914.3,1466.6,923.6,1455,923.6z"/>
	<path fill="#007CFF" d="M1331.7,984.8l-439.6,0.4c-11.6,0-20.9-9.3-20.9-20.9l0,0c0-11.6,9.3-20.9,20.9-20.9l439.6-0.4
		c11.6,0,20.9,9.3,20.9,20.9l0,0C1352.6,975.4,1343.2,984.8,1331.7,984.8z"/>
	<path fill="#007CFF" d="M1239.7,1107l-347.6,0.3c-11.6,0-20.9-9.4-20.9-20.9l0,0c0-11.6,9.3-20.9,20.9-20.9l347.6-0.3
		c11.6,0,20.9,9.3,20.9,20.9l0,0C1260.7,1097.6,1251.3,1107,1239.7,1107z"/>
	<path fill="#007CFF" d="M1404.5,1106.8l-103.7,0.1c-11.6,0-20.9-9.3-20.9-20.9l0,0c0-11.6,9.3-20.9,20.9-20.9l103.7-0.1
		c11.6,0,20.9,9.3,20.9,20.9l0,0C1425.5,1097.4,1416.1,1106.8,1404.5,1106.8z"/>
	<path fill="#007CFF" d="M1567.4,1106.7l-103.7,0.1c-11.6,0-20.9-9.3-20.9-20.9l0,0c0-11.6,9.3-20.9,20.9-20.9l103.7-0.1
		c11.6,0,20.9,9.3,20.9,20.9l0,0C1588.3,1097.3,1578.9,1106.7,1567.4,1106.7z"/>
	<path fill="#007CFF" d="M1499.5,984.7l-103.7,0.1c-11.6,0-20.9-9.3-20.9-20.9l0,0c0-11.6,9.3-20.9,20.9-20.9l103.7-0.1
		c11.6,0,20.9,9.3,20.9,20.9l0,0C1520.4,975.3,1511.1,984.6,1499.5,984.7z"/>
	<path fill="#007CFF" d="M1662.7,984.5l-103.7,0.1c-11.6,0-20.9-9.3-20.9-20.9l0,0c0-11.6,9.3-20.9,20.9-20.9l103.7-0.1
		c11.6,0,20.9,9.3,20.9,20.9l0,0C1683.6,975.1,1674.2,984.5,1662.7,984.5z"/>
	<path fill="#007CFF" d="M1828.7,984.4l-103.7,0.1c-11.6,0-20.9-9.3-20.9-20.9l0,0c0-11.6,9.3-20.9,20.9-20.9l103.7-0.1
		c11.6,0,20.9,9.3,20.9,20.9l0,0C1849.6,975,1840.2,984.4,1828.7,984.4z"/>
	<path fill="#007CFF" d="M1726.4,1106.6l-103.7,0.1c-11.6,0-20.9-9.3-20.9-20.9l0,0c0-11.6,9.3-20.9,20.9-20.9l103.7-0.1
		c11.6,0,20.9,9.3,20.9,20.9l0,0C1747.3,1097.2,1738,1106.6,1726.4,1106.6z"/>
	<path fill="#007CFF" d="M1885.4,1106.4l-103.7,0.1c-11.6,0-20.9-9.3-20.9-20.9l0,0c0-11.6,9.3-20.9,20.9-20.9l103.7-0.1
		c11.6,0,20.9,9.3,20.9,20.9l0,0C1906.3,1097,1896.9,1106.4,1885.4,1106.4z"/>
	<path fill="#007CFF" d="M1774.5,1167.6l-882.3,0.7c-11.6,0-20.9-9.3-20.9-20.9l0,0c0-11.6,9.3-20.9,20.9-20.9l882.3-0.7
		c11.6,0,20.9,9.3,20.9,20.9l0,0C1795.5,1158.2,1786.1,1167.6,1774.5,1167.6z"/>
	<path fill="#007CFF" d="M1385.6,1228.9l-493.3,0.4c-11.6,0-20.9-9.3-20.9-20.9l0,0c0-11.6,9.3-20.9,20.9-20.9l493.3-0.4
		c11.6,0,20.9,9.3,20.9,20.9l0,0C1406.5,1219.5,1397.1,1228.9,1385.6,1228.9z"/>
	<path fill="#007CFF" d="M1311.9,1290l-419.5,0.3c-11.6,0-20.9-9.3-20.9-20.9l0,0c0-11.6,9.3-20.9,20.9-20.9l419.5-0.3
		c11.6,0,20.9,9.3,20.9,20.9l0,0C1332.8,1280.7,1323.4,1290,1311.9,1290z"/>
	<path fill="#007CFF" d="M1634.4,1289.8l-266.7,0.2c-11.6,0-20.9-9.3-20.9-20.9l0,0c0-11.6,9.3-20.9,20.9-20.9l266.7-0.2
		c11.6,0,20.9,9.3,20.9,20.9l0,0C1655.4,1280.4,1646,1289.8,1634.4,1289.8z"/>
	<path fill="#007CFF" d="M1957,1289.5l-266.7,0.2c-11.6,0-20.9-9.3-20.9-20.9l0,0c0-11.6,9.3-20.9,20.9-20.9l266.7-0.2
		c11.6,0,20.9,9.3,20.9,20.9l0,0C1977.9,1280.1,1968.6,1289.5,1957,1289.5z"/>
	<path fill="#007CFF" d="M1565.2,1350.9l-672.8,0.6c-11.6,0-20.9-9.3-20.9-20.9l0,0c0-11.6,9.3-20.9,20.9-20.9l672.8-0.6
		c11.6,0,20.9,9.3,20.9,20.9l0,0C1586.1,1341.5,1576.8,1350.9,1565.2,1350.9z"/>
	<path fill="#007CFF" d="M1805,1350.7l-182.1,0.1c-11.6,0-20.9-9.3-20.9-20.9l0,0c0-11.6,9.3-20.9,20.9-20.9l182.1-0.1
		c11.6,0,20.9,9.3,20.9,20.9l0,0C1825.9,1341.3,1816.6,1350.7,1805,1350.7z"/>
	<path fill="#007CFF" d="M1432.9,1412l-540.5,0.4c-11.6,0-20.9-9.3-20.9-20.9l0,0c0-11.6,9.4-20.9,20.9-20.9l540.5-0.4
		c11.6,0,20.9,9.3,20.9,20.9l0,0C1453.8,1402.6,1444.5,1412,1432.9,1412z"/>
	<path fill="#007CFF" d="M1620,1411.9l-129.3,0.1c-11.6,0-20.9-9.3-20.9-20.9l0,0c0-11.6,9.3-20.9,20.9-20.9l129.3-0.1
		c11.6,0,20.9,9.3,20.9,20.9l0,0C1640.9,1402.5,1631.6,1411.9,1620,1411.9z"/>
	<path fill="#007CFF" d="M1234.7,1534.3l-102.3,0.1c-11.6,0-20.9-9.3-20.9-20.9l0,0c0-11.6,9.3-20.9,20.9-20.9l102.3-0.1
		c11.6,0,20.9,9.3,20.9,20.9v0C1255.6,1524.9,1246.3,1534.3,1234.7,1534.3z"/>
	<path fill="#007CFF" d="M1395.1,1534.1l-102.3,0.1c-11.6,0-20.9-9.3-20.9-20.9l0,0c0-11.6,9.3-20.9,20.9-20.9l102.3-0.1
		c11.6,0,20.9,9.3,20.9,20.9l0,0C1416,1524.8,1406.6,1534.1,1395.1,1534.1z"/>
	<path fill="#007CFF" d="M1556.8,1534l-102.3,0.1c-11.6,0-20.9-9.3-20.9-20.9l0,0c0-11.6,9.3-20.9,20.9-20.9l102.3-0.1
		c11.6,0,20.9,9.3,20.9,20.9l0,0C1577.7,1524.6,1568.4,1534,1556.8,1534z"/>
	<path fill="#007CFF" d="M1375.9,1595.2l-483.3,0.4c-11.6,0-20.9-9.3-20.9-20.9l0,0c0-11.6,9.4-20.9,20.9-20.9l483.3-0.4
		c11.6,0,20.9,9.3,20.9,20.9l0,0C1396.8,1585.8,1387.4,1595.2,1375.9,1595.2z"/>
	<path fill="#007CFF" d="M1599.1,1595l-166.3,0.1c-11.6,0-20.9-9.3-20.9-20.9l0,0c0-11.6,9.3-20.9,20.9-20.9l166.3-0.1
		c11.6,0,20.9,9.3,20.9,20.9l0,0C1620,1585.6,1610.6,1595,1599.1,1595z"/>
	<path fill="#007CFF" d="M1819.9,1594.8l-166.3,0.1c-11.6,0-20.9-9.3-20.9-20.9l0,0c0-11.6,9.3-20.9,20.9-20.9l166.3-0.1
		c11.6,0,20.9,9.3,20.9,20.9l0,0C1840.8,1585.5,1831.5,1594.8,1819.9,1594.8z"/>
	<path fill="#007CFF" d="M1151.8,1656.4l-259.2,0.2c-11.6,0-20.9-9.3-20.9-20.9l0,0c0-11.6,9.3-20.9,20.9-20.9l259.2-0.2
		c11.6,0,20.9,9.3,20.9,20.9l0,0C1172.7,1647.1,1163.4,1656.4,1151.8,1656.4z"/>
	<path fill="#007CFF" d="M1312.2,1656.3l-102.1,0.1c-11.6,0-20.9-9.3-20.9-20.9l0,0c0-11.6,9.3-20.9,20.9-20.9l102.1-0.1
		c11.6,0,20.9,9.3,20.9,20.9l0,0C1333.1,1646.9,1323.7,1656.3,1312.2,1656.3z"/>
	<path fill="#007CFF" d="M1470.2,1656.2l-102.1,0.1c-11.6,0-20.9-9.3-20.9-20.9l0,0c0-11.6,9.3-20.9,20.9-20.9l102.1-0.1
		c11.6,0,20.9,9.3,20.9,20.9l0,0C1491.1,1646.8,1481.7,1656.2,1470.2,1656.2z"/>
</g>
<polygon fill="#0E2E35" points="594.3,1801.5 573.6,1801.5 650.7,1400.6 667.9,1403.9 "/>
<polygon fill="#0E2E35" points="1165.1,1799.7 1182.3,1796.4 1108,1400.6 1090.7,1403.9 "/>
<polygon fill="#0E2E35" points="973.3,1801.5 952.6,1801.5 1029.7,1400.6 1047,1403.9 "/>
<polygon fill="#0E2E35" points="782.9,1801.5 799.7,1801.7 725.8,1402.4 708.5,1405.7 "/>
<path fill="#FAE0B2" d="M858,860.8c-68.2,7.3-156.4,15-244.9,165.8c-96.8,164.8-45.8,410.9,30.5,479.3
	c76.4,68.4,325.8,152.9,535.5,26.4c0,0,126.6-76.6,61.6-203.8c-100-195.7-85.9-236.5-130.6-313.2
	C1065.5,938.7,1002.7,845.2,858,860.8z"/>
<path fill="#F7CC7F" d="M613.1,1026.6c60.4-102.9,120.7-139.2,174.6-154.1c-20.8,21.6-41.9,49.5-63.1,85.4
	c-96.8,164.8-45.8,410.9,30.5,479.3c67.7,60.7,271.6,133.9,463.1,61.6c-19.7,21.9-39,33.6-39,33.6c-209.7,126.4-459.2,42-535.5-26.4
	C567.3,1437.5,516.3,1191.4,613.1,1026.6z"/>
<polygon fill="#F79C8D" points="1076.8,1111.2 1094.3,1164 1040.9,1142.9 "/>
<path fill="#F78B81" d="M1021.8,954.3c3.6,0.1,13.3,3.4,27.6,30.4c18.2,34.4,44.8,138.4,44.8,138.4l-79.5,29.6l-10.2-21.7
	l-16.8-167.1C987.7,963.9,1020.8,954.3,1021.8,954.3z"/>
<path fill="#F47458" d="M916.7,939.3c22.7,0,78.9,6.7,105,15c0,0,19.2,164.7-17.3,289.9c-8.2,28,6.7,116.2,6.7,116.2l-235.4-3.1
	c0,0,27.9-213.1,17.4-247.5c-10.5-34.4-10.8-154.4-10.8-154.4s1.6-0.3,52.9-9.1C859.3,942.2,892.5,939.3,916.7,939.3z"/>
<path fill="#F7A491" d="M889.3,1666.2c0,0,5.2,60.1,14.8,76.8c9.6,16.6-0.5,44.9-1,48.8c-0.5,3.9-20.2,9.4-51.4,6.1
	c-31.2-3.3-30.7-10.5-28.2-22.2c2.5-11.7,19.2-26.6,20.2-37.7c1-11.1-9.6-51.1-9.6-51.1L889.3,1666.2z"/>
<path fill="#15424C" d="M984.7,1310.8c0,0,162.5-9,198.8,13c36.3,22-6.6,67.1-6.6,67.1s-132.3,57.5-353.8,70.3
	c-52.5,3-57-136.8-47.2-148.3C785.8,1301.3,984.7,1310.8,984.7,1310.8z"/>
<path fill="#184655" d="M847.8,1802.5c-32.2-3.4-28.2-19.2-25.6-31.2c1.6-7.5,10.9-16.4,16.4-24.7c2.9,2.3,7.6,6.3,21.5,10.5
	c14.5,4.3,34.4-4.2,47.1-9.5c4.5,16.8,4.7,38.3,4.3,41.5C910.9,1793,880,1806,847.8,1802.5z"/>
<path fill="#184655" d="M865.5,1427.1c6.5,49.1,38.6,293.7,38.6,293.7l-74.6,9.2c0,0-91.7-319.3-87-368.1c4.7-48.8,39-52.9,39-52.9
	S848.4,1297,865.5,1427.1z"/>
<path fill="#F7A491" d="M779.9,973.7c22-8.3,32.8,190.1,35.7,271.7c39,3.8,106.9,0,123.8-1.2c8-0.6,26.3-7.3,34.2-8.4
	c8.1-1.1,15.5-1.6,19.4-0.9c1.5,0.3,42.1,16.9,45.6,20.5c4.3,4.5,16,15.9,14,20.8c-2,4.9-22.4-13.7-22.4-13.7l-10-5.6
	c12.4,12.2,36.2,28.2,32.7,34c-3.3,5.7-24.7-10.6-40-21.6c13.1,11.8,29.3,33,25.6,36.3c-3.4,3-21.9-21.5-41.6-28.6
	c-7.3-2.6-14.6,4.6-20.4,5.5c-4.2,0.6-10.8,2-14.9,0.8l-21.4-6.1c-7.3,0.7-7.5,5-14.8,6.5c-8.5,1.8-22.6,3.7-33.4,6.4
	c-62.7,15.3-83.6,22.4-102.7,22.4C731.2,1312.6,727.9,993.2,779.9,973.7z"/>
<path fill="#F78B81" d="M738.1,1159.9c-4.1-83.6-3.5-186.7,43.4-204.3c18.5-6.9,51.1,34.8,45.2,206
	C801.7,1163.7,765,1165.4,738.1,1159.9z"/>
<polygon fill="#F79C8D" points="1000.4,1124 995.6,1124 923.8,1300.5 928.7,1299.8 "/>
<path fill="#F7A491" d="M1107.4,1717.6c0,0-6.5,20.9,5.1,34.7c11.7,13.8,60.1,27.3,66.4,34.8c6.4,7.5,5.9,13.8,5.9,13.8l-135.9-3.7
	l1.5-41l6.3-29.5L1107.4,1717.6z"/>
<path fill="#184655" d="M1121,1759.1c0,0-34.9,14.1-51.8,5.8c-16.9-8.4-16.4-10.7-21.2-7.6c-4.9,3.1-6.6,41.6-6.6,41.6l152.8,4.5
	c10.6-0.2,16-8.1,7.4-14.8c-5.9-4.6-12.8-7.7-16.7-9.9C1173,1771.9,1121,1759.1,1121,1759.1z"/>
<path fill="#184655" d="M1102.3,1349.3c10.5-22.1,34.4-50.9,76.4-33.6c40.1,16.5,50.9,57.2,38.2,98.8
	c-12.7,41.6-95.9,286.2-98.8,319.9l-66.5,0.4c0,0,12.1-193.7,15.1-240.5C1069.5,1449.3,1084.1,1387.6,1102.3,1349.3z"/>
<path fill="#D8D4D4" d="M1210.2,1124H988c-5.9,0-11.2,3.6-13.4,9l-68.4,167.5H783.6c-3.4,0-6.2,2.8-6.2,6.2l0,0
	c0,3.4,2.8,6.2,6.2,6.2h348.8c9.6,0,18.3-5.6,22.2-14.4l68.9-154C1227.8,1134.9,1220.8,1124,1210.2,1124z"/>
<path fill="#FFFFFF" d="M1090.6,1221.5c-1.5,7.5-8,12.6-14.6,11.2c-6.6-1.3-10.7-8.5-9.2-16c1.5-7.5,8-12.6,14.6-11.2
	C1088,1206.8,1092.1,1214,1090.6,1221.5z"/>
<path fill="#1A2E35" d="M969.6,738.1c-6.7-2.3-13.3-4.8-19.7-7.9c-7.2-3.5-16.5-7.5-22.4-8.4c-12.4-1.9-33.7-0.6-45.5,12.1
	c-14.7,15.9-40.7,2.9-35.5,86.2c5.9,94.3,58.4,83.9,59.6,82.3c1.3-1.6,46.8-60.3,46.8-60.3s15.9,34.8,15.9,33.5
	C968.8,874.4,1050,765.2,969.6,738.1z"/>
<path fill="#F7A491" d="M929.8,909.4l4.5,33.7c0,0,10.1,48.5-2.9,57.9c-13,9.4-55.5-59.3-55.5-59.3l4.5-85.4L929.8,909.4z"/>
<path fill="#F47458" d="M879,884c10.8,29.1,36.4,47,54.7,54l-3.8-28.6l-49.4-53.1L879,884z"/>
<path fill="#F7A491" d="M927.1,763.4c27.6-4.5,52.4,17.8,51.7,45.4c-0.3,12-1.3,27-3.8,43.2c-6,38.9-32.5,73.1-50.1,70.1
	c-17.5-3.1-61.7-36.6-53.9-92C875.8,796,898.1,768.1,927.1,763.4z"/>
<path fill="#F7A491" d="M883.2,836.8c-1.5,8.6-8.3,14.5-15.3,13.3c-7-1.2-11.4-9.1-9.9-17.7c1.5-8.6,8.3-14.5,15.3-13.3
	C880.2,820.3,884.7,828.3,883.2,836.8z"/>
<path fill="#0E2E35" d="M873.3,819.1c0,0,21.2,5.3,29.1-8.4c7.9-13.6,36-43.1,71.8-30.9c35.8,12.2-31.5-29.7-34.4-29.7
	s-37.2-0.2-37.2-0.2s-26.5,21.8-27.4,24.2c-1,2.4-8.6,28.5-8.6,28.5L873.3,819.1z"/>
<path fill="#FFFFFF" d="M912.1,876l38.6,7.4c0,0-3.7,14.5-20.8,11.8C909.1,891.9,912.1,876,912.1,876z"/>
<g>
	<path fill="#1A2E35" d="M1070.8,486.4L990,517.5l80.8,31.2v18.9l-101.9-40.3v-19.6l101.9-40.3V486.4z"/>
	<path fill="#1A2E35" d="M1154.8,405.6h19.8l-75.1,214.3h-19.8L1154.8,405.6z"/>
	<path fill="#1A2E35" d="M1283.4,507.8v19.6l-101.9,40.3v-18.9l81-31.2l-81-31.2v-18.9L1283.4,507.8z"/>
	<path fill="#1A2E35" d="M1309.1,582.8c0-9.1,7.1-15.5,15.5-15.5c8.2,0,15,6.4,15,15.5c0,9.1-6.8,15.7-15,15.7
		C1316.2,598.5,1309.1,591.9,1309.1,582.8z"/>
	<path fill="#1A2E35" d="M1360.8,582.8c0-9.1,7.1-15.5,15.5-15.5c8.2,0,15,6.4,15,15.5c0,9.1-6.8,15.7-15,15.7
		C1367.9,598.5,1360.8,591.9,1360.8,582.8z"/>
	<path fill="#1A2E35" d="M1412.5,582.8c0-9.1,7.1-15.5,15.5-15.5c8.2,0,15,6.4,15,15.5c0,9.1-6.8,15.7-15,15.7
		C1419.5,598.5,1412.5,591.9,1412.5,582.8z"/>
</g>
<path opacity="0.3" fill="#007CFF" d="M427.1,740.5c-2.3,0-4.5-1.1-5.8-3l-17.4-25.2c-8.5-2.4-16.9-5.7-25.1-9.6l-24.8,6.3
	c-2.3,0.6-4.8,0-6.6-1.7l-42.4-39.6c-1.8-1.6-2.6-4.1-2.1-6.4l4.6-25.2c-4.4-7.6-8.1-15.7-11.3-24.2L270,596.2
	c-2.1-1.2-3.4-3.4-3.5-5.8l-2-58c-0.1-2.4,1.1-4.7,3-6.1l25.2-17.4c2.4-8.3,5.6-16.8,9.6-24.9l-6.3-24.9c-0.6-2.3,0-4.8,1.7-6.6
	l39.6-42.4c1.6-1.8,4.1-2.6,6.4-2.1l25.3,4.6c7.8-4.5,15.9-8.2,24.2-11.3l15.6-26.3c1.2-2.1,3.4-3.4,5.8-3.5l58-2
	c2.4,0,4.7,1.1,6.1,3l17.4,25.2c8.6,2.5,16.9,5.7,24.9,9.6l24.9-6.3c2.3-0.6,4.8,0,6.6,1.7l42.4,39.6c1.8,1.6,2.6,4.1,2.1,6.4
	l-4.6,25.2c4.4,7.7,8.2,15.8,11.3,24.3l26.3,15.6c2.1,1.2,3.4,3.4,3.5,5.8l2,58c0.1,2.4-1.1,4.7-3.1,6.1l-25.2,17.4
	c-2.5,8.8-5.7,17.1-9.6,25L604,651c0.6,2.3,0,4.8-1.7,6.6L562.7,700c-1.6,1.8-4.1,2.6-6.4,2.1l-25.1-4.6
	c-7.9,4.5-16.1,8.3-24.4,11.3l-15.6,26.3c-1.2,2.1-3.4,3.4-5.8,3.5l-58,2C427.3,740.5,427.2,740.5,427.1,740.5 M379.6,688.2
	c1.1,0,2.2,0.3,3.2,0.8c8.9,4.5,18.1,8,27.3,10.5c1.6,0.4,3,1.4,4,2.8l16.6,24.1l50.3-1.7l14.9-25.2c0.9-1.5,2.3-2.6,3.9-3.1
	c9-3.1,17.9-7.2,26.4-12.3c1.5-0.9,3.2-1.2,4.9-0.9l23.9,4.4l34.3-36.7l-6-23.6c-0.4-1.7-0.2-3.4,0.6-5c4.3-8.4,7.8-17.6,10.4-27.2
	c0.4-1.6,1.4-3,2.8-4l24.1-16.7l-1.7-50.2l-25.2-15c-1.4-0.9-2.5-2.2-3.1-3.8c-3.2-9.3-7.3-18.2-12.2-26.2c-1-1.5-1.3-3.3-1-5.1
	l4.4-24l-36.8-34.3l-23.7,6c-1.7,0.4-3.4,0.2-4.9-0.5c-8.7-4.4-17.8-7.9-27.1-10.4c-1.6-0.4-3.1-1.5-4.1-2.8l-16.7-24.1l-50.2,1.7
	l-15,25.2c-0.7,1.1-1.6,2-2.8,2.6c-0.4,0.2-1,0.4-1.5,0.6c-8.7,3-17.5,7.2-25.9,12.2c-1.5,0.9-3.2,1.2-4.9,0.9l-24.1-4.4l-34.3,36.7
	l6,23.7c0.4,1.7,0.2,3.4-0.5,4.9c-4.4,8.7-7.9,17.8-10.5,27.1c-0.4,1.6-1.4,3.1-2.8,4l-24.1,16.7l1.7,50.3l25.2,15
	c1.4,0.9,2.5,2.2,3.1,3.8c3.3,9.4,7.4,18.3,12.3,26.4c0.9,1.5,1.2,3.2,0.9,4.9l-4.4,24l36.8,34.3l23.6-6
	C378.5,688.2,379.1,688.2,379.6,688.2 M585,475.3L585,475.3L585,475.3z M450,661.1c-26.9,0-52.5-10.1-72.3-28.6
	c-20.7-19.3-32.6-45.5-33.6-73.8c-1-28.3,9.1-55.3,28.4-76c19.3-20.7,45.5-32.6,73.9-33.6c28.3-1,55.3,9.1,76,28.4
	c20.7,19.3,32.6,45.5,33.6,73.9c1,28.3-9.1,55.2-28.4,75.9C508.2,648.1,482,660,453.7,661C452.4,661,451.2,661.1,450,661.1
	 M450.1,463.2c-1.1,0-2.2,0-3.2,0.1c-24.5,0.8-47.3,11.2-64,29.1c-16.7,17.9-25.5,41.3-24.6,65.8c0.8,24.5,11.2,47.2,29.1,63.9
	c17.9,16.8,41.3,25.6,65.8,24.7c24.5-0.8,47.3-11.2,64-29.1c16.7-17.9,25.5-41.3,24.6-65.8c-0.8-24.5-11.2-47.3-29.1-64
	C495.6,471.9,473.5,463.2,450.1,463.2"/>
</svg>
