<?xml version="1.0" encoding="utf-8"?>
<!-- Generator: Adobe Illustrator 17.0.0, SVG Export Plug-In . SVG Version: 6.00 Build 0)  -->
<!DOCTYPE svg PUBLIC "-//W3C//DTD SVG 1.1//EN" "http://www.w3.org/Graphics/SVG/1.1/DTD/svg11.dtd">
<svg version="1.1" id="Layer_1" xmlns="http://www.w3.org/2000/svg" xmlns:xlink="http://www.w3.org/1999/xlink" x="0px" y="0px"
	 width="561px" height="525px" viewBox="0 0 561 525" enable-background="new 0 0 561 525" xml:space="preserve">
<g>
	<rect x="93.865" y="6.57" fill="none" stroke="#C2C8CD" stroke-miterlimit="10" width="357.552" height="467.142"/>
	<path fill="#FDFDFD" d="M95.165,411.021c-0.414-0.059-0.61-0.298-0.608-0.712c0.002-0.5-0.005-1-0.005-1.499
		c-0.001-71.568-0.002-143.136-0.002-214.705c-0.298-0.859,0.404-0.893,0.9-1.014c0.685-0.168,1.399-0.101,2.101-0.101
		c116.691-0.002,233.381-0.002,350.072,0.01c0.974,0,2.03-0.255,2.869,0.537c0.359,0.536,0.304,1.142,0.304,1.74
		c-0.003,71.903-0.006,143.805-0.008,215.708c-0.36,0.448-0.878,0.431-1.378,0.452c-0.502,0.021-1.004,0.01-1.506,0.01
		c-116.609,0-233.219,0.001-349.828-0.012C97.099,411.435,96.054,411.713,95.165,411.021z"/>
	<path fill="#DFE3E7" d="M450.841,100.193c-0.003,30.715-0.006,61.429-0.01,92.144c-0.434,0.417-0.989,0.453-1.544,0.477
		c-0.653,0.028-1.306,0.017-1.959,0.017c-116.456,0-232.913,0.001-349.369-0.015c-1.168,0-2.426,0.34-3.479-0.521
		c0.004-29.95,0.009-59.901,0.014-89.851c0-0.75,0.01-1.5,0.016-2.25c0.515-0.272,1.074-0.211,1.624-0.211
		c117.091,0.012,234.183,0,351.274,0.016C448.551,99.999,449.718,99.768,450.841,100.193z"/>
	<path fill="#FEFEFE" d="M450.79,41.09c0.002,18.196-0.02,36.392,0.046,54.588c0.006,1.61-0.522,1.859-1.965,1.858
		c-70.652-0.033-141.304-0.029-211.956-0.029c-46.734,0-93.467,0.001-140.201-0.002c-2.488,0-2.218,0.249-2.219-2.279
		c-0.004-18.046,0.001-36.092,0.003-54.138c0.437-0.404,0.984-0.462,1.542-0.485c0.652-0.027,1.304-0.017,1.955-0.017
		c116.433,0,232.866-0.001,349.299,0.013C448.468,40.599,449.716,40.287,450.79,41.09z"/>
	<path fill="#D9DEE3" d="M450.668,412.505c0.005,19.198,0.014,38.396,0.009,57.593c-0.001,2.187-1.383,3.558-3.543,3.613
		c-0.25,0.006-0.501,0.001-0.752,0.001c-115.965,0-231.929,0-347.894-0.003c-0.794,0-1.592,0.089-2.338-0.358
		c-1.248-0.748-1.692-1.82-1.69-3.254c0.026-16.148,0.015-32.296,0.017-48.445c0-3.05,0.01-6.099,0.015-9.149
		c0.562-0.298,1.173-0.214,1.77-0.213c117.244,0.007,234.489-0.001,351.733,0.01C448.887,412.302,449.803,412.113,450.668,412.505z"
		/>
	<path fill="#E9E9E9" d="M94.502,39.929c-0.003-9.77-0.011-19.54-0.006-29.31c0.001-2.215,1.109-3.311,3.387-3.406
		c0.4-0.017,0.801-0.003,1.201-0.003c115.747,0,231.494,0.007,347.241-0.036c3.334-0.001,4.556,1.599,4.54,4.416
		c-0.051,8.837-0.015,17.674-0.026,26.511c-0.001,0.653,0.241,1.418-0.603,1.817c-0.43,0.406-0.975,0.467-1.532,0.492
		c-0.6,0.027-1.201,0.018-1.802,0.018c-116.354,0-232.709,0.001-349.063-0.012C96.715,40.416,95.519,40.703,94.502,39.929z"/>
	<path fill="#C2C8CD" d="M450.775,100.193c-0.733,0.48-1.56,0.301-2.35,0.301c-112.622,0.007-225.243,0.006-337.865,0.006
		c-4.722,0-9.444,0.001-14.166-0.002c-0.648,0-1.314,0.094-1.898-0.305c-0.006-0.49-0.011-0.979-0.017-1.469
		c0.514-0.31,1.081-0.156,1.62-0.156c117.691-0.008,235.382-0.008,353.074,0c0.54,0,1.106-0.152,1.621,0.155
		C450.787,99.214,450.781,99.703,450.775,100.193z"/>
	<path fill="#C2C8CD" d="M451.976,412.505c-0.732,0.49-1.561,0.308-2.352,0.308c-99.955,0.007-199.91,0.006-299.866,0.006
		c-17.766,0-35.533,0.001-53.299-0.003c-0.696,0-1.419,0.127-2.05-0.311c0-0.294,0-0.587,0-0.881
		c0.182-0.359,0.491-0.465,0.874-0.456c0.402,0.009,0.805,0,1.208,0c117.801,0,235.602-0.001,353.404,0.017
		c0.697,0,1.535-0.374,2.082,0.439C451.977,411.918,451.976,412.211,451.976,412.505z"/>
	<path fill="#C1C7CC" d="M95.354,192.295c0.802,0.005,1.603,0.015,2.405,0.015c116.617,0.001,233.233,0,349.85,0.002
		c1.052,0,2.104,0.017,3.156,0.026c-0.005,0.419,0.143,0.873-0.274,1.199c-0.601-0.009-1.202-0.026-1.803-0.026
		c-117.085-0.001-234.171-0.002-351.256,0.026c-0.684,0-1.649-0.56-2.07,0.569C94.434,193.506,94.481,192.903,95.354,192.295z"/>
	<path fill="#CACACA" d="M95.597,39.92c0.25-0.005,0.5-0.014,0.75-0.014c118.146,0.001,236.292,0.002,354.437,0.003
		c0.002,0.394,0.004,0.788,0.006,1.182c-0.5,0.005-1,0.016-1.5,0.016c-117.399,0.001-234.798,0.001-352.198,0
		c-0.5,0-1-0.012-1.499-0.018C95.595,40.698,95.596,40.309,95.597,39.92z"/>
	<path fill="#D9DEE3" d="M451.977,411.624c-0.727-0.49-1.55-0.309-2.336-0.309c-98.436-0.007-196.872-0.006-295.307-0.006
		c-18.497,0-36.995-0.001-55.492,0.003c-0.691,0-1.409-0.127-2.036,0.312c-0.003-0.201-0.005-0.402-0.008-0.603
		c0.8-0.004,1.6-0.013,2.4-0.013c116.547-0.001,233.094,0,349.64-0.001c0.65,0,1.3-0.014,1.949-0.021
		C451.242,411.09,451.919,410.782,451.977,411.624z"/>
	<path fill="#F4F5F5" d="M450.793,98.724c-0.7-0.013-1.399-0.037-2.099-0.037c-116.802-0.002-233.604-0.002-350.406,0
		c-0.7,0-1.399,0.025-2.099,0.038c0.432-0.511,1.023-0.31,1.546-0.31c117.17-0.009,234.34-0.009,351.51,0
		C449.77,98.415,450.36,98.214,450.793,98.724z"/>
	<path fill="#C2C7CC" d="M342.493,337.01c0-8.996-0.002-17.992,0.001-26.988c0.001-2.143,0.62-2.789,2.754-2.79
		c17.942-0.007,35.884-0.006,53.826-0.001c2.298,0.001,2.834,0.548,2.834,2.82c0.002,17.992,0.002,35.984,0.001,53.976
		c0,2.197-0.853,2.934-3.03,2.663c-0.444-0.055-0.897-0.043-1.346-0.043c-16.793-0.002-33.585-0.003-50.378,0.005
		c-0.594,0-1.188,0.092-1.782,0.143c-1.957,0.165-2.877-0.672-2.877-2.646C342.491,355.102,342.493,346.056,342.493,337.01z"/>
	<path fill="#C2C7CC" d="M241.041,366.646c-9.044,0-18.089,0.002-27.133-0.002c-2.276-0.001-2.901-0.756-2.599-3.039
		c0.072-0.541,0.047-1.097,0.047-1.646c0.002-17.289,0.001-34.579,0.003-51.868c0-2.419,0.445-2.862,2.885-2.862
		c17.789-0.001,35.578-0.001,53.367,0c2.526,0,3.164,0.646,3.164,3.201c0.001,17.739,0.001,35.478,0,53.217
		c0,2.616-0.39,2.998-3.05,2.998C258.83,366.646,249.936,366.646,241.041,366.646z"/>
	<path fill="#C2C7CC" d="M241.038,276.026c-9.049,0-18.098,0.001-27.147-0.001c-2.157,0-2.531-0.369-2.531-2.522
		c-0.003-17.348,0-34.697-0.006-52.045c0-0.745,0-1.485-0.119-2.237c-0.238-1.503,0.637-2.49,2.171-2.59
		c0.299-0.02,0.6-0.005,0.9-0.005c17.748,0,35.496,0,53.245,0c2.626,0,3.226,0.612,3.226,3.286c0,17.598,0,35.196-0.001,52.795
		c0,0.45,0.033,0.906-0.028,1.348c-0.18,1.297-0.766,2.006-2.262,1.997C259.336,276,250.187,276.026,241.038,276.026z"/>
	<path fill="#C2C7CC" d="M305.913,366.646c-9.049,0-18.099,0.002-27.148-0.002c-2.026-0.001-2.554-0.528-2.555-2.582
		c-0.004-17.999-0.004-35.997,0-53.996c0-2.067,0.745-2.835,2.77-2.835c18.049-0.006,36.097-0.006,54.146,0.001
		c1.944,0.001,2.48,0.56,2.481,2.503c0.002,18.149,0.002,36.297,0,54.446c0,2.185-0.29,2.463-2.546,2.464
		C324.011,366.647,314.962,366.646,305.913,366.646z"/>
	<path fill="#C2C7CC" d="M174.749,366.646c-9.049,0-18.098,0.002-27.146-0.002c-2.151-0.001-2.528-0.381-2.528-2.531
		c-0.002-18.098-0.002-36.195,0-54.293c0-2.037,0.528-2.588,2.551-2.589c18.048-0.006,36.095-0.006,54.143,0.001
		c1.958,0.001,2.705,0.768,2.705,2.712c0.002,17.998,0.002,35.995,0,53.993c0,2.235-0.479,2.707-2.727,2.708
		C192.747,366.647,183.748,366.646,174.749,366.646z"/>
	<path fill="#C2C7CC" d="M174.776,276.027c-9.047,0-18.094,0.001-27.141-0.001c-2.124,0-2.56-0.428-2.561-2.525
		c-0.002-18.044-0.002-36.088,0-54.131c0-2.192,0.546-2.741,2.731-2.742c17.994-0.002,35.988-0.002,53.981,0
		c2.002,0,2.685,0.686,2.685,2.695c0.002,17.994,0.002,35.988,0,53.981c0,2.264-0.461,2.721-2.705,2.722
		C192.77,276.027,183.773,276.027,174.776,276.027z"/>
	<path fill="#C2C7CC" d="M305.896,276.026c-9.047,0-18.094,0.001-27.141-0.001c-2.026,0-2.544-0.516-2.544-2.584
		c-0.004-17.994-0.004-35.989,0-53.983c0.001-2.069,0.741-2.828,2.772-2.829c18.044-0.005,36.089-0.006,54.133,0
		c1.951,0.001,2.491,0.554,2.491,2.486c0.002,18.144,0.002,36.289,0,54.433c0,2.105-0.389,2.476-2.569,2.477
		C323.99,276.027,314.943,276.026,305.896,276.026z"/>
	<g>
		<path fill="none" stroke="#C2C7CC" stroke-miterlimit="10" stroke-dasharray="5.8569,5.8569" d="M372.723,276.026
			c-9.047,0-18.094,0.001-27.142-0.001c-2.026,0-2.544-0.516-2.544-2.584c-0.004-17.994-0.004-35.989,0-53.983
			c0.001-2.069,0.741-2.828,2.772-2.829c18.044-0.005,36.089-0.006,54.133,0c1.951,0.001,2.491,0.554,2.491,2.486
			c0.002,18.144,0.002,36.289,0,54.433c0,2.105-0.389,2.476-2.569,2.477C390.818,276.027,381.77,276.026,372.723,276.026z"/>
	</g>
	<path fill="#CED2D5" d="M239.898,299.39c-9.094,0-18.189,0.002-27.283-0.001c-1.882-0.001-2.322-0.503-2.07-2.326
		c0.337-2.429,0.337-2.43,2.889-2.43c17.589,0,35.178,0,52.767,0c0.3,0,0.6-0.003,0.899,0.001c2.602,0.034,3.387,0.95,3.067,3.527
		c-0.072,0.581-0.306,0.91-0.916,0.969c-0.89,0.087-1.761,0.275-2.67,0.272C257.687,299.381,248.792,299.39,239.898,299.39z"/>
	<path fill="#CED2D5" d="M175.382,294.634c8.946,0,17.892,0,26.838,0c0.8,0,1.815-0.115,2.102,0.751
		c0.354,1.068,0.398,2.306-0.056,3.368c-0.295,0.691-1.168,0.64-1.878,0.639c-4.248-0.003-8.496-0.002-12.744-0.002
		c-13.094,0-26.188,0.001-39.282-0.001c-1.295,0-2.582-0.083-3.875-0.196c-1.1-0.096-1.444-0.386-1.434-1.496
		c0.028-2.987-0.005-3.044,3.042-3.054c7.397-0.024,14.793-0.008,22.19-0.008C171.983,294.634,173.682,294.634,175.382,294.634z"/>
	<path fill="#CED2D5" d="M371.769,299.39c-8.495,0-16.99,0.01-25.485-0.012c-1.19-0.003-2.38-0.172-3.571-0.248
		c-0.451-0.029-0.796-0.16-0.802-0.676c-0.012-0.949-0.009-1.898-0.003-2.848c0.003-0.505,0.315-0.679,0.774-0.711
		c1.141-0.08,2.28-0.249,3.421-0.25c17.34-0.016,34.68-0.011,52.02-0.011c0.1,0,0.2-0.001,0.3,0c2.781,0.019,3.67,1.255,2.857,3.924
		c-0.155,0.509-0.497,0.521-0.904,0.581c-1.086,0.161-2.168,0.264-3.271,0.262C388.66,299.382,380.215,299.39,371.769,299.39z"/>
	<path fill="#CED2D5" d="M304.607,294.634c9.461,0,17.104-0.009,24.748,0.007c1.736,0.003,3.473,0.07,5.208,0.148
		c0.568,0.025,1.081,0.191,1.046,0.968c-0.04,0.897,0,1.798-0.016,2.697c-0.008,0.429-0.126,0.849-0.682,0.747
		c-1.457-0.268-2.865,0.221-4.314,0.218c-16.535-0.043-33.071-0.033-49.607-0.017c-1.251,0.001-2.482-0.133-3.72-0.255
		c-0.751-0.074-1.08-0.404-1.066-1.136c0.009-0.499,0.043-1.004-0.01-1.498c-0.133-1.245,0.405-1.583,1.632-1.653
		C287.357,294.322,296.894,294.845,304.607,294.634z"/>
	<path fill="#CED2D5" d="M174.624,383.703c-9.239,0-18.479-0.028-27.718,0.029c-1.467,0.009-1.911-0.468-1.853-1.894
		c0.122-3.023-0.341-2.626,2.643-2.628c18.229-0.011,36.458-0.01,54.687,0.009c0.69,0.001,1.722-0.398,1.968,0.553
		c0.294,1.137,0.358,2.404-0.072,3.532c-0.247,0.65-1.063,0.391-1.637,0.392c-8.091,0.011-16.181,0.008-24.272,0.008
		C177.122,383.703,175.873,383.703,174.624,383.703z"/>
	<path fill="#CED2D5" d="M305.905,383.703c-9.289,0-18.579-0.028-27.867,0.029c-1.461,0.009-2.028-0.459-1.844-1.89
		c0.057-0.442,0.033-0.899,0.005-1.347c-0.061-0.985,0.421-1.367,1.358-1.293c0.199,0.016,0.399,0.002,0.599,0.002
		c18.528,0,37.057,0.02,55.585-0.037c1.547-0.005,2.116,0.428,1.866,1.928c-0.04,0.243-0.035,0.503-0.001,0.747
		c0.199,1.427-0.373,1.902-1.835,1.89c-7.641-0.063-15.282-0.029-22.923-0.03C309.201,383.703,307.553,383.703,305.905,383.703z"/>
	<path fill="#CED2D5" d="M371.606,383.703c-9.295,0-18.589-0.029-27.883,0.029c-1.466,0.009-2.025-0.469-1.838-1.895
		c0.052-0.393,0.04-0.802,0.002-1.198c-0.11-1.141,0.446-1.544,1.513-1.439c0.247,0.024,0.499,0.004,0.749,0.004
		c18.289,0,36.578-0.005,54.868,0.018c0.737,0.001,1.83-0.45,2.134,0.523c0.349,1.119,0.352,2.397-0.039,3.533
		c-0.231,0.67-1.049,0.418-1.622,0.418C390.195,383.706,380.901,383.703,371.606,383.703z"/>
	<path fill="#CED2D5" d="M240.34,379.204c9.293,0,18.585,0.02,27.878-0.022c1.329-0.006,1.956,0.117,1.751,1.767
		c-0.341,2.736-0.199,2.754-2.936,2.754c-18.036,0-36.071,0.004-54.107-0.015c-0.697-0.001-1.731,0.397-2.003-0.504
		c-0.354-1.177-0.359-2.496,0.023-3.682c0.176-0.547,0.99-0.289,1.517-0.289C221.754,379.201,231.047,379.204,240.34,379.204z"/>
	<path fill="#CED2D5" d="M371.744,385.504c9.298,0,18.596,0.025,27.894-0.029c1.314-0.008,1.731,0.335,1.688,1.675
		c-0.089,2.782-0.547,3.205-3.369,2.713c-0.585-0.102-1.19-0.122-1.786-0.122c-16.896-0.006-33.793-0.005-50.689-0.005
		c-0.35,0-0.7-0.009-1.05,0.007c-0.808,0.039-1.872,0.693-2.335-0.25c-0.522-1.063-0.296-2.363-0.107-3.531
		c0.117-0.727,0.909-0.445,1.41-0.446c6.899-0.017,13.797-0.012,20.696-0.012C366.645,385.504,369.194,385.504,371.744,385.504z"/>
	<path fill="#CED2D5" d="M305.889,288.602c9.298,0,18.595,0.029,27.892-0.031c1.415-0.009,1.912,0.334,1.855,1.811
		c-0.109,2.84-0.036,2.845-2.89,2.485c-0.493-0.062-0.998-0.032-1.498-0.032c-17.645-0.001-35.291,0.003-52.936-0.017
		c-0.69-0.001-1.7,0.404-1.98-0.541c-0.306-1.034-0.337-2.203,0.044-3.241c0.251-0.684,1.048-0.425,1.619-0.426
		C287.294,288.599,296.591,288.602,305.889,288.602z"/>
	<path fill="#CED2D5" d="M174.696,385.504c9.296,0,18.592-0.005,27.888,0.012c0.648,0.001,1.633-0.329,1.789,0.595
		c0.194,1.144,0.369,2.374-0.158,3.507c-0.118,0.253-0.489,0.287-0.809,0.281c-18.635-0.366-37.272-0.064-55.908-0.159
		c-2.43-0.012-2.35,0.004-2.452-2.514c-0.057-1.395,0.388-1.76,1.761-1.751C156.104,385.532,165.4,385.504,174.696,385.504z"/>
	<path fill="#CED2D5" d="M305.994,385.504c9.299,0,18.599,0.03,27.898-0.033c1.408-0.01,1.786,0.411,1.741,1.772
		c-0.091,2.77-0.059,2.8-2.895,2.52c-0.496-0.049-0.999-0.027-1.499-0.027c-16.999-0.001-33.998-0.001-50.997-0.001
		c-0.35,0-0.701-0.014-1.05,0.003c-3.065,0.147-2.999,0.149-3.019-2.736c-0.01-1.383,0.668-1.516,1.772-1.513
		C287.295,385.515,296.644,385.504,305.994,385.504z"/>
	<path fill="#CED2D5" d="M174.792,288.602c9.249,0,18.498-0.006,27.746,0.013c0.648,0.001,1.603-0.347,1.821,0.557
		c0.265,1.097,0.262,2.274-0.055,3.393c-0.039,0.137-0.419,0.229-0.649,0.25c-0.446,0.041-0.899,0.018-1.349,0.018
		c-18.198,0-36.395,0-54.593,0.001c-2.672,0-2.608,0.001-2.665-2.746c-0.025-1.219,0.389-1.513,1.547-1.508
		C155.995,288.62,165.394,288.602,174.792,288.602z"/>
	<path fill="#CED2D5" d="M371.443,292.923c-9.438,0-18.876-0.004-28.315,0.006c-0.852,0.001-1.263-0.272-1.251-1.214
		c0.046-3.599-0.26-3.106,2.986-3.108c18.132-0.01,36.264-0.009,54.396,0.011c0.65,0.001,1.65-0.399,1.892,0.379
		c0.349,1.12,0.338,2.398-0.024,3.535c-0.176,0.555-0.987,0.292-1.513,0.293c-8.442,0.012-16.883,0.009-25.325,0.009
		c-0.949,0-1.898,0-2.847,0C371.443,292.864,371.443,292.893,371.443,292.923z"/>
	<path fill="#CED2D5" d="M240.342,389.736c-9.245,0-18.49,0.001-27.735,0c-2.075,0-2.063-0.242-1.994-2.249
		c0.067-1.935,0.957-2.018,2.507-2.014c18.24,0.049,36.481,0.03,54.721,0.033c2.167,0,2.068-0.194,2.085,1.973
		c0.018,2.258,0.06,2.258-2.298,2.258C258.532,389.736,249.437,389.736,240.342,389.736z"/>
	<path fill="#CED2D5" d="M240.496,292.834c-9.294,0-18.587-0.027-27.881,0.03c-1.383,0.008-1.955-0.274-1.879-1.786
		c0.141-2.817-0.279-2.469,2.505-2.471c18.337-0.009,36.675-0.008,55.012,0.013c0.566,0.001,1.519-0.393,1.592,0.575
		c0.09,1.199,0.545,2.468-0.195,3.628c-0.147,0.229-0.434,0.138-0.687,0.138c-9.489-0.011-18.979-0.01-28.468-0.01
		C240.496,292.911,240.496,292.873,240.496,292.834z"/>
	<path fill="#ADB1B7" d="M355.919,281.087c3.996,0,7.991,0.032,11.986-0.02c1.147-0.015,1.612,0.32,1.582,1.527
		c-0.107,4.23,0.531,3.564-3.55,3.583c-7.192,0.033-14.384-0.022-21.575,0.036c-1.408,0.011-1.95-0.358-1.897-1.846
		c0.133-3.772-0.445-3.25,3.266-3.276C349.126,281.068,352.523,281.087,355.919,281.087z"/>
	<path fill="#ADB1B7" d="M289.698,286.186c-3.945,0-7.891-0.035-11.835,0.021c-1.212,0.017-1.703-0.338-1.667-1.615
		c0.116-4.108-0.519-3.48,3.486-3.497c7.191-0.031,14.382,0.029,21.573-0.04c1.479-0.014,2.032,0.346,1.97,1.912
		c-0.143,3.628,0.431,3.2-3.189,3.216C296.59,286.198,293.144,286.186,289.698,286.186z"/>
	<path fill="#ACB1B7" d="M289.685,371.689c3.945,0,7.891,0.048,11.835-0.026c1.335-0.025,1.734,0.434,1.694,1.731
		c-0.119,3.944,0.522,3.372-3.443,3.386c-7.241,0.027-14.483-0.028-21.723,0.039c-1.458,0.013-1.903-0.443-1.858-1.88
		c0.117-3.75-0.397-3.221,3.307-3.246C282.893,371.671,286.289,371.689,289.685,371.689z"/>
	<path fill="#ACB1B7" d="M356.04,371.689c3.896,0,7.792,0.054,11.686-0.029c1.409-0.03,1.81,0.453,1.767,1.815
		c-0.121,3.827,0.481,3.294-3.382,3.306c-7.292,0.023-14.583-0.027-21.875,0.036c-1.415,0.012-1.811-0.458-1.768-1.817
		c0.122-3.82-0.487-3.278,3.383-3.306C349.248,371.669,352.644,371.689,356.04,371.689z"/>
	<path fill="#ADB1B7" d="M224.739,281.087c3.996,0,7.993,0.025,11.989-0.017c0.999-0.011,1.436,0.233,1.407,1.331
		c-0.118,4.507,0.599,3.75-3.65,3.775c-7.094,0.042-14.187,0.013-21.281,0.01c-1.837-0.001-2.033-0.201-2.057-2.067
		c-0.048-3.748,0.149-2.997,2.951-3.023C217.645,281.061,221.192,281.086,224.739,281.087z"/>
	<path fill="#ACB1B7" d="M224.894,371.688c3.946,0,7.892,0.024,11.838-0.017c1.002-0.01,1.432,0.251,1.403,1.343
		c-0.119,4.489,0.61,3.736-3.66,3.761c-7.092,0.042-14.185,0.013-21.278,0.01c-1.802-0.001-2.024-0.196-2.046-1.917
		c-0.049-3.862,0.027-3.147,3.104-3.174C217.801,371.665,221.348,371.689,224.894,371.688z"/>
	<path fill="#ADB1B7" d="M158.469,281.087c3.998,0,7.997,0.032,11.994-0.02c1.15-0.015,1.588,0.332,1.594,1.532
		c0.018,3.588,0.061,3.587-3.426,3.587c-7.247,0-14.493-0.035-21.739,0.03c-1.459,0.013-1.894-0.448-1.858-1.884
		c0.082-3.244,0.016-3.245,3.24-3.245C151.672,281.086,155.07,281.087,158.469,281.087z"/>
	<path fill="#ACB1B7" d="M158.43,371.689c3.995,0,7.991,0.018,11.986-0.013c1.006-0.008,1.465,0.149,1.504,1.387
		c0.115,3.727,0.198,3.724-3.425,3.724c-7.242,0-14.483-0.026-21.724,0.025c-1.286,0.009-1.756-0.343-1.736-1.688
		c0.051-3.435-0.007-3.436,3.357-3.436C151.738,371.689,155.084,371.689,158.43,371.689z"/>
	<path fill="#C2C7CC" d="M273.179,130.504c17.392,0,34.783,0,52.175,0c2.407,0,2.741,0.342,2.742,2.789
		c0.001,2.049,0.011,4.098-0.003,6.147c-0.012,1.757-0.555,2.331-2.293,2.451c-0.448,0.031-0.899,0.008-1.349,0.008
		c-33.784,0-67.567-0.004-101.351,0.016c-1.207,0.001-2.378-0.185-3.564-0.31c-1.188-0.125-1.438-1.108-1.477-1.96
		c-0.107-2.344-0.121-4.699-0.023-7.043c0.065-1.561,0.863-2.097,2.669-2.097C238.196,130.503,255.688,130.504,273.179,130.504z"/>
	<path fill="#CED2D5" d="M272.79,155.409c22.091,0,44.182,0,66.273,0c2.229,0,2.246,0.001,2.226,2.219
		c-0.035,4.009,0.528,3.473-3.515,3.474c-43.732,0.01-87.464,0.007-131.196,0.006c-2.383,0-2.363-0.001-2.389-2.444
		c-0.042-3.948,0.164-3.246,3.227-3.248C229.207,155.403,250.999,155.409,272.79,155.409z"/>
	<path fill="#CED2D5" d="M272.897,153.009c-22.198,0-44.396,0-66.594,0c-2.016,0-2.099-0.086-2.11-2.121
		c-0.019-3.579-0.019-3.579,3.562-3.579c43.746,0,87.492,0,131.238,0c2.299,0,2.314,0.001,2.296,2.301
		c-0.03,3.905,0.489,3.39-3.449,3.393C316.193,153.016,294.545,153.009,272.897,153.009z"/>
	<path fill="#C2C7CC" d="M273.457,73.222c-5.982,0.288-11.235-4.754-11.328-11.259c-0.088-6.164,5.193-11.345,11.431-11.237
		c6.331,0.11,11.105,4.751,11.23,11.105C284.928,68.808,278.996,73.571,273.457,73.222z"/>
	<path fill="#CED2D6" d="M215.445,87.918c-4.392,0-8.785-0.042-13.176,0.025c-1.333,0.021-1.714-0.449-1.705-1.737
		c0.026-3.988-0.018-3.988,3.926-3.988c7.886,0,15.772,0.03,23.657-0.028c1.43-0.011,1.911,0.407,1.884,1.865
		c-0.07,3.862-0.01,3.863-3.806,3.863C222.633,87.918,219.039,87.918,215.445,87.918z"/>
	<path fill="#CED2D6" d="M331.609,87.918c-4.397,0-8.795-0.031-13.191,0.022c-1.098,0.013-1.467-0.294-1.474-1.431
		c-0.024-4.291-0.063-4.291,4.231-4.291c7.695,0,15.39-0.002,23.085,0.001c2.05,0.001,2.139,0.076,2.117,2.091
		c-0.044,4.183,0.571,3.57-3.526,3.602C339.104,87.941,335.357,87.918,331.609,87.918z"/>
	<path fill="#CED2D6" d="M254.153,87.918c-4.393,0-8.786-0.043-13.178,0.026c-1.342,0.021-1.717-0.463-1.696-1.745
		c0.07-4.363-0.401-3.982,3.913-3.982c7.887,0.002,15.775,0.03,23.662-0.027c1.424-0.01,1.917,0.398,1.891,1.862
		c-0.068,3.864-0.007,3.865-3.808,3.865C261.341,87.918,257.747,87.918,254.153,87.918z"/>
	<path fill="#CED2D6" d="M292.831,87.918c-4.196,0-8.394-0.08-12.586,0.042c-1.552,0.045-2.183-0.451-2.131-1.94
		c0.009-0.245-0.023-0.493,0.007-0.735c0.375-3.067,0.377-3.067,3.603-3.067c7.942,0,15.883-0.001,23.825,0.001
		c1.951,0.001,1.977,0.034,1.868,1.999c-0.011,0.199-0.002,0.4-0.004,0.599c-0.021,3.101-0.021,3.101-3.195,3.101
		C300.423,87.918,296.627,87.918,292.831,87.918z"/>
	<path fill="#CED2D5" d="M341.893,448.892c0-2.15,0.029-4.3-0.012-6.449c-0.019-1.007,0.33-1.45,1.387-1.441
		c4.299,0.033,8.598,0.027,12.897,0.004c0.958-0.005,1.344,0.371,1.339,1.333c-0.023,4.399-0.027,8.798,0.003,13.197
		c0.007,0.996-0.497,1.363-1.366,1.366c-4.199,0.014-8.398,0.017-12.597-0.001c-1.199-0.005-1.75-0.546-1.679-1.862
		C341.974,452.996,341.893,450.942,341.893,448.892z"/>
	<path fill="#CED2D5" d="M364.394,448.797c0-2.148,0.023-4.297-0.01-6.444c-0.015-0.953,0.357-1.351,1.324-1.346
		c4.346,0.024,8.693,0.02,13.039,0.003c0.89-0.003,1.257,0.374,1.254,1.26c-0.016,4.446-0.031,8.893,0.01,13.338
		c0.009,1.012-0.676,1.238-1.333,1.246c-4.295,0.056-8.591,0.058-12.886,0.02c-0.962-0.008-1.474-0.513-1.426-1.634
		C364.459,453.096,364.393,450.945,364.394,448.797z"/>
	<path fill="#CED2D5" d="M402.495,448.959c0,2.149-0.025,4.298,0.013,6.446c0.014,0.821-0.214,1.476-1.085,1.464
		c-4.485-0.06-8.975,0.331-13.458-0.196c-0.979-0.115-1.086-0.571-1.081-1.369c0.023-4.247,0.04-8.495-0.008-12.742
		c-0.013-1.178,0.407-1.578,1.574-1.565c4.197,0.048,8.395,0.043,12.592,0.002c1.123-0.011,1.495,0.432,1.469,1.514
		C402.459,444.661,402.495,446.811,402.495,448.959z"/>
	<path fill="#CED2D5" d="M300.665,453.014c7.595,0,15.191,0.033,22.786-0.031c1.336-0.011,1.713,0.37,1.672,1.687
		c-0.086,2.75-0.107,2.844-2.896,2.844c-14.192,0-28.383,0-42.575,0c-0.2,0-0.4,0.002-0.6,0c-2.708-0.03-3.667-1.374-2.841-3.94
		c0.249-0.773,0.868-0.546,1.367-0.549c3.698-0.019,7.396-0.01,11.093-0.01C292.67,453.014,296.667,453.014,300.665,453.014z"/>
	<path fill="#CED2D5" d="M169.553,453.014c7.541,0,15.083,0.031,22.623-0.031c1.25-0.01,1.793,0.469,1.782,1.588
		c-0.01,1.142,0.231,2.498-1.404,2.86c-0.384,0.085-0.792,0.079-1.19,0.08c-14.733,0.004-29.466,0.004-44.199,0
		c-0.734,0-1.741,0.192-1.961-0.666c-0.292-1.137-0.311-2.398,0.049-3.543c0.159-0.504,0.895-0.28,1.374-0.281
		C154.271,453.011,161.912,453.014,169.553,453.014z"/>
	<path fill="#CED2D5" d="M235.713,453.014c7.541,0,15.083,0.031,22.623-0.029c1.31-0.01,1.729,0.329,1.688,1.67
		c-0.088,2.856-0.015,2.859-2.938,2.86c-14.433,0-28.866,0.007-43.299-0.016c-0.972-0.002-2.102,0.265-2.485-1.234
		c-0.663-2.601-0.241-3.25,2.387-3.25C221.03,453.014,228.371,453.014,235.713,453.014z"/>
	<path fill="#CED2D5" d="M299.739,446.714c7.247,0,14.494,0.037,21.74-0.03c1.496-0.014,1.89,0.521,1.839,1.921
		c-0.085,2.355-0.17,2.604-1.872,2.605c-14.543,0.008-29.086-0.006-43.63,0.023c-1.179,0.002-1.656-0.457-1.623-1.575
		c0.003-0.1,0.001-0.2-0.001-0.3c-0.047-2.644-0.047-2.644,2.557-2.644C285.746,446.714,292.742,446.714,299.739,446.714z"/>
	<path fill="#CED2D5" d="M234.617,451.214c-7.192,0-14.383,0.003-21.575-0.005c-0.577-0.001-1.396,0.193-1.54-0.552
		c-0.23-1.186-0.863-2.435-0.147-3.621c0.348-0.577,1.109-0.313,1.687-0.314c10.638-0.011,21.275-0.008,31.913-0.008
		c3.896,0,7.792,0.05,11.686-0.028c1.28-0.026,1.727,0.41,1.556,1.625c-0.041,0.294-0.004,0.599-0.007,0.898
		c-0.016,1.741-0.263,2.002-1.998,2.003C249.001,451.217,241.809,451.214,234.617,451.214z"/>
	<path fill="#CED2D5" d="M168.593,446.714c7.246,0,14.493,0.029,21.739-0.027c1.268-0.01,1.615,0.389,1.584,1.617
		c-0.082,3.218,0.234,2.908-2.916,2.909c-13.893,0.003-27.787,0.001-41.68,0.001c-2.231,0-2.24-0.001-2.23-2.219
		c0.012-2.527-0.265-2.276,2.213-2.278C154.4,446.709,161.496,446.714,168.593,446.714z"/>
	<path fill="#ACB1B7" d="M362.372,430.504c6.092,0,12.185-0.001,18.277,0.001c2.017,0.001,2.018,0.004,2.023,1.975
		c0.001,0.35,0.002,0.699,0,1.049c-0.01,1.764-0.288,2.053-2.116,2.06c-3.346,0.014-6.692,0.004-10.037,0.004
		c-8.839,0-17.678,0.002-26.517-0.001c-2.044-0.001-2.115-0.07-2.107-2.101c0.013-3.287-0.363-2.982,2.949-2.985
		C350.686,430.5,356.529,430.504,362.372,430.504z"/>
	<path fill="#CED2D5" d="M170.788,441.015c7.897,0,15.794,0.026,23.69-0.024c1.367-0.009,2.036,0.285,1.938,1.818
		c-0.115,1.801-0.271,2.102-1.927,2.102c-15.893,0.006-31.787-0.016-47.68,0.032c-1.653,0.005-1.691-0.875-1.746-2.084
		c-0.059-1.303,0.266-1.884,1.735-1.872C154.794,441.048,162.791,441.015,170.788,441.015z"/>
	<path fill="#CED2D5" d="M302.159,441.015c7.841,0,15.682-0.002,23.523,0.002c1.795,0.001,1.739,0.04,1.837,2.035
		c0.07,1.436-0.407,1.894-1.866,1.89c-15.782-0.045-31.564-0.027-47.346-0.029c-1.817,0-2.103-0.264-2.115-1.888
		c-0.013-1.752,0.253-2.008,2.144-2.009C286.277,441.014,294.218,441.015,302.159,441.015z"/>
	<path fill="#CED2D5" d="M237.051,441.015c7.845,0,15.69-0.002,23.536,0.002c1.793,0.001,1.733,0.037,1.833,2.042
		c0.072,1.446-0.424,1.887-1.874,1.883c-15.79-0.044-31.581-0.027-47.371-0.029c-1.635,0-2.04-0.471-2.082-2.316
		c-0.035-1.538,0.981-1.591,2.123-1.589C221.161,441.022,229.106,441.015,237.051,441.015z"/>
	<path fill="#ACB1B7" d="M289.766,430.504c3.994,0,7.988,0.033,11.981-0.022c1.093-0.015,1.496,0.282,1.466,1.428
		c-0.113,4.311,0.542,3.655-3.622,3.674c-7.139,0.032-14.278,0.012-21.417,0.006c-1.853-0.002-1.978-0.125-1.969-1.932
		c0.018-3.557-0.387-3.137,3.077-3.151C282.776,430.493,286.271,430.504,289.766,430.504z"/>
	<path fill="#ACB1B7" d="M224.676,430.505c3.998,0,7.996,0.035,11.992-0.023c1.11-0.016,1.484,0.309,1.454,1.44
		c-0.114,4.298,0.557,3.643-3.637,3.663c-6.996,0.032-13.991,0.012-20.987,0.004c-0.829-0.001-1.886,0.214-2.183-0.831
		c-0.366-1.287-0.483-2.669,0.139-3.936c0.258-0.526,0.902-0.308,1.379-0.309C216.781,430.499,220.729,430.505,224.676,430.505z"/>
	<path fill="#ACB1B7" d="M158.548,435.593c-3.891,0-7.783-0.028-11.674,0.015c-1.321,0.015-1.855-0.416-1.826-1.825
		c0.069-3.278,0.005-3.28,3.335-3.28c7.284,0,14.569,0.039,21.852-0.035c1.325-0.013,1.829,0.425,1.817,1.658
		c-0.002,0.199,0.011,0.399,0.016,0.598c0.06,2.795-0.01,2.868-2.742,2.868C165.732,435.593,162.14,435.593,158.548,435.593z"/>
	<path fill="#F7F7F7" d="M273.538,34.206c-41.449,0-82.897,0-124.346,0c-2.638,0-2.905-0.269-2.905-2.928c0-2.4-0.011-4.8,0.004-7.2
		c0.011-1.822,0.625-2.436,2.408-2.47c0.3-0.006,0.6-0.001,0.9-0.001c82.597,0,165.195,0,247.792,0c2.927,0,3.303,0.368,3.303,3.229
		c0,2.25,0.007,4.5-0.002,6.75c-0.008,2.138-0.502,2.62-2.658,2.62C356.536,34.207,315.037,34.206,273.538,34.206z"/>
	<path fill="#CBC9C9" d="M433.875,34.206c-3.396,0-6.791,0.005-10.186-0.002c-1.693-0.004-2.537-0.834-2.579-2.552
		c-0.063-2.583,0.025-5.162,0.248-7.736c0.159-1.835,0.65-2.298,2.546-2.301c5.393-0.009,10.786-0.003,16.179-0.003
		c1.298,0,2.597-0.017,3.895,0.005c1.632,0.028,2.296,0.656,2.311,2.253c0.026,2.746,0.02,5.493,0.002,8.239
		c-0.01,1.493-0.594,2.085-2.079,2.092C440.766,34.218,437.32,34.206,433.875,34.206z"/>
	<path fill="#CBC9C9" d="M113.142,34.206c-3.399,0-6.798,0.007-10.196-0.003c-1.706-0.005-2.252-0.539-2.26-2.22
		c-0.013-2.699-0.011-5.398-0.001-8.097c0.006-1.576,0.583-2.256,2.106-2.262c6.897-0.028,13.795-0.028,20.693,0
		c1.528,0.006,2.103,0.683,2.108,2.257c0.009,2.699,0.011,5.398-0.001,8.097c-0.008,1.688-0.546,2.22-2.252,2.225
		C119.94,34.213,116.541,34.206,113.142,34.206z"/>
	<path fill="#CBC9C9" d="M140.594,27.865c0,1.448-0.002,2.897,0,4.345c0.002,1.36-0.684,2.004-2.034,1.999
		c-2.747-0.009-5.494,0.01-8.24-0.008c-1.331-0.009-2.28-0.85-2.296-2.212c-0.033-2.937-0.174-5.882,0.259-8.807
		c0.165-1.11,0.958-1.526,1.902-1.545c2.846-0.056,5.694-0.072,8.539,0.006c1.175,0.032,1.931,0.681,1.882,2.027
		C140.555,25.067,140.594,26.467,140.594,27.865z"/>
	<path fill="#CBC9C9" d="M418.1,27.957c0,1.399-0.008,2.798,0.002,4.197c0.01,1.34-0.609,2.053-1.981,2.053
		c-2.798-0.001-5.596-0.006-8.394,0.002c-1.122,0.003-1.766-0.526-1.945-1.637c-0.405-2.525-0.467-5.059-0.046-7.58
		c0.156-0.933-0.479-2.003,0.526-2.805c1.113-0.888,2.393-0.529,3.61-0.561c1.947-0.051,3.897-0.03,5.845-0.009
		c1.826,0.019,2.375,0.598,2.381,2.443C418.104,25.359,418.1,26.658,418.1,27.957z"/>
	<path fill="#E40101" d="M107.587,13.947c-0.026,1.94-1.608,3.45-3.573,3.41c-1.971-0.04-3.429-1.588-3.374-3.583
		c0.053-1.919,1.525-3.325,3.474-3.319C106.11,10.461,107.614,11.973,107.587,13.947z"/>
	<path fill="#E1C902" d="M116.929,13.914c-0.012,1.942-1.477,3.429-3.398,3.447c-1.98,0.019-3.553-1.527-3.541-3.481
		c0.011-1.991,1.537-3.45,3.573-3.416C115.522,10.496,116.941,11.951,116.929,13.914z"/>
	<path fill="#72B11C" d="M125.634,13.869c0.003,2.061-1.443,3.518-3.462,3.49c-1.882-0.027-3.418-1.563-3.438-3.438
		c-0.02-1.971,1.511-3.474,3.529-3.461C124.237,10.472,125.631,11.881,125.634,13.869z"/>
	<path fill="#C2C7CC" d="M401.251,276.661c-9.049,0-18.097,0.002-27.146-0.001c-1.923-0.001-2.48-0.545-2.481-2.496
		c-0.006-18.147-0.006-36.294,0-54.441c0.001-1.76,0.694-2.457,2.448-2.458c18.197-0.007,36.394-0.007,54.591,0.001
		c1.72,0.001,2.366,0.64,2.367,2.351c0.009,18.297,0.008,36.594,0,54.891c-0.001,1.631-0.585,2.149-2.335,2.15
		C419.548,276.663,410.399,276.661,401.251,276.661z"/>
</g>
<g>
	<path fill="#007CFF" d="M471.638,274.783c0,0,18.804,65.328,26.432,97.407c8.011,33.69,31.841,84.618,33.823,106.95
		c2.059,0.82,8.736-0.102,12.298-1.824c0,0-3.267-71.202-22.63-103.635c4.372-79.805-17.288-98.897-17.288-98.897H471.638z"/>
	<g>
		<defs>
			<rect id="SVGID_1_" x="485.422" y="307.598" width="11.207" height="52.243"/>
		</defs>
		<clipPath id="SVGID_2_">
			<use xlink:href="#SVGID_1_"  overflow="visible"/>
		</clipPath>
		<path clip-path="url(#SVGID_2_)" d="M495.995,307.598l-10.573,16.242c3.35,12.249,6.779,25.016,9.583,36.002
			C497.945,340.828,495.995,307.598,495.995,307.598"/>
	</g>
	<path fill="#FF8B7B" d="M510.438,218.497c0.307,0.896,0.512,1.535,0.736,2.274c0.22,0.716,0.406,1.427,0.599,2.139
		c0.388,1.417,0.692,2.845,1,4.27c0.575,2.859,1.026,5.744,1.298,8.664c0.308,2.912,0.422,5.866,0.373,8.838
		c0.004,2.967-0.318,5.977-0.721,8.97l-0.066,0.487c-0.045,0.331-0.133,0.673-0.244,0.976c-0.702,1.891-1.735,3.492-2.865,4.738
		c-1.128,1.258-2.32,2.224-3.493,3.03c-2.35,1.581-4.691,2.519-6.953,3.267c-2.278,0.713-4.512,1.186-6.738,1.493
		c-2.255,0.293-4.372,0.451-6.75,0.389c-2.169-0.058-3.881-1.86-3.825-4.029c0.042-1.548,0.97-2.862,2.287-3.467l0.329-0.15
		c1.647-0.755,3.506-1.548,5.176-2.378c1.693-0.831,3.329-1.692,4.787-2.623c1.474-0.892,2.75-1.914,3.64-2.824
		c0.891-0.919,1.131-1.747,0.987-1.808l-0.308,1.463c0.043-2.381,0.033-4.764-0.153-7.192c-0.183-2.418-0.447-4.851-0.827-7.289
		c-0.389-2.432-0.816-4.875-1.357-7.293c-0.262-1.21-0.558-2.412-0.844-3.606l-0.455-1.767l-0.429-1.6l-0.112-0.415
		c-1.12-4.165,1.349-8.447,5.513-9.569C505.008,212.415,509.112,214.654,510.438,218.497"/>
	<path fill="#FF8B7B" d="M491.539,260.628l-9.411-2.683c-1.349-0.385-2.79-0.275-4.064,0.308l-3.516,1.608
		c-1.726,0.79-2.466,2.843-1.64,4.552l1.647,3.405c0.68,1.408,2.238,2.167,3.767,1.836l6.31-1.372c0,0,7.088,0.465,9.593-3.745
		L491.539,260.628z"/>
	<path fill="#007CFF" d="M500.065,205.28c-5.048,5.243-7.743,13.119-3.656,28.178c5.389,2.672,18.448-0.795,18.448-0.795
		S515.041,210.036,500.065,205.28"/>
	<g>
		<defs>
			<rect id="SVGID_3_" x="494.419" y="205.281" width="20.438" height="29.188"/>
		</defs>
		<clipPath id="SVGID_4_">
			<use xlink:href="#SVGID_3_"  overflow="visible"/>
		</clipPath>
		<path clip-path="url(#SVGID_4_)" fill="#FFFFFF" d="M500.065,205.28c-5.048,5.243-7.743,13.119-3.656,28.178
			c5.389,2.672,18.448-0.795,18.448-0.795S515.041,210.036,500.065,205.28"/>
	</g>
	<path fill="#1A2E35" d="M509.205,215.788c-0.262,0.009-0.465,0.229-0.457,0.49c0.009,0.255,0.219,0.457,0.473,0.457
		c0.006,0,0.013,0,0.017-0.001l2.358-0.084c-0.137-0.313-0.277-0.623-0.424-0.932L509.205,215.788z"/>
	<path fill="#1A2E35" d="M508.661,225.106c-0.199-0.169-0.499-0.143-0.666,0.058c-0.17,0.2-0.144,0.499,0.056,0.667l6.777,5.702
		c-0.014-0.359-0.04-0.797-0.076-1.301L508.661,225.106z"/>
	<path fill="#007CFF" d="M494.968,226.778l7.623-4.791c0.22-0.138,0.288-0.431,0.148-0.653c-0.14-0.222-0.432-0.287-0.653-0.148
		l-7.282,4.577C494.848,226.091,494.914,226.441,494.968,226.778"/>
	<path fill="#FF8B7B" d="M487.145,182.732c-0.945,6.62-1.628,18.62,3.062,22.384c0,0-6.181-0.166-18.085,9.388
		c-4.388-4.891-1.827-6.937-1.827-6.937c7.061-2.601,6.62-7.929,5.133-12.798L487.145,182.732z"/>
	<path fill="#1A2E35" d="M468.456,174.655c-0.218,0.865-0.844,1.483-1.402,1.383c-0.558-0.099-0.834-0.88-0.617-1.745
		c0.218-0.865,0.846-1.484,1.404-1.383C468.397,173.01,468.673,173.791,468.456,174.655"/>
	<path fill="#1A2E35" d="M468.074,173.002l-1.898-0.965C466.176,172.036,466.82,173.846,468.074,173.002"/>
	<path fill="#FF5551" d="M468.089,176.291c0,0-2.382,3.46-4.425,4.97c0.857,1.267,2.894,1.123,2.894,1.123L468.089,176.291z"/>
	<path fill="#1A2E35" d="M467.72,167.517c-0.055-0.117-0.066-0.249-0.02-0.373c0.095-0.258,0.396-0.382,0.673-0.278
		c2.767,1.045,3.391,3.317,3.415,3.414c0.071,0.272-0.101,0.537-0.385,0.589c-0.282,0.053-0.569-0.124-0.641-0.396
		c-0.023-0.089-0.533-1.845-2.734-2.675C467.886,167.743,467.779,167.64,467.72,167.517"/>
	<path fill="#FF8B7B" d="M497.387,176.555c-3.028,10.164-4.093,14.519-10.527,18.875c-9.677,6.552-21.49,1.321-21.558-9.37
		c-0.061-9.622,4.901-24.627,15.941-26.937C492.118,156.847,500.414,166.391,497.387,176.555"/>
	<path fill="#1A2E35" d="M473.861,177.188c-6.021-4.278-3.088-12.141,2.437-12.38c-7.205-5.044-3.447-14.171,5.361-13.811
		c8.809,0.36,10.057,5.764,10.057,5.764s14.203,0.721,16.197,11.048c2.347,12.151-5.077,19.934-14.203,23.537
		c6.205,5.091-8.437,8.664-15.72,4.564C470.525,191.707,467.943,182.604,473.861,177.188"/>
	<path fill="#FFFFFF" d="M507.283,163.537c-7.747-1.432-11.631,9.276-6.588,15.534c0.879,1.091,1.752,1.883,2.594,2.45
		c3.157,2.126,7.452-0.052,7.76-3.846C511.468,172.531,511.464,164.31,507.283,163.537"/>
	<path fill="#1A2E35" d="M528.31,169.015c0.571-0.429,0.95-0.967,1.023-1.649c0.33-3.025-1.963-4.989-4.721-5.421
		c-1.656-5.27-8.646-5.366-12.58-1.592c-3.219-1.643-6.802,1.974-6.364,5.748c-3.394,1.523-4.271,7.149-1.186,10.407
		c0.648,0.684,1.277,1.17,1.873,1.504c0.151,0.085,0.308,0.125,0.464,0.183c0.272,2.173,2.033,4.391,4.557,4.888
		c0.746,0.147,1.386,0.172,1.935,0.114c1.029-0.109,1.8-0.767,2.163-1.608c2.255,1.85,4.659,3.056,6.375,1.862
		c1.8-1.255,2.519-3.052,2.456-4.91c1.187,0.47,2.307,0.522,3.228-0.12C530.838,176.121,530.56,171.998,528.31,169.015"/>
	<path fill="#FF8B7B" d="M477.167,178.711c-1.257,2.032-3.121,3.185-4.766,3.464c-2.474,0.421-3.27-2.444-2.213-5.137
		c0.951-2.422,3.384-5.562,5.689-4.747C478.149,173.097,478.605,176.388,477.167,178.711"/>
	<path fill="#007CFF" d="M473.861,171.172c2.117-4.042,13.724-15.101,21.45-14.69c2,0.54,3.633,1.32,4.559,1.819
		c0.255,0.137,0.18,0.513-0.107,0.548c-3.03,0.353-12.867,2.624-22.085,17.127C475.578,174.595,473.861,171.172,473.861,171.172"/>
	<path fill="#FFFFFF" d="M478.491,179.401c-1.862,4.142-5.6,6.496-8.348,5.261c-2.75-1.236-3.47-5.594-1.608-9.736
		c1.862-4.142,5.6-6.498,8.349-5.261C479.633,170.902,480.353,175.259,478.491,179.401"/>
	<path fill="#007CFF" d="M476.213,178.377c-1.682,3.74-4.902,5.937-7.195,4.905c-2.293-1.03-2.788-4.898-1.107-8.638
		c1.68-3.74,4.901-5.936,7.194-4.905C477.398,170.77,477.895,174.637,476.213,178.377"/>
	<path fill="#1A2E35" d="M525.675,494.025c8.097-1.2,8.251-2.546,12.593-4.068c3.716-1.311,4.763-1.123,7.761-2.136
		c2.506-0.844,1.656-3.231,0.007-5.766c-0.826-1.272-0.945-2.486-1.847-4.74l-12.298,1.824c-1.198,3.433-1.62,7.826-8.639,10.339
		C519.071,490.975,522.447,494.503,525.675,494.025"/>
	<path fill="#1A2E35" d="M450.687,494.055c8.044-0.014,9.592-0.529,14.112-0.683c3.876-0.141,4.513,0.683,8.442,0.683
		c2.603,0,2.961-2.931,2.007-5.129c-0.741-1.712-0.855-3.76-1.393-5.982h-11.093c-2.002,3.516-7.456,6.119-13.553,6.554
		C444.85,489.821,447.466,494.055,450.687,494.055"/>
	<path fill="#007CFF" d="M460.091,274.783c0,0-1.604,57.879,1.824,94.635c-0.215,34.506,0.847,113.527,0.847,113.527
		c0.268,1.762,9.522,1.059,11.092,0c0,0,17.331-57.557,9.638-113.527c19.261-58.374,15.106-94.635,15.106-94.635H460.091z"/>
	<path fill="#007CFF" d="M530.278,474.667c0.13,1.121,0.317,3.082,0.248,4.611c-0.026,0.55,0.409,0.993,0.961,1
		c4.608,0.053,10.968-1.957,12.979-2.637c0.385-0.128,0.64-0.487,0.643-0.895l0.04-4.353c0.004-0.595-0.529-1.051-1.115-0.951
		l-12.964,2.179C530.568,473.706,530.219,474.161,530.278,474.667"/>
	<g>
		<defs>
			<rect id="SVGID_5_" x="530.272" y="471.428" width="14.877" height="8.851"/>
		</defs>
		<clipPath id="SVGID_6_">
			<use xlink:href="#SVGID_5_"  overflow="visible"/>
		</clipPath>
		<path clip-path="url(#SVGID_6_)" fill="#FFFFFF" d="M530.278,474.667c0.13,1.121,0.317,3.082,0.248,4.611
			c-0.026,0.55,0.409,0.993,0.961,1c4.608,0.053,10.968-1.957,12.979-2.637c0.385-0.128,0.64-0.487,0.643-0.895l0.04-4.353
			c0.004-0.595-0.529-1.051-1.115-0.951l-12.964,2.179C530.568,473.706,530.219,474.161,530.278,474.667"/>
	</g>
	<path fill="#007CFF" d="M461.492,478.082c-0.033,1.199-0.104,3.333-0.213,4.913c-0.037,0.522,0.352,0.983,0.876,1.055
		c3.925,0.54,10.184,0.05,12.239-0.137c0.406-0.036,0.728-0.331,0.806-0.729l0.824-4.297c0.112-0.587-0.344-1.154-0.947-1.179
		l-12.635-0.503C461.926,477.184,461.507,477.567,461.492,478.082"/>
	<g>
		<defs>
			<rect id="SVGID_7_" x="461.276" y="477.204" width="14.765" height="7.092"/>
		</defs>
		<clipPath id="SVGID_8_">
			<use xlink:href="#SVGID_7_"  overflow="visible"/>
		</clipPath>
		<path clip-path="url(#SVGID_8_)" fill="#FFFFFF" d="M461.492,478.082c-0.033,1.199-0.104,3.333-0.213,4.913
			c-0.037,0.522,0.352,0.983,0.876,1.055c3.925,0.54,10.184,0.05,12.239-0.137c0.406-0.036,0.728-0.331,0.806-0.729l0.824-4.297
			c0.112-0.587-0.344-1.154-0.947-1.179l-12.635-0.503C461.926,477.184,461.507,477.567,461.492,478.082"/>
	</g>
	<path fill="#007CFF" d="M452.76,226.279c0.398,4.327,0.893,9.806,2.757,20.025c1.412,8.669,2.451,17.125,4.503,31.423
		c19.859,2.084,43.228,0.404,44.253-2.944c-1.568-12.379-1.52-29.082,2.933-57.845c1.033-6.669-3.8-12.357-10.381-12.216
		c-1.759,0.037-3.62,0.117-5.522,0.258c-7.397,0.55-13.455,1.056-19.912,2.451c-2.14,0.464-4.349,1.012-6.457,1.574
		C457.325,211.031,452.048,218.523,452.76,226.279"/>
	<g>
		<defs>
			<rect id="SVGID_9_" x="452.696" y="204.719" width="54.649" height="73.924"/>
		</defs>
		<clipPath id="SVGID_10_">
			<use xlink:href="#SVGID_9_"  overflow="visible"/>
		</clipPath>
		<path clip-path="url(#SVGID_10_)" fill="#FFFFFF" d="M452.76,226.279c0.398,4.327,0.893,9.806,2.757,20.025
			c1.412,8.669,2.451,17.125,4.503,31.423c19.859,2.084,43.228,0.404,44.253-2.944c-1.568-12.379-1.52-29.082,2.933-57.845
			c1.033-6.669-3.8-12.357-10.381-12.216c-1.759,0.037-3.62,0.117-5.522,0.258c-7.397,0.55-13.455,1.056-19.912,2.451
			c-2.14,0.464-4.349,1.012-6.457,1.574C457.325,211.031,452.048,218.523,452.76,226.279"/>
	</g>
	<path fill="#1A2E35" d="M456.317,214.725l2.309,2.898c0.094,0.118,0.232,0.179,0.37,0.179c0.104,0,0.208-0.033,0.294-0.104
		c0.206-0.161,0.239-0.46,0.076-0.664l-2.427-3.048C456.725,214.226,456.517,214.472,456.317,214.725"/>
	<path fill="#007CFF" d="M466.884,213.022c0.01,0,0.02,0.001,0.03,0.001c0.248,0,0.457-0.193,0.473-0.444l0.268-4.271
		c-0.324,0.081-0.641,0.164-0.964,0.246l-0.249,3.966C466.426,212.781,466.623,213.006,466.884,213.022"/>
	<path fill="#007CFF" d="M487.602,216.841c0.081,0.053,0.171,0.079,0.261,0.079c0.154,0,0.304-0.075,0.396-0.213
		c0.143-0.218,0.084-0.512-0.135-0.656l-12.118-8.004c-0.218-0.144-0.51-0.085-0.656,0.134c-0.144,0.218-0.085,0.512,0.134,0.656
		L487.602,216.841z"/>
	<path fill="#1A2E35" d="M466.93,219.524c-0.095,0.244,0.025,0.517,0.268,0.612l13.524,5.293c0.056,0.023,0.115,0.033,0.171,0.033
		c0.19,0,0.369-0.114,0.442-0.301c0.095-0.244-0.026-0.517-0.269-0.612l-13.524-5.293
		C467.299,219.158,467.025,219.28,466.93,219.524"/>
	<path fill="#007CFF" d="M459.117,243.597c0.079,0.052,0.169,0.076,0.256,0.076c0.156,0,0.308-0.076,0.398-0.218l7.88-12.198
		c0.143-0.219,0.079-0.513-0.14-0.654c-0.22-0.141-0.513-0.078-0.654,0.141l-7.881,12.198
		C458.835,243.162,458.898,243.456,459.117,243.597"/>
	<path fill="#007CFF" d="M455.262,232.944c0.091,0.087,0.208,0.128,0.324,0.128c0.125,0,0.252-0.05,0.344-0.15
		c0.179-0.19,0.17-0.49-0.022-0.669l-2.832-2.653c0.046,0.463,0.097,0.942,0.151,1.44L455.262,232.944z"/>
	<path fill="#007CFF" d="M498.007,241.017c-0.245,0.089-0.372,0.362-0.282,0.607c0.071,0.193,0.252,0.311,0.445,0.311
		c0.053,0,0.108-0.009,0.163-0.029l5.99-2.189c0.032-0.343,0.068-0.699,0.101-1.046L498.007,241.017z"/>
	<path fill="#007CFF" d="M495.444,231.252c0.086,0,0.173-0.024,0.251-0.072l10.388-6.529c0.056-0.408,0.111-0.811,0.169-1.225
		l-11.06,6.952c-0.222,0.14-0.288,0.431-0.148,0.653C495.133,231.173,495.287,231.252,495.444,231.252"/>
	<path fill="#007CFF" d="M488.353,233.074c-0.14-0.22-0.432-0.287-0.653-0.15l-12.295,7.728c-0.222,0.14-0.29,0.432-0.15,0.653
		c0.091,0.144,0.245,0.222,0.401,0.222c0.088,0,0.174-0.023,0.252-0.072l12.295-7.728
		C488.425,233.587,488.493,233.296,488.353,233.074"/>
	<path fill="#1A2E35" d="M498.72,216.709c0.056,0,0.112-0.01,0.167-0.03c0.245-0.092,0.367-0.366,0.275-0.61l-4.255-11.283
		c-0.333,0.012-0.659,0.022-0.996,0.037l4.365,11.579C498.348,216.593,498.528,216.709,498.72,216.709"/>
	<path fill="#007CFF" d="M486.518,275.754c-0.218-0.146-0.51-0.085-0.656,0.134c-0.144,0.218-0.085,0.512,0.134,0.656l2.695,1.78
		c0.527-0.033,1.043-0.071,1.552-0.108L486.518,275.754z"/>
	<path fill="#007CFF" d="M503.892,271.272l-10.494-4.107c-0.243-0.097-0.519,0.024-0.614,0.268
		c-0.095,0.244,0.026,0.517,0.269,0.612l10.936,4.28C503.954,271.982,503.925,271.622,503.892,271.272"/>
	<path fill="#1A2E35" d="M459.547,274.402c0.04,0.291,0.081,0.575,0.122,0.87c0.173-0.075,0.308-0.219,0.301-0.419
		C459.962,274.615,459.77,274.402,459.547,274.402"/>
	<path fill="#007CFF" d="M459.417,259.9c0.135,0,0.269-0.058,0.362-0.169c0.169-0.2,0.144-0.499-0.058-0.667l-2.618-2.203
		c0.065,0.463,0.13,0.928,0.197,1.402l1.813,1.526C459.201,259.864,459.309,259.9,459.417,259.9"/>
	<path fill="#1A2E35" d="M481.558,255.162c0.189,0,0.367-0.114,0.441-0.301c0.095-0.244-0.025-0.517-0.268-0.612l-13.523-5.299
		c-0.241-0.095-0.517,0.024-0.612,0.268c-0.095,0.244,0.025,0.519,0.268,0.614l13.521,5.297
		C481.441,255.152,481.5,255.162,481.558,255.162"/>
	<path fill="#007CFF" d="M478.425,261.415l-12.296,7.728c-0.22,0.138-0.287,0.431-0.148,0.653c0.089,0.143,0.244,0.222,0.402,0.222
		c0.085,0,0.173-0.024,0.251-0.073l12.296-7.727c0.22-0.14,0.287-0.432,0.148-0.653
		C478.938,261.343,478.644,261.279,478.425,261.415"/>
	<path fill="#1A2E35" d="M489.776,257.743c0.089,0.143,0.244,0.222,0.401,0.222c0.086,0,0.173-0.025,0.252-0.072l12.295-7.728
		c0.222-0.14,0.288-0.432,0.148-0.653c-0.138-0.222-0.432-0.288-0.651-0.15l-12.296,7.728
		C489.704,257.23,489.637,257.521,489.776,257.743"/>
	<path fill="#1A2E35" d="M475.844,276.192c-0.091-0.245-0.365-0.367-0.61-0.275c-0.245,0.092-0.369,0.365-0.277,0.608l0.793,2.098
		c0.339,0.004,0.677,0.009,1.016,0.013L475.844,276.192z"/>
	<path fill="#FF8B7B" d="M465.836,226.564c-0.11,0.94-0.2,1.605-0.316,2.369c-0.11,0.741-0.257,1.463-0.392,2.186
		c-0.28,1.442-0.597,2.866-0.931,4.286c-0.703,2.83-1.546,5.626-2.556,8.378c-0.977,2.761-2.147,5.476-3.473,8.136
		c-1.272,2.679-2.86,5.257-4.513,7.783l-0.3,0.457c-0.173,0.267-0.389,0.519-0.61,0.731c-2.641,2.5-5.032,4.166-7.499,5.901
		c-2.444,1.705-4.931,3.265-7.413,4.799c-2.499,1.506-5.009,2.97-7.558,4.363c-2.575,1.362-5.11,2.734-7.776,3.982
		c-1.961,0.917-4.293,0.071-5.209-1.889c-0.732-1.568-0.339-3.372,0.852-4.502l0.035-0.03c2.066-1.957,4.228-3.839,6.329-5.761
		l6.367-5.639c2.127-1.847,4.196-3.738,6.237-5.574c1.02-0.924,1.999-1.847,2.937-2.77l1.337-1.35
		c0.431-0.439,0.749-0.836,1.133-1.246l-0.908,1.186c1.063-2.13,2.082-4.284,2.961-6.555c0.876-2.261,1.687-4.571,2.394-6.934
		c0.699-2.363,1.359-4.751,1.922-7.165c0.288-1.205,0.562-2.412,0.798-3.616l0.64-3.422l0.082-0.438
		c0.794-4.238,4.872-7.032,9.11-6.24C463.567,218.746,466.295,222.532,465.836,226.564"/>
	<path fill="#FF8B7B" d="M421.937,273.205l-8.083-2.392c-1.345-0.398-2.786-0.303-4.065,0.268l-3.532,1.574
		c-1.734,0.772-2.494,2.819-1.686,4.536l1.613,3.421c0.667,1.415,2.216,2.189,3.748,1.872l6.325-1.307c0,0,3.139,0.236,5.989-0.839
		c2.257-0.853,3.097-3.62,1.751-5.622C423.507,273.989,422.778,273.454,421.937,273.205"/>
	<path fill="#007CFF" d="M462.171,210.168c-6.813,2.555-12.639,8.502-15.441,23.852c3.712,4.732,16.99,7.231,16.99,7.231
		S473.636,220.912,462.171,210.168"/>
	<g>
		<defs>
			<rect id="SVGID_11_" x="446.73" y="210.168" width="20.971" height="31.083"/>
		</defs>
		<clipPath id="SVGID_12_">
			<use xlink:href="#SVGID_11_"  overflow="visible"/>
		</clipPath>
		<path clip-path="url(#SVGID_12_)" fill="#FFFFFF" d="M462.171,210.168c-6.813,2.555-12.639,8.502-15.441,23.852
			c3.712,4.732,16.99,7.231,16.99,7.231S473.636,220.912,462.171,210.168"/>
	</g>
	<path fill="#1A2E35" d="M458.626,217.623c0.094,0.118,0.232,0.179,0.37,0.179c0.104,0,0.207-0.033,0.294-0.104
		c0.206-0.163,0.239-0.46,0.076-0.664l-2.86-3.592c-0.241,0.199-0.478,0.408-0.713,0.625L458.626,217.623z"/>
	<path fill="#1A2E35" d="M466.93,219.524c-0.095,0.244,0.025,0.517,0.268,0.612l0.16,0.063c-0.052-0.314-0.11-0.627-0.176-0.938
		C467.07,219.311,466.978,219.401,466.93,219.524"/>
	<path fill="#007CFF" d="M461.509,240.767l5.097-7.891c0.179-0.736,0.343-1.504,0.49-2.297c-0.091,0.035-0.183,0.076-0.239,0.164
		l-6.32,9.785C460.883,240.618,461.206,240.695,461.509,240.767"/>
	<path fill="#007CFF" d="M455.262,232.944c0.091,0.087,0.208,0.128,0.324,0.128c0.125,0,0.252-0.05,0.344-0.15
		c0.179-0.19,0.17-0.49-0.022-0.669l-7.055-6.607c-0.111,0.327-0.223,0.65-0.33,0.989L455.262,232.944z"/>
</g>
<rect x="11.707" y="317.409" fill="#C2C7CC" width="59.401" height="59.4"/>
<g>
	<path fill="#07A0FF" d="M134.311,316.92c0,0,1.996-7.318,16.255-10.814c11.525-2.825,36.967-8.479,36.967-8.479l38.585-43.908
		l7.317,5.654c0,0-25.945,36.257-30.935,44.906c-4.989,8.649-11.641,16.632-12.639,21.622c-0.998,4.989-5.655,43.243-5.655,43.243
		s-19.958,6.319-38.585,2.66c0,0-3.659-31.932-4.989-38.917c0,0-7.318,10.644-10.644,12.972c-3.326,2.328-49.563,1.331-49.563,1.331
		s-2.661-5.322,0-7.318c0,0,33.929-3.991,38.585-4.989C123.667,333.885,134.311,316.92,134.311,316.92"/>
	<path fill="#120D72" d="M162.252,251.059c0,0-17.297-5.304-24.615,13.813c-7.318,19.117-5.322,30.094-8.981,36.415
		c0,0,13.639,7.318,35.259,3.992c21.621-3.327,23.617-7.651,23.617-7.651S189.196,255.05,162.252,251.059"/>
	<path fill="#FF95AD" d="M193.52,402.74c-1.995-7.318-9.313-33.596-9.313-33.596s-19.959,6.32-38.587,2.661
		c0,0-6.319,40.248-7.982,60.872c-1.664,20.623-5.655,31.6-7.318,41.246c-1.663,9.646-2.329,31.6-2.329,31.6s6.986,2.328,10.977,0
		c0,0,9.314-28.607,10.978-35.924c1.663-7.318,0.332-15.302,3.658-23.617c3.327-8.316,14.93-42.244,14.93-42.244
		s15.008,40.913,15.008,48.565c0,7.65,18.296,50.893,18.296,50.893s4.989,1.33,9.646-1.663c0,0-4.99-29.937-8.316-46.237
		C199.84,438.997,195.516,410.058,193.52,402.74"/>
	<path fill="#25BDFF" d="M127.991,505.523c0,0-5.114,13.97-1.247,14.594c3.867,0.625,12.1,0.25,14.469,0
		c2.37-0.249-2.245-14.594-2.245-14.594C134.976,507.852,127.991,505.523,127.991,505.523"/>
	<path fill="#25BDFF" d="M211.482,501.532c-4.657,2.993-9.646,1.663-9.646,1.663s-4.312,16.298-0.445,16.922
		c3.867,0.625,12.1,0.25,14.47,0C218.231,519.868,211.482,501.532,211.482,501.532"/>
	<path fill="#FFB6D7" d="M80.425,339.872c0,0-4.324-2.745-6.445-4.241c-2.121-1.497-6.113-3.868-7.484-3.368
		c-1.373,0.498,0.623,2.052,1.87,3.77l1.248,1.718c0,0-2.121,0.249-5.738-0.124c-3.618-0.375-6.861-1.373-7.36-0.625
		c-0.499,0.749,1.247,1.996,4.117,2.87c2.868,0.872,3.492,1.746,1.622,2.369c-1.872,0.625-7.36,0.25-7.859,1.123
		c-0.499,0.874,0.375,1.872,3.742,1.872c3.369,0,4.616,0.499,4.491,0.998c-0.126,0.499-4.491,3.492-4.616,4.24
		c-0.124,0.749,2.245,0.375,6.861-1.87c0,0,2.62-0.998,1.123,1.123s-2.62,5.488,0.748,2.994c3.369-2.495,4.491-4.117,5.738-4.74
		c1.247-0.624,7.942-0.789,7.942-0.789S77.764,341.868,80.425,339.872"/>
	<path fill="#FFB6D7" d="M242.265,247.029c4.363-2.703,5.946-4.507,5.247-4.801c-0.7-0.294-5.563,1.798-6.051,1.637
		c-0.489-0.162-0.244-1.482,1.555-4.33c1.798-2.847,1.421-4.118,0.417-4.163c-1.005-0.044-3.62,4.795-5.147,6.045
		c-1.526,1.248-1.931,0.255-1.138-2.637c0.794-2.892,0.672-5.034-0.227-5.012c-0.899,0.022-1.788,3.297-3.403,6.555
		c-1.615,3.259-2.959,4.918-2.959,4.918l-0.787-1.973c-0.786-1.972-1.034-4.489-2.188-3.596c-1.155,0.894-1.282,5.535-1.151,8.126
		c0.089,1.724,0.123,4.56,0.135,6.271l6.446,4.981c0.844-1.245,3.649-5.311,4.659-5.921c1.193-0.721,3.164-0.804,7.072-2.319
		c3.908-1.515,0.461-2.365-2.132-2.232C240.022,248.71,242.265,247.029,242.265,247.029"/>
	<path fill="#FC809B" d="M140.631,452.881c2.162-11.23,6.32-24.196,7.954-45.08c1.044-13.332,2.112-27.015,2.748-35.176
		c-1.903-0.183-3.814-0.448-5.713-0.82c0,0-6.32,40.248-7.983,60.871c-1.663,20.624-5.654,31.601-7.317,41.248
		c-1.663,9.646-2.329,31.6-2.329,31.6s2.388,0.789,5.167,0.986C134.683,494.518,138.878,461.984,140.631,452.881"/>
	<path fill="#FC809B" d="M192.054,461.483c-6.29-21.588-12.172-35.292-14.634-42.872c-2.461-7.581-8.887-14.873-8.887-14.873
		s15.008,40.913,15.008,48.565c0,7.65,18.296,50.893,18.296,50.893s1.325,0.348,3.242,0.282
		C202.429,495.308,196.714,477.479,192.054,461.483"/>
</g>
</svg>
