<?xml version="1.0" encoding="utf-8"?>
<!-- Generator: Adobe Illustrator 17.0.0, SVG Export Plug-In . SVG Version: 6.00 Build 0)  -->
<!DOCTYPE svg PUBLIC "-//W3C//DTD SVG 1.1//EN" "http://www.w3.org/Graphics/SVG/1.1/DTD/svg11.dtd">
<svg version="1.1" id="Layer_1" xmlns="http://www.w3.org/2000/svg" xmlns:xlink="http://www.w3.org/1999/xlink" x="0px" y="0px"
	 width="396px" height="117.333px" viewBox="0 0 396 117.333" enable-background="new 0 0 396 117.333" xml:space="preserve">
<g>
	<linearGradient id="SVGID_1_" gradientUnits="userSpaceOnUse" x1="5.2155" y1="52.018" x2="95.2273" y2="52.018">
		<stop  offset="0.2906" style="stop-color:#2E2D80"/>
		<stop  offset="0.3704" style="stop-color:#2E3081"/>
		<stop  offset="0.4584" style="stop-color:#2D3885"/>
		<stop  offset="0.5504" style="stop-color:#2C448B"/>
		<stop  offset="0.6452" style="stop-color:#2B5595"/>
		<stop  offset="0.742" style="stop-color:#2869A3"/>
		<stop  offset="0.8407" style="stop-color:#2483B5"/>
		<stop  offset="0.9389" style="stop-color:#18A5CE"/>
		<stop  offset="1" style="stop-color:#00C0E2"/>
	</linearGradient>
	<path fill="url(#SVGID_1_)" d="M95.09,13.189c-0.689-4.354-4.459-7.683-9.007-7.683c-3.436,0-6.427,1.901-7.982,4.707
		c-0.549,0.732-1.092,1.588-1.617,2.593L50.017,58.39L30.905,25.464h12.338l8.477,14.381l10.445-19.467
		C59.509,5.661,46.341,5.709,34.463,5.709H15.06c-0.041,0.005-0.083,0.01-0.125,0.016c-0.179-0.01-0.36-0.017-0.542-0.017
		c-5.069,0-9.178,4.109-9.178,9.178c0,1.515,0.369,2.943,1.02,4.203c0.391,1.011,0.927,2.088,1.634,3.235L50.017,98.53
		l43.724-78.686C93.732,19.864,95.766,16.625,95.09,13.189z"/>
	<linearGradient id="SVGID_2_" gradientUnits="userSpaceOnUse" x1="103.1509" y1="16.9349" x2="125.4042" y2="16.9349">
		<stop  offset="0.2906" style="stop-color:#2E2D80"/>
		<stop  offset="0.3704" style="stop-color:#2E3081"/>
		<stop  offset="0.4584" style="stop-color:#2D3885"/>
		<stop  offset="0.5504" style="stop-color:#2C448B"/>
		<stop  offset="0.6452" style="stop-color:#2B5595"/>
		<stop  offset="0.742" style="stop-color:#2869A3"/>
		<stop  offset="0.8407" style="stop-color:#2483B5"/>
		<stop  offset="0.9389" style="stop-color:#18A5CE"/>
		<stop  offset="1" style="stop-color:#00C0E2"/>
	</linearGradient>
	<circle fill="url(#SVGID_2_)" cx="114.278" cy="16.935" r="11.127"/>
	<g>
		<linearGradient id="SVGID_3_" gradientUnits="userSpaceOnUse" x1="79.6952" y1="58.149" x2="107.2462" y2="58.149">
			<stop  offset="0.2906" style="stop-color:#2E2D80"/>
			<stop  offset="0.3704" style="stop-color:#2E3081"/>
			<stop  offset="0.4584" style="stop-color:#2D3885"/>
			<stop  offset="0.5504" style="stop-color:#2C448B"/>
			<stop  offset="0.6452" style="stop-color:#2B5595"/>
			<stop  offset="0.742" style="stop-color:#2869A3"/>
			<stop  offset="0.8407" style="stop-color:#2483B5"/>
			<stop  offset="0.9389" style="stop-color:#18A5CE"/>
			<stop  offset="1" style="stop-color:#00C0E2"/>
		</linearGradient>
		<path fill="url(#SVGID_3_)" d="M102.486,62.35c1.66-2.918,3.26-5.744,4.76-8.402h-22.67l-4.881,8.402H102.486z"/>
		<linearGradient id="SVGID_4_" gradientUnits="userSpaceOnUse" x1="90.1168" y1="39.6424" x2="117.7972" y2="39.6424">
			<stop  offset="0.2906" style="stop-color:#2E2D80"/>
			<stop  offset="0.3704" style="stop-color:#2E3081"/>
			<stop  offset="0.4584" style="stop-color:#2D3885"/>
			<stop  offset="0.5504" style="stop-color:#2C448B"/>
			<stop  offset="0.6452" style="stop-color:#2B5595"/>
			<stop  offset="0.742" style="stop-color:#2869A3"/>
			<stop  offset="0.8407" style="stop-color:#2483B5"/>
			<stop  offset="0.9389" style="stop-color:#18A5CE"/>
			<stop  offset="1" style="stop-color:#00C0E2"/>
		</linearGradient>
		<path fill="url(#SVGID_4_)" d="M112.607,44.411c3.177-5.675,5.19-9.31,5.19-9.31l-22.14-0.227l-5.541,9.537H112.607z"/>
		<linearGradient id="SVGID_5_" gradientUnits="userSpaceOnUse" x1="54.1028" y1="91.7293" x2="97.0336" y2="91.7293">
			<stop  offset="0.2906" style="stop-color:#2E2D80"/>
			<stop  offset="0.3704" style="stop-color:#2E3081"/>
			<stop  offset="0.4584" style="stop-color:#2D3885"/>
			<stop  offset="0.5504" style="stop-color:#2C448B"/>
			<stop  offset="0.6452" style="stop-color:#2B5595"/>
			<stop  offset="0.742" style="stop-color:#2869A3"/>
			<stop  offset="0.8407" style="stop-color:#2483B5"/>
			<stop  offset="0.9389" style="stop-color:#18A5CE"/>
			<stop  offset="1" style="stop-color:#00C0E2"/>
		</linearGradient>
		<path fill="url(#SVGID_5_)" d="M74.155,71.887l-20.052,34.515c0,0,14.029,12.072,22.594-0.681
			c4.752-7.076,12.694-20.542,20.337-33.834H74.155z"/>
	</g>
</g>
<g>
	<path d="M160.242,67.524L136.062,8.11h7.383l16.797,43.75l16.719-43.75h7.344L160.242,67.524z"/>
	<path d="M190.398,65.298V8.11h6.796v57.188H190.398z"/>
	<path d="M231.843,33.54c3.724,1.589,6.529,3.698,8.418,6.328c1.888,2.631,2.832,5.742,2.832,9.336c0,5.261-1.674,9.499-5.02,12.715
		c-3.347,3.217-7.78,4.824-13.301,4.824c-4.506,0-8.281-1.152-11.328-3.457c-3.047-2.305-5.104-5.579-6.172-9.824l6.172-3.047
		c0.833,3.464,2.207,6.088,4.121,7.871c1.914,1.784,4.316,2.676,7.207,2.676c3.411,0,6.172-0.982,8.281-2.949
		c2.109-1.966,3.164-4.524,3.164-7.676c0-2.552-0.736-4.771-2.207-6.66c-1.472-1.888-3.691-3.482-6.66-4.785l-6.953-2.969
		c-3.803-1.588-6.635-3.633-8.496-6.133c-1.862-2.5-2.793-5.494-2.793-8.984c0-4.063,1.51-7.422,4.531-10.078
		c3.021-2.656,6.875-3.984,11.563-3.984c3.438,0,6.412,0.729,8.926,2.187c2.513,1.459,4.473,3.607,5.879,6.445l-5.625,3.594
		c-1.276-2.213-2.709-3.86-4.297-4.941c-1.589-1.08-3.386-1.621-5.391-1.621c-2.553,0-4.643,0.781-6.27,2.344
		c-1.628,1.563-2.441,3.555-2.441,5.977c0,2.031,0.625,3.789,1.875,5.273s3.189,2.8,5.82,3.945L231.843,33.54z"/>
	<path d="M252.234,65.298V8.11h6.797v57.188H252.234z"/>
	<path d="M331.374,36.821c0,4.089-0.756,7.943-2.268,11.563c-1.511,3.62-3.713,6.836-6.605,9.648s-6.222,4.98-9.986,6.504
		c-3.767,1.523-7.668,2.285-11.707,2.285s-7.929-0.762-11.668-2.285c-3.739-1.523-7.055-3.691-9.947-6.504
		c-2.919-2.838-5.141-6.067-6.665-9.688c-1.524-3.619-2.286-7.461-2.286-11.523c0-4.088,0.762-7.949,2.286-11.582
		s3.746-6.868,6.665-9.707c2.866-2.786,6.176-4.935,9.928-6.445c3.753-1.51,7.648-2.266,11.688-2.266
		c4.064,0,7.979,0.756,11.746,2.266c3.765,1.511,7.081,3.659,9.947,6.445c2.893,2.813,5.095,6.035,6.605,9.668
		C330.618,28.833,331.374,32.707,331.374,36.821z M300.808,60.415c3.127,0,6.104-0.592,8.934-1.777
		c2.827-1.185,5.375-2.91,7.643-5.176c2.241-2.239,3.948-4.778,5.121-7.617c1.173-2.838,1.76-5.846,1.76-9.023
		c0-3.203-0.594-6.25-1.779-9.141s-2.887-5.442-5.102-7.656c-2.241-2.239-4.776-3.945-7.604-5.117
		c-2.829-1.172-5.819-1.758-8.973-1.758c-3.18,0-6.19,0.586-9.031,1.758s-5.355,2.878-7.545,5.117
		c-2.241,2.266-3.949,4.831-5.122,7.695c-1.173,2.865-1.759,5.898-1.759,9.102c0,3.178,0.58,6.172,1.739,8.984
		c1.16,2.813,2.874,5.365,5.142,7.656c2.293,2.292,4.841,4.023,7.643,5.195S297.655,60.415,300.808,60.415z"/>
	<path d="M342.468,65.298V5.845l41.836,45.703V8.11h6.484v59.414l-41.836-45.195v42.969H342.468z"/>
</g>
<g>
	<path d="M153.181,113.943l-15.112-37.133h4.614l10.498,27.343l10.449-27.343h4.59L153.181,113.943z"/>
	<path d="M182.529,112.551V76.809h4.248v35.742H182.529z"/>
	<path d="M216.124,113.943l-15.112-37.133h4.614l10.498,27.343l10.449-27.343h4.59L216.124,113.943z"/>
	<path d="M255.848,75.393l16.26,37.158h-4.614l-4.639-10.962H248.89l-4.639,10.962h-4.614L255.848,75.393z M255.848,84.793
		l-5.688,13.159h11.377L255.848,84.793z"/>
	<path d="M286.294,112.551V75.393l26.147,28.564V76.809h4.053v37.133l-26.147-28.247v26.855H286.294z"/>
	<path d="M341.789,112.551V80.862h-10.107v-4.053h24.463v4.053h-10.059v31.689H341.789z"/>
	<path d="M371.381,112.551V76.809h18.848v3.882h-14.6v10.254h14.6V94.9h-14.6v13.696h14.6v3.955H371.381z"/>
</g>
</svg>
