<svg width="379" height="267" viewBox="0 0 379 267" fill="none" xmlns="http://www.w3.org/2000/svg">
<g clip-path="url(#clip0_22_17853)">
<path d="M379 267H0V-0.000649013H379V267Z" fill="white"/>
<path d="M283.853 66.3489H283.855C288.394 51.2354 304.311 42.6695 319.403 47.2172C334.495 51.766 343.047 67.7048 338.508 82.8183V82.8185C333.965 97.9321 318.05 106.497 302.958 101.949C287.866 97.4014 279.312 81.4627 283.853 66.3489ZM274.508 65.2511C269.37 85.501 281.64 106.162 301.862 111.308C322.082 116.454 342.714 104.166 347.853 83.9161C352.992 63.6663 340.721 43.0057 320.499 37.8594C300.279 32.7131 279.647 45.0009 274.508 65.2511" fill="#F7CC7F"/>
<path d="M273.209 64.9201C275.787 54.7631 282.159 46.2192 291.153 40.8621C300.149 35.5042 310.686 33.9767 320.83 36.5586C330.973 39.1388 339.505 45.5207 344.854 54.5281C350.204 63.5353 351.729 74.0895 349.153 84.2467C346.575 94.4038 340.203 102.948 331.209 108.305C322.213 113.661 311.673 115.19 301.532 112.609C291.389 110.028 282.858 103.646 277.507 94.6388C272.158 85.6316 270.633 75.0774 273.209 64.9201M248.289 65.3095C248.468 66.2145 249.287 66.5306 251.305 67.3323C254.913 68.7663 258.526 70.201 262.084 71.7603C262.643 72.0058 263.203 72.8794 263.272 73.5159C263.683 77.3012 263.866 81.1122 264.316 84.892C264.456 86.0632 264.343 86.686 263.29 87.3475C259.09 89.9912 254.962 92.7529 250.853 95.4414C251.879 99.8542 257.056 109.773 259.822 112.546C264.18 110.71 268.66 108.902 273.064 106.919C274.436 106.303 275.135 106.421 276.278 107.515C278.927 110.051 281.817 112.353 284.735 114.584C285.916 115.487 286.547 116.195 286.164 117.823C285.171 122.041 284.434 126.32 283.512 130.556C283.264 131.694 283.48 132.406 284.602 132.754C289.884 134.392 295.167 136.022 300.449 137.657C301.748 138.059 301.947 136.989 302.271 136.224C303.913 132.349 305.576 128.481 307.083 124.554C307.65 123.08 308.411 122.594 310.01 122.544C314.242 122.411 318.467 122.002 323.02 121.68C325.713 125.774 328.686 130.294 331.741 134.94C337.877 132.906 343.4 129.86 348.632 125.832C346.561 120.846 344.487 115.858 342.662 111.462C345.795 107.487 348.779 103.869 351.543 100.091C352.344 98.997 352.97 98.8171 354.169 99.081C358.337 99.9976 362.535 100.784 366.707 101.672C367.609 101.864 368.272 101.899 368.735 100.912C371.07 95.9233 372.953 90.8053 373.715 85.3045C373.884 84.0784 373.444 83.5944 372.435 83.1772C368.377 81.4976 364.347 79.7404 360.28 78.0778C359.296 77.6751 358.883 77.2566 358.794 76.0532C358.484 71.8785 357.993 67.7119 357.397 63.5676C357.245 62.5089 357.58 62.0971 358.323 61.6064C362.471 58.872 366.597 56.1071 370.834 53.2817C368.684 47.2352 365.941 41.6229 362.012 36.4621C356.933 38.5788 351.887 40.682 347.059 42.6942C342.99 39.3148 339.051 36.0417 334.835 32.541C335.581 28.8083 336.473 24.5152 337.294 20.2082C337.966 16.6731 338.471 17.1394 334.925 15.6486C334.585 15.5062 334.299 15.2397 333.989 15.033C330.817 14.0774 327.644 13.1219 324.472 12.164C323.731 12.0813 322.954 12.1112 322.256 11.8906C320.44 11.3141 319.419 11.7276 318.694 13.6754C317.187 17.7343 315.423 21.699 313.673 25.6614C313.441 26.1805 312.689 26.7203 312.12 26.7915C308.409 27.2624 304.645 27.4117 300.972 28.0756C299.176 28.3995 298.419 27.9079 297.532 26.5044C295.018 22.5259 292.341 18.6508 289.462 14.3416C283.774 17.3323 278.223 20.2496 272.612 23.2013C273.053 24.3222 273.296 24.97 273.562 25.6109C275.2 29.5526 276.805 33.5127 278.514 37.4243C279 38.5354 278.753 39.1597 277.993 40.0638C275.383 43.1694 272.972 46.4432 270.383 49.5672C269.984 50.0518 268.99 50.392 268.36 50.2827C264.914 49.6829 261.499 48.8925 258.065 48.2239C255.285 47.6829 254.251 47.4918 253.37 48.4007L248.289 65.3095" fill="#F7CC7F"/>
<path d="M49.4421 104.391C45.6754 96.8657 45.0602 88.3229 47.7096 80.3349C50.3591 72.3469 55.9563 65.8702 63.4702 62.098C70.9838 58.3258 79.5148 57.7098 87.4916 60.3627C95.4681 63.0157 101.936 68.6205 105.702 76.1455C109.469 83.6705 110.084 92.2133 107.435 100.201C104.785 108.189 99.1881 114.666 91.6743 118.438C84.1606 122.21 75.6295 122.826 67.653 120.173C59.6764 117.519 53.209 111.914 49.4421 104.391M34.5147 117.746C35.0979 118.2 35.7604 117.963 37.4069 117.387C40.3522 116.357 43.299 115.326 46.2773 114.4C46.7461 114.254 47.5447 114.491 47.9208 114.841C50.1575 116.923 52.2692 119.14 54.5262 121.2C55.2259 121.836 55.4836 122.274 55.1925 123.23C54.029 127.048 52.9724 130.897 51.8882 134.694C54.8286 136.831 63.1781 140.13 66.3139 140.358C67.9964 136.949 69.7681 133.491 71.4014 129.97C71.9099 128.874 72.3974 128.577 73.6649 128.64C76.6053 128.785 79.5682 128.662 82.5114 128.48C83.7032 128.406 84.4573 128.504 85.079 129.694C86.6908 132.779 88.4891 135.764 90.1531 138.821C90.6004 139.644 91.1055 139.963 91.9699 139.582C96.036 137.796 100.1 136.005 104.166 134.217C105.165 133.778 104.725 133.024 104.52 132.388C103.482 129.171 102.461 125.947 101.317 122.768C100.887 121.574 101.093 120.88 102.038 120.007C104.539 117.698 106.889 115.226 109.484 112.633C113.268 113.702 117.446 114.881 121.741 116.094C124.398 111.629 126.154 106.871 127.217 101.671C123.341 99.7341 119.464 97.7959 116.047 96.0884C115.864 92.0256 115.777 88.2575 115.471 84.5075C115.383 83.423 115.669 82.9836 116.537 82.5109C119.549 80.8744 122.509 79.1433 125.51 77.4845C126.158 77.1272 126.579 76.799 126.341 75.9564C125.141 71.6975 123.598 67.5985 121.172 63.8583C120.632 63.024 120.111 62.9615 119.279 63.2382C115.932 64.3561 112.564 65.41 109.221 66.5418C108.412 66.8157 107.941 66.7782 107.255 66.0955C104.876 63.7234 102.391 61.4515 99.8531 59.249C99.2049 58.6859 99.1926 58.259 99.3869 57.5694C100.469 53.7262 101.523 49.8761 102.613 45.9287C98.1334 43.3898 93.5215 41.4251 88.4266 40.36C86.4539 44.3186 84.4938 48.2521 82.6182 52.016C78.3735 52.1064 74.2637 52.1926 69.866 52.2858C68.3602 49.6259 66.6479 46.5502 64.8843 43.5038C63.4369 41.0024 63.9881 41.0191 61.0525 41.9813C60.7723 42.073 60.4588 42.0633 60.161 42.0995C57.7331 43.1896 55.3053 44.2783 52.8776 45.3684C52.3832 45.7076 51.9271 46.1359 51.3871 46.3681C49.9818 46.9743 49.5781 47.7641 50.1611 49.3269C51.3758 52.5847 52.3876 55.9217 53.403 59.249C53.5358 59.6856 53.362 60.4114 53.0543 60.7535C51.0473 62.9934 48.8411 65.0652 46.9589 67.4011C46.0379 68.544 45.3208 68.6428 44.0459 68.2576C40.4301 67.1661 36.7696 66.222 32.7608 65.1194C30.8764 69.9317 29.0381 74.6258 27.1792 79.3727C28.0349 79.8204 28.5232 80.086 29.0201 80.3349C32.0858 81.8657 35.1379 83.4244 38.23 84.9011C39.1081 85.3196 39.2856 85.8299 39.2988 86.7781C39.3445 90.0373 39.5996 93.2951 39.6673 96.5542C39.6777 97.0603 39.2538 97.7889 38.8141 98.0545C36.4061 99.5047 33.9187 100.821 31.4813 102.224C29.5093 103.359 28.7812 103.787 28.7237 104.804L34.5147 117.746" fill="#50BFA5"/>
<path d="M70.9504 31.4474L72.1473 29.2473L71.021 27.01C70.8928 26.7546 71.1111 26.4621 71.3906 26.5156L73.8441 26.9788L75.6151 25.2121C75.8169 25.0102 76.1608 25.129 76.1971 25.411L76.5167 27.8977L78.7374 29.0439C78.9903 29.1745 78.9845 29.5397 78.7274 29.6614L76.4715 30.7348L76.073 33.2096C76.0277 33.4917 75.6802 33.6001 75.4848 33.3922L73.7712 31.5692L71.304 31.9537C71.0231 31.9967 70.8142 31.6983 70.9504 31.4474" fill="#F7CC7F"/>
<path d="M205.258 40.5427L206.171 39.0493L204.718 38.4602L203.805 39.9522L205.258 40.5427ZM201.554 41.8743L202.578 40.212L201.755 39.8784C201.577 39.806 201.49 39.6016 201.563 39.4213C201.636 39.241 201.84 39.1544 202.02 39.2282L202.966 39.6115L203.879 38.1195L203.004 37.7632C202.824 37.6908 202.738 37.4849 202.81 37.3061C202.884 37.1258 203.088 37.0392 203.268 37.1116L204.27 37.519L205.332 35.8098C205.421 35.665 205.601 35.6054 205.76 35.6693L205.913 35.7317C206.114 35.8126 206.194 36.0554 206.08 36.2414L205.094 37.854L206.547 38.4446L207.609 36.734C207.699 36.5892 207.881 36.531 208.038 36.5948L208.205 36.663C208.405 36.7439 208.486 36.9866 208.373 37.1712L207.386 38.7839L208.207 39.1175C208.385 39.1913 208.472 39.3957 208.4 39.576C208.327 39.7549 208.123 39.8415 207.943 39.7691L206.996 39.3844L206.096 40.8834L206.974 41.2383C207.152 41.3122 207.239 41.5166 207.166 41.6969C207.094 41.8772 206.888 41.9638 206.71 41.8899L205.708 41.4839L204.623 43.2457C204.532 43.3919 204.351 43.4515 204.192 43.3876L204.014 43.3152C203.812 43.2329 203.733 42.9901 203.846 42.8056L204.868 41.1432L203.415 40.5527L202.332 42.3158C202.242 42.462 202.06 42.5217 201.901 42.4564L201.723 42.384C201.522 42.303 201.441 42.0589 201.554 41.8743" fill="#07345A"/>
<path d="M208.667 77.0116C209.904 70.4288 216.235 66.0975 222.807 67.3365C229.38 68.574 233.705 74.9136 232.47 81.4964C231.232 88.0793 224.902 92.4106 218.33 91.1715C211.756 89.934 207.43 83.5929 208.667 77.0116ZM194.996 70.8119L193.613 78.1761C193.729 78.5501 194.088 78.6474 194.977 78.8937C196.565 79.3361 198.152 79.7785 199.724 80.2772C199.971 80.3547 200.247 80.6983 200.305 80.9643C200.648 82.5424 200.896 84.1417 201.256 85.7167C201.368 86.2048 201.348 86.4723 200.934 86.7992C199.279 88.1051 197.662 89.4551 196.05 90.7762C196.681 92.5915 199.311 96.5427 200.603 97.5886C202.361 96.6172 204.169 95.6518 205.937 94.618C206.488 94.2957 206.791 94.3139 207.32 94.7229C208.552 95.6746 209.875 96.5153 211.207 97.3256C211.746 97.6525 212.043 97.9231 211.955 98.627C211.726 100.453 211.608 102.291 211.409 104.12C211.356 104.611 211.48 104.903 211.969 104.999C214.27 105.452 216.573 105.9 218.876 106.353C219.441 106.464 219.477 106.003 219.579 105.666C220.098 103.957 220.627 102.25 221.087 100.524C221.26 99.8767 221.557 99.638 222.23 99.5437C224.011 99.2974 225.775 98.9341 227.681 98.5936C229.001 100.199 230.46 101.972 231.958 103.794C234.454 102.66 236.649 101.126 238.676 99.1895C237.577 97.1797 236.477 95.1683 235.51 93.3957C236.653 91.5774 237.75 89.9158 238.745 88.1963C239.035 87.6992 239.29 87.5958 239.81 87.6521C241.609 87.8512 243.415 87.9941 245.217 88.1796C245.606 88.2207 245.885 88.2054 246.037 87.7676C246.798 85.5586 247.362 83.3132 247.437 80.9583C247.453 80.4322 247.245 80.2483 246.802 80.1175C245.012 79.593 243.235 79.0321 241.443 78.5136C241.009 78.389 240.816 78.2309 240.724 77.7276C240.405 75.9793 240.012 74.2432 239.573 72.5222C239.462 72.0813 239.585 71.8928 239.878 71.6526C241.504 70.3117 243.119 68.9587 244.781 67.5752C243.602 65.1215 242.193 62.876 240.303 60.8753C238.255 61.9988 236.219 63.1131 234.273 64.1804C232.404 62.9368 230.595 61.7343 228.659 60.4466C228.806 58.8381 228.989 56.9864 229.14 55.1317C229.266 53.6099 229.5 53.7832 227.936 53.3149C227.788 53.2693 227.654 53.1705 227.514 53.0975C226.133 52.8375 224.751 52.5761 223.37 52.3161C223.271 52.3161 223.171 52.3207 223.071 52.3237C222.851 52.3328 222.631 52.3435 222.421 52.3009C221.63 52.1397 221.217 52.3602 221 53.2146C220.546 54.9948 219.982 56.7477 219.42 58.4976C219.345 58.7271 219.052 58.9901 218.814 59.0464C217.27 59.4113 215.688 59.6439 214.169 60.0893C213.425 60.3067 213.085 60.1334 212.647 59.5815C211.407 58.0156 210.103 56.5014 208.694 54.8124C206.429 56.3327 204.219 57.8134 201.983 59.3124C202.219 59.764 202.35 60.027 202.493 60.2854C203.361 61.8756 204.216 63.4735 205.113 65.0469C205.368 65.4939 205.292 65.7691 205.011 66.1841C204.05 67.6132 203.18 69.1031 202.229 70.5382C202.08 70.7602 201.678 70.9487 201.407 70.9304C199.926 70.8331 198.448 70.6538 196.968 70.5261C195.772 70.4227 195.327 70.3892 194.996 70.8119" fill="#F47458"/>
<path d="M146.918 30.4449L151.271 30.9722L149.414 27.5867L146.918 30.4449" fill="#355389"/>
<path d="M162.91 68.0236C162.774 69.4974 164.039 70.8431 165.441 71.0901C166.895 71.3437 168.189 70.3959 168.689 69.0555C169.675 66.4109 166.785 64.3243 165.219 65.925C163.756 67.4188 164.219 69.6376 165.797 69.6389C166.393 69.6389 167.352 69.1383 166.972 68.4161C166.887 68.2532 166.647 68.2652 166.559 68.4161C166.367 68.7418 166.383 68.7538 166.292 68.8272C166.149 68.942 165.952 68.9794 165.775 68.9768C164.166 68.9487 165.235 65.2641 167.131 66.1572C168.172 66.6472 168.478 67.8327 168.117 68.8673C167.77 69.8632 166.837 70.6348 165.757 70.5654C164.468 70.4826 163.387 69.2958 163.305 68.0236C163.287 67.7673 162.934 67.7713 162.91 68.0236" fill="#F47458"/>
<path d="M242.441 13.4532L243.743 14.014C243.743 14.014 245.917 13.5268 246.159 13.118C246.403 12.7091 246.544 11.6769 246.848 11.6753C247.153 11.6753 247.727 11.8257 247.81 12.5494C247.867 13.0741 246.987 14.4964 247.093 14.6656C247.16 14.7721 247.899 15.1151 248.443 15.3564C248.801 15.5161 249.041 15.8608 249.066 16.2524V16.2539C249.084 16.5186 248.914 16.7599 248.659 16.8319L248.263 16.9431L248.354 17.3489C248.423 17.6496 248.235 17.9503 247.936 18.0193L247.631 18.0913L247.706 18.3404C247.803 18.6599 247.605 18.9936 247.276 19.0562L247.01 19.1079L247.016 19.1784C247.037 19.4682 246.833 19.7267 246.549 19.7736L246.284 19.8175L242.818 18.3263C242.493 18.1869 242.199 17.9817 241.956 17.7232L240.824 16.9964C240.702 16.9181 240.657 16.763 240.714 16.6299L242.06 13.6036C242.125 13.4579 242.294 13.3905 242.441 13.4532" fill="#50BFA5"/>
<path d="M205.85 75.5717H182.324C179.916 75.5717 177.963 77.5261 177.963 79.9371V87.6561C177.963 90.0671 179.916 92.0229 182.324 92.0229H205.85C208.258 92.0229 210.21 90.0671 210.21 87.6561V79.9371C210.21 77.5261 208.258 75.5717 205.85 75.5717Z" fill="#5184CE"/>
<path d="M174.684 237.738L149.765 249.241V251.788H238.505V249.241L213.363 237.738H174.684" fill="#466EB6"/>
<path d="M174.684 237.759H213.379V188.441H174.684V237.759Z" fill="#466EB6"/>
<path d="M311.123 203.912V92.6979C311.123 87.4135 306.846 83.1299 301.568 83.1299H86.2414C80.9647 83.1299 76.687 87.4135 76.687 92.6979V203.912H311.123Z" fill="#466EB6"/>
<path d="M238.505 251.788H149.765V249.241H238.505V251.788Z" fill="#335691"/>
<path d="M174.684 237.738H213.364V231.951H174.684V237.738Z" fill="#335691"/>
<path d="M76.687 203.912V221.734C76.687 225.44 79.1338 228.445 82.1523 228.445H305.656C308.676 228.445 311.123 225.44 311.123 221.734V203.912H76.687Z" fill="#5184CE"/>
<path d="M196.452 79.9412C196.452 81.144 195.478 82.1199 194.275 82.1199C193.073 82.1199 192.1 81.144 192.1 79.9412C192.1 78.737 193.073 77.7611 194.275 77.7611C195.478 77.7611 196.452 78.737 196.452 79.9412Z" fill="#184655"/>
<path d="M305.636 199.082V92.9938C305.636 90.2128 303.306 87.9584 300.427 87.9584H87.3846C84.5075 87.9584 82.1753 90.2128 82.1753 92.9938V199.082H305.636Z" fill="#CCE6FF"/>
<path d="M226.3 190.375H91.9888V96.5228H226.3V190.375Z" fill="#E9FFFF"/>
<path d="M226.3 107.511H91.9888V96.5228H226.3V107.511Z" fill="#5184CE"/>
<path d="M235.687 191.066V150.365H241.856C242.596 152.61 243.594 154.786 244.855 156.85V159.746H235.687V191.066" fill="#AFD0FB"/>
<path d="M283.266 191.066H274.099V171.701C277.23 171.434 280.325 170.691 283.266 169.475V191.066Z" fill="#9AC1F9"/>
<path d="M270.461 191.067H261.293V170.107C264.265 171.135 267.358 171.699 270.461 171.797V191.067ZM269.062 168.13C266.419 167.902 263.799 167.29 261.293 166.296C263.799 167.29 266.421 167.902 269.062 168.13Z" fill="#9AC1F9"/>
<path d="M296.251 191.067H287.084V167.572C287.317 167.434 287.547 167.294 287.776 167.152C288.702 167.938 289.638 168.744 289.881 169.039C289.881 169.039 293.322 172.979 296.251 176.228V191.067M296.251 171.242L291.928 167.79L291.924 167.791C291.859 167.575 291.148 165.244 291.112 164.827C291.112 164.803 291.104 164.778 291.095 164.752C291.302 164.582 291.506 164.407 291.708 164.23L296.251 168.673V171.242ZM296.251 161.795L295.143 160.709C295.528 160.244 295.897 159.773 296.251 159.292V161.795ZM290.823 160.136C290.83 160.128 290.839 160.119 290.846 160.111C290.839 160.119 290.83 160.128 290.823 160.136Z" fill="#9AC1F9"/>
<path d="M257.657 191.067H248.489V161.677C248.877 162.1 249.28 162.515 249.694 162.921C252.103 165.277 254.795 167.165 257.657 168.584V191.067ZM257.657 164.533C255.843 163.48 254.121 162.203 252.531 160.701C254.121 162.203 255.843 163.479 257.657 164.533ZM252.278 160.459C252.278 160.458 252.28 160.459 252.278 160.458C252.28 160.459 252.278 160.458 252.278 160.459Z" fill="#9AC1F9"/>
<path d="M244.855 191.066H235.687V159.746H244.855V191.066Z" fill="#9AC1F9"/>
<path d="M220.591 127.971H96.6221V112.036H220.591V127.971Z" fill="#BADAFB"/>
<path d="M220.592 136.58H140.8V132.496H220.592V136.58Z" fill="#BADAFB"/>
<path d="M135.875 179.627H96.6226V132.496H135.875V179.627Z" fill="#5184CE"/>
<path d="M220.592 145.19H177.62C176.59 143.598 174.993 142.676 173.173 142.459C172.834 142.419 172.522 142.401 172.228 142.401C169.757 142.401 168.785 143.758 167.279 145.19H140.8V141.106H220.592V145.19Z" fill="#BADAFB"/>
<path d="M220.592 171.018H140.8V166.934H155.044C156.546 168.041 158.208 168.488 159.906 168.488C161.94 168.488 164.024 167.847 165.955 166.934H220.592V171.018Z" fill="#BADAFB"/>
<path d="M220.592 179.627H140.8V175.543H220.592V179.627Z" fill="#BADAFB"/>
<path d="M40.5863 149.397L115.111 149.262C116.23 149.261 117.139 150.167 117.141 151.289L117.318 249.629C117.32 250.75 116.414 251.66 115.295 251.662L40.7704 251.797C39.6513 251.798 38.7424 250.892 38.7404 249.77L38.5635 151.43C38.5615 150.309 39.4671 149.4 40.5863 149.397" fill="#F7CC7F"/>
<path d="M42.6548 152.25L113.052 152.123L113.225 248.243L42.8277 248.37L42.6548 152.25" fill="white"/>
<path d="M93.1076 147.945C93.1068 147.512 92.7562 147.162 92.3245 147.164L62.7661 147.217C62.3345 147.217 61.985 147.568 61.9858 148.001L61.9914 151.078L93.1132 151.022L93.1076 147.945" fill="#13375B"/>
<path d="M77.5523 151.111C75.9013 151.114 74.5603 149.776 74.5574 148.124C74.5544 146.47 75.8905 145.127 77.5416 145.124C79.1927 145.121 80.5335 146.459 80.5366 148.113C80.5395 149.766 79.2035 151.109 77.5523 151.111ZM77.5386 143.45C74.964 143.454 72.8807 145.548 72.8853 148.126C72.8899 150.704 74.9808 152.791 77.5554 152.785C80.13 152.781 82.2132 150.688 82.2087 148.109C82.204 145.531 80.1132 143.444 77.5386 143.45Z" fill="#13375B"/>
<path d="M92.6291 147.224C92.9099 147.343 93.1073 147.62 93.1078 147.945L93.1134 151.022L61.9917 151.078C61.9954 153.209 63.7239 154.933 65.8525 154.929L89.2665 154.888C91.3949 154.884 93.1172 153.153 93.1134 151.022L93.1078 147.945C93.1073 147.62 92.9099 147.343 92.6291 147.224" fill="#355389"/>
<path d="M62.7663 147.217C62.4965 147.217 62.2588 147.355 62.1187 147.563C62.2588 147.355 62.4965 147.217 62.7663 147.217Z" fill="#9BC1F9"/>
<path d="M62.0205 147.768C62.0357 147.719 62.0556 147.672 62.0796 147.627C62.0556 147.672 62.0357 147.719 62.0205 147.768Z" fill="#9BC1F9"/>
<path d="M95.3804 180.086L104.57 180.07L104.553 170.868L95.3639 170.884L95.3804 180.086ZM104.98 180.479L94.9721 180.497L94.9541 170.476L104.962 170.457L104.98 180.479Z" fill="#184655"/>
<path d="M95.4102 196.762L104.6 196.746L104.583 187.542L95.3937 187.559L95.4102 196.762ZM105.009 197.154L95.002 197.171L94.9839 187.151L104.991 187.132L105.009 197.154Z" fill="#184655"/>
<path d="M95.4405 213.437L104.63 213.421L104.613 204.218L95.424 204.235L95.4405 213.437ZM105.04 213.83L95.0322 213.847L95.0142 203.826L105.022 203.808L105.04 213.83" fill="#184655"/>
<path d="M95.4703 230.113L104.66 230.095L104.643 220.893L95.4537 220.91L95.4703 230.113ZM105.069 230.505L95.0619 230.522L95.0439 220.501L105.051 220.483L105.069 230.505" fill="#184655"/>
<path d="M47.9358 172.207L90.7645 172.13L90.7618 170.688L47.9331 170.765L47.9358 172.207" fill="#9BC1F9"/>
<path d="M47.9431 176.292L90.7718 176.215L90.7693 174.773L47.9404 174.849L47.9431 176.292" fill="#9BC1F9"/>
<path d="M47.9503 180.377L90.7792 180.3L90.7766 178.857L47.9478 178.934L47.9503 180.377Z" fill="#9BC1F9"/>
<path d="M47.967 189.453L90.7958 189.375L90.7932 187.932L47.9644 188.009L47.967 189.453Z" fill="#9BC1F9"/>
<path d="M47.9742 193.536L90.8031 193.46L90.8004 192.017L47.9717 192.094L47.9742 193.536" fill="#9BC1F9"/>
<path d="M47.9815 197.621L90.8104 197.544L90.8077 196.102L47.979 196.18L47.9815 197.621Z" fill="#9BC1F9"/>
<path d="M47.9963 205.792L90.8251 205.714L90.8225 204.271L47.9937 204.348L47.9963 205.792Z" fill="#9BC1F9"/>
<path d="M48.0036 209.875L90.8324 209.799L90.8298 208.356L48.001 208.434L48.0036 209.875" fill="#9BC1F9"/>
<path d="M48.011 213.96L90.8397 213.883L90.8372 212.441L48.0083 212.519L48.011 213.96" fill="#9BC1F9"/>
<path d="M48.0256 222.131L90.8545 222.053L90.8518 220.61L48.0229 220.688L48.0256 222.131Z" fill="#9BC1F9"/>
<path d="M48.0328 226.216L90.8615 226.138L90.859 224.695L48.0303 224.773L48.0328 226.216" fill="#9BC1F9"/>
<path d="M48.0403 230.299L90.8691 230.222L90.8665 228.78L48.0376 228.858L48.0403 230.299" fill="#9BC1F9"/>
<path d="M48.0592 240.861L97.4685 240.771L97.4659 239.329L48.0566 239.419L48.0592 240.861" fill="#9BC1F9"/>
<path d="M48.0657 244.356L107.219 244.249L107.216 242.807L48.063 242.914L48.0657 244.356" fill="#9BC1F9"/>
<path d="M99.9262 178.841L96.8184 173.501L97.9304 172.852L99.7344 175.952L102.679 168.876L103.867 169.373L99.9262 178.841" fill="#F47458"/>
<path d="M99.957 195.734L96.8491 190.395L97.9612 189.746L99.7651 192.845L102.71 185.771L103.898 186.266L99.957 195.734" fill="#F47458"/>
<path d="M100.016 228.764L96.9082 223.424L98.0203 222.775L99.8242 225.874L102.769 218.8L103.957 219.295L100.016 228.764" fill="#F47458"/>
<path d="M103.478 206.3L102.582 205.394L100.025 207.932L97.4588 205.403L96.5659 206.312L99.1207 208.829L96.5748 211.356L97.4711 212.261L100.028 209.723L102.594 212.252L103.487 211.343L100.933 208.826L103.478 206.3" fill="#F47458"/>
<path d="M58.749 248.342L62.2617 248.335L58.749 248.342Z" fill="#DABD7E"/>
<path d="M58.749 248.342C60.4074 247.271 61.8605 245.91 63.0352 244.329L65.6227 244.324C64.8867 245.509 64.0108 246.619 63.0029 247.63C62.7615 247.873 62.514 248.108 62.2617 248.335L58.749 248.342" fill="#E1ECFD"/>
<path d="M63.9946 242.885C64.3825 242.228 64.7257 241.542 65.02 240.83L67.3107 240.826C67.0601 241.528 66.7666 242.214 66.432 242.881L63.9946 242.885ZM65.539 239.387C66.007 237.862 66.2577 236.243 66.2546 234.566C66.2519 233.079 66.05 231.637 65.6742 230.267L67.8746 230.263C68.2068 231.656 68.3789 233.095 68.3816 234.562C68.3845 236.212 68.1728 237.83 67.7594 239.383L65.539 239.387ZM65.2049 228.827C64.8563 227.905 64.4263 227.021 63.9241 226.186L66.3675 226.182C66.8028 227.033 67.1703 227.915 67.4675 228.823L65.2049 228.827ZM62.9496 224.746C62.2164 223.777 61.3769 222.892 60.4506 222.108L63.5231 222.103C64.2813 222.928 64.9568 223.81 65.5453 224.741L62.9496 224.746M58.4653 220.669C55.9824 219.139 53.0615 218.255 49.9393 218.255C49.9295 218.255 49.9193 218.255 49.9095 218.255C47.3519 218.26 44.9315 218.857 42.7767 219.916L42.7735 218.119L42.7725 217.568C45.0005 216.626 47.4148 216.13 49.9056 216.126C49.9171 216.126 49.9281 216.126 49.9396 216.126C54.4367 216.126 58.6895 217.728 62.0472 220.662L58.4653 220.669" fill="#E1ECFD"/>
<path d="M60.4506 222.108C59.8267 221.581 59.1637 221.1 58.4653 220.669L62.0472 220.662C62.3581 220.935 62.6614 221.218 62.9563 221.511C63.1501 221.705 63.339 221.902 63.5231 222.103L60.4506 222.108Z" fill="#89B3F7"/>
<path d="M63.9237 226.186C63.6239 225.688 63.2988 225.208 62.9492 224.746L65.5449 224.741C65.8412 225.209 66.1156 225.691 66.3672 226.182L63.9237 226.186Z" fill="#89B3F7"/>
<path d="M65.6738 230.267C65.5392 229.778 65.3826 229.297 65.2046 228.827L67.4671 228.823C67.6222 229.297 67.758 229.778 67.8743 230.263L65.6738 230.267Z" fill="#89B3F7"/>
<path d="M65.02 240.83C65.2147 240.36 65.3882 239.878 65.539 239.387L67.7594 239.383C67.6296 239.87 67.4799 240.352 67.3107 240.826L65.02 240.83" fill="#89B3F7"/>
<path d="M63.0356 244.329C63.3799 243.866 63.7002 243.384 63.9947 242.885L66.4321 242.881C66.1848 243.373 65.915 243.855 65.6232 244.324L63.0356 244.329" fill="#89B3F7"/>
<path d="M42.8233 246.011L42.821 244.732L42.8233 246.011ZM42.7845 224.483L42.7822 223.204L42.7845 224.483Z" fill="#DABD7E"/>
<path d="M49.9379 248.056C47.3276 248.056 44.8884 247.307 42.8233 246.011L42.821 244.732C44.8359 246.155 47.2914 246.992 49.9379 246.992C49.9455 246.992 49.9531 246.992 49.9608 246.992C52.8359 246.987 55.4832 245.995 57.5839 244.338L59.2081 244.336C56.8004 246.635 53.5441 248.051 49.9627 248.056C49.9543 248.056 49.9463 248.056 49.9379 248.056ZM59.1274 242.894C59.6954 242.264 60.1998 241.575 60.6304 240.838L61.8474 240.835C61.4663 241.563 61.0206 242.25 60.5183 242.891L59.1274 242.894ZM61.3524 239.395C61.9768 237.91 62.3209 236.282 62.3177 234.573C62.3151 233.062 62.0412 231.614 61.5428 230.275L62.671 230.274C63.1289 231.622 63.3786 233.068 63.3813 234.57C63.3843 236.268 63.0719 237.894 62.4994 239.392L61.3524 239.395ZM60.8984 228.834C60.3927 227.874 59.7648 226.987 59.0354 226.196L60.4343 226.193C61.0815 227.002 61.6372 227.886 62.0863 228.832L60.8984 228.834ZM57.4615 224.755C55.3747 223.152 52.7657 222.197 49.9387 222.197C49.9312 222.197 49.9236 222.197 49.9162 222.197C47.261 222.203 44.8 223.049 42.7845 224.483L42.7822 223.204C44.3429 222.217 46.1195 221.542 48.0238 221.27L48.0254 222.131L54.9858 222.117C56.5177 222.742 57.91 223.641 59.1007 224.753L57.4615 224.755" fill="#E1ECFD"/>
<path d="M48.0255 222.131L48.0239 221.27C48.6417 221.18 49.2726 221.135 49.9144 221.133C49.9229 221.133 49.9307 221.133 49.9392 221.133C51.7227 221.133 53.4268 221.483 54.9859 222.117L48.0255 222.131" fill="#89B3F7"/>
<path d="M59.0358 226.196C58.5536 225.672 58.0266 225.19 57.4619 224.755L59.1011 224.753C59.5793 225.2 60.0255 225.682 60.4347 226.193L59.0358 226.196Z" fill="#89B3F7"/>
<path d="M61.5429 230.275C61.3581 229.779 61.1427 229.298 60.8984 228.834L62.0864 228.832C62.3078 229.298 62.5035 229.78 62.6711 230.274L61.5429 230.275" fill="#89B3F7"/>
<path d="M60.6309 240.838C60.9017 240.375 61.143 239.893 61.3529 239.395L62.4999 239.392C62.3103 239.887 62.0923 240.369 61.8478 240.835L60.6309 240.838Z" fill="#89B3F7"/>
<path d="M57.584 244.338C58.1383 243.902 58.6551 243.417 59.1274 242.894L60.5184 242.891C60.1166 243.404 59.6788 243.887 59.2082 244.336L57.584 244.338Z" fill="#89B3F7"/>
<path d="M62.9022 166.039V161.237H60.9912V160.817H65.4155V161.237H63.5044V166.039H62.9022Z" fill="#184655"/>
<path d="M70.2977 165.619V166.039H66.4624V160.817H70.1623V161.237H67.0603V163.066H69.306V163.487H67.0603V165.619H70.2977" fill="#184655"/>
<path d="M70.9087 164.79L71.4278 164.616C71.6023 164.989 71.8256 165.264 72.0977 165.441C72.3696 165.619 72.7034 165.707 73.099 165.707C73.5062 165.707 73.8342 165.615 74.0829 165.428C74.3316 165.242 74.4561 164.998 74.4561 164.694C74.4561 164.452 74.3745 164.252 74.2117 164.096C74.0487 163.939 73.7725 163.797 73.3827 163.667C73.1703 163.599 72.8889 163.516 72.5383 163.42C72.1878 163.323 71.963 163.25 71.8641 163.204C71.5528 163.058 71.3318 162.903 71.201 162.738C71.0701 162.574 71.0045 162.369 71.0045 162.128C71.0045 161.694 71.1689 161.353 71.4977 161.105C71.8263 160.857 72.2787 160.733 72.8546 160.733C73.3667 160.733 73.7891 160.834 74.1223 161.038C74.4553 161.241 74.709 161.554 74.8836 161.976L74.3774 162.106C74.2173 161.781 74.0116 161.54 73.7601 161.385C73.5084 161.231 73.1979 161.153 72.8285 161.153C72.4707 161.153 72.1806 161.236 71.958 161.403C71.7355 161.571 71.6242 161.789 71.6242 162.057C71.6242 162.259 71.6962 162.429 71.8401 162.568C71.9842 162.707 72.2074 162.821 72.51 162.907C72.6263 162.942 72.795 162.991 73.0161 163.052C73.6502 163.226 74.0589 163.364 74.2422 163.465C74.5359 163.62 74.7489 163.791 74.8815 163.975C75.0137 164.161 75.08 164.379 75.08 164.631C75.08 165.087 74.9017 165.451 74.5454 165.722C74.189 165.993 73.7069 166.127 73.099 166.127C72.552 166.127 72.1019 166.019 71.7485 165.803C71.3951 165.587 71.1151 165.249 70.9087 164.79" fill="#184655"/>
<path d="M77.5542 166.039V161.237H75.6431V160.817H80.0674V161.237H78.1564V166.039H77.5542Z" fill="#184655"/>
<path d="M81.2104 166.039V160.817H81.8082V166.039H81.2104Z" fill="#184655"/>
<path d="M84.2126 161.195V166.039H83.6323V160.817H84.6052L87.6988 165.224V160.817H88.2791V166.039H87.6422L84.2126 161.195Z" fill="#184655"/>
<path d="M93.7548 165.453C93.5395 165.684 93.285 165.856 92.9912 165.97C92.6974 166.085 92.3556 166.142 91.9658 166.142C91.1658 166.142 90.5566 165.91 90.1376 165.448C89.7187 164.985 89.5093 164.314 89.5093 163.437C89.5093 162.568 89.7231 161.898 90.1506 161.427C90.5783 160.954 91.1834 160.718 91.9658 160.718C92.5446 160.718 93.0072 160.843 93.3533 161.093C93.6995 161.343 93.9556 161.735 94.1213 162.272L93.5584 162.367C93.4189 161.946 93.2188 161.635 92.9585 161.435C92.6982 161.235 92.3642 161.135 91.9571 161.135C91.3753 161.135 90.9258 161.329 90.6088 161.719C90.2918 162.109 90.1333 162.662 90.1333 163.377C90.1333 164.149 90.2939 164.732 90.6153 165.125C90.9368 165.517 91.4145 165.715 92.0487 165.715C92.5257 165.715 92.9097 165.603 93.2006 165.381C93.4915 165.158 93.6369 164.864 93.6369 164.5V163.942H92.0312V163.55H94.2828V166.039H93.7548V165.453" fill="#184655"/>
<path d="M169.516 36.7124L168.158 42.0179L172.315 39.6792L184.734 35.0929L175.582 34.8394C175.582 34.8394 170.836 35.4091 170.56 35.6057C170.283 35.8022 169.516 36.7124 169.516 36.7124Z" fill="#50BFA5"/>
<path d="M165.894 32.9789L184.734 35.0951L169.515 36.7146L165.894 32.9789" fill="#96D9C9"/>
<path d="M174.919 42.8622L170.459 38.3037L184.735 35.094L174.919 42.8622Z" fill="#96D9C9"/>
<path d="M158.668 40.9183C159.389 40.2519 160.207 39.6958 161.097 39.2655L161.291 39.6679C160.441 40.0801 159.66 40.611 158.971 41.2481L158.668 40.9183ZM153.082 41.9341C153.591 41.8433 154.517 41.6938 154.992 41.7273C155.36 41.7538 155.696 41.7902 156.019 41.8391L155.952 42.282C155.642 42.2345 155.317 42.1995 154.961 42.1744C154.65 42.152 153.994 42.2247 153.161 42.3742L153.082 41.9341ZM158.629 43.2083L158.576 43.1747L158.812 42.7961L158.87 42.8324C159.731 43.3857 160.398 44.2128 160.699 45.1014L160.277 45.2453C160.007 44.4503 159.406 43.7084 158.629 43.2083V43.2083ZM156.229 45.2146C156.279 44.7884 156.385 44.3553 156.547 43.9306C156.634 43.7015 156.736 43.4695 156.854 43.2418L157.25 43.4486C157.142 43.6595 157.044 43.8747 156.964 44.0885C156.817 44.4797 156.719 44.8765 156.673 45.2663C156.641 45.5429 156.638 45.8251 156.662 46.1059L156.217 46.1451C156.19 45.8335 156.193 45.5205 156.229 45.2146V45.2146ZM147.736 44.1905C148.528 43.6637 149.376 43.1747 150.257 42.7374L150.455 43.1384C149.592 43.5673 148.76 44.0466 147.982 44.5635L147.736 44.1905ZM157.587 48.889C157.563 48.8695 157.539 48.8499 157.516 48.8304L157.806 48.4909C157.827 48.5076 157.846 48.5244 157.864 48.5398C157.864 48.5398 157.876 48.5468 157.906 48.5593C158.139 48.6473 158.775 48.7228 159.158 48.5523C159.477 48.4098 159.751 48.1653 159.97 47.8244L160.346 48.0675C160.083 48.4755 159.732 48.7857 159.338 48.9617C158.809 49.1964 158.043 49.0874 157.75 48.9771C157.68 48.9505 157.627 48.9226 157.587 48.889V48.889ZM143.425 48.0913C144.006 47.3536 144.682 46.6396 145.429 45.969L145.727 46.3029C144.998 46.9554 144.341 47.6498 143.775 48.3679L143.425 48.0913ZM140.966 52.9505C141.075 52.5286 141.208 52.1053 141.364 51.6917C141.506 51.3117 141.672 50.9303 141.856 50.56L142.255 50.7584C142.078 51.1161 141.921 51.4822 141.781 51.8496C141.632 52.2478 141.503 52.6557 141.399 53.0623C141.368 53.1811 141.34 53.3012 141.312 53.4214L140.877 53.3236C140.906 53.1964 140.936 53.0721 140.966 52.9505" fill="#9BC1F9"/>
<path d="M163.97 38.8348C164.452 38.7618 164.933 38.7295 165.402 38.738L165.411 38.2903C164.917 38.2819 164.41 38.3156 163.904 38.3928L163.97 38.8348" fill="#9BC1F9"/>
<path d="M130.756 45.4874C131.024 45.4983 131.761 45.7456 132.838 47.7841C134.213 50.3865 136.224 58.251 136.224 58.251L130.223 60.4879L129.452 58.8463L128.183 46.2117C128.183 46.2117 130.681 45.4847 130.756 45.4874" fill="#A34B3D"/>
<path d="M122.824 44.3537C124.54 44.355 128.785 44.8563 130.756 45.4874C130.756 45.4874 132.203 57.9462 129.453 67.4149C128.837 69.5335 129.962 76.1993 129.962 76.1993L112.182 75.9644C112.182 75.9644 114.288 59.8489 113.495 57.2468C112.701 54.6433 112.682 45.5707 112.682 45.5707C112.682 45.5707 112.804 45.5516 116.677 44.8823C118.484 44.5695 120.992 44.3509 122.824 44.3537" fill="#B75742"/>
<path d="M120.753 99.3254C120.753 99.3254 121.146 103.871 121.869 105.13C122.593 106.389 121.831 108.53 121.793 108.824C121.755 109.118 120.271 109.537 117.911 109.284C115.551 109.033 115.589 108.487 115.779 107.606C115.969 106.725 117.225 105.592 117.302 104.752C117.378 103.914 116.578 100.891 116.578 100.891L120.753 99.3254Z" fill="#F7A491"/>
<path d="M127.956 72.4465C127.956 72.4465 140.23 71.7643 142.971 73.4263C145.71 75.0884 141.023 83.2466 141.023 83.2466C141.023 83.2466 132.483 82.8528 115.755 83.8193C111.793 84.0489 111.452 73.4757 112.193 72.6013C112.933 71.7269 127.956 72.4465 127.956 72.4465Z" fill="#E0973F"/>
<path d="M117.616 109.638C115.186 109.378 115.486 108.183 115.682 107.275C115.805 106.708 116.502 106.038 116.918 105.404C117.135 105.577 117.488 105.883 118.544 106.195C119.64 106.52 121.142 105.878 122.099 105.476C122.44 106.748 122.456 108.369 122.424 108.616C122.385 108.917 120.046 109.897 117.616 109.638Z" fill="#DD513A"/>
<path d="M118.958 81.2401C119.448 84.9554 121.876 103.454 121.876 103.454L116.242 104.154C116.242 104.154 109.315 80.0092 109.67 76.3166C110.025 72.6227 112.618 72.3129 112.618 72.3129C112.618 72.3129 117.66 71.4038 118.958 81.2401Z" fill="#F7CC7F"/>
<path d="M112.489 46.9552C114.152 46.3311 114.965 61.3312 115.189 67.5045C118.133 67.7888 123.264 67.5072 124.542 67.4111C125.143 67.3664 126.528 66.8574 127.126 66.7789C127.738 66.699 128.293 66.657 128.594 66.7098C128.705 66.7288 131.774 67.9851 132.036 68.2613C132.362 68.6024 133.242 69.4648 133.093 69.8384C132.945 70.2107 131.401 68.7987 131.401 68.7987L130.646 68.375C131.585 69.2942 133.377 70.5045 133.119 70.9458C132.867 71.375 131.251 70.1471 130.099 69.3091C131.087 70.204 132.315 71.8028 132.032 72.0519C131.778 72.2766 130.381 70.4246 128.889 69.8912C128.336 69.6936 127.785 70.2405 127.35 70.3069C127.03 70.3556 126.537 70.4585 126.223 70.3705L124.607 69.9115C124.057 69.9603 124.043 70.2865 123.488 70.4057C122.842 70.5424 121.784 70.6873 120.962 70.889C116.23 72.0465 114.652 72.5839 113.203 72.5826C108.815 72.5812 108.56 48.4322 112.489 46.9552" fill="#F7A491"/>
<path d="M109.334 61.0385C109.023 54.7141 109.068 46.9191 112.608 45.5888C114.005 45.0646 116.467 48.2194 116.025 61.1665C114.135 61.3231 111.36 61.4484 109.334 61.0385Z" fill="#A34B3D"/>
<path d="M137.815 103.733C137.815 103.733 137.001 105.173 137.641 106.378C138.281 107.585 141.639 109.359 141.99 110.013C142.34 110.667 142.203 111.131 142.203 111.131L132.229 108.682L132.993 105.672L133.926 103.591L137.815 103.733" fill="#F7A491"/>
<path d="M138.156 107.023C138.156 107.023 135.352 107.509 134.241 106.621C133.128 105.733 133.203 105.57 132.793 105.723C132.529 105.82 132.128 107.019 131.875 107.864C131.74 108.313 132.01 108.784 132.464 108.896L142.85 111.466C143.639 111.618 144.161 111.125 143.63 110.491C143.266 110.056 142.81 109.72 142.558 109.493C141.785 108.794 138.156 107.023 138.156 107.023" fill="#DD513A"/>
<path d="M136.837 75.3608C137.631 73.688 139.434 71.512 142.61 72.8229C145.637 74.0738 146.45 77.147 145.494 80.2936C144.54 83.4402 138.25 101.941 138.03 104.485L133.009 104.518C133.009 104.518 133.922 89.8695 134.146 86.3278C134.36 82.9209 135.464 78.2537 136.837 75.3608Z" fill="#F7CC7F"/>
<path d="M144.989 58.3208H128.202C127.758 58.3208 127.358 58.5904 127.19 59.003L122.021 71.6708H112.766C112.507 71.6708 112.297 71.8817 112.297 72.142C112.297 72.401 112.507 72.6119 112.766 72.6119H139.106C139.83 72.6119 140.486 72.1847 140.783 71.5213L145.988 59.8707C146.313 59.1431 145.784 58.3208 144.989 58.3208" fill="#184655"/>
<path d="M135.951 65.6967C135.838 66.2668 135.344 66.6472 134.848 66.5471C134.352 66.447 134.042 65.905 134.155 65.3363C134.268 64.7676 134.763 64.3871 135.259 64.4872C135.755 64.586 136.064 65.128 135.951 65.6967" fill="white"/>
<path d="M126.814 29.136C126.308 28.9643 125.81 28.7721 125.329 28.5401C124.785 28.2774 124.08 27.9707 123.635 27.9017C122.698 27.7564 121.089 27.8532 120.2 28.819C119.093 30.0211 117.125 29.0362 117.522 35.3358C117.97 42.4662 121.93 41.6839 122.026 41.5635C122.122 41.4432 125.557 37.0017 125.557 37.0017C125.557 37.0017 126.758 39.6319 126.758 39.5351C126.758 39.4426 132.891 31.185 126.814 29.136Z" fill="#0E2E35"/>
<path d="M123.808 42.0898L124.149 44.6389C124.149 44.6389 124.915 48.3101 123.93 49.0165C122.945 49.7243 119.741 44.5335 119.741 44.5335L120.08 38.0774L123.808 42.0898Z" fill="#F7A491"/>
<path d="M119.97 40.1699C120.784 42.3721 122.722 43.726 124.098 44.2512L123.808 42.0898L120.08 38.0773L119.97 40.1699Z" fill="#F47458"/>
<path d="M123.605 31.0514C125.692 30.7136 127.565 32.3951 127.512 34.4869C127.49 35.3973 127.415 36.5323 127.227 37.7558C126.773 40.6971 124.769 43.2861 123.444 43.0556C122.119 42.8236 118.785 40.2868 119.372 36.1018C119.734 33.5171 121.415 31.4051 123.605 31.0514" fill="#F7A491"/>
<path d="M120.292 36.5996C120.18 37.2467 119.663 37.6961 119.136 37.6051C118.61 37.5127 118.274 36.9139 118.386 36.2667C118.498 35.6196 119.015 35.1702 119.541 35.2626C120.068 35.3537 120.404 35.9524 120.292 36.5996Z" fill="#F7A491"/>
<path d="M119.541 35.2647C119.541 35.2647 121.143 35.6631 121.737 34.6309C122.332 33.5987 124.458 31.3715 127.16 32.2946C129.863 33.2193 124.782 30.05 124.566 30.05C124.35 30.05 121.755 30.0326 121.755 30.0326C121.755 30.0326 119.755 31.6797 119.683 31.8614C119.611 32.0417 119.035 34.0159 119.035 34.0159L119.541 35.2647" fill="#0E2E35"/>
<path d="M122.472 39.568L125.387 40.1261C125.387 40.1261 125.109 41.2256 123.82 41.0177C122.248 40.7637 122.472 39.568 122.472 39.568Z" fill="white"/>
<path d="M156.384 240.563C156.384 240.563 155.85 244.29 154.933 245.493C154.625 245.896 154.062 246.408 153.693 247.137C153.117 248.273 153.436 249.963 153.859 250.895C154.077 251.373 153.843 251.371 154.339 251.525C155.808 251.981 157.37 251.214 157.995 249.797C158.344 249.006 158.651 247.951 158.712 246.621C158.869 243.237 159.913 241.516 159.913 241.516L156.384 240.563" fill="#F7A491"/>
<path d="M172.442 242.268C172.442 242.268 172.771 246.47 172.505 247.836C172.361 248.568 171.563 250.074 171.93 250.761C172.295 251.45 172.714 251.622 172.714 251.622L182.192 251.776C182.708 251.784 182.367 251.45 181.951 251.142C181.27 250.637 180.719 250.303 178.543 249.242C178.401 249.174 177.884 248.843 177.698 248.728C177.225 248.437 176.75 247.979 176.341 247.521C175.661 246.759 175.601 243.057 175.601 243.057L172.442 242.268Z" fill="#F7A491"/>
<path d="M179.851 186.405C179.851 186.405 181.044 193.228 180.26 197.701C179.476 202.175 175.716 243.64 175.716 243.64L171.535 243.878C171.535 243.878 170.658 226.556 170.815 224.148C170.973 221.74 172.212 217.708 172.212 217.708L171.796 203.724L177.071 185.351L179.851 186.405" fill="#E25A44"/>
<path d="M167.565 184.97C167.565 184.97 164.272 189.958 163.49 194.088C162.706 198.218 164.065 210.907 162.557 216.319C161.741 219.248 158.648 223.773 158.178 227.557C157.707 231.342 155.863 241.257 155.863 241.257L160.041 242.092L169.752 217.33L177.369 194.947L179.32 183.421L167.565 184.97" fill="#F47458"/>
<path d="M158.28 249.052C156.002 249.47 154.487 248.128 153.698 247.125C153.12 248.262 152.837 249.96 153.264 250.895C153.638 251.718 154.734 251.694 155.597 251.726C156.508 251.761 157.215 251.25 157.667 250.45C157.879 250.076 158.097 249.612 158.28 249.052" fill="#F7CC7F"/>
<path d="M177.697 248.727C175.189 249.374 173.336 248.935 172.299 248.513C172.032 249.277 171.678 250.234 171.866 250.785C172.096 251.462 172.424 251.614 172.714 251.622C175.003 251.682 181.1 251.765 182.846 251.788C183.09 251.792 183.225 251.505 183.068 251.315C182.634 250.794 177.883 248.841 177.697 248.727" fill="#F7CC7F"/>
<path d="M194.854 174.618C195.029 174.246 193.188 173.74 193.128 173.339C193.069 172.939 195.538 173.164 195.66 172.83C195.888 172.216 192.973 172.417 193.06 172.127C193.146 171.837 196.144 171.482 195.88 170.943C195.616 170.403 192.81 171.636 192.766 171.283C192.721 170.931 195.478 170.371 195.508 169.613C195.524 169.207 190.917 171.167 190.435 170.896C189.952 170.624 191.197 168.839 190.824 168.516C190.451 168.194 188.835 171.927 188.543 172.036C188.252 172.144 181.931 174.059 179.782 174.375C179.601 173.646 177.984 169.636 177.829 168.948C176.566 169.664 174.959 168.803 173.667 169.441C174.318 171.737 175.777 179.3 176.36 179.64C178.137 180.676 187.482 175.733 189.027 174.858C190.573 173.983 191.363 174.4 192.37 174.177C193.378 173.955 194.679 174.989 194.854 174.618" fill="#F38B80"/>
<path d="M178.225 152.34C178.694 150.2 179.155 148.046 177.915 145.695C176.913 143.793 175.179 142.698 173.172 142.459C167.487 141.784 168.702 147.1 160.756 148.249C158.287 148.607 155.993 148.951 153.93 150.181C150.208 152.401 148.803 155.963 151.272 161.766C157.318 175.976 171.782 163.628 173.988 161.114C176.177 158.621 177.922 153.717 178.225 152.34" fill="#0E2E35"/>
<path d="M169.275 159.095C169.275 159.095 166.405 159.42 164.688 161.291C162.971 163.161 167.464 178.197 167.776 180.579C168.088 182.959 164.79 189.549 164.79 189.549C164.79 189.549 176.001 191.779 178.915 189.853C178.915 189.853 179.171 171.451 178.858 169.751C178.546 168.051 175.944 161.135 175.32 160.455C174.696 159.774 169.275 159.095 169.275 159.095" fill="#F7CC7F"/>
<path d="M170.721 153.298C170.721 153.298 170.698 153.426 170.658 153.642C170.465 154.686 169.72 158.145 169.216 159.097C168.608 160.247 171.299 163.913 173.89 163.464C174.66 163.332 173.238 160.096 173.306 159.754C173.436 159.097 173.614 158.203 173.796 157.286C173.899 156.768 174.002 156.243 174.1 155.749C174.376 154.347 174.603 153.201 174.603 153.201L170.721 153.298" fill="#F7A491"/>
<path d="M173.798 157.276C173.818 157.172 173.839 157.068 173.859 156.964C173.839 157.068 173.818 157.172 173.798 157.276ZM173.932 156.6C173.988 156.311 174.046 156.025 174.1 155.749C174.376 154.347 174.603 153.201 174.603 153.201C174.603 153.201 174.376 154.347 174.1 155.749C174.046 156.025 173.988 156.311 173.932 156.6ZM170.647 153.704C170.65 153.683 170.654 153.663 170.658 153.642C170.694 153.449 170.715 153.327 170.721 153.302C170.715 153.327 170.694 153.449 170.658 153.642C170.654 153.663 170.651 153.683 170.647 153.704Z" fill="#815147"/>
<path d="M173.797 157.276C173.197 157.188 172.572 156.897 171.944 156.349C171.259 155.749 170.811 155.03 170.541 154.262C170.582 154.046 170.618 153.856 170.647 153.704C170.651 153.683 170.654 153.663 170.658 153.642C170.694 153.449 170.715 153.327 170.72 153.302C170.72 153.299 170.72 153.298 170.72 153.298L174.602 153.201C174.602 153.201 174.376 154.347 174.1 155.749C174.045 156.025 173.988 156.311 173.932 156.6C173.908 156.72 173.884 156.841 173.859 156.964C173.839 157.068 173.817 157.172 173.797 157.276" fill="#F58C74"/>
<path d="M173.056 144.06C173.056 144.06 171.472 144.279 170.326 145.762C169.18 147.244 167.942 151.828 170.791 154.321C173.64 156.813 176.456 153.992 176.873 151.001C177.29 148.009 177.206 143.952 173.056 144.06" fill="#F7A491"/>
<path d="M177.703 150.262C177.523 150.983 177.052 151.47 176.65 151.35C176.248 151.23 176.066 150.548 176.246 149.827C176.426 149.105 176.898 148.619 177.301 148.739C177.702 148.859 177.883 149.541 177.703 150.262" fill="#F7A491"/>
<path d="M174.813 144.072C174.813 144.072 171.094 148.349 169.345 148.551C167.597 148.752 167.367 151.069 167.367 151.069C167.367 151.069 167.992 145.731 169.724 144.702C171.454 143.673 174.813 144.072 174.813 144.072" fill="#0E2E35"/>
<path d="M169.917 149.589C170.059 150.364 169.773 151.074 169.278 151.175C168.784 151.277 168.266 150.732 168.125 149.958C167.982 149.184 168.268 148.473 168.764 148.372C169.258 148.27 169.775 148.815 169.917 149.589Z" fill="#F7A491"/>
<path d="M169.863 171.297L181.885 173.057C182.247 173.111 182.496 173.447 182.444 173.809L180.098 189.869C180.044 190.231 179.708 190.482 179.347 190.428L167.326 188.668C166.965 188.614 166.715 188.278 166.768 187.916L169.114 171.856C169.166 171.494 169.502 171.243 169.863 171.297Z" fill="#184655"/>
<path d="M178.83 172.078C178.84 172.004 178.79 171.936 178.716 171.925L173.703 171.191C173.629 171.18 173.561 171.231 173.551 171.305L173.475 171.827L178.754 172.599L178.83 172.078Z" fill="#13375B"/>
<path d="M176.113 172.224C175.833 172.183 175.638 171.921 175.68 171.641C175.721 171.361 175.981 171.167 176.261 171.208C176.541 171.248 176.736 171.51 176.694 171.79C176.653 172.071 176.393 172.264 176.113 172.224V172.224ZM176.302 170.924C175.866 170.86 175.46 171.163 175.396 171.6C175.332 172.037 175.634 172.443 176.072 172.507C176.508 172.571 176.914 172.268 176.978 171.832C177.041 171.394 176.74 170.988 176.302 170.924Z" fill="#13375B"/>
<path d="M178.767 171.944C178.811 171.971 178.838 172.023 178.83 172.078L178.754 172.599L173.475 171.827C173.422 172.188 173.672 172.523 174.032 172.577L178.005 173.159C178.366 173.212 178.701 172.961 178.754 172.599L178.83 172.078C178.838 172.023 178.811 171.971 178.767 171.944" fill="#355389"/>
<path d="M175.092 152.482L172.387 152.468C172.387 152.468 172.443 153.497 173.634 153.538C175.084 153.588 175.092 152.482 175.092 152.482Z" fill="white"/>
<path d="M161.43 175.403L165.786 175.849C165.786 175.849 165.715 179.551 165.79 179.977C165.79 179.977 173.238 182.045 176.35 182.605C176.35 182.605 177.769 181.8 178.342 181.545C178.915 181.289 180.456 181.01 180.798 180.966C181.139 180.921 181.022 181.294 180.73 181.425C180.436 181.556 179.679 181.914 179.465 182.352C179.465 182.352 180.079 182.418 180.404 182.273C180.73 182.129 181.178 181.82 181.186 181.661C181.192 181.503 181.266 181.118 181.374 181.138C181.4 181.143 181.436 181.27 181.474 181.402C181.508 181.527 181.544 181.656 181.575 181.783C181.63 182.01 181.692 182.341 181.718 182.49C181.772 182.83 181.566 183.768 181.536 184.1C181.483 184.709 181.31 184.979 180.988 185.134C180.471 185.314 179.925 185.429 179.117 185.513C177.636 185.666 176.273 185.239 175.679 185.173C175.085 185.106 165.6 184.163 165.6 184.163C165.6 184.163 161.83 183.62 161.58 182.97C161.33 182.321 161.43 175.403 161.43 175.403" fill="#F7A491"/>
<path d="M165.214 160.747C165.214 160.747 163.839 161.4 162.631 164.22C161.482 166.899 161.145 180.27 161.145 180.27L165.702 179.509L168.017 173.275C169.668 169.544 169.241 165.2 166.836 161.905C166.195 161.025 165.604 160.495 165.214 160.747" fill="#F7CC7F"/>
<path d="M252.664 115.88H237.057V96.514H256.395V113.492C255.107 114.19 253.861 114.985 252.664 115.88" fill="#AFD0FB"/>
<path d="M297.544 99.1445H259.818V96.5131H297.544V99.1445Z" fill="#AFD0FB"/>
<path d="M285.278 104.723H259.818V102.092H285.278V104.723Z" fill="#AFD0FB"/>
<path d="M293.705 110.302H276.731C274.861 109.957 272.969 109.784 271.077 109.784C269.183 109.784 267.293 109.957 265.428 110.302H259.817V107.671H293.705V110.302Z" fill="#AFD0FB"/>
<path d="M310.527 160.804C309.736 160.16 303.622 162.848 303.699 163.782C303.777 164.717 299.434 173.783 299.434 173.783L291.928 167.79L291.924 167.791C291.858 167.575 291.146 165.244 291.111 164.827C291.077 164.389 289.808 163.625 289.22 163.737C288.631 163.849 289.721 164.59 289.794 164.724C289.99 165.094 289.234 165.233 289.234 165.233C289.234 165.233 287.091 164.546 287.044 163.845C286.998 163.144 285.533 165.07 285.706 165.339C285.873 165.6 289.376 168.427 289.881 169.039C289.881 169.039 299.589 180.153 300.281 180.444C300.887 180.699 303.05 176.869 305.093 174.326C307.136 171.784 312.996 162.816 310.527 160.804" fill="#F7A491"/>
<path d="M330.116 242.527C330.116 242.527 331.449 243.831 331.48 244.309C331.509 244.788 331.598 249.913 331.054 250.391C330.509 250.869 328.909 251.208 329.425 251.748C329.812 252.153 332.803 252.067 334.785 251.957C335.364 251.925 336.089 247.303 336.319 246.624C336.65 245.637 337.459 243.414 337.157 242.727C337.01 242.392 336.304 241.703 335.31 241.06C334.265 240.384 333.265 238.878 333.265 238.878L330.116 242.527" fill="#F48C7F"/>
<path d="M316.294 245.563L317.49 248.949C317.58 249.483 317.929 250.806 317.929 251.292C317.929 253.12 309.7 249.741 311.543 248.931C311.711 248.859 312.234 248.273 312.288 247.651C312.374 246.692 311.596 245.49 311.596 245.49L316.294 245.563Z" fill="#F7A491"/>
<path d="M303.385 182.671C303.385 182.671 302.786 188.725 302.786 188.815C302.786 198.61 300.847 217.741 301.217 219.583C302.115 224.074 311.797 246.986 311.797 246.986L317.029 246.359L311.412 218.673L312.719 207.886L316.271 186.061L303.385 182.671" fill="#50BFA5"/>
<path d="M320.946 188.027L321.939 193.765L324.624 217.382L334.854 240.466C334.854 240.466 333.414 243.824 331.292 244.296L315.011 220.597L304.896 190.272L305.253 183.535L320.946 188.027Z" fill="#96D9C9"/>
<path d="M301.299 168.255L308.553 168.996C308.553 168.996 308.887 163.04 308.887 160.199C308.887 156.752 308.593 152.311 308.178 152.408C307.011 152.676 305.44 153.321 304.506 154.608C301.269 159.061 301.299 168.255 301.299 168.255Z" fill="#B75742"/>
<path d="M304.864 159.591C304.713 160.642 301.922 189.213 301.922 189.213C315.133 195.604 322.422 190.352 322.422 190.352C322.422 190.352 321.991 170.288 322.507 167.557C322.85 165.751 323.279 153.744 322.11 153.408C320.609 152.976 318.89 152.518 317.013 152.323C315.413 152.156 309.195 152.06 308.082 152.435C308.082 152.435 305.502 155.171 304.864 159.591" fill="#F47458"/>
<path d="M335.245 241.028C335.245 241.028 332.171 249.697 330.968 250.115C330.649 250.227 329.114 250.509 328.824 251.188C328.737 251.393 328.824 252.076 328.824 252.076H335.235C335.235 252.076 336.043 248.255 336.365 246.577C336.365 246.577 338.061 242.476 337.873 242.104C337.684 241.731 335.245 241.028 335.245 241.028Z" fill="#F47458"/>
<path d="M318.398 251.896L317.455 248.915C317.455 248.915 315.476 249.753 314.487 249.613C313.497 249.473 311.565 248.915 311.565 248.915C307.615 250.216 304.379 250.848 304.969 251.896H318.398Z" fill="#F47458"/>
<path d="M300.281 180.444C300.251 180.432 300.144 180.346 300.083 180.296C300.318 177.496 300.275 174.783 299.397 173.868C299.419 173.823 299.611 173.415 299.811 172.992C300.828 173.779 301.31 175.871 301.122 179.268C301.107 179.501 301.04 179.679 300.987 179.97C300.691 180.294 300.425 180.504 300.281 180.444" fill="#F7A491"/>
<path d="M315.246 146.801L316.097 152.421C316.097 152.421 312.988 159.114 311.131 158.533C309.573 158.046 310.533 152.125 310.533 152.125C310.533 152.125 311.383 148.945 311.127 147.353C310.873 145.762 315.246 146.801 315.246 146.801Z" fill="#F7A491"/>
<path d="M311.127 147.354C310.872 145.762 315.245 146.801 315.245 146.801L315.317 147.267C315.189 147.579 315.033 147.846 314.843 148.051C313.866 149.104 312.338 149.735 311.019 149.783C311.15 148.926 311.231 148.007 311.127 147.354Z" fill="#F47458"/>
<path d="M315.965 138.849C316.088 138.804 316.955 145.251 315.31 147.023C313.663 148.798 310.459 149.378 309.307 147.981C308.034 146.436 308.098 139.507 310.657 137.684C313.216 135.859 315.965 138.849 315.965 138.849" fill="#F7A491"/>
<path d="M311.633 134.235C313.61 134.638 314.891 135.849 315.362 136.365C316.259 136.471 317.481 136.968 318.74 139.059C320.291 141.629 319.145 144.476 317.341 145.873C315.537 147.27 315.563 148.883 315.563 148.883L315.276 148.049C315.068 147.416 314.981 146.746 315.052 146.082C315.093 145.684 315.178 145.254 315.343 144.901C315.777 143.968 314.411 143.348 314.028 142.572C313.734 141.974 313.718 140.607 313.254 139.619L312.698 138.865C312.698 138.865 311.419 137.867 310.165 138.148C308.913 138.43 309.094 133.717 311.633 134.235" fill="#0E2E35"/>
<path d="M314.111 143.72C314.099 144.506 314.455 145.149 314.911 145.157C315.362 145.165 315.74 144.534 315.753 143.748C315.767 142.961 315.411 142.316 314.957 142.31C314.504 142.302 314.124 142.933 314.111 143.72" fill="#F7A491"/>
<path d="M311.438 145.537L308.958 145.408C308.958 145.408 308.966 146.355 310.055 146.443C311.383 146.55 311.438 145.537 311.438 145.537Z" fill="white"/>
<path d="M291.137 160.232C291.719 159.636 292.264 159.019 292.768 158.39L303.598 168.979C304.263 169.629 304.033 170.946 303.085 171.918C302.139 172.891 300.83 173.151 300.164 172.5L289.335 161.91C289.951 161.39 290.554 160.83 291.137 160.232" fill="#0E2E35"/>
<path d="M271.435 168.233C271.111 168.233 270.786 168.228 270.462 168.215V165.096L273.47 168.158C272.792 168.208 272.114 168.233 271.435 168.233M261.293 166.296C260.05 165.802 258.834 165.214 257.657 164.532V152.063L261.293 155.764V166.296ZM248.49 155.915C245.413 151.3 243.868 145.961 243.868 140.628C243.868 139.797 243.907 138.967 243.981 138.141L248.49 142.73V155.915" fill="#C8E1FB"/>
<path d="M248.49 155.915V142.731L252.236 146.546H248.49V155.915Z" fill="#BCD8FA"/>
<path d="M270.461 168.216C269.993 168.2 269.528 168.17 269.062 168.13C266.421 167.902 263.799 167.29 261.293 166.296V155.764L270.461 165.096V168.216Z" fill="#B4D2F9"/>
<path d="M257.657 164.533C255.843 163.479 254.121 162.203 252.531 160.701C252.447 160.621 252.362 160.541 252.278 160.459C252.278 160.458 252.28 160.459 252.278 160.458C252.248 160.429 252.215 160.397 252.183 160.367C250.773 158.987 249.542 157.494 248.489 155.915V146.546H252.236L257.657 152.064V164.533Z" fill="#B4D2F9"/>
<path d="M283.266 165.545V165.486C284.603 164.815 285.88 164.035 287.084 163.157V163.304C285.864 164.162 284.583 164.91 283.266 165.545ZM287.084 155.792L283.266 151.904V142.707L287.084 146.595V155.792ZM296.253 152.231V151.607C297.283 149.169 297.979 146.539 298.276 143.769C298.368 142.913 298.417 142.064 298.432 141.22L296.253 139.004V135.399H292.713L283.266 125.784V120.004H277.587L271.064 113.364C271.075 113.364 271.086 113.364 271.097 113.364C271.099 113.364 271.099 113.364 271.101 113.364H271.103C277.994 113.365 284.904 115.951 290.256 121.139L290.26 121.141C290.274 121.155 290.287 121.169 290.303 121.184C290.318 121.199 290.335 121.215 290.351 121.231C295.887 126.644 298.666 133.812 298.668 140.971C298.668 144.818 297.864 148.663 296.253 152.231M274.098 142.572L252.58 120.669C249.054 123.954 246.37 128.178 244.946 133.005C246.15 128.832 248.369 124.89 251.607 121.57C254.628 118.473 258.209 116.251 262.034 114.906C260.578 115.427 259.174 116.069 257.837 116.822L274.098 133.375V142.572" fill="#C8E1FB"/>
<path d="M274.099 142.572V133.375L277.051 136.382H274.099V142.572ZM283.266 125.783L277.588 120.003H283.266V125.783Z" fill="#BCD8FA"/>
<path d="M287.084 155.792V146.595L288.691 148.229H287.084V155.792M296.251 139.004L292.713 135.4H296.251V139.004Z" fill="#BCD8FA"/>
<path d="M280.412 166.722C281.389 166.365 282.341 165.951 283.266 165.486V165.545C282.332 165.994 281.38 166.386 280.412 166.722ZM283.266 151.904L274.099 142.572V136.382H277.051L283.266 142.707V151.904Z" fill="#B4D2F9"/>
<path d="M287.084 163.304V163.157C288.478 162.143 289.776 160.997 290.961 159.738L287.084 155.792V148.229H288.691L294.834 154.484C295.359 153.559 295.833 152.599 296.251 151.607V152.232C294.981 155.047 293.207 157.69 290.928 160.028C290.903 160.055 290.875 160.083 290.846 160.111C290.839 160.119 290.83 160.128 290.823 160.136C289.652 161.323 288.402 162.377 287.084 163.304" fill="#B4D2F9"/>
<path d="M273.469 168.158L270.461 165.096V153.062V141.68H261.294V155.764L257.658 152.063V146.546V133.211H248.491V142.73L243.98 138.141C244.137 136.408 244.458 134.688 244.944 133.005C246.369 128.179 249.053 123.954 252.579 120.669L274.096 142.573V168.103C273.886 168.125 273.679 168.142 273.469 168.158ZM283.263 165.487V151.904L287.084 155.792V163.157C285.879 164.036 284.602 164.815 283.263 165.487Z" fill="#E2F0FD"/>
<path d="M261.293 155.764V141.68H270.461V153.062H261.293V155.764Z" fill="#DBEBFC"/>
<path d="M257.657 146.546H252.236L248.489 142.731V133.212H257.657V146.546" fill="#DBEBFC"/>
<path d="M274.099 168.103V142.572L283.266 151.904V165.486C282.341 165.951 281.389 166.365 280.412 166.722C278.362 167.434 276.24 167.895 274.099 168.103" fill="#D6E7FC"/>
<path d="M270.461 165.096L261.293 155.764V153.062H270.461V165.096Z" fill="#D6E7FC"/>
<path d="M287.083 163.157V155.792L290.96 159.738C289.777 160.997 288.477 162.143 287.083 163.157" fill="#D6E7FC"/>
<path d="M257.658 152.064L252.236 146.546H257.658V152.064Z" fill="#D6E7FC"/>
<path d="M296.252 151.606V148.229V139.004L298.431 141.22C298.418 142.064 298.367 142.913 298.277 143.768C297.979 146.539 297.283 149.169 296.252 151.606M287.085 146.595L283.266 142.707V136.382V125.783L292.713 135.399H287.085V146.595ZM274.097 133.375L257.837 116.822C259.173 116.069 260.578 115.427 262.035 114.906C264.948 113.882 268.004 113.368 271.065 113.364L277.588 120.003H274.097V133.375" fill="#E2F0FD"/>
<path d="M283.266 136.382H277.051L274.099 133.375V120.003H277.588L283.266 125.783V136.382" fill="#DBEBFC"/>
<path d="M296.251 148.229H288.691L287.084 146.595V135.4H292.713L296.251 139.004V148.229" fill="#DBEBFC"/>
<path d="M283.266 142.707L277.051 136.382H283.266V142.707Z" fill="#D6E7FC"/>
<path d="M294.834 154.484L288.69 148.229H296.251V151.607C295.833 152.599 295.359 153.559 294.834 154.484" fill="#D6E7FC"/>
<path d="M252.184 160.367C241.327 149.747 241.068 132.377 251.606 121.57C262.145 110.763 279.492 110.611 290.35 121.231C301.208 131.851 301.468 149.22 290.929 160.028C280.389 170.835 263.044 170.985 252.184 160.367ZM249.694 162.921C261.971 174.926 281.581 174.754 293.495 162.536C305.41 150.32 305.116 130.683 292.842 118.677C280.565 106.671 260.955 106.843 249.04 119.06C237.126 131.278 237.42 150.915 249.694 162.921Z" fill="#184655"/>
<path d="M271.448 169.931C264.086 169.931 256.704 167.151 251.004 161.578C239.473 150.301 239.198 131.856 250.389 120.38C256.051 114.576 263.558 111.666 271.091 111.666C278.451 111.666 285.833 114.446 291.532 120.019C303.062 131.297 303.338 149.742 292.146 161.217C286.487 167.022 278.978 169.931 271.448 169.931M243.869 140.628C243.869 147.784 246.651 154.952 252.185 160.367C257.554 165.616 264.505 168.233 271.437 168.233C278.527 168.233 285.599 165.492 290.929 160.028C296.097 154.729 298.669 147.854 298.669 140.971C298.667 133.812 295.886 126.644 290.35 121.231C290.335 121.215 290.318 121.199 290.303 121.184C290.287 121.169 290.274 121.156 290.259 121.141L290.255 121.139C284.903 115.951 277.995 113.365 271.104 113.364C271.102 113.364 271.1 113.364 271.1 113.364C271.089 113.364 271.076 113.364 271.065 113.364C268.004 113.369 264.948 113.883 262.034 114.907C258.207 116.251 254.627 118.473 251.607 121.57C248.368 124.89 246.15 128.832 244.946 133.005C244.459 134.688 244.137 136.408 243.982 138.14C243.906 138.967 243.869 139.797 243.869 140.628Z" fill="#103D46"/>
<path d="M337.231 206.705L338.913 204.957C340.595 203.21 340.545 200.429 338.8 198.745L307.536 168.391C305.792 166.708 303.015 166.759 301.335 168.505L299.65 170.254C297.968 172 298.021 174.781 299.763 176.465L331.027 206.818C332.772 208.503 335.549 208.452 337.231 206.705" fill="#184655"/>
<path d="M335.507 189.516C335.515 189.455 335.515 189.394 335.509 189.332C335.315 187.354 333.673 170.738 333.398 170.032C333.148 169.394 325.791 158.856 325.791 158.856L322.174 163.79L329.251 173.243C329.408 173.844 331.962 185.059 331.962 185.059C331.962 185.059 332.486 187.104 332.719 188.328C332.612 188.623 332.507 188.902 332.416 189.131C332.181 189.619 331.902 190.021 331.653 190.358C331.337 190.782 330.813 191.71 330.749 191.958C330.675 192.247 330.539 192.846 330.462 193.208C330.386 193.571 330.281 193.992 330.264 194.188C330.254 194.308 330.13 194.547 330.035 194.715C329.893 194.966 330.134 195.261 330.406 195.17C330.664 195.085 330.865 194.752 330.988 194.544C331.337 193.958 331.523 192.887 331.609 192.945C331.696 193.001 332.001 194.817 332.049 195.022C332.096 195.228 332.463 197.336 332.67 197.722C332.874 198.107 333.151 198.042 333.221 197.801C333.285 197.593 332.994 194.643 332.994 194.643C332.994 194.643 332.959 194.267 333.122 194.384C333.287 194.501 333.555 197.179 333.67 197.572C333.784 197.964 334.046 198.171 334.267 197.856C334.537 197.473 334.073 194.632 334.073 194.632C334.073 194.632 334.021 194.276 334.174 194.309C334.324 194.343 334.516 196.624 334.634 196.822C334.754 197.019 335.053 197.09 335.195 196.762C335.364 196.373 334.927 193.842 334.927 193.842C334.927 193.842 334.95 193.64 335.045 193.707C335.139 193.774 335.441 195.708 335.637 195.887C335.802 196.037 335.94 195.891 335.94 195.891C336.301 195.644 335.748 193.805 335.752 192.89C335.758 191.976 335.335 190.948 335.461 189.858C335.47 189.79 335.492 189.622 335.507 189.516" fill="#F8A492"/>
<path d="M331.538 165.531L325.253 169.756C325.253 169.756 321.71 164.478 319.808 162.598C317.426 160.244 320.677 153.033 322.21 153.44C325.644 154.353 331.538 165.531 331.538 165.531Z" fill="#F47458"/>
<path d="M344.474 251.38H31.728V253.249H344.474V251.38Z" fill="#0E2E35"/>
</g>
<defs>
<clipPath id="clip0_22_17853">
<rect width="379" height="267" fill="white"/>
</clipPath>
</defs>
</svg>
