<?xml version="1.0" encoding="utf-8"?>
<!-- Generator: Adobe Illustrator 18.0.0, SVG Export Plug-In . SVG Version: 6.00 Build 0)  -->
<!DOCTYPE svg PUBLIC "-//W3C//DTD SVG 1.1//EN" "http://www.w3.org/Graphics/SVG/1.1/DTD/svg11.dtd">
<svg version="1.1" xmlns="http://www.w3.org/2000/svg" xmlns:xlink="http://www.w3.org/1999/xlink" x="0px" y="0px"
	 viewBox="0 0 716 440" enable-background="new 0 0 716 440" xml:space="preserve">
<g id="BACKGROUND" display="none">
	<rect x="63.6" y="-29.6" display="inline" fill="#DAEAFF" width="500" height="500"/>
</g>
<g id="OBJECTS">
	
		<line fill="none" stroke="#B0D5F7" stroke-width="1.8871" stroke-linecap="round" stroke-linejoin="round" stroke-miterlimit="10" x1="97" y1="347.5" x2="661" y2="347.5"/>
	<linearGradient id="SVGID_1_" gradientUnits="userSpaceOnUse" x1="120.1471" y1="191.3058" x2="618.6567" y2="191.3058">
		<stop  offset="0" style="stop-color:#271887"/>
		<stop  offset="1" style="stop-color:#02BFE1"/>
	</linearGradient>
	
		<rect x="121.1" y="36.7" fill="#FBFBFD" stroke="url(#SVGID_1_)" stroke-width="2" stroke-miterlimit="10" width="496.5" height="309.2"/>
	<linearGradient id="SVGID_2_" gradientUnits="userSpaceOnUse" x1="120.1471" y1="21.7592" x2="618.6567" y2="21.7592">
		<stop  offset="0" style="stop-color:#271887"/>
		<stop  offset="1" style="stop-color:#02BFE1"/>
	</linearGradient>
	<path fill="#CDF2F9" stroke="url(#SVGID_2_)" stroke-width="2" stroke-miterlimit="10" d="M605.9,6.8h-473
		c-6.5,0-11.8,5.3-11.8,11.8v18.1h496.5V18.6C617.7,12.1,612.4,6.8,605.9,6.8z"/>
	<g>
		<circle fill="#FFFFFF" cx="154.5" cy="21.8" r="6"/>
		<circle fill="#FFFFFF" cx="172.4" cy="21.8" r="6"/>
		<circle fill="#FFFFFF" cx="190.2" cy="21.8" r="6"/>
	</g>
	<circle fill="#CDF2F9" cx="184.3" cy="110.3" r="39.4"/>
	<g>
		<linearGradient id="SVGID_3_" gradientUnits="userSpaceOnUse" x1="173.9398" y1="100.1881" x2="194.9563" y2="100.1881">
			<stop  offset="0" style="stop-color:#271887"/>
			<stop  offset="1" style="stop-color:#02BFE1"/>
		</linearGradient>
		<circle fill="url(#SVGID_3_)" cx="184.4" cy="100.2" r="10.5"/>
		<linearGradient id="SVGID_4_" gradientUnits="userSpaceOnUse" x1="161.3978" y1="121.2093" x2="207.1593" y2="121.2093">
			<stop  offset="0" style="stop-color:#271887"/>
			<stop  offset="1" style="stop-color:#02BFE1"/>
		</linearGradient>
		<path fill="url(#SVGID_4_)" d="M161.4,128l3.8-7c2.2-4,6.4-6.5,10.9-6.5h15.3c4.1,0,8,2.1,10.3,5.5l5.5,8.1H161.4z"/>
	</g>
	<rect x="476.1" y="71" fill="#CDF2F9" width="119.7" height="117.9"/>
	<rect x="476.1" y="210.5" fill="#CDF2F9" width="119.7" height="105.1"/>
	<g>
		<linearGradient id="SVGID_5_" gradientUnits="userSpaceOnUse" x1="266.3699" y1="99.2017" x2="309.5869" y2="99.2017">
			<stop  offset="0" style="stop-color:#271887"/>
			<stop  offset="1" style="stop-color:#02BFE1"/>
		</linearGradient>
		<circle fill="url(#SVGID_5_)" cx="288" cy="99.2" r="21.6"/>
		<linearGradient id="SVGID_6_" gradientUnits="userSpaceOnUse" x1="325.7688" y1="83.5818" x2="406.8005" y2="83.5818">
			<stop  offset="0" style="stop-color:#271887"/>
			<stop  offset="1" style="stop-color:#02BFE1"/>
		</linearGradient>
		<line fill="url(#SVGID_6_)" x1="325.8" y1="83.6" x2="406.8" y2="83.6"/>
		<linearGradient id="SVGID_7_" gradientUnits="userSpaceOnUse" x1="325.7688" y1="100.0508" x2="366.2846" y2="100.0508">
			<stop  offset="0" style="stop-color:#271887"/>
			<stop  offset="1" style="stop-color:#02BFE1"/>
		</linearGradient>
		<line fill="url(#SVGID_7_)" x1="325.8" y1="100.1" x2="366.3" y2="100.1"/>
		<linearGradient id="SVGID_8_" gradientUnits="userSpaceOnUse" x1="325.7688" y1="116.5196" x2="406.8005" y2="116.5196">
			<stop  offset="0" style="stop-color:#271887"/>
			<stop  offset="1" style="stop-color:#02BFE1"/>
		</linearGradient>
		<line fill="url(#SVGID_8_)" x1="325.8" y1="116.5" x2="406.8" y2="116.5"/>
	</g>
	<g>
		<linearGradient id="SVGID_9_" gradientUnits="userSpaceOnUse" x1="266.3699" y1="184.3963" x2="309.5869" y2="184.3963">
			<stop  offset="0" style="stop-color:#271887"/>
			<stop  offset="1" style="stop-color:#02BFE1"/>
		</linearGradient>
		<circle fill="url(#SVGID_9_)" cx="288" cy="184.4" r="21.6"/>
		<linearGradient id="SVGID_10_" gradientUnits="userSpaceOnUse" x1="325.7688" y1="168.7764" x2="406.8005" y2="168.7764">
			<stop  offset="0" style="stop-color:#271887"/>
			<stop  offset="1" style="stop-color:#02BFE1"/>
		</linearGradient>
		<line fill="url(#SVGID_10_)" x1="325.8" y1="168.8" x2="406.8" y2="168.8"/>
		<linearGradient id="SVGID_11_" gradientUnits="userSpaceOnUse" x1="325.7688" y1="185.2453" x2="366.2846" y2="185.2453">
			<stop  offset="0" style="stop-color:#271887"/>
			<stop  offset="1" style="stop-color:#02BFE1"/>
		</linearGradient>
		<line fill="url(#SVGID_11_)" x1="325.8" y1="185.2" x2="366.3" y2="185.2"/>
		<linearGradient id="SVGID_12_" gradientUnits="userSpaceOnUse" x1="325.7688" y1="201.7143" x2="406.8005" y2="201.7143">
			<stop  offset="0" style="stop-color:#271887"/>
			<stop  offset="1" style="stop-color:#02BFE1"/>
		</linearGradient>
		<line fill="url(#SVGID_12_)" x1="325.8" y1="201.7" x2="406.8" y2="201.7"/>
	</g>
	<g>
		<linearGradient id="SVGID_13_" gradientUnits="userSpaceOnUse" x1="266.3699" y1="269.5909" x2="309.5869" y2="269.5909">
			<stop  offset="0" style="stop-color:#271887"/>
			<stop  offset="1" style="stop-color:#02BFE1"/>
		</linearGradient>
		<circle fill="url(#SVGID_13_)" cx="288" cy="269.6" r="21.6"/>
		<linearGradient id="SVGID_14_" gradientUnits="userSpaceOnUse" x1="325.7688" y1="253.9711" x2="406.8005" y2="253.9711">
			<stop  offset="0" style="stop-color:#271887"/>
			<stop  offset="1" style="stop-color:#02BFE1"/>
		</linearGradient>
		<line fill="url(#SVGID_14_)" x1="325.8" y1="254" x2="406.8" y2="254"/>
		<linearGradient id="SVGID_15_" gradientUnits="userSpaceOnUse" x1="325.7688" y1="270.4399" x2="366.2846" y2="270.4399">
			<stop  offset="0" style="stop-color:#271887"/>
			<stop  offset="1" style="stop-color:#02BFE1"/>
		</linearGradient>
		<line fill="url(#SVGID_15_)" x1="325.8" y1="270.4" x2="366.3" y2="270.4"/>
		<linearGradient id="SVGID_16_" gradientUnits="userSpaceOnUse" x1="325.7688" y1="286.9089" x2="406.8005" y2="286.9089">
			<stop  offset="0" style="stop-color:#271887"/>
			<stop  offset="1" style="stop-color:#02BFE1"/>
		</linearGradient>
		<line fill="url(#SVGID_16_)" x1="325.8" y1="286.9" x2="406.8" y2="286.9"/>
	</g>
	<linearGradient id="SVGID_17_" gradientUnits="userSpaceOnUse" x1="141.1955" y1="274.7249" x2="227.4082" y2="274.7249">
		<stop  offset="0" style="stop-color:#271887"/>
		<stop  offset="1" style="stop-color:#02BFE1"/>
	</linearGradient>
	<path fill="url(#SVGID_17_)" d="M223.7,278.5h-78.7c-2.1,0-3.7-1.7-3.7-3.7s1.7-3.7,3.7-3.7h78.7c2.1,0,3.7,1.7,3.7,3.7
		S225.7,278.5,223.7,278.5z"/>
	<linearGradient id="SVGID_18_" gradientUnits="userSpaceOnUse" x1="141.1955" y1="293.8262" x2="227.4082" y2="293.8262">
		<stop  offset="0" style="stop-color:#271887"/>
		<stop  offset="1" style="stop-color:#02BFE1"/>
	</linearGradient>
	<path fill="url(#SVGID_18_)" d="M223.7,297.6h-78.7c-2.1,0-3.7-1.7-3.7-3.7s1.7-3.7,3.7-3.7h78.7c2.1,0,3.7,1.7,3.7,3.7
		S225.7,297.6,223.7,297.6z"/>
	<linearGradient id="SVGID_19_" gradientUnits="userSpaceOnUse" x1="522.5486" y1="309.7029" x2="617.6108" y2="309.7029">
		<stop  offset="0" style="stop-color:#271887"/>
		<stop  offset="1" style="stop-color:#02BFE1"/>
	</linearGradient>
	<polygon fill="url(#SVGID_19_)" points="614.1,408.3 617.6,406.3 579.1,211.1 575.7,213.9 578.6,231 529.1,231 526,212.9 
		522.5,212.4 561,406.3 564.5,407.9 561.3,394 610.8,394 	"/>
	<polygon fill="#FFFFFF" points="553.4,353 602.9,353 606.2,370 556.7,370 	"/>
	<polygon fill="#FFFFFF" points="586.5,269 537,269 533.7,252 583.2,252 	"/>
	<polygon fill="#FFFFFF" points="587.2,273 590.4,290 540.9,290 537.7,273 	"/>
	<polygon fill="#FFFFFF" points="591.1,293 594.4,310 544.8,310 541.6,293 	"/>
	<polygon fill="#FFFFFF" points="595.1,312 598.3,329 548.8,329 545.5,312 	"/>
	<polygon fill="#FFFFFF" points="599,333 602.2,350 552.7,350 549.5,333 	"/>
	<polygon fill="#FFFFFF" points="579.3,234 582.5,249 533,249 529.8,234 	"/>
	<polygon fill="#FFFFFF" points="560.6,388 557.3,374 606.9,374 610.1,388 	"/>
	<path fill="#CDF2F9" d="M646.8,206.7L646.8,206.7c6.5-6.9,3.4-14.5,2.2-16.8c0,0,0,0,0,0c-0.2-0.4-0.4-0.7-0.4-0.7l0.1,0
		c-1.9-3.8-3-8-3-12.5c0-7.6,3.1-14.6,8.1-19.6c4.6-6.1,1.1-14.2,1.1-14.2h0c-0.7-2-1.1-4.2-1.1-6.5c0-10.8,8.8-19.6,19.6-19.6
		c10.8,0,19.6,8.8,19.6,19.6c0,2.3-0.4,4.5-1.1,6.5h0c0,0-3.5,8.1,1.1,14.2c5,5,8.1,11.9,8.1,19.6c0,4.5-1.1,8.7-3,12.5l0,0
		c0,0,0,0.1-0.1,0.1c-0.2,0.3-0.3,0.6-0.5,0.9c-1.2,2.5-3.6,9.3,1.8,15.7c0.2,0.2,0.3,0.4,0.5,0.6c0.1,0.1,0.1,0.1,0.1,0.2l0,0
		c4.7,5.8,7.5,13.2,7.5,21.3c0,18.8-15.3,34.1-34.1,34.1c-18.8,0-34.1-15.3-34.1-34.1C639.3,220,642.1,212.6,646.8,206.7z"/>
	<linearGradient id="SVGID_20_" gradientUnits="userSpaceOnUse" x1="661.0165" y1="229.6624" x2="685.671" y2="229.6624">
		<stop  offset="0" style="stop-color:#271887"/>
		<stop  offset="1" style="stop-color:#02BFE1"/>
	</linearGradient>
	<path fill="url(#SVGID_20_)" d="M663.3,225.1l8.3,8.3v-29l-10.3-10.1c-0.5-0.5-0.5-1.4,0-1.9c0.5-0.5,1.4-0.5,1.9,0l8.3,8.3v-40
		c0-0.7,0.6-1.4,1.4-1.4c0.7,0,1.4,0.6,1.4,1.4v24.1l8.1-8.1c0.5-0.5,1.4-0.5,1.9,0c0.5,0.5,0.5,1.4,0,1.9l-10,10v29.2l9-9.1
		c0.5-0.5,1.4-0.5,1.9,0c0.5,0.5,0.5,1.4,0,1.9l-10.9,11v77.3c0,0.7-0.6,1.4-1.4,1.4c-0.7,0-1.4-0.6-1.4-1.4v-61.6l-10.3-10.1
		c-0.5-0.5-0.5-1.4,0-1.9C661.9,224.6,662.8,224.6,663.3,225.1z"/>
	
		<line fill="none" stroke="#B0D5F7" stroke-width="1.8871" stroke-linecap="round" stroke-linejoin="round" stroke-miterlimit="10" x1="655.1" y1="300.2" x2="710.1" y2="300.2"/>
	<path fill="#FBFBFD" d="M551.4,135.5l-0.1-12.3c0-1.1-1.2-1.9-2.6-1.9l-13,0.1c-2.9,0-5.2-2-5.3-4.4l0-4.2c0-2.5,2.3-4.5,5.2-4.5
		l7.7-0.1l0,2l-7.7,0.1c-1.8,0-3.2,1.1-3.2,2.4l0,4.2c0,1.3,1.4,2.4,3.2,2.4l13-0.1c2.6,0,4.7,1.8,4.7,4l0.1,12.3L551.4,135.5z"/>
	<linearGradient id="SVGID_21_" gradientUnits="userSpaceOnUse" x1="535.3661" y1="92.5517" x2="566.6092" y2="92.5517">
		<stop  offset="0" style="stop-color:#271887"/>
		<stop  offset="1" style="stop-color:#02BFE1"/>
	</linearGradient>
	<path fill="url(#SVGID_21_)" d="M563,104.1V70h-24v34.4c-1,0.7-3.7,2.8-3.6,5.3c0,3,2.6,5.5,5.7,5.5l19.5-0.1c3,0,6.1-2.5,6.1-5.6
		C566.6,106.8,564,104.7,563,104.1z"/>
	<path fill="#2F282F" d="M554.3,159.2l-3.7,0c-1.1,0-2-0.9-2-2l0.6-22.7c0-1.1,0.9-2,2-2l2.2,0c1.1,0,2,0.9,2,2l0.9,22.7
		C556.3,158.3,555.4,159.2,554.3,159.2z"/>
	<g>
		<linearGradient id="SVGID_22_" gradientUnits="userSpaceOnUse" x1="546.3564" y1="147.6295" x2="562.4199" y2="147.6295">
			<stop  offset="0" style="stop-color:#271887"/>
			<stop  offset="1" style="stop-color:#02BFE1"/>
		</linearGradient>
		<circle fill="#FBFBFD" stroke="url(#SVGID_22_)" stroke-width="2" stroke-miterlimit="10" cx="554.4" cy="147.6" r="7"/>
	</g>
	<linearGradient id="SVGID_23_" gradientUnits="userSpaceOnUse" x1="466.848" y1="171.2292" x2="482.0539" y2="171.2292">
		<stop  offset="0" style="stop-color:#271887"/>
		<stop  offset="1" style="stop-color:#02BFE1"/>
	</linearGradient>
	
		<rect x="467.8" y="162.4" fill="#FBFBFD" stroke="url(#SVGID_23_)" stroke-width="2" stroke-miterlimit="10" width="13.2" height="17.7"/>
	<g>
		<linearGradient id="SVGID_24_" gradientUnits="userSpaceOnUse" x1="455.8001" y1="410.0678" x2="466.6087" y2="410.0678">
			<stop  offset="0" style="stop-color:#271887"/>
			<stop  offset="1" style="stop-color:#02BFE1"/>
		</linearGradient>
		
			<rect x="456.8" y="405.6" fill="#FBFBFD" stroke="url(#SVGID_24_)" stroke-width="2" stroke-miterlimit="10" width="8.8" height="8.9"/>
		<linearGradient id="SVGID_25_" gradientUnits="userSpaceOnUse" x1="450.2809" y1="405.3608" x2="470.6621" y2="405.3608">
			<stop  offset="0" style="stop-color:#271887"/>
			<stop  offset="1" style="stop-color:#02BFE1"/>
		</linearGradient>
		
			<rect x="451.3" y="402" fill="#FBFBFD" stroke="url(#SVGID_25_)" stroke-width="2" stroke-miterlimit="10" width="18.4" height="6.7"/>
		<linearGradient id="SVGID_26_" gradientUnits="userSpaceOnUse" x1="483.5371" y1="410.0678" x2="494.3456" y2="410.0678">
			<stop  offset="0" style="stop-color:#271887"/>
			<stop  offset="1" style="stop-color:#02BFE1"/>
		</linearGradient>
		
			<rect x="484.5" y="405.6" fill="#FBFBFD" stroke="url(#SVGID_26_)" stroke-width="2" stroke-miterlimit="10" width="8.8" height="8.9"/>
		<linearGradient id="SVGID_27_" gradientUnits="userSpaceOnUse" x1="448.6527" y1="324.7747" x2="501.4927" y2="324.7747">
			<stop  offset="0" style="stop-color:#271887"/>
			<stop  offset="1" style="stop-color:#02BFE1"/>
		</linearGradient>
		<polygon fill="#FBFBFD" stroke="url(#SVGID_27_)" stroke-width="2" stroke-miterlimit="10" points="476.3,247.6 473.8,247.6 
			449.7,247.6 454.1,402 468,402 470.1,274.6 480,274.6 482.2,402 496.1,402 500.5,247.6 		"/>
		<linearGradient id="SVGID_28_" gradientUnits="userSpaceOnUse" x1="479.4835" y1="405.3608" x2="499.8649" y2="405.3608">
			<stop  offset="0" style="stop-color:#271887"/>
			<stop  offset="1" style="stop-color:#02BFE1"/>
		</linearGradient>
		
			<rect x="480.5" y="402" fill="#FBFBFD" stroke="url(#SVGID_28_)" stroke-width="2" stroke-miterlimit="10" width="18.4" height="6.7"/>
	</g>
	<linearGradient id="SVGID_29_" gradientUnits="userSpaceOnUse" x1="452.0266" y1="151.6965" x2="461.8034" y2="151.6965">
		<stop  offset="0" style="stop-color:#271887"/>
		<stop  offset="1" style="stop-color:#02BFE1"/>
	</linearGradient>
	<circle fill="#FBFBFD" stroke="url(#SVGID_29_)" stroke-miterlimit="10" cx="456.9" cy="151.7" r="4.4"/>
	<linearGradient id="SVGID_30_" gradientUnits="userSpaceOnUse" x1="487.3027" y1="151.6965" x2="497.0796" y2="151.6965">
		<stop  offset="0" style="stop-color:#271887"/>
		<stop  offset="1" style="stop-color:#02BFE1"/>
	</linearGradient>
	<circle fill="#FBFBFD" stroke="url(#SVGID_30_)" stroke-miterlimit="10" cx="492.2" cy="151.7" r="4.4"/>
	<linearGradient id="SVGID_31_" gradientUnits="userSpaceOnUse" x1="455.4962" y1="147.9121" x2="493.5788" y2="147.9121">
		<stop  offset="0" style="stop-color:#271887"/>
		<stop  offset="1" style="stop-color:#02BFE1"/>
	</linearGradient>
	<circle fill="#FBFBFD" stroke="url(#SVGID_31_)" stroke-width="2" stroke-miterlimit="10" cx="474.5" cy="147.9" r="18"/>
	<linearGradient id="SVGID_32_" gradientUnits="userSpaceOnUse" x1="480.3724" y1="262.1519" x2="495.0823" y2="262.1519">
		<stop  offset="0" style="stop-color:#271887"/>
		<stop  offset="1" style="stop-color:#02BFE1"/>
	</linearGradient>
	<polygon fill="none" stroke="url(#SVGID_32_)" stroke-miterlimit="10" points="480.9,255.1 494.6,255.1 494.6,264.2 487.7,269.1 
		480.9,264.3 	"/>
	<linearGradient id="SVGID_33_" gradientUnits="userSpaceOnUse" x1="455.0631" y1="262.1519" x2="469.773" y2="262.1519">
		<stop  offset="0" style="stop-color:#271887"/>
		<stop  offset="1" style="stop-color:#02BFE1"/>
	</linearGradient>
	<polygon fill="none" stroke="url(#SVGID_33_)" stroke-miterlimit="10" points="455.6,255.1 469.3,255.1 469.3,264.2 462.4,269.1 
		455.6,264.3 	"/>
	<g>
		<linearGradient id="SVGID_34_" gradientUnits="userSpaceOnUse" x1="480.4092" y1="421.076" x2="523.9417" y2="421.076">
			<stop  offset="0" style="stop-color:#271887"/>
			<stop  offset="1" style="stop-color:#02BFE1"/>
		</linearGradient>
		<path fill="#FBFBFD" stroke="url(#SVGID_34_)" stroke-width="2" stroke-miterlimit="10" d="M496.1,411.6l0.2,9.4
			c0,0,22.7,6.4,23,6.4c0.3,0,3.5,1.1,3.5,3.2c0,0-41.3,0.1-41.2,0c0.1-0.1-0.3-9.8-0.3-9.8S480.3,409.7,496.1,411.6z"/>
		<linearGradient id="SVGID_35_" gradientUnits="userSpaceOnUse" x1="497.5673" y1="423.4767" x2="501.6684" y2="423.4767">
			<stop  offset="0" style="stop-color:#271887"/>
			<stop  offset="1" style="stop-color:#02BFE1"/>
		</linearGradient>
		<path fill="#FBFBFD" stroke="url(#SVGID_35_)" stroke-width="2" stroke-miterlimit="10" d="M499.6,426.4c0.5,0,1-0.4,1-1l0-3.7
			c0.1-0.6-0.4-1.1-1-1.1c-0.6-0.1-1.1,0.4-1.1,1l0,3.7C498.5,425.8,498.9,426.3,499.6,426.4C499.6,426.4,499.6,426.4,499.6,426.4z"
			/>
		<linearGradient id="SVGID_36_" gradientUnits="userSpaceOnUse" x1="501.8895" y1="424.3993" x2="505.9894" y2="424.3993">
			<stop  offset="0" style="stop-color:#271887"/>
			<stop  offset="1" style="stop-color:#02BFE1"/>
		</linearGradient>
		<path fill="#FBFBFD" stroke="url(#SVGID_36_)" stroke-width="2" stroke-miterlimit="10" d="M503.9,427.3c0.5,0,1-0.4,1-1l0-3.7
			c0.1-0.6-0.4-1.1-1-1.1c-0.6-0.1-1.1,0.4-1.1,1l0,3.7C502.8,426.7,503.3,427.2,503.9,427.3C503.9,427.3,503.9,427.3,503.9,427.3z"
			/>
		<linearGradient id="SVGID_37_" gradientUnits="userSpaceOnUse" x1="506.1597" y1="425.5929" x2="510.2596" y2="425.5929">
			<stop  offset="0" style="stop-color:#271887"/>
			<stop  offset="1" style="stop-color:#02BFE1"/>
		</linearGradient>
		<path fill="#FBFBFD" stroke="url(#SVGID_37_)" stroke-width="2" stroke-miterlimit="10" d="M508.2,428.5c0.5,0,1-0.4,1-1l0-3.7
			c0.1-0.6-0.4-1.1-1-1.1c-0.6-0.1-1.1,0.4-1.1,1l0,3.7C507.1,427.9,507.5,428.4,508.2,428.5C508.1,428.5,508.2,428.5,508.2,428.5z"
			/>
		<linearGradient id="SVGID_38_" gradientUnits="userSpaceOnUse" x1="479.3395" y1="432.1663" x2="525.0627" y2="432.1663">
			<stop  offset="0" style="stop-color:#271887"/>
			<stop  offset="1" style="stop-color:#02BFE1"/>
		</linearGradient>
		<path fill="#FBFBFD" stroke="url(#SVGID_38_)" stroke-width="2" stroke-miterlimit="10" d="M481.7,430.7l1.7,1.7
			c0.8,0.8,2,1.3,3.2,1.3h31.8c1.3,0,2.6-0.6,3.4-1.6l1.1-1.4H481.7z"/>
	</g>
	<g>
		<linearGradient id="SVGID_39_" gradientUnits="userSpaceOnUse" x1="425.5224" y1="421.076" x2="469.0549" y2="421.076">
			<stop  offset="0" style="stop-color:#271887"/>
			<stop  offset="1" style="stop-color:#02BFE1"/>
		</linearGradient>
		<path fill="#FBFBFD" stroke="url(#SVGID_39_)" stroke-width="2" stroke-miterlimit="10" d="M453.3,411.6l-0.2,9.4
			c0,0-22.7,6.4-23,6.4c-0.3,0-3.5,1.1-3.5,3.2c0,0,41.3,0.1,41.2,0s0.3-9.8,0.3-9.8S469.2,409.7,453.3,411.6z"/>
		<linearGradient id="SVGID_40_" gradientUnits="userSpaceOnUse" x1="447.7958" y1="423.4767" x2="451.8969" y2="423.4767">
			<stop  offset="0" style="stop-color:#271887"/>
			<stop  offset="1" style="stop-color:#02BFE1"/>
		</linearGradient>
		<path fill="#FBFBFD" stroke="url(#SVGID_40_)" stroke-width="2" stroke-miterlimit="10" d="M449.8,426.4c-0.5,0-1-0.4-1-1l0-3.7
			c-0.1-0.6,0.4-1.1,1-1.1c0.6-0.1,1.1,0.4,1.1,1l0,3.7C450.9,425.8,450.5,426.3,449.8,426.4C449.9,426.4,449.9,426.4,449.8,426.4z"
			/>
		<linearGradient id="SVGID_41_" gradientUnits="userSpaceOnUse" x1="443.4748" y1="424.3993" x2="447.5746" y2="424.3993">
			<stop  offset="0" style="stop-color:#271887"/>
			<stop  offset="1" style="stop-color:#02BFE1"/>
		</linearGradient>
		<path fill="#FBFBFD" stroke="url(#SVGID_41_)" stroke-width="2" stroke-miterlimit="10" d="M445.5,427.3c-0.5,0-1-0.4-1-1l0-3.7
			c-0.1-0.6,0.4-1.1,1-1.1c0.6-0.1,1.1,0.4,1.1,1l0,3.7C446.6,426.7,446.2,427.2,445.5,427.3C445.6,427.3,445.6,427.3,445.5,427.3z"
			/>
		<linearGradient id="SVGID_42_" gradientUnits="userSpaceOnUse" x1="439.2046" y1="425.5929" x2="443.3045" y2="425.5929">
			<stop  offset="0" style="stop-color:#271887"/>
			<stop  offset="1" style="stop-color:#02BFE1"/>
		</linearGradient>
		<path fill="#FBFBFD" stroke="url(#SVGID_42_)" stroke-width="2" stroke-miterlimit="10" d="M441.3,428.5c-0.5,0-1-0.4-1-1l0-3.7
			c-0.1-0.6,0.4-1.1,1-1.1c0.6-0.1,1.1,0.4,1.1,1l0,3.7C442.4,427.9,441.9,428.4,441.3,428.5C441.3,428.5,441.3,428.5,441.3,428.5z"
			/>
		<linearGradient id="SVGID_43_" gradientUnits="userSpaceOnUse" x1="424.4014" y1="432.1663" x2="470.1247" y2="432.1663">
			<stop  offset="0" style="stop-color:#271887"/>
			<stop  offset="1" style="stop-color:#02BFE1"/>
		</linearGradient>
		<path fill="#FBFBFD" stroke="url(#SVGID_43_)" stroke-width="2" stroke-miterlimit="10" d="M467.7,430.7l-1.7,1.7
			c-0.8,0.8-2,1.3-3.2,1.3h-31.8c-1.3,0-2.6-0.6-3.4-1.6l-1.1-1.4H467.7z"/>
	</g>
	<linearGradient id="SVGID_44_" gradientUnits="userSpaceOnUse" x1="364.6223" y1="409.7768" x2="410.7349" y2="409.7768">
		<stop  offset="0" style="stop-color:#271887"/>
		<stop  offset="1" style="stop-color:#02BFE1"/>
	</linearGradient>
	<path fill="#FBFBFD" stroke="url(#SVGID_44_)" stroke-width="2" stroke-miterlimit="10" d="M407.1,433.9h-38.7
		c-1.5,0-2.7-1.2-2.7-2.7v-43.3c0-1.2,1-2.2,2.2-2.2h39.7c1.2,0,2.2,1,2.2,2.2v43.3C409.7,432.7,408.5,433.9,407.1,433.9z"/>
	<path fill="#CDF2F9" d="M409.7,392.8h-44.1v-3.9c0-1.2,1-2.2,2.2-2.2h39.7c1.2,0,2.2,1,2.2,2.2V392.8z"/>
	<linearGradient id="SVGID_45_" gradientUnits="userSpaceOnUse" x1="365.6513" y1="401.6442" x2="409.692" y2="401.6442">
		<stop  offset="0" style="stop-color:#271887"/>
		<stop  offset="1" style="stop-color:#02BFE1"/>
	</linearGradient>
	<path fill="url(#SVGID_45_)" d="M397.7,411.5H377c-2.9,0-5.5-1.7-6.5-4.4l-4.8-14.1c-0.2-0.4,0.1-0.9,0.5-1.1
		c0.4-0.2,0.9,0.1,1.1,0.5l4.7,14.1c0.8,2,2.7,3.3,4.9,3.3h20.7c2.1,0,4-1.2,4.8-3.1l5.5-14.3c0.2-0.4,0.7-0.7,1.1-0.5
		c0.4,0.2,0.7,0.7,0.5,1.1l-5.5,14.3C403,409.8,400.5,411.5,397.7,411.5z"/>
	<linearGradient id="SVGID_46_" gradientUnits="userSpaceOnUse" x1="389.3257" y1="395.1537" x2="392.059" y2="395.1537">
		<stop  offset="0" style="stop-color:#271887"/>
		<stop  offset="1" style="stop-color:#02BFE1"/>
	</linearGradient>
	
		<line fill="none" stroke="url(#SVGID_46_)" stroke-width="2.7333" stroke-linecap="round" stroke-linejoin="round" stroke-miterlimit="10" x1="390.7" y1="388.7" x2="390.7" y2="401.6"/>
	<linearGradient id="SVGID_47_" gradientUnits="userSpaceOnUse" x1="393.559" y1="392.0701" x2="396.2923" y2="392.0701">
		<stop  offset="0" style="stop-color:#271887"/>
		<stop  offset="1" style="stop-color:#02BFE1"/>
	</linearGradient>
	
		<line fill="none" stroke="url(#SVGID_47_)" stroke-width="2.7333" stroke-linecap="round" stroke-linejoin="round" stroke-miterlimit="10" x1="394.9" y1="391" x2="394.9" y2="393.1"/>
	
		<line fill="none" stroke="#B0D5F7" stroke-width="1.8871" stroke-linecap="round" stroke-linejoin="round" stroke-miterlimit="10" x1="347.9" y1="435.3" x2="548.5" y2="435.3"/>
	<g>
		<linearGradient id="SVGID_48_" gradientUnits="userSpaceOnUse" x1="84.6486" y1="388.7097" x2="126.5986" y2="388.7097">
			<stop  offset="0" style="stop-color:#271887"/>
			<stop  offset="1" style="stop-color:#02BFE1"/>
		</linearGradient>
		<polygon fill="#FBFBFD" stroke="url(#SVGID_48_)" stroke-width="2" stroke-miterlimit="10" points="86.1,410.2 102,367.2 
			108.6,367.2 125.1,410.2 		"/>
		<linearGradient id="SVGID_49_" gradientUnits="userSpaceOnUse" x1="78.3759" y1="413.7893" x2="131.6677" y2="413.7893">
			<stop  offset="0" style="stop-color:#271887"/>
			<stop  offset="1" style="stop-color:#02BFE1"/>
		</linearGradient>
		
			<rect x="79.4" y="410.2" fill="#FBFBFD" stroke="url(#SVGID_49_)" stroke-width="2" stroke-miterlimit="10" width="51.3" height="7.1"/>
		<g>
			<defs>
				<polygon id="SVGID_50_" points="86.1,410.2 102,367.2 108.6,367.2 125.1,410.2 				"/>
			</defs>
			<use xlink:href="#SVGID_50_"  overflow="visible" fill="#FBFBFD"/>
			<clipPath id="SVGID_51_">
				<use xlink:href="#SVGID_50_"  overflow="visible"/>
			</clipPath>
			<linearGradient id="SVGID_52_" gradientUnits="userSpaceOnUse" x1="85.8356" y1="383.4819" x2="127.132" y2="383.4819">
				<stop  offset="0" style="stop-color:#271887"/>
				<stop  offset="1" style="stop-color:#02BFE1"/>
			</linearGradient>
			
				<line clip-path="url(#SVGID_51_)" fill="#FBFBFD" stroke="url(#SVGID_52_)" stroke-width="2" stroke-miterlimit="10" x1="86.1" y1="388.7" x2="126.9" y2="378.3"/>
			<linearGradient id="SVGID_53_" gradientUnits="userSpaceOnUse" x1="83.8356" y1="400.3546" x2="125.132" y2="400.3546">
				<stop  offset="0" style="stop-color:#271887"/>
				<stop  offset="1" style="stop-color:#02BFE1"/>
			</linearGradient>
			
				<line clip-path="url(#SVGID_51_)" fill="#FBFBFD" stroke="url(#SVGID_53_)" stroke-width="2" stroke-miterlimit="10" x1="84.1" y1="405.6" x2="124.9" y2="395.1"/>
			<linearGradient id="SVGID_54_" gradientUnits="userSpaceOnUse" x1="84.6486" y1="388.7097" x2="126.5986" y2="388.7097">
				<stop  offset="0" style="stop-color:#271887"/>
				<stop  offset="1" style="stop-color:#02BFE1"/>
			</linearGradient>
			
				<use xlink:href="#SVGID_50_"  overflow="visible" fill="none" stroke="url(#SVGID_54_)" stroke-width="2" stroke-miterlimit="10"/>
		</g>
	</g>
	<g>
		<linearGradient id="SVGID_55_" gradientUnits="userSpaceOnUse" x1="154.3537" y1="388.7097" x2="196.3038" y2="388.7097">
			<stop  offset="0" style="stop-color:#271887"/>
			<stop  offset="1" style="stop-color:#02BFE1"/>
		</linearGradient>
		<polygon fill="#FBFBFD" stroke="url(#SVGID_55_)" stroke-width="2" stroke-miterlimit="10" points="155.8,410.2 171.7,367.2 
			178.3,367.2 194.8,410.2 		"/>
		<linearGradient id="SVGID_56_" gradientUnits="userSpaceOnUse" x1="148.081" y1="413.7893" x2="201.3728" y2="413.7893">
			<stop  offset="0" style="stop-color:#271887"/>
			<stop  offset="1" style="stop-color:#02BFE1"/>
		</linearGradient>
		
			<rect x="149.1" y="410.2" fill="#FBFBFD" stroke="url(#SVGID_56_)" stroke-width="2" stroke-miterlimit="10" width="51.3" height="7.1"/>
		<g>
			<defs>
				<polygon id="SVGID_57_" points="155.8,410.2 171.7,367.2 178.3,367.2 194.8,410.2 				"/>
			</defs>
			<use xlink:href="#SVGID_57_"  overflow="visible" fill="#FBFBFD"/>
			<clipPath id="SVGID_58_">
				<use xlink:href="#SVGID_57_"  overflow="visible"/>
			</clipPath>
			<linearGradient id="SVGID_59_" gradientUnits="userSpaceOnUse" x1="155.5407" y1="383.4819" x2="196.8373" y2="383.4819">
				<stop  offset="0" style="stop-color:#271887"/>
				<stop  offset="1" style="stop-color:#02BFE1"/>
			</linearGradient>
			
				<line clip-path="url(#SVGID_58_)" fill="#FBFBFD" stroke="url(#SVGID_59_)" stroke-width="2" stroke-miterlimit="10" x1="155.8" y1="388.7" x2="196.6" y2="378.3"/>
			<linearGradient id="SVGID_60_" gradientUnits="userSpaceOnUse" x1="153.5407" y1="400.3546" x2="194.8372" y2="400.3546">
				<stop  offset="0" style="stop-color:#271887"/>
				<stop  offset="1" style="stop-color:#02BFE1"/>
			</linearGradient>
			
				<line clip-path="url(#SVGID_58_)" fill="#FBFBFD" stroke="url(#SVGID_60_)" stroke-width="2" stroke-miterlimit="10" x1="153.8" y1="405.6" x2="194.6" y2="395.1"/>
			<linearGradient id="SVGID_61_" gradientUnits="userSpaceOnUse" x1="154.3537" y1="388.7097" x2="196.3038" y2="388.7097">
				<stop  offset="0" style="stop-color:#271887"/>
				<stop  offset="1" style="stop-color:#02BFE1"/>
			</linearGradient>
			
				<use xlink:href="#SVGID_57_"  overflow="visible" fill="none" stroke="url(#SVGID_61_)" stroke-width="2" stroke-miterlimit="10"/>
		</g>
	</g>
	
		<line fill="none" stroke="#B0D5F7" stroke-width="1.8871" stroke-linecap="round" stroke-linejoin="round" stroke-miterlimit="10" x1="71.5" y1="418.6" x2="223.6" y2="418.6"/>
	<path fill="#CDF2F9" d="M18.6,226.7L18.6,226.7c8.5-8.9,4.5-18.8,2.9-21.8c0,0,0,0,0,0c-0.3-0.6-0.5-0.9-0.5-0.9l0.1,0
		c-2.5-4.9-3.9-10.4-3.9-16.3c0-10,4-19,10.6-25.5c6-7.9,1.5-18.5,1.5-18.5h0c-0.9-2.7-1.5-5.5-1.5-8.5c0-14.1,11.4-25.5,25.5-25.5
		c14.1,0,25.5,11.4,25.5,25.5c0,3-0.5,5.8-1.5,8.5h0c0,0-4.5,10.5,1.5,18.5c6.5,6.5,10.6,15.5,10.6,25.5c0,5.9-1.4,11.4-3.9,16.2
		l0,0c0,0,0,0.1-0.1,0.2c-0.2,0.4-0.4,0.8-0.6,1.2c-1.6,3.3-4.7,12.1,2.4,20.4c0.2,0.3,0.4,0.5,0.7,0.8c0.1,0.1,0.1,0.1,0.2,0.2l0,0
		c6.1,7.6,9.8,17.2,9.8,27.7c0,24.5-19.9,44.4-44.4,44.4c-24.5,0-44.4-19.9-44.4-44.4C8.9,243.9,12.5,234.3,18.6,226.7z"/>
	<linearGradient id="SVGID_62_" gradientUnits="userSpaceOnUse" x1="53.2261" y1="312.9707" x2="53.2261" y2="228.0483">
		<stop  offset="0" style="stop-color:#271887"/>
		<stop  offset="1" style="stop-color:#02BFE1"/>
	</linearGradient>
	<path fill="url(#SVGID_62_)" d="M40.2,250.7l10.9,10.7v-37.8l-13.3-13.2c-0.7-0.7-0.7-1.8,0-2.5c0.7-0.7,1.8-0.7,2.5,0l10.9,10.7
		v-52.1c0-1,0.8-1.8,1.8-1.8c1,0,1.8,0.8,1.8,1.8V198l10.6-10.5c0.7-0.7,1.8-0.7,2.5,0c0.7,0.7,0.7,1.8,0,2.5l-13,13v37.9l11.7-11.8
		c0.7-0.7,1.8-0.7,2.5,0c0.7,0.7,0.7,1.8,0,2.5l-14.2,14.3v100.6c0,1-0.8,1.8-1.8,1.8c-1,0-1.8-0.8-1.8-1.8v-80.2l-13.3-13.2
		c-0.7-0.7-0.7-1.8,0-2.5C38.4,250,39.5,250,40.2,250.7z"/>
	
		<line fill="none" stroke="#B0D5F7" stroke-width="1.8871" stroke-linecap="round" stroke-linejoin="round" stroke-miterlimit="10" x1="25.9" y1="347.5" x2="64.9" y2="347.5"/>
	<linearGradient id="SVGID_63_" gradientUnits="userSpaceOnUse" x1="416.6601" y1="199.0578" x2="559.7136" y2="199.0578">
		<stop  offset="0" style="stop-color:#271887"/>
		<stop  offset="1" style="stop-color:#02BFE1"/>
	</linearGradient>
	<path fill="#FBFBFD" stroke="url(#SVGID_63_)" stroke-width="2" stroke-miterlimit="10" d="M557.3,154.5l-10.7-4.3
		c-1.1-0.4-2.3,0.1-2.8,1.1c-2.9,6.7-7,15.8-9.3,21.2l-4.4,9.7l-2,4.4l-1.6-0.5l-1.6-0.5l-10.2-3c-6.2-1.8-18.9-5.2-21.4-6
		c-1.9-0.9-4.1-0.7-6.6-0.7h-23.5c-4,0-7.4,0.7-10.1,3c-1.1,0.5-2.1,0.9-3,2.1l-30.7,38.4l-0.1,0c-0.6,0.8-1,1.6-1.3,2.6
		c-0.7,2.4-0.6,5.3,0.3,7.6c1,2.4,2.6,4.2,4.3,5.5c3.3,2.4,7.4,3,11.1,2.2l15.3-1.9l0.4,12.6h50.8l1.8-50.5c2.7,0.6,5.4,1.2,8.1,1.8
		l10.3,2.4l2.6,0.6l1.3,0.3l0.8,0.2c0.5,0.1,1,0.2,1.5,0.3c3.7,0.5,7.5-0.7,10.4-3c0,0,0,0,0-0.1c0.8-0.6,1.6-1.2,2.3-1.9
		c0.7-0.8,1.4-1.6,1.9-2.5c0.3-0.4,0.5-0.9,0.7-1.4l0.2-0.3l0.1-0.2l0.1-0.3l2.1-4.9l4.2-9.8c2.4-5.5,6.6-14.8,9.7-21.4
		C559,156.3,558.5,155,557.3,154.5z M438.1,221.3l10.3-12l0.4,10.5L438.1,221.3z"/>
</g>
<g id="DESIGNED_BY_FREEPIK">
</g>
</svg>
