<?xml version="1.0" encoding="utf-8"?>
<!-- Generator: Adobe Illustrator 18.0.0, SVG Export Plug-In . SVG Version: 6.00 Build 0)  -->
<!DOCTYPE svg PUBLIC "-//W3C//DTD SVG 1.1//EN" "http://www.w3.org/Graphics/SVG/1.1/DTD/svg11.dtd">
<svg version="1.1" id="Layer_1" xmlns="http://www.w3.org/2000/svg" xmlns:xlink="http://www.w3.org/1999/xlink" x="0px" y="0px"
	 viewBox="0 0 469 401" enable-background="new 0 0 469 401" xml:space="preserve">
<path fill="#F4F4F4" d="M409.3,379.2c0,6.3-86.8,11.3-193.9,11.3s-193.9-5.1-193.9-11.3c0-6.3,86.8-11.3,193.9-11.3
	S409.3,373,409.3,379.2"/>
<path fill="#EBEBEB" d="M231.7,115.7l-0.4-13.1l8.1-2.6c0.3-4.5,1.1-8.9,2.2-13.2l-6.8-5l4.6-12.3l8.5,0.7c2-4,4.4-7.8,7-11.4
	l-4.4-7.3l9-9.6l7.6,3.9c3.4-2.9,7-5.5,10.8-7.8l-1.2-8.4l12-5.4l5.5,6.4c4.2-1.4,8.5-2.4,13-3.1l2-8.2l13.2-0.5l2.6,8.1
	c4.5,0.4,8.9,1.1,13.2,2.2l5.1-6.8l12.3,4.6l-0.7,8.5c4,2.1,7.8,4.4,11.4,7.1l7.3-4.4l9.6,9l-3.9,7.6c2.9,3.4,5.5,7,7.8,10.8
	l8.4-1.3l5.5,12l-6.5,5.5c1.4,4.2,2.4,8.6,3,13l8.3,2.1l0.5,13.1l-8.1,2.6c-0.3,4.5-1.1,8.9-2.2,13.2l6.8,5l-4.6,12.3l-8.5-0.7
	c-2,4-4.4,7.8-7,11.4l4.4,7.3l-9,9.6l-7.6-3.9c-3.4,2.9-7,5.5-10.8,7.8l1.3,8.4l-12,5.4l-5.5-6.4c-4.2,1.4-8.5,2.4-13,3l-2,8.2
	l-13.2,0.5l-2.6-8.1c-4.5-0.4-8.9-1.1-13.2-2.2l-5,6.8l-12.3-4.6l0.6-8.5c-4-2-7.8-4.4-11.4-7.1l-7.3,4.4l-9.6-9l3.9-7.6
	c-2.9-3.4-5.5-7-7.8-10.8l-8.4,1.3l-5.5-12l6.5-5.5c-1.4-4.2-2.4-8.5-3-13L231.7,115.7z M320.5,158.3c28.8-1,51.3-25.1,50.3-53.9
	C369.9,75.6,345.7,53,317,54c-28.8,1-51.3,25.1-50.3,53.9C267.6,136.7,291.7,159.2,320.5,158.3"/>
<path fill="#EBEBEB" d="M85.7,60l-3.3-3.1l1.3-2.6c-1-1.2-1.9-2.4-2.7-3.7L78.1,51l-1.9-4.1l2.2-1.9c-0.5-1.5-0.8-3-1.1-4.5
	l-2.9-0.7l-0.1-4.5l2.8-0.9c0.1-1.5,0.4-3,0.7-4.6l-2.3-1.7l1.6-4.3l2.9,0.2c0.7-1.4,1.5-2.7,2.4-3.9L81,17.6l3.1-3.3l2.6,1.3
	c1.2-1,2.4-1.9,3.7-2.7L90,10l4.1-1.9l1.9,2.2c1.5-0.5,3-0.8,4.5-1l0.7-2.8l4.5-0.2l0.9,2.8c1.5,0.1,3.1,0.4,4.5,0.7l1.7-2.4
	l4.3,1.6L117,12c1.4,0.7,2.7,1.5,3.9,2.4l2.5-1.5l3.3,3.1l-1.3,2.6c1,1.2,1.9,2.4,2.7,3.7L131,22l1.9,4.1l-2.2,1.9
	c0.5,1.5,0.8,3,1.1,4.5l2.9,0.7l0.1,4.5l-2.8,0.9c-0.1,1.5-0.4,3.1-0.7,4.6l2.4,1.7l-1.6,4.3l-2.9-0.2c-0.7,1.4-1.5,2.7-2.4,3.9
	l1.5,2.5l-3.1,3.3l-2.6-1.3c-1.2,1-2.4,1.9-3.7,2.7l0.4,2.9l-4.1,1.9l-1.9-2.2c-1.5,0.5-3,0.8-4.5,1l-0.7,2.8l-4.5,0.2l-0.9-2.8
	c-1.5-0.1-3.1-0.4-4.5-0.7l-1.7,2.4l-4.3-1.6l0.2-2.9c-1.4-0.7-2.7-1.5-3.9-2.4L85.7,60z M109.3,40.9c2.4-2.6,2.3-6.7-0.3-9.1
	c-2.6-2.4-6.7-2.3-9.1,0.3c-2.4,2.6-2.3,6.7,0.3,9.1C102.8,43.7,106.9,43.5,109.3,40.9"/>
<path fill="#EBEBEB" d="M171.4,266l7.6-5.2c0,0,0,0,0,0c0.7-2.7,1.8-5.4,3-7.9l-1.9-7.6l11-11.7l7.7,1.4c2.4-1.4,5-2.6,7.6-3.6
	c0,0,0,0,0,0l4.7-7.9l16.1-0.6l5.2,7.6c0,0,0,0,0,0c2.7,0.7,5.4,1.8,7.9,3l7.6-1.9l11.7,11l-1.4,7.7c0,0,0,0,0,0
	c1.5,2.4,2.6,5,3.6,7.7l7.9,4.7l0.6,16.1l-7.6,5.2c-0.7,2.8-1.7,5.4-3,7.9c0,0,0,0,0,0l1.9,7.6l-11,11.7l-7.7-1.4
	c-2.4,1.4-5,2.6-7.7,3.6c0,0,0,0,0,0l-4.7,7.9l-16.1,0.6l-5.2-7.6c-2.8-0.7-5.4-1.8-7.9-3c0,0,0,0,0,0l-7.6,1.9l-11.7-11l1.4-7.7
	c-1.5-2.4-2.6-5-3.6-7.7c0,0,0,0,0,0l-7.9-4.7L171.4,266z M221.4,290.4c10-0.3,17.8-8.7,17.4-18.7c-0.3-10-8.7-17.8-18.7-17.4
	c-10,0.3-17.8,8.7-17.4,18.7C203.1,283,211.5,290.8,221.4,290.4"/>
<path fill="#EBEBEB" d="M36.1,79c-0.4,0-0.7-0.2-0.9-0.5l-2.8-4c-1.4-0.4-2.7-0.9-4-1.5l-4,1c-0.4,0.1-0.8,0-1.1-0.3l-6.8-6.4
	c-0.3-0.3-0.4-0.7-0.3-1l0.7-4c-0.7-1.2-1.3-2.5-1.8-3.9l-4.2-2.5c-0.3-0.2-0.5-0.5-0.6-0.9L10,45.5c0-0.4,0.2-0.8,0.5-1l4-2.8
	c0.4-1.3,0.9-2.7,1.5-4l-1-4c-0.1-0.4,0-0.8,0.3-1.1l6.4-6.8c0.3-0.3,0.7-0.4,1-0.3l4.1,0.7c1.2-0.7,2.5-1.3,3.9-1.8l2.5-4.2
	c0.2-0.3,0.6-0.5,0.9-0.6l9.3-0.3c0.4,0,0.8,0.2,1,0.5l2.8,4c1.4,0.4,2.7,0.9,4,1.5l4-1c0.4-0.1,0.8,0,1.1,0.3l6.8,6.4
	c0.3,0.3,0.4,0.7,0.3,1l-0.7,4c0.7,1.2,1.3,2.5,1.8,3.9l4.2,2.5c0.3,0.2,0.5,0.6,0.6,0.9l0.3,9.3c0,0.4-0.2,0.8-0.5,1l-4,2.8
	c-0.4,1.4-0.9,2.8-1.5,4l1,4c0.1,0.4,0,0.8-0.3,1.1l-6.4,6.8c-0.3,0.3-0.7,0.4-1,0.3l-4-0.7c-1.3,0.7-2.6,1.3-3.9,1.8l-2.5,4.2
	c-0.2,0.3-0.6,0.5-0.9,0.6L36.1,79C36.1,79,36.1,79,36.1,79 M28.5,70.5c0.2,0,0.3,0,0.5,0.1c1.4,0.7,2.9,1.3,4.4,1.7
	c0.3,0.1,0.5,0.2,0.6,0.5l2.7,3.9l8.1-0.3l2.4-4c0.1-0.2,0.4-0.4,0.6-0.5c1.4-0.5,2.9-1.2,4.2-2c0.2-0.1,0.5-0.2,0.8-0.1l3.8,0.7
	l5.5-5.9l-1-3.8c-0.1-0.3,0-0.6,0.1-0.8c0.7-1.4,1.3-2.8,1.7-4.4c0.1-0.3,0.2-0.5,0.5-0.6l3.9-2.7L67,44.2l-4-2.4
	c-0.2-0.1-0.4-0.4-0.5-0.6c-0.5-1.5-1.2-2.9-2-4.2c-0.2-0.2-0.2-0.5-0.2-0.8l0.7-3.9l-5.9-5.5l-3.8,1c-0.3,0.1-0.5,0-0.8-0.1
	c-1.4-0.7-2.9-1.3-4.3-1.7c-0.3-0.1-0.5-0.2-0.7-0.5l-2.7-3.9L34.8,22l-2.4,4c-0.1,0.2-0.3,0.3-0.4,0.4c-0.1,0-0.2,0.1-0.2,0.1
	c-1.4,0.5-2.8,1.1-4.2,2c-0.2,0.1-0.5,0.2-0.8,0.1l-3.9-0.7l-5.5,5.9l1,3.8c0.1,0.3,0,0.5-0.1,0.8c-0.7,1.4-1.3,2.9-1.7,4.3
	c-0.1,0.3-0.2,0.5-0.5,0.6l-3.9,2.7l0.3,8.1l4,2.4c0.2,0.1,0.4,0.4,0.5,0.6c0.5,1.5,1.2,2.9,2,4.2c0.1,0.2,0.2,0.5,0.1,0.8L18.5,66
	l5.9,5.5l3.8-1C28.3,70.6,28.4,70.5,28.5,70.5 M61.4,36.4L61.4,36.4L61.4,36.4z M39.8,66.2c-4.3,0-8.4-1.6-11.6-4.6
	c-3.3-3.1-5.2-7.3-5.4-11.8c-0.2-4.5,1.5-8.9,4.6-12.2s7.3-5.2,11.9-5.4c4.5-0.2,8.9,1.5,12.2,4.6s5.2,7.3,5.4,11.9
	c0.2,4.5-1.5,8.9-4.6,12.2c-3.1,3.3-7.3,5.2-11.9,5.4C40.2,66.2,40,66.2,39.8,66.2 M39.8,34.4c-0.2,0-0.3,0-0.5,0
	c-3.9,0.1-7.6,1.8-10.3,4.7c-2.7,2.9-4.1,6.6-4,10.6c0.1,3.9,1.8,7.6,4.7,10.3c2.9,2.7,6.6,4.1,10.6,4c3.9-0.1,7.6-1.8,10.3-4.7
	c2.7-2.9,4.1-6.6,4-10.6c-0.1-3.9-1.8-7.6-4.7-10.3C47.1,35.8,43.5,34.4,39.8,34.4"/>
<circle fill="#007CFF" cx="446.4" cy="76" r="12.4"/>
<path fill="#007CFF" d="M411.3,219.6h-1v-9h1V219.6z M411.3,203.5h-1v-18.7h1V203.5z"/>
<rect x="-35" y="346.4" fill="#EBEBEB" width="500" height="0.2"/>
<rect x="381.8" y="362.5" fill="#EBEBEB" width="33.1" height="0.3"/>
<rect x="287.5" y="365.2" fill="#EBEBEB" width="8.7" height="0.3"/>
<rect x="361.6" y="353.2" fill="#EBEBEB" width="19.2" height="0.3"/>
<rect x="17.5" y="354.9" fill="#EBEBEB" width="43.2" height="0.3"/>
<rect x="69.6" y="354.9" fill="#EBEBEB" width="6.3" height="0.3"/>
<rect x="96.5" y="359.1" fill="#EBEBEB" width="93.7" height="0.3"/>
<path fill="#FFFFFF" d="M381.4,288.9H48.6c-8.2,0-14.8-6.6-14.8-14.8V61.3c0-8.2,6.6-14.8,14.8-14.8h332.8c8.2,0,14.8,6.6,14.8,14.8
	v212.8C396.2,282.2,389.6,288.9,381.4,288.9"/>
<path fill="#007CFF" d="M381.4,289.4H48.6c-8.5,0-15.4-6.9-15.4-15.3V61.3c0-8.5,6.9-15.4,15.4-15.4h332.8c8.5,0,15.3,6.9,15.3,15.4
	v212.8C396.8,282.5,389.9,289.4,381.4,289.4 M48.6,47c-7.9,0-14.3,6.4-14.3,14.3v212.8c0,7.9,6.4,14.3,14.3,14.3h332.8
	c7.9,0,14.3-6.4,14.3-14.3V61.3c0-7.9-6.4-14.3-14.3-14.3H48.6z"/>
<g opacity="0.5">
	<g>
		<defs>
			<rect id="SVGID_1_" x="54.8" y="106.1" width="107.4" height="132.6"/>
		</defs>
		<clipPath id="SVGID_2_">
			<use xlink:href="#SVGID_1_"  overflow="visible"/>
		</clipPath>
		<path clip-path="url(#SVGID_2_)" fill="#007CFF" d="M154.8,238.7h-5v-1.1h5V238.7L154.8,238.7z M144.7,238.7h-5v-1.1h5V238.7z
			 M134.6,238.7h-5v-1.1h5V238.7z M124.5,238.7h-5v-1.1h5V238.7z M114.5,238.7h-5v-1.1h5V238.7z M104.4,238.7h-5v-1.1h5V238.7z
			 M94.3,238.7h-5v-1.1h5V238.7z M84.2,238.7h-5v-1.1h5V238.7z M74.1,238.7h-5v-1.1h5V238.7z M64,238.7h-1.9c-1.2,0-2.3-0.3-3.3-0.8
			l0.5-1c0.9,0.4,1.8,0.7,2.8,0.7H64V238.7z M159.8,236.8l-0.7-0.8c1.2-1.1,1.9-2.5,2-4.1l1.1,0.1
			C162,233.8,161.2,235.5,159.8,236.8 M55.3,234c-0.3-0.8-0.5-1.7-0.5-2.6v-2.5h1.1v2.5c0,0.8,0.1,1.5,0.4,2.3L55.3,234z
			 M162.2,226.9h-1.1v-5h1.1V226.9z M55.9,223.8h-1.1v-5h1.1V223.8z M162.2,216.8h-1.1v-5h1.1V216.8z M55.9,213.7h-1.1v-5h1.1V213.7
			z M162.2,206.7h-1.1v-5h1.1V206.7z M55.9,203.6h-1.1v-5h1.1V203.6z M162.2,196.6h-1.1v-5h1.1V196.6z M55.9,193.6h-1.1v-5h1.1
			V193.6z M162.2,186.6h-1.1v-5h1.1V186.6z M55.9,183.5h-1.1v-5h1.1V183.5z M162.2,176.5h-1.1v-5h1.1V176.5z M55.9,173.4h-1.1v-5
			h1.1V173.4z M162.2,166.4h-1.1v-5h1.1V166.4z M55.9,163.3h-1.1v-5h1.1V163.3z M162.2,156.3h-1.1v-5h1.1V156.3z M55.9,153.2h-1.1
			v-5h1.1V153.2z M162.2,146.2h-1.1v-5h1.1V146.2z M55.9,143.1h-1.1v-5h1.1V143.1z M162.2,136.1h-1.1v-5h1.1V136.1z M55.9,133h-1.1
			v-5h1.1V133z M162.2,126h-1.1v-5h1.1V126z M55.9,123h-1.1v-5h1.1V123z M162.2,116h-1.1v-2.5c0-0.8-0.1-1.6-0.4-2.3l1-0.4
			c0.3,0.9,0.5,1.8,0.5,2.7V116z M55.9,112.9l-1.1-0.1c0.2-1.8,1-3.5,2.3-4.8l0.7,0.8C56.7,109.9,56,111.4,55.9,112.9 M157.6,107.8
			c-0.9-0.4-1.8-0.6-2.8-0.6h-1.9v-1.1h1.9c1.1,0,2.2,0.3,3.3,0.8L157.6,107.8z M147.8,107.2h-5v-1.1h5V107.2z M137.8,107.2h-5v-1.1
			h5V107.2z M127.7,107.2h-5v-1.1h5V107.2z M117.6,107.2h-5v-1.1h5V107.2z M107.5,107.2h-5v-1.1h5V107.2z M97.4,107.2h-5v-1.1h5
			V107.2z M87.3,107.2h-5v-1.1h5V107.2z M77.2,107.2h-5v-1.1h5V107.2z M67.2,107.2h-5l0-1.1h5V107.2z"/>
	</g>
</g>
<path fill="#007CFF" d="M62.4,62.1c0,2.6-2.1,4.8-4.8,4.8c-2.6,0-4.8-2.1-4.8-4.8c0-2.6,2.1-4.8,4.8-4.8
	C60.3,57.3,62.4,59.4,62.4,62.1"/>
<g opacity="0.2">
	<g>
		<defs>
			<rect id="SVGID_3_" x="67.6" y="59.3" width="29" height="5.6"/>
		</defs>
		<clipPath id="SVGID_4_">
			<use xlink:href="#SVGID_3_"  overflow="visible"/>
		</clipPath>
		<path clip-path="url(#SVGID_4_)" fill="#007CFF" d="M93.8,64.8H70.3c-1.5,0-2.8-1.3-2.8-2.8c0-1.5,1.3-2.8,2.8-2.8h23.4
			c1.5,0,2.8,1.3,2.8,2.8C96.6,63.6,95.3,64.8,93.8,64.8"/>
	</g>
</g>
<g opacity="0.2">
	<g>
		<defs>
			<rect id="SVGID_5_" x="188.7" y="60.5" width="19.5" height="3.1"/>
		</defs>
		<clipPath id="SVGID_6_">
			<use xlink:href="#SVGID_5_"  overflow="visible"/>
		</clipPath>
		<path clip-path="url(#SVGID_6_)" fill="#007CFF" d="M206.7,63.6h-16.4c-0.8,0-1.5-0.7-1.5-1.5c0-0.8,0.7-1.5,1.5-1.5h16.4
			c0.8,0,1.5,0.7,1.5,1.5C208.2,62.9,207.5,63.6,206.7,63.6"/>
	</g>
</g>
<g opacity="0.2">
	<g>
		<defs>
			<rect id="SVGID_7_" x="225.6" y="60.5" width="19.5" height="3.1"/>
		</defs>
		<clipPath id="SVGID_8_">
			<use xlink:href="#SVGID_7_"  overflow="visible"/>
		</clipPath>
		<path clip-path="url(#SVGID_8_)" fill="#007CFF" d="M243.5,63.6h-16.4c-0.8,0-1.5-0.7-1.5-1.5c0-0.8,0.7-1.5,1.5-1.5h16.4
			c0.8,0,1.5,0.7,1.5,1.5C245.1,62.9,244.4,63.6,243.5,63.6"/>
	</g>
</g>
<g opacity="0.2">
	<g>
		<defs>
			<rect id="SVGID_9_" x="262.4" y="60.5" width="19.5" height="3.1"/>
		</defs>
		<clipPath id="SVGID_10_">
			<use xlink:href="#SVGID_9_"  overflow="visible"/>
		</clipPath>
		<path clip-path="url(#SVGID_10_)" fill="#007CFF" d="M280.4,63.6H264c-0.8,0-1.5-0.7-1.5-1.5c0-0.8,0.7-1.5,1.5-1.5h16.4
			c0.8,0,1.5,0.7,1.5,1.5C281.9,62.9,281.3,63.6,280.4,63.6"/>
	</g>
</g>
<g opacity="0.2">
	<g>
		<defs>
			<rect id="SVGID_11_" x="299.3" y="60.5" width="19.5" height="3.1"/>
		</defs>
		<clipPath id="SVGID_12_">
			<use xlink:href="#SVGID_11_"  overflow="visible"/>
		</clipPath>
		<path clip-path="url(#SVGID_12_)" fill="#007CFF" d="M317.3,63.6h-16.4c-0.8,0-1.5-0.7-1.5-1.5c0-0.8,0.7-1.5,1.5-1.5h16.4
			c0.8,0,1.5,0.7,1.5,1.5C318.8,62.9,318.1,63.6,317.3,63.6"/>
	</g>
</g>
<g opacity="0.7">
	<g>
		<defs>
			<rect id="SVGID_13_" x="336.9" y="59.4" width="30.3" height="5.4"/>
		</defs>
		<clipPath id="SVGID_14_">
			<use xlink:href="#SVGID_13_"  overflow="visible"/>
		</clipPath>
		<path clip-path="url(#SVGID_14_)" fill="#007CFF" d="M364.5,64.8h-24.9c-1.5,0-2.7-1.2-2.7-2.7c0-1.5,1.2-2.7,2.7-2.7h24.9
			c1.5,0,2.7,1.2,2.7,2.7C367.2,63.6,365.9,64.8,364.5,64.8"/>
	</g>
</g>
<g opacity="0.7">
	<g>
		<defs>
			<rect id="SVGID_15_" x="188.7" y="234.7" width="58.1" height="12.8"/>
		</defs>
		<clipPath id="SVGID_16_">
			<use xlink:href="#SVGID_15_"  overflow="visible"/>
		</clipPath>
		<path clip-path="url(#SVGID_16_)" fill="#007CFF" d="M241,247.5h-46.6c-3.2,0-5.8-2.6-5.8-5.8v-1.3c0-3.2,2.6-5.8,5.8-5.8H241
			c3.2,0,5.8,2.6,5.8,5.8v1.3C246.8,244.9,244.2,247.5,241,247.5"/>
	</g>
</g>
<g opacity="0.2">
	<g>
		<defs>
			<rect id="SVGID_17_" x="364.1" y="127.5" width="3.1" height="51.7"/>
		</defs>
		<clipPath id="SVGID_18_">
			<use xlink:href="#SVGID_17_"  overflow="visible"/>
		</clipPath>
		<path clip-path="url(#SVGID_18_)" fill="#007CFF" d="M364.1,177.7v-48.6c0-0.8,0.7-1.5,1.5-1.5c0.8,0,1.5,0.7,1.5,1.5v48.6
			c0,0.8-0.7,1.5-1.5,1.5C364.8,179.2,364.1,178.5,364.1,177.7"/>
	</g>
</g>
<g opacity="0.2">
	<g>
		<defs>
			<rect id="SVGID_19_" x="364.1" y="190" width="3.1" height="3.1"/>
		</defs>
		<clipPath id="SVGID_20_">
			<use xlink:href="#SVGID_19_"  overflow="visible"/>
		</clipPath>
		<path clip-path="url(#SVGID_20_)" fill="#007CFF" d="M367.2,191.6c0,0.8-0.7,1.5-1.5,1.5c-0.8,0-1.5-0.7-1.5-1.5
			c0-0.8,0.7-1.5,1.5-1.5C366.5,190,367.2,190.7,367.2,191.6"/>
	</g>
</g>
<g opacity="0.2">
	<g>
		<defs>
			<rect id="SVGID_21_" x="364.1" y="211.6" width="3.1" height="3.1"/>
		</defs>
		<clipPath id="SVGID_22_">
			<use xlink:href="#SVGID_21_"  overflow="visible"/>
		</clipPath>
		<path clip-path="url(#SVGID_22_)" fill="#007CFF" d="M367.2,213.2c0,0.8-0.7,1.5-1.5,1.5c-0.8,0-1.5-0.7-1.5-1.5
			c0-0.8,0.7-1.5,1.5-1.5C366.5,211.6,367.2,212.3,367.2,213.2"/>
	</g>
</g>
<g opacity="0.2">
	<g>
		<defs>
			<rect id="SVGID_23_" x="364.1" y="233.3" width="3.1" height="3.1"/>
		</defs>
		<clipPath id="SVGID_24_">
			<use xlink:href="#SVGID_23_"  overflow="visible"/>
		</clipPath>
		<path clip-path="url(#SVGID_24_)" fill="#007CFF" d="M367.2,234.8c0,0.8-0.7,1.5-1.5,1.5c-0.8,0-1.5-0.7-1.5-1.5
			c0-0.8,0.7-1.5,1.5-1.5C366.5,233.3,367.2,234,367.2,234.8"/>
	</g>
</g>
<g opacity="0.2">
	<g>
		<defs>
			<rect id="SVGID_25_" x="188.7" y="106.6" width="143" height="24.6"/>
		</defs>
		<clipPath id="SVGID_26_">
			<use xlink:href="#SVGID_25_"  overflow="visible"/>
		</clipPath>
		<path clip-path="url(#SVGID_26_)" fill="#007CFF" d="M319.4,131.2H201c-6.8,0-12.3-5.5-12.3-12.3c0-6.8,5.5-12.3,12.3-12.3h118.5
			c6.8,0,12.3,5.5,12.3,12.3C331.7,125.7,326.2,131.2,319.4,131.2"/>
	</g>
</g>
<g opacity="0.2">
	<g>
		<defs>
			<rect id="SVGID_27_" x="188.7" y="142.3" width="99.5" height="24.6"/>
		</defs>
		<clipPath id="SVGID_28_">
			<use xlink:href="#SVGID_27_"  overflow="visible"/>
		</clipPath>
		<path clip-path="url(#SVGID_28_)" fill="#007CFF" d="M276,166.8h-75c-6.8,0-12.3-5.5-12.3-12.3c0-6.8,5.5-12.3,12.3-12.3h75
			c6.8,0,12.3,5.5,12.3,12.3C288.2,161.3,282.7,166.8,276,166.8"/>
	</g>
</g>
<path fill="#EBEBEB" d="M298,195.6H191.6c-1.6,0-2.9-1.3-2.9-2.9c0-1.6,1.3-2.9,2.9-2.9H298c1.6,0,2.9,1.3,2.9,2.9
	C300.9,194.3,299.6,195.6,298,195.6"/>
<path fill="#EBEBEB" d="M323.1,195.6h-10.9c-1.6,0-2.9-1.3-2.9-2.9c0-1.6,1.3-2.9,2.9-2.9h10.9c1.6,0,2.9,1.3,2.9,2.9
	C325.9,194.3,324.6,195.6,323.1,195.6"/>
<path fill="#EBEBEB" d="M238.5,201.7h45.8c1.6,0,2.9,1.3,2.9,2.9c0,1.6-1.3,2.9-2.9,2.9h-45.8c-1.6,0-2.9-1.3-2.9-2.9
	C235.6,203,236.9,201.7,238.5,201.7"/>
<path fill="#EBEBEB" d="M191.6,201.7h32.8c1.6,0,2.9,1.3,2.9,2.9c0,1.6-1.3,2.9-2.9,2.9h-32.8c-1.6,0-2.9-1.3-2.9-2.9
	C188.7,203,190,201.7,191.6,201.7"/>
<path fill="#EBEBEB" d="M256.1,219.3h-64.5c-1.6,0-2.9-1.3-2.9-2.9c0-1.6,1.3-2.9,2.9-2.9h64.5c1.6,0,2.9,1.3,2.9,2.9
	C258.9,218,257.6,219.3,256.1,219.3"/>
<path fill="#EBEBEB" d="M303,219.3h-32.8c-1.6,0-2.9-1.3-2.9-2.9c0-1.6,1.3-2.9,2.9-2.9H303c1.6,0,2.9,1.3,2.9,2.9
	C305.8,218,304.5,219.3,303,219.3"/>
<path fill="#007CFF" d="M184.9,220.1l-91.2,17.4c-3.6,0.7-7.1-1.7-7.8-5.3L63.7,116.1c-0.7-3.6,1.7-7.1,5.3-7.8l91.2-17.4
	c3.6-0.7,7.1,1.7,7.8,5.3l22.1,116.1C190.9,215.9,188.5,219.4,184.9,220.1"/>
<g opacity="0.2">
	<g>
		<defs>
			<rect id="SVGID_29_" x="66.9" y="94.9" width="120" height="138.6"/>
		</defs>
		<clipPath id="SVGID_30_">
			<use xlink:href="#SVGID_29_"  overflow="visible"/>
		</clipPath>
		<path clip-path="url(#SVGID_30_)" fill="#FFFFFF" d="M90.1,233.5c-0.1,0-0.2,0-0.2-0.1c-0.2-0.1-0.3-0.4-0.2-0.7l73.6-137.6
			c0.1-0.2,0.4-0.3,0.7-0.2c0.2,0.1,0.3,0.4,0.2,0.7L90.6,233.2C90.5,233.4,90.3,233.5,90.1,233.5"/>
		<path clip-path="url(#SVGID_30_)" fill="#FFFFFF" d="M186.4,215.1c-0.1,0-0.2,0-0.3-0.1l-119-100.9c-0.2-0.2-0.2-0.5-0.1-0.7
			c0.2-0.2,0.5-0.2,0.7-0.1l119,100.9c0.2,0.2,0.2,0.5,0.1,0.7C186.7,215.1,186.6,215.1,186.4,215.1"/>
	</g>
</g>
<path fill="#007CFF" d="M174.8,228.1c0,0,13,45.3,18.3,67.6c5.6,23.4,22.1,58.7,23.5,74.2c1.4,0.6,6.1-0.1,8.5-1.3
	c0,0-2.3-49.4-15.7-71.9c3-55.4-12-68.6-12-68.6H174.8z"/>
<g opacity="0.1">
	<g>
		<defs>
			<rect id="SVGID_31_" x="184.3" y="250.8" width="7.8" height="36.3"/>
		</defs>
		<clipPath id="SVGID_32_">
			<use xlink:href="#SVGID_31_"  overflow="visible"/>
		</clipPath>
		<path clip-path="url(#SVGID_32_)" d="M191.7,250.8l-7.3,11.3c2.3,8.5,4.7,17.4,6.6,25C193,273.9,191.7,250.8,191.7,250.8"/>
	</g>
</g>
<path fill="#FF8B7B" d="M201.7,189c0.2,0.6,0.4,1.1,0.5,1.6c0.2,0.5,0.3,1,0.4,1.5c0.3,1,0.5,2,0.7,3c0.4,2,0.7,4,0.9,6
	c0.2,2,0.3,4.1,0.3,6.1c0,2.1-0.2,4.1-0.5,6.2l0,0.3c0,0.2-0.1,0.5-0.2,0.7c-0.5,1.3-1.2,2.4-2,3.3c-0.8,0.9-1.6,1.5-2.4,2.1
	c-1.6,1.1-3.3,1.7-4.8,2.3c-1.6,0.5-3.1,0.8-4.7,1c-1.6,0.2-3,0.3-4.7,0.3c-1.5,0-2.7-1.3-2.7-2.8c0-1.1,0.7-2,1.6-2.4l0.2-0.1
	c1.1-0.5,2.4-1.1,3.6-1.7c1.2-0.6,2.3-1.2,3.3-1.8c1-0.6,1.9-1.3,2.5-2c0.6-0.6,0.8-1.2,0.7-1.3l-0.2,1c0-1.7,0-3.3-0.1-5
	c-0.1-1.7-0.3-3.4-0.6-5.1c-0.3-1.7-0.6-3.4-0.9-5.1c-0.2-0.8-0.4-1.7-0.6-2.5l-0.3-1.2l-0.3-1.1l-0.1-0.3c-0.8-2.9,0.9-5.9,3.8-6.6
	C197.9,184.8,200.8,186.3,201.7,189"/>
<path fill="#FF8B7B" d="M188.6,218.2l-6.5-1.9c-0.9-0.3-1.9-0.2-2.8,0.2l-2.4,1.1c-1.2,0.5-1.7,2-1.1,3.2l1.1,2.4
	c0.5,1,1.6,1.5,2.6,1.3l4.4-1c0,0,4.9,0.3,6.7-2.6L188.6,218.2z"/>
<path fill="#007CFF" d="M194.5,179.8c-3.5,3.6-5.4,9.1-2.5,19.6c3.7,1.9,12.8-0.6,12.8-0.6S204.9,183.1,194.5,179.8"/>
<g opacity="0.7">
	<g>
		<defs>
			<rect id="SVGID_33_" x="190.6" y="179.8" width="14.2" height="20.3"/>
		</defs>
		<clipPath id="SVGID_34_">
			<use xlink:href="#SVGID_33_"  overflow="visible"/>
		</clipPath>
		<path clip-path="url(#SVGID_34_)" fill="#FFFFFF" d="M194.5,179.8c-3.5,3.6-5.4,9.1-2.5,19.6c3.7,1.9,12.8-0.6,12.8-0.6
			S204.9,183.1,194.5,179.8"/>
	</g>
</g>
<path fill="#1A2E35" d="M200.8,187.1c-0.2,0-0.3,0.2-0.3,0.3c0,0.2,0.2,0.3,0.3,0.3c0,0,0,0,0,0l1.6-0.1c-0.1-0.2-0.2-0.4-0.3-0.6
	L200.8,187.1z"/>
<path fill="#1A2E35" d="M200.5,193.6c-0.1-0.1-0.3-0.1-0.5,0c-0.1,0.1-0.1,0.3,0,0.5l4.7,4c0-0.2,0-0.6-0.1-0.9L200.5,193.6z"/>
<path fill="#007CFF" d="M191,194.8l5.3-3.3c0.2-0.1,0.2-0.3,0.1-0.5s-0.3-0.2-0.5-0.1l-5.1,3.2C190.9,194.3,190.9,194.5,191,194.8"
	/>
<path fill="#FF8B7B" d="M185.5,164.2c-0.7,4.6-1.1,12.9,2.1,15.5c0,0-4.3-0.1-12.6,6.5c-3-3.4-1.3-4.8-1.3-4.8
	c4.9-1.8,4.6-5.5,3.6-8.9L185.5,164.2z"/>
<path fill="#1A2E35" d="M172.6,158.6c-0.2,0.6-0.6,1-1,1s-0.6-0.6-0.4-1.2s0.6-1,1-1C172.5,157.4,172.7,158,172.6,158.6"/>
<path fill="#1A2E35" d="M172.3,157.4l-1.3-0.7C171,156.8,171.4,158,172.3,157.4"/>
<path fill="#FF5551" d="M172.3,159.7c0,0-1.7,2.4-3.1,3.4c0.6,0.9,2,0.8,2,0.8L172.3,159.7z"/>
<path fill="#1A2E35" d="M172,153.6c0-0.1,0-0.2,0-0.3c0.1-0.2,0.3-0.3,0.5-0.2c1.9,0.7,2.4,2.3,2.4,2.4c0,0.2-0.1,0.4-0.3,0.4
	c-0.2,0-0.4-0.1-0.4-0.3c0-0.1-0.4-1.3-1.9-1.9C172.2,153.8,172.1,153.7,172,153.6"/>
<path fill="#FF8B7B" d="M192.6,159.9c-2.1,7.1-2.8,10.1-7.3,13.1c-6.7,4.5-14.9,0.9-15-6.5c0-6.7,3.4-17.1,11.1-18.7
	C189,146.2,194.7,152.8,192.6,159.9"/>
<path fill="#1A2E35" d="M176.3,160.3c-4.2-3-2.1-8.4,1.7-8.6c-5-3.5-2.4-9.8,3.7-9.6c6.1,0.3,7,4,7,4s9.9,0.5,11.2,7.7
	c1.6,8.4-3.5,13.8-9.9,16.3c4.3,3.5-5.9,6-10.9,3.2C174,170.4,172.2,164.1,176.3,160.3"/>
<path fill="#FFFFFF" d="M199.5,150.9c-5.4-1-8.1,6.4-4.6,10.8c0.6,0.8,1.2,1.3,1.8,1.7c2.2,1.5,5.2,0,5.4-2.7
	C202.4,157.1,202.4,151.4,199.5,150.9"/>
<path fill="#1A2E35" d="M214.1,154.7c0.4-0.3,0.7-0.7,0.7-1.1c0.2-2.1-1.4-3.5-3.3-3.8c-1.1-3.7-6-3.7-8.7-1.1
	c-2.2-1.1-4.7,1.4-4.4,4c-2.4,1.1-3,5-0.8,7.2c0.4,0.5,0.9,0.8,1.3,1c0.1,0.1,0.2,0.1,0.3,0.1c0.2,1.5,1.4,3,3.2,3.4
	c0.5,0.1,1,0.1,1.3,0.1c0.7-0.1,1.2-0.5,1.5-1.1c1.6,1.3,3.2,2.1,4.4,1.3c1.2-0.9,1.7-2.1,1.7-3.4c0.8,0.3,1.6,0.4,2.2-0.1
	C215.8,159.6,215.7,156.7,214.1,154.7"/>
<path fill="#FF8B7B" d="M178.6,161.4c-0.9,1.4-2.2,2.2-3.3,2.4c-1.7,0.3-2.3-1.7-1.5-3.6c0.7-1.7,2.3-3.9,3.9-3.3
	C179.3,157.5,179.6,159.8,178.6,161.4"/>
<path fill="#007CFF" d="M176.3,156.2c1.5-2.8,9.5-10.5,14.9-10.2c1.4,0.4,2.5,0.9,3.2,1.3c0.2,0.1,0.1,0.4-0.1,0.4
	c-2.1,0.2-8.9,1.8-15.3,11.9C177.5,158.5,176.3,156.2,176.3,156.2"/>
<path fill="#FFFFFF" d="M179.5,161.9c-1.3,2.9-3.9,4.5-5.8,3.7c-1.9-0.9-2.4-3.9-1.1-6.8c1.3-2.9,3.9-4.5,5.8-3.7
	C180.3,156,180.8,159,179.5,161.9"/>
<path fill="#007CFF" d="M177.9,161.2c-1.2,2.6-3.4,4.1-5,3.4c-1.6-0.7-1.9-3.4-0.8-6c1.2-2.6,3.4-4.1,5-3.4
	C178.8,155.9,179.1,158.6,177.9,161.2"/>
<path fill="#1A2E35" d="M212.3,380.2c5.6-0.8,5.7-1.8,8.7-2.8c2.6-0.9,3.3-0.8,5.4-1.5c1.7-0.6,1.1-2.2,0-4
	c-0.6-0.9-0.7-1.7-1.3-3.3l-8.5,1.3c-0.8,2.4-1.1,5.4-6,7.2C207.7,378.1,210,380.5,212.3,380.2"/>
<path fill="#1A2E35" d="M160.2,380.2c5.6,0,6.7-0.4,9.8-0.5c2.7-0.1,3.1,0.5,5.9,0.5c1.8,0,2.1-2,1.4-3.6c-0.5-1.2-0.6-2.6-1-4.2
	h-7.7c-1.4,2.4-5.2,4.2-9.4,4.5C156.2,377.3,158,380.2,160.2,380.2"/>
<path fill="#007CFF" d="M166.8,228.1c0,0-1.1,40.2,1.3,65.7c-0.1,23.9,0.6,78.8,0.6,78.8c0.2,1.2,6.6,0.7,7.7,0
	c0,0,12-39.9,6.7-78.8c13.4-40.5,10.5-65.7,10.5-65.7H166.8z"/>
<path fill="#007CFF" d="M215.5,366.8c0.1,0.8,0.2,2.1,0.2,3.2c0,0.4,0.3,0.7,0.7,0.7c3.2,0,7.6-1.4,9-1.8c0.3-0.1,0.4-0.3,0.4-0.6
	l0-3c0-0.4-0.4-0.7-0.8-0.7l-9,1.5C215.7,366.1,215.4,366.4,215.5,366.8"/>
<g opacity="0.5">
	<g>
		<defs>
			<rect id="SVGID_35_" x="215.5" y="364.5" width="10.3" height="6.1"/>
		</defs>
		<clipPath id="SVGID_36_">
			<use xlink:href="#SVGID_35_"  overflow="visible"/>
		</clipPath>
		<path clip-path="url(#SVGID_36_)" fill="#FFFFFF" d="M215.5,366.8c0.1,0.8,0.2,2.1,0.2,3.2c0,0.4,0.3,0.7,0.7,0.7
			c3.2,0,7.6-1.4,9-1.8c0.3-0.1,0.4-0.3,0.4-0.6l0-3c0-0.4-0.4-0.7-0.8-0.7l-9,1.5C215.7,366.1,215.4,366.4,215.5,366.8"/>
	</g>
</g>
<path fill="#007CFF" d="M167.7,369.1c0,0.8-0.1,2.3-0.1,3.4c0,0.4,0.2,0.7,0.6,0.7c2.7,0.4,7.1,0,8.5-0.1c0.3,0,0.5-0.2,0.6-0.5
	l0.6-3c0.1-0.4-0.2-0.8-0.7-0.8l-8.8-0.3C168,368.5,167.7,368.8,167.7,369.1"/>
<g opacity="0.5">
	<g>
		<defs>
			<rect id="SVGID_37_" x="167.6" y="368.5" width="10.2" height="4.9"/>
		</defs>
		<clipPath id="SVGID_38_">
			<use xlink:href="#SVGID_37_"  overflow="visible"/>
		</clipPath>
		<path clip-path="url(#SVGID_38_)" fill="#FFFFFF" d="M167.7,369.1c0,0.8-0.1,2.3-0.1,3.4c0,0.4,0.2,0.7,0.6,0.7
			c2.7,0.4,7.1,0,8.5-0.1c0.3,0,0.5-0.2,0.6-0.5l0.6-3c0.1-0.4-0.2-0.8-0.7-0.8l-8.8-0.3C168,368.5,167.7,368.8,167.7,369.1"/>
	</g>
</g>
<path fill="#007CFF" d="M161.7,194.4c0.3,3,0.6,6.8,1.9,13.9c1,6,1.7,11.9,3.1,21.8c13.8,1.4,30,0.3,30.7-2
	c-1.1-8.6-1.1-20.2,2-40.1c0.7-4.6-2.6-8.6-7.2-8.5c-1.2,0-2.5,0.1-3.8,0.2c-5.1,0.4-9.3,0.7-13.8,1.7c-1.5,0.3-3,0.7-4.5,1.1
	C164.8,183.8,161.2,189,161.7,194.4"/>
<g opacity="0.8">
	<g>
		<defs>
			<rect id="SVGID_39_" x="161.6" y="179.4" width="37.9" height="51.3"/>
		</defs>
		<clipPath id="SVGID_40_">
			<use xlink:href="#SVGID_39_"  overflow="visible"/>
		</clipPath>
		<path clip-path="url(#SVGID_40_)" fill="#FFFFFF" d="M161.7,194.4c0.3,3,0.6,6.8,1.9,13.9c1,6,1.7,11.9,3.1,21.8
			c13.8,1.4,30,0.3,30.7-2c-1.1-8.6-1.1-20.2,2-40.1c0.7-4.6-2.6-8.6-7.2-8.5c-1.2,0-2.5,0.1-3.8,0.2c-5.1,0.4-9.3,0.7-13.8,1.7
			c-1.5,0.3-3,0.7-4.5,1.1C164.8,183.8,161.2,189,161.7,194.4"/>
	</g>
</g>
<path fill="#1A2E35" d="M164.1,186.4l1.6,2c0.1,0.1,0.2,0.1,0.3,0.1c0.1,0,0.1,0,0.2-0.1c0.1-0.1,0.2-0.3,0.1-0.5l-1.7-2.1
	C164.4,186,164.3,186.2,164.1,186.4"/>
<path fill="#007CFF" d="M171.5,185.2C171.5,185.2,171.5,185.2,171.5,185.2c0.2,0,0.3-0.1,0.3-0.3l0.2-3c-0.2,0.1-0.4,0.1-0.7,0.2
	l-0.2,2.8C171.1,185,171.3,185.2,171.5,185.2"/>
<path fill="#007CFF" d="M185.8,187.9c0.1,0,0.1,0.1,0.2,0.1c0.1,0,0.2-0.1,0.3-0.1c0.1-0.2,0.1-0.4-0.1-0.5l-8.4-5.6
	c-0.2-0.1-0.4-0.1-0.5,0.1c-0.1,0.2-0.1,0.4,0.1,0.5L185.8,187.9z"/>
<path fill="#1A2E35" d="M171.5,189.7c-0.1,0.2,0,0.4,0.2,0.4l9.4,3.7c0,0,0.1,0,0.1,0c0.1,0,0.3-0.1,0.3-0.2c0.1-0.2,0-0.4-0.2-0.4
	l-9.4-3.7C171.8,189.5,171.6,189.6,171.5,189.7"/>
<path fill="#007CFF" d="M166.1,206.4c0.1,0,0.1,0.1,0.2,0.1c0.1,0,0.2-0.1,0.3-0.2l5.5-8.5c0.1-0.2,0.1-0.4-0.1-0.5
	c-0.2-0.1-0.4-0.1-0.5,0.1L166,206C165.9,206.1,165.9,206.3,166.1,206.4"/>
<path fill="#007CFF" d="M163.4,199c0.1,0.1,0.1,0.1,0.2,0.1c0.1,0,0.2,0,0.2-0.1c0.1-0.1,0.1-0.3,0-0.5l-2-1.8c0,0.3,0.1,0.7,0.1,1
	L163.4,199z"/>
<path fill="#007CFF" d="M193.1,204.6c-0.2,0.1-0.3,0.3-0.2,0.4c0,0.1,0.2,0.2,0.3,0.2c0,0,0.1,0,0.1,0l4.2-1.5c0-0.2,0-0.5,0.1-0.7
	L193.1,204.6z"/>
<path fill="#007CFF" d="M191.3,197.9c0.1,0,0.1,0,0.2,0l7.2-4.5c0-0.3,0.1-0.6,0.1-0.9l-7.7,4.8c-0.2,0.1-0.2,0.3-0.1,0.5
	C191.1,197.8,191.2,197.9,191.3,197.9"/>
<path fill="#007CFF" d="M186.4,199.1c-0.1-0.2-0.3-0.2-0.5-0.1l-8.5,5.4c-0.2,0.1-0.2,0.3-0.1,0.5c0.1,0.1,0.2,0.2,0.3,0.2
	c0.1,0,0.1,0,0.2-0.1l8.5-5.4C186.4,199.5,186.5,199.3,186.4,199.1"/>
<path fill="#1A2E35" d="M193.6,187.8c0,0,0.1,0,0.1,0c0.2-0.1,0.3-0.3,0.2-0.4l-3-7.8c-0.2,0-0.5,0-0.7,0l3,8
	C193.3,187.7,193.4,187.8,193.6,187.8"/>
<path fill="#007CFF" d="M185.1,228.7c-0.2-0.1-0.4-0.1-0.5,0.1c-0.1,0.2-0.1,0.4,0.1,0.5l1.9,1.2c0.4,0,0.7,0,1.1-0.1L185.1,228.7z"
	/>
<path fill="#007CFF" d="M197.1,225.6l-7.3-2.8c-0.2-0.1-0.4,0-0.4,0.2c-0.1,0.2,0,0.4,0.2,0.4l7.6,3
	C197.2,226.1,197.2,225.9,197.1,225.6"/>
<path fill="#1A2E35" d="M166.4,227.8c0,0.2,0.1,0.4,0.1,0.6c0.1-0.1,0.2-0.2,0.2-0.3C166.7,227.9,166.5,227.8,166.4,227.8"/>
<path fill="#007CFF" d="M166.3,217.7c0.1,0,0.2,0,0.3-0.1c0.1-0.1,0.1-0.3,0-0.5l-1.8-1.5c0,0.3,0.1,0.6,0.1,1l1.3,1.1
	C166.1,217.7,166.2,217.7,166.3,217.7"/>
<path fill="#1A2E35" d="M181.7,214.5c0.1,0,0.3-0.1,0.3-0.2c0.1-0.2,0-0.4-0.2-0.4l-9.4-3.7c-0.2-0.1-0.4,0-0.4,0.2
	c-0.1,0.2,0,0.4,0.2,0.4l9.4,3.7C181.6,214.4,181.6,214.5,181.7,214.5"/>
<path fill="#007CFF" d="M179.5,218.8l-8.5,5.4c-0.2,0.1-0.2,0.3-0.1,0.5c0.1,0.1,0.2,0.2,0.3,0.2c0.1,0,0.1,0,0.2-0.1l8.5-5.4
	c0.2-0.1,0.2-0.3,0.1-0.5C179.8,218.7,179.6,218.7,179.5,218.8"/>
<path fill="#1A2E35" d="M187.4,216.2c0.1,0.1,0.2,0.2,0.3,0.2c0.1,0,0.1,0,0.2-0.1l8.5-5.4c0.2-0.1,0.2-0.3,0.1-0.5
	c-0.1-0.2-0.3-0.2-0.5-0.1l-8.5,5.4C187.3,215.9,187.3,216.1,187.4,216.2"/>
<path fill="#1A2E35" d="M177.7,229c-0.1-0.2-0.3-0.3-0.4-0.2s-0.3,0.3-0.2,0.4l0.6,1.5c0.2,0,0.5,0,0.7,0L177.7,229z"/>
<path fill="#FF8B7B" d="M170.7,194.6c-0.1,0.7-0.1,1.1-0.2,1.6c-0.1,0.5-0.2,1-0.3,1.5c-0.2,1-0.4,2-0.6,3c-0.5,2-1.1,3.9-1.8,5.8
	c-0.7,1.9-1.5,3.8-2.4,5.6c-0.9,1.9-2,3.6-3.1,5.4l-0.2,0.3c-0.1,0.2-0.3,0.4-0.4,0.5c-1.8,1.7-3.5,2.9-5.2,4.1
	c-1.7,1.2-3.4,2.3-5.1,3.3c-1.7,1-3.5,2.1-5.2,3c-1.8,0.9-3.5,1.9-5.4,2.8c-1.4,0.6-3,0-3.6-1.3c-0.5-1.1-0.2-2.3,0.6-3.1l0,0
	c1.4-1.4,2.9-2.7,4.4-4l4.4-3.9c1.5-1.3,2.9-2.6,4.3-3.9c0.7-0.6,1.4-1.3,2-1.9l0.9-0.9c0.3-0.3,0.5-0.6,0.8-0.9l-0.6,0.8
	c0.7-1.5,1.4-3,2.1-4.5c0.6-1.6,1.2-3.2,1.7-4.8c0.5-1.6,0.9-3.3,1.3-5c0.2-0.8,0.4-1.7,0.6-2.5l0.4-2.4l0.1-0.3
	c0.6-2.9,3.4-4.9,6.3-4.3C169.2,189.2,171.1,191.8,170.7,194.6"/>
<path fill="#FF8B7B" d="M140.3,227l-5.6-1.7c-0.9-0.3-1.9-0.2-2.8,0.2l-2.5,1.1c-1.2,0.5-1.7,2-1.2,3.1l1.1,2.4
	c0.5,1,1.5,1.5,2.6,1.3l4.4-0.9c0,0,2.2,0.2,4.2-0.6c1.6-0.6,2.1-2.5,1.2-3.9C141.4,227.5,140.9,227.1,140.3,227"/>
<path fill="#007CFF" d="M168.2,183.2c-4.7,1.8-8.8,5.9-10.7,16.6c2.6,3.3,11.8,5,11.8,5S176.2,190.7,168.2,183.2"/>
<g opacity="0.8">
	<g>
		<defs>
			<rect id="SVGID_41_" x="157.5" y="183.2" width="14.6" height="21.6"/>
		</defs>
		<clipPath id="SVGID_42_">
			<use xlink:href="#SVGID_41_"  overflow="visible"/>
		</clipPath>
		<path clip-path="url(#SVGID_42_)" fill="#FFFFFF" d="M168.2,183.2c-4.7,1.8-8.8,5.9-10.7,16.6c2.6,3.3,11.8,5,11.8,5
			S176.2,190.7,168.2,183.2"/>
	</g>
</g>
<path fill="#1A2E35" d="M165.7,188.4c0.1,0.1,0.2,0.1,0.3,0.1c0.1,0,0.1,0,0.2-0.1c0.1-0.1,0.2-0.3,0.1-0.5l-2-2.5
	c-0.2,0.1-0.3,0.3-0.5,0.4L165.7,188.4z"/>
<path fill="#1A2E35" d="M171.5,189.7c-0.1,0.2,0,0.4,0.2,0.4l0.1,0c0-0.2-0.1-0.4-0.1-0.7C171.6,189.6,171.5,189.6,171.5,189.7"/>
<path fill="#007CFF" d="M167.7,204.5l3.5-5.5c0.1-0.5,0.2-1,0.3-1.6c-0.1,0-0.1,0.1-0.2,0.1l-4.4,6.8
	C167.3,204.4,167.5,204.4,167.7,204.5"/>
<path fill="#007CFF" d="M163.4,199c0.1,0.1,0.1,0.1,0.2,0.1c0.1,0,0.2,0,0.2-0.1c0.1-0.1,0.1-0.3,0-0.5L159,194
	c-0.1,0.2-0.2,0.5-0.2,0.7L163.4,199z"/>
<path fill="#1A2E35" d="M299,291.8c-1.4-5.4,0.3-7.5,2.3-9.6s1.7-5.8,1.7-5.8s3.1,6.1,2.2,13.3C304.3,296.9,300,295.8,299,291.8"/>
<path fill="#1A2E35" d="M307.6,335.5c-2.1-3.5-10.9-10.8-17.6-7.9c5.4,2.2,11.3,15.7,19.2,15.2C307.8,336.6,307.6,335.5,307.6,335.5
	"/>
<path fill="#007CFF" d="M313.8,365.6c-0.4,0-0.8-0.3-0.9-0.7c-1.3-5.3-12.7-52.7-17.2-86.3c-0.1-0.5,0.3-1,0.8-1.1
	c0.5-0.1,1,0.3,1.1,0.8c4.5,33.6,15.9,80.9,17.2,86.2c0.1,0.5-0.2,1-0.7,1.1C314,365.6,313.9,365.6,313.8,365.6"/>
<path fill="#007CFF" d="M298,280.5c0.1-4-1.7-6.4-6.4-6.8c-4.7-0.4-6.1-2.4-7-4.2c1.6,9.1,12.5,11.4,13.6,15.9
	C298,282.1,298,280.5,298,280.5"/>
<path fill="#007CFF" d="M300.1,295.6c-0.4-4.2-3.7-4.7-7.6-5.2c-3.8-0.5-5.1-3-5.1-3s-1.7,5.4,2.8,9.7
	C294.7,301.4,300.4,298.7,300.1,295.6"/>
<path fill="#007CFF" d="M306.5,332.3c-0.7-4.6,2.5-6.6,2-13.4C317.6,334.6,307.5,339.6,306.5,332.3"/>
<path fill="#007CFF" d="M302.2,313.4c-2.6-3.9-6.2-3.3-10.4-8.7C295.3,322.4,306.2,319.5,302.2,313.4"/>
<path fill="#1A2E35" d="M321.5,314.3c0.2-6.3-5.6-9.6-10-15.9C314.1,310.9,321.1,324.2,321.5,314.3"/>
<path fill="#007CFF" d="M318.6,359.9C318.6,359.9,318.5,359.9,318.6,359.9c-0.7-0.1-1.2-0.6-1.1-1.2c1-13.2,4.7-70,3.7-107.2
	c0-0.6,0.5-1.1,1.1-1.1c0.6,0,1.1,0.5,1.1,1.1c1,37.3-2.7,94.2-3.7,107.4C319.6,359.5,319.2,359.9,318.6,359.9"/>
<path fill="#007CFF" d="M321.4,254.5c-1.4-7.6,1.5-12.8,10.3-15c8.8-2.2,11.1-6.3,12.2-10.1c-0.3,18-20.8,25.6-21.5,34.6
	C321.9,257.5,321.4,254.5,321.4,254.5"/>
<path fill="#007CFF" d="M322.1,269.9c1.4-9.1-5.5-12.1-13.4-15.3c-7.9-3.1-9.3-9.1-9.3-9.1s-6.6,10.6,0.8,22.1
	C307.5,279.3,321.1,276.5,322.1,269.9"/>
<path fill="#007CFF" d="M322.1,293.2c1.5-7.2,7.5-7.6,14.4-7.7c6.8-0.1,9.5-4.2,9.5-4.2s2,9.8-6.8,16.4
	C330.4,304.4,321,298.5,322.1,293.2"/>
<path fill="#007CFF" d="M320.8,328.3c1.7-4.4,10.3-14.8,18.6-12.9c-5.7,3.7-9.7,20.6-18.9,21.6C320.8,329.6,320.8,328.3,320.8,328.3
	"/>
<path fill="#007CFF" d="M328.8,350.2H301c-1.5,0-2.7,1.5-2.2,3l7.5,25.5c0.3,1,1.2,1.7,2.2,1.7h12.8c1,0,1.9-0.7,2.2-1.7l7.5-25.5
	C331.4,351.6,330.3,350.2,328.8,350.2"/>
<g opacity="0.2">
	<g>
		<defs>
			<rect id="SVGID_43_" x="298.6" y="350.2" width="32.4" height="30.1"/>
		</defs>
		<clipPath id="SVGID_44_">
			<use xlink:href="#SVGID_43_"  overflow="visible"/>
		</clipPath>
		<path clip-path="url(#SVGID_44_)" fill="#007CFF" d="M328.8,350.2H301c-1.5,0-2.7,1.5-2.2,3l7.5,25.5c0.3,1,1.2,1.7,2.2,1.7h12.8
			c1,0,1.9-0.7,2.2-1.7l7.5-25.5C331.4,351.6,330.3,350.2,328.8,350.2"/>
	</g>
</g>
<g opacity="0.7">
	<g>
		<defs>
			<rect id="SVGID_45_" x="298.6" y="350.2" width="32.4" height="30.1"/>
		</defs>
		<clipPath id="SVGID_46_">
			<use xlink:href="#SVGID_45_"  overflow="visible"/>
		</clipPath>
		<path clip-path="url(#SVGID_46_)" fill="#FFFFFF" d="M328.8,350.2H301c-1.5,0-2.7,1.5-2.2,3l7.5,25.5c0.3,1,1.2,1.7,2.2,1.7h12.8
			c1,0,1.9-0.7,2.2-1.7l7.5-25.5C331.4,351.6,330.3,350.2,328.8,350.2"/>
	</g>
</g>
<circle fill="none" stroke="#007CFF" stroke-miterlimit="10" stroke-dasharray="4" cx="396.8" cy="277.5" r="25.2"/>
</svg>
